<?xml version="1.0" encoding="utf-8"?>
<svg xmlns="http://www.w3.org/2000/svg" xmlns:xlink="http://www.w3.org/1999/xlink" width="600" height="300" viewBox="0 0 2400 1200">
<defs>
  <clipPath id="clip780">
    <rect x="0" y="0" width="2400" height="1200"/>
  </clipPath>
</defs>
<path clip-path="url(#clip780)" d="M0 1200 L2400 1200 L2400 0 L0 0  Z" fill="#ffffff" fill-rule="evenodd" fill-opacity="1"/>
<defs>
  <clipPath id="clip781">
    <rect x="480" y="0" width="1681" height="1200"/>
  </clipPath>
</defs>
<path clip-path="url(#clip780)" d="M290.578 1047.7 L2352.76 1047.7 L2352.76 47.2441 L290.578 47.2441  Z" fill="#ffffff" fill-rule="evenodd" fill-opacity="1"/>
<defs>
  <clipPath id="clip782">
    <rect x="290" y="47" width="2063" height="1001"/>
  </clipPath>
</defs>
<polyline clip-path="url(#clip782)" style="stroke:#000000; stroke-linecap:round; stroke-linejoin:round; stroke-width:2; stroke-opacity:0.1; fill:none" points="367.049,1047.7 367.049,47.2441 "/>
<polyline clip-path="url(#clip782)" style="stroke:#000000; stroke-linecap:round; stroke-linejoin:round; stroke-width:2; stroke-opacity:0.1; fill:none" points="982.932,1047.7 982.932,47.2441 "/>
<polyline clip-path="url(#clip782)" style="stroke:#000000; stroke-linecap:round; stroke-linejoin:round; stroke-width:2; stroke-opacity:0.1; fill:none" points="1598.81,1047.7 1598.81,47.2441 "/>
<polyline clip-path="url(#clip782)" style="stroke:#000000; stroke-linecap:round; stroke-linejoin:round; stroke-width:2; stroke-opacity:0.1; fill:none" points="2214.7,1047.7 2214.7,47.2441 "/>
<polyline clip-path="url(#clip780)" style="stroke:#000000; stroke-linecap:round; stroke-linejoin:round; stroke-width:4; stroke-opacity:1; fill:none" points="290.578,1047.7 2352.76,1047.7 "/>
<polyline clip-path="url(#clip780)" style="stroke:#000000; stroke-linecap:round; stroke-linejoin:round; stroke-width:4; stroke-opacity:1; fill:none" points="367.049,1047.7 367.049,1028.8 "/>
<polyline clip-path="url(#clip780)" style="stroke:#000000; stroke-linecap:round; stroke-linejoin:round; stroke-width:4; stroke-opacity:1; fill:none" points="982.932,1047.7 982.932,1028.8 "/>
<polyline clip-path="url(#clip780)" style="stroke:#000000; stroke-linecap:round; stroke-linejoin:round; stroke-width:4; stroke-opacity:1; fill:none" points="1598.81,1047.7 1598.81,1028.8 "/>
<polyline clip-path="url(#clip780)" style="stroke:#000000; stroke-linecap:round; stroke-linejoin:round; stroke-width:4; stroke-opacity:1; fill:none" points="2214.7,1047.7 2214.7,1028.8 "/>
<path clip-path="url(#clip780)" d="M367.049 1078.62 Q363.438 1078.62 361.609 1082.18 Q359.804 1085.72 359.804 1092.85 Q359.804 1099.96 361.609 1103.53 Q363.438 1107.07 367.049 1107.07 Q370.683 1107.07 372.489 1103.53 Q374.317 1099.96 374.317 1092.85 Q374.317 1085.72 372.489 1082.18 Q370.683 1078.62 367.049 1078.62 M367.049 1074.91 Q372.859 1074.91 375.915 1079.52 Q378.993 1084.1 378.993 1092.85 Q378.993 1101.58 375.915 1106.19 Q372.859 1110.77 367.049 1110.77 Q361.239 1110.77 358.16 1106.19 Q355.105 1101.58 355.105 1092.85 Q355.105 1084.1 358.16 1079.52 Q361.239 1074.91 367.049 1074.91 Z" fill="#000000" fill-rule="nonzero" fill-opacity="1" /><path clip-path="url(#clip780)" d="M957.619 1106.16 L965.258 1106.16 L965.258 1079.8 L956.948 1081.47 L956.948 1077.21 L965.212 1075.54 L969.888 1075.54 L969.888 1106.16 L977.527 1106.16 L977.527 1110.1 L957.619 1110.1 L957.619 1106.16 Z" fill="#000000" fill-rule="nonzero" fill-opacity="1" /><path clip-path="url(#clip780)" d="M996.971 1078.62 Q993.36 1078.62 991.531 1082.18 Q989.726 1085.72 989.726 1092.85 Q989.726 1099.96 991.531 1103.53 Q993.36 1107.07 996.971 1107.07 Q1000.61 1107.07 1002.41 1103.53 Q1004.24 1099.96 1004.24 1092.85 Q1004.24 1085.72 1002.41 1082.18 Q1000.61 1078.62 996.971 1078.62 M996.971 1074.91 Q1002.78 1074.91 1005.84 1079.52 Q1008.92 1084.1 1008.92 1092.85 Q1008.92 1101.58 1005.84 1106.19 Q1002.78 1110.77 996.971 1110.77 Q991.161 1110.77 988.082 1106.19 Q985.027 1101.58 985.027 1092.85 Q985.027 1084.1 988.082 1079.52 Q991.161 1074.91 996.971 1074.91 Z" fill="#000000" fill-rule="nonzero" fill-opacity="1" /><path clip-path="url(#clip780)" d="M1577.59 1106.16 L1593.91 1106.16 L1593.91 1110.1 L1571.96 1110.1 L1571.96 1106.16 Q1574.62 1103.41 1579.21 1098.78 Q1583.81 1094.13 1585 1092.79 Q1587.24 1090.26 1588.12 1088.53 Q1589.02 1086.77 1589.02 1085.08 Q1589.02 1082.32 1587.08 1080.59 Q1585.16 1078.85 1582.06 1078.85 Q1579.86 1078.85 1577.4 1079.61 Q1574.97 1080.38 1572.19 1081.93 L1572.19 1077.21 Q1575.02 1076.07 1577.47 1075.49 Q1579.93 1074.91 1581.96 1074.91 Q1587.33 1074.91 1590.53 1077.6 Q1593.72 1080.29 1593.72 1084.78 Q1593.72 1086.91 1592.91 1088.83 Q1592.12 1090.72 1590.02 1093.32 Q1589.44 1093.99 1586.34 1097.21 Q1583.24 1100.4 1577.59 1106.16 Z" fill="#000000" fill-rule="nonzero" fill-opacity="1" /><path clip-path="url(#clip780)" d="M1613.72 1078.62 Q1610.11 1078.62 1608.28 1082.18 Q1606.48 1085.72 1606.48 1092.85 Q1606.48 1099.96 1608.28 1103.53 Q1610.11 1107.07 1613.72 1107.07 Q1617.36 1107.07 1619.16 1103.53 Q1620.99 1099.96 1620.99 1092.85 Q1620.99 1085.72 1619.16 1082.18 Q1617.36 1078.62 1613.72 1078.62 M1613.72 1074.91 Q1619.53 1074.91 1622.59 1079.52 Q1625.67 1084.1 1625.67 1092.85 Q1625.67 1101.58 1622.59 1106.19 Q1619.53 1110.77 1613.72 1110.77 Q1607.91 1110.77 1604.83 1106.19 Q1601.78 1101.58 1601.78 1092.85 Q1601.78 1084.1 1604.83 1079.52 Q1607.91 1074.91 1613.72 1074.91 Z" fill="#000000" fill-rule="nonzero" fill-opacity="1" /><path clip-path="url(#clip780)" d="M2203.54 1091.47 Q2206.9 1092.18 2208.77 1094.45 Q2210.67 1096.72 2210.67 1100.05 Q2210.67 1105.17 2207.15 1107.97 Q2203.63 1110.77 2197.15 1110.77 Q2194.98 1110.77 2192.66 1110.33 Q2190.37 1109.91 2187.91 1109.06 L2187.91 1104.54 Q2189.86 1105.68 2192.17 1106.26 Q2194.49 1106.84 2197.01 1106.84 Q2201.41 1106.84 2203.7 1105.1 Q2206.02 1103.36 2206.02 1100.05 Q2206.02 1097 2203.86 1095.29 Q2201.73 1093.55 2197.91 1093.55 L2193.89 1093.55 L2193.89 1089.71 L2198.1 1089.71 Q2201.55 1089.71 2203.38 1088.34 Q2205.21 1086.95 2205.21 1084.36 Q2205.21 1081.7 2203.31 1080.29 Q2201.43 1078.85 2197.91 1078.85 Q2195.99 1078.85 2193.79 1079.27 Q2191.6 1079.68 2188.96 1080.56 L2188.96 1076.4 Q2191.62 1075.66 2193.93 1075.29 Q2196.27 1074.91 2198.33 1074.91 Q2203.66 1074.91 2206.76 1077.35 Q2209.86 1079.75 2209.86 1083.87 Q2209.86 1086.74 2208.22 1088.73 Q2206.57 1090.7 2203.54 1091.47 Z" fill="#000000" fill-rule="nonzero" fill-opacity="1" /><path clip-path="url(#clip780)" d="M2229.54 1078.62 Q2225.92 1078.62 2224.1 1082.18 Q2222.29 1085.72 2222.29 1092.85 Q2222.29 1099.96 2224.1 1103.53 Q2225.92 1107.07 2229.54 1107.07 Q2233.17 1107.07 2234.97 1103.53 Q2236.8 1099.96 2236.8 1092.85 Q2236.8 1085.72 2234.97 1082.18 Q2233.17 1078.62 2229.54 1078.62 M2229.54 1074.91 Q2235.35 1074.91 2238.4 1079.52 Q2241.48 1084.1 2241.48 1092.85 Q2241.48 1101.58 2238.4 1106.19 Q2235.35 1110.77 2229.54 1110.77 Q2223.72 1110.77 2220.65 1106.19 Q2217.59 1101.58 2217.59 1092.85 Q2217.59 1084.1 2220.65 1079.52 Q2223.72 1074.91 2229.54 1074.91 Z" fill="#000000" fill-rule="nonzero" fill-opacity="1" /><path clip-path="url(#clip780)" d="M1305.85 1143.04 L1311.74 1143.04 L1311.74 1172.29 L1329.21 1156.92 L1336.69 1156.92 L1317.78 1173.59 L1337.49 1192.56 L1329.85 1192.56 L1311.74 1175.15 L1311.74 1192.56 L1305.85 1192.56 L1305.85 1143.04 Z" fill="#000000" fill-rule="nonzero" fill-opacity="1" /><polyline clip-path="url(#clip782)" style="stroke:#000000; stroke-linecap:round; stroke-linejoin:round; stroke-width:2; stroke-opacity:0.1; fill:none" points="290.578,853.838 2352.76,853.838 "/>
<polyline clip-path="url(#clip782)" style="stroke:#000000; stroke-linecap:round; stroke-linejoin:round; stroke-width:2; stroke-opacity:0.1; fill:none" points="290.578,652.189 2352.76,652.189 "/>
<polyline clip-path="url(#clip782)" style="stroke:#000000; stroke-linecap:round; stroke-linejoin:round; stroke-width:2; stroke-opacity:0.1; fill:none" points="290.578,450.541 2352.76,450.541 "/>
<polyline clip-path="url(#clip782)" style="stroke:#000000; stroke-linecap:round; stroke-linejoin:round; stroke-width:2; stroke-opacity:0.1; fill:none" points="290.578,248.893 2352.76,248.893 "/>
<polyline clip-path="url(#clip782)" style="stroke:#000000; stroke-linecap:round; stroke-linejoin:round; stroke-width:2; stroke-opacity:0.1; fill:none" points="290.578,47.2441 2352.76,47.2441 "/>
<polyline clip-path="url(#clip780)" style="stroke:#000000; stroke-linecap:round; stroke-linejoin:round; stroke-width:4; stroke-opacity:1; fill:none" points="290.578,1047.7 290.578,47.2441 "/>
<polyline clip-path="url(#clip780)" style="stroke:#000000; stroke-linecap:round; stroke-linejoin:round; stroke-width:4; stroke-opacity:1; fill:none" points="290.578,853.838 309.476,853.838 "/>
<polyline clip-path="url(#clip780)" style="stroke:#000000; stroke-linecap:round; stroke-linejoin:round; stroke-width:4; stroke-opacity:1; fill:none" points="290.578,652.189 309.476,652.189 "/>
<polyline clip-path="url(#clip780)" style="stroke:#000000; stroke-linecap:round; stroke-linejoin:round; stroke-width:4; stroke-opacity:1; fill:none" points="290.578,450.541 309.476,450.541 "/>
<polyline clip-path="url(#clip780)" style="stroke:#000000; stroke-linecap:round; stroke-linejoin:round; stroke-width:4; stroke-opacity:1; fill:none" points="290.578,248.893 309.476,248.893 "/>
<polyline clip-path="url(#clip780)" style="stroke:#000000; stroke-linecap:round; stroke-linejoin:round; stroke-width:4; stroke-opacity:1; fill:none" points="290.578,47.2441 309.476,47.2441 "/>
<path clip-path="url(#clip780)" d="M102.38 854.289 L132.056 854.289 L132.056 858.225 L102.38 858.225 L102.38 854.289 Z" fill="#000000" fill-rule="nonzero" fill-opacity="1" /><path clip-path="url(#clip780)" d="M142.959 867.183 L150.597 867.183 L150.597 840.817 L142.287 842.484 L142.287 838.225 L150.551 836.558 L155.227 836.558 L155.227 867.183 L162.866 867.183 L162.866 871.118 L142.959 871.118 L142.959 867.183 Z" fill="#000000" fill-rule="nonzero" fill-opacity="1" /><path clip-path="url(#clip780)" d="M182.31 839.637 Q178.699 839.637 176.87 843.201 Q175.065 846.743 175.065 853.873 Q175.065 860.979 176.87 864.544 Q178.699 868.086 182.31 868.086 Q185.945 868.086 187.75 864.544 Q189.579 860.979 189.579 853.873 Q189.579 846.743 187.75 843.201 Q185.945 839.637 182.31 839.637 M182.31 835.933 Q188.12 835.933 191.176 840.539 Q194.255 845.123 194.255 853.873 Q194.255 862.599 191.176 867.206 Q188.12 871.789 182.31 871.789 Q176.5 871.789 173.421 867.206 Q170.366 862.599 170.366 853.873 Q170.366 845.123 173.421 840.539 Q176.5 835.933 182.31 835.933 Z" fill="#000000" fill-rule="nonzero" fill-opacity="1" /><path clip-path="url(#clip780)" d="M212.472 839.637 Q208.861 839.637 207.032 843.201 Q205.227 846.743 205.227 853.873 Q205.227 860.979 207.032 864.544 Q208.861 868.086 212.472 868.086 Q216.106 868.086 217.912 864.544 Q219.741 860.979 219.741 853.873 Q219.741 846.743 217.912 843.201 Q216.106 839.637 212.472 839.637 M212.472 835.933 Q218.282 835.933 221.338 840.539 Q224.417 845.123 224.417 853.873 Q224.417 862.599 221.338 867.206 Q218.282 871.789 212.472 871.789 Q206.662 871.789 203.583 867.206 Q200.528 862.599 200.528 853.873 Q200.528 845.123 203.583 840.539 Q206.662 835.933 212.472 835.933 Z" fill="#000000" fill-rule="nonzero" fill-opacity="1" /><path clip-path="url(#clip780)" d="M242.634 839.637 Q239.023 839.637 237.194 843.201 Q235.389 846.743 235.389 853.873 Q235.389 860.979 237.194 864.544 Q239.023 868.086 242.634 868.086 Q246.268 868.086 248.074 864.544 Q249.903 860.979 249.903 853.873 Q249.903 846.743 248.074 843.201 Q246.268 839.637 242.634 839.637 M242.634 835.933 Q248.444 835.933 251.5 840.539 Q254.578 845.123 254.578 853.873 Q254.578 862.599 251.5 867.206 Q248.444 871.789 242.634 871.789 Q236.824 871.789 233.745 867.206 Q230.69 862.599 230.69 853.873 Q230.69 845.123 233.745 840.539 Q236.824 835.933 242.634 835.933 Z" fill="#000000" fill-rule="nonzero" fill-opacity="1" /><path clip-path="url(#clip780)" d="M132.542 652.641 L162.218 652.641 L162.218 656.576 L132.542 656.576 L132.542 652.641 Z" fill="#000000" fill-rule="nonzero" fill-opacity="1" /><path clip-path="url(#clip780)" d="M171.13 634.909 L193.352 634.909 L193.352 636.9 L180.806 669.469 L175.921 669.469 L187.727 638.845 L171.13 638.845 L171.13 634.909 Z" fill="#000000" fill-rule="nonzero" fill-opacity="1" /><path clip-path="url(#clip780)" d="M202.519 634.909 L220.875 634.909 L220.875 638.845 L206.801 638.845 L206.801 647.317 Q207.819 646.97 208.838 646.808 Q209.856 646.622 210.875 646.622 Q216.662 646.622 220.042 649.794 Q223.421 652.965 223.421 658.382 Q223.421 663.96 219.949 667.062 Q216.477 670.141 210.157 670.141 Q207.981 670.141 205.713 669.77 Q203.468 669.4 201.06 668.659 L201.06 663.96 Q203.144 665.095 205.366 665.65 Q207.588 666.206 210.065 666.206 Q214.069 666.206 216.407 664.099 Q218.745 661.993 218.745 658.382 Q218.745 654.77 216.407 652.664 Q214.069 650.558 210.065 650.558 Q208.19 650.558 206.315 650.974 Q204.463 651.391 202.519 652.271 L202.519 634.909 Z" fill="#000000" fill-rule="nonzero" fill-opacity="1" /><path clip-path="url(#clip780)" d="M242.634 637.988 Q239.023 637.988 237.194 641.553 Q235.389 645.095 235.389 652.224 Q235.389 659.331 237.194 662.895 Q239.023 666.437 242.634 666.437 Q246.268 666.437 248.074 662.895 Q249.903 659.331 249.903 652.224 Q249.903 645.095 248.074 641.553 Q246.268 637.988 242.634 637.988 M242.634 634.284 Q248.444 634.284 251.5 638.891 Q254.578 643.474 254.578 652.224 Q254.578 660.951 251.5 665.557 Q248.444 670.141 242.634 670.141 Q236.824 670.141 233.745 665.557 Q230.69 660.951 230.69 652.224 Q230.69 643.474 233.745 638.891 Q236.824 634.284 242.634 634.284 Z" fill="#000000" fill-rule="nonzero" fill-opacity="1" /><path clip-path="url(#clip780)" d="M132.542 450.992 L162.218 450.992 L162.218 454.928 L132.542 454.928 L132.542 450.992 Z" fill="#000000" fill-rule="nonzero" fill-opacity="1" /><path clip-path="url(#clip780)" d="M172.357 433.261 L190.713 433.261 L190.713 437.196 L176.639 437.196 L176.639 445.668 Q177.658 445.321 178.676 445.159 Q179.695 444.974 180.713 444.974 Q186.5 444.974 189.88 448.145 Q193.259 451.316 193.259 456.733 Q193.259 462.312 189.787 465.414 Q186.315 468.492 179.995 468.492 Q177.82 468.492 175.551 468.122 Q173.306 467.752 170.898 467.011 L170.898 462.312 Q172.982 463.446 175.204 464.002 Q177.426 464.557 179.903 464.557 Q183.907 464.557 186.245 462.451 Q188.583 460.344 188.583 456.733 Q188.583 453.122 186.245 451.016 Q183.907 448.909 179.903 448.909 Q178.028 448.909 176.153 449.326 Q174.301 449.742 172.357 450.622 L172.357 433.261 Z" fill="#000000" fill-rule="nonzero" fill-opacity="1" /><path clip-path="url(#clip780)" d="M212.472 436.34 Q208.861 436.34 207.032 439.905 Q205.227 443.446 205.227 450.576 Q205.227 457.682 207.032 461.247 Q208.861 464.789 212.472 464.789 Q216.106 464.789 217.912 461.247 Q219.741 457.682 219.741 450.576 Q219.741 443.446 217.912 439.905 Q216.106 436.34 212.472 436.34 M212.472 432.636 Q218.282 432.636 221.338 437.242 Q224.417 441.826 224.417 450.576 Q224.417 459.303 221.338 463.909 Q218.282 468.492 212.472 468.492 Q206.662 468.492 203.583 463.909 Q200.528 459.303 200.528 450.576 Q200.528 441.826 203.583 437.242 Q206.662 432.636 212.472 432.636 Z" fill="#000000" fill-rule="nonzero" fill-opacity="1" /><path clip-path="url(#clip780)" d="M242.634 436.34 Q239.023 436.34 237.194 439.905 Q235.389 443.446 235.389 450.576 Q235.389 457.682 237.194 461.247 Q239.023 464.789 242.634 464.789 Q246.268 464.789 248.074 461.247 Q249.903 457.682 249.903 450.576 Q249.903 443.446 248.074 439.905 Q246.268 436.34 242.634 436.34 M242.634 432.636 Q248.444 432.636 251.5 437.242 Q254.578 441.826 254.578 450.576 Q254.578 459.303 251.5 463.909 Q248.444 468.492 242.634 468.492 Q236.824 468.492 233.745 463.909 Q230.69 459.303 230.69 450.576 Q230.69 441.826 233.745 437.242 Q236.824 432.636 242.634 432.636 Z" fill="#000000" fill-rule="nonzero" fill-opacity="1" /><path clip-path="url(#clip780)" d="M132.542 249.344 L162.218 249.344 L162.218 253.279 L132.542 253.279 L132.542 249.344 Z" fill="#000000" fill-rule="nonzero" fill-opacity="1" /><path clip-path="url(#clip780)" d="M176.338 262.237 L192.657 262.237 L192.657 266.173 L170.713 266.173 L170.713 262.237 Q173.375 259.483 177.958 254.853 Q182.565 250.2 183.745 248.858 Q185.991 246.335 186.87 244.599 Q187.773 242.839 187.773 241.15 Q187.773 238.395 185.829 236.659 Q183.907 234.923 180.806 234.923 Q178.607 234.923 176.153 235.687 Q173.722 236.45 170.945 238.001 L170.945 233.279 Q173.769 232.145 176.222 231.566 Q178.676 230.988 180.713 230.988 Q186.083 230.988 189.278 233.673 Q192.472 236.358 192.472 240.849 Q192.472 242.978 191.662 244.9 Q190.875 246.798 188.769 249.39 Q188.19 250.062 185.088 253.279 Q181.986 256.474 176.338 262.237 Z" fill="#000000" fill-rule="nonzero" fill-opacity="1" /><path clip-path="url(#clip780)" d="M202.519 231.613 L220.875 231.613 L220.875 235.548 L206.801 235.548 L206.801 244.02 Q207.819 243.673 208.838 243.511 Q209.856 243.325 210.875 243.325 Q216.662 243.325 220.042 246.497 Q223.421 249.668 223.421 255.085 Q223.421 260.663 219.949 263.765 Q216.477 266.844 210.157 266.844 Q207.981 266.844 205.713 266.473 Q203.468 266.103 201.06 265.362 L201.06 260.663 Q203.144 261.798 205.366 262.353 Q207.588 262.909 210.065 262.909 Q214.069 262.909 216.407 260.802 Q218.745 258.696 218.745 255.085 Q218.745 251.474 216.407 249.367 Q214.069 247.261 210.065 247.261 Q208.19 247.261 206.315 247.677 Q204.463 248.094 202.519 248.974 L202.519 231.613 Z" fill="#000000" fill-rule="nonzero" fill-opacity="1" /><path clip-path="url(#clip780)" d="M242.634 234.691 Q239.023 234.691 237.194 238.256 Q235.389 241.798 235.389 248.927 Q235.389 256.034 237.194 259.599 Q239.023 263.14 242.634 263.14 Q246.268 263.14 248.074 259.599 Q249.903 256.034 249.903 248.927 Q249.903 241.798 248.074 238.256 Q246.268 234.691 242.634 234.691 M242.634 230.988 Q248.444 230.988 251.5 235.594 Q254.578 240.177 254.578 248.927 Q254.578 257.654 251.5 262.261 Q248.444 266.844 242.634 266.844 Q236.824 266.844 233.745 262.261 Q230.69 257.654 230.69 248.927 Q230.69 240.177 233.745 235.594 Q236.824 230.988 242.634 230.988 Z" fill="#000000" fill-rule="nonzero" fill-opacity="1" /><path clip-path="url(#clip780)" d="M242.634 33.0428 Q239.023 33.0428 237.194 36.6076 Q235.389 40.1492 235.389 47.2788 Q235.389 54.3853 237.194 57.9501 Q239.023 61.4917 242.634 61.4917 Q246.268 61.4917 248.074 57.9501 Q249.903 54.3853 249.903 47.2788 Q249.903 40.1492 248.074 36.6076 Q246.268 33.0428 242.634 33.0428 M242.634 29.3391 Q248.444 29.3391 251.5 33.9456 Q254.578 38.5289 254.578 47.2788 Q254.578 56.0056 251.5 60.6121 Q248.444 65.1954 242.634 65.1954 Q236.824 65.1954 233.745 60.6121 Q230.69 56.0056 230.69 47.2788 Q230.69 38.5289 233.745 33.9456 Q236.824 29.3391 242.634 29.3391 Z" fill="#000000" fill-rule="nonzero" fill-opacity="1" /><path clip-path="url(#clip780)" d="M4.60416 766.5 L4.60416 760.071 L46.7133 760.071 L46.7133 736.931 L52.1242 736.931 L52.1242 766.5 L4.60416 766.5 Z" fill="#000000" fill-rule="nonzero" fill-opacity="1" /><path clip-path="url(#clip780)" d="M20.5821 717.771 Q20.5821 722.481 24.2742 725.218 Q27.9345 727.956 34.332 727.956 Q40.7295 727.956 44.4217 725.25 Q48.0819 722.513 48.0819 717.771 Q48.0819 713.092 44.3898 710.354 Q40.6977 707.617 34.332 707.617 Q27.9981 707.617 24.306 710.354 Q20.5821 713.092 20.5821 717.771 M15.6168 717.771 Q15.6168 710.132 20.5821 705.771 Q25.5473 701.411 34.332 701.411 Q43.0849 701.411 48.0819 705.771 Q53.0472 710.132 53.0472 717.771 Q53.0472 725.441 48.0819 729.802 Q43.0849 734.13 34.332 734.13 Q25.5473 734.13 20.5821 729.802 Q15.6168 725.441 15.6168 717.771 Z" fill="#000000" fill-rule="nonzero" fill-opacity="1" /><path clip-path="url(#clip780)" d="M33.8864 668.245 Q27.5207 668.245 24.0196 670.887 Q20.5184 673.497 20.5184 678.239 Q20.5184 682.95 24.0196 685.592 Q27.5207 688.202 33.8864 688.202 Q40.2203 688.202 43.7214 685.592 Q47.2226 682.95 47.2226 678.239 Q47.2226 673.497 43.7214 670.887 Q40.2203 668.245 33.8864 668.245 M47.7 662.389 Q56.803 662.389 61.2271 666.431 Q65.6831 670.473 65.6831 678.812 Q65.6831 681.9 65.2057 684.637 Q64.7601 687.374 63.8052 689.952 L58.1079 689.952 Q59.5084 687.374 60.1768 684.86 Q60.8452 682.345 60.8452 679.735 Q60.8452 673.974 57.8215 671.11 Q54.8296 668.245 48.7503 668.245 L45.8539 668.245 Q49.005 670.06 50.5646 672.892 Q52.1242 675.725 52.1242 679.672 Q52.1242 686.228 47.1271 690.239 Q42.13 694.249 33.8864 694.249 Q25.611 694.249 20.6139 690.239 Q15.6168 686.228 15.6168 679.672 Q15.6168 675.725 17.1764 672.892 Q18.736 670.06 21.8871 668.245 L16.4762 668.245 L16.4762 662.389 L47.7 662.389 Z" fill="#000000" fill-rule="nonzero" fill-opacity="1" /><path clip-path="url(#clip780)" d="M31.6584 653.286 L31.6584 636.13 L36.8783 636.13 L36.8783 653.286 L31.6584 653.286 Z" fill="#000000" fill-rule="nonzero" fill-opacity="1" /><path clip-path="url(#clip780)" d="M2.59896 626.805 L2.59896 620.948 L52.1242 620.948 L52.1242 626.805 L2.59896 626.805 Z" fill="#000000" fill-rule="nonzero" fill-opacity="1" /><path clip-path="url(#clip780)" d="M16.4762 608.694 L16.4762 602.838 L52.1242 602.838 L52.1242 608.694 L16.4762 608.694 M2.59896 608.694 L2.59896 602.838 L10.015 602.838 L10.015 608.694 L2.59896 608.694 Z" fill="#000000" fill-rule="nonzero" fill-opacity="1" /><path clip-path="url(#clip780)" d="M2.59896 590.807 L2.59896 584.918 L31.8494 584.918 L16.4762 567.444 L16.4762 559.965 L33.1544 578.871 L52.1242 559.169 L52.1242 566.808 L34.7139 584.918 L52.1242 584.918 L52.1242 590.807 L2.59896 590.807 Z" fill="#000000" fill-rule="nonzero" fill-opacity="1" /><path clip-path="url(#clip780)" d="M32.8361 524.667 L35.7006 524.667 L35.7006 551.594 Q41.7481 551.212 44.9309 547.965 Q48.0819 544.687 48.0819 538.862 Q48.0819 535.489 47.2544 532.338 Q46.4269 529.155 44.7718 526.035 L50.3099 526.035 Q51.6467 529.186 52.347 532.497 Q53.0472 535.807 53.0472 539.212 Q53.0472 547.743 48.0819 552.74 Q43.1167 557.705 34.6503 557.705 Q25.8974 557.705 20.7731 552.994 Q15.6168 548.252 15.6168 540.231 Q15.6168 533.038 20.2638 528.868 Q24.8789 524.667 32.8361 524.667 M31.1173 530.523 Q26.3112 530.587 23.4466 533.229 Q20.5821 535.839 20.5821 540.167 Q20.5821 545.069 23.3512 548.029 Q26.1202 550.957 31.1492 551.403 L31.1173 530.523 Z" fill="#000000" fill-rule="nonzero" fill-opacity="1" /><path clip-path="url(#clip780)" d="M2.59896 515.055 L2.59896 509.198 L52.1242 509.198 L52.1242 515.055 L2.59896 515.055 Z" fill="#000000" fill-rule="nonzero" fill-opacity="1" /><path clip-path="url(#clip780)" d="M16.4762 496.944 L16.4762 491.088 L52.1242 491.088 L52.1242 496.944 L16.4762 496.944 M2.59896 496.944 L2.59896 491.088 L10.015 491.088 L10.015 496.944 L2.59896 496.944 Z" fill="#000000" fill-rule="nonzero" fill-opacity="1" /><path clip-path="url(#clip780)" d="M30.6081 449.201 L52.1242 449.201 L52.1242 455.058 L30.799 455.058 Q25.7383 455.058 23.2238 457.031 Q20.7094 459.005 20.7094 462.951 Q20.7094 467.694 23.7331 470.431 Q26.7568 473.168 31.9767 473.168 L52.1242 473.168 L52.1242 479.057 L2.59896 479.057 L2.59896 473.168 L22.0144 473.168 Q18.7997 471.068 17.2083 468.235 Q15.6168 465.37 15.6168 461.646 Q15.6168 455.503 19.4363 452.352 Q23.2238 449.201 30.6081 449.201 Z" fill="#000000" fill-rule="nonzero" fill-opacity="1" /><path clip-path="url(#clip780)" d="M20.5821 423.707 Q20.5821 428.417 24.2742 431.155 Q27.9345 433.892 34.332 433.892 Q40.7295 433.892 44.4217 431.186 Q48.0819 428.449 48.0819 423.707 Q48.0819 419.028 44.3898 416.291 Q40.6977 413.553 34.332 413.553 Q27.9981 413.553 24.306 416.291 Q20.5821 419.028 20.5821 423.707 M15.6168 423.707 Q15.6168 416.068 20.5821 411.707 Q25.5473 407.347 34.332 407.347 Q43.0849 407.347 48.0819 411.707 Q53.0472 416.068 53.0472 423.707 Q53.0472 431.377 48.0819 435.738 Q43.0849 440.067 34.332 440.067 Q25.5473 440.067 20.5821 435.738 Q15.6168 431.377 15.6168 423.707 Z" fill="#000000" fill-rule="nonzero" fill-opacity="1" /><path clip-path="url(#clip780)" d="M20.5821 383.826 Q20.5821 388.536 24.2742 391.273 Q27.9345 394.011 34.332 394.011 Q40.7295 394.011 44.4217 391.305 Q48.0819 388.568 48.0819 383.826 Q48.0819 379.147 44.3898 376.41 Q40.6977 373.672 34.332 373.672 Q27.9981 373.672 24.306 376.41 Q20.5821 379.147 20.5821 383.826 M15.6168 383.826 Q15.6168 376.187 20.5821 371.826 Q25.5473 367.466 34.332 367.466 Q43.0849 367.466 48.0819 371.826 Q53.0472 376.187 53.0472 383.826 Q53.0472 391.496 48.0819 395.857 Q43.0849 400.185 34.332 400.185 Q25.5473 400.185 20.5821 395.857 Q15.6168 391.496 15.6168 383.826 Z" fill="#000000" fill-rule="nonzero" fill-opacity="1" /><path clip-path="url(#clip780)" d="M21.8871 334.3 L2.59896 334.3 L2.59896 328.444 L52.1242 328.444 L52.1242 334.3 L46.777 334.3 Q49.9598 336.146 51.5194 338.979 Q53.0472 341.78 53.0472 345.727 Q53.0472 352.188 47.891 356.262 Q42.7347 360.304 34.332 360.304 Q25.9293 360.304 20.7731 356.262 Q15.6168 352.188 15.6168 345.727 Q15.6168 341.78 17.1764 338.979 Q18.7042 336.146 21.8871 334.3 M34.332 354.257 Q40.7932 354.257 44.4853 351.615 Q48.1456 348.941 48.1456 344.295 Q48.1456 339.648 44.4853 336.974 Q40.7932 334.3 34.332 334.3 Q27.8708 334.3 24.2105 336.974 Q20.5184 339.648 20.5184 344.295 Q20.5184 348.941 24.2105 351.615 Q27.8708 354.257 34.332 354.257 Z" fill="#000000" fill-rule="nonzero" fill-opacity="1" /><path clip-path="url(#clip782)" d="M404.002 901.038 L404.002 47.2441 L453.272 47.2441 L453.272 901.038 L404.002 901.038 L404.002 901.038  Z" fill="#009af9" fill-rule="evenodd" fill-opacity="1"/>
<polyline clip-path="url(#clip782)" style="stroke:#000000; stroke-linecap:round; stroke-linejoin:round; stroke-width:4; stroke-opacity:1; fill:none" points="404.002,901.038 404.002,47.2441 453.272,47.2441 453.272,901.038 404.002,901.038 "/>
<path clip-path="url(#clip782)" d="M465.59 560.104 L465.59 47.2441 L514.861 47.2441 L514.861 560.104 L465.59 560.104 L465.59 560.104  Z" fill="#009af9" fill-rule="evenodd" fill-opacity="1"/>
<polyline clip-path="url(#clip782)" style="stroke:#000000; stroke-linecap:round; stroke-linejoin:round; stroke-width:4; stroke-opacity:1; fill:none" points="465.59,560.104 465.59,47.2441 514.861,47.2441 514.861,560.104 465.59,560.104 "/>
<path clip-path="url(#clip782)" d="M527.178 575.798 L527.178 47.2441 L576.449 47.2441 L576.449 575.798 L527.178 575.798 L527.178 575.798  Z" fill="#009af9" fill-rule="evenodd" fill-opacity="1"/>
<polyline clip-path="url(#clip782)" style="stroke:#000000; stroke-linecap:round; stroke-linejoin:round; stroke-width:4; stroke-opacity:1; fill:none" points="527.178,575.798 527.178,47.2441 576.449,47.2441 576.449,575.798 527.178,575.798 "/>
<path clip-path="url(#clip782)" d="M588.767 603.881 L588.767 47.2441 L638.037 47.2441 L638.037 603.881 L588.767 603.881 L588.767 603.881  Z" fill="#009af9" fill-rule="evenodd" fill-opacity="1"/>
<polyline clip-path="url(#clip782)" style="stroke:#000000; stroke-linecap:round; stroke-linejoin:round; stroke-width:4; stroke-opacity:1; fill:none" points="588.767,603.881 588.767,47.2441 638.037,47.2441 638.037,603.881 588.767,603.881 "/>
<path clip-path="url(#clip782)" d="M650.355 633.248 L650.355 47.2441 L699.626 47.2441 L699.626 633.248 L650.355 633.248 L650.355 633.248  Z" fill="#009af9" fill-rule="evenodd" fill-opacity="1"/>
<polyline clip-path="url(#clip782)" style="stroke:#000000; stroke-linecap:round; stroke-linejoin:round; stroke-width:4; stroke-opacity:1; fill:none" points="650.355,633.248 650.355,47.2441 699.626,47.2441 699.626,633.248 650.355,633.248 "/>
<path clip-path="url(#clip782)" d="M711.943 659.034 L711.943 47.2441 L761.214 47.2441 L761.214 659.034 L711.943 659.034 L711.943 659.034  Z" fill="#009af9" fill-rule="evenodd" fill-opacity="1"/>
<polyline clip-path="url(#clip782)" style="stroke:#000000; stroke-linecap:round; stroke-linejoin:round; stroke-width:4; stroke-opacity:1; fill:none" points="711.943,659.034 711.943,47.2441 761.214,47.2441 761.214,659.034 711.943,659.034 "/>
<path clip-path="url(#clip782)" d="M773.532 677.819 L773.532 47.2441 L822.802 47.2441 L822.802 677.819 L773.532 677.819 L773.532 677.819  Z" fill="#009af9" fill-rule="evenodd" fill-opacity="1"/>
<polyline clip-path="url(#clip782)" style="stroke:#000000; stroke-linecap:round; stroke-linejoin:round; stroke-width:4; stroke-opacity:1; fill:none" points="773.532,677.819 773.532,47.2441 822.802,47.2441 822.802,677.819 773.532,677.819 "/>
<path clip-path="url(#clip782)" d="M835.12 694.016 L835.12 47.2441 L884.39 47.2441 L884.39 694.016 L835.12 694.016 L835.12 694.016  Z" fill="#009af9" fill-rule="evenodd" fill-opacity="1"/>
<polyline clip-path="url(#clip782)" style="stroke:#000000; stroke-linecap:round; stroke-linejoin:round; stroke-width:4; stroke-opacity:1; fill:none" points="835.12,694.016 835.12,47.2441 884.39,47.2441 884.39,694.016 835.12,694.016 "/>
<path clip-path="url(#clip782)" d="M896.708 711.74 L896.708 47.2441 L945.979 47.2441 L945.979 711.74 L896.708 711.74 L896.708 711.74  Z" fill="#009af9" fill-rule="evenodd" fill-opacity="1"/>
<polyline clip-path="url(#clip782)" style="stroke:#000000; stroke-linecap:round; stroke-linejoin:round; stroke-width:4; stroke-opacity:1; fill:none" points="896.708,711.74 896.708,47.2441 945.979,47.2441 945.979,711.74 896.708,711.74 "/>
<path clip-path="url(#clip782)" d="M958.296 731.245 L958.296 47.2441 L1007.57 47.2441 L1007.57 731.245 L958.296 731.245 L958.296 731.245  Z" fill="#009af9" fill-rule="evenodd" fill-opacity="1"/>
<polyline clip-path="url(#clip782)" style="stroke:#000000; stroke-linecap:round; stroke-linejoin:round; stroke-width:4; stroke-opacity:1; fill:none" points="958.296,731.245 958.296,47.2441 1007.57,47.2441 1007.57,731.245 958.296,731.245 "/>
<path clip-path="url(#clip782)" d="M1019.88 751.126 L1019.88 47.2441 L1069.16 47.2441 L1069.16 751.126 L1019.88 751.126 L1019.88 751.126  Z" fill="#009af9" fill-rule="evenodd" fill-opacity="1"/>
<polyline clip-path="url(#clip782)" style="stroke:#000000; stroke-linecap:round; stroke-linejoin:round; stroke-width:4; stroke-opacity:1; fill:none" points="1019.88,751.126 1019.88,47.2441 1069.16,47.2441 1069.16,751.126 1019.88,751.126 "/>
<path clip-path="url(#clip782)" d="M1081.47 770.154 L1081.47 47.2441 L1130.74 47.2441 L1130.74 770.154 L1081.47 770.154 L1081.47 770.154  Z" fill="#009af9" fill-rule="evenodd" fill-opacity="1"/>
<polyline clip-path="url(#clip782)" style="stroke:#000000; stroke-linecap:round; stroke-linejoin:round; stroke-width:4; stroke-opacity:1; fill:none" points="1081.47,770.154 1081.47,47.2441 1130.74,47.2441 1130.74,770.154 1081.47,770.154 "/>
<path clip-path="url(#clip782)" d="M1143.06 787.362 L1143.06 47.2441 L1192.33 47.2441 L1192.33 787.362 L1143.06 787.362 L1143.06 787.362  Z" fill="#009af9" fill-rule="evenodd" fill-opacity="1"/>
<polyline clip-path="url(#clip782)" style="stroke:#000000; stroke-linecap:round; stroke-linejoin:round; stroke-width:4; stroke-opacity:1; fill:none" points="1143.06,787.362 1143.06,47.2441 1192.33,47.2441 1192.33,787.362 1143.06,787.362 "/>
<path clip-path="url(#clip782)" d="M1204.65 801.814 L1204.65 47.2441 L1253.92 47.2441 L1253.92 801.814 L1204.65 801.814 L1204.65 801.814  Z" fill="#009af9" fill-rule="evenodd" fill-opacity="1"/>
<polyline clip-path="url(#clip782)" style="stroke:#000000; stroke-linecap:round; stroke-linejoin:round; stroke-width:4; stroke-opacity:1; fill:none" points="1204.65,801.814 1204.65,47.2441 1253.92,47.2441 1253.92,801.814 1204.65,801.814 "/>
<path clip-path="url(#clip782)" d="M1266.24 814.836 L1266.24 47.2441 L1315.51 47.2441 L1315.51 814.836 L1266.24 814.836 L1266.24 814.836  Z" fill="#009af9" fill-rule="evenodd" fill-opacity="1"/>
<polyline clip-path="url(#clip782)" style="stroke:#000000; stroke-linecap:round; stroke-linejoin:round; stroke-width:4; stroke-opacity:1; fill:none" points="1266.24,814.836 1266.24,47.2441 1315.51,47.2441 1315.51,814.836 1266.24,814.836 "/>
<path clip-path="url(#clip782)" d="M1327.83 827.916 L1327.83 47.2441 L1377.1 47.2441 L1377.1 827.916 L1327.83 827.916 L1327.83 827.916  Z" fill="#009af9" fill-rule="evenodd" fill-opacity="1"/>
<polyline clip-path="url(#clip782)" style="stroke:#000000; stroke-linecap:round; stroke-linejoin:round; stroke-width:4; stroke-opacity:1; fill:none" points="1327.83,827.916 1327.83,47.2441 1377.1,47.2441 1377.1,827.916 1327.83,827.916 "/>
<path clip-path="url(#clip782)" d="M1389.41 842.013 L1389.41 47.2441 L1438.68 47.2441 L1438.68 842.013 L1389.41 842.013 L1389.41 842.013  Z" fill="#009af9" fill-rule="evenodd" fill-opacity="1"/>
<polyline clip-path="url(#clip782)" style="stroke:#000000; stroke-linecap:round; stroke-linejoin:round; stroke-width:4; stroke-opacity:1; fill:none" points="1389.41,842.013 1389.41,47.2441 1438.68,47.2441 1438.68,842.013 1389.41,842.013 "/>
<path clip-path="url(#clip782)" d="M1451 856.846 L1451 47.2441 L1500.27 47.2441 L1500.27 856.846 L1451 856.846 L1451 856.846  Z" fill="#009af9" fill-rule="evenodd" fill-opacity="1"/>
<polyline clip-path="url(#clip782)" style="stroke:#000000; stroke-linecap:round; stroke-linejoin:round; stroke-width:4; stroke-opacity:1; fill:none" points="1451,856.846 1451,47.2441 1500.27,47.2441 1500.27,856.846 1451,856.846 "/>
<path clip-path="url(#clip782)" d="M1512.59 871.955 L1512.59 47.2441 L1561.86 47.2441 L1561.86 871.955 L1512.59 871.955 L1512.59 871.955  Z" fill="#009af9" fill-rule="evenodd" fill-opacity="1"/>
<polyline clip-path="url(#clip782)" style="stroke:#000000; stroke-linecap:round; stroke-linejoin:round; stroke-width:4; stroke-opacity:1; fill:none" points="1512.59,871.955 1512.59,47.2441 1561.86,47.2441 1561.86,871.955 1512.59,871.955 "/>
<path clip-path="url(#clip782)" d="M1574.18 886.715 L1574.18 47.2441 L1623.45 47.2441 L1623.45 886.715 L1574.18 886.715 L1574.18 886.715  Z" fill="#009af9" fill-rule="evenodd" fill-opacity="1"/>
<polyline clip-path="url(#clip782)" style="stroke:#000000; stroke-linecap:round; stroke-linejoin:round; stroke-width:4; stroke-opacity:1; fill:none" points="1574.18,886.715 1574.18,47.2441 1623.45,47.2441 1623.45,886.715 1574.18,886.715 "/>
<path clip-path="url(#clip782)" d="M1635.77 900.924 L1635.77 47.2441 L1685.04 47.2441 L1685.04 900.924 L1635.77 900.924 L1635.77 900.924  Z" fill="#009af9" fill-rule="evenodd" fill-opacity="1"/>
<polyline clip-path="url(#clip782)" style="stroke:#000000; stroke-linecap:round; stroke-linejoin:round; stroke-width:4; stroke-opacity:1; fill:none" points="1635.77,900.924 1635.77,47.2441 1685.04,47.2441 1685.04,900.924 1635.77,900.924 "/>
<path clip-path="url(#clip782)" d="M1697.36 914.84 L1697.36 47.2441 L1746.63 47.2441 L1746.63 914.84 L1697.36 914.84 L1697.36 914.84  Z" fill="#009af9" fill-rule="evenodd" fill-opacity="1"/>
<polyline clip-path="url(#clip782)" style="stroke:#000000; stroke-linecap:round; stroke-linejoin:round; stroke-width:4; stroke-opacity:1; fill:none" points="1697.36,914.84 1697.36,47.2441 1746.63,47.2441 1746.63,914.84 1697.36,914.84 "/>
<path clip-path="url(#clip782)" d="M1758.94 929.372 L1758.94 47.2441 L1808.21 47.2441 L1808.21 929.372 L1758.94 929.372 L1758.94 929.372  Z" fill="#009af9" fill-rule="evenodd" fill-opacity="1"/>
<polyline clip-path="url(#clip782)" style="stroke:#000000; stroke-linecap:round; stroke-linejoin:round; stroke-width:4; stroke-opacity:1; fill:none" points="1758.94,929.372 1758.94,47.2441 1808.21,47.2441 1808.21,929.372 1758.94,929.372 "/>
<path clip-path="url(#clip782)" d="M1820.53 944.974 L1820.53 47.2441 L1869.8 47.2441 L1869.8 944.974 L1820.53 944.974 L1820.53 944.974  Z" fill="#009af9" fill-rule="evenodd" fill-opacity="1"/>
<polyline clip-path="url(#clip782)" style="stroke:#000000; stroke-linecap:round; stroke-linejoin:round; stroke-width:4; stroke-opacity:1; fill:none" points="1820.53,944.974 1820.53,47.2441 1869.8,47.2441 1869.8,944.974 1820.53,944.974 "/>
<path clip-path="url(#clip782)" d="M1882.12 961.467 L1882.12 47.2441 L1931.39 47.2441 L1931.39 961.467 L1882.12 961.467 L1882.12 961.467  Z" fill="#009af9" fill-rule="evenodd" fill-opacity="1"/>
<polyline clip-path="url(#clip782)" style="stroke:#000000; stroke-linecap:round; stroke-linejoin:round; stroke-width:4; stroke-opacity:1; fill:none" points="1882.12,961.467 1882.12,47.2441 1931.39,47.2441 1931.39,961.467 1882.12,961.467 "/>
<path clip-path="url(#clip782)" d="M1943.71 978.659 L1943.71 47.2441 L1992.98 47.2441 L1992.98 978.659 L1943.71 978.659 L1943.71 978.659  Z" fill="#009af9" fill-rule="evenodd" fill-opacity="1"/>
<polyline clip-path="url(#clip782)" style="stroke:#000000; stroke-linecap:round; stroke-linejoin:round; stroke-width:4; stroke-opacity:1; fill:none" points="1943.71,978.659 1943.71,47.2441 1992.98,47.2441 1992.98,978.659 1943.71,978.659 "/>
<path clip-path="url(#clip782)" d="M2005.3 996.105 L2005.3 47.2441 L2054.57 47.2441 L2054.57 996.105 L2005.3 996.105 L2005.3 996.105  Z" fill="#009af9" fill-rule="evenodd" fill-opacity="1"/>
<polyline clip-path="url(#clip782)" style="stroke:#000000; stroke-linecap:round; stroke-linejoin:round; stroke-width:4; stroke-opacity:1; fill:none" points="2005.3,996.105 2005.3,47.2441 2054.57,47.2441 2054.57,996.105 2005.3,996.105 "/>
<path clip-path="url(#clip782)" d="M2066.89 1013.38 L2066.89 47.2441 L2116.16 47.2441 L2116.16 1013.38 L2066.89 1013.38 L2066.89 1013.38  Z" fill="#009af9" fill-rule="evenodd" fill-opacity="1"/>
<polyline clip-path="url(#clip782)" style="stroke:#000000; stroke-linecap:round; stroke-linejoin:round; stroke-width:4; stroke-opacity:1; fill:none" points="2066.89,1013.38 2066.89,47.2441 2116.16,47.2441 2116.16,1013.38 2066.89,1013.38 "/>
<path clip-path="url(#clip782)" d="M2128.47 1030.47 L2128.47 47.2441 L2177.74 47.2441 L2177.74 1030.47 L2128.47 1030.47 L2128.47 1030.47  Z" fill="#009af9" fill-rule="evenodd" fill-opacity="1"/>
<polyline clip-path="url(#clip782)" style="stroke:#000000; stroke-linecap:round; stroke-linejoin:round; stroke-width:4; stroke-opacity:1; fill:none" points="2128.47,1030.47 2128.47,47.2441 2177.74,47.2441 2177.74,1030.47 2128.47,1030.47 "/>
<path clip-path="url(#clip782)" d="M2190.06 1047.7 L2190.06 47.2441 L2239.33 47.2441 L2239.33 1047.7 L2190.06 1047.7 L2190.06 1047.7  Z" fill="#009af9" fill-rule="evenodd" fill-opacity="1"/>
<polyline clip-path="url(#clip782)" style="stroke:#000000; stroke-linecap:round; stroke-linejoin:round; stroke-width:4; stroke-opacity:1; fill:none" points="2190.06,1047.7 2190.06,47.2441 2239.33,47.2441 2239.33,1047.7 2190.06,1047.7 "/>
<circle clip-path="url(#clip782)" style="fill:#009af9; stroke:none; fill-opacity:0" cx="428.637" cy="901.038" r="2"/>
<circle clip-path="url(#clip782)" style="fill:#009af9; stroke:none; fill-opacity:0" cx="490.225" cy="560.104" r="2"/>
<circle clip-path="url(#clip782)" style="fill:#009af9; stroke:none; fill-opacity:0" cx="551.814" cy="575.798" r="2"/>
<circle clip-path="url(#clip782)" style="fill:#009af9; stroke:none; fill-opacity:0" cx="613.402" cy="603.881" r="2"/>
<circle clip-path="url(#clip782)" style="fill:#009af9; stroke:none; fill-opacity:0" cx="674.99" cy="633.248" r="2"/>
<circle clip-path="url(#clip782)" style="fill:#009af9; stroke:none; fill-opacity:0" cx="736.579" cy="659.034" r="2"/>
<circle clip-path="url(#clip782)" style="fill:#009af9; stroke:none; fill-opacity:0" cx="798.167" cy="677.819" r="2"/>
<circle clip-path="url(#clip782)" style="fill:#009af9; stroke:none; fill-opacity:0" cx="859.755" cy="694.016" r="2"/>
<circle clip-path="url(#clip782)" style="fill:#009af9; stroke:none; fill-opacity:0" cx="921.343" cy="711.74" r="2"/>
<circle clip-path="url(#clip782)" style="fill:#009af9; stroke:none; fill-opacity:0" cx="982.932" cy="731.245" r="2"/>
<circle clip-path="url(#clip782)" style="fill:#009af9; stroke:none; fill-opacity:0" cx="1044.52" cy="751.126" r="2"/>
<circle clip-path="url(#clip782)" style="fill:#009af9; stroke:none; fill-opacity:0" cx="1106.11" cy="770.154" r="2"/>
<circle clip-path="url(#clip782)" style="fill:#009af9; stroke:none; fill-opacity:0" cx="1167.7" cy="787.362" r="2"/>
<circle clip-path="url(#clip782)" style="fill:#009af9; stroke:none; fill-opacity:0" cx="1229.28" cy="801.814" r="2"/>
<circle clip-path="url(#clip782)" style="fill:#009af9; stroke:none; fill-opacity:0" cx="1290.87" cy="814.836" r="2"/>
<circle clip-path="url(#clip782)" style="fill:#009af9; stroke:none; fill-opacity:0" cx="1352.46" cy="827.916" r="2"/>
<circle clip-path="url(#clip782)" style="fill:#009af9; stroke:none; fill-opacity:0" cx="1414.05" cy="842.013" r="2"/>
<circle clip-path="url(#clip782)" style="fill:#009af9; stroke:none; fill-opacity:0" cx="1475.64" cy="856.846" r="2"/>
<circle clip-path="url(#clip782)" style="fill:#009af9; stroke:none; fill-opacity:0" cx="1537.23" cy="871.955" r="2"/>
<circle clip-path="url(#clip782)" style="fill:#009af9; stroke:none; fill-opacity:0" cx="1598.81" cy="886.715" r="2"/>
<circle clip-path="url(#clip782)" style="fill:#009af9; stroke:none; fill-opacity:0" cx="1660.4" cy="900.924" r="2"/>
<circle clip-path="url(#clip782)" style="fill:#009af9; stroke:none; fill-opacity:0" cx="1721.99" cy="914.84" r="2"/>
<circle clip-path="url(#clip782)" style="fill:#009af9; stroke:none; fill-opacity:0" cx="1783.58" cy="929.372" r="2"/>
<circle clip-path="url(#clip782)" style="fill:#009af9; stroke:none; fill-opacity:0" cx="1845.17" cy="944.974" r="2"/>
<circle clip-path="url(#clip782)" style="fill:#009af9; stroke:none; fill-opacity:0" cx="1906.76" cy="961.467" r="2"/>
<circle clip-path="url(#clip782)" style="fill:#009af9; stroke:none; fill-opacity:0" cx="1968.34" cy="978.659" r="2"/>
<circle clip-path="url(#clip782)" style="fill:#009af9; stroke:none; fill-opacity:0" cx="2029.93" cy="996.105" r="2"/>
<circle clip-path="url(#clip782)" style="fill:#009af9; stroke:none; fill-opacity:0" cx="2091.52" cy="1013.38" r="2"/>
<circle clip-path="url(#clip782)" style="fill:#009af9; stroke:none; fill-opacity:0" cx="2153.11" cy="1030.47" r="2"/>
<circle clip-path="url(#clip782)" style="fill:#009af9; stroke:none; fill-opacity:0" cx="2214.7" cy="1047.7" r="2"/>
</svg>
