<?xml version="1.0" encoding="utf-8"?>
<svg xmlns="http://www.w3.org/2000/svg" xmlns:xlink="http://www.w3.org/1999/xlink" width="600" height="300" viewBox="0 0 2400 1200">
<defs>
  <clipPath id="clip190">
    <rect x="0" y="0" width="2400" height="1200"/>
  </clipPath>
</defs>
<path clip-path="url(#clip190)" d="M0 1200 L2400 1200 L2400 0 L0 0  Z" fill="#ffffff" fill-rule="evenodd" fill-opacity="1"/>
<defs>
  <clipPath id="clip191">
    <rect x="480" y="0" width="1681" height="1200"/>
  </clipPath>
</defs>
<path clip-path="url(#clip190)" d="M207.153 1047.7 L2352.76 1047.7 L2352.76 47.2441 L207.153 47.2441  Z" fill="#ffffff" fill-rule="evenodd" fill-opacity="1"/>
<defs>
  <clipPath id="clip192">
    <rect x="207" y="47" width="2147" height="1001"/>
  </clipPath>
</defs>
<polyline clip-path="url(#clip192)" style="stroke:#000000; stroke-linecap:round; stroke-linejoin:round; stroke-width:2; stroke-opacity:0.1; fill:none" points="414.883,1047.7 414.883,47.2441 "/>
<polyline clip-path="url(#clip192)" style="stroke:#000000; stroke-linecap:round; stroke-linejoin:round; stroke-width:2; stroke-opacity:0.1; fill:none" points="1104.68,1047.7 1104.68,47.2441 "/>
<polyline clip-path="url(#clip192)" style="stroke:#000000; stroke-linecap:round; stroke-linejoin:round; stroke-width:2; stroke-opacity:0.1; fill:none" points="1794.47,1047.7 1794.47,47.2441 "/>
<polyline clip-path="url(#clip190)" style="stroke:#000000; stroke-linecap:round; stroke-linejoin:round; stroke-width:4; stroke-opacity:1; fill:none" points="207.153,1047.7 2352.76,1047.7 "/>
<polyline clip-path="url(#clip190)" style="stroke:#000000; stroke-linecap:round; stroke-linejoin:round; stroke-width:4; stroke-opacity:1; fill:none" points="414.883,1047.7 414.883,1028.8 "/>
<polyline clip-path="url(#clip190)" style="stroke:#000000; stroke-linecap:round; stroke-linejoin:round; stroke-width:4; stroke-opacity:1; fill:none" points="1104.68,1047.7 1104.68,1028.8 "/>
<polyline clip-path="url(#clip190)" style="stroke:#000000; stroke-linecap:round; stroke-linejoin:round; stroke-width:4; stroke-opacity:1; fill:none" points="1794.47,1047.7 1794.47,1028.8 "/>
<path clip-path="url(#clip190)" d="M286.678 1106.16 L302.997 1106.16 L302.997 1110.1 L281.053 1110.1 L281.053 1106.16 Q283.715 1103.41 288.298 1098.78 Q292.905 1094.13 294.085 1092.79 Q296.331 1090.26 297.21 1088.53 Q298.113 1086.77 298.113 1085.08 Q298.113 1082.32 296.168 1080.59 Q294.247 1078.85 291.145 1078.85 Q288.946 1078.85 286.493 1079.61 Q284.062 1080.38 281.284 1081.93 L281.284 1077.21 Q284.108 1076.07 286.562 1075.49 Q289.016 1074.91 291.053 1074.91 Q296.423 1074.91 299.618 1077.6 Q302.812 1080.29 302.812 1084.78 Q302.812 1086.91 302.002 1088.83 Q301.215 1090.72 299.108 1093.32 Q298.53 1093.99 295.428 1097.21 Q292.326 1100.4 286.678 1106.16 Z" fill="#000000" fill-rule="nonzero" fill-opacity="1" /><path clip-path="url(#clip190)" d="M322.812 1078.62 Q319.201 1078.62 317.372 1082.18 Q315.567 1085.72 315.567 1092.85 Q315.567 1099.96 317.372 1103.53 Q319.201 1107.07 322.812 1107.07 Q326.446 1107.07 328.252 1103.53 Q330.08 1099.96 330.08 1092.85 Q330.08 1085.72 328.252 1082.18 Q326.446 1078.62 322.812 1078.62 M322.812 1074.91 Q328.622 1074.91 331.678 1079.52 Q334.756 1084.1 334.756 1092.85 Q334.756 1101.58 331.678 1106.19 Q328.622 1110.77 322.812 1110.77 Q317.002 1110.77 313.923 1106.19 Q310.867 1101.58 310.867 1092.85 Q310.867 1084.1 313.923 1079.52 Q317.002 1074.91 322.812 1074.91 Z" fill="#000000" fill-rule="nonzero" fill-opacity="1" /><path clip-path="url(#clip190)" d="M347.002 1106.16 L363.321 1106.16 L363.321 1110.1 L341.377 1110.1 L341.377 1106.16 Q344.039 1103.41 348.622 1098.78 Q353.228 1094.13 354.409 1092.79 Q356.654 1090.26 357.534 1088.53 Q358.437 1086.77 358.437 1085.08 Q358.437 1082.32 356.492 1080.59 Q354.571 1078.85 351.469 1078.85 Q349.27 1078.85 346.816 1079.61 Q344.386 1080.38 341.608 1081.93 L341.608 1077.21 Q344.432 1076.07 346.886 1075.49 Q349.339 1074.91 351.377 1074.91 Q356.747 1074.91 359.941 1077.6 Q363.136 1080.29 363.136 1084.78 Q363.136 1086.91 362.326 1088.83 Q361.539 1090.72 359.432 1093.32 Q358.853 1093.99 355.752 1097.21 Q352.65 1100.4 347.002 1106.16 Z" fill="#000000" fill-rule="nonzero" fill-opacity="1" /><path clip-path="url(#clip190)" d="M373.946 1106.16 L381.585 1106.16 L381.585 1079.8 L373.275 1081.47 L373.275 1077.21 L381.538 1075.54 L386.214 1075.54 L386.214 1106.16 L393.853 1106.16 L393.853 1110.1 L373.946 1110.1 L373.946 1106.16 Z" fill="#000000" fill-rule="nonzero" fill-opacity="1" /><path clip-path="url(#clip190)" d="M400.543 1095.22 L413.02 1095.22 L413.02 1099.01 L400.543 1099.01 L400.543 1095.22 Z" fill="#000000" fill-rule="nonzero" fill-opacity="1" /><path clip-path="url(#clip190)" d="M430.404 1078.62 Q426.793 1078.62 424.964 1082.18 Q423.159 1085.72 423.159 1092.85 Q423.159 1099.96 424.964 1103.53 Q426.793 1107.07 430.404 1107.07 Q434.038 1107.07 435.844 1103.53 Q437.672 1099.96 437.672 1092.85 Q437.672 1085.72 435.844 1082.18 Q434.038 1078.62 430.404 1078.62 M430.404 1074.91 Q436.214 1074.91 439.27 1079.52 Q442.348 1084.1 442.348 1092.85 Q442.348 1101.58 439.27 1106.19 Q436.214 1110.77 430.404 1110.77 Q424.594 1110.77 421.515 1106.19 Q418.459 1101.58 418.459 1092.85 Q418.459 1084.1 421.515 1079.52 Q424.594 1074.91 430.404 1074.91 Z" fill="#000000" fill-rule="nonzero" fill-opacity="1" /><path clip-path="url(#clip190)" d="M450.705 1109.38 L450.705 1105.12 Q452.464 1105.96 454.269 1106.4 Q456.075 1106.84 457.811 1106.84 Q462.441 1106.84 464.871 1103.73 Q467.325 1100.61 467.672 1094.27 Q466.33 1096.26 464.269 1097.32 Q462.209 1098.39 459.709 1098.39 Q454.524 1098.39 451.492 1095.26 Q448.482 1092.11 448.482 1086.67 Q448.482 1081.35 451.631 1078.13 Q454.779 1074.91 460.01 1074.91 Q466.006 1074.91 469.154 1079.52 Q472.325 1084.1 472.325 1092.85 Q472.325 1101.03 468.436 1105.91 Q464.57 1110.77 458.019 1110.77 Q456.26 1110.77 454.455 1110.42 Q452.649 1110.08 450.705 1109.38 M460.01 1094.73 Q463.158 1094.73 464.987 1092.58 Q466.839 1090.42 466.839 1086.67 Q466.839 1082.95 464.987 1080.79 Q463.158 1078.62 460.01 1078.62 Q456.862 1078.62 455.01 1080.79 Q453.182 1082.95 453.182 1086.67 Q453.182 1090.42 455.01 1092.58 Q456.862 1094.73 460.01 1094.73 Z" fill="#000000" fill-rule="nonzero" fill-opacity="1" /><path clip-path="url(#clip190)" d="M477.973 1095.22 L490.45 1095.22 L490.45 1099.01 L477.973 1099.01 L477.973 1095.22 Z" fill="#000000" fill-rule="nonzero" fill-opacity="1" /><path clip-path="url(#clip190)" d="M507.834 1078.62 Q504.223 1078.62 502.394 1082.18 Q500.589 1085.72 500.589 1092.85 Q500.589 1099.96 502.394 1103.53 Q504.223 1107.07 507.834 1107.07 Q511.468 1107.07 513.274 1103.53 Q515.102 1099.96 515.102 1092.85 Q515.102 1085.72 513.274 1082.18 Q511.468 1078.62 507.834 1078.62 M507.834 1074.91 Q513.644 1074.91 516.7 1079.52 Q519.778 1084.1 519.778 1092.85 Q519.778 1101.58 516.7 1106.19 Q513.644 1110.77 507.834 1110.77 Q502.024 1110.77 498.945 1106.19 Q495.89 1101.58 495.89 1092.85 Q495.89 1084.1 498.945 1079.52 Q502.024 1074.91 507.834 1074.91 Z" fill="#000000" fill-rule="nonzero" fill-opacity="1" /><path clip-path="url(#clip190)" d="M528.806 1106.16 L536.445 1106.16 L536.445 1079.8 L528.135 1081.47 L528.135 1077.21 L536.399 1075.54 L541.075 1075.54 L541.075 1106.16 L548.713 1106.16 L548.713 1110.1 L528.806 1110.1 L528.806 1106.16 Z" fill="#000000" fill-rule="nonzero" fill-opacity="1" /><path clip-path="url(#clip190)" d="M976.473 1106.16 L992.793 1106.16 L992.793 1110.1 L970.848 1110.1 L970.848 1106.16 Q973.51 1103.41 978.094 1098.78 Q982.7 1094.13 983.881 1092.79 Q986.126 1090.26 987.006 1088.53 Q987.908 1086.77 987.908 1085.08 Q987.908 1082.32 985.964 1080.59 Q984.043 1078.85 980.941 1078.85 Q978.742 1078.85 976.288 1079.61 Q973.857 1080.38 971.08 1081.93 L971.08 1077.21 Q973.904 1076.07 976.357 1075.49 Q978.811 1074.91 980.848 1074.91 Q986.219 1074.91 989.413 1077.6 Q992.607 1080.29 992.607 1084.78 Q992.607 1086.91 991.797 1088.83 Q991.01 1090.72 988.904 1093.32 Q988.325 1093.99 985.223 1097.21 Q982.121 1100.4 976.473 1106.16 Z" fill="#000000" fill-rule="nonzero" fill-opacity="1" /><path clip-path="url(#clip190)" d="M1012.61 1078.62 Q1009 1078.62 1007.17 1082.18 Q1005.36 1085.72 1005.36 1092.85 Q1005.36 1099.96 1007.17 1103.53 Q1009 1107.07 1012.61 1107.07 Q1016.24 1107.07 1018.05 1103.53 Q1019.88 1099.96 1019.88 1092.85 Q1019.88 1085.72 1018.05 1082.18 Q1016.24 1078.62 1012.61 1078.62 M1012.61 1074.91 Q1018.42 1074.91 1021.47 1079.52 Q1024.55 1084.1 1024.55 1092.85 Q1024.55 1101.58 1021.47 1106.19 Q1018.42 1110.77 1012.61 1110.77 Q1006.8 1110.77 1003.72 1106.19 Q1000.66 1101.58 1000.66 1092.85 Q1000.66 1084.1 1003.72 1079.52 Q1006.8 1074.91 1012.61 1074.91 Z" fill="#000000" fill-rule="nonzero" fill-opacity="1" /><path clip-path="url(#clip190)" d="M1036.8 1106.16 L1053.12 1106.16 L1053.12 1110.1 L1031.17 1110.1 L1031.17 1106.16 Q1033.83 1103.41 1038.42 1098.78 Q1043.02 1094.13 1044.2 1092.79 Q1046.45 1090.26 1047.33 1088.53 Q1048.23 1086.77 1048.23 1085.08 Q1048.23 1082.32 1046.29 1080.59 Q1044.37 1078.85 1041.26 1078.85 Q1039.07 1078.85 1036.61 1079.61 Q1034.18 1080.38 1031.4 1081.93 L1031.4 1077.21 Q1034.23 1076.07 1036.68 1075.49 Q1039.13 1074.91 1041.17 1074.91 Q1046.54 1074.91 1049.74 1077.6 Q1052.93 1080.29 1052.93 1084.78 Q1052.93 1086.91 1052.12 1088.83 Q1051.33 1090.72 1049.23 1093.32 Q1048.65 1093.99 1045.55 1097.21 Q1042.45 1100.4 1036.8 1106.16 Z" fill="#000000" fill-rule="nonzero" fill-opacity="1" /><path clip-path="url(#clip190)" d="M1063.74 1106.16 L1071.38 1106.16 L1071.38 1079.8 L1063.07 1081.47 L1063.07 1077.21 L1071.33 1075.54 L1076.01 1075.54 L1076.01 1106.16 L1083.65 1106.16 L1083.65 1110.1 L1063.74 1110.1 L1063.74 1106.16 Z" fill="#000000" fill-rule="nonzero" fill-opacity="1" /><path clip-path="url(#clip190)" d="M1090.34 1095.22 L1102.82 1095.22 L1102.82 1099.01 L1090.34 1099.01 L1090.34 1095.22 Z" fill="#000000" fill-rule="nonzero" fill-opacity="1" /><path clip-path="url(#clip190)" d="M1111.01 1106.16 L1118.65 1106.16 L1118.65 1079.8 L1110.34 1081.47 L1110.34 1077.21 L1118.6 1075.54 L1123.28 1075.54 L1123.28 1106.16 L1130.92 1106.16 L1130.92 1110.1 L1111.01 1110.1 L1111.01 1106.16 Z" fill="#000000" fill-rule="nonzero" fill-opacity="1" /><path clip-path="url(#clip190)" d="M1141.17 1106.16 L1148.81 1106.16 L1148.81 1079.8 L1140.5 1081.47 L1140.5 1077.21 L1148.76 1075.54 L1153.44 1075.54 L1153.44 1106.16 L1161.08 1106.16 L1161.08 1110.1 L1141.17 1110.1 L1141.17 1106.16 Z" fill="#000000" fill-rule="nonzero" fill-opacity="1" /><path clip-path="url(#clip190)" d="M1167.77 1095.22 L1180.25 1095.22 L1180.25 1099.01 L1167.77 1099.01 L1167.77 1095.22 Z" fill="#000000" fill-rule="nonzero" fill-opacity="1" /><path clip-path="url(#clip190)" d="M1197.63 1078.62 Q1194.02 1078.62 1192.19 1082.18 Q1190.38 1085.72 1190.38 1092.85 Q1190.38 1099.96 1192.19 1103.53 Q1194.02 1107.07 1197.63 1107.07 Q1201.26 1107.07 1203.07 1103.53 Q1204.9 1099.96 1204.9 1092.85 Q1204.9 1085.72 1203.07 1082.18 Q1201.26 1078.62 1197.63 1078.62 M1197.63 1074.91 Q1203.44 1074.91 1206.5 1079.52 Q1209.57 1084.1 1209.57 1092.85 Q1209.57 1101.58 1206.5 1106.19 Q1203.44 1110.77 1197.63 1110.77 Q1191.82 1110.77 1188.74 1106.19 Q1185.69 1101.58 1185.69 1092.85 Q1185.69 1084.1 1188.74 1079.52 Q1191.82 1074.91 1197.63 1074.91 Z" fill="#000000" fill-rule="nonzero" fill-opacity="1" /><path clip-path="url(#clip190)" d="M1218.6 1106.16 L1226.24 1106.16 L1226.24 1079.8 L1217.93 1081.47 L1217.93 1077.21 L1226.19 1075.54 L1230.87 1075.54 L1230.87 1106.16 L1238.51 1106.16 L1238.51 1110.1 L1218.6 1110.1 L1218.6 1106.16 Z" fill="#000000" fill-rule="nonzero" fill-opacity="1" /><path clip-path="url(#clip190)" d="M1666.27 1106.16 L1682.59 1106.16 L1682.59 1110.1 L1660.64 1110.1 L1660.64 1106.16 Q1663.31 1103.41 1667.89 1098.78 Q1672.5 1094.13 1673.68 1092.79 Q1675.92 1090.26 1676.8 1088.53 Q1677.7 1086.77 1677.7 1085.08 Q1677.7 1082.32 1675.76 1080.59 Q1673.84 1078.85 1670.74 1078.85 Q1668.54 1078.85 1666.08 1079.61 Q1663.65 1080.38 1660.88 1081.93 L1660.88 1077.21 Q1663.7 1076.07 1666.15 1075.49 Q1668.61 1074.91 1670.64 1074.91 Q1676.01 1074.91 1679.21 1077.6 Q1682.4 1080.29 1682.4 1084.78 Q1682.4 1086.91 1681.59 1088.83 Q1680.81 1090.72 1678.7 1093.32 Q1678.12 1093.99 1675.02 1097.21 Q1671.92 1100.4 1666.27 1106.16 Z" fill="#000000" fill-rule="nonzero" fill-opacity="1" /><path clip-path="url(#clip190)" d="M1702.4 1078.62 Q1698.79 1078.62 1696.96 1082.18 Q1695.16 1085.72 1695.16 1092.85 Q1695.16 1099.96 1696.96 1103.53 Q1698.79 1107.07 1702.4 1107.07 Q1706.04 1107.07 1707.84 1103.53 Q1709.67 1099.96 1709.67 1092.85 Q1709.67 1085.72 1707.84 1082.18 Q1706.04 1078.62 1702.4 1078.62 M1702.4 1074.91 Q1708.21 1074.91 1711.27 1079.52 Q1714.35 1084.1 1714.35 1092.85 Q1714.35 1101.58 1711.27 1106.19 Q1708.21 1110.77 1702.4 1110.77 Q1696.59 1110.77 1693.51 1106.19 Q1690.46 1101.58 1690.46 1092.85 Q1690.46 1084.1 1693.51 1079.52 Q1696.59 1074.91 1702.4 1074.91 Z" fill="#000000" fill-rule="nonzero" fill-opacity="1" /><path clip-path="url(#clip190)" d="M1726.59 1106.16 L1742.91 1106.16 L1742.91 1110.1 L1720.97 1110.1 L1720.97 1106.16 Q1723.63 1103.41 1728.21 1098.78 Q1732.82 1094.13 1734 1092.79 Q1736.25 1090.26 1737.12 1088.53 Q1738.03 1086.77 1738.03 1085.08 Q1738.03 1082.32 1736.08 1080.59 Q1734.16 1078.85 1731.06 1078.85 Q1728.86 1078.85 1726.41 1079.61 Q1723.98 1080.38 1721.2 1081.93 L1721.2 1077.21 Q1724.02 1076.07 1726.48 1075.49 Q1728.93 1074.91 1730.97 1074.91 Q1736.34 1074.91 1739.53 1077.6 Q1742.73 1080.29 1742.73 1084.78 Q1742.73 1086.91 1741.92 1088.83 Q1741.13 1090.72 1739.02 1093.32 Q1738.44 1093.99 1735.34 1097.21 Q1732.24 1100.4 1726.59 1106.16 Z" fill="#000000" fill-rule="nonzero" fill-opacity="1" /><path clip-path="url(#clip190)" d="M1756.75 1106.16 L1773.07 1106.16 L1773.07 1110.1 L1751.13 1110.1 L1751.13 1106.16 Q1753.79 1103.41 1758.37 1098.78 Q1762.98 1094.13 1764.16 1092.79 Q1766.41 1090.26 1767.29 1088.53 Q1768.19 1086.77 1768.19 1085.08 Q1768.19 1082.32 1766.24 1080.59 Q1764.32 1078.85 1761.22 1078.85 Q1759.02 1078.85 1756.57 1079.61 Q1754.14 1080.38 1751.36 1081.93 L1751.36 1077.21 Q1754.18 1076.07 1756.64 1075.49 Q1759.09 1074.91 1761.13 1074.91 Q1766.5 1074.91 1769.69 1077.6 Q1772.89 1080.29 1772.89 1084.78 Q1772.89 1086.91 1772.08 1088.83 Q1771.29 1090.72 1769.18 1093.32 Q1768.61 1093.99 1765.5 1097.21 Q1762.4 1100.4 1756.75 1106.16 Z" fill="#000000" fill-rule="nonzero" fill-opacity="1" /><path clip-path="url(#clip190)" d="M1780.13 1095.22 L1792.61 1095.22 L1792.61 1099.01 L1780.13 1099.01 L1780.13 1095.22 Z" fill="#000000" fill-rule="nonzero" fill-opacity="1" /><path clip-path="url(#clip190)" d="M1809.99 1078.62 Q1806.38 1078.62 1804.55 1082.18 Q1802.75 1085.72 1802.75 1092.85 Q1802.75 1099.96 1804.55 1103.53 Q1806.38 1107.07 1809.99 1107.07 Q1813.63 1107.07 1815.43 1103.53 Q1817.26 1099.96 1817.26 1092.85 Q1817.26 1085.72 1815.43 1082.18 Q1813.63 1078.62 1809.99 1078.62 M1809.99 1074.91 Q1815.8 1074.91 1818.86 1079.52 Q1821.94 1084.1 1821.94 1092.85 Q1821.94 1101.58 1818.86 1106.19 Q1815.8 1110.77 1809.99 1110.77 Q1804.18 1110.77 1801.11 1106.19 Q1798.05 1101.58 1798.05 1092.85 Q1798.05 1084.1 1801.11 1079.52 Q1804.18 1074.91 1809.99 1074.91 Z" fill="#000000" fill-rule="nonzero" fill-opacity="1" /><path clip-path="url(#clip190)" d="M1830.97 1106.16 L1838.61 1106.16 L1838.61 1079.8 L1830.3 1081.47 L1830.3 1077.21 L1838.56 1075.54 L1843.24 1075.54 L1843.24 1106.16 L1850.87 1106.16 L1850.87 1110.1 L1830.97 1110.1 L1830.97 1106.16 Z" fill="#000000" fill-rule="nonzero" fill-opacity="1" /><path clip-path="url(#clip190)" d="M1857.56 1095.22 L1870.04 1095.22 L1870.04 1099.01 L1857.56 1099.01 L1857.56 1095.22 Z" fill="#000000" fill-rule="nonzero" fill-opacity="1" /><path clip-path="url(#clip190)" d="M1887.42 1078.62 Q1883.81 1078.62 1881.99 1082.18 Q1880.18 1085.72 1880.18 1092.85 Q1880.18 1099.96 1881.99 1103.53 Q1883.81 1107.07 1887.42 1107.07 Q1891.06 1107.07 1892.86 1103.53 Q1894.69 1099.96 1894.69 1092.85 Q1894.69 1085.72 1892.86 1082.18 Q1891.06 1078.62 1887.42 1078.62 M1887.42 1074.91 Q1893.23 1074.91 1896.29 1079.52 Q1899.37 1084.1 1899.37 1092.85 Q1899.37 1101.58 1896.29 1106.19 Q1893.23 1110.77 1887.42 1110.77 Q1881.61 1110.77 1878.54 1106.19 Q1875.48 1101.58 1875.48 1092.85 Q1875.48 1084.1 1878.54 1079.52 Q1881.61 1074.91 1887.42 1074.91 Z" fill="#000000" fill-rule="nonzero" fill-opacity="1" /><path clip-path="url(#clip190)" d="M1908.4 1106.16 L1916.04 1106.16 L1916.04 1079.8 L1907.73 1081.47 L1907.73 1077.21 L1915.99 1075.54 L1920.67 1075.54 L1920.67 1106.16 L1928.3 1106.16 L1928.3 1110.1 L1908.4 1110.1 L1908.4 1106.16 Z" fill="#000000" fill-rule="nonzero" fill-opacity="1" /><path clip-path="url(#clip190)" d="M1213.42 1150.33 L1213.42 1187.28 L1221.18 1187.28 Q1231.02 1187.28 1235.57 1182.82 Q1240.15 1178.37 1240.15 1168.76 Q1240.15 1159.21 1235.57 1154.78 Q1231.02 1150.33 1221.18 1150.33 L1213.42 1150.33 M1206.99 1145.04 L1220.2 1145.04 Q1234.01 1145.04 1240.47 1150.8 Q1246.93 1156.53 1246.93 1168.76 Q1246.93 1181.04 1240.44 1186.8 Q1233.95 1192.56 1220.2 1192.56 L1206.99 1192.56 L1206.99 1145.04 Z" fill="#000000" fill-rule="nonzero" fill-opacity="1" /><path clip-path="url(#clip190)" d="M1273.13 1174.64 Q1266.03 1174.64 1263.29 1176.27 Q1260.55 1177.89 1260.55 1181.81 Q1260.55 1184.92 1262.59 1186.77 Q1264.66 1188.59 1268.19 1188.59 Q1273.06 1188.59 1275.99 1185.15 Q1278.95 1181.68 1278.95 1175.95 L1278.95 1174.64 L1273.13 1174.64 M1284.81 1172.23 L1284.81 1192.56 L1278.95 1192.56 L1278.95 1187.15 Q1276.95 1190.4 1273.95 1191.96 Q1270.96 1193.49 1266.63 1193.49 Q1261.16 1193.49 1257.91 1190.43 Q1254.7 1187.34 1254.7 1182.19 Q1254.7 1176.17 1258.71 1173.12 Q1262.75 1170.06 1270.74 1170.06 L1278.95 1170.06 L1278.95 1169.49 Q1278.95 1165.45 1276.28 1163.25 Q1273.64 1161.02 1268.83 1161.02 Q1265.77 1161.02 1262.88 1161.75 Q1259.98 1162.49 1257.31 1163.95 L1257.31 1158.54 Q1260.52 1157.3 1263.55 1156.69 Q1266.57 1156.06 1269.44 1156.06 Q1277.17 1156.06 1280.99 1160.07 Q1284.81 1164.08 1284.81 1172.23 Z" fill="#000000" fill-rule="nonzero" fill-opacity="1" /><path clip-path="url(#clip190)" d="M1302.66 1146.79 L1302.66 1156.92 L1314.73 1156.92 L1314.73 1161.47 L1302.66 1161.47 L1302.66 1180.82 Q1302.66 1185.18 1303.84 1186.42 Q1305.05 1187.66 1308.71 1187.66 L1314.73 1187.66 L1314.73 1192.56 L1308.71 1192.56 Q1301.93 1192.56 1299.35 1190.05 Q1296.78 1187.5 1296.78 1180.82 L1296.78 1161.47 L1292.48 1161.47 L1292.48 1156.92 L1296.78 1156.92 L1296.78 1146.79 L1302.66 1146.79 Z" fill="#000000" fill-rule="nonzero" fill-opacity="1" /><path clip-path="url(#clip190)" d="M1352.92 1173.28 L1352.92 1176.14 L1325.99 1176.14 Q1326.38 1182.19 1329.62 1185.37 Q1332.9 1188.52 1338.73 1188.52 Q1342.1 1188.52 1345.25 1187.69 Q1348.43 1186.87 1351.55 1185.21 L1351.55 1190.75 Q1348.4 1192.09 1345.09 1192.79 Q1341.78 1193.49 1338.38 1193.49 Q1329.85 1193.49 1324.85 1188.52 Q1319.88 1183.56 1319.88 1175.09 Q1319.88 1166.34 1324.59 1161.21 Q1329.34 1156.06 1337.36 1156.06 Q1344.55 1156.06 1348.72 1160.7 Q1352.92 1165.32 1352.92 1173.28 M1347.06 1171.56 Q1347 1166.75 1344.36 1163.89 Q1341.75 1161.02 1337.42 1161.02 Q1332.52 1161.02 1329.56 1163.79 Q1326.63 1166.56 1326.19 1171.59 L1347.06 1171.56 Z" fill="#000000" fill-rule="nonzero" fill-opacity="1" /><polyline clip-path="url(#clip192)" style="stroke:#000000; stroke-linecap:round; stroke-linejoin:round; stroke-width:2; stroke-opacity:0.1; fill:none" points="207.153,966.23 2352.76,966.23 "/>
<polyline clip-path="url(#clip192)" style="stroke:#000000; stroke-linecap:round; stroke-linejoin:round; stroke-width:2; stroke-opacity:0.1; fill:none" points="207.153,762.211 2352.76,762.211 "/>
<polyline clip-path="url(#clip192)" style="stroke:#000000; stroke-linecap:round; stroke-linejoin:round; stroke-width:2; stroke-opacity:0.1; fill:none" points="207.153,558.192 2352.76,558.192 "/>
<polyline clip-path="url(#clip192)" style="stroke:#000000; stroke-linecap:round; stroke-linejoin:round; stroke-width:2; stroke-opacity:0.1; fill:none" points="207.153,354.173 2352.76,354.173 "/>
<polyline clip-path="url(#clip192)" style="stroke:#000000; stroke-linecap:round; stroke-linejoin:round; stroke-width:2; stroke-opacity:0.1; fill:none" points="207.153,150.154 2352.76,150.154 "/>
<polyline clip-path="url(#clip190)" style="stroke:#000000; stroke-linecap:round; stroke-linejoin:round; stroke-width:4; stroke-opacity:1; fill:none" points="207.153,1047.7 207.153,47.2441 "/>
<polyline clip-path="url(#clip190)" style="stroke:#000000; stroke-linecap:round; stroke-linejoin:round; stroke-width:4; stroke-opacity:1; fill:none" points="207.153,966.23 226.051,966.23 "/>
<polyline clip-path="url(#clip190)" style="stroke:#000000; stroke-linecap:round; stroke-linejoin:round; stroke-width:4; stroke-opacity:1; fill:none" points="207.153,762.211 226.051,762.211 "/>
<polyline clip-path="url(#clip190)" style="stroke:#000000; stroke-linecap:round; stroke-linejoin:round; stroke-width:4; stroke-opacity:1; fill:none" points="207.153,558.192 226.051,558.192 "/>
<polyline clip-path="url(#clip190)" style="stroke:#000000; stroke-linecap:round; stroke-linejoin:round; stroke-width:4; stroke-opacity:1; fill:none" points="207.153,354.173 226.051,354.173 "/>
<polyline clip-path="url(#clip190)" style="stroke:#000000; stroke-linecap:round; stroke-linejoin:round; stroke-width:4; stroke-opacity:1; fill:none" points="207.153,150.154 226.051,150.154 "/>
<path clip-path="url(#clip190)" d="M114.973 952.028 Q111.362 952.028 109.533 955.593 Q107.727 959.135 107.727 966.264 Q107.727 973.371 109.533 976.936 Q111.362 980.477 114.973 980.477 Q118.607 980.477 120.412 976.936 Q122.241 973.371 122.241 966.264 Q122.241 959.135 120.412 955.593 Q118.607 952.028 114.973 952.028 M114.973 948.325 Q120.783 948.325 123.838 952.931 Q126.917 957.514 126.917 966.264 Q126.917 974.991 123.838 979.598 Q120.783 984.181 114.973 984.181 Q109.163 984.181 106.084 979.598 Q103.028 974.991 103.028 966.264 Q103.028 957.514 106.084 952.931 Q109.163 948.325 114.973 948.325 Z" fill="#000000" fill-rule="nonzero" fill-opacity="1" /><path clip-path="url(#clip190)" d="M135.135 977.63 L140.019 977.63 L140.019 983.51 L135.135 983.51 L135.135 977.63 Z" fill="#000000" fill-rule="nonzero" fill-opacity="1" /><path clip-path="url(#clip190)" d="M150.25 948.95 L168.607 948.95 L168.607 952.885 L154.533 952.885 L154.533 961.357 Q155.551 961.01 156.57 960.848 Q157.588 960.663 158.607 960.663 Q164.394 960.663 167.773 963.834 Q171.153 967.005 171.153 972.422 Q171.153 978 167.681 981.102 Q164.209 984.181 157.889 984.181 Q155.713 984.181 153.445 983.811 Q151.199 983.44 148.792 982.699 L148.792 978 Q150.875 979.135 153.097 979.69 Q155.32 980.246 157.797 980.246 Q161.801 980.246 164.139 978.139 Q166.477 976.033 166.477 972.422 Q166.477 968.811 164.139 966.704 Q161.801 964.598 157.797 964.598 Q155.922 964.598 154.047 965.014 Q152.195 965.431 150.25 966.311 L150.25 948.95 Z" fill="#000000" fill-rule="nonzero" fill-opacity="1" /><path clip-path="url(#clip190)" d="M104.788 775.556 L112.426 775.556 L112.426 749.19 L104.116 750.857 L104.116 746.597 L112.38 744.931 L117.056 744.931 L117.056 775.556 L124.695 775.556 L124.695 779.491 L104.788 779.491 L104.788 775.556 Z" fill="#000000" fill-rule="nonzero" fill-opacity="1" /><path clip-path="url(#clip190)" d="M134.139 773.611 L139.023 773.611 L139.023 779.491 L134.139 779.491 L134.139 773.611 Z" fill="#000000" fill-rule="nonzero" fill-opacity="1" /><path clip-path="url(#clip190)" d="M159.209 748.009 Q155.597 748.009 153.769 751.574 Q151.963 755.116 151.963 762.245 Q151.963 769.352 153.769 772.917 Q155.597 776.458 159.209 776.458 Q162.843 776.458 164.648 772.917 Q166.477 769.352 166.477 762.245 Q166.477 755.116 164.648 751.574 Q162.843 748.009 159.209 748.009 M159.209 744.306 Q165.019 744.306 168.074 748.912 Q171.153 753.496 171.153 762.245 Q171.153 770.972 168.074 775.579 Q165.019 780.162 159.209 780.162 Q153.398 780.162 150.32 775.579 Q147.264 770.972 147.264 762.245 Q147.264 753.496 150.32 748.912 Q153.398 744.306 159.209 744.306 Z" fill="#000000" fill-rule="nonzero" fill-opacity="1" /><path clip-path="url(#clip190)" d="M105.783 571.537 L113.422 571.537 L113.422 545.171 L105.112 546.838 L105.112 542.579 L113.375 540.912 L118.051 540.912 L118.051 571.537 L125.69 571.537 L125.69 575.472 L105.783 575.472 L105.783 571.537 Z" fill="#000000" fill-rule="nonzero" fill-opacity="1" /><path clip-path="url(#clip190)" d="M135.135 569.592 L140.019 569.592 L140.019 575.472 L135.135 575.472 L135.135 569.592 Z" fill="#000000" fill-rule="nonzero" fill-opacity="1" /><path clip-path="url(#clip190)" d="M150.25 540.912 L168.607 540.912 L168.607 544.847 L154.533 544.847 L154.533 553.319 Q155.551 552.972 156.57 552.81 Q157.588 552.625 158.607 552.625 Q164.394 552.625 167.773 555.796 Q171.153 558.967 171.153 564.384 Q171.153 569.963 167.681 573.064 Q164.209 576.143 157.889 576.143 Q155.713 576.143 153.445 575.773 Q151.199 575.402 148.792 574.662 L148.792 569.963 Q150.875 571.097 153.097 571.652 Q155.32 572.208 157.797 572.208 Q161.801 572.208 164.139 570.102 Q166.477 567.995 166.477 564.384 Q166.477 560.773 164.139 558.666 Q161.801 556.56 157.797 556.56 Q155.922 556.56 154.047 556.977 Q152.195 557.393 150.25 558.273 L150.25 540.912 Z" fill="#000000" fill-rule="nonzero" fill-opacity="1" /><path clip-path="url(#clip190)" d="M108.005 367.518 L124.324 367.518 L124.324 371.453 L102.38 371.453 L102.38 367.518 Q105.042 364.763 109.625 360.134 Q114.232 355.481 115.412 354.138 Q117.658 351.615 118.537 349.879 Q119.44 348.12 119.44 346.43 Q119.44 343.675 117.496 341.939 Q115.575 340.203 112.473 340.203 Q110.274 340.203 107.82 340.967 Q105.389 341.731 102.612 343.282 L102.612 338.56 Q105.436 337.425 107.889 336.847 Q110.343 336.268 112.38 336.268 Q117.75 336.268 120.945 338.953 Q124.139 341.638 124.139 346.129 Q124.139 348.259 123.329 350.18 Q122.542 352.078 120.436 354.671 Q119.857 355.342 116.755 358.56 Q113.653 361.754 108.005 367.518 Z" fill="#000000" fill-rule="nonzero" fill-opacity="1" /><path clip-path="url(#clip190)" d="M134.139 365.573 L139.023 365.573 L139.023 371.453 L134.139 371.453 L134.139 365.573 Z" fill="#000000" fill-rule="nonzero" fill-opacity="1" /><path clip-path="url(#clip190)" d="M159.209 339.972 Q155.597 339.972 153.769 343.536 Q151.963 347.078 151.963 354.208 Q151.963 361.314 153.769 364.879 Q155.597 368.421 159.209 368.421 Q162.843 368.421 164.648 364.879 Q166.477 361.314 166.477 354.208 Q166.477 347.078 164.648 343.536 Q162.843 339.972 159.209 339.972 M159.209 336.268 Q165.019 336.268 168.074 340.874 Q171.153 345.458 171.153 354.208 Q171.153 362.935 168.074 367.541 Q165.019 372.124 159.209 372.124 Q153.398 372.124 150.32 367.541 Q147.264 362.935 147.264 354.208 Q147.264 345.458 150.32 340.874 Q153.398 336.268 159.209 336.268 Z" fill="#000000" fill-rule="nonzero" fill-opacity="1" /><path clip-path="url(#clip190)" d="M109 163.499 L125.32 163.499 L125.32 167.434 L103.376 167.434 L103.376 163.499 Q106.038 160.744 110.621 156.115 Q115.227 151.462 116.408 150.119 Q118.653 147.596 119.533 145.86 Q120.436 144.101 120.436 142.411 Q120.436 139.657 118.491 137.92 Q116.57 136.184 113.468 136.184 Q111.269 136.184 108.815 136.948 Q106.385 137.712 103.607 139.263 L103.607 134.541 Q106.431 133.407 108.885 132.828 Q111.338 132.249 113.375 132.249 Q118.746 132.249 121.94 134.934 Q125.135 137.619 125.135 142.11 Q125.135 144.24 124.324 146.161 Q123.537 148.059 121.431 150.652 Q120.852 151.323 117.75 154.541 Q114.649 157.735 109 163.499 Z" fill="#000000" fill-rule="nonzero" fill-opacity="1" /><path clip-path="url(#clip190)" d="M135.135 161.555 L140.019 161.555 L140.019 167.434 L135.135 167.434 L135.135 161.555 Z" fill="#000000" fill-rule="nonzero" fill-opacity="1" /><path clip-path="url(#clip190)" d="M150.25 132.874 L168.607 132.874 L168.607 136.809 L154.533 136.809 L154.533 145.281 Q155.551 144.934 156.57 144.772 Q157.588 144.587 158.607 144.587 Q164.394 144.587 167.773 147.758 Q171.153 150.93 171.153 156.346 Q171.153 161.925 167.681 165.027 Q164.209 168.105 157.889 168.105 Q155.713 168.105 153.445 167.735 Q151.199 167.365 148.792 166.624 L148.792 161.925 Q150.875 163.059 153.097 163.615 Q155.32 164.17 157.797 164.17 Q161.801 164.17 164.139 162.064 Q166.477 159.957 166.477 156.346 Q166.477 152.735 164.139 150.629 Q161.801 148.522 157.797 148.522 Q155.922 148.522 154.047 148.939 Q152.195 149.356 150.25 150.235 L150.25 132.874 Z" fill="#000000" fill-rule="nonzero" fill-opacity="1" /><path clip-path="url(#clip190)" d="M29.8442 875.545 Q30.5444 873.476 32.8361 871.534 Q35.1277 869.561 39.1381 867.587 L52.1242 861.063 L52.1242 867.969 L39.9338 874.049 Q35.1595 876.404 33.6 878.632 Q32.0404 880.828 32.0404 884.648 L32.0404 891.65 L52.1242 891.65 L52.1242 898.079 L4.60416 898.079 L4.60416 883.565 Q4.60416 875.417 8.00981 871.407 Q11.4155 867.396 18.2904 867.396 Q22.7782 867.396 25.7383 869.497 Q28.6984 871.566 29.8442 875.545 M9.88769 891.65 L26.7568 891.65 L26.7568 883.565 Q26.7568 878.918 24.6243 876.563 Q22.46 874.176 18.2904 874.176 Q14.1209 874.176 12.0202 876.563 Q9.88769 878.918 9.88769 883.565 L9.88769 891.65 Z" fill="#000000" fill-rule="nonzero" fill-opacity="1" /><path clip-path="url(#clip190)" d="M32.8361 825.478 L35.7006 825.478 L35.7006 852.405 Q41.7481 852.023 44.9309 848.777 Q48.0819 845.498 48.0819 839.674 Q48.0819 836.3 47.2544 833.149 Q46.4269 829.966 44.7718 826.847 L50.3099 826.847 Q51.6467 829.998 52.347 833.308 Q53.0472 836.618 53.0472 840.024 Q53.0472 848.554 48.0819 853.551 Q43.1167 858.516 34.6503 858.516 Q25.8974 858.516 20.7731 853.806 Q15.6168 849.063 15.6168 841.042 Q15.6168 833.849 20.2638 829.68 Q24.8789 825.478 32.8361 825.478 M31.1173 831.335 Q26.3112 831.398 23.4466 834.04 Q20.5821 836.65 20.5821 840.979 Q20.5821 845.88 23.3512 848.84 Q26.1202 851.769 31.1492 852.214 L31.1173 831.335 Z" fill="#000000" fill-rule="nonzero" fill-opacity="1" /><path clip-path="url(#clip190)" d="M46.777 810.201 L65.6831 810.201 L65.6831 816.089 L16.4762 816.089 L16.4762 810.201 L21.8871 810.201 Q18.7042 808.355 17.1764 805.554 Q15.6168 802.721 15.6168 798.806 Q15.6168 792.313 20.7731 788.271 Q25.9293 784.197 34.332 784.197 Q42.7347 784.197 47.891 788.271 Q53.0472 792.313 53.0472 798.806 Q53.0472 802.721 51.5194 805.554 Q49.9598 808.355 46.777 810.201 M34.332 790.276 Q27.8708 790.276 24.2105 792.95 Q20.5184 795.591 20.5184 800.238 Q20.5184 804.885 24.2105 807.559 Q27.8708 810.201 34.332 810.201 Q40.7932 810.201 44.4853 807.559 Q48.1456 804.885 48.1456 800.238 Q48.1456 795.591 44.4853 792.95 Q40.7932 790.276 34.332 790.276 Z" fill="#000000" fill-rule="nonzero" fill-opacity="1" /><path clip-path="url(#clip190)" d="M21.9507 753.832 Q21.3778 754.819 21.1232 755.997 Q20.8367 757.142 20.8367 758.543 Q20.8367 763.508 24.0832 766.182 Q27.2979 768.824 33.3453 768.824 L52.1242 768.824 L52.1242 774.712 L16.4762 774.712 L16.4762 768.824 L22.0144 768.824 Q18.7679 766.977 17.2083 764.017 Q15.6168 761.057 15.6168 756.824 Q15.6168 756.219 15.7123 755.487 Q15.776 754.755 15.9351 753.864 L21.9507 753.832 Z" fill="#000000" fill-rule="nonzero" fill-opacity="1" /><path clip-path="url(#clip190)" d="M20.5821 735.308 Q20.5821 740.019 24.2742 742.756 Q27.9345 745.493 34.332 745.493 Q40.7295 745.493 44.4217 742.788 Q48.0819 740.051 48.0819 735.308 Q48.0819 730.629 44.3898 727.892 Q40.6977 725.155 34.332 725.155 Q27.9981 725.155 24.306 727.892 Q20.5821 730.629 20.5821 735.308 M15.6168 735.308 Q15.6168 727.669 20.5821 723.309 Q25.5473 718.948 34.332 718.948 Q43.0849 718.948 48.0819 723.309 Q53.0472 727.669 53.0472 735.308 Q53.0472 742.979 48.0819 747.339 Q43.0849 751.668 34.332 751.668 Q25.5473 751.668 20.5821 747.339 Q15.6168 742.979 15.6168 735.308 Z" fill="#000000" fill-rule="nonzero" fill-opacity="1" /><path clip-path="url(#clip190)" d="M21.8871 685.783 L2.59896 685.783 L2.59896 679.926 L52.1242 679.926 L52.1242 685.783 L46.777 685.783 Q49.9598 687.629 51.5194 690.462 Q53.0472 693.263 53.0472 697.209 Q53.0472 703.67 47.891 707.745 Q42.7347 711.787 34.332 711.787 Q25.9293 711.787 20.7731 707.745 Q15.6168 703.67 15.6168 697.209 Q15.6168 693.263 17.1764 690.462 Q18.7042 687.629 21.8871 685.783 M34.332 705.739 Q40.7932 705.739 44.4853 703.098 Q48.1456 700.424 48.1456 695.777 Q48.1456 691.13 44.4853 688.456 Q40.7932 685.783 34.332 685.783 Q27.8708 685.783 24.2105 688.456 Q20.5184 691.13 20.5184 695.777 Q20.5184 700.424 24.2105 703.098 Q27.8708 705.739 34.332 705.739 Z" fill="#000000" fill-rule="nonzero" fill-opacity="1" /><path clip-path="url(#clip190)" d="M38.0559 668.468 L16.4762 668.468 L16.4762 662.612 L37.8331 662.612 Q42.8939 662.612 45.4402 660.638 Q47.9546 658.665 47.9546 654.718 Q47.9546 649.976 44.9309 647.239 Q41.9072 644.469 36.6873 644.469 L16.4762 644.469 L16.4762 638.613 L52.1242 638.613 L52.1242 644.469 L46.6496 644.469 Q49.8962 646.602 51.4876 649.435 Q53.0472 652.236 53.0472 655.96 Q53.0472 662.102 49.2278 665.285 Q45.4083 668.468 38.0559 668.468 M15.6168 653.732 L15.6168 653.732 Z" fill="#000000" fill-rule="nonzero" fill-opacity="1" /><path clip-path="url(#clip190)" d="M17.8448 600.896 L23.3193 600.896 Q21.9507 603.379 21.2823 605.893 Q20.5821 608.376 20.5821 610.922 Q20.5821 616.619 24.2105 619.77 Q27.8072 622.922 34.332 622.922 Q40.8569 622.922 44.4853 619.77 Q48.0819 616.619 48.0819 610.922 Q48.0819 608.376 47.4135 605.893 Q46.7133 603.379 45.3447 600.896 L50.7555 600.896 Q51.9014 603.347 52.4743 605.989 Q53.0472 608.599 53.0472 611.559 Q53.0472 619.611 47.9864 624.354 Q42.9257 629.096 34.332 629.096 Q25.611 629.096 20.6139 624.322 Q15.6168 619.516 15.6168 611.177 Q15.6168 608.471 16.1897 605.893 Q16.7308 603.315 17.8448 600.896 Z" fill="#000000" fill-rule="nonzero" fill-opacity="1" /><path clip-path="url(#clip190)" d="M6.35473 584.918 L16.4762 584.918 L16.4762 572.855 L21.0277 572.855 L21.0277 584.918 L40.3794 584.918 Q44.7399 584.918 45.9813 583.741 Q47.2226 582.531 47.2226 578.871 L47.2226 572.855 L52.1242 572.855 L52.1242 578.871 Q52.1242 585.65 49.6097 588.228 Q47.0634 590.807 40.3794 590.807 L21.0277 590.807 L21.0277 595.103 L16.4762 595.103 L16.4762 590.807 L6.35473 590.807 L6.35473 584.918 Z" fill="#000000" fill-rule="nonzero" fill-opacity="1" /><path clip-path="url(#clip190)" d="M16.4762 565.153 L16.4762 559.296 L52.1242 559.296 L52.1242 565.153 L16.4762 565.153 M2.59896 565.153 L2.59896 559.296 L10.015 559.296 L10.015 565.153 L2.59896 565.153 Z" fill="#000000" fill-rule="nonzero" fill-opacity="1" /><path clip-path="url(#clip190)" d="M20.5821 533.229 Q20.5821 537.939 24.2742 540.677 Q27.9345 543.414 34.332 543.414 Q40.7295 543.414 44.4217 540.708 Q48.0819 537.971 48.0819 533.229 Q48.0819 528.55 44.3898 525.813 Q40.6977 523.075 34.332 523.075 Q27.9981 523.075 24.306 525.813 Q20.5821 528.55 20.5821 533.229 M15.6168 533.229 Q15.6168 525.59 20.5821 521.229 Q25.5473 516.869 34.332 516.869 Q43.0849 516.869 48.0819 521.229 Q53.0472 525.59 53.0472 533.229 Q53.0472 540.899 48.0819 545.26 Q43.0849 549.589 34.332 549.589 Q25.5473 549.589 20.5821 545.26 Q15.6168 540.899 15.6168 533.229 Z" fill="#000000" fill-rule="nonzero" fill-opacity="1" /><path clip-path="url(#clip190)" d="M30.6081 477.529 L52.1242 477.529 L52.1242 483.385 L30.799 483.385 Q25.7383 483.385 23.2238 485.359 Q20.7094 487.332 20.7094 491.279 Q20.7094 496.021 23.7331 498.758 Q26.7568 501.496 31.9767 501.496 L52.1242 501.496 L52.1242 507.384 L16.4762 507.384 L16.4762 501.496 L22.0144 501.496 Q18.7997 499.395 17.2083 496.562 Q15.6168 493.698 15.6168 489.974 Q15.6168 483.831 19.4363 480.68 Q23.2238 477.529 30.6081 477.529 Z" fill="#000000" fill-rule="nonzero" fill-opacity="1" /><path clip-path="url(#clip190)" d="M30.6081 415.495 L52.1242 415.495 L52.1242 421.351 L30.799 421.351 Q25.7383 421.351 23.2238 423.325 Q20.7094 425.298 20.7094 429.245 Q20.7094 433.987 23.7331 436.725 Q26.7568 439.462 31.9767 439.462 L52.1242 439.462 L52.1242 445.35 L16.4762 445.35 L16.4762 439.462 L22.0144 439.462 Q18.7997 437.361 17.2083 434.528 Q15.6168 431.664 15.6168 427.94 Q15.6168 421.797 19.4363 418.646 Q23.2238 415.495 30.6081 415.495 Z" fill="#000000" fill-rule="nonzero" fill-opacity="1" /><path clip-path="url(#clip190)" d="M38.0559 404.419 L16.4762 404.419 L16.4762 398.562 L37.8331 398.562 Q42.8939 398.562 45.4402 396.589 Q47.9546 394.615 47.9546 390.669 Q47.9546 385.926 44.9309 383.189 Q41.9072 380.42 36.6873 380.42 L16.4762 380.42 L16.4762 374.563 L52.1242 374.563 L52.1242 380.42 L46.6496 380.42 Q49.8962 382.552 51.4876 385.385 Q53.0472 388.186 53.0472 391.91 Q53.0472 398.053 49.2278 401.236 Q45.4083 404.419 38.0559 404.419 M15.6168 389.682 L15.6168 389.682 Z" fill="#000000" fill-rule="nonzero" fill-opacity="1" /><path clip-path="url(#clip190)" d="M23.3193 334.746 Q19.3726 332.55 17.4947 329.494 Q15.6168 326.439 15.6168 322.301 Q15.6168 316.731 19.5317 313.707 Q23.4148 310.684 30.6081 310.684 L52.1242 310.684 L52.1242 316.572 L30.799 316.572 Q25.6746 316.572 23.192 318.386 Q20.7094 320.2 20.7094 323.924 Q20.7094 328.476 23.7331 331.118 Q26.7568 333.759 31.9767 333.759 L52.1242 333.759 L52.1242 339.648 L30.799 339.648 Q25.6428 339.648 23.192 341.462 Q20.7094 343.276 20.7094 347.064 Q20.7094 351.551 23.7649 354.193 Q26.7886 356.835 31.9767 356.835 L52.1242 356.835 L52.1242 362.723 L16.4762 362.723 L16.4762 356.835 L22.0144 356.835 Q18.736 354.83 17.1764 352.029 Q15.6168 349.228 15.6168 345.377 Q15.6168 341.494 17.5902 338.788 Q19.5636 336.051 23.3193 334.746 Z" fill="#000000" fill-rule="nonzero" fill-opacity="1" /><path clip-path="url(#clip190)" d="M34.332 273.412 Q27.8708 273.412 24.2105 276.086 Q20.5184 278.728 20.5184 283.375 Q20.5184 288.022 24.2105 290.695 Q27.8708 293.337 34.332 293.337 Q40.7932 293.337 44.4853 290.695 Q48.1456 288.022 48.1456 283.375 Q48.1456 278.728 44.4853 276.086 Q40.7932 273.412 34.332 273.412 M21.8871 293.337 Q18.7042 291.491 17.1764 288.69 Q15.6168 285.857 15.6168 281.942 Q15.6168 275.449 20.7731 271.407 Q25.9293 267.333 34.332 267.333 Q42.7347 267.333 47.891 271.407 Q53.0472 275.449 53.0472 281.942 Q53.0472 285.857 51.5194 288.69 Q49.9598 291.491 46.777 293.337 L52.1242 293.337 L52.1242 299.225 L2.59896 299.225 L2.59896 293.337 L21.8871 293.337 Z" fill="#000000" fill-rule="nonzero" fill-opacity="1" /><path clip-path="url(#clip190)" d="M32.8361 227.134 L35.7006 227.134 L35.7006 254.061 Q41.7481 253.679 44.9309 250.432 Q48.0819 247.154 48.0819 241.329 Q48.0819 237.955 47.2544 234.804 Q46.4269 231.622 44.7718 228.502 L50.3099 228.502 Q51.6467 231.653 52.347 234.964 Q53.0472 238.274 53.0472 241.679 Q53.0472 250.209 48.0819 255.206 Q43.1167 260.172 34.6503 260.172 Q25.8974 260.172 20.7731 255.461 Q15.6168 250.719 15.6168 242.698 Q15.6168 235.505 20.2638 231.335 Q24.8789 227.134 32.8361 227.134 M31.1173 232.99 Q26.3112 233.054 23.4466 235.696 Q20.5821 238.306 20.5821 242.634 Q20.5821 247.536 23.3512 250.496 Q26.1202 253.424 31.1492 253.87 L31.1173 232.99 Z" fill="#000000" fill-rule="nonzero" fill-opacity="1" /><path clip-path="url(#clip190)" d="M21.9507 196.865 Q21.3778 197.851 21.1232 199.029 Q20.8367 200.175 20.8367 201.575 Q20.8367 206.541 24.0832 209.214 Q27.2979 211.856 33.3453 211.856 L52.1242 211.856 L52.1242 217.744 L16.4762 217.744 L16.4762 211.856 L22.0144 211.856 Q18.7679 210.01 17.2083 207.05 Q15.6168 204.09 15.6168 199.857 Q15.6168 199.252 15.7123 198.52 Q15.776 197.788 15.9351 196.897 L21.9507 196.865 Z" fill="#000000" fill-rule="nonzero" fill-opacity="1" /><path clip-path="url(#clip192)" d="M267.878 614.073 L279.186 556.994 L290.494 501.225 L301.802 438.267 L313.11 386.006 L324.418 374.031 L335.726 324.79 L347.034 302.163 L358.343 329.531 L369.651 378.635 L380.959 444.876 L392.267 520.144 L403.575 603.313 L414.883 680.871 L426.191 756.221 L437.499 821.955 L448.807 878.269 L460.116 925.302 L471.424 962.487 L482.732 989.144 L494.04 1007.59 L505.348 1019.39 L516.656 1015.17 L527.964 1004.46 L539.272 987.946 L550.581 968.432 L561.889 946.237 L573.197 934.039 L584.505 914.89 L595.813 901.545 L607.121 892.585 L618.429 878.062 L629.737 867.734 L641.046 861.843 L652.354 854.782 L663.662 849.003 L674.97 858.615 L686.278 868.863 L697.586 867.363 L708.894 853.7 L720.202 837.125 L731.511 800.032 L742.819 759.274 L754.127 729.694 L765.435 703.39 L776.743 689.706 L788.051 684.354 L799.359 674.786 L810.667 671.526 L821.976 670.915 L833.284 660.69 L844.592 653.646 L855.9 655.853 L867.208 642.145 L878.516 632.419 L889.824 633.637 L901.132 638.764 L912.44 638.857 L923.749 641.896 L935.057 640.45 L946.365 638.02 L957.673 624.188 L968.981 608.795 L980.289 600.874 L991.597 598.613 L1002.91 603.686 L1014.21 621.083 L1025.52 645.473 L1036.83 667.157 L1048.14 687.212 L1059.45 691.553 L1070.75 688.187 L1082.06 680.907 L1093.37 675.43 L1104.68 666.164 L1115.99 663.861 L1127.29 663.887 L1138.6 668.342 L1149.91 676.715 L1161.22 689.364 L1172.53 699.583 L1183.84 706.432 L1195.14 709.835 L1206.45 710.758 L1217.76 714.162 L1229.07 714.401 L1240.38 714.571 L1251.68 716.299 L1262.99 721.261 L1274.3 726.869 L1285.61 736.648 L1296.92 745.561 L1308.22 754.773 L1319.53 760.892 L1330.84 762.539 L1342.15 764.013 L1353.46 767.462 L1364.77 770.063 L1376.07 776.233 L1387.38 784.827 L1398.69 794.967 L1410 807.98 L1421.31 822.753 L1432.61 837.018 L1443.92 850.202 L1455.23 860.869 L1466.54 872.493 L1477.85 882.063 L1489.15 887.284 L1500.46 891.021 L1511.77 893.107 L1523.08 892.487 L1534.39 889.126 L1545.7 885.553 L1557 883.31 L1568.31 882.641 L1579.62 879.803 L1590.93 879.057 L1602.24 879.007 L1613.54 879.612 L1624.85 880.819 L1636.16 884.911 L1647.47 890.199 L1658.78 895.368 L1670.08 901.607 L1681.39 901.475 L1692.7 900.034 L1704.01 898.106 L1715.32 895.037 L1726.63 885.961 L1737.93 887.367 L1749.24 884.558 L1760.55 883.321 L1771.86 881.841 L1783.17 883.93 L1794.47 875.528 L1805.78 877.872 L1817.09 881.015 L1828.4 884.747 L1839.71 893.536 L1851.01 907.564 L1862.32 908.451 L1873.63 907.817 L1884.94 904.491 L1896.25 892.885 L1907.56 885.691 L1918.86 883.761 L1930.17 882.837 L1941.48 890.864 L1952.79 904.782 L1964.1 905.559 L1975.4 900.841 L1986.71 892.292 L1998.02 872.278 L2009.33 848.502 L2020.64 825.883 L2031.94 801.255 L2043.25 790.15 L2054.56 773.606 L2065.87 724.388 L2077.18 660.612 L2088.49 566.16 L2099.79 461.662 L2111.1 372.763 L2122.41 317.83 L2133.72 293.039 L2145.03 294.792 L2156.33 300.66 L2167.64 332.008 L2178.95 366.567 L2190.26 399.005 L2201.57 442.193 L2212.87 466.986 L2224.18 473.638 L2235.49 457.934 L2246.8 420.054 L2258.11 370.313 L2269.42 330.471 L2280.72 300.227 L2292.03 302.086 L2292.03 244.951 L2280.72 238.926 L2269.42 266.178 L2258.11 303.639 L2246.8 351.73 L2235.49 387.633 L2224.18 400.197 L2212.87 388.825 L2201.57 357.592 L2190.26 305.924 L2178.95 264.527 L2167.64 219.672 L2156.33 177.025 L2145.03 160.695 L2133.72 148.264 L2122.41 164.781 L2111.1 215.531 L2099.79 306.194 L2088.49 417.516 L2077.18 520.815 L2065.87 591.735 L2054.56 647.461 L2043.25 666.427 L2031.94 679.698 L2020.64 709.217 L2009.33 736.982 L1998.02 766.507 L1986.71 791.864 L1975.4 803.851 L1964.1 811.273 L1952.79 812.15 L1941.48 797.69 L1930.17 790.106 L1918.86 792.907 L1907.56 796.941 L1896.25 807.081 L1884.94 822.278 L1873.63 827.916 L1862.32 830.364 L1851.01 830.934 L1839.71 816.462 L1828.4 807.909 L1817.09 805.045 L1805.78 802.845 L1794.47 801.569 L1783.17 812.34 L1771.86 811.368 L1760.55 814.394 L1749.24 817.16 L1737.93 821.689 L1726.63 821.558 L1715.32 833.061 L1704.01 837.885 L1692.7 841.407 L1681.39 844.333 L1670.08 845.744 L1658.78 840.081 L1647.47 835.548 L1636.16 830.854 L1624.85 827.448 L1613.54 827.176 L1602.24 827.552 L1590.93 828.636 L1579.62 830.476 L1568.31 834.581 L1557 836.337 L1545.7 839.788 L1534.39 844.657 L1523.08 849.262 L1511.77 850.865 L1500.46 849.499 L1489.15 846.291 L1477.85 841.413 L1466.54 831.803 L1455.23 819.921 L1443.92 808.974 L1432.61 795.262 L1421.31 780.317 L1410 764.758 L1398.69 750.992 L1387.38 740.208 L1376.07 731.008 L1364.77 724.334 L1353.46 721.398 L1342.15 717.536 L1330.84 715.724 L1319.53 713.677 L1308.22 706.832 L1296.92 696.636 L1285.61 686.677 L1274.3 675.729 L1262.99 669.132 L1251.68 663.173 L1240.38 660.604 L1229.07 659.654 L1217.76 658.593 L1206.45 654.126 L1195.14 652.226 L1183.84 647.601 L1172.53 639.196 L1161.22 627.068 L1149.91 612.216 L1138.6 601.805 L1127.29 595.501 L1115.99 593.9 L1104.68 594.802 L1093.37 603.192 L1082.06 607.549 L1070.75 613.818 L1059.45 615.774 L1048.14 609.199 L1036.83 585.324 L1025.52 559.286 L1014.21 529.925 L1002.91 507.797 L991.597 498.822 L980.289 497.747 L968.981 502.879 L957.673 516.279 L946.365 528.042 L935.057 527.21 L923.749 525.146 L912.44 517.93 L901.132 513.785 L889.824 503.857 L878.516 498.183 L867.208 504.791 L855.9 515.953 L844.592 509.114 L833.284 512.754 L821.976 520.067 L810.667 516.406 L799.359 515.854 L788.051 522.812 L776.743 525.324 L765.435 538.243 L754.127 566.973 L742.819 600.83 L731.511 649.165 L720.202 694.165 L708.894 715.094 L697.586 732.659 L686.278 735.526 L674.97 724.212 L663.662 713.786 L652.354 721.999 L641.046 732.032 L629.737 741.004 L618.429 755.66 L607.121 775.713 L595.813 789.508 L584.505 808.912 L573.197 835.549 L561.889 854.12 L550.581 884.675 L539.272 911.933 L527.964 935.339 L516.656 951.396 L505.348 959.244 L494.04 947.737 L482.732 928.177 L471.424 898.898 L460.116 857.377 L448.807 804.458 L437.499 740.705 L426.191 665.763 L414.883 579.105 L403.575 488.457 L392.267 389.543 L380.959 296.659 L369.651 210.56 L358.343 139.925 L347.034 90.0442 L335.726 93.8691 L324.418 127.051 L313.11 103.668 L301.802 119.387 L290.494 137.476 L279.186 127.401 L267.878 75.5589  Z" fill="#13643f" fill-rule="evenodd" fill-opacity="0.3"/>
<polyline clip-path="url(#clip192)" style="stroke:#13643f; stroke-linecap:round; stroke-linejoin:round; stroke-width:4; stroke-opacity:1; fill:none" points="267.878,367.141 279.186,356.198 290.494,329.058 301.802,285.921 313.11,250.181 324.418,254.649 335.726,212.764 347.034,198.96 358.343,237.103 369.651,296.591 380.959,372.465 392.267,456.316 403.575,547.19 414.883,631.173 426.191,712.093 437.499,782.379 448.807,842.388 460.116,892.363 471.424,931.738 482.732,959.749 494.04,978.818 505.348,990.556 516.656,984.633 527.964,971.383 539.272,951.57 550.581,928.342 561.889,902.131 573.197,886.906 584.505,864.164 595.813,847.929 607.121,836.675 618.429,819.496 629.737,807.097 641.046,799.744 652.354,791.261 663.662,784.317 674.97,794.378 686.278,805.199 697.586,803.06 708.894,787.494 720.202,768.786 731.511,727.772 742.819,683.231 754.127,651.482 765.435,623.896 776.743,610.492 788.051,606.438 799.359,598.043 810.667,596.553 821.976,597.943 833.284,589.044 844.592,583.576 855.9,587.976 867.208,575.424 878.516,567.143 889.824,570.479 901.132,577.9 912.44,579.921 923.749,584.957 935.057,585.182 946.365,584.304 957.673,571.433 968.981,556.965 980.289,550.368 991.597,549.707 1002.91,556.665 1014.21,576.367 1025.52,603.187 1036.83,627.001 1048.14,648.926 1059.45,654.35 1070.75,651.66 1082.06,644.86 1093.37,639.918 1104.68,631.065 1115.99,629.439 1127.29,630.228 1138.6,635.584 1149.91,644.954 1161.22,658.683 1172.53,669.839 1183.84,677.449 1195.14,681.449 1206.45,682.848 1217.76,686.771 1229.07,687.41 1240.38,687.96 1251.68,690.099 1262.99,695.549 1274.3,701.643 1285.61,711.999 1296.92,721.427 1308.22,731.125 1319.53,737.602 1330.84,739.445 1342.15,741.085 1353.46,744.737 1364.77,747.503 1376.07,753.923 1387.38,762.819 1398.69,773.28 1410,786.669 1421.31,801.836 1432.61,816.444 1443.92,829.896 1455.23,840.709 1466.54,852.469 1477.85,862.069 1489.15,867.129 1500.46,870.615 1511.77,872.356 1523.08,871.259 1534.39,867.294 1545.7,863.091 1557,860.263 1568.31,859.069 1579.62,855.616 1590.93,854.343 1602.24,853.795 1613.54,853.93 1624.85,854.69 1636.16,858.461 1647.47,863.474 1658.78,868.349 1670.08,874.326 1681.39,873.582 1692.7,871.43 1704.01,868.737 1715.32,864.825 1726.63,854.57 1737.93,855.373 1749.24,851.738 1760.55,849.771 1771.86,847.553 1783.17,849.119 1794.47,839.568 1805.78,841.414 1817.09,844.121 1828.4,847.456 1839.71,856.165 1851.01,870.457 1862.32,870.663 1873.63,869.174 1884.94,864.749 1896.25,851.407 1907.56,842.799 1918.86,839.875 1930.17,838.068 1941.48,845.928 1952.79,860.173 1964.1,860.184 1975.4,854.182 1986.71,843.984 1998.02,821.37 2009.33,794.785 2020.64,769.645 2031.94,742.608 2043.25,730.435 2054.56,712.678 2065.87,660.189 2077.18,592.8 2088.49,493.852 2099.79,385.828 2111.1,295.89 2122.41,242.863 2133.72,222.014 2145.03,228.921 2156.33,239.856 2167.64,276.71 2178.95,316.299 2190.26,353.118 2201.57,400.466 2212.87,428.414 2224.18,437.371 2235.49,423.191 2246.8,386.259 2258.11,337.305 2269.42,298.617 2280.72,269.833 2292.03,273.743 "/>
</svg>
