<?xml version="1.0" encoding="utf-8"?>
<svg xmlns="http://www.w3.org/2000/svg" xmlns:xlink="http://www.w3.org/1999/xlink" width="672" height="480" viewBox="0 0 2688 1920">
<defs>
  <clipPath id="clip900">
    <rect x="0" y="0" width="2688" height="1920"/>
  </clipPath>
</defs>
<path clip-path="url(#clip900)" d="M0 1920 L2688 1920 L2688 -4.26326e-14 L0 -4.26326e-14  Z" fill="#ffffff" fill-rule="evenodd" fill-opacity="1"/>
<defs>
  <clipPath id="clip901">
    <rect x="537" y="0" width="1883" height="1883"/>
  </clipPath>
</defs>
<path clip-path="url(#clip900)" d="M241.557 1734.12 L2640.76 1734.12 L2640.76 47.2441 L241.557 47.2441  Z" fill="#ffffff" fill-rule="evenodd" fill-opacity="1"/>
<defs>
  <clipPath id="clip902">
    <rect x="241" y="47" width="2400" height="1688"/>
  </clipPath>
</defs>
<polyline clip-path="url(#clip902)" style="stroke:#000000; stroke-linecap:round; stroke-linejoin:round; stroke-width:2; stroke-opacity:0.1; fill:none" points="296.954,1734.12 296.954,47.2441 "/>
<polyline clip-path="url(#clip902)" style="stroke:#000000; stroke-linecap:round; stroke-linejoin:round; stroke-width:2; stroke-opacity:0.1; fill:none" points="922.201,1734.12 922.201,47.2441 "/>
<polyline clip-path="url(#clip902)" style="stroke:#000000; stroke-linecap:round; stroke-linejoin:round; stroke-width:2; stroke-opacity:0.1; fill:none" points="1547.45,1734.12 1547.45,47.2441 "/>
<polyline clip-path="url(#clip902)" style="stroke:#000000; stroke-linecap:round; stroke-linejoin:round; stroke-width:2; stroke-opacity:0.1; fill:none" points="2172.7,1734.12 2172.7,47.2441 "/>
<polyline clip-path="url(#clip900)" style="stroke:#000000; stroke-linecap:round; stroke-linejoin:round; stroke-width:4; stroke-opacity:1; fill:none" points="241.557,1734.12 2640.76,1734.12 "/>
<polyline clip-path="url(#clip900)" style="stroke:#000000; stroke-linecap:round; stroke-linejoin:round; stroke-width:4; stroke-opacity:1; fill:none" points="296.954,1734.12 296.954,1715.22 "/>
<polyline clip-path="url(#clip900)" style="stroke:#000000; stroke-linecap:round; stroke-linejoin:round; stroke-width:4; stroke-opacity:1; fill:none" points="922.201,1734.12 922.201,1715.22 "/>
<polyline clip-path="url(#clip900)" style="stroke:#000000; stroke-linecap:round; stroke-linejoin:round; stroke-width:4; stroke-opacity:1; fill:none" points="1547.45,1734.12 1547.45,1715.22 "/>
<polyline clip-path="url(#clip900)" style="stroke:#000000; stroke-linecap:round; stroke-linejoin:round; stroke-width:4; stroke-opacity:1; fill:none" points="2172.7,1734.12 2172.7,1715.22 "/>
<path clip-path="url(#clip900)" d="M296.954 1767.34 Q293.343 1767.34 291.514 1770.9 Q289.709 1774.45 289.709 1781.58 Q289.709 1788.68 291.514 1792.25 Q293.343 1795.79 296.954 1795.79 Q300.588 1795.79 302.394 1792.25 Q304.223 1788.68 304.223 1781.58 Q304.223 1774.45 302.394 1770.9 Q300.588 1767.34 296.954 1767.34 M296.954 1763.64 Q302.764 1763.64 305.82 1768.24 Q308.898 1772.83 308.898 1781.58 Q308.898 1790.3 305.82 1794.91 Q302.764 1799.49 296.954 1799.49 Q291.144 1799.49 288.065 1794.91 Q285.01 1790.3 285.01 1781.58 Q285.01 1772.83 288.065 1768.24 Q291.144 1763.64 296.954 1763.64 Z" fill="#000000" fill-rule="nonzero" fill-opacity="1" /><path clip-path="url(#clip900)" d="M896.901 1764.26 L915.257 1764.26 L915.257 1768.2 L901.183 1768.2 L901.183 1776.67 Q902.201 1776.32 903.22 1776.16 Q904.238 1775.97 905.257 1775.97 Q911.044 1775.97 914.424 1779.15 Q917.803 1782.32 917.803 1787.73 Q917.803 1793.31 914.331 1796.41 Q910.859 1799.49 904.539 1799.49 Q902.363 1799.49 900.095 1799.12 Q897.85 1798.75 895.442 1798.01 L895.442 1793.31 Q897.526 1794.45 899.748 1795 Q901.97 1795.56 904.447 1795.56 Q908.451 1795.56 910.789 1793.45 Q913.127 1791.34 913.127 1787.73 Q913.127 1784.12 910.789 1782.02 Q908.451 1779.91 904.447 1779.91 Q902.572 1779.91 900.697 1780.33 Q898.845 1780.74 896.901 1781.62 L896.901 1764.26 Z" fill="#000000" fill-rule="nonzero" fill-opacity="1" /><path clip-path="url(#clip900)" d="M937.016 1767.34 Q933.405 1767.34 931.576 1770.9 Q929.771 1774.45 929.771 1781.58 Q929.771 1788.68 931.576 1792.25 Q933.405 1795.79 937.016 1795.79 Q940.65 1795.79 942.456 1792.25 Q944.285 1788.68 944.285 1781.58 Q944.285 1774.45 942.456 1770.9 Q940.65 1767.34 937.016 1767.34 M937.016 1763.64 Q942.826 1763.64 945.882 1768.24 Q948.96 1772.83 948.96 1781.58 Q948.96 1790.3 945.882 1794.91 Q942.826 1799.49 937.016 1799.49 Q931.206 1799.49 928.127 1794.91 Q925.072 1790.3 925.072 1781.58 Q925.072 1772.83 928.127 1768.24 Q931.206 1763.64 937.016 1763.64 Z" fill="#000000" fill-rule="nonzero" fill-opacity="1" /><path clip-path="url(#clip900)" d="M1507.06 1794.89 L1514.69 1794.89 L1514.69 1768.52 L1506.38 1770.19 L1506.38 1765.93 L1514.65 1764.26 L1519.32 1764.26 L1519.32 1794.89 L1526.96 1794.89 L1526.96 1798.82 L1507.06 1798.82 L1507.06 1794.89 Z" fill="#000000" fill-rule="nonzero" fill-opacity="1" /><path clip-path="url(#clip900)" d="M1546.41 1767.34 Q1542.8 1767.34 1540.97 1770.9 Q1539.16 1774.45 1539.16 1781.58 Q1539.16 1788.68 1540.97 1792.25 Q1542.8 1795.79 1546.41 1795.79 Q1550.04 1795.79 1551.85 1792.25 Q1553.68 1788.68 1553.68 1781.58 Q1553.68 1774.45 1551.85 1770.9 Q1550.04 1767.34 1546.41 1767.34 M1546.41 1763.64 Q1552.22 1763.64 1555.27 1768.24 Q1558.35 1772.83 1558.35 1781.58 Q1558.35 1790.3 1555.27 1794.91 Q1552.22 1799.49 1546.41 1799.49 Q1540.6 1799.49 1537.52 1794.91 Q1534.46 1790.3 1534.46 1781.58 Q1534.46 1772.83 1537.52 1768.24 Q1540.6 1763.64 1546.41 1763.64 Z" fill="#000000" fill-rule="nonzero" fill-opacity="1" /><path clip-path="url(#clip900)" d="M1576.57 1767.34 Q1572.96 1767.34 1571.13 1770.9 Q1569.32 1774.45 1569.32 1781.58 Q1569.32 1788.68 1571.13 1792.25 Q1572.96 1795.79 1576.57 1795.79 Q1580.2 1795.79 1582.01 1792.25 Q1583.84 1788.68 1583.84 1781.58 Q1583.84 1774.45 1582.01 1770.9 Q1580.2 1767.34 1576.57 1767.34 M1576.57 1763.64 Q1582.38 1763.64 1585.43 1768.24 Q1588.51 1772.83 1588.51 1781.58 Q1588.51 1790.3 1585.43 1794.91 Q1582.38 1799.49 1576.57 1799.49 Q1570.76 1799.49 1567.68 1794.91 Q1564.62 1790.3 1564.62 1781.58 Q1564.62 1772.83 1567.68 1768.24 Q1570.76 1763.64 1576.57 1763.64 Z" fill="#000000" fill-rule="nonzero" fill-opacity="1" /><path clip-path="url(#clip900)" d="M2132.3 1794.89 L2139.94 1794.89 L2139.94 1768.52 L2131.63 1770.19 L2131.63 1765.93 L2139.9 1764.26 L2144.57 1764.26 L2144.57 1794.89 L2152.21 1794.89 L2152.21 1798.82 L2132.3 1798.82 L2132.3 1794.89 Z" fill="#000000" fill-rule="nonzero" fill-opacity="1" /><path clip-path="url(#clip900)" d="M2161.7 1764.26 L2180.06 1764.26 L2180.06 1768.2 L2165.98 1768.2 L2165.98 1776.67 Q2167 1776.32 2168.02 1776.16 Q2169.04 1775.97 2170.06 1775.97 Q2175.84 1775.97 2179.22 1779.15 Q2182.6 1782.32 2182.6 1787.73 Q2182.6 1793.31 2179.13 1796.41 Q2175.66 1799.49 2169.34 1799.49 Q2167.16 1799.49 2164.89 1799.12 Q2162.65 1798.75 2160.24 1798.01 L2160.24 1793.31 Q2162.33 1794.45 2164.55 1795 Q2166.77 1795.56 2169.25 1795.56 Q2173.25 1795.56 2175.59 1793.45 Q2177.93 1791.34 2177.93 1787.73 Q2177.93 1784.12 2175.59 1782.02 Q2173.25 1779.91 2169.25 1779.91 Q2167.37 1779.91 2165.5 1780.33 Q2163.64 1780.74 2161.7 1781.62 L2161.7 1764.26 Z" fill="#000000" fill-rule="nonzero" fill-opacity="1" /><path clip-path="url(#clip900)" d="M2201.82 1767.34 Q2198.2 1767.34 2196.38 1770.9 Q2194.57 1774.45 2194.57 1781.58 Q2194.57 1788.68 2196.38 1792.25 Q2198.2 1795.79 2201.82 1795.79 Q2205.45 1795.79 2207.26 1792.25 Q2209.08 1788.68 2209.08 1781.58 Q2209.08 1774.45 2207.26 1770.9 Q2205.45 1767.34 2201.82 1767.34 M2201.82 1763.64 Q2207.63 1763.64 2210.68 1768.24 Q2213.76 1772.83 2213.76 1781.58 Q2213.76 1790.3 2210.68 1794.91 Q2207.63 1799.49 2201.82 1799.49 Q2196.01 1799.49 2192.93 1794.91 Q2189.87 1790.3 2189.87 1781.58 Q2189.87 1772.83 2192.93 1768.24 Q2196.01 1763.64 2201.82 1763.64 Z" fill="#000000" fill-rule="nonzero" fill-opacity="1" /><path clip-path="url(#clip900)" d="M1371.04 1841.06 L1371.04 1878.02 L1378.8 1878.02 Q1388.64 1878.02 1393.19 1873.56 Q1397.77 1869.11 1397.77 1859.49 Q1397.77 1849.94 1393.19 1845.52 Q1388.64 1841.06 1378.8 1841.06 L1371.04 1841.06 M1364.61 1835.78 L1377.82 1835.78 Q1391.63 1835.78 1398.09 1841.54 Q1404.55 1847.27 1404.55 1859.49 Q1404.55 1871.78 1398.06 1877.54 Q1391.57 1883.3 1377.82 1883.3 L1364.61 1883.3 L1364.61 1835.78 Z" fill="#000000" fill-rule="nonzero" fill-opacity="1" /><path clip-path="url(#clip900)" d="M1430.75 1865.38 Q1423.65 1865.38 1420.91 1867 Q1418.18 1868.63 1418.18 1872.54 Q1418.18 1875.66 1420.21 1877.51 Q1422.28 1879.32 1425.82 1879.32 Q1430.68 1879.32 1433.61 1875.88 Q1436.57 1872.42 1436.57 1866.69 L1436.57 1865.38 L1430.75 1865.38 M1442.43 1862.96 L1442.43 1883.3 L1436.57 1883.3 L1436.57 1877.89 Q1434.57 1881.14 1431.58 1882.7 Q1428.58 1884.22 1424.26 1884.22 Q1418.78 1884.22 1415.53 1881.17 Q1412.32 1878.08 1412.32 1872.92 Q1412.32 1866.91 1416.33 1863.85 Q1420.37 1860.8 1428.36 1860.8 L1436.57 1860.8 L1436.57 1860.23 Q1436.57 1856.18 1433.9 1853.99 Q1431.26 1851.76 1426.45 1851.76 Q1423.4 1851.76 1420.5 1852.49 Q1417.6 1853.22 1414.93 1854.69 L1414.93 1849.28 Q1418.14 1848.03 1421.17 1847.43 Q1424.19 1846.79 1427.06 1846.79 Q1434.79 1846.79 1438.61 1850.8 Q1442.43 1854.81 1442.43 1862.96 Z" fill="#000000" fill-rule="nonzero" fill-opacity="1" /><path clip-path="url(#clip900)" d="M1469.32 1886.61 Q1466.84 1892.98 1464.49 1894.92 Q1462.13 1896.86 1458.18 1896.86 L1453.51 1896.86 L1453.51 1891.96 L1456.94 1891.96 Q1459.36 1891.96 1460.7 1890.81 Q1462.04 1889.67 1463.66 1885.4 L1464.71 1882.73 L1450.29 1847.65 L1456.5 1847.65 L1467.64 1875.53 L1478.78 1847.65 L1484.98 1847.65 L1469.32 1886.61 Z" fill="#000000" fill-rule="nonzero" fill-opacity="1" /><path clip-path="url(#clip900)" d="M1515.79 1848.7 L1515.79 1854.24 Q1513.31 1852.97 1510.64 1852.33 Q1507.96 1851.7 1505.1 1851.7 Q1500.74 1851.7 1498.54 1853.03 Q1496.38 1854.37 1496.38 1857.04 Q1496.38 1859.08 1497.94 1860.26 Q1499.5 1861.4 1504.21 1862.45 L1506.21 1862.9 Q1512.45 1864.24 1515.06 1866.69 Q1517.7 1869.11 1517.7 1873.47 Q1517.7 1878.43 1513.76 1881.33 Q1509.84 1884.22 1502.97 1884.22 Q1500.1 1884.22 1496.98 1883.65 Q1493.9 1883.11 1490.46 1882 L1490.46 1875.95 Q1493.71 1877.64 1496.86 1878.49 Q1500.01 1879.32 1503.09 1879.32 Q1507.23 1879.32 1509.46 1877.92 Q1511.69 1876.49 1511.69 1873.91 Q1511.69 1871.52 1510.07 1870.25 Q1508.47 1868.98 1503.03 1867.8 L1500.99 1867.32 Q1495.55 1866.18 1493.13 1863.82 Q1490.71 1861.43 1490.71 1857.3 Q1490.71 1852.27 1494.28 1849.53 Q1497.84 1846.79 1504.4 1846.79 Q1507.65 1846.79 1510.51 1847.27 Q1513.38 1847.75 1515.79 1848.7 Z" fill="#000000" fill-rule="nonzero" fill-opacity="1" /><polyline clip-path="url(#clip902)" style="stroke:#000000; stroke-linecap:round; stroke-linejoin:round; stroke-width:2; stroke-opacity:0.1; fill:none" points="241.557,1695.24 2640.76,1695.24 "/>
<polyline clip-path="url(#clip902)" style="stroke:#000000; stroke-linecap:round; stroke-linejoin:round; stroke-width:2; stroke-opacity:0.1; fill:none" points="241.557,1340.81 2640.76,1340.81 "/>
<polyline clip-path="url(#clip902)" style="stroke:#000000; stroke-linecap:round; stroke-linejoin:round; stroke-width:2; stroke-opacity:0.1; fill:none" points="241.557,986.377 2640.76,986.377 "/>
<polyline clip-path="url(#clip902)" style="stroke:#000000; stroke-linecap:round; stroke-linejoin:round; stroke-width:2; stroke-opacity:0.1; fill:none" points="241.557,631.947 2640.76,631.947 "/>
<polyline clip-path="url(#clip902)" style="stroke:#000000; stroke-linecap:round; stroke-linejoin:round; stroke-width:2; stroke-opacity:0.1; fill:none" points="241.557,277.517 2640.76,277.517 "/>
<polyline clip-path="url(#clip900)" style="stroke:#000000; stroke-linecap:round; stroke-linejoin:round; stroke-width:4; stroke-opacity:1; fill:none" points="241.557,1734.12 241.557,47.2441 "/>
<polyline clip-path="url(#clip900)" style="stroke:#000000; stroke-linecap:round; stroke-linejoin:round; stroke-width:4; stroke-opacity:1; fill:none" points="241.557,1695.24 260.455,1695.24 "/>
<polyline clip-path="url(#clip900)" style="stroke:#000000; stroke-linecap:round; stroke-linejoin:round; stroke-width:4; stroke-opacity:1; fill:none" points="241.557,1340.81 260.455,1340.81 "/>
<polyline clip-path="url(#clip900)" style="stroke:#000000; stroke-linecap:round; stroke-linejoin:round; stroke-width:4; stroke-opacity:1; fill:none" points="241.557,986.377 260.455,986.377 "/>
<polyline clip-path="url(#clip900)" style="stroke:#000000; stroke-linecap:round; stroke-linejoin:round; stroke-width:4; stroke-opacity:1; fill:none" points="241.557,631.947 260.455,631.947 "/>
<polyline clip-path="url(#clip900)" style="stroke:#000000; stroke-linecap:round; stroke-linejoin:round; stroke-width:4; stroke-opacity:1; fill:none" points="241.557,277.517 260.455,277.517 "/>
<path clip-path="url(#clip900)" d="M189.293 1681.03 Q185.682 1681.03 183.853 1684.6 Q182.047 1688.14 182.047 1695.27 Q182.047 1702.38 183.853 1705.94 Q185.682 1709.48 189.293 1709.48 Q192.927 1709.48 194.733 1705.94 Q196.561 1702.38 196.561 1695.27 Q196.561 1688.14 194.733 1684.6 Q192.927 1681.03 189.293 1681.03 M189.293 1677.33 Q195.103 1677.33 198.158 1681.94 Q201.237 1686.52 201.237 1695.27 Q201.237 1704 198.158 1708.6 Q195.103 1713.19 189.293 1713.19 Q183.483 1713.19 180.404 1708.6 Q177.348 1704 177.348 1695.27 Q177.348 1686.52 180.404 1681.94 Q183.483 1677.33 189.293 1677.33 Z" fill="#000000" fill-rule="nonzero" fill-opacity="1" /><path clip-path="url(#clip900)" d="M122.997 1354.15 L139.316 1354.15 L139.316 1358.09 L117.372 1358.09 L117.372 1354.15 Q120.034 1351.4 124.617 1346.77 Q129.224 1342.11 130.404 1340.77 Q132.65 1338.25 133.529 1336.51 Q134.432 1334.75 134.432 1333.06 Q134.432 1330.31 132.488 1328.57 Q130.566 1326.84 127.464 1326.84 Q125.265 1326.84 122.812 1327.6 Q120.381 1328.36 117.603 1329.92 L117.603 1325.19 Q120.427 1324.06 122.881 1323.48 Q125.335 1322.9 127.372 1322.9 Q132.742 1322.9 135.937 1325.59 Q139.131 1328.27 139.131 1332.76 Q139.131 1334.89 138.321 1336.81 Q137.534 1338.71 135.427 1341.3 Q134.849 1341.98 131.747 1345.19 Q128.645 1348.39 122.997 1354.15 Z" fill="#000000" fill-rule="nonzero" fill-opacity="1" /><path clip-path="url(#clip900)" d="M159.131 1326.6 Q155.52 1326.6 153.691 1330.17 Q151.886 1333.71 151.886 1340.84 Q151.886 1347.95 153.691 1351.51 Q155.52 1355.05 159.131 1355.05 Q162.765 1355.05 164.571 1351.51 Q166.399 1347.95 166.399 1340.84 Q166.399 1333.71 164.571 1330.17 Q162.765 1326.6 159.131 1326.6 M159.131 1322.9 Q164.941 1322.9 167.997 1327.51 Q171.075 1332.09 171.075 1340.84 Q171.075 1349.57 167.997 1354.17 Q164.941 1358.76 159.131 1358.76 Q153.321 1358.76 150.242 1354.17 Q147.186 1349.57 147.186 1340.84 Q147.186 1332.09 150.242 1327.51 Q153.321 1322.9 159.131 1322.9 Z" fill="#000000" fill-rule="nonzero" fill-opacity="1" /><path clip-path="url(#clip900)" d="M189.293 1326.6 Q185.682 1326.6 183.853 1330.17 Q182.047 1333.71 182.047 1340.84 Q182.047 1347.95 183.853 1351.51 Q185.682 1355.05 189.293 1355.05 Q192.927 1355.05 194.733 1351.51 Q196.561 1347.95 196.561 1340.84 Q196.561 1333.71 194.733 1330.17 Q192.927 1326.6 189.293 1326.6 M189.293 1322.9 Q195.103 1322.9 198.158 1327.51 Q201.237 1332.09 201.237 1340.84 Q201.237 1349.57 198.158 1354.17 Q195.103 1358.76 189.293 1358.76 Q183.483 1358.76 180.404 1354.17 Q177.348 1349.57 177.348 1340.84 Q177.348 1332.09 180.404 1327.51 Q183.483 1322.9 189.293 1322.9 Z" fill="#000000" fill-rule="nonzero" fill-opacity="1" /><path clip-path="url(#clip900)" d="M131.816 973.171 L120.011 991.62 L131.816 991.62 L131.816 973.171 M130.589 969.097 L136.469 969.097 L136.469 991.62 L141.399 991.62 L141.399 995.508 L136.469 995.508 L136.469 1003.66 L131.816 1003.66 L131.816 995.508 L116.214 995.508 L116.214 990.995 L130.589 969.097 Z" fill="#000000" fill-rule="nonzero" fill-opacity="1" /><path clip-path="url(#clip900)" d="M159.131 972.175 Q155.52 972.175 153.691 975.74 Q151.886 979.282 151.886 986.411 Q151.886 993.518 153.691 997.083 Q155.52 1000.62 159.131 1000.62 Q162.765 1000.62 164.571 997.083 Q166.399 993.518 166.399 986.411 Q166.399 979.282 164.571 975.74 Q162.765 972.175 159.131 972.175 M159.131 968.472 Q164.941 968.472 167.997 973.078 Q171.075 977.661 171.075 986.411 Q171.075 995.138 167.997 999.745 Q164.941 1004.33 159.131 1004.33 Q153.321 1004.33 150.242 999.745 Q147.186 995.138 147.186 986.411 Q147.186 977.661 150.242 973.078 Q153.321 968.472 159.131 968.472 Z" fill="#000000" fill-rule="nonzero" fill-opacity="1" /><path clip-path="url(#clip900)" d="M189.293 972.175 Q185.682 972.175 183.853 975.74 Q182.047 979.282 182.047 986.411 Q182.047 993.518 183.853 997.083 Q185.682 1000.62 189.293 1000.62 Q192.927 1000.62 194.733 997.083 Q196.561 993.518 196.561 986.411 Q196.561 979.282 194.733 975.74 Q192.927 972.175 189.293 972.175 M189.293 968.472 Q195.103 968.472 198.158 973.078 Q201.237 977.661 201.237 986.411 Q201.237 995.138 198.158 999.745 Q195.103 1004.33 189.293 1004.33 Q183.483 1004.33 180.404 999.745 Q177.348 995.138 177.348 986.411 Q177.348 977.661 180.404 973.078 Q183.483 968.472 189.293 968.472 Z" fill="#000000" fill-rule="nonzero" fill-opacity="1" /><path clip-path="url(#clip900)" d="M129.548 630.083 Q126.4 630.083 124.548 632.236 Q122.719 634.389 122.719 638.139 Q122.719 641.866 124.548 644.042 Q126.4 646.194 129.548 646.194 Q132.696 646.194 134.525 644.042 Q136.376 641.866 136.376 638.139 Q136.376 634.389 134.525 632.236 Q132.696 630.083 129.548 630.083 M138.83 615.431 L138.83 619.69 Q137.071 618.857 135.265 618.417 Q133.483 617.977 131.724 617.977 Q127.094 617.977 124.64 621.102 Q122.21 624.227 121.863 630.546 Q123.228 628.532 125.288 627.468 Q127.349 626.38 129.825 626.38 Q135.034 626.38 138.043 629.551 Q141.075 632.699 141.075 638.139 Q141.075 643.463 137.927 646.681 Q134.779 649.898 129.548 649.898 Q123.552 649.898 120.381 645.315 Q117.21 640.708 117.21 631.982 Q117.21 623.787 121.099 618.926 Q124.988 614.042 131.538 614.042 Q133.298 614.042 135.08 614.389 Q136.886 614.736 138.83 615.431 Z" fill="#000000" fill-rule="nonzero" fill-opacity="1" /><path clip-path="url(#clip900)" d="M159.131 617.746 Q155.52 617.746 153.691 621.31 Q151.886 624.852 151.886 631.982 Q151.886 639.088 153.691 642.653 Q155.52 646.194 159.131 646.194 Q162.765 646.194 164.571 642.653 Q166.399 639.088 166.399 631.982 Q166.399 624.852 164.571 621.31 Q162.765 617.746 159.131 617.746 M159.131 614.042 Q164.941 614.042 167.997 618.648 Q171.075 623.232 171.075 631.982 Q171.075 640.708 167.997 645.315 Q164.941 649.898 159.131 649.898 Q153.321 649.898 150.242 645.315 Q147.186 640.708 147.186 631.982 Q147.186 623.232 150.242 618.648 Q153.321 614.042 159.131 614.042 Z" fill="#000000" fill-rule="nonzero" fill-opacity="1" /><path clip-path="url(#clip900)" d="M189.293 617.746 Q185.682 617.746 183.853 621.31 Q182.047 624.852 182.047 631.982 Q182.047 639.088 183.853 642.653 Q185.682 646.194 189.293 646.194 Q192.927 646.194 194.733 642.653 Q196.561 639.088 196.561 631.982 Q196.561 624.852 194.733 621.31 Q192.927 617.746 189.293 617.746 M189.293 614.042 Q195.103 614.042 198.158 618.648 Q201.237 623.232 201.237 631.982 Q201.237 640.708 198.158 645.315 Q195.103 649.898 189.293 649.898 Q183.483 649.898 180.404 645.315 Q177.348 640.708 177.348 631.982 Q177.348 623.232 180.404 618.648 Q183.483 614.042 189.293 614.042 Z" fill="#000000" fill-rule="nonzero" fill-opacity="1" /><path clip-path="url(#clip900)" d="M128.969 278.385 Q125.636 278.385 123.714 280.168 Q121.816 281.95 121.816 285.075 Q121.816 288.2 123.714 289.982 Q125.636 291.765 128.969 291.765 Q132.302 291.765 134.224 289.982 Q136.145 288.177 136.145 285.075 Q136.145 281.95 134.224 280.168 Q132.325 278.385 128.969 278.385 M124.293 276.394 Q121.284 275.654 119.594 273.594 Q117.927 271.533 117.927 268.57 Q117.927 264.427 120.867 262.019 Q123.83 259.612 128.969 259.612 Q134.131 259.612 137.071 262.019 Q140.011 264.427 140.011 268.57 Q140.011 271.533 138.321 273.594 Q136.654 275.654 133.668 276.394 Q137.048 277.181 138.923 279.473 Q140.821 281.765 140.821 285.075 Q140.821 290.098 137.742 292.783 Q134.687 295.468 128.969 295.468 Q123.251 295.468 120.173 292.783 Q117.117 290.098 117.117 285.075 Q117.117 281.765 119.015 279.473 Q120.913 277.181 124.293 276.394 M122.58 269.01 Q122.58 271.695 124.247 273.2 Q125.937 274.705 128.969 274.705 Q131.978 274.705 133.668 273.2 Q135.381 271.695 135.381 269.01 Q135.381 266.325 133.668 264.82 Q131.978 263.316 128.969 263.316 Q125.937 263.316 124.247 264.82 Q122.58 266.325 122.58 269.01 Z" fill="#000000" fill-rule="nonzero" fill-opacity="1" /><path clip-path="url(#clip900)" d="M159.131 263.316 Q155.52 263.316 153.691 266.881 Q151.886 270.422 151.886 277.552 Q151.886 284.658 153.691 288.223 Q155.52 291.765 159.131 291.765 Q162.765 291.765 164.571 288.223 Q166.399 284.658 166.399 277.552 Q166.399 270.422 164.571 266.881 Q162.765 263.316 159.131 263.316 M159.131 259.612 Q164.941 259.612 167.997 264.219 Q171.075 268.802 171.075 277.552 Q171.075 286.279 167.997 290.885 Q164.941 295.468 159.131 295.468 Q153.321 295.468 150.242 290.885 Q147.186 286.279 147.186 277.552 Q147.186 268.802 150.242 264.219 Q153.321 259.612 159.131 259.612 Z" fill="#000000" fill-rule="nonzero" fill-opacity="1" /><path clip-path="url(#clip900)" d="M189.293 263.316 Q185.682 263.316 183.853 266.881 Q182.047 270.422 182.047 277.552 Q182.047 284.658 183.853 288.223 Q185.682 291.765 189.293 291.765 Q192.927 291.765 194.733 288.223 Q196.561 284.658 196.561 277.552 Q196.561 270.422 194.733 266.881 Q192.927 263.316 189.293 263.316 M189.293 259.612 Q195.103 259.612 198.158 264.219 Q201.237 268.802 201.237 277.552 Q201.237 286.279 198.158 290.885 Q195.103 295.468 189.293 295.468 Q183.483 295.468 180.404 290.885 Q177.348 286.279 177.348 277.552 Q177.348 268.802 180.404 264.219 Q183.483 259.612 189.293 259.612 Z" fill="#000000" fill-rule="nonzero" fill-opacity="1" /><path clip-path="url(#clip900)" d="M39.3585 1114.4 Q40.0587 1112.33 42.3504 1110.39 Q44.642 1108.42 48.6524 1106.45 L61.6384 1099.92 L61.6384 1106.83 L49.4481 1112.91 Q44.6738 1115.26 43.1142 1117.49 Q41.5546 1119.69 41.5546 1123.51 L41.5546 1130.51 L61.6384 1130.51 L61.6384 1136.94 L14.1184 1136.94 L14.1184 1122.42 Q14.1184 1114.28 17.5241 1110.27 Q20.9297 1106.26 27.8047 1106.26 Q32.2925 1106.26 35.2526 1108.36 Q38.2126 1110.42 39.3585 1114.4 M19.402 1130.51 L36.2711 1130.51 L36.2711 1122.42 Q36.2711 1117.78 34.1386 1115.42 Q31.9743 1113.03 27.8047 1113.03 Q23.6352 1113.03 21.5345 1115.42 Q19.402 1117.78 19.402 1122.42 L19.402 1130.51 Z" fill="#000000" fill-rule="nonzero" fill-opacity="1" /><path clip-path="url(#clip900)" d="M42.3504 1064.34 L45.2149 1064.34 L45.2149 1091.26 Q51.2623 1090.88 54.4452 1087.64 Q57.5962 1084.36 57.5962 1078.53 Q57.5962 1075.16 56.7687 1072.01 Q55.9411 1068.82 54.2861 1065.71 L59.8242 1065.71 Q61.161 1068.86 61.8612 1072.17 Q62.5615 1075.48 62.5615 1078.88 Q62.5615 1087.41 57.5962 1092.41 Q52.631 1097.38 44.1646 1097.38 Q35.4117 1097.38 30.2873 1092.66 Q25.1311 1087.92 25.1311 1079.9 Q25.1311 1072.71 29.7781 1068.54 Q34.3932 1064.34 42.3504 1064.34 M40.6316 1070.19 Q35.8255 1070.26 32.9609 1072.9 Q30.0964 1075.51 30.0964 1079.84 Q30.0964 1084.74 32.8654 1087.7 Q35.6345 1090.63 40.6634 1091.07 L40.6316 1070.19 Z" fill="#000000" fill-rule="nonzero" fill-opacity="1" /><path clip-path="url(#clip900)" d="M56.2912 1049.06 L75.1974 1049.06 L75.1974 1054.95 L25.9905 1054.95 L25.9905 1049.06 L31.4013 1049.06 Q28.2185 1047.21 26.6907 1044.41 Q25.1311 1041.58 25.1311 1037.66 Q25.1311 1031.17 30.2873 1027.13 Q35.4436 1023.06 43.8463 1023.06 Q52.249 1023.06 57.4052 1027.13 Q62.5615 1031.17 62.5615 1037.66 Q62.5615 1041.58 61.0337 1044.41 Q59.4741 1047.21 56.2912 1049.06 M43.8463 1029.13 Q37.3851 1029.13 33.7248 1031.81 Q30.0327 1034.45 30.0327 1039.1 Q30.0327 1043.74 33.7248 1046.42 Q37.3851 1049.06 43.8463 1049.06 Q50.3075 1049.06 53.9996 1046.42 Q57.6599 1043.74 57.6599 1039.1 Q57.6599 1034.45 53.9996 1031.81 Q50.3075 1029.13 43.8463 1029.13 Z" fill="#000000" fill-rule="nonzero" fill-opacity="1" /><path clip-path="url(#clip900)" d="M30.0964 999.534 Q30.0964 1004.24 33.7885 1006.98 Q37.4488 1009.72 43.8463 1009.72 Q50.2438 1009.72 53.9359 1007.01 Q57.5962 1004.28 57.5962 999.534 Q57.5962 994.855 53.9041 992.118 Q50.212 989.381 43.8463 989.381 Q37.5124 989.381 33.8203 992.118 Q30.0964 994.855 30.0964 999.534 M25.1311 999.534 Q25.1311 991.895 30.0964 987.535 Q35.0616 983.174 43.8463 983.174 Q52.5991 983.174 57.5962 987.535 Q62.5615 991.895 62.5615 999.534 Q62.5615 1007.2 57.5962 1011.57 Q52.5991 1015.89 43.8463 1015.89 Q35.0616 1015.89 30.0964 1011.57 Q25.1311 1007.2 25.1311 999.534 Z" fill="#000000" fill-rule="nonzero" fill-opacity="1" /><path clip-path="url(#clip900)" d="M31.465 952.81 Q30.8921 953.797 30.6375 954.974 Q30.351 956.12 30.351 957.52 Q30.351 962.486 33.5975 965.159 Q36.8122 967.801 42.8596 967.801 L61.6384 967.801 L61.6384 973.689 L25.9905 973.689 L25.9905 967.801 L31.5287 967.801 Q28.2821 965.955 26.7225 962.995 Q25.1311 960.035 25.1311 955.802 Q25.1311 955.197 25.2266 954.465 Q25.2903 953.733 25.4494 952.842 L31.465 952.81 Z" fill="#000000" fill-rule="nonzero" fill-opacity="1" /><path clip-path="url(#clip900)" d="M15.869 940.874 L25.9905 940.874 L25.9905 928.811 L30.542 928.811 L30.542 940.874 L49.8937 940.874 Q54.2542 940.874 55.4955 939.696 Q56.7368 938.487 56.7368 934.827 L56.7368 928.811 L61.6384 928.811 L61.6384 934.827 Q61.6384 941.606 59.124 944.184 Q56.5777 946.762 49.8937 946.762 L30.542 946.762 L30.542 951.059 L25.9905 951.059 L25.9905 946.762 L15.869 946.762 L15.869 940.874 Z" fill="#000000" fill-rule="nonzero" fill-opacity="1" /><path clip-path="url(#clip900)" d="M42.3504 890.617 L45.2149 890.617 L45.2149 917.544 Q51.2623 917.162 54.4452 913.915 Q57.5962 910.637 57.5962 904.812 Q57.5962 901.439 56.7687 898.288 Q55.9411 895.105 54.2861 891.986 L59.8242 891.986 Q61.161 895.137 61.8612 898.447 Q62.5615 901.757 62.5615 905.163 Q62.5615 913.693 57.5962 918.69 Q52.631 923.655 44.1646 923.655 Q35.4117 923.655 30.2873 918.944 Q25.1311 914.202 25.1311 906.181 Q25.1311 898.988 29.7781 894.818 Q34.3932 890.617 42.3504 890.617 M40.6316 896.473 Q35.8255 896.537 32.9609 899.179 Q30.0964 901.789 30.0964 906.117 Q30.0964 911.019 32.8654 913.979 Q35.6345 916.907 40.6634 917.353 L40.6316 896.473 Z" fill="#000000" fill-rule="nonzero" fill-opacity="1" /><path clip-path="url(#clip900)" d="M31.4013 857.547 L12.1132 857.547 L12.1132 851.691 L61.6384 851.691 L61.6384 857.547 L56.2912 857.547 Q59.4741 859.393 61.0337 862.226 Q62.5615 865.027 62.5615 868.973 Q62.5615 875.435 57.4052 879.509 Q52.249 883.551 43.8463 883.551 Q35.4436 883.551 30.2873 879.509 Q25.1311 875.435 25.1311 868.973 Q25.1311 865.027 26.6907 862.226 Q28.2185 859.393 31.4013 857.547 M43.8463 877.504 Q50.3075 877.504 53.9996 874.862 Q57.6599 872.188 57.6599 867.541 Q57.6599 862.894 53.9996 860.221 Q50.3075 857.547 43.8463 857.547 Q37.3851 857.547 33.7248 860.221 Q30.0327 862.894 30.0327 867.541 Q30.0327 872.188 33.7248 874.862 Q37.3851 877.504 43.8463 877.504 Z" fill="#000000" fill-rule="nonzero" fill-opacity="1" /><path clip-path="url(#clip900)" d="M27.3591 793.253 L32.8336 793.253 Q31.465 795.736 30.7966 798.25 Q30.0964 800.733 30.0964 803.279 Q30.0964 808.977 33.7248 812.128 Q37.3214 815.279 43.8463 815.279 Q50.3711 815.279 53.9996 812.128 Q57.5962 808.977 57.5962 803.279 Q57.5962 800.733 56.9278 798.25 Q56.2276 795.736 54.859 793.253 L60.2698 793.253 Q61.4156 795.704 61.9886 798.346 Q62.5615 800.956 62.5615 803.916 Q62.5615 811.969 57.5007 816.711 Q52.44 821.453 43.8463 821.453 Q35.1253 821.453 30.1282 816.679 Q25.1311 811.873 25.1311 803.534 Q25.1311 800.829 25.704 798.25 Q26.2451 795.672 27.3591 793.253 Z" fill="#000000" fill-rule="nonzero" fill-opacity="1" /><path clip-path="url(#clip900)" d="M43.719 766.868 Q43.719 773.965 45.3422 776.703 Q46.9655 779.44 50.8804 779.44 Q53.9996 779.44 55.8457 777.403 Q57.6599 775.334 57.6599 771.801 Q57.6599 766.931 54.2224 764.003 Q50.7531 761.043 45.0239 761.043 L43.719 761.043 L43.719 766.868 M41.3 755.186 L61.6384 755.186 L61.6384 761.043 L56.2276 761.043 Q59.4741 763.048 61.0337 766.04 Q62.5615 769.032 62.5615 773.361 Q62.5615 778.835 59.5059 782.082 Q56.4186 785.296 51.2623 785.296 Q45.2467 785.296 42.1912 781.286 Q39.1357 777.244 39.1357 769.255 L39.1357 761.043 L38.5628 761.043 Q34.5205 761.043 32.3244 763.717 Q30.0964 766.358 30.0964 771.164 Q30.0964 774.22 30.8284 777.116 Q31.5605 780.013 33.0246 782.686 L27.6137 782.686 Q26.3724 779.472 25.7677 776.448 Q25.1311 773.424 25.1311 770.56 Q25.1311 762.825 29.1415 759.006 Q33.1519 755.186 41.3 755.186 Z" fill="#000000" fill-rule="nonzero" fill-opacity="1" /><path clip-path="url(#clip900)" d="M27.0408 720.398 L32.579 720.398 Q31.3059 722.881 30.6693 725.554 Q30.0327 728.228 30.0327 731.092 Q30.0327 735.453 31.3695 737.649 Q32.7063 739.813 35.3799 739.813 Q37.4169 739.813 38.5946 738.254 Q39.7404 736.694 40.7908 731.983 L41.2364 729.978 Q42.5732 723.74 45.0239 721.13 Q47.4429 718.488 51.8034 718.488 Q56.7687 718.488 59.6651 722.435 Q62.5615 726.35 62.5615 733.225 Q62.5615 736.089 61.9886 739.209 Q61.4475 742.296 60.3335 745.733 L54.2861 745.733 Q55.973 742.487 56.8323 739.336 Q57.6599 736.185 57.6599 733.097 Q57.6599 728.96 56.2594 726.732 Q54.8271 724.504 52.249 724.504 Q49.8619 724.504 48.5887 726.127 Q47.3156 727.718 46.1379 733.161 L45.6605 735.198 Q44.5147 740.641 42.1594 743.06 Q39.7722 745.479 35.6345 745.479 Q30.6056 745.479 27.8684 741.914 Q25.1311 738.349 25.1311 731.793 Q25.1311 728.546 25.6085 725.681 Q26.086 722.817 27.0408 720.398 Z" fill="#000000" fill-rule="nonzero" fill-opacity="1" /><path clip-path="url(#clip900)" d="M42.3504 678.671 L45.2149 678.671 L45.2149 705.598 Q51.2623 705.216 54.4452 701.969 Q57.5962 698.691 57.5962 692.866 Q57.5962 689.492 56.7687 686.341 Q55.9411 683.159 54.2861 680.039 L59.8242 680.039 Q61.161 683.19 61.8612 686.5 Q62.5615 689.811 62.5615 693.216 Q62.5615 701.746 57.5962 706.743 Q52.631 711.709 44.1646 711.709 Q35.4117 711.709 30.2873 706.998 Q25.1311 702.256 25.1311 694.235 Q25.1311 687.042 29.7781 682.872 Q34.3932 678.671 42.3504 678.671 M40.6316 684.527 Q35.8255 684.591 32.9609 687.233 Q30.0964 689.842 30.0964 694.171 Q30.0964 699.073 32.8654 702.033 Q35.6345 704.961 40.6634 705.407 L40.6316 684.527 Z" fill="#000000" fill-rule="nonzero" fill-opacity="1" /><path clip-path="url(#clip900)" d="M27.0408 646.333 L32.579 646.333 Q31.3059 648.816 30.6693 651.489 Q30.0327 654.163 30.0327 657.027 Q30.0327 661.388 31.3695 663.584 Q32.7063 665.748 35.3799 665.748 Q37.4169 665.748 38.5946 664.189 Q39.7404 662.629 40.7908 657.918 L41.2364 655.913 Q42.5732 649.675 45.0239 647.065 Q47.4429 644.423 51.8034 644.423 Q56.7687 644.423 59.6651 648.37 Q62.5615 652.285 62.5615 659.16 Q62.5615 662.024 61.9886 665.144 Q61.4475 668.231 60.3335 671.668 L54.2861 671.668 Q55.973 668.422 56.8323 665.271 Q57.6599 662.12 57.6599 659.032 Q57.6599 654.895 56.2594 652.667 Q54.8271 650.439 52.249 650.439 Q49.8619 650.439 48.5887 652.062 Q47.3156 653.653 46.1379 659.096 L45.6605 661.133 Q44.5147 666.576 42.1594 668.995 Q39.7722 671.414 35.6345 671.414 Q30.6056 671.414 27.8684 667.849 Q25.1311 664.284 25.1311 657.728 Q25.1311 654.481 25.6085 651.616 Q26.086 648.752 27.0408 646.333 Z" fill="#000000" fill-rule="nonzero" fill-opacity="1" /><path clip-path="url(#clip902)" d="M346.974 1677.51 L359.479 1670.43 L371.984 1663.34 L384.489 1650.93 L396.994 1638.53 L409.499 1615.49 L422.003 1592.45 L434.508 1571.19 L447.013 1557.01 L459.518 1551.69 L472.023 1555.24 L484.528 1565.87 L497.033 1583.59 L509.538 1603.08 L522.043 1622.58 L534.548 1638.53 L547.053 1654.48 L559.558 1665.11 L572.063 1672.2 L584.568 1679.29 L597.073 1682.83 L609.578 1684.6 L622.083 1684.6 L634.588 1684.6 L647.093 1684.6 L659.597 1682.83 L672.102 1681.06 L684.607 1681.06 L697.112 1681.06 L709.617 1681.06 L722.122 1681.06 L734.627 1681.06 L747.132 1679.29 L759.637 1677.51 L772.142 1679.29 L784.647 1679.29 L797.152 1681.06 L809.657 1682.83 L822.162 1682.83 L834.667 1681.06 L847.172 1677.51 L859.677 1675.74 L872.182 1670.43 L884.686 1665.11 L897.191 1663.34 L909.696 1659.79 L922.201 1658.02 L934.706 1654.48 L947.211 1652.7 L959.716 1647.39 L972.221 1642.07 L984.726 1638.53 L997.231 1634.98 L1009.74 1629.67 L1022.24 1622.58 L1034.75 1617.26 L1047.25 1613.72 L1059.76 1606.63 L1072.26 1601.31 L1084.77 1597.77 L1097.27 1590.68 L1109.78 1576.5 L1122.28 1560.55 L1134.79 1546.38 L1147.29 1532.2 L1159.8 1525.11 L1172.3 1526.88 L1184.81 1532.2 L1197.31 1535.74 L1209.82 1535.74 L1222.32 1530.43 L1234.82 1516.25 L1247.33 1498.53 L1259.83 1484.35 L1272.34 1473.72 L1284.84 1461.31 L1297.35 1456 L1309.85 1450.68 L1322.36 1443.59 L1334.86 1440.05 L1347.37 1440.05 L1359.87 1438.27 L1372.38 1431.19 L1384.88 1427.64 L1397.39 1420.55 L1409.89 1408.15 L1422.4 1395.74 L1434.9 1393.97 L1447.41 1393.97 L1459.91 1393.97 L1472.42 1399.29 L1484.92 1406.38 L1497.43 1406.38 L1509.93 1406.38 L1522.44 1406.38 L1534.94 1406.38 L1547.45 1402.83 L1559.95 1406.38 L1572.46 1413.46 L1584.96 1422.33 L1597.47 1434.73 L1609.97 1450.68 L1622.48 1470.17 L1634.98 1486.12 L1647.49 1502.07 L1659.99 1518.02 L1672.5 1530.43 L1685 1542.83 L1697.51 1553.46 L1710.01 1562.32 L1722.52 1569.41 L1735.02 1574.73 L1747.53 1576.5 L1760.03 1578.27 L1772.54 1581.82 L1785.04 1587.13 L1797.55 1590.68 L1810.05 1596 L1822.56 1601.31 L1835.06 1603.08 L1847.57 1606.63 L1860.07 1611.95 L1872.58 1619.03 L1885.08 1626.12 L1897.59 1631.44 L1910.09 1634.98 L1922.6 1636.76 L1935.1 1634.98 L1947.61 1636.76 L1960.11 1638.53 L1972.62 1640.3 L1985.12 1643.84 L1997.63 1647.39 L2010.13 1647.39 L2022.64 1647.39 L2035.14 1647.39 L2047.65 1649.16 L2060.15 1652.7 L2072.66 1658.02 L2085.16 1663.34 L2097.67 1665.11 L2110.17 1666.88 L2122.68 1666.88 L2135.18 1665.11 L2147.69 1665.11 L2160.19 1666.88 L2172.7 1666.88 L2185.2 1668.65 L2197.71 1672.2 L2210.21 1673.97 L2222.72 1675.74 L2235.22 1675.74 L2247.73 1673.97 L2260.23 1673.97 L2272.74 1670.43 L2285.24 1665.11 L2297.75 1663.34 L2310.25 1661.57 L2322.76 1659.79 L2335.26 1652.7 L2347.77 1638.53 L2360.27 1611.95 L2372.77 1571.19 L2385.28 1521.57 L2397.78 1477.26 L2410.29 1443.59 L2422.79 1411.69 L2435.3 1378.02 L2447.8 1347.89 L2460.31 1314.22 L2472.81 1280.55 L2485.32 1264.6 L2497.82 1243.34 L2510.33 1207.9 L2522.83 1128.15 L2535.34 995.237 L2547.84 802.073 L2560.35 559.289 L2572.85 321.821 L2572.85 94.9858 L2560.35 353.719 L2547.84 617.77 L2535.34 833.972 L2522.83 981.06 L2510.33 1071.44 L2497.82 1112.2 L2485.32 1135.24 L2472.81 1152.96 L2460.31 1191.95 L2447.8 1229.16 L2435.3 1264.6 L2422.79 1303.59 L2410.29 1340.81 L2397.78 1381.57 L2385.28 1436.5 L2372.77 1496.76 L2360.27 1549.92 L2347.77 1587.13 L2335.26 1606.63 L2322.76 1617.26 L2310.25 1620.81 L2297.75 1622.58 L2285.24 1626.12 L2272.74 1633.21 L2260.23 1638.53 L2247.73 1642.07 L2235.22 1642.07 L2222.72 1642.07 L2210.21 1640.3 L2197.71 1636.76 L2185.2 1633.21 L2172.7 1629.67 L2160.19 1627.89 L2147.69 1626.12 L2135.18 1627.89 L2122.68 1627.89 L2110.17 1629.67 L2097.67 1626.12 L2085.16 1622.58 L2072.66 1615.49 L2060.15 1608.4 L2047.65 1603.08 L2035.14 1601.31 L2022.64 1601.31 L2010.13 1601.31 L1997.63 1601.31 L1985.12 1597.77 L1972.62 1590.68 L1960.11 1587.13 L1947.61 1585.36 L1935.1 1583.59 L1922.6 1585.36 L1910.09 1585.36 L1897.59 1578.27 L1885.08 1571.19 L1872.58 1562.32 L1860.07 1553.46 L1847.57 1544.6 L1835.06 1542.83 L1822.56 1539.29 L1810.05 1532.2 L1797.55 1526.88 L1785.04 1521.57 L1772.54 1514.48 L1760.03 1509.16 L1747.53 1507.39 L1735.02 1503.84 L1722.52 1498.53 L1710.01 1489.67 L1697.51 1479.03 L1685 1466.63 L1672.5 1452.45 L1659.99 1434.73 L1647.49 1415.24 L1634.98 1397.52 L1622.48 1378.02 L1609.97 1354.98 L1597.47 1335.49 L1584.96 1321.31 L1572.46 1310.68 L1559.95 1301.82 L1547.45 1298.27 L1534.94 1301.82 L1522.44 1301.82 L1509.93 1301.82 L1497.43 1303.59 L1484.92 1301.82 L1472.42 1292.96 L1459.91 1287.64 L1447.41 1287.64 L1434.9 1287.64 L1422.4 1289.41 L1409.89 1303.59 L1397.39 1319.54 L1384.88 1326.63 L1372.38 1331.95 L1359.87 1339.03 L1347.37 1342.58 L1334.86 1339.03 L1322.36 1346.12 L1309.85 1353.21 L1297.35 1358.53 L1284.84 1365.62 L1272.34 1379.79 L1259.83 1393.97 L1247.33 1409.92 L1234.82 1432.96 L1222.32 1448.91 L1209.82 1456 L1197.31 1454.22 L1184.81 1452.45 L1172.3 1443.59 L1159.8 1441.82 L1147.29 1450.68 L1134.79 1468.4 L1122.28 1486.12 L1109.78 1505.62 L1097.27 1523.34 L1084.77 1533.97 L1072.26 1537.51 L1059.76 1544.6 L1047.25 1553.46 L1034.75 1558.78 L1022.24 1565.87 L1009.74 1574.73 L997.231 1583.59 L984.726 1587.13 L972.221 1592.45 L959.716 1599.54 L947.211 1606.63 L934.706 1610.17 L922.201 1613.72 L909.696 1619.03 L897.191 1622.58 L884.686 1626.12 L872.182 1633.21 L859.677 1642.07 L847.172 1647.39 L834.667 1650.93 L822.162 1654.48 L809.657 1654.48 L797.152 1650.93 L784.647 1649.16 L772.142 1647.39 L759.637 1647.39 L747.132 1649.16 L734.627 1650.93 L722.122 1652.7 L709.617 1652.7 L697.112 1652.7 L684.607 1652.7 L672.102 1652.7 L659.597 1654.48 L647.093 1656.25 L634.588 1658.02 L622.083 1659.79 L609.578 1658.02 L597.073 1654.48 L584.568 1649.16 L572.063 1638.53 L559.558 1626.12 L547.053 1610.17 L534.548 1588.91 L522.043 1565.87 L509.538 1541.06 L497.033 1514.48 L484.528 1493.21 L472.023 1477.26 L459.518 1471.95 L447.013 1479.03 L434.508 1494.98 L422.003 1523.34 L409.499 1553.46 L396.994 1583.59 L384.489 1601.31 L371.984 1617.26 L359.479 1629.67 L346.974 1638.53  Z" fill="#009af9" fill-rule="evenodd" fill-opacity="0.5"/>
<polyline clip-path="url(#clip902)" style="stroke:#009af9; stroke-linecap:round; stroke-linejoin:round; stroke-width:4; stroke-opacity:1; fill:none" points="346.974,1659.33 359.479,1652.08 371.984,1641.64 384.489,1626.71 396.994,1612.61 409.499,1586.18 422.003,1558.85 434.508,1534.39 447.013,1519.01 459.518,1513.6 472.023,1517.56 484.528,1530.72 497.033,1550.61 509.538,1573.12 522.043,1594.75 534.548,1615.4 547.053,1632.97 559.558,1646.91 572.063,1656.96 584.568,1664.76 597.073,1669.62 609.578,1672.65 622.083,1673.26 634.588,1672.76 647.093,1671.46 659.597,1669.69 672.102,1668.34 684.607,1667.84 697.112,1668.34 709.617,1668.01 722.122,1667.89 734.627,1666.45 747.132,1665.24 759.637,1663.73 772.142,1664.24 784.647,1665.27 797.152,1666.8 809.657,1669.55 822.162,1669.2 834.667,1666.99 847.172,1663.78 859.677,1659.39 872.182,1652.34 884.686,1646.5 897.191,1643.99 909.696,1640.73 922.201,1636.92 934.706,1633.91 947.211,1631.14 959.716,1625.09 972.221,1618.59 984.726,1614.42 997.231,1610.37 1009.74,1602.7 1022.24,1594.98 1034.75,1589.62 1047.25,1584.03 1059.76,1576.69 1072.26,1571.11 1084.77,1567.14 1097.27,1558.33 1109.78,1542.27 1122.28,1524.7 1134.79,1509.29 1147.29,1493.42 1159.8,1484.71 1172.3,1486.27 1184.81,1493.37 1197.31,1496.26 1209.82,1497.63 1222.32,1491.29 1234.82,1475.61 1247.33,1456.01 1259.83,1440.93 1272.34,1427.44 1284.84,1414.07 1297.35,1408.63 1309.85,1403.6 1322.36,1396.27 1334.86,1390.7 1347.37,1392.35 1359.87,1389.85 1372.38,1382.93 1384.88,1377.5 1397.39,1371.53 1409.89,1356.85 1422.4,1344.15 1434.9,1341.93 1447.41,1342.18 1459.91,1341.85 1472.42,1347.12 1484.92,1355.1 1497.43,1356.32 1509.93,1355.2 1522.44,1355.18 1534.94,1355.14 1547.45,1352.44 1559.95,1354.6 1572.46,1363.38 1584.96,1372.26 1597.47,1385.82 1609.97,1404.78 1622.48,1424.7 1634.98,1442.59 1647.49,1459.96 1659.99,1477.15 1672.5,1492.43 1685,1506.03 1697.51,1517.49 1710.01,1527.57 1722.52,1534.5 1735.02,1540.27 1747.53,1542.75 1760.03,1544.8 1772.54,1549.83 1785.04,1555.47 1797.55,1560.04 1810.05,1564.8 1822.56,1570.86 1835.06,1574.21 1847.57,1576.83 1860.07,1583.33 1872.58,1592.45 1885.08,1599.31 1897.59,1606.42 1910.09,1611.39 1922.6,1612.45 1935.1,1610.97 1947.61,1612.22 1960.11,1613.85 1972.62,1616.97 1985.12,1621.96 1997.63,1625.92 2010.13,1626.06 2022.64,1625.28 2035.14,1626.01 2047.65,1626.83 2060.15,1631.13 2072.66,1637.18 2085.16,1643.67 2097.67,1647.01 2110.17,1648.9 2122.68,1648.72 2135.18,1647.41 2147.69,1647.07 2160.19,1648.18 2172.7,1650.13 2185.2,1652.39 2197.71,1655.53 2210.21,1658.54 2222.72,1659.71 2235.22,1659.72 2247.73,1659.16 2260.23,1656.95 2272.74,1652.34 2285.24,1647.5 2297.75,1644.53 2310.25,1642.88 2322.76,1639.78 2335.26,1631.01 2347.77,1614.65 2360.27,1581.79 2372.77,1535.36 2385.28,1480.61 2397.78,1430.92 2410.29,1392.91 2422.79,1358.74 2435.3,1322.99 2447.8,1289.31 2460.31,1254.63 2472.81,1217.8 2485.32,1201.01 2497.82,1179.24 2510.33,1141.24 2522.83,1056.23 2535.34,915.64 2547.84,711.504 2560.35,458.07 2572.85,210.103 "/>
<path clip-path="url(#clip902)" d="M346.974 1677.51 L359.479 1672.2 L371.984 1663.34 L384.489 1650.93 L396.994 1634.98 L409.499 1615.49 L422.003 1594.22 L434.508 1574.73 L447.013 1580.05 L459.518 1596 L472.023 1606.63 L484.528 1620.81 L497.033 1636.76 L509.538 1647.39 L522.043 1659.79 L534.548 1670.43 L547.053 1675.74 L559.558 1679.29 L572.063 1682.83 L584.568 1684.6 L597.073 1682.83 L609.578 1684.6 L622.083 1679.29 L634.588 1679.29 L647.093 1679.29 L659.597 1681.06 L672.102 1681.06 L684.607 1686.38 L697.112 1682.83 L709.617 1679.29 L722.122 1681.06 L734.627 1677.51 L747.132 1679.29 L759.637 1681.06 L772.142 1684.6 L784.647 1682.83 L797.152 1684.6 L809.657 1686.38 L822.162 1679.29 L834.667 1675.74 L847.172 1675.74 L859.677 1670.43 L872.182 1665.11 L884.686 1670.43 L897.191 1670.43 L909.696 1663.34 L922.201 1661.57 L934.706 1659.79 L947.211 1654.48 L959.716 1649.16 L972.221 1647.39 L984.726 1647.39 L997.231 1643.84 L1009.74 1629.67 L1022.24 1624.35 L1034.75 1626.12 L1047.25 1622.58 L1059.76 1615.49 L1072.26 1617.26 L1084.77 1608.4 L1097.27 1588.91 L1109.78 1565.87 L1122.28 1557.01 L1134.79 1557.01 L1147.29 1551.69 L1159.8 1560.55 L1172.3 1572.96 L1184.81 1571.19 L1197.31 1553.46 L1209.82 1551.69 L1222.32 1521.57 L1234.82 1496.76 L1247.33 1494.98 L1259.83 1507.39 L1272.34 1489.67 L1284.84 1484.35 L1297.35 1484.35 L1309.85 1464.86 L1322.36 1456 L1334.86 1471.95 L1347.37 1480.81 L1359.87 1457.77 L1372.38 1441.82 L1384.88 1434.73 L1397.39 1427.64 L1409.89 1404.6 L1422.4 1420.55 L1434.9 1436.5 L1447.41 1427.64 L1459.91 1418.78 L1472.42 1436.5 L1484.92 1431.19 L1497.43 1418.78 L1509.93 1424.1 L1522.44 1422.33 L1534.94 1417.01 L1547.45 1418.78 L1559.95 1434.73 L1572.46 1450.68 L1584.96 1454.22 L1597.47 1475.49 L1609.97 1494.98 L1622.48 1505.62 L1634.98 1514.48 L1647.49 1530.43 L1659.99 1537.51 L1672.5 1549.92 L1685 1562.32 L1697.51 1564.1 L1710.01 1569.41 L1722.52 1571.19 L1735.02 1574.73 L1747.53 1571.19 L1760.03 1580.05 L1772.54 1594.22 L1785.04 1599.54 L1797.55 1596 L1810.05 1599.54 L1822.56 1604.86 L1835.06 1603.08 L1847.57 1610.17 L1860.07 1629.67 L1872.58 1638.53 L1885.08 1634.98 L1897.59 1638.53 L1910.09 1633.21 L1922.6 1624.35 L1935.1 1631.44 L1947.61 1645.62 L1960.11 1643.84 L1972.62 1652.7 L1985.12 1652.7 L1997.63 1647.39 L2010.13 1638.53 L2022.64 1647.39 L2035.14 1650.93 L2047.65 1658.02 L2060.15 1668.65 L2072.66 1668.65 L2085.16 1666.88 L2097.67 1665.11 L2110.17 1663.34 L2122.68 1661.57 L2135.18 1665.11 L2147.69 1668.65 L2160.19 1670.43 L2172.7 1672.2 L2185.2 1672.2 L2197.71 1673.97 L2210.21 1677.51 L2222.72 1675.74 L2235.22 1673.97 L2247.73 1672.2 L2260.23 1668.65 L2272.74 1661.57 L2285.24 1663.34 L2297.75 1665.11 L2310.25 1666.88 L2322.76 1661.57 L2335.26 1638.53 L2347.77 1608.4 L2360.27 1562.32 L2372.77 1532.2 L2385.28 1512.7 L2397.78 1509.16 L2410.29 1493.21 L2422.79 1459.54 L2435.3 1404.6 L2447.8 1381.57 L2460.31 1354.98 L2472.81 1333.72 L2485.32 1369.16 L2497.82 1310.68 L2510.33 1213.21 L2522.83 1037.77 L2535.34 837.516 L2547.84 617.77 L2560.35 484.858 L2572.85 399.795 L2572.85 109.163 L2560.35 203.087 L2547.84 350.175 L2535.34 598.276 L2522.83 828.655 L2510.33 1032.45 L2497.82 1149.41 L2485.32 1218.53 L2472.81 1174.22 L2460.31 1200.81 L2447.8 1232.71 L2435.3 1259.29 L2422.79 1326.63 L2410.29 1369.16 L2397.78 1390.43 L2385.28 1393.97 L2372.77 1418.78 L2360.27 1457.77 L2347.77 1523.34 L2335.26 1565.87 L2322.76 1608.4 L2310.25 1619.03 L2297.75 1617.26 L2285.24 1613.72 L2272.74 1611.95 L2260.23 1619.03 L2247.73 1629.67 L2235.22 1631.44 L2222.72 1634.98 L2210.21 1640.3 L2197.71 1633.21 L2185.2 1627.89 L2172.7 1629.67 L2160.19 1626.12 L2147.69 1622.58 L2135.18 1615.49 L2122.68 1610.17 L2110.17 1610.17 L2097.67 1615.49 L2085.16 1617.26 L2072.66 1622.58 L2060.15 1619.03 L2047.65 1603.08 L2035.14 1592.45 L2022.64 1585.36 L2010.13 1572.96 L1997.63 1583.59 L1985.12 1597.77 L1972.62 1594.22 L1960.11 1583.59 L1947.61 1583.59 L1935.1 1562.32 L1922.6 1553.46 L1910.09 1562.32 L1897.59 1576.5 L1885.08 1567.64 L1872.58 1572.96 L1860.07 1560.55 L1847.57 1533.97 L1835.06 1525.11 L1822.56 1526.88 L1810.05 1521.57 L1797.55 1514.48 L1785.04 1519.79 L1772.54 1510.93 L1760.03 1491.44 L1747.53 1480.81 L1735.02 1484.35 L1722.52 1479.03 L1710.01 1477.26 L1697.51 1471.95 L1685 1468.4 L1672.5 1450.68 L1659.99 1436.5 L1647.49 1424.1 L1634.98 1404.6 L1622.48 1393.97 L1609.97 1379.79 L1597.47 1353.21 L1584.96 1330.17 L1572.46 1323.08 L1559.95 1303.59 L1547.45 1285.87 L1534.94 1282.33 L1522.44 1289.41 L1509.93 1289.41 L1497.43 1282.33 L1484.92 1298.27 L1472.42 1303.59 L1459.91 1284.1 L1447.41 1294.73 L1434.9 1303.59 L1422.4 1284.1 L1409.89 1266.38 L1397.39 1292.96 L1384.88 1303.59 L1372.38 1310.68 L1359.87 1330.17 L1347.37 1358.53 L1334.86 1346.12 L1322.36 1326.63 L1309.85 1339.03 L1297.35 1363.84 L1284.84 1362.07 L1272.34 1369.16 L1259.83 1390.43 L1247.33 1374.48 L1234.82 1379.79 L1222.32 1408.15 L1209.82 1448.91 L1197.31 1450.68 L1184.81 1475.49 L1172.3 1475.49 L1159.8 1459.54 L1147.29 1447.14 L1134.79 1454.22 L1122.28 1456 L1109.78 1466.63 L1097.27 1496.76 L1084.77 1525.11 L1072.26 1537.51 L1059.76 1533.97 L1047.25 1544.6 L1034.75 1551.69 L1022.24 1548.15 L1009.74 1553.46 L997.231 1576.5 L984.726 1581.82 L972.221 1580.05 L959.716 1583.59 L947.211 1592.45 L934.706 1599.54 L922.201 1604.86 L909.696 1606.63 L897.191 1619.03 L884.686 1619.03 L872.182 1608.4 L859.677 1619.03 L847.172 1629.67 L834.667 1627.89 L822.162 1634.98 L809.657 1650.93 L797.152 1649.16 L784.647 1643.84 L772.142 1649.16 L759.637 1640.3 L747.132 1636.76 L734.627 1631.44 L722.122 1640.3 L709.617 1638.53 L697.112 1645.62 L684.607 1649.16 L672.102 1640.3 L659.597 1638.53 L647.093 1636.76 L634.588 1636.76 L622.083 1638.53 L609.578 1649.16 L597.073 1645.62 L584.568 1647.39 L572.063 1642.07 L559.558 1638.53 L547.053 1631.44 L534.548 1620.81 L522.043 1603.08 L509.538 1583.59 L497.033 1567.64 L484.528 1541.06 L472.023 1521.57 L459.518 1505.62 L447.013 1486.12 L434.508 1500.3 L422.003 1525.11 L409.499 1551.69 L396.994 1576.5 L384.489 1599.54 L371.984 1617.26 L359.479 1629.67 L346.974 1636.76  Z" fill="#e26f46" fill-rule="evenodd" fill-opacity="0.5"/>
<polyline clip-path="url(#clip902)" style="stroke:#e26f46; stroke-linecap:round; stroke-linejoin:round; stroke-width:4; stroke-opacity:1; fill:none" points="346.974,1659.28 359.479,1652.14 371.984,1641.61 384.489,1626.37 396.994,1607.61 409.499,1585.06 422.003,1562.07 434.508,1539.47 447.013,1531.74 459.518,1553.39 472.023,1566.27 484.528,1583.37 497.033,1604.83 509.538,1617.76 522.043,1633.36 534.548,1648.23 547.053,1655.74 559.558,1661.21 572.063,1664.79 584.568,1668.22 597.073,1666.69 609.578,1669.86 622.083,1661.53 634.588,1660.97 647.093,1660.44 659.597,1661.73 672.102,1663.2 684.607,1670.05 697.112,1666.69 709.617,1661.25 722.122,1662.63 734.627,1656.93 747.132,1660.18 759.637,1663.79 772.142,1669.35 784.647,1666.04 797.152,1669.6 809.657,1671.48 822.162,1658.97 834.667,1654.5 847.172,1655.75 859.677,1647.84 872.182,1639.48 884.686,1646.97 897.191,1647.41 909.696,1638.1 922.201,1636.04 934.706,1632.2 947.211,1626.38 959.716,1618.46 972.221,1616.4 984.726,1616.71 997.231,1613.36 1009.74,1594.08 1022.24,1589.49 1034.75,1591.64 1047.25,1586.59 1059.76,1577.4 1072.26,1579.55 1084.77,1568.87 1097.27,1545.5 1109.78,1518.75 1122.28,1509.46 1134.79,1507.87 1147.29,1501.47 1159.8,1512.99 1172.3,1526.95 1184.81,1525.45 1197.31,1504.07 1209.82,1501.99 1222.32,1467.71 1234.82,1440.94 1247.33,1437.68 1259.83,1451.87 1272.34,1432.67 1284.84,1425.65 1297.35,1426.58 1309.85,1405.08 1322.36,1393.62 1334.86,1411.26 1347.37,1422.74 1359.87,1396.79 1372.38,1379.66 1384.88,1371.62 1397.39,1362.22 1409.89,1337.96 1422.4,1354 1434.9,1372.62 1447.41,1364.09 1459.91,1353.89 1472.42,1372.22 1484.92,1367.03 1497.43,1353.04 1509.93,1359.33 1522.44,1358.37 1534.94,1351.59 1547.45,1354.59 1559.95,1370.97 1572.46,1388.65 1584.96,1394.51 1597.47,1416.25 1609.97,1439.16 1622.48,1451.78 1634.98,1461.64 1647.49,1479.15 1659.99,1489.19 1672.5,1503.01 1685,1517.2 1697.51,1520.56 1710.01,1525.21 1722.52,1527.07 1735.02,1531.25 1747.53,1528.59 1760.03,1537.43 1772.54,1553.74 1785.04,1561.4 1797.55,1558.36 1810.05,1562.44 1822.56,1567.77 1835.06,1566.22 1847.57,1574.18 1860.07,1596.51 1872.58,1607.53 1885.08,1604.34 1897.59,1609.19 1910.09,1601 1922.6,1592.36 1935.1,1598.13 1947.61,1616.52 1960.11,1616.39 1972.62,1624.95 1985.12,1627.64 1997.63,1618.45 2010.13,1608.96 2022.64,1618.07 2035.14,1623.18 2047.65,1632.06 2060.15,1645.58 2072.66,1647.89 2085.16,1645.07 2097.67,1642.8 2110.17,1639.33 2122.68,1637.98 2135.18,1642.81 2147.69,1647.19 2160.19,1650.8 2172.7,1653.2 2185.2,1652.66 2197.71,1655.57 2210.21,1660.81 2222.72,1658.07 2235.22,1654.33 2247.73,1653.23 2260.23,1646.49 2272.74,1638.86 2285.24,1639.69 2297.75,1642.76 2310.25,1644.85 2322.76,1638.44 2335.26,1604.27 2347.77,1569.16 2360.27,1513.18 2372.77,1478.04 2385.28,1456.49 2397.78,1452.19 2410.29,1434 2422.79,1395.97 2435.3,1334.98 2447.8,1309.99 2460.31,1280.9 2472.81,1257.11 2485.32,1296.84 2497.82,1232.89 2510.33,1125 2522.83,935.79 2535.34,720.644 2547.84,486.844 2560.35,346.564 2572.85,257.494 "/>
<circle clip-path="url(#clip902)" cx="309.459" cy="1681.06" r="5.4" fill="#000000" fill-rule="evenodd" fill-opacity="1" stroke="none"/>
<circle clip-path="url(#clip902)" cx="321.964" cy="1675.74" r="5.4" fill="#000000" fill-rule="evenodd" fill-opacity="1" stroke="none"/>
<circle clip-path="url(#clip902)" cx="334.469" cy="1670.43" r="5.4" fill="#000000" fill-rule="evenodd" fill-opacity="1" stroke="none"/>
<circle clip-path="url(#clip902)" cx="346.974" cy="1658.02" r="5.4" fill="#000000" fill-rule="evenodd" fill-opacity="1" stroke="none"/>
<circle clip-path="url(#clip902)" cx="359.479" cy="1647.39" r="5.4" fill="#000000" fill-rule="evenodd" fill-opacity="1" stroke="none"/>
<circle clip-path="url(#clip902)" cx="371.984" cy="1631.44" r="5.4" fill="#000000" fill-rule="evenodd" fill-opacity="1" stroke="none"/>
<circle clip-path="url(#clip902)" cx="384.489" cy="1615.49" r="5.4" fill="#000000" fill-rule="evenodd" fill-opacity="1" stroke="none"/>
<circle clip-path="url(#clip902)" cx="396.994" cy="1596" r="5.4" fill="#000000" fill-rule="evenodd" fill-opacity="1" stroke="none"/>
<circle clip-path="url(#clip902)" cx="409.499" cy="1581.82" r="5.4" fill="#000000" fill-rule="evenodd" fill-opacity="1" stroke="none"/>
<circle clip-path="url(#clip902)" cx="422.003" cy="1567.64" r="5.4" fill="#000000" fill-rule="evenodd" fill-opacity="1" stroke="none"/>
<circle clip-path="url(#clip902)" cx="434.508" cy="1569.41" r="5.4" fill="#000000" fill-rule="evenodd" fill-opacity="1" stroke="none"/>
<circle clip-path="url(#clip902)" cx="447.013" cy="1571.19" r="5.4" fill="#000000" fill-rule="evenodd" fill-opacity="1" stroke="none"/>
<circle clip-path="url(#clip902)" cx="459.518" cy="1578.27" r="5.4" fill="#000000" fill-rule="evenodd" fill-opacity="1" stroke="none"/>
<circle clip-path="url(#clip902)" cx="472.023" cy="1590.68" r="5.4" fill="#000000" fill-rule="evenodd" fill-opacity="1" stroke="none"/>
<circle clip-path="url(#clip902)" cx="484.528" cy="1608.4" r="5.4" fill="#000000" fill-rule="evenodd" fill-opacity="1" stroke="none"/>
<circle clip-path="url(#clip902)" cx="497.033" cy="1619.03" r="5.4" fill="#000000" fill-rule="evenodd" fill-opacity="1" stroke="none"/>
<circle clip-path="url(#clip902)" cx="509.538" cy="1633.21" r="5.4" fill="#000000" fill-rule="evenodd" fill-opacity="1" stroke="none"/>
<circle clip-path="url(#clip902)" cx="522.043" cy="1647.39" r="5.4" fill="#000000" fill-rule="evenodd" fill-opacity="1" stroke="none"/>
<circle clip-path="url(#clip902)" cx="534.548" cy="1654.48" r="5.4" fill="#000000" fill-rule="evenodd" fill-opacity="1" stroke="none"/>
<circle clip-path="url(#clip902)" cx="547.053" cy="1659.79" r="5.4" fill="#000000" fill-rule="evenodd" fill-opacity="1" stroke="none"/>
<circle clip-path="url(#clip902)" cx="559.558" cy="1663.34" r="5.4" fill="#000000" fill-rule="evenodd" fill-opacity="1" stroke="none"/>
<circle clip-path="url(#clip902)" cx="572.063" cy="1666.88" r="5.4" fill="#000000" fill-rule="evenodd" fill-opacity="1" stroke="none"/>
<circle clip-path="url(#clip902)" cx="584.568" cy="1665.11" r="5.4" fill="#000000" fill-rule="evenodd" fill-opacity="1" stroke="none"/>
<circle clip-path="url(#clip902)" cx="597.073" cy="1668.65" r="5.4" fill="#000000" fill-rule="evenodd" fill-opacity="1" stroke="none"/>
<circle clip-path="url(#clip902)" cx="609.578" cy="1659.79" r="5.4" fill="#000000" fill-rule="evenodd" fill-opacity="1" stroke="none"/>
<circle clip-path="url(#clip902)" cx="622.083" cy="1659.79" r="5.4" fill="#000000" fill-rule="evenodd" fill-opacity="1" stroke="none"/>
<circle clip-path="url(#clip902)" cx="634.588" cy="1659.79" r="5.4" fill="#000000" fill-rule="evenodd" fill-opacity="1" stroke="none"/>
<circle clip-path="url(#clip902)" cx="647.093" cy="1661.57" r="5.4" fill="#000000" fill-rule="evenodd" fill-opacity="1" stroke="none"/>
<circle clip-path="url(#clip902)" cx="659.597" cy="1663.34" r="5.4" fill="#000000" fill-rule="evenodd" fill-opacity="1" stroke="none"/>
<circle clip-path="url(#clip902)" cx="672.102" cy="1670.43" r="5.4" fill="#000000" fill-rule="evenodd" fill-opacity="1" stroke="none"/>
<circle clip-path="url(#clip902)" cx="684.607" cy="1666.88" r="5.4" fill="#000000" fill-rule="evenodd" fill-opacity="1" stroke="none"/>
<circle clip-path="url(#clip902)" cx="697.112" cy="1661.57" r="5.4" fill="#000000" fill-rule="evenodd" fill-opacity="1" stroke="none"/>
<circle clip-path="url(#clip902)" cx="709.617" cy="1663.34" r="5.4" fill="#000000" fill-rule="evenodd" fill-opacity="1" stroke="none"/>
<circle clip-path="url(#clip902)" cx="722.122" cy="1658.02" r="5.4" fill="#000000" fill-rule="evenodd" fill-opacity="1" stroke="none"/>
<circle clip-path="url(#clip902)" cx="734.627" cy="1661.57" r="5.4" fill="#000000" fill-rule="evenodd" fill-opacity="1" stroke="none"/>
<circle clip-path="url(#clip902)" cx="747.132" cy="1665.11" r="5.4" fill="#000000" fill-rule="evenodd" fill-opacity="1" stroke="none"/>
<circle clip-path="url(#clip902)" cx="759.637" cy="1670.43" r="5.4" fill="#000000" fill-rule="evenodd" fill-opacity="1" stroke="none"/>
<circle clip-path="url(#clip902)" cx="772.142" cy="1666.88" r="5.4" fill="#000000" fill-rule="evenodd" fill-opacity="1" stroke="none"/>
<circle clip-path="url(#clip902)" cx="784.647" cy="1670.43" r="5.4" fill="#000000" fill-rule="evenodd" fill-opacity="1" stroke="none"/>
<circle clip-path="url(#clip902)" cx="797.152" cy="1672.2" r="5.4" fill="#000000" fill-rule="evenodd" fill-opacity="1" stroke="none"/>
<circle clip-path="url(#clip902)" cx="809.657" cy="1659.79" r="5.4" fill="#000000" fill-rule="evenodd" fill-opacity="1" stroke="none"/>
<circle clip-path="url(#clip902)" cx="822.162" cy="1656.25" r="5.4" fill="#000000" fill-rule="evenodd" fill-opacity="1" stroke="none"/>
<circle clip-path="url(#clip902)" cx="834.667" cy="1658.02" r="5.4" fill="#000000" fill-rule="evenodd" fill-opacity="1" stroke="none"/>
<circle clip-path="url(#clip902)" cx="847.172" cy="1650.93" r="5.4" fill="#000000" fill-rule="evenodd" fill-opacity="1" stroke="none"/>
<circle clip-path="url(#clip902)" cx="859.677" cy="1643.84" r="5.4" fill="#000000" fill-rule="evenodd" fill-opacity="1" stroke="none"/>
<circle clip-path="url(#clip902)" cx="872.182" cy="1650.93" r="5.4" fill="#000000" fill-rule="evenodd" fill-opacity="1" stroke="none"/>
<circle clip-path="url(#clip902)" cx="884.686" cy="1650.93" r="5.4" fill="#000000" fill-rule="evenodd" fill-opacity="1" stroke="none"/>
<circle clip-path="url(#clip902)" cx="897.191" cy="1642.07" r="5.4" fill="#000000" fill-rule="evenodd" fill-opacity="1" stroke="none"/>
<circle clip-path="url(#clip902)" cx="909.696" cy="1640.3" r="5.4" fill="#000000" fill-rule="evenodd" fill-opacity="1" stroke="none"/>
<circle clip-path="url(#clip902)" cx="922.201" cy="1636.76" r="5.4" fill="#000000" fill-rule="evenodd" fill-opacity="1" stroke="none"/>
<circle clip-path="url(#clip902)" cx="934.706" cy="1631.44" r="5.4" fill="#000000" fill-rule="evenodd" fill-opacity="1" stroke="none"/>
<circle clip-path="url(#clip902)" cx="947.211" cy="1624.35" r="5.4" fill="#000000" fill-rule="evenodd" fill-opacity="1" stroke="none"/>
<circle clip-path="url(#clip902)" cx="959.716" cy="1622.58" r="5.4" fill="#000000" fill-rule="evenodd" fill-opacity="1" stroke="none"/>
<circle clip-path="url(#clip902)" cx="972.221" cy="1622.58" r="5.4" fill="#000000" fill-rule="evenodd" fill-opacity="1" stroke="none"/>
<circle clip-path="url(#clip902)" cx="984.726" cy="1619.03" r="5.4" fill="#000000" fill-rule="evenodd" fill-opacity="1" stroke="none"/>
<circle clip-path="url(#clip902)" cx="997.231" cy="1601.31" r="5.4" fill="#000000" fill-rule="evenodd" fill-opacity="1" stroke="none"/>
<circle clip-path="url(#clip902)" cx="1009.74" cy="1597.77" r="5.4" fill="#000000" fill-rule="evenodd" fill-opacity="1" stroke="none"/>
<circle clip-path="url(#clip902)" cx="1022.24" cy="1599.54" r="5.4" fill="#000000" fill-rule="evenodd" fill-opacity="1" stroke="none"/>
<circle clip-path="url(#clip902)" cx="1034.75" cy="1594.22" r="5.4" fill="#000000" fill-rule="evenodd" fill-opacity="1" stroke="none"/>
<circle clip-path="url(#clip902)" cx="1047.25" cy="1585.36" r="5.4" fill="#000000" fill-rule="evenodd" fill-opacity="1" stroke="none"/>
<circle clip-path="url(#clip902)" cx="1059.76" cy="1587.13" r="5.4" fill="#000000" fill-rule="evenodd" fill-opacity="1" stroke="none"/>
<circle clip-path="url(#clip902)" cx="1072.26" cy="1576.5" r="5.4" fill="#000000" fill-rule="evenodd" fill-opacity="1" stroke="none"/>
<circle clip-path="url(#clip902)" cx="1084.77" cy="1555.24" r="5.4" fill="#000000" fill-rule="evenodd" fill-opacity="1" stroke="none"/>
<circle clip-path="url(#clip902)" cx="1097.27" cy="1532.2" r="5.4" fill="#000000" fill-rule="evenodd" fill-opacity="1" stroke="none"/>
<circle clip-path="url(#clip902)" cx="1109.78" cy="1525.11" r="5.4" fill="#000000" fill-rule="evenodd" fill-opacity="1" stroke="none"/>
<circle clip-path="url(#clip902)" cx="1122.28" cy="1523.34" r="5.4" fill="#000000" fill-rule="evenodd" fill-opacity="1" stroke="none"/>
<circle clip-path="url(#clip902)" cx="1134.79" cy="1516.25" r="5.4" fill="#000000" fill-rule="evenodd" fill-opacity="1" stroke="none"/>
<circle clip-path="url(#clip902)" cx="1147.29" cy="1525.11" r="5.4" fill="#000000" fill-rule="evenodd" fill-opacity="1" stroke="none"/>
<circle clip-path="url(#clip902)" cx="1159.8" cy="1535.74" r="5.4" fill="#000000" fill-rule="evenodd" fill-opacity="1" stroke="none"/>
<circle clip-path="url(#clip902)" cx="1172.3" cy="1532.2" r="5.4" fill="#000000" fill-rule="evenodd" fill-opacity="1" stroke="none"/>
<circle clip-path="url(#clip902)" cx="1184.81" cy="1510.93" r="5.4" fill="#000000" fill-rule="evenodd" fill-opacity="1" stroke="none"/>
<circle clip-path="url(#clip902)" cx="1197.31" cy="1509.16" r="5.4" fill="#000000" fill-rule="evenodd" fill-opacity="1" stroke="none"/>
<circle clip-path="url(#clip902)" cx="1209.82" cy="1477.26" r="5.4" fill="#000000" fill-rule="evenodd" fill-opacity="1" stroke="none"/>
<circle clip-path="url(#clip902)" cx="1222.32" cy="1454.22" r="5.4" fill="#000000" fill-rule="evenodd" fill-opacity="1" stroke="none"/>
<circle clip-path="url(#clip902)" cx="1234.82" cy="1452.45" r="5.4" fill="#000000" fill-rule="evenodd" fill-opacity="1" stroke="none"/>
<circle clip-path="url(#clip902)" cx="1247.33" cy="1464.86" r="5.4" fill="#000000" fill-rule="evenodd" fill-opacity="1" stroke="none"/>
<circle clip-path="url(#clip902)" cx="1259.83" cy="1445.36" r="5.4" fill="#000000" fill-rule="evenodd" fill-opacity="1" stroke="none"/>
<circle clip-path="url(#clip902)" cx="1272.34" cy="1438.27" r="5.4" fill="#000000" fill-rule="evenodd" fill-opacity="1" stroke="none"/>
<circle clip-path="url(#clip902)" cx="1284.84" cy="1438.27" r="5.4" fill="#000000" fill-rule="evenodd" fill-opacity="1" stroke="none"/>
<circle clip-path="url(#clip902)" cx="1297.35" cy="1417.01" r="5.4" fill="#000000" fill-rule="evenodd" fill-opacity="1" stroke="none"/>
<circle clip-path="url(#clip902)" cx="1309.85" cy="1406.38" r="5.4" fill="#000000" fill-rule="evenodd" fill-opacity="1" stroke="none"/>
<circle clip-path="url(#clip902)" cx="1322.36" cy="1422.33" r="5.4" fill="#000000" fill-rule="evenodd" fill-opacity="1" stroke="none"/>
<circle clip-path="url(#clip902)" cx="1334.86" cy="1431.19" r="5.4" fill="#000000" fill-rule="evenodd" fill-opacity="1" stroke="none"/>
<circle clip-path="url(#clip902)" cx="1347.37" cy="1404.6" r="5.4" fill="#000000" fill-rule="evenodd" fill-opacity="1" stroke="none"/>
<circle clip-path="url(#clip902)" cx="1359.87" cy="1388.65" r="5.4" fill="#000000" fill-rule="evenodd" fill-opacity="1" stroke="none"/>
<circle clip-path="url(#clip902)" cx="1372.38" cy="1381.57" r="5.4" fill="#000000" fill-rule="evenodd" fill-opacity="1" stroke="none"/>
<circle clip-path="url(#clip902)" cx="1384.88" cy="1372.7" r="5.4" fill="#000000" fill-rule="evenodd" fill-opacity="1" stroke="none"/>
<circle clip-path="url(#clip902)" cx="1397.39" cy="1349.67" r="5.4" fill="#000000" fill-rule="evenodd" fill-opacity="1" stroke="none"/>
<circle clip-path="url(#clip902)" cx="1409.89" cy="1365.62" r="5.4" fill="#000000" fill-rule="evenodd" fill-opacity="1" stroke="none"/>
<circle clip-path="url(#clip902)" cx="1422.4" cy="1381.57" r="5.4" fill="#000000" fill-rule="evenodd" fill-opacity="1" stroke="none"/>
<circle clip-path="url(#clip902)" cx="1434.9" cy="1370.93" r="5.4" fill="#000000" fill-rule="evenodd" fill-opacity="1" stroke="none"/>
<circle clip-path="url(#clip902)" cx="1447.41" cy="1360.3" r="5.4" fill="#000000" fill-rule="evenodd" fill-opacity="1" stroke="none"/>
<circle clip-path="url(#clip902)" cx="1459.91" cy="1378.02" r="5.4" fill="#000000" fill-rule="evenodd" fill-opacity="1" stroke="none"/>
<circle clip-path="url(#clip902)" cx="1472.42" cy="1370.93" r="5.4" fill="#000000" fill-rule="evenodd" fill-opacity="1" stroke="none"/>
<circle clip-path="url(#clip902)" cx="1484.92" cy="1356.76" r="5.4" fill="#000000" fill-rule="evenodd" fill-opacity="1" stroke="none"/>
<circle clip-path="url(#clip902)" cx="1497.43" cy="1363.84" r="5.4" fill="#000000" fill-rule="evenodd" fill-opacity="1" stroke="none"/>
<circle clip-path="url(#clip902)" cx="1509.93" cy="1362.07" r="5.4" fill="#000000" fill-rule="evenodd" fill-opacity="1" stroke="none"/>
<circle clip-path="url(#clip902)" cx="1522.44" cy="1354.98" r="5.4" fill="#000000" fill-rule="evenodd" fill-opacity="1" stroke="none"/>
<circle clip-path="url(#clip902)" cx="1534.94" cy="1358.53" r="5.4" fill="#000000" fill-rule="evenodd" fill-opacity="1" stroke="none"/>
<circle clip-path="url(#clip902)" cx="1547.45" cy="1374.48" r="5.4" fill="#000000" fill-rule="evenodd" fill-opacity="1" stroke="none"/>
<circle clip-path="url(#clip902)" cx="1559.95" cy="1390.43" r="5.4" fill="#000000" fill-rule="evenodd" fill-opacity="1" stroke="none"/>
<circle clip-path="url(#clip902)" cx="1572.46" cy="1393.97" r="5.4" fill="#000000" fill-rule="evenodd" fill-opacity="1" stroke="none"/>
<circle clip-path="url(#clip902)" cx="1584.96" cy="1415.24" r="5.4" fill="#000000" fill-rule="evenodd" fill-opacity="1" stroke="none"/>
<circle clip-path="url(#clip902)" cx="1597.47" cy="1436.5" r="5.4" fill="#000000" fill-rule="evenodd" fill-opacity="1" stroke="none"/>
<circle clip-path="url(#clip902)" cx="1609.97" cy="1447.14" r="5.4" fill="#000000" fill-rule="evenodd" fill-opacity="1" stroke="none"/>
<circle clip-path="url(#clip902)" cx="1622.48" cy="1456" r="5.4" fill="#000000" fill-rule="evenodd" fill-opacity="1" stroke="none"/>
<circle clip-path="url(#clip902)" cx="1634.98" cy="1473.72" r="5.4" fill="#000000" fill-rule="evenodd" fill-opacity="1" stroke="none"/>
<circle clip-path="url(#clip902)" cx="1647.49" cy="1482.58" r="5.4" fill="#000000" fill-rule="evenodd" fill-opacity="1" stroke="none"/>
<circle clip-path="url(#clip902)" cx="1659.99" cy="1496.76" r="5.4" fill="#000000" fill-rule="evenodd" fill-opacity="1" stroke="none"/>
<circle clip-path="url(#clip902)" cx="1672.5" cy="1510.93" r="5.4" fill="#000000" fill-rule="evenodd" fill-opacity="1" stroke="none"/>
<circle clip-path="url(#clip902)" cx="1685" cy="1512.7" r="5.4" fill="#000000" fill-rule="evenodd" fill-opacity="1" stroke="none"/>
<circle clip-path="url(#clip902)" cx="1697.51" cy="1518.02" r="5.4" fill="#000000" fill-rule="evenodd" fill-opacity="1" stroke="none"/>
<circle clip-path="url(#clip902)" cx="1710.01" cy="1519.79" r="5.4" fill="#000000" fill-rule="evenodd" fill-opacity="1" stroke="none"/>
<circle clip-path="url(#clip902)" cx="1722.52" cy="1525.11" r="5.4" fill="#000000" fill-rule="evenodd" fill-opacity="1" stroke="none"/>
<circle clip-path="url(#clip902)" cx="1735.02" cy="1521.57" r="5.4" fill="#000000" fill-rule="evenodd" fill-opacity="1" stroke="none"/>
<circle clip-path="url(#clip902)" cx="1747.53" cy="1533.97" r="5.4" fill="#000000" fill-rule="evenodd" fill-opacity="1" stroke="none"/>
<circle clip-path="url(#clip902)" cx="1760.03" cy="1551.69" r="5.4" fill="#000000" fill-rule="evenodd" fill-opacity="1" stroke="none"/>
<circle clip-path="url(#clip902)" cx="1772.54" cy="1557.01" r="5.4" fill="#000000" fill-rule="evenodd" fill-opacity="1" stroke="none"/>
<circle clip-path="url(#clip902)" cx="1785.04" cy="1551.69" r="5.4" fill="#000000" fill-rule="evenodd" fill-opacity="1" stroke="none"/>
<circle clip-path="url(#clip902)" cx="1797.55" cy="1558.78" r="5.4" fill="#000000" fill-rule="evenodd" fill-opacity="1" stroke="none"/>
<circle clip-path="url(#clip902)" cx="1810.05" cy="1564.1" r="5.4" fill="#000000" fill-rule="evenodd" fill-opacity="1" stroke="none"/>
<circle clip-path="url(#clip902)" cx="1822.56" cy="1560.55" r="5.4" fill="#000000" fill-rule="evenodd" fill-opacity="1" stroke="none"/>
<circle clip-path="url(#clip902)" cx="1835.06" cy="1572.96" r="5.4" fill="#000000" fill-rule="evenodd" fill-opacity="1" stroke="none"/>
<circle clip-path="url(#clip902)" cx="1847.57" cy="1597.77" r="5.4" fill="#000000" fill-rule="evenodd" fill-opacity="1" stroke="none"/>
<circle clip-path="url(#clip902)" cx="1860.07" cy="1604.86" r="5.4" fill="#000000" fill-rule="evenodd" fill-opacity="1" stroke="none"/>
<circle clip-path="url(#clip902)" cx="1872.58" cy="1597.77" r="5.4" fill="#000000" fill-rule="evenodd" fill-opacity="1" stroke="none"/>
<circle clip-path="url(#clip902)" cx="1885.08" cy="1606.63" r="5.4" fill="#000000" fill-rule="evenodd" fill-opacity="1" stroke="none"/>
<circle clip-path="url(#clip902)" cx="1897.59" cy="1594.22" r="5.4" fill="#000000" fill-rule="evenodd" fill-opacity="1" stroke="none"/>
<circle clip-path="url(#clip902)" cx="1910.09" cy="1587.13" r="5.4" fill="#000000" fill-rule="evenodd" fill-opacity="1" stroke="none"/>
<circle clip-path="url(#clip902)" cx="1922.6" cy="1597.77" r="5.4" fill="#000000" fill-rule="evenodd" fill-opacity="1" stroke="none"/>
<circle clip-path="url(#clip902)" cx="1935.1" cy="1619.03" r="5.4" fill="#000000" fill-rule="evenodd" fill-opacity="1" stroke="none"/>
<circle clip-path="url(#clip902)" cx="1947.61" cy="1611.95" r="5.4" fill="#000000" fill-rule="evenodd" fill-opacity="1" stroke="none"/>
<circle clip-path="url(#clip902)" cx="1960.11" cy="1626.12" r="5.4" fill="#000000" fill-rule="evenodd" fill-opacity="1" stroke="none"/>
<circle clip-path="url(#clip902)" cx="1972.62" cy="1624.35" r="5.4" fill="#000000" fill-rule="evenodd" fill-opacity="1" stroke="none"/>
<circle clip-path="url(#clip902)" cx="1985.12" cy="1613.72" r="5.4" fill="#000000" fill-rule="evenodd" fill-opacity="1" stroke="none"/>
<circle clip-path="url(#clip902)" cx="1997.63" cy="1604.86" r="5.4" fill="#000000" fill-rule="evenodd" fill-opacity="1" stroke="none"/>
<circle clip-path="url(#clip902)" cx="2010.13" cy="1620.81" r="5.4" fill="#000000" fill-rule="evenodd" fill-opacity="1" stroke="none"/>
<circle clip-path="url(#clip902)" cx="2022.64" cy="1622.58" r="5.4" fill="#000000" fill-rule="evenodd" fill-opacity="1" stroke="none"/>
<circle clip-path="url(#clip902)" cx="2035.14" cy="1633.21" r="5.4" fill="#000000" fill-rule="evenodd" fill-opacity="1" stroke="none"/>
<circle clip-path="url(#clip902)" cx="2047.65" cy="1647.39" r="5.4" fill="#000000" fill-rule="evenodd" fill-opacity="1" stroke="none"/>
<circle clip-path="url(#clip902)" cx="2060.15" cy="1645.62" r="5.4" fill="#000000" fill-rule="evenodd" fill-opacity="1" stroke="none"/>
<circle clip-path="url(#clip902)" cx="2072.66" cy="1642.07" r="5.4" fill="#000000" fill-rule="evenodd" fill-opacity="1" stroke="none"/>
<circle clip-path="url(#clip902)" cx="2085.16" cy="1640.3" r="5.4" fill="#000000" fill-rule="evenodd" fill-opacity="1" stroke="none"/>
<circle clip-path="url(#clip902)" cx="2097.67" cy="1636.76" r="5.4" fill="#000000" fill-rule="evenodd" fill-opacity="1" stroke="none"/>
<circle clip-path="url(#clip902)" cx="2110.17" cy="1636.76" r="5.4" fill="#000000" fill-rule="evenodd" fill-opacity="1" stroke="none"/>
<circle clip-path="url(#clip902)" cx="2122.68" cy="1643.84" r="5.4" fill="#000000" fill-rule="evenodd" fill-opacity="1" stroke="none"/>
<circle clip-path="url(#clip902)" cx="2135.18" cy="1647.39" r="5.4" fill="#000000" fill-rule="evenodd" fill-opacity="1" stroke="none"/>
<circle clip-path="url(#clip902)" cx="2147.69" cy="1650.93" r="5.4" fill="#000000" fill-rule="evenodd" fill-opacity="1" stroke="none"/>
<circle clip-path="url(#clip902)" cx="2160.19" cy="1652.7" r="5.4" fill="#000000" fill-rule="evenodd" fill-opacity="1" stroke="none"/>
<circle clip-path="url(#clip902)" cx="2172.7" cy="1650.93" r="5.4" fill="#000000" fill-rule="evenodd" fill-opacity="1" stroke="none"/>
<circle clip-path="url(#clip902)" cx="2185.2" cy="1656.25" r="5.4" fill="#000000" fill-rule="evenodd" fill-opacity="1" stroke="none"/>
<circle clip-path="url(#clip902)" cx="2197.71" cy="1661.57" r="5.4" fill="#000000" fill-rule="evenodd" fill-opacity="1" stroke="none"/>
<circle clip-path="url(#clip902)" cx="2210.21" cy="1654.48" r="5.4" fill="#000000" fill-rule="evenodd" fill-opacity="1" stroke="none"/>
<circle clip-path="url(#clip902)" cx="2222.72" cy="1652.7" r="5.4" fill="#000000" fill-rule="evenodd" fill-opacity="1" stroke="none"/>
<circle clip-path="url(#clip902)" cx="2235.22" cy="1652.7" r="5.4" fill="#000000" fill-rule="evenodd" fill-opacity="1" stroke="none"/>
<circle clip-path="url(#clip902)" cx="2247.73" cy="1643.84" r="5.4" fill="#000000" fill-rule="evenodd" fill-opacity="1" stroke="none"/>
<circle clip-path="url(#clip902)" cx="2260.23" cy="1638.53" r="5.4" fill="#000000" fill-rule="evenodd" fill-opacity="1" stroke="none"/>
<circle clip-path="url(#clip902)" cx="2272.74" cy="1643.84" r="5.4" fill="#000000" fill-rule="evenodd" fill-opacity="1" stroke="none"/>
<circle clip-path="url(#clip902)" cx="2285.24" cy="1645.62" r="5.4" fill="#000000" fill-rule="evenodd" fill-opacity="1" stroke="none"/>
<circle clip-path="url(#clip902)" cx="2297.75" cy="1647.39" r="5.4" fill="#000000" fill-rule="evenodd" fill-opacity="1" stroke="none"/>
<circle clip-path="url(#clip902)" cx="2310.25" cy="1638.53" r="5.4" fill="#000000" fill-rule="evenodd" fill-opacity="1" stroke="none"/>
<circle clip-path="url(#clip902)" cx="2322.76" cy="1608.4" r="5.4" fill="#000000" fill-rule="evenodd" fill-opacity="1" stroke="none"/>
<circle clip-path="url(#clip902)" cx="2335.26" cy="1581.82" r="5.4" fill="#000000" fill-rule="evenodd" fill-opacity="1" stroke="none"/>
<circle clip-path="url(#clip902)" cx="2347.77" cy="1539.29" r="5.4" fill="#000000" fill-rule="evenodd" fill-opacity="1" stroke="none"/>
<circle clip-path="url(#clip902)" cx="2360.27" cy="1514.48" r="5.4" fill="#000000" fill-rule="evenodd" fill-opacity="1" stroke="none"/>
<circle clip-path="url(#clip902)" cx="2372.77" cy="1496.76" r="5.4" fill="#000000" fill-rule="evenodd" fill-opacity="1" stroke="none"/>
<circle clip-path="url(#clip902)" cx="2385.28" cy="1489.67" r="5.4" fill="#000000" fill-rule="evenodd" fill-opacity="1" stroke="none"/>
<circle clip-path="url(#clip902)" cx="2397.78" cy="1470.17" r="5.4" fill="#000000" fill-rule="evenodd" fill-opacity="1" stroke="none"/>
<circle clip-path="url(#clip902)" cx="2410.29" cy="1434.73" r="5.4" fill="#000000" fill-rule="evenodd" fill-opacity="1" stroke="none"/>
<circle clip-path="url(#clip902)" cx="2422.79" cy="1381.57" r="5.4" fill="#000000" fill-rule="evenodd" fill-opacity="1" stroke="none"/>
<circle clip-path="url(#clip902)" cx="2435.3" cy="1358.53" r="5.4" fill="#000000" fill-rule="evenodd" fill-opacity="1" stroke="none"/>
<circle clip-path="url(#clip902)" cx="2447.8" cy="1330.17" r="5.4" fill="#000000" fill-rule="evenodd" fill-opacity="1" stroke="none"/>
<circle clip-path="url(#clip902)" cx="2460.31" cy="1305.36" r="5.4" fill="#000000" fill-rule="evenodd" fill-opacity="1" stroke="none"/>
<circle clip-path="url(#clip902)" cx="2472.81" cy="1333.72" r="5.4" fill="#000000" fill-rule="evenodd" fill-opacity="1" stroke="none"/>
<circle clip-path="url(#clip902)" cx="2485.32" cy="1271.69" r="5.4" fill="#000000" fill-rule="evenodd" fill-opacity="1" stroke="none"/>
<circle clip-path="url(#clip902)" cx="2497.82" cy="1176" r="5.4" fill="#000000" fill-rule="evenodd" fill-opacity="1" stroke="none"/>
<circle clip-path="url(#clip902)" cx="2510.33" cy="1018.28" r="5.4" fill="#000000" fill-rule="evenodd" fill-opacity="1" stroke="none"/>
<circle clip-path="url(#clip902)" cx="2522.83" cy="848.149" r="5.4" fill="#000000" fill-rule="evenodd" fill-opacity="1" stroke="none"/>
<circle clip-path="url(#clip902)" cx="2535.34" cy="665.618" r="5.4" fill="#000000" fill-rule="evenodd" fill-opacity="1" stroke="none"/>
<circle clip-path="url(#clip902)" cx="2547.84" cy="550.428" r="5.4" fill="#000000" fill-rule="evenodd" fill-opacity="1" stroke="none"/>
<circle clip-path="url(#clip902)" cx="2560.35" cy="463.593" r="5.4" fill="#000000" fill-rule="evenodd" fill-opacity="1" stroke="none"/>
<circle clip-path="url(#clip902)" cx="2572.85" cy="442.327" r="5.4" fill="#000000" fill-rule="evenodd" fill-opacity="1" stroke="none"/>
<path clip-path="url(#clip900)" d="M321.53 310.833 L853.764 310.833 L853.764 103.473 L321.53 103.473  Z" fill="#ffffff" fill-rule="evenodd" fill-opacity="1"/>
<polyline clip-path="url(#clip900)" style="stroke:#000000; stroke-linecap:round; stroke-linejoin:round; stroke-width:4; stroke-opacity:1; fill:none" points="321.53,310.833 853.764,310.833 853.764,103.473 321.53,103.473 321.53,310.833 "/>
<polyline clip-path="url(#clip900)" style="stroke:#009af9; stroke-linecap:round; stroke-linejoin:round; stroke-width:4; stroke-opacity:1; fill:none" points="348.188,155.313 508.135,155.313 "/>
<path clip-path="url(#clip900)" d="M539.468 141.876 L539.468 168.751 L545.117 168.751 Q552.269 168.751 555.579 165.51 Q558.913 162.269 558.913 155.278 Q558.913 148.334 555.579 145.116 Q552.269 141.876 545.117 141.876 L539.468 141.876 M534.793 138.033 L544.399 138.033 Q554.445 138.033 559.144 142.223 Q563.843 146.39 563.843 155.278 Q563.843 164.214 559.121 168.403 Q554.399 172.593 544.399 172.593 L534.793 172.593 L534.793 138.033 Z" fill="#000000" fill-rule="nonzero" fill-opacity="1" /><path clip-path="url(#clip900)" d="M593.288 158.565 L593.288 160.649 L573.704 160.649 Q573.982 165.047 576.343 167.362 Q578.727 169.653 582.964 169.653 Q585.417 169.653 587.709 169.052 Q590.024 168.45 592.292 167.246 L592.292 171.274 Q590.001 172.246 587.593 172.755 Q585.186 173.264 582.709 173.264 Q576.505 173.264 572.871 169.653 Q569.26 166.042 569.26 159.885 Q569.26 153.519 572.686 149.792 Q576.135 146.042 581.968 146.042 Q587.2 146.042 590.232 149.422 Q593.288 152.778 593.288 158.565 M589.028 157.315 Q588.982 153.82 587.061 151.737 Q585.163 149.653 582.015 149.653 Q578.45 149.653 576.297 151.667 Q574.167 153.681 573.843 157.339 L589.028 157.315 Z" fill="#000000" fill-rule="nonzero" fill-opacity="1" /><path clip-path="url(#clip900)" d="M613.403 136.575 L613.403 140.117 L609.329 140.117 Q607.038 140.117 606.135 141.042 Q605.255 141.968 605.255 144.376 L605.255 146.667 L612.269 146.667 L612.269 149.978 L605.255 149.978 L605.255 172.593 L600.973 172.593 L600.973 149.978 L596.899 149.978 L596.899 146.667 L600.973 146.667 L600.973 144.862 Q600.973 140.533 602.987 138.566 Q605 136.575 609.375 136.575 L613.403 136.575 Z" fill="#000000" fill-rule="nonzero" fill-opacity="1" /><path clip-path="url(#clip900)" d="M628.75 159.561 Q623.588 159.561 621.598 160.741 Q619.607 161.922 619.607 164.769 Q619.607 167.038 621.088 168.38 Q622.593 169.7 625.162 169.7 Q628.704 169.7 630.834 167.2 Q632.986 164.677 632.986 160.51 L632.986 159.561 L628.75 159.561 M637.246 157.802 L637.246 172.593 L632.986 172.593 L632.986 168.658 Q631.528 171.019 629.352 172.153 Q627.176 173.264 624.028 173.264 Q620.047 173.264 617.686 171.042 Q615.348 168.797 615.348 165.047 Q615.348 160.672 618.264 158.45 Q621.204 156.228 627.014 156.228 L632.986 156.228 L632.986 155.811 Q632.986 152.871 631.042 151.274 Q629.121 149.653 625.625 149.653 Q623.403 149.653 621.297 150.186 Q619.19 150.718 617.246 151.783 L617.246 147.848 Q619.584 146.945 621.783 146.505 Q623.982 146.042 626.065 146.042 Q631.69 146.042 634.468 148.959 Q637.246 151.876 637.246 157.802 Z" fill="#000000" fill-rule="nonzero" fill-opacity="1" /><path clip-path="url(#clip900)" d="M645.579 162.362 L645.579 146.667 L649.838 146.667 L649.838 162.2 Q649.838 165.88 651.273 167.732 Q652.709 169.561 655.579 169.561 Q659.028 169.561 661.019 167.362 Q663.033 165.163 663.033 161.366 L663.033 146.667 L667.292 146.667 L667.292 172.593 L663.033 172.593 L663.033 168.612 Q661.482 170.973 659.422 172.13 Q657.384 173.264 654.676 173.264 Q650.209 173.264 647.894 170.487 Q645.579 167.709 645.579 162.362 M656.297 146.042 L656.297 146.042 Z" fill="#000000" fill-rule="nonzero" fill-opacity="1" /><path clip-path="url(#clip900)" d="M676.065 136.575 L680.324 136.575 L680.324 172.593 L676.065 172.593 L676.065 136.575 Z" fill="#000000" fill-rule="nonzero" fill-opacity="1" /><path clip-path="url(#clip900)" d="M693.449 139.306 L693.449 146.667 L702.222 146.667 L702.222 149.978 L693.449 149.978 L693.449 164.052 Q693.449 167.223 694.306 168.126 Q695.185 169.028 697.847 169.028 L702.222 169.028 L702.222 172.593 L697.847 172.593 Q692.917 172.593 691.042 170.764 Q689.167 168.913 689.167 164.052 L689.167 149.978 L686.042 149.978 L686.042 146.667 L689.167 146.667 L689.167 139.306 L693.449 139.306 Z" fill="#000000" fill-rule="nonzero" fill-opacity="1" /><polyline clip-path="url(#clip900)" style="stroke:#e26f46; stroke-linecap:round; stroke-linejoin:round; stroke-width:4; stroke-opacity:1; fill:none" points="348.188,207.153 508.135,207.153 "/>
<path clip-path="url(#clip900)" d="M534.793 189.873 L541.76 189.873 L550.579 213.392 L559.445 189.873 L566.413 189.873 L566.413 224.433 L561.853 224.433 L561.853 194.086 L552.941 217.79 L548.242 217.79 L539.33 194.086 L539.33 224.433 L534.793 224.433 L534.793 189.873 Z" fill="#000000" fill-rule="nonzero" fill-opacity="1" /><path clip-path="url(#clip900)" d="M587.292 211.401 Q582.13 211.401 580.14 212.581 Q578.149 213.762 578.149 216.609 Q578.149 218.878 579.63 220.22 Q581.135 221.54 583.704 221.54 Q587.246 221.54 589.376 219.04 Q591.528 216.517 591.528 212.35 L591.528 211.401 L587.292 211.401 M595.788 209.642 L595.788 224.433 L591.528 224.433 L591.528 220.498 Q590.07 222.859 587.894 223.993 Q585.718 225.104 582.57 225.104 Q578.589 225.104 576.228 222.882 Q573.89 220.637 573.89 216.887 Q573.89 212.512 576.806 210.29 Q579.746 208.068 585.556 208.068 L591.528 208.068 L591.528 207.651 Q591.528 204.711 589.584 203.114 Q587.663 201.493 584.167 201.493 Q581.945 201.493 579.839 202.026 Q577.732 202.558 575.788 203.623 L575.788 199.688 Q578.126 198.785 580.325 198.345 Q582.524 197.882 584.607 197.882 Q590.232 197.882 593.01 200.799 Q595.788 203.716 595.788 209.642 Z" fill="#000000" fill-rule="nonzero" fill-opacity="1" /><path clip-path="url(#clip900)" d="M619.584 202.489 Q618.866 202.072 618.01 201.887 Q617.176 201.679 616.158 201.679 Q612.547 201.679 610.602 204.04 Q608.681 206.378 608.681 210.776 L608.681 224.433 L604.399 224.433 L604.399 198.507 L608.681 198.507 L608.681 202.535 Q610.024 200.174 612.176 199.04 Q614.329 197.882 617.408 197.882 Q617.848 197.882 618.38 197.952 Q618.912 197.998 619.561 198.114 L619.584 202.489 Z" fill="#000000" fill-rule="nonzero" fill-opacity="1" /><path clip-path="url(#clip900)" d="M640.278 211.169 Q640.278 206.54 638.357 203.993 Q636.459 201.447 633.01 201.447 Q629.584 201.447 627.662 203.993 Q625.764 206.54 625.764 211.169 Q625.764 215.776 627.662 218.322 Q629.584 220.868 633.01 220.868 Q636.459 220.868 638.357 218.322 Q640.278 215.776 640.278 211.169 M644.537 221.216 Q644.537 227.836 641.598 231.054 Q638.658 234.294 632.593 234.294 Q630.348 234.294 628.357 233.947 Q626.366 233.623 624.491 232.929 L624.491 228.785 Q626.366 229.804 628.195 230.29 Q630.024 230.776 631.922 230.776 Q636.111 230.776 638.195 228.577 Q640.278 226.401 640.278 221.98 L640.278 219.873 Q638.959 222.165 636.898 223.299 Q634.838 224.433 631.968 224.433 Q627.199 224.433 624.283 220.799 Q621.366 217.165 621.366 211.169 Q621.366 205.151 624.283 201.517 Q627.199 197.882 631.968 197.882 Q634.838 197.882 636.898 199.017 Q638.959 200.151 640.278 202.443 L640.278 198.507 L644.537 198.507 L644.537 221.216 Z" fill="#000000" fill-rule="nonzero" fill-opacity="1" /><path clip-path="url(#clip900)" d="M653.31 198.507 L657.57 198.507 L657.57 224.433 L653.31 224.433 L653.31 198.507 M653.31 188.415 L657.57 188.415 L657.57 193.808 L653.31 193.808 L653.31 188.415 Z" fill="#000000" fill-rule="nonzero" fill-opacity="1" /><path clip-path="url(#clip900)" d="M688.032 208.785 L688.032 224.433 L683.773 224.433 L683.773 208.924 Q683.773 205.243 682.338 203.415 Q680.903 201.586 678.033 201.586 Q674.583 201.586 672.593 203.785 Q670.602 205.984 670.602 209.78 L670.602 224.433 L666.32 224.433 L666.32 198.507 L670.602 198.507 L670.602 202.535 Q672.13 200.197 674.19 199.04 Q676.273 197.882 678.982 197.882 Q683.449 197.882 685.741 200.66 Q688.032 203.415 688.032 208.785 Z" fill="#000000" fill-rule="nonzero" fill-opacity="1" /><path clip-path="url(#clip900)" d="M708.31 211.401 Q703.148 211.401 701.157 212.581 Q699.167 213.762 699.167 216.609 Q699.167 218.878 700.648 220.22 Q702.153 221.54 704.722 221.54 Q708.264 221.54 710.393 219.04 Q712.546 216.517 712.546 212.35 L712.546 211.401 L708.31 211.401 M716.805 209.642 L716.805 224.433 L712.546 224.433 L712.546 220.498 Q711.088 222.859 708.912 223.993 Q706.736 225.104 703.588 225.104 Q699.606 225.104 697.245 222.882 Q694.907 220.637 694.907 216.887 Q694.907 212.512 697.824 210.29 Q700.764 208.068 706.574 208.068 L712.546 208.068 L712.546 207.651 Q712.546 204.711 710.602 203.114 Q708.68 201.493 705.185 201.493 Q702.963 201.493 700.856 202.026 Q698.75 202.558 696.806 203.623 L696.806 199.688 Q699.144 198.785 701.343 198.345 Q703.542 197.882 705.625 197.882 Q711.25 197.882 714.028 200.799 Q716.805 203.716 716.805 209.642 Z" fill="#000000" fill-rule="nonzero" fill-opacity="1" /><path clip-path="url(#clip900)" d="M725.579 188.415 L729.838 188.415 L729.838 224.433 L725.579 224.433 L725.579 188.415 Z" fill="#000000" fill-rule="nonzero" fill-opacity="1" /><path clip-path="url(#clip900)" d="M738.75 198.507 L743.009 198.507 L743.009 224.433 L738.75 224.433 L738.75 198.507 M738.75 188.415 L743.009 188.415 L743.009 193.808 L738.75 193.808 L738.75 188.415 Z" fill="#000000" fill-rule="nonzero" fill-opacity="1" /><path clip-path="url(#clip900)" d="M768.449 199.271 L768.449 203.299 Q766.643 202.373 764.699 201.91 Q762.754 201.447 760.671 201.447 Q757.5 201.447 755.902 202.419 Q754.328 203.392 754.328 205.336 Q754.328 206.818 755.463 207.674 Q756.597 208.507 760.023 209.271 L761.481 209.595 Q766.018 210.568 767.916 212.35 Q769.838 214.109 769.838 217.28 Q769.838 220.892 766.967 222.998 Q764.12 225.104 759.12 225.104 Q757.037 225.104 754.768 224.688 Q752.523 224.294 750.023 223.484 L750.023 219.086 Q752.384 220.313 754.676 220.938 Q756.967 221.54 759.213 221.54 Q762.222 221.54 763.842 220.521 Q765.463 219.48 765.463 217.605 Q765.463 215.868 764.282 214.943 Q763.125 214.017 759.166 213.16 L757.685 212.813 Q753.727 211.98 751.967 210.267 Q750.208 208.53 750.208 205.521 Q750.208 201.864 752.801 199.873 Q755.393 197.882 760.162 197.882 Q762.523 197.882 764.606 198.23 Q766.689 198.577 768.449 199.271 Z" fill="#000000" fill-rule="nonzero" fill-opacity="1" /><path clip-path="url(#clip900)" d="M798.796 210.405 L798.796 212.489 L779.213 212.489 Q779.49 216.887 781.851 219.202 Q784.236 221.493 788.472 221.493 Q790.925 221.493 793.217 220.892 Q795.532 220.29 797.8 219.086 L797.8 223.114 Q795.509 224.086 793.101 224.595 Q790.694 225.104 788.217 225.104 Q782.013 225.104 778.379 221.493 Q774.768 217.882 774.768 211.725 Q774.768 205.359 778.194 201.632 Q781.643 197.882 787.476 197.882 Q792.708 197.882 795.74 201.262 Q798.796 204.618 798.796 210.405 M794.537 209.155 Q794.49 205.66 792.569 203.577 Q790.671 201.493 787.523 201.493 Q783.958 201.493 781.805 203.507 Q779.675 205.521 779.351 209.179 L794.537 209.155 Z" fill="#000000" fill-rule="nonzero" fill-opacity="1" /><path clip-path="url(#clip900)" d="M822.847 202.443 L822.847 188.415 L827.106 188.415 L827.106 224.433 L822.847 224.433 L822.847 220.544 Q821.504 222.859 819.444 223.993 Q817.407 225.104 814.536 225.104 Q809.837 225.104 806.874 221.355 Q803.935 217.605 803.935 211.493 Q803.935 205.382 806.874 201.632 Q809.837 197.882 814.536 197.882 Q817.407 197.882 819.444 199.017 Q821.504 200.128 822.847 202.443 M808.333 211.493 Q808.333 216.192 810.254 218.878 Q812.198 221.54 815.578 221.54 Q818.958 221.54 820.902 218.878 Q822.847 216.192 822.847 211.493 Q822.847 206.794 820.902 204.132 Q818.958 201.447 815.578 201.447 Q812.198 201.447 810.254 204.132 Q808.333 206.794 808.333 211.493 Z" fill="#000000" fill-rule="nonzero" fill-opacity="1" /><circle clip-path="url(#clip900)" cx="428.161" cy="258.993" r="17.28" fill="#000000" fill-rule="evenodd" fill-opacity="1" stroke="none"/>
<path clip-path="url(#clip900)" d="M550.811 244.884 Q545.718 244.884 542.709 248.681 Q539.723 252.477 539.723 259.028 Q539.723 265.556 542.709 269.352 Q545.718 273.148 550.811 273.148 Q555.904 273.148 558.866 269.352 Q561.853 265.556 561.853 259.028 Q561.853 252.477 558.866 248.681 Q555.904 244.884 550.811 244.884 M550.811 241.088 Q558.079 241.088 562.431 245.972 Q566.783 250.834 566.783 259.028 Q566.783 267.199 562.431 272.083 Q558.079 276.944 550.811 276.944 Q543.519 276.944 539.144 272.083 Q534.793 267.222 534.793 259.028 Q534.793 250.834 539.144 245.972 Q543.519 241.088 550.811 241.088 Z" fill="#000000" fill-rule="nonzero" fill-opacity="1" /><path clip-path="url(#clip900)" d="M592.524 263.333 Q592.524 258.634 590.579 255.972 Q588.658 253.287 585.278 253.287 Q581.899 253.287 579.954 255.972 Q578.033 258.634 578.033 263.333 Q578.033 268.032 579.954 270.718 Q581.899 273.38 585.278 273.38 Q588.658 273.38 590.579 270.718 Q592.524 268.032 592.524 263.333 M578.033 254.283 Q579.376 251.968 581.413 250.857 Q583.473 249.722 586.32 249.722 Q591.042 249.722 593.982 253.472 Q596.945 257.222 596.945 263.333 Q596.945 269.445 593.982 273.195 Q591.042 276.944 586.32 276.944 Q583.473 276.944 581.413 275.833 Q579.376 274.699 578.033 272.384 L578.033 276.273 L573.751 276.273 L573.751 240.255 L578.033 240.255 L578.033 254.283 Z" fill="#000000" fill-rule="nonzero" fill-opacity="1" /><path clip-path="url(#clip900)" d="M620.533 251.111 L620.533 255.139 Q618.727 254.213 616.783 253.75 Q614.838 253.287 612.755 253.287 Q609.584 253.287 607.987 254.259 Q606.413 255.232 606.413 257.176 Q606.413 258.658 607.547 259.514 Q608.681 260.347 612.107 261.111 L613.565 261.435 Q618.102 262.408 620 264.19 Q621.922 265.949 621.922 269.12 Q621.922 272.732 619.051 274.838 Q616.204 276.944 611.204 276.944 Q609.121 276.944 606.852 276.528 Q604.607 276.134 602.107 275.324 L602.107 270.926 Q604.468 272.153 606.76 272.778 Q609.051 273.38 611.297 273.38 Q614.306 273.38 615.926 272.361 Q617.547 271.32 617.547 269.445 Q617.547 267.708 616.366 266.783 Q615.209 265.857 611.25 265 L609.769 264.653 Q605.811 263.82 604.051 262.107 Q602.292 260.37 602.292 257.361 Q602.292 253.704 604.885 251.713 Q607.477 249.722 612.246 249.722 Q614.607 249.722 616.69 250.07 Q618.774 250.417 620.533 251.111 Z" fill="#000000" fill-rule="nonzero" fill-opacity="1" /><path clip-path="url(#clip900)" d="M650.88 262.245 L650.88 264.329 L631.297 264.329 Q631.574 268.727 633.936 271.042 Q636.32 273.333 640.556 273.333 Q643.01 273.333 645.301 272.732 Q647.616 272.13 649.885 270.926 L649.885 274.954 Q647.593 275.926 645.185 276.435 Q642.778 276.944 640.301 276.944 Q634.098 276.944 630.463 273.333 Q626.852 269.722 626.852 263.565 Q626.852 257.199 630.278 253.472 Q633.727 249.722 639.56 249.722 Q644.792 249.722 647.824 253.102 Q650.88 256.458 650.88 262.245 M646.621 260.995 Q646.574 257.5 644.653 255.417 Q642.755 253.333 639.607 253.333 Q636.042 253.333 633.889 255.347 Q631.76 257.361 631.436 261.019 L646.621 260.995 Z" fill="#000000" fill-rule="nonzero" fill-opacity="1" /><path clip-path="url(#clip900)" d="M672.894 254.329 Q672.176 253.912 671.32 253.727 Q670.486 253.519 669.468 253.519 Q665.857 253.519 663.912 255.88 Q661.991 258.218 661.991 262.616 L661.991 276.273 L657.709 276.273 L657.709 250.347 L661.991 250.347 L661.991 254.375 Q663.334 252.014 665.486 250.88 Q667.639 249.722 670.718 249.722 Q671.158 249.722 671.69 249.792 Q672.222 249.838 672.871 249.954 L672.894 254.329 Z" fill="#000000" fill-rule="nonzero" fill-opacity="1" /><path clip-path="url(#clip900)" d="M674.306 250.347 L678.82 250.347 L686.921 272.107 L695.023 250.347 L699.537 250.347 L689.815 276.273 L684.028 276.273 L674.306 250.347 Z" fill="#000000" fill-rule="nonzero" fill-opacity="1" /><path clip-path="url(#clip900)" d="M727.592 262.245 L727.592 264.329 L708.009 264.329 Q708.287 268.727 710.648 271.042 Q713.032 273.333 717.268 273.333 Q719.722 273.333 722.014 272.732 Q724.329 272.13 726.597 270.926 L726.597 274.954 Q724.305 275.926 721.898 276.435 Q719.491 276.944 717.014 276.944 Q710.81 276.944 707.176 273.333 Q703.565 269.722 703.565 263.565 Q703.565 257.199 706.991 253.472 Q710.44 249.722 716.273 249.722 Q721.505 249.722 724.537 253.102 Q727.592 256.458 727.592 262.245 M723.333 260.995 Q723.287 257.5 721.366 255.417 Q719.467 253.333 716.319 253.333 Q712.755 253.333 710.602 255.347 Q708.472 257.361 708.148 261.019 L723.333 260.995 Z" fill="#000000" fill-rule="nonzero" fill-opacity="1" /><path clip-path="url(#clip900)" d="M751.643 254.283 L751.643 240.255 L755.902 240.255 L755.902 276.273 L751.643 276.273 L751.643 272.384 Q750.301 274.699 748.24 275.833 Q746.203 276.944 743.333 276.944 Q738.634 276.944 735.671 273.195 Q732.731 269.445 732.731 263.333 Q732.731 257.222 735.671 253.472 Q738.634 249.722 743.333 249.722 Q746.203 249.722 748.24 250.857 Q750.301 251.968 751.643 254.283 M737.129 263.333 Q737.129 268.032 739.051 270.718 Q740.995 273.38 744.375 273.38 Q747.754 273.38 749.699 270.718 Q751.643 268.032 751.643 263.333 Q751.643 258.634 749.699 255.972 Q747.754 253.287 744.375 253.287 Q740.995 253.287 739.051 255.972 Q737.129 258.634 737.129 263.333 Z" fill="#000000" fill-rule="nonzero" fill-opacity="1" /></svg>
