<?xml version="1.0" encoding="utf-8"?>
<svg xmlns="http://www.w3.org/2000/svg" xmlns:xlink="http://www.w3.org/1999/xlink" width="600" height="300" viewBox="0 0 2400 1200">
<defs>
  <clipPath id="clip740">
    <rect x="0" y="0" width="2400" height="1200"/>
  </clipPath>
</defs>
<path clip-path="url(#clip740)" d="M0 1200 L2400 1200 L2400 0 L0 0  Z" fill="#ffffff" fill-rule="evenodd" fill-opacity="1"/>
<defs>
  <clipPath id="clip741">
    <rect x="480" y="0" width="1681" height="1200"/>
  </clipPath>
</defs>
<path clip-path="url(#clip740)" d="M207.153 1047.7 L2352.76 1047.7 L2352.76 47.2441 L207.153 47.2441  Z" fill="#ffffff" fill-rule="evenodd" fill-opacity="1"/>
<defs>
  <clipPath id="clip742">
    <rect x="207" y="47" width="2147" height="1001"/>
  </clipPath>
</defs>
<polyline clip-path="url(#clip742)" style="stroke:#000000; stroke-linecap:round; stroke-linejoin:round; stroke-width:2; stroke-opacity:0.1; fill:none" points="414.883,1047.7 414.883,47.2441 "/>
<polyline clip-path="url(#clip742)" style="stroke:#000000; stroke-linecap:round; stroke-linejoin:round; stroke-width:2; stroke-opacity:0.1; fill:none" points="1104.68,1047.7 1104.68,47.2441 "/>
<polyline clip-path="url(#clip742)" style="stroke:#000000; stroke-linecap:round; stroke-linejoin:round; stroke-width:2; stroke-opacity:0.1; fill:none" points="1794.47,1047.7 1794.47,47.2441 "/>
<polyline clip-path="url(#clip740)" style="stroke:#000000; stroke-linecap:round; stroke-linejoin:round; stroke-width:4; stroke-opacity:1; fill:none" points="207.153,1047.7 2352.76,1047.7 "/>
<polyline clip-path="url(#clip740)" style="stroke:#000000; stroke-linecap:round; stroke-linejoin:round; stroke-width:4; stroke-opacity:1; fill:none" points="414.883,1047.7 414.883,1028.8 "/>
<polyline clip-path="url(#clip740)" style="stroke:#000000; stroke-linecap:round; stroke-linejoin:round; stroke-width:4; stroke-opacity:1; fill:none" points="1104.68,1047.7 1104.68,1028.8 "/>
<polyline clip-path="url(#clip740)" style="stroke:#000000; stroke-linecap:round; stroke-linejoin:round; stroke-width:4; stroke-opacity:1; fill:none" points="1794.47,1047.7 1794.47,1028.8 "/>
<path clip-path="url(#clip740)" d="M286.678 1106.16 L302.997 1106.16 L302.997 1110.1 L281.053 1110.1 L281.053 1106.16 Q283.715 1103.41 288.298 1098.78 Q292.905 1094.13 294.085 1092.79 Q296.331 1090.26 297.21 1088.53 Q298.113 1086.77 298.113 1085.08 Q298.113 1082.32 296.168 1080.59 Q294.247 1078.85 291.145 1078.85 Q288.946 1078.85 286.493 1079.61 Q284.062 1080.38 281.284 1081.93 L281.284 1077.21 Q284.108 1076.07 286.562 1075.49 Q289.016 1074.91 291.053 1074.91 Q296.423 1074.91 299.618 1077.6 Q302.812 1080.29 302.812 1084.78 Q302.812 1086.91 302.002 1088.83 Q301.215 1090.72 299.108 1093.32 Q298.53 1093.99 295.428 1097.21 Q292.326 1100.4 286.678 1106.16 Z" fill="#000000" fill-rule="nonzero" fill-opacity="1" /><path clip-path="url(#clip740)" d="M322.812 1078.62 Q319.201 1078.62 317.372 1082.18 Q315.567 1085.72 315.567 1092.85 Q315.567 1099.96 317.372 1103.53 Q319.201 1107.07 322.812 1107.07 Q326.446 1107.07 328.252 1103.53 Q330.08 1099.96 330.08 1092.85 Q330.08 1085.72 328.252 1082.18 Q326.446 1078.62 322.812 1078.62 M322.812 1074.91 Q328.622 1074.91 331.678 1079.52 Q334.756 1084.1 334.756 1092.85 Q334.756 1101.58 331.678 1106.19 Q328.622 1110.77 322.812 1110.77 Q317.002 1110.77 313.923 1106.19 Q310.867 1101.58 310.867 1092.85 Q310.867 1084.1 313.923 1079.52 Q317.002 1074.91 322.812 1074.91 Z" fill="#000000" fill-rule="nonzero" fill-opacity="1" /><path clip-path="url(#clip740)" d="M347.002 1106.16 L363.321 1106.16 L363.321 1110.1 L341.377 1110.1 L341.377 1106.16 Q344.039 1103.41 348.622 1098.78 Q353.228 1094.13 354.409 1092.79 Q356.654 1090.26 357.534 1088.53 Q358.437 1086.77 358.437 1085.08 Q358.437 1082.32 356.492 1080.59 Q354.571 1078.85 351.469 1078.85 Q349.27 1078.85 346.816 1079.61 Q344.386 1080.38 341.608 1081.93 L341.608 1077.21 Q344.432 1076.07 346.886 1075.49 Q349.339 1074.91 351.377 1074.91 Q356.747 1074.91 359.941 1077.6 Q363.136 1080.29 363.136 1084.78 Q363.136 1086.91 362.326 1088.83 Q361.539 1090.72 359.432 1093.32 Q358.853 1093.99 355.752 1097.21 Q352.65 1100.4 347.002 1106.16 Z" fill="#000000" fill-rule="nonzero" fill-opacity="1" /><path clip-path="url(#clip740)" d="M373.946 1106.16 L381.585 1106.16 L381.585 1079.8 L373.275 1081.47 L373.275 1077.21 L381.538 1075.54 L386.214 1075.54 L386.214 1106.16 L393.853 1106.16 L393.853 1110.1 L373.946 1110.1 L373.946 1106.16 Z" fill="#000000" fill-rule="nonzero" fill-opacity="1" /><path clip-path="url(#clip740)" d="M400.543 1095.22 L413.02 1095.22 L413.02 1099.01 L400.543 1099.01 L400.543 1095.22 Z" fill="#000000" fill-rule="nonzero" fill-opacity="1" /><path clip-path="url(#clip740)" d="M430.404 1078.62 Q426.793 1078.62 424.964 1082.18 Q423.159 1085.72 423.159 1092.85 Q423.159 1099.96 424.964 1103.53 Q426.793 1107.07 430.404 1107.07 Q434.038 1107.07 435.844 1103.53 Q437.672 1099.96 437.672 1092.85 Q437.672 1085.72 435.844 1082.18 Q434.038 1078.62 430.404 1078.62 M430.404 1074.91 Q436.214 1074.91 439.27 1079.52 Q442.348 1084.1 442.348 1092.85 Q442.348 1101.58 439.27 1106.19 Q436.214 1110.77 430.404 1110.77 Q424.594 1110.77 421.515 1106.19 Q418.459 1101.58 418.459 1092.85 Q418.459 1084.1 421.515 1079.52 Q424.594 1074.91 430.404 1074.91 Z" fill="#000000" fill-rule="nonzero" fill-opacity="1" /><path clip-path="url(#clip740)" d="M450.705 1109.38 L450.705 1105.12 Q452.464 1105.96 454.269 1106.4 Q456.075 1106.84 457.811 1106.84 Q462.441 1106.84 464.871 1103.73 Q467.325 1100.61 467.672 1094.27 Q466.33 1096.26 464.269 1097.32 Q462.209 1098.39 459.709 1098.39 Q454.524 1098.39 451.492 1095.26 Q448.482 1092.11 448.482 1086.67 Q448.482 1081.35 451.631 1078.13 Q454.779 1074.91 460.01 1074.91 Q466.006 1074.91 469.154 1079.52 Q472.325 1084.1 472.325 1092.85 Q472.325 1101.03 468.436 1105.91 Q464.57 1110.77 458.019 1110.77 Q456.26 1110.77 454.455 1110.42 Q452.649 1110.08 450.705 1109.38 M460.01 1094.73 Q463.158 1094.73 464.987 1092.58 Q466.839 1090.42 466.839 1086.67 Q466.839 1082.95 464.987 1080.79 Q463.158 1078.62 460.01 1078.62 Q456.862 1078.62 455.01 1080.79 Q453.182 1082.95 453.182 1086.67 Q453.182 1090.42 455.01 1092.58 Q456.862 1094.73 460.01 1094.73 Z" fill="#000000" fill-rule="nonzero" fill-opacity="1" /><path clip-path="url(#clip740)" d="M477.973 1095.22 L490.45 1095.22 L490.45 1099.01 L477.973 1099.01 L477.973 1095.22 Z" fill="#000000" fill-rule="nonzero" fill-opacity="1" /><path clip-path="url(#clip740)" d="M507.834 1078.62 Q504.223 1078.62 502.394 1082.18 Q500.589 1085.72 500.589 1092.85 Q500.589 1099.96 502.394 1103.53 Q504.223 1107.07 507.834 1107.07 Q511.468 1107.07 513.274 1103.53 Q515.102 1099.96 515.102 1092.85 Q515.102 1085.72 513.274 1082.18 Q511.468 1078.62 507.834 1078.62 M507.834 1074.91 Q513.644 1074.91 516.7 1079.52 Q519.778 1084.1 519.778 1092.85 Q519.778 1101.58 516.7 1106.19 Q513.644 1110.77 507.834 1110.77 Q502.024 1110.77 498.945 1106.19 Q495.89 1101.58 495.89 1092.85 Q495.89 1084.1 498.945 1079.52 Q502.024 1074.91 507.834 1074.91 Z" fill="#000000" fill-rule="nonzero" fill-opacity="1" /><path clip-path="url(#clip740)" d="M528.806 1106.16 L536.445 1106.16 L536.445 1079.8 L528.135 1081.47 L528.135 1077.21 L536.399 1075.54 L541.075 1075.54 L541.075 1106.16 L548.713 1106.16 L548.713 1110.1 L528.806 1110.1 L528.806 1106.16 Z" fill="#000000" fill-rule="nonzero" fill-opacity="1" /><path clip-path="url(#clip740)" d="M976.473 1106.16 L992.793 1106.16 L992.793 1110.1 L970.848 1110.1 L970.848 1106.16 Q973.51 1103.41 978.094 1098.78 Q982.7 1094.13 983.881 1092.79 Q986.126 1090.26 987.006 1088.53 Q987.908 1086.77 987.908 1085.08 Q987.908 1082.32 985.964 1080.59 Q984.043 1078.85 980.941 1078.85 Q978.742 1078.85 976.288 1079.61 Q973.857 1080.38 971.08 1081.93 L971.08 1077.21 Q973.904 1076.07 976.357 1075.49 Q978.811 1074.91 980.848 1074.91 Q986.219 1074.91 989.413 1077.6 Q992.607 1080.29 992.607 1084.78 Q992.607 1086.91 991.797 1088.83 Q991.01 1090.72 988.904 1093.32 Q988.325 1093.99 985.223 1097.21 Q982.121 1100.4 976.473 1106.16 Z" fill="#000000" fill-rule="nonzero" fill-opacity="1" /><path clip-path="url(#clip740)" d="M1012.61 1078.62 Q1009 1078.62 1007.17 1082.18 Q1005.36 1085.72 1005.36 1092.85 Q1005.36 1099.96 1007.17 1103.53 Q1009 1107.07 1012.61 1107.07 Q1016.24 1107.07 1018.05 1103.53 Q1019.88 1099.96 1019.88 1092.85 Q1019.88 1085.72 1018.05 1082.18 Q1016.24 1078.62 1012.61 1078.62 M1012.61 1074.91 Q1018.42 1074.91 1021.47 1079.52 Q1024.55 1084.1 1024.55 1092.85 Q1024.55 1101.58 1021.47 1106.19 Q1018.42 1110.77 1012.61 1110.77 Q1006.8 1110.77 1003.72 1106.19 Q1000.66 1101.58 1000.66 1092.85 Q1000.66 1084.1 1003.72 1079.52 Q1006.8 1074.91 1012.61 1074.91 Z" fill="#000000" fill-rule="nonzero" fill-opacity="1" /><path clip-path="url(#clip740)" d="M1036.8 1106.16 L1053.12 1106.16 L1053.12 1110.1 L1031.17 1110.1 L1031.17 1106.16 Q1033.83 1103.41 1038.42 1098.78 Q1043.02 1094.13 1044.2 1092.79 Q1046.45 1090.26 1047.33 1088.53 Q1048.23 1086.77 1048.23 1085.08 Q1048.23 1082.32 1046.29 1080.59 Q1044.37 1078.85 1041.26 1078.85 Q1039.07 1078.85 1036.61 1079.61 Q1034.18 1080.38 1031.4 1081.93 L1031.4 1077.21 Q1034.23 1076.07 1036.68 1075.49 Q1039.13 1074.91 1041.17 1074.91 Q1046.54 1074.91 1049.74 1077.6 Q1052.93 1080.29 1052.93 1084.78 Q1052.93 1086.91 1052.12 1088.83 Q1051.33 1090.72 1049.23 1093.32 Q1048.65 1093.99 1045.55 1097.21 Q1042.45 1100.4 1036.8 1106.16 Z" fill="#000000" fill-rule="nonzero" fill-opacity="1" /><path clip-path="url(#clip740)" d="M1063.74 1106.16 L1071.38 1106.16 L1071.38 1079.8 L1063.07 1081.47 L1063.07 1077.21 L1071.33 1075.54 L1076.01 1075.54 L1076.01 1106.16 L1083.65 1106.16 L1083.65 1110.1 L1063.74 1110.1 L1063.74 1106.16 Z" fill="#000000" fill-rule="nonzero" fill-opacity="1" /><path clip-path="url(#clip740)" d="M1090.34 1095.22 L1102.82 1095.22 L1102.82 1099.01 L1090.34 1099.01 L1090.34 1095.22 Z" fill="#000000" fill-rule="nonzero" fill-opacity="1" /><path clip-path="url(#clip740)" d="M1111.01 1106.16 L1118.65 1106.16 L1118.65 1079.8 L1110.34 1081.47 L1110.34 1077.21 L1118.6 1075.54 L1123.28 1075.54 L1123.28 1106.16 L1130.92 1106.16 L1130.92 1110.1 L1111.01 1110.1 L1111.01 1106.16 Z" fill="#000000" fill-rule="nonzero" fill-opacity="1" /><path clip-path="url(#clip740)" d="M1141.17 1106.16 L1148.81 1106.16 L1148.81 1079.8 L1140.5 1081.47 L1140.5 1077.21 L1148.76 1075.54 L1153.44 1075.54 L1153.44 1106.16 L1161.08 1106.16 L1161.08 1110.1 L1141.17 1110.1 L1141.17 1106.16 Z" fill="#000000" fill-rule="nonzero" fill-opacity="1" /><path clip-path="url(#clip740)" d="M1167.77 1095.22 L1180.25 1095.22 L1180.25 1099.01 L1167.77 1099.01 L1167.77 1095.22 Z" fill="#000000" fill-rule="nonzero" fill-opacity="1" /><path clip-path="url(#clip740)" d="M1197.63 1078.62 Q1194.02 1078.62 1192.19 1082.18 Q1190.38 1085.72 1190.38 1092.85 Q1190.38 1099.96 1192.19 1103.53 Q1194.02 1107.07 1197.63 1107.07 Q1201.26 1107.07 1203.07 1103.53 Q1204.9 1099.96 1204.9 1092.85 Q1204.9 1085.72 1203.07 1082.18 Q1201.26 1078.62 1197.63 1078.62 M1197.63 1074.91 Q1203.44 1074.91 1206.5 1079.52 Q1209.57 1084.1 1209.57 1092.85 Q1209.57 1101.58 1206.5 1106.19 Q1203.44 1110.77 1197.63 1110.77 Q1191.82 1110.77 1188.74 1106.19 Q1185.69 1101.58 1185.69 1092.85 Q1185.69 1084.1 1188.74 1079.52 Q1191.82 1074.91 1197.63 1074.91 Z" fill="#000000" fill-rule="nonzero" fill-opacity="1" /><path clip-path="url(#clip740)" d="M1218.6 1106.16 L1226.24 1106.16 L1226.24 1079.8 L1217.93 1081.47 L1217.93 1077.21 L1226.19 1075.54 L1230.87 1075.54 L1230.87 1106.16 L1238.51 1106.16 L1238.51 1110.1 L1218.6 1110.1 L1218.6 1106.16 Z" fill="#000000" fill-rule="nonzero" fill-opacity="1" /><path clip-path="url(#clip740)" d="M1666.27 1106.16 L1682.59 1106.16 L1682.59 1110.1 L1660.64 1110.1 L1660.64 1106.16 Q1663.31 1103.41 1667.89 1098.78 Q1672.5 1094.13 1673.68 1092.79 Q1675.92 1090.26 1676.8 1088.53 Q1677.7 1086.77 1677.7 1085.08 Q1677.7 1082.32 1675.76 1080.59 Q1673.84 1078.85 1670.74 1078.85 Q1668.54 1078.85 1666.08 1079.61 Q1663.65 1080.38 1660.88 1081.93 L1660.88 1077.21 Q1663.7 1076.07 1666.15 1075.49 Q1668.61 1074.91 1670.64 1074.91 Q1676.01 1074.91 1679.21 1077.6 Q1682.4 1080.29 1682.4 1084.78 Q1682.4 1086.91 1681.59 1088.83 Q1680.81 1090.72 1678.7 1093.32 Q1678.12 1093.99 1675.02 1097.21 Q1671.92 1100.4 1666.27 1106.16 Z" fill="#000000" fill-rule="nonzero" fill-opacity="1" /><path clip-path="url(#clip740)" d="M1702.4 1078.62 Q1698.79 1078.62 1696.96 1082.18 Q1695.16 1085.72 1695.16 1092.85 Q1695.16 1099.96 1696.96 1103.53 Q1698.79 1107.07 1702.4 1107.07 Q1706.04 1107.07 1707.84 1103.53 Q1709.67 1099.96 1709.67 1092.85 Q1709.67 1085.72 1707.84 1082.18 Q1706.04 1078.62 1702.4 1078.62 M1702.4 1074.91 Q1708.21 1074.91 1711.27 1079.52 Q1714.35 1084.1 1714.35 1092.85 Q1714.35 1101.58 1711.27 1106.19 Q1708.21 1110.77 1702.4 1110.77 Q1696.59 1110.77 1693.51 1106.19 Q1690.46 1101.58 1690.46 1092.85 Q1690.46 1084.1 1693.51 1079.52 Q1696.59 1074.91 1702.4 1074.91 Z" fill="#000000" fill-rule="nonzero" fill-opacity="1" /><path clip-path="url(#clip740)" d="M1726.59 1106.16 L1742.91 1106.16 L1742.91 1110.1 L1720.97 1110.1 L1720.97 1106.16 Q1723.63 1103.41 1728.21 1098.78 Q1732.82 1094.13 1734 1092.79 Q1736.25 1090.26 1737.12 1088.53 Q1738.03 1086.77 1738.03 1085.08 Q1738.03 1082.32 1736.08 1080.59 Q1734.16 1078.85 1731.06 1078.85 Q1728.86 1078.85 1726.41 1079.61 Q1723.98 1080.38 1721.2 1081.93 L1721.2 1077.21 Q1724.02 1076.07 1726.48 1075.49 Q1728.93 1074.91 1730.97 1074.91 Q1736.34 1074.91 1739.53 1077.6 Q1742.73 1080.29 1742.73 1084.78 Q1742.73 1086.91 1741.92 1088.83 Q1741.13 1090.72 1739.02 1093.32 Q1738.44 1093.99 1735.34 1097.21 Q1732.24 1100.4 1726.59 1106.16 Z" fill="#000000" fill-rule="nonzero" fill-opacity="1" /><path clip-path="url(#clip740)" d="M1756.75 1106.16 L1773.07 1106.16 L1773.07 1110.1 L1751.13 1110.1 L1751.13 1106.16 Q1753.79 1103.41 1758.37 1098.78 Q1762.98 1094.13 1764.16 1092.79 Q1766.41 1090.26 1767.29 1088.53 Q1768.19 1086.77 1768.19 1085.08 Q1768.19 1082.32 1766.24 1080.59 Q1764.32 1078.85 1761.22 1078.85 Q1759.02 1078.85 1756.57 1079.61 Q1754.14 1080.38 1751.36 1081.93 L1751.36 1077.21 Q1754.18 1076.07 1756.64 1075.49 Q1759.09 1074.91 1761.13 1074.91 Q1766.5 1074.91 1769.69 1077.6 Q1772.89 1080.29 1772.89 1084.78 Q1772.89 1086.91 1772.08 1088.83 Q1771.29 1090.72 1769.18 1093.32 Q1768.61 1093.99 1765.5 1097.21 Q1762.4 1100.4 1756.75 1106.16 Z" fill="#000000" fill-rule="nonzero" fill-opacity="1" /><path clip-path="url(#clip740)" d="M1780.13 1095.22 L1792.61 1095.22 L1792.61 1099.01 L1780.13 1099.01 L1780.13 1095.22 Z" fill="#000000" fill-rule="nonzero" fill-opacity="1" /><path clip-path="url(#clip740)" d="M1809.99 1078.62 Q1806.38 1078.62 1804.55 1082.18 Q1802.75 1085.72 1802.75 1092.85 Q1802.75 1099.96 1804.55 1103.53 Q1806.38 1107.07 1809.99 1107.07 Q1813.63 1107.07 1815.43 1103.53 Q1817.26 1099.96 1817.26 1092.85 Q1817.26 1085.72 1815.43 1082.18 Q1813.63 1078.62 1809.99 1078.62 M1809.99 1074.91 Q1815.8 1074.91 1818.86 1079.52 Q1821.94 1084.1 1821.94 1092.85 Q1821.94 1101.58 1818.86 1106.19 Q1815.8 1110.77 1809.99 1110.77 Q1804.18 1110.77 1801.11 1106.19 Q1798.05 1101.58 1798.05 1092.85 Q1798.05 1084.1 1801.11 1079.52 Q1804.18 1074.91 1809.99 1074.91 Z" fill="#000000" fill-rule="nonzero" fill-opacity="1" /><path clip-path="url(#clip740)" d="M1830.97 1106.16 L1838.61 1106.16 L1838.61 1079.8 L1830.3 1081.47 L1830.3 1077.21 L1838.56 1075.54 L1843.24 1075.54 L1843.24 1106.16 L1850.87 1106.16 L1850.87 1110.1 L1830.97 1110.1 L1830.97 1106.16 Z" fill="#000000" fill-rule="nonzero" fill-opacity="1" /><path clip-path="url(#clip740)" d="M1857.56 1095.22 L1870.04 1095.22 L1870.04 1099.01 L1857.56 1099.01 L1857.56 1095.22 Z" fill="#000000" fill-rule="nonzero" fill-opacity="1" /><path clip-path="url(#clip740)" d="M1887.42 1078.62 Q1883.81 1078.62 1881.99 1082.18 Q1880.18 1085.72 1880.18 1092.85 Q1880.18 1099.96 1881.99 1103.53 Q1883.81 1107.07 1887.42 1107.07 Q1891.06 1107.07 1892.86 1103.53 Q1894.69 1099.96 1894.69 1092.85 Q1894.69 1085.72 1892.86 1082.18 Q1891.06 1078.62 1887.42 1078.62 M1887.42 1074.91 Q1893.23 1074.91 1896.29 1079.52 Q1899.37 1084.1 1899.37 1092.85 Q1899.37 1101.58 1896.29 1106.19 Q1893.23 1110.77 1887.42 1110.77 Q1881.61 1110.77 1878.54 1106.19 Q1875.48 1101.58 1875.48 1092.85 Q1875.48 1084.1 1878.54 1079.52 Q1881.61 1074.91 1887.42 1074.91 Z" fill="#000000" fill-rule="nonzero" fill-opacity="1" /><path clip-path="url(#clip740)" d="M1908.4 1106.16 L1916.04 1106.16 L1916.04 1079.8 L1907.73 1081.47 L1907.73 1077.21 L1915.99 1075.54 L1920.67 1075.54 L1920.67 1106.16 L1928.3 1106.16 L1928.3 1110.1 L1908.4 1110.1 L1908.4 1106.16 Z" fill="#000000" fill-rule="nonzero" fill-opacity="1" /><path clip-path="url(#clip740)" d="M1213.42 1150.33 L1213.42 1187.28 L1221.18 1187.28 Q1231.02 1187.28 1235.57 1182.82 Q1240.15 1178.37 1240.15 1168.76 Q1240.15 1159.21 1235.57 1154.78 Q1231.02 1150.33 1221.18 1150.33 L1213.42 1150.33 M1206.99 1145.04 L1220.2 1145.04 Q1234.01 1145.04 1240.47 1150.8 Q1246.93 1156.53 1246.93 1168.76 Q1246.93 1181.04 1240.44 1186.8 Q1233.95 1192.56 1220.2 1192.56 L1206.99 1192.56 L1206.99 1145.04 Z" fill="#000000" fill-rule="nonzero" fill-opacity="1" /><path clip-path="url(#clip740)" d="M1273.13 1174.64 Q1266.03 1174.64 1263.29 1176.27 Q1260.55 1177.89 1260.55 1181.81 Q1260.55 1184.92 1262.59 1186.77 Q1264.66 1188.59 1268.19 1188.59 Q1273.06 1188.59 1275.99 1185.15 Q1278.95 1181.68 1278.95 1175.95 L1278.95 1174.64 L1273.13 1174.64 M1284.81 1172.23 L1284.81 1192.56 L1278.95 1192.56 L1278.95 1187.15 Q1276.95 1190.4 1273.95 1191.96 Q1270.96 1193.49 1266.63 1193.49 Q1261.16 1193.49 1257.91 1190.43 Q1254.7 1187.34 1254.7 1182.19 Q1254.7 1176.17 1258.71 1173.12 Q1262.75 1170.06 1270.74 1170.06 L1278.95 1170.06 L1278.95 1169.49 Q1278.95 1165.45 1276.28 1163.25 Q1273.64 1161.02 1268.83 1161.02 Q1265.77 1161.02 1262.88 1161.75 Q1259.98 1162.49 1257.31 1163.95 L1257.31 1158.54 Q1260.52 1157.3 1263.55 1156.69 Q1266.57 1156.06 1269.44 1156.06 Q1277.17 1156.06 1280.99 1160.07 Q1284.81 1164.08 1284.81 1172.23 Z" fill="#000000" fill-rule="nonzero" fill-opacity="1" /><path clip-path="url(#clip740)" d="M1302.66 1146.79 L1302.66 1156.92 L1314.73 1156.92 L1314.73 1161.47 L1302.66 1161.47 L1302.66 1180.82 Q1302.66 1185.18 1303.84 1186.42 Q1305.05 1187.66 1308.71 1187.66 L1314.73 1187.66 L1314.73 1192.56 L1308.71 1192.56 Q1301.93 1192.56 1299.35 1190.05 Q1296.78 1187.5 1296.78 1180.82 L1296.78 1161.47 L1292.48 1161.47 L1292.48 1156.92 L1296.78 1156.92 L1296.78 1146.79 L1302.66 1146.79 Z" fill="#000000" fill-rule="nonzero" fill-opacity="1" /><path clip-path="url(#clip740)" d="M1352.92 1173.28 L1352.92 1176.14 L1325.99 1176.14 Q1326.38 1182.19 1329.62 1185.37 Q1332.9 1188.52 1338.73 1188.52 Q1342.1 1188.52 1345.25 1187.69 Q1348.43 1186.87 1351.55 1185.21 L1351.55 1190.75 Q1348.4 1192.09 1345.09 1192.79 Q1341.78 1193.49 1338.38 1193.49 Q1329.85 1193.49 1324.85 1188.52 Q1319.88 1183.56 1319.88 1175.09 Q1319.88 1166.34 1324.59 1161.21 Q1329.34 1156.06 1337.36 1156.06 Q1344.55 1156.06 1348.72 1160.7 Q1352.92 1165.32 1352.92 1173.28 M1347.06 1171.56 Q1347 1166.75 1344.36 1163.89 Q1341.75 1161.02 1337.42 1161.02 Q1332.52 1161.02 1329.56 1163.79 Q1326.63 1166.56 1326.19 1171.59 L1347.06 1171.56 Z" fill="#000000" fill-rule="nonzero" fill-opacity="1" /><polyline clip-path="url(#clip742)" style="stroke:#000000; stroke-linecap:round; stroke-linejoin:round; stroke-width:2; stroke-opacity:0.1; fill:none" points="207.153,941.044 2352.76,941.044 "/>
<polyline clip-path="url(#clip742)" style="stroke:#000000; stroke-linecap:round; stroke-linejoin:round; stroke-width:2; stroke-opacity:0.1; fill:none" points="207.153,754.517 2352.76,754.517 "/>
<polyline clip-path="url(#clip742)" style="stroke:#000000; stroke-linecap:round; stroke-linejoin:round; stroke-width:2; stroke-opacity:0.1; fill:none" points="207.153,567.99 2352.76,567.99 "/>
<polyline clip-path="url(#clip742)" style="stroke:#000000; stroke-linecap:round; stroke-linejoin:round; stroke-width:2; stroke-opacity:0.1; fill:none" points="207.153,381.463 2352.76,381.463 "/>
<polyline clip-path="url(#clip742)" style="stroke:#000000; stroke-linecap:round; stroke-linejoin:round; stroke-width:2; stroke-opacity:0.1; fill:none" points="207.153,194.936 2352.76,194.936 "/>
<polyline clip-path="url(#clip740)" style="stroke:#000000; stroke-linecap:round; stroke-linejoin:round; stroke-width:4; stroke-opacity:1; fill:none" points="207.153,1047.7 207.153,47.2441 "/>
<polyline clip-path="url(#clip740)" style="stroke:#000000; stroke-linecap:round; stroke-linejoin:round; stroke-width:4; stroke-opacity:1; fill:none" points="207.153,941.044 226.051,941.044 "/>
<polyline clip-path="url(#clip740)" style="stroke:#000000; stroke-linecap:round; stroke-linejoin:round; stroke-width:4; stroke-opacity:1; fill:none" points="207.153,754.517 226.051,754.517 "/>
<polyline clip-path="url(#clip740)" style="stroke:#000000; stroke-linecap:round; stroke-linejoin:round; stroke-width:4; stroke-opacity:1; fill:none" points="207.153,567.99 226.051,567.99 "/>
<polyline clip-path="url(#clip740)" style="stroke:#000000; stroke-linecap:round; stroke-linejoin:round; stroke-width:4; stroke-opacity:1; fill:none" points="207.153,381.463 226.051,381.463 "/>
<polyline clip-path="url(#clip740)" style="stroke:#000000; stroke-linecap:round; stroke-linejoin:round; stroke-width:4; stroke-opacity:1; fill:none" points="207.153,194.936 226.051,194.936 "/>
<path clip-path="url(#clip740)" d="M114.973 926.842 Q111.362 926.842 109.533 930.407 Q107.727 933.949 107.727 941.078 Q107.727 948.185 109.533 951.75 Q111.362 955.291 114.973 955.291 Q118.607 955.291 120.412 951.75 Q122.241 948.185 122.241 941.078 Q122.241 933.949 120.412 930.407 Q118.607 926.842 114.973 926.842 M114.973 923.139 Q120.783 923.139 123.838 927.745 Q126.917 932.329 126.917 941.078 Q126.917 949.805 123.838 954.412 Q120.783 958.995 114.973 958.995 Q109.163 958.995 106.084 954.412 Q103.028 949.805 103.028 941.078 Q103.028 932.329 106.084 927.745 Q109.163 923.139 114.973 923.139 Z" fill="#000000" fill-rule="nonzero" fill-opacity="1" /><path clip-path="url(#clip740)" d="M135.135 952.444 L140.019 952.444 L140.019 958.324 L135.135 958.324 L135.135 952.444 Z" fill="#000000" fill-rule="nonzero" fill-opacity="1" /><path clip-path="url(#clip740)" d="M150.25 923.764 L168.607 923.764 L168.607 927.699 L154.533 927.699 L154.533 936.171 Q155.551 935.824 156.57 935.662 Q157.588 935.477 158.607 935.477 Q164.394 935.477 167.773 938.648 Q171.153 941.819 171.153 947.236 Q171.153 952.815 167.681 955.916 Q164.209 958.995 157.889 958.995 Q155.713 958.995 153.445 958.625 Q151.199 958.254 148.792 957.514 L148.792 952.815 Q150.875 953.949 153.097 954.504 Q155.32 955.06 157.797 955.06 Q161.801 955.06 164.139 952.953 Q166.477 950.847 166.477 947.236 Q166.477 943.625 164.139 941.518 Q161.801 939.412 157.797 939.412 Q155.922 939.412 154.047 939.828 Q152.195 940.245 150.25 941.125 L150.25 923.764 Z" fill="#000000" fill-rule="nonzero" fill-opacity="1" /><path clip-path="url(#clip740)" d="M104.788 767.862 L112.426 767.862 L112.426 741.496 L104.116 743.163 L104.116 738.903 L112.38 737.237 L117.056 737.237 L117.056 767.862 L124.695 767.862 L124.695 771.797 L104.788 771.797 L104.788 767.862 Z" fill="#000000" fill-rule="nonzero" fill-opacity="1" /><path clip-path="url(#clip740)" d="M134.139 765.917 L139.023 765.917 L139.023 771.797 L134.139 771.797 L134.139 765.917 Z" fill="#000000" fill-rule="nonzero" fill-opacity="1" /><path clip-path="url(#clip740)" d="M159.209 740.316 Q155.597 740.316 153.769 743.88 Q151.963 747.422 151.963 754.552 Q151.963 761.658 153.769 765.223 Q155.597 768.764 159.209 768.764 Q162.843 768.764 164.648 765.223 Q166.477 761.658 166.477 754.552 Q166.477 747.422 164.648 743.88 Q162.843 740.316 159.209 740.316 M159.209 736.612 Q165.019 736.612 168.074 741.218 Q171.153 745.802 171.153 754.552 Q171.153 763.278 168.074 767.885 Q165.019 772.468 159.209 772.468 Q153.398 772.468 150.32 767.885 Q147.264 763.278 147.264 754.552 Q147.264 745.802 150.32 741.218 Q153.398 736.612 159.209 736.612 Z" fill="#000000" fill-rule="nonzero" fill-opacity="1" /><path clip-path="url(#clip740)" d="M105.783 581.335 L113.422 581.335 L113.422 554.969 L105.112 556.636 L105.112 552.377 L113.375 550.71 L118.051 550.71 L118.051 581.335 L125.69 581.335 L125.69 585.27 L105.783 585.27 L105.783 581.335 Z" fill="#000000" fill-rule="nonzero" fill-opacity="1" /><path clip-path="url(#clip740)" d="M135.135 579.39 L140.019 579.39 L140.019 585.27 L135.135 585.27 L135.135 579.39 Z" fill="#000000" fill-rule="nonzero" fill-opacity="1" /><path clip-path="url(#clip740)" d="M150.25 550.71 L168.607 550.71 L168.607 554.645 L154.533 554.645 L154.533 563.117 Q155.551 562.77 156.57 562.608 Q157.588 562.423 158.607 562.423 Q164.394 562.423 167.773 565.594 Q171.153 568.765 171.153 574.182 Q171.153 579.761 167.681 582.863 Q164.209 585.941 157.889 585.941 Q155.713 585.941 153.445 585.571 Q151.199 585.2 148.792 584.46 L148.792 579.761 Q150.875 580.895 153.097 581.451 Q155.32 582.006 157.797 582.006 Q161.801 582.006 164.139 579.9 Q166.477 577.793 166.477 574.182 Q166.477 570.571 164.139 568.464 Q161.801 566.358 157.797 566.358 Q155.922 566.358 154.047 566.775 Q152.195 567.191 150.25 568.071 L150.25 550.71 Z" fill="#000000" fill-rule="nonzero" fill-opacity="1" /><path clip-path="url(#clip740)" d="M108.005 394.808 L124.324 394.808 L124.324 398.743 L102.38 398.743 L102.38 394.808 Q105.042 392.053 109.625 387.424 Q114.232 382.771 115.412 381.428 Q117.658 378.905 118.537 377.169 Q119.44 375.41 119.44 373.72 Q119.44 370.965 117.496 369.229 Q115.575 367.493 112.473 367.493 Q110.274 367.493 107.82 368.257 Q105.389 369.021 102.612 370.572 L102.612 365.85 Q105.436 364.715 107.889 364.137 Q110.343 363.558 112.38 363.558 Q117.75 363.558 120.945 366.243 Q124.139 368.928 124.139 373.419 Q124.139 375.549 123.329 377.47 Q122.542 379.368 120.436 381.961 Q119.857 382.632 116.755 385.85 Q113.653 389.044 108.005 394.808 Z" fill="#000000" fill-rule="nonzero" fill-opacity="1" /><path clip-path="url(#clip740)" d="M134.139 392.863 L139.023 392.863 L139.023 398.743 L134.139 398.743 L134.139 392.863 Z" fill="#000000" fill-rule="nonzero" fill-opacity="1" /><path clip-path="url(#clip740)" d="M159.209 367.262 Q155.597 367.262 153.769 370.826 Q151.963 374.368 151.963 381.498 Q151.963 388.604 153.769 392.169 Q155.597 395.711 159.209 395.711 Q162.843 395.711 164.648 392.169 Q166.477 388.604 166.477 381.498 Q166.477 374.368 164.648 370.826 Q162.843 367.262 159.209 367.262 M159.209 363.558 Q165.019 363.558 168.074 368.164 Q171.153 372.748 171.153 381.498 Q171.153 390.225 168.074 394.831 Q165.019 399.414 159.209 399.414 Q153.398 399.414 150.32 394.831 Q147.264 390.225 147.264 381.498 Q147.264 372.748 150.32 368.164 Q153.398 363.558 159.209 363.558 Z" fill="#000000" fill-rule="nonzero" fill-opacity="1" /><path clip-path="url(#clip740)" d="M109 208.281 L125.32 208.281 L125.32 212.216 L103.376 212.216 L103.376 208.281 Q106.038 205.526 110.621 200.897 Q115.227 196.244 116.408 194.901 Q118.653 192.378 119.533 190.642 Q120.436 188.883 120.436 187.193 Q120.436 184.438 118.491 182.702 Q116.57 180.966 113.468 180.966 Q111.269 180.966 108.815 181.73 Q106.385 182.494 103.607 184.045 L103.607 179.323 Q106.431 178.189 108.885 177.61 Q111.338 177.031 113.375 177.031 Q118.746 177.031 121.94 179.716 Q125.135 182.401 125.135 186.892 Q125.135 189.022 124.324 190.943 Q123.537 192.841 121.431 195.434 Q120.852 196.105 117.75 199.323 Q114.649 202.517 109 208.281 Z" fill="#000000" fill-rule="nonzero" fill-opacity="1" /><path clip-path="url(#clip740)" d="M135.135 206.337 L140.019 206.337 L140.019 212.216 L135.135 212.216 L135.135 206.337 Z" fill="#000000" fill-rule="nonzero" fill-opacity="1" /><path clip-path="url(#clip740)" d="M150.25 177.656 L168.607 177.656 L168.607 181.591 L154.533 181.591 L154.533 190.063 Q155.551 189.716 156.57 189.554 Q157.588 189.369 158.607 189.369 Q164.394 189.369 167.773 192.54 Q171.153 195.712 171.153 201.128 Q171.153 206.707 167.681 209.809 Q164.209 212.887 157.889 212.887 Q155.713 212.887 153.445 212.517 Q151.199 212.147 148.792 211.406 L148.792 206.707 Q150.875 207.841 153.097 208.397 Q155.32 208.952 157.797 208.952 Q161.801 208.952 164.139 206.846 Q166.477 204.739 166.477 201.128 Q166.477 197.517 164.139 195.411 Q161.801 193.304 157.797 193.304 Q155.922 193.304 154.047 193.721 Q152.195 194.137 150.25 195.017 L150.25 177.656 Z" fill="#000000" fill-rule="nonzero" fill-opacity="1" /><path clip-path="url(#clip740)" d="M29.8442 875.545 Q30.5444 873.476 32.8361 871.534 Q35.1277 869.561 39.1381 867.587 L52.1242 861.063 L52.1242 867.969 L39.9338 874.049 Q35.1595 876.404 33.6 878.632 Q32.0404 880.828 32.0404 884.648 L32.0404 891.65 L52.1242 891.65 L52.1242 898.079 L4.60416 898.079 L4.60416 883.565 Q4.60416 875.417 8.00981 871.407 Q11.4155 867.396 18.2904 867.396 Q22.7782 867.396 25.7383 869.497 Q28.6984 871.566 29.8442 875.545 M9.88769 891.65 L26.7568 891.65 L26.7568 883.565 Q26.7568 878.918 24.6243 876.563 Q22.46 874.176 18.2904 874.176 Q14.1209 874.176 12.0202 876.563 Q9.88769 878.918 9.88769 883.565 L9.88769 891.65 Z" fill="#000000" fill-rule="nonzero" fill-opacity="1" /><path clip-path="url(#clip740)" d="M32.8361 825.478 L35.7006 825.478 L35.7006 852.405 Q41.7481 852.023 44.9309 848.777 Q48.0819 845.498 48.0819 839.674 Q48.0819 836.3 47.2544 833.149 Q46.4269 829.966 44.7718 826.847 L50.3099 826.847 Q51.6467 829.998 52.347 833.308 Q53.0472 836.618 53.0472 840.024 Q53.0472 848.554 48.0819 853.551 Q43.1167 858.516 34.6503 858.516 Q25.8974 858.516 20.7731 853.806 Q15.6168 849.063 15.6168 841.042 Q15.6168 833.849 20.2638 829.68 Q24.8789 825.478 32.8361 825.478 M31.1173 831.335 Q26.3112 831.398 23.4466 834.04 Q20.5821 836.65 20.5821 840.979 Q20.5821 845.88 23.3512 848.84 Q26.1202 851.769 31.1492 852.214 L31.1173 831.335 Z" fill="#000000" fill-rule="nonzero" fill-opacity="1" /><path clip-path="url(#clip740)" d="M46.777 810.201 L65.6831 810.201 L65.6831 816.089 L16.4762 816.089 L16.4762 810.201 L21.8871 810.201 Q18.7042 808.355 17.1764 805.554 Q15.6168 802.721 15.6168 798.806 Q15.6168 792.313 20.7731 788.271 Q25.9293 784.197 34.332 784.197 Q42.7347 784.197 47.891 788.271 Q53.0472 792.313 53.0472 798.806 Q53.0472 802.721 51.5194 805.554 Q49.9598 808.355 46.777 810.201 M34.332 790.276 Q27.8708 790.276 24.2105 792.95 Q20.5184 795.591 20.5184 800.238 Q20.5184 804.885 24.2105 807.559 Q27.8708 810.201 34.332 810.201 Q40.7932 810.201 44.4853 807.559 Q48.1456 804.885 48.1456 800.238 Q48.1456 795.591 44.4853 792.95 Q40.7932 790.276 34.332 790.276 Z" fill="#000000" fill-rule="nonzero" fill-opacity="1" /><path clip-path="url(#clip740)" d="M21.9507 753.832 Q21.3778 754.819 21.1232 755.997 Q20.8367 757.142 20.8367 758.543 Q20.8367 763.508 24.0832 766.182 Q27.2979 768.824 33.3453 768.824 L52.1242 768.824 L52.1242 774.712 L16.4762 774.712 L16.4762 768.824 L22.0144 768.824 Q18.7679 766.977 17.2083 764.017 Q15.6168 761.057 15.6168 756.824 Q15.6168 756.219 15.7123 755.487 Q15.776 754.755 15.9351 753.864 L21.9507 753.832 Z" fill="#000000" fill-rule="nonzero" fill-opacity="1" /><path clip-path="url(#clip740)" d="M20.5821 735.308 Q20.5821 740.019 24.2742 742.756 Q27.9345 745.493 34.332 745.493 Q40.7295 745.493 44.4217 742.788 Q48.0819 740.051 48.0819 735.308 Q48.0819 730.629 44.3898 727.892 Q40.6977 725.155 34.332 725.155 Q27.9981 725.155 24.306 727.892 Q20.5821 730.629 20.5821 735.308 M15.6168 735.308 Q15.6168 727.669 20.5821 723.309 Q25.5473 718.948 34.332 718.948 Q43.0849 718.948 48.0819 723.309 Q53.0472 727.669 53.0472 735.308 Q53.0472 742.979 48.0819 747.339 Q43.0849 751.668 34.332 751.668 Q25.5473 751.668 20.5821 747.339 Q15.6168 742.979 15.6168 735.308 Z" fill="#000000" fill-rule="nonzero" fill-opacity="1" /><path clip-path="url(#clip740)" d="M21.8871 685.783 L2.59896 685.783 L2.59896 679.926 L52.1242 679.926 L52.1242 685.783 L46.777 685.783 Q49.9598 687.629 51.5194 690.462 Q53.0472 693.263 53.0472 697.209 Q53.0472 703.67 47.891 707.745 Q42.7347 711.787 34.332 711.787 Q25.9293 711.787 20.7731 707.745 Q15.6168 703.67 15.6168 697.209 Q15.6168 693.263 17.1764 690.462 Q18.7042 687.629 21.8871 685.783 M34.332 705.739 Q40.7932 705.739 44.4853 703.098 Q48.1456 700.424 48.1456 695.777 Q48.1456 691.13 44.4853 688.456 Q40.7932 685.783 34.332 685.783 Q27.8708 685.783 24.2105 688.456 Q20.5184 691.13 20.5184 695.777 Q20.5184 700.424 24.2105 703.098 Q27.8708 705.739 34.332 705.739 Z" fill="#000000" fill-rule="nonzero" fill-opacity="1" /><path clip-path="url(#clip740)" d="M38.0559 668.468 L16.4762 668.468 L16.4762 662.612 L37.8331 662.612 Q42.8939 662.612 45.4402 660.638 Q47.9546 658.665 47.9546 654.718 Q47.9546 649.976 44.9309 647.239 Q41.9072 644.469 36.6873 644.469 L16.4762 644.469 L16.4762 638.613 L52.1242 638.613 L52.1242 644.469 L46.6496 644.469 Q49.8962 646.602 51.4876 649.435 Q53.0472 652.236 53.0472 655.96 Q53.0472 662.102 49.2278 665.285 Q45.4083 668.468 38.0559 668.468 M15.6168 653.732 L15.6168 653.732 Z" fill="#000000" fill-rule="nonzero" fill-opacity="1" /><path clip-path="url(#clip740)" d="M17.8448 600.896 L23.3193 600.896 Q21.9507 603.379 21.2823 605.893 Q20.5821 608.376 20.5821 610.922 Q20.5821 616.619 24.2105 619.77 Q27.8072 622.922 34.332 622.922 Q40.8569 622.922 44.4853 619.77 Q48.0819 616.619 48.0819 610.922 Q48.0819 608.376 47.4135 605.893 Q46.7133 603.379 45.3447 600.896 L50.7555 600.896 Q51.9014 603.347 52.4743 605.989 Q53.0472 608.599 53.0472 611.559 Q53.0472 619.611 47.9864 624.354 Q42.9257 629.096 34.332 629.096 Q25.611 629.096 20.6139 624.322 Q15.6168 619.516 15.6168 611.177 Q15.6168 608.471 16.1897 605.893 Q16.7308 603.315 17.8448 600.896 Z" fill="#000000" fill-rule="nonzero" fill-opacity="1" /><path clip-path="url(#clip740)" d="M6.35473 584.918 L16.4762 584.918 L16.4762 572.855 L21.0277 572.855 L21.0277 584.918 L40.3794 584.918 Q44.7399 584.918 45.9813 583.741 Q47.2226 582.531 47.2226 578.871 L47.2226 572.855 L52.1242 572.855 L52.1242 578.871 Q52.1242 585.65 49.6097 588.228 Q47.0634 590.807 40.3794 590.807 L21.0277 590.807 L21.0277 595.103 L16.4762 595.103 L16.4762 590.807 L6.35473 590.807 L6.35473 584.918 Z" fill="#000000" fill-rule="nonzero" fill-opacity="1" /><path clip-path="url(#clip740)" d="M16.4762 565.153 L16.4762 559.296 L52.1242 559.296 L52.1242 565.153 L16.4762 565.153 M2.59896 565.153 L2.59896 559.296 L10.015 559.296 L10.015 565.153 L2.59896 565.153 Z" fill="#000000" fill-rule="nonzero" fill-opacity="1" /><path clip-path="url(#clip740)" d="M20.5821 533.229 Q20.5821 537.939 24.2742 540.677 Q27.9345 543.414 34.332 543.414 Q40.7295 543.414 44.4217 540.708 Q48.0819 537.971 48.0819 533.229 Q48.0819 528.55 44.3898 525.813 Q40.6977 523.075 34.332 523.075 Q27.9981 523.075 24.306 525.813 Q20.5821 528.55 20.5821 533.229 M15.6168 533.229 Q15.6168 525.59 20.5821 521.229 Q25.5473 516.869 34.332 516.869 Q43.0849 516.869 48.0819 521.229 Q53.0472 525.59 53.0472 533.229 Q53.0472 540.899 48.0819 545.26 Q43.0849 549.589 34.332 549.589 Q25.5473 549.589 20.5821 545.26 Q15.6168 540.899 15.6168 533.229 Z" fill="#000000" fill-rule="nonzero" fill-opacity="1" /><path clip-path="url(#clip740)" d="M30.6081 477.529 L52.1242 477.529 L52.1242 483.385 L30.799 483.385 Q25.7383 483.385 23.2238 485.359 Q20.7094 487.332 20.7094 491.279 Q20.7094 496.021 23.7331 498.758 Q26.7568 501.496 31.9767 501.496 L52.1242 501.496 L52.1242 507.384 L16.4762 507.384 L16.4762 501.496 L22.0144 501.496 Q18.7997 499.395 17.2083 496.562 Q15.6168 493.698 15.6168 489.974 Q15.6168 483.831 19.4363 480.68 Q23.2238 477.529 30.6081 477.529 Z" fill="#000000" fill-rule="nonzero" fill-opacity="1" /><path clip-path="url(#clip740)" d="M30.6081 415.495 L52.1242 415.495 L52.1242 421.351 L30.799 421.351 Q25.7383 421.351 23.2238 423.325 Q20.7094 425.298 20.7094 429.245 Q20.7094 433.987 23.7331 436.725 Q26.7568 439.462 31.9767 439.462 L52.1242 439.462 L52.1242 445.35 L16.4762 445.35 L16.4762 439.462 L22.0144 439.462 Q18.7997 437.361 17.2083 434.528 Q15.6168 431.664 15.6168 427.94 Q15.6168 421.797 19.4363 418.646 Q23.2238 415.495 30.6081 415.495 Z" fill="#000000" fill-rule="nonzero" fill-opacity="1" /><path clip-path="url(#clip740)" d="M38.0559 404.419 L16.4762 404.419 L16.4762 398.562 L37.8331 398.562 Q42.8939 398.562 45.4402 396.589 Q47.9546 394.615 47.9546 390.669 Q47.9546 385.926 44.9309 383.189 Q41.9072 380.42 36.6873 380.42 L16.4762 380.42 L16.4762 374.563 L52.1242 374.563 L52.1242 380.42 L46.6496 380.42 Q49.8962 382.552 51.4876 385.385 Q53.0472 388.186 53.0472 391.91 Q53.0472 398.053 49.2278 401.236 Q45.4083 404.419 38.0559 404.419 M15.6168 389.682 L15.6168 389.682 Z" fill="#000000" fill-rule="nonzero" fill-opacity="1" /><path clip-path="url(#clip740)" d="M23.3193 334.746 Q19.3726 332.55 17.4947 329.494 Q15.6168 326.439 15.6168 322.301 Q15.6168 316.731 19.5317 313.707 Q23.4148 310.684 30.6081 310.684 L52.1242 310.684 L52.1242 316.572 L30.799 316.572 Q25.6746 316.572 23.192 318.386 Q20.7094 320.2 20.7094 323.924 Q20.7094 328.476 23.7331 331.118 Q26.7568 333.759 31.9767 333.759 L52.1242 333.759 L52.1242 339.648 L30.799 339.648 Q25.6428 339.648 23.192 341.462 Q20.7094 343.276 20.7094 347.064 Q20.7094 351.551 23.7649 354.193 Q26.7886 356.835 31.9767 356.835 L52.1242 356.835 L52.1242 362.723 L16.4762 362.723 L16.4762 356.835 L22.0144 356.835 Q18.736 354.83 17.1764 352.029 Q15.6168 349.228 15.6168 345.377 Q15.6168 341.494 17.5902 338.788 Q19.5636 336.051 23.3193 334.746 Z" fill="#000000" fill-rule="nonzero" fill-opacity="1" /><path clip-path="url(#clip740)" d="M34.332 273.412 Q27.8708 273.412 24.2105 276.086 Q20.5184 278.728 20.5184 283.375 Q20.5184 288.022 24.2105 290.695 Q27.8708 293.337 34.332 293.337 Q40.7932 293.337 44.4853 290.695 Q48.1456 288.022 48.1456 283.375 Q48.1456 278.728 44.4853 276.086 Q40.7932 273.412 34.332 273.412 M21.8871 293.337 Q18.7042 291.491 17.1764 288.69 Q15.6168 285.857 15.6168 281.942 Q15.6168 275.449 20.7731 271.407 Q25.9293 267.333 34.332 267.333 Q42.7347 267.333 47.891 271.407 Q53.0472 275.449 53.0472 281.942 Q53.0472 285.857 51.5194 288.69 Q49.9598 291.491 46.777 293.337 L52.1242 293.337 L52.1242 299.225 L2.59896 299.225 L2.59896 293.337 L21.8871 293.337 Z" fill="#000000" fill-rule="nonzero" fill-opacity="1" /><path clip-path="url(#clip740)" d="M32.8361 227.134 L35.7006 227.134 L35.7006 254.061 Q41.7481 253.679 44.9309 250.432 Q48.0819 247.154 48.0819 241.329 Q48.0819 237.955 47.2544 234.804 Q46.4269 231.622 44.7718 228.502 L50.3099 228.502 Q51.6467 231.653 52.347 234.964 Q53.0472 238.274 53.0472 241.679 Q53.0472 250.209 48.0819 255.206 Q43.1167 260.172 34.6503 260.172 Q25.8974 260.172 20.7731 255.461 Q15.6168 250.719 15.6168 242.698 Q15.6168 235.505 20.2638 231.335 Q24.8789 227.134 32.8361 227.134 M31.1173 232.99 Q26.3112 233.054 23.4466 235.696 Q20.5821 238.306 20.5821 242.634 Q20.5821 247.536 23.3512 250.496 Q26.1202 253.424 31.1492 253.87 L31.1173 232.99 Z" fill="#000000" fill-rule="nonzero" fill-opacity="1" /><path clip-path="url(#clip740)" d="M21.9507 196.865 Q21.3778 197.851 21.1232 199.029 Q20.8367 200.175 20.8367 201.575 Q20.8367 206.541 24.0832 209.214 Q27.2979 211.856 33.3453 211.856 L52.1242 211.856 L52.1242 217.744 L16.4762 217.744 L16.4762 211.856 L22.0144 211.856 Q18.7679 210.01 17.2083 207.05 Q15.6168 204.09 15.6168 199.857 Q15.6168 199.252 15.7123 198.52 Q15.776 197.788 15.9351 196.897 L21.9507 196.865 Z" fill="#000000" fill-rule="nonzero" fill-opacity="1" /><path clip-path="url(#clip742)" d="M267.878 758.247 L279.186 657.523 L290.494 579.182 L301.802 497.11 L313.11 433.691 L324.418 381.463 L335.726 370.271 L347.034 385.194 L358.343 456.074 L369.651 538.146 L380.959 627.679 L392.267 713.481 L403.575 795.553 L414.883 858.972 L426.191 907.469 L437.499 955.966 L448.807 985.81 L460.116 1000.73 L471.424 1011.92 L482.732 1019.39 L494.04 1011.92 L505.348 1011.92 L516.656 982.08 L527.964 959.696 L539.272 941.044 L550.581 929.852 L561.889 922.391 L573.197 937.313 L584.505 929.852 L595.813 903.738 L607.121 892.547 L618.429 862.702 L629.737 855.241 L641.046 862.702 L652.354 888.816 L663.662 888.816 L674.97 900.008 L686.278 911.199 L697.586 870.164 L708.894 829.128 L720.202 810.475 L731.511 773.17 L742.819 732.134 L754.127 735.864 L765.435 747.056 L776.743 732.134 L788.051 724.673 L799.359 717.211 L810.667 706.02 L821.976 687.367 L833.284 683.637 L844.592 694.828 L855.9 702.289 L867.208 672.445 L878.516 661.253 L889.824 672.445 L901.132 683.637 L912.44 679.906 L923.749 698.559 L935.057 694.828 L946.365 664.984 L957.673 620.217 L968.981 609.026 L980.289 623.948 L991.597 642.601 L1002.91 683.637 L1014.21 732.134 L1025.52 754.517 L1036.83 739.595 L1048.14 739.595 L1059.45 706.02 L1070.75 672.445 L1082.06 672.445 L1093.37 702.289 L1104.68 702.289 L1115.99 706.02 L1127.29 720.942 L1138.6 713.481 L1149.91 709.75 L1161.22 735.864 L1172.53 761.978 L1183.84 750.786 L1195.14 735.864 L1206.45 732.134 L1217.76 732.134 L1229.07 717.211 L1240.38 739.595 L1251.68 765.708 L1262.99 769.439 L1274.3 765.708 L1285.61 784.361 L1296.92 784.361 L1308.22 776.9 L1319.53 780.631 L1330.84 784.361 L1342.15 780.631 L1353.46 784.361 L1364.77 799.283 L1376.07 817.936 L1387.38 825.397 L1398.69 840.319 L1410 858.972 L1421.31 870.164 L1432.61 873.894 L1443.92 885.086 L1455.23 888.816 L1466.54 896.277 L1477.85 903.738 L1489.15 900.008 L1500.46 896.277 L1511.77 888.816 L1523.08 885.086 L1534.39 873.894 L1545.7 877.625 L1557 892.547 L1568.31 896.277 L1579.62 888.816 L1590.93 885.086 L1602.24 885.086 L1613.54 873.894 L1624.85 881.355 L1636.16 914.93 L1647.47 929.852 L1658.78 918.661 L1670.08 922.391 L1681.39 900.008 L1692.7 870.164 L1704.01 870.164 L1715.32 900.008 L1726.63 896.277 L1737.93 914.93 L1749.24 914.93 L1760.55 892.547 L1771.86 858.972 L1783.17 870.164 L1794.47 873.894 L1805.78 896.277 L1817.09 929.852 L1828.4 941.044 L1839.71 929.852 L1851.01 918.661 L1862.32 896.277 L1873.63 881.355 L1884.94 888.816 L1896.25 896.277 L1907.56 903.738 L1918.86 911.199 L1930.17 907.469 L1941.48 914.93 L1952.79 929.852 L1964.1 914.93 L1975.4 896.277 L1986.71 881.355 L1998.02 844.05 L2009.33 806.744 L2020.64 803.014 L2031.94 806.744 L2043.25 814.205 L2054.56 795.553 L2065.87 706.02 L2077.18 590.373 L2088.49 441.152 L2099.79 344.158 L2111.1 318.044 L2122.41 366.541 L2133.72 418.768 L2145.03 437.421 L2156.33 418.768 L2167.64 441.152 L2178.95 467.265 L2190.26 504.571 L2201.57 590.373 L2212.87 590.373 L2224.18 538.146 L2235.49 433.691 L2246.8 336.697 L2258.11 265.816 L2269.42 284.469 L2280.72 344.158 L2292.03 441.152 L2292.03 340.427 L2280.72 235.972 L2269.42 161.361 L2258.11 135.247 L2246.8 202.397 L2235.49 306.852 L2224.18 411.307 L2212.87 463.535 L2201.57 456.074 L2190.26 355.349 L2178.95 306.852 L2167.64 269.547 L2156.33 235.972 L2145.03 243.433 L2133.72 209.858 L2122.41 142.709 L2111.1 79.2894 L2099.79 97.9421 L2088.49 202.397 L2077.18 374.002 L2065.87 504.571 L2054.56 609.026 L2043.25 627.679 L2031.94 616.487 L2020.64 612.756 L2009.33 623.948 L1998.02 672.445 L1986.71 717.211 L1975.4 735.864 L1964.1 761.978 L1952.79 780.631 L1941.48 761.978 L1930.17 758.247 L1918.86 761.978 L1907.56 758.247 L1896.25 747.056 L1884.94 739.595 L1873.63 739.595 L1862.32 758.247 L1851.01 788.092 L1839.71 803.014 L1828.4 814.205 L1817.09 803.014 L1805.78 761.978 L1794.47 739.595 L1783.17 732.134 L1771.86 728.403 L1760.55 765.708 L1749.24 795.553 L1737.93 799.283 L1726.63 776.9 L1715.32 780.631 L1704.01 747.056 L1692.7 754.517 L1681.39 788.092 L1670.08 817.936 L1658.78 817.936 L1647.47 829.128 L1636.16 810.475 L1624.85 776.9 L1613.54 769.439 L1602.24 784.361 L1590.93 784.361 L1579.62 788.092 L1568.31 799.283 L1557 795.553 L1545.7 780.631 L1534.39 780.631 L1523.08 795.553 L1511.77 803.014 L1500.46 810.475 L1489.15 817.936 L1477.85 821.667 L1466.54 814.205 L1455.23 806.744 L1443.92 803.014 L1432.61 791.822 L1421.31 788.092 L1410 776.9 L1398.69 754.517 L1387.38 735.864 L1376.07 728.403 L1364.77 709.75 L1353.46 691.098 L1342.15 687.367 L1330.84 691.098 L1319.53 687.367 L1308.22 683.637 L1296.92 691.098 L1285.61 687.367 L1274.3 668.714 L1262.99 668.714 L1251.68 664.984 L1240.38 631.409 L1229.07 612.756 L1217.76 623.948 L1206.45 623.948 L1195.14 627.679 L1183.84 642.601 L1172.53 650.062 L1161.22 620.217 L1149.91 590.373 L1138.6 590.373 L1127.29 597.834 L1115.99 582.912 L1104.68 575.451 L1093.37 567.99 L1082.06 534.415 L1070.75 534.415 L1059.45 571.72 L1048.14 605.295 L1036.83 605.295 L1025.52 616.487 L1014.21 586.643 L1002.91 526.954 L991.597 478.457 L980.289 452.343 L968.981 433.691 L957.673 444.882 L946.365 489.649 L935.057 519.493 L923.749 519.493 L912.44 497.11 L901.132 493.379 L889.824 478.457 L878.516 459.804 L867.208 470.996 L855.9 500.84 L844.592 485.918 L833.284 470.996 L821.976 470.996 L810.667 485.918 L799.359 497.11 L788.051 500.84 L776.743 508.301 L765.435 523.223 L754.127 508.301 L742.819 500.84 L731.511 553.068 L720.202 597.834 L708.894 623.948 L697.586 676.176 L686.278 724.673 L674.97 709.75 L663.662 698.559 L652.354 698.559 L641.046 668.714 L629.737 664.984 L618.429 676.176 L607.121 713.481 L595.813 732.134 L584.505 765.708 L573.197 776.9 L561.889 761.978 L550.581 776.9 L539.272 799.283 L527.964 829.128 L516.656 862.702 L505.348 903.738 L494.04 907.469 L482.732 918.661 L471.424 911.199 L460.116 900.008 L448.807 877.625 L437.499 840.319 L426.191 780.631 L414.883 717.211 L403.575 642.601 L392.267 538.146 L380.959 429.96 L369.651 318.044 L358.343 209.858 L347.034 116.595 L335.726 79.2894 L324.418 75.5589 L313.11 112.864 L301.802 161.361 L290.494 224.78 L279.186 269.547 L267.878 318.044  Z" fill="#13643f" fill-rule="evenodd" fill-opacity="0.3"/>
<polyline clip-path="url(#clip742)" style="stroke:#13643f; stroke-linecap:round; stroke-linejoin:round; stroke-width:4; stroke-opacity:1; fill:none" points="267.878,558.692 279.186,477.757 290.494,410.94 301.802,336.81 313.11,279.041 324.418,233.393 335.726,229.315 347.034,253.475 358.343,336.251 369.651,432.687 380.959,531.466 392.267,627.853 403.575,721.917 414.883,789.595 426.191,848.078 437.499,900.204 448.807,933.129 460.116,953.457 471.424,964.341 482.732,971.1 494.04,962.985 505.348,960.016 516.656,926.949 527.964,898.644 539.272,873.377 550.581,856.445 561.889,846.23 573.197,859.976 584.505,851.778 595.813,822.993 607.121,807.014 618.429,774.169 629.737,764.532 641.046,771.666 652.354,797.191 663.662,797.682 674.97,810.161 686.278,823.003 697.586,777.801 708.894,732.296 720.202,709.646 731.511,669.528 742.819,621.575 754.127,627.346 765.435,640.984 776.743,624.878 788.051,617.957 799.359,611.452 810.667,600.448 821.976,582.991 833.284,581.151 844.592,594.601 855.9,605.203 867.208,574.216 878.516,563.468 889.824,579.686 901.132,591.308 912.44,591.431 923.749,610.869 935.057,610.688 946.365,579.865 957.673,536.325 968.981,524.663 980.289,541.682 991.597,561.339 1002.91,607.177 1014.21,660.716 1025.52,687.861 1036.83,675.04 1048.14,675.518 1059.45,639.344 1070.75,604.917 1082.06,604.453 1093.37,637.569 1104.68,639.538 1115.99,645.525 1127.29,660.725 1138.6,653.498 1149.91,651.232 1161.22,679.773 1172.53,708.095 1183.84,696.854 1195.14,684.221 1206.45,680.856 1217.76,679.519 1229.07,666.188 1240.38,686.708 1251.68,716.006 1262.99,721.057 1274.3,718.159 1285.61,737.12 1296.92,739.454 1308.22,730.48 1319.53,736.295 1330.84,738.656 1342.15,735.383 1353.46,739.376 1364.77,755.471 1376.07,773.863 1387.38,781.147 1398.69,799.105 1410,818.922 1421.31,829.01 1432.61,833.964 1443.92,844.732 1455.23,848.955 1466.54,855.935 1477.85,863.856 1489.15,859.887 1500.46,855.488 1511.77,847.39 1523.08,842.085 1534.39,828.389 1545.7,830.402 1557,845.736 1568.31,851.081 1579.62,839.313 1590.93,836.784 1602.24,836.077 1613.54,824.383 1624.85,830.787 1636.16,864.197 1647.47,881.9 1658.78,871.015 1670.08,872.614 1681.39,845.713 1692.7,814.22 1704.01,811.19 1715.32,843.55 1726.63,839.856 1737.93,859.435 1749.24,859.242 1760.55,832.13 1771.86,795.154 1783.17,803.978 1794.47,808.669 1805.78,830.665 1817.09,870.03 1828.4,880.062 1839.71,870.723 1851.01,855.169 1862.32,831.977 1873.63,813.529 1884.94,816.85 1896.25,824.397 1907.56,834.434 1918.86,840.801 1930.17,834.857 1941.48,842.237 1952.79,858.044 1964.1,840.903 1975.4,820.5 1986.71,803.975 1998.02,763.238 2009.33,720.327 2020.64,711.967 2031.94,715.669 2043.25,726.611 2054.56,707.176 2065.87,608.878 2077.18,486.161 2088.49,325.867 2099.79,223.811 2111.1,202.036 2122.41,257.65 2133.72,317.12 2145.03,343.008 2156.33,330.259 2167.64,356.339 2178.95,390.516 2190.26,429.835 2201.57,524.82 2212.87,527.446 2224.18,475.917 2235.49,370.868 2246.8,270.887 2258.11,203.159 2269.42,223.619 2280.72,290.963 2292.03,391.756 "/>
</svg>
