<?xml version="1.0" encoding="utf-8"?>
<svg xmlns="http://www.w3.org/2000/svg" xmlns:xlink="http://www.w3.org/1999/xlink" width="672" height="480" viewBox="0 0 2688 1920">
<defs>
  <clipPath id="clip860">
    <rect x="0" y="0" width="2688" height="1920"/>
  </clipPath>
</defs>
<path clip-path="url(#clip860)" d="M0 1920 L2688 1920 L2688 -4.26326e-14 L0 -4.26326e-14  Z" fill="#ffffff" fill-rule="evenodd" fill-opacity="1"/>
<defs>
  <clipPath id="clip861">
    <rect x="537" y="0" width="1883" height="1883"/>
  </clipPath>
</defs>
<path clip-path="url(#clip860)" d="M241.557 1734.12 L2640.76 1734.12 L2640.76 47.2441 L241.557 47.2441  Z" fill="#ffffff" fill-rule="evenodd" fill-opacity="1"/>
<defs>
  <clipPath id="clip862">
    <rect x="241" y="47" width="2400" height="1688"/>
  </clipPath>
</defs>
<polyline clip-path="url(#clip862)" style="stroke:#000000; stroke-linecap:round; stroke-linejoin:round; stroke-width:2; stroke-opacity:0.1; fill:none" points="296.954,1734.12 296.954,47.2441 "/>
<polyline clip-path="url(#clip862)" style="stroke:#000000; stroke-linecap:round; stroke-linejoin:round; stroke-width:2; stroke-opacity:0.1; fill:none" points="922.201,1734.12 922.201,47.2441 "/>
<polyline clip-path="url(#clip862)" style="stroke:#000000; stroke-linecap:round; stroke-linejoin:round; stroke-width:2; stroke-opacity:0.1; fill:none" points="1547.45,1734.12 1547.45,47.2441 "/>
<polyline clip-path="url(#clip862)" style="stroke:#000000; stroke-linecap:round; stroke-linejoin:round; stroke-width:2; stroke-opacity:0.1; fill:none" points="2172.7,1734.12 2172.7,47.2441 "/>
<polyline clip-path="url(#clip860)" style="stroke:#000000; stroke-linecap:round; stroke-linejoin:round; stroke-width:4; stroke-opacity:1; fill:none" points="241.557,1734.12 2640.76,1734.12 "/>
<polyline clip-path="url(#clip860)" style="stroke:#000000; stroke-linecap:round; stroke-linejoin:round; stroke-width:4; stroke-opacity:1; fill:none" points="296.954,1734.12 296.954,1715.22 "/>
<polyline clip-path="url(#clip860)" style="stroke:#000000; stroke-linecap:round; stroke-linejoin:round; stroke-width:4; stroke-opacity:1; fill:none" points="922.201,1734.12 922.201,1715.22 "/>
<polyline clip-path="url(#clip860)" style="stroke:#000000; stroke-linecap:round; stroke-linejoin:round; stroke-width:4; stroke-opacity:1; fill:none" points="1547.45,1734.12 1547.45,1715.22 "/>
<polyline clip-path="url(#clip860)" style="stroke:#000000; stroke-linecap:round; stroke-linejoin:round; stroke-width:4; stroke-opacity:1; fill:none" points="2172.7,1734.12 2172.7,1715.22 "/>
<path clip-path="url(#clip860)" d="M296.954 1767.34 Q293.343 1767.34 291.514 1770.9 Q289.709 1774.45 289.709 1781.58 Q289.709 1788.68 291.514 1792.25 Q293.343 1795.79 296.954 1795.79 Q300.588 1795.79 302.394 1792.25 Q304.223 1788.68 304.223 1781.58 Q304.223 1774.45 302.394 1770.9 Q300.588 1767.34 296.954 1767.34 M296.954 1763.64 Q302.764 1763.64 305.82 1768.24 Q308.898 1772.83 308.898 1781.58 Q308.898 1790.3 305.82 1794.91 Q302.764 1799.49 296.954 1799.49 Q291.144 1799.49 288.065 1794.91 Q285.01 1790.3 285.01 1781.58 Q285.01 1772.83 288.065 1768.24 Q291.144 1763.64 296.954 1763.64 Z" fill="#000000" fill-rule="nonzero" fill-opacity="1" /><path clip-path="url(#clip860)" d="M896.901 1764.26 L915.257 1764.26 L915.257 1768.2 L901.183 1768.2 L901.183 1776.67 Q902.201 1776.32 903.22 1776.16 Q904.238 1775.97 905.257 1775.97 Q911.044 1775.97 914.424 1779.15 Q917.803 1782.32 917.803 1787.73 Q917.803 1793.31 914.331 1796.41 Q910.859 1799.49 904.539 1799.49 Q902.363 1799.49 900.095 1799.12 Q897.85 1798.75 895.442 1798.01 L895.442 1793.31 Q897.526 1794.45 899.748 1795 Q901.97 1795.56 904.447 1795.56 Q908.451 1795.56 910.789 1793.45 Q913.127 1791.34 913.127 1787.73 Q913.127 1784.12 910.789 1782.02 Q908.451 1779.91 904.447 1779.91 Q902.572 1779.91 900.697 1780.33 Q898.845 1780.74 896.901 1781.62 L896.901 1764.26 Z" fill="#000000" fill-rule="nonzero" fill-opacity="1" /><path clip-path="url(#clip860)" d="M937.016 1767.34 Q933.405 1767.34 931.576 1770.9 Q929.771 1774.45 929.771 1781.58 Q929.771 1788.68 931.576 1792.25 Q933.405 1795.79 937.016 1795.79 Q940.65 1795.79 942.456 1792.25 Q944.285 1788.68 944.285 1781.58 Q944.285 1774.45 942.456 1770.9 Q940.65 1767.34 937.016 1767.34 M937.016 1763.64 Q942.826 1763.64 945.882 1768.24 Q948.96 1772.83 948.96 1781.58 Q948.96 1790.3 945.882 1794.91 Q942.826 1799.49 937.016 1799.49 Q931.206 1799.49 928.127 1794.91 Q925.072 1790.3 925.072 1781.58 Q925.072 1772.83 928.127 1768.24 Q931.206 1763.64 937.016 1763.64 Z" fill="#000000" fill-rule="nonzero" fill-opacity="1" /><path clip-path="url(#clip860)" d="M1507.06 1794.89 L1514.69 1794.89 L1514.69 1768.52 L1506.38 1770.19 L1506.38 1765.93 L1514.65 1764.26 L1519.32 1764.26 L1519.32 1794.89 L1526.96 1794.89 L1526.96 1798.82 L1507.06 1798.82 L1507.06 1794.89 Z" fill="#000000" fill-rule="nonzero" fill-opacity="1" /><path clip-path="url(#clip860)" d="M1546.41 1767.34 Q1542.8 1767.34 1540.97 1770.9 Q1539.16 1774.45 1539.16 1781.58 Q1539.16 1788.68 1540.97 1792.25 Q1542.8 1795.79 1546.41 1795.79 Q1550.04 1795.79 1551.85 1792.25 Q1553.68 1788.68 1553.68 1781.58 Q1553.68 1774.45 1551.85 1770.9 Q1550.04 1767.34 1546.41 1767.34 M1546.41 1763.64 Q1552.22 1763.64 1555.27 1768.24 Q1558.35 1772.83 1558.35 1781.58 Q1558.35 1790.3 1555.27 1794.91 Q1552.22 1799.49 1546.41 1799.49 Q1540.6 1799.49 1537.52 1794.91 Q1534.46 1790.3 1534.46 1781.58 Q1534.46 1772.83 1537.52 1768.24 Q1540.6 1763.64 1546.41 1763.64 Z" fill="#000000" fill-rule="nonzero" fill-opacity="1" /><path clip-path="url(#clip860)" d="M1576.57 1767.34 Q1572.96 1767.34 1571.13 1770.9 Q1569.32 1774.45 1569.32 1781.58 Q1569.32 1788.68 1571.13 1792.25 Q1572.96 1795.79 1576.57 1795.79 Q1580.2 1795.79 1582.01 1792.25 Q1583.84 1788.68 1583.84 1781.58 Q1583.84 1774.45 1582.01 1770.9 Q1580.2 1767.34 1576.57 1767.34 M1576.57 1763.64 Q1582.38 1763.64 1585.43 1768.24 Q1588.51 1772.83 1588.51 1781.58 Q1588.51 1790.3 1585.43 1794.91 Q1582.38 1799.49 1576.57 1799.49 Q1570.76 1799.49 1567.68 1794.91 Q1564.62 1790.3 1564.62 1781.58 Q1564.62 1772.83 1567.68 1768.24 Q1570.76 1763.64 1576.57 1763.64 Z" fill="#000000" fill-rule="nonzero" fill-opacity="1" /><path clip-path="url(#clip860)" d="M2132.3 1794.89 L2139.94 1794.89 L2139.94 1768.52 L2131.63 1770.19 L2131.63 1765.93 L2139.9 1764.26 L2144.57 1764.26 L2144.57 1794.89 L2152.21 1794.89 L2152.21 1798.82 L2132.3 1798.82 L2132.3 1794.89 Z" fill="#000000" fill-rule="nonzero" fill-opacity="1" /><path clip-path="url(#clip860)" d="M2161.7 1764.26 L2180.06 1764.26 L2180.06 1768.2 L2165.98 1768.2 L2165.98 1776.67 Q2167 1776.32 2168.02 1776.16 Q2169.04 1775.97 2170.06 1775.97 Q2175.84 1775.97 2179.22 1779.15 Q2182.6 1782.32 2182.6 1787.73 Q2182.6 1793.31 2179.13 1796.41 Q2175.66 1799.49 2169.34 1799.49 Q2167.16 1799.49 2164.89 1799.12 Q2162.65 1798.75 2160.24 1798.01 L2160.24 1793.31 Q2162.33 1794.45 2164.55 1795 Q2166.77 1795.56 2169.25 1795.56 Q2173.25 1795.56 2175.59 1793.45 Q2177.93 1791.34 2177.93 1787.73 Q2177.93 1784.12 2175.59 1782.02 Q2173.25 1779.91 2169.25 1779.91 Q2167.37 1779.91 2165.5 1780.33 Q2163.64 1780.74 2161.7 1781.62 L2161.7 1764.26 Z" fill="#000000" fill-rule="nonzero" fill-opacity="1" /><path clip-path="url(#clip860)" d="M2201.82 1767.34 Q2198.2 1767.34 2196.38 1770.9 Q2194.57 1774.45 2194.57 1781.58 Q2194.57 1788.68 2196.38 1792.25 Q2198.2 1795.79 2201.82 1795.79 Q2205.45 1795.79 2207.26 1792.25 Q2209.08 1788.68 2209.08 1781.58 Q2209.08 1774.45 2207.26 1770.9 Q2205.45 1767.34 2201.82 1767.34 M2201.82 1763.64 Q2207.63 1763.64 2210.68 1768.24 Q2213.76 1772.83 2213.76 1781.58 Q2213.76 1790.3 2210.68 1794.91 Q2207.63 1799.49 2201.82 1799.49 Q2196.01 1799.49 2192.93 1794.91 Q2189.87 1790.3 2189.87 1781.58 Q2189.87 1772.83 2192.93 1768.24 Q2196.01 1763.64 2201.82 1763.64 Z" fill="#000000" fill-rule="nonzero" fill-opacity="1" /><path clip-path="url(#clip860)" d="M1371.04 1841.06 L1371.04 1878.02 L1378.8 1878.02 Q1388.64 1878.02 1393.19 1873.56 Q1397.77 1869.11 1397.77 1859.49 Q1397.77 1849.94 1393.19 1845.52 Q1388.64 1841.06 1378.8 1841.06 L1371.04 1841.06 M1364.61 1835.78 L1377.82 1835.78 Q1391.63 1835.78 1398.09 1841.54 Q1404.55 1847.27 1404.55 1859.49 Q1404.55 1871.78 1398.06 1877.54 Q1391.57 1883.3 1377.82 1883.3 L1364.61 1883.3 L1364.61 1835.78 Z" fill="#000000" fill-rule="nonzero" fill-opacity="1" /><path clip-path="url(#clip860)" d="M1430.75 1865.38 Q1423.65 1865.38 1420.91 1867 Q1418.18 1868.63 1418.18 1872.54 Q1418.18 1875.66 1420.21 1877.51 Q1422.28 1879.32 1425.82 1879.32 Q1430.68 1879.32 1433.61 1875.88 Q1436.57 1872.42 1436.57 1866.69 L1436.57 1865.38 L1430.75 1865.38 M1442.43 1862.96 L1442.43 1883.3 L1436.57 1883.3 L1436.57 1877.89 Q1434.57 1881.14 1431.58 1882.7 Q1428.58 1884.22 1424.26 1884.22 Q1418.78 1884.22 1415.53 1881.17 Q1412.32 1878.08 1412.32 1872.92 Q1412.32 1866.91 1416.33 1863.85 Q1420.37 1860.8 1428.36 1860.8 L1436.57 1860.8 L1436.57 1860.23 Q1436.57 1856.18 1433.9 1853.99 Q1431.26 1851.76 1426.45 1851.76 Q1423.4 1851.76 1420.5 1852.49 Q1417.6 1853.22 1414.93 1854.69 L1414.93 1849.28 Q1418.14 1848.03 1421.17 1847.43 Q1424.19 1846.79 1427.06 1846.79 Q1434.79 1846.79 1438.61 1850.8 Q1442.43 1854.81 1442.43 1862.96 Z" fill="#000000" fill-rule="nonzero" fill-opacity="1" /><path clip-path="url(#clip860)" d="M1469.32 1886.61 Q1466.84 1892.98 1464.49 1894.92 Q1462.13 1896.86 1458.18 1896.86 L1453.51 1896.86 L1453.51 1891.96 L1456.94 1891.96 Q1459.36 1891.96 1460.7 1890.81 Q1462.04 1889.67 1463.66 1885.4 L1464.71 1882.73 L1450.29 1847.65 L1456.5 1847.65 L1467.64 1875.53 L1478.78 1847.65 L1484.98 1847.65 L1469.32 1886.61 Z" fill="#000000" fill-rule="nonzero" fill-opacity="1" /><path clip-path="url(#clip860)" d="M1515.79 1848.7 L1515.79 1854.24 Q1513.31 1852.97 1510.64 1852.33 Q1507.96 1851.7 1505.1 1851.7 Q1500.74 1851.7 1498.54 1853.03 Q1496.38 1854.37 1496.38 1857.04 Q1496.38 1859.08 1497.94 1860.26 Q1499.5 1861.4 1504.21 1862.45 L1506.21 1862.9 Q1512.45 1864.24 1515.06 1866.69 Q1517.7 1869.11 1517.7 1873.47 Q1517.7 1878.43 1513.76 1881.33 Q1509.84 1884.22 1502.97 1884.22 Q1500.1 1884.22 1496.98 1883.65 Q1493.9 1883.11 1490.46 1882 L1490.46 1875.95 Q1493.71 1877.64 1496.86 1878.49 Q1500.01 1879.32 1503.09 1879.32 Q1507.23 1879.32 1509.46 1877.92 Q1511.69 1876.49 1511.69 1873.91 Q1511.69 1871.52 1510.07 1870.25 Q1508.47 1868.98 1503.03 1867.8 L1500.99 1867.32 Q1495.55 1866.18 1493.13 1863.82 Q1490.71 1861.43 1490.71 1857.3 Q1490.71 1852.27 1494.28 1849.53 Q1497.84 1846.79 1504.4 1846.79 Q1507.65 1846.79 1510.51 1847.27 Q1513.38 1847.75 1515.79 1848.7 Z" fill="#000000" fill-rule="nonzero" fill-opacity="1" /><polyline clip-path="url(#clip862)" style="stroke:#000000; stroke-linecap:round; stroke-linejoin:round; stroke-width:2; stroke-opacity:0.1; fill:none" points="241.557,1691.31 2640.76,1691.31 "/>
<polyline clip-path="url(#clip862)" style="stroke:#000000; stroke-linecap:round; stroke-linejoin:round; stroke-width:2; stroke-opacity:0.1; fill:none" points="241.557,1362.17 2640.76,1362.17 "/>
<polyline clip-path="url(#clip862)" style="stroke:#000000; stroke-linecap:round; stroke-linejoin:round; stroke-width:2; stroke-opacity:0.1; fill:none" points="241.557,1033.03 2640.76,1033.03 "/>
<polyline clip-path="url(#clip862)" style="stroke:#000000; stroke-linecap:round; stroke-linejoin:round; stroke-width:2; stroke-opacity:0.1; fill:none" points="241.557,703.894 2640.76,703.894 "/>
<polyline clip-path="url(#clip862)" style="stroke:#000000; stroke-linecap:round; stroke-linejoin:round; stroke-width:2; stroke-opacity:0.1; fill:none" points="241.557,374.754 2640.76,374.754 "/>
<polyline clip-path="url(#clip860)" style="stroke:#000000; stroke-linecap:round; stroke-linejoin:round; stroke-width:4; stroke-opacity:1; fill:none" points="241.557,1734.12 241.557,47.2441 "/>
<polyline clip-path="url(#clip860)" style="stroke:#000000; stroke-linecap:round; stroke-linejoin:round; stroke-width:4; stroke-opacity:1; fill:none" points="241.557,1691.31 260.455,1691.31 "/>
<polyline clip-path="url(#clip860)" style="stroke:#000000; stroke-linecap:round; stroke-linejoin:round; stroke-width:4; stroke-opacity:1; fill:none" points="241.557,1362.17 260.455,1362.17 "/>
<polyline clip-path="url(#clip860)" style="stroke:#000000; stroke-linecap:round; stroke-linejoin:round; stroke-width:4; stroke-opacity:1; fill:none" points="241.557,1033.03 260.455,1033.03 "/>
<polyline clip-path="url(#clip860)" style="stroke:#000000; stroke-linecap:round; stroke-linejoin:round; stroke-width:4; stroke-opacity:1; fill:none" points="241.557,703.894 260.455,703.894 "/>
<polyline clip-path="url(#clip860)" style="stroke:#000000; stroke-linecap:round; stroke-linejoin:round; stroke-width:4; stroke-opacity:1; fill:none" points="241.557,374.754 260.455,374.754 "/>
<path clip-path="url(#clip860)" d="M189.293 1677.11 Q185.682 1677.11 183.853 1680.68 Q182.047 1684.22 182.047 1691.35 Q182.047 1698.45 183.853 1702.02 Q185.682 1705.56 189.293 1705.56 Q192.927 1705.56 194.733 1702.02 Q196.561 1698.45 196.561 1691.35 Q196.561 1684.22 194.733 1680.68 Q192.927 1677.11 189.293 1677.11 M189.293 1673.41 Q195.103 1673.41 198.158 1678.01 Q201.237 1682.6 201.237 1691.35 Q201.237 1700.07 198.158 1704.68 Q195.103 1709.26 189.293 1709.26 Q183.483 1709.26 180.404 1704.68 Q177.348 1700.07 177.348 1691.35 Q177.348 1682.6 180.404 1678.01 Q183.483 1673.41 189.293 1673.41 Z" fill="#000000" fill-rule="nonzero" fill-opacity="1" /><path clip-path="url(#clip860)" d="M122.997 1375.52 L139.316 1375.52 L139.316 1379.45 L117.372 1379.45 L117.372 1375.52 Q120.034 1372.76 124.617 1368.13 Q129.224 1363.48 130.404 1362.14 Q132.65 1359.62 133.529 1357.88 Q134.432 1356.12 134.432 1354.43 Q134.432 1351.68 132.488 1349.94 Q130.566 1348.2 127.464 1348.2 Q125.265 1348.2 122.812 1348.97 Q120.381 1349.73 117.603 1351.28 L117.603 1346.56 Q120.427 1345.43 122.881 1344.85 Q125.335 1344.27 127.372 1344.27 Q132.742 1344.27 135.937 1346.95 Q139.131 1349.64 139.131 1354.13 Q139.131 1356.26 138.321 1358.18 Q137.534 1360.08 135.427 1362.67 Q134.849 1363.34 131.747 1366.56 Q128.645 1369.75 122.997 1375.52 Z" fill="#000000" fill-rule="nonzero" fill-opacity="1" /><path clip-path="url(#clip860)" d="M159.131 1347.97 Q155.52 1347.97 153.691 1351.54 Q151.886 1355.08 151.886 1362.21 Q151.886 1369.31 153.691 1372.88 Q155.52 1376.42 159.131 1376.42 Q162.765 1376.42 164.571 1372.88 Q166.399 1369.31 166.399 1362.21 Q166.399 1355.08 164.571 1351.54 Q162.765 1347.97 159.131 1347.97 M159.131 1344.27 Q164.941 1344.27 167.997 1348.87 Q171.075 1353.46 171.075 1362.21 Q171.075 1370.93 167.997 1375.54 Q164.941 1380.12 159.131 1380.12 Q153.321 1380.12 150.242 1375.54 Q147.186 1370.93 147.186 1362.21 Q147.186 1353.46 150.242 1348.87 Q153.321 1344.27 159.131 1344.27 Z" fill="#000000" fill-rule="nonzero" fill-opacity="1" /><path clip-path="url(#clip860)" d="M189.293 1347.97 Q185.682 1347.97 183.853 1351.54 Q182.047 1355.08 182.047 1362.21 Q182.047 1369.31 183.853 1372.88 Q185.682 1376.42 189.293 1376.42 Q192.927 1376.42 194.733 1372.88 Q196.561 1369.31 196.561 1362.21 Q196.561 1355.08 194.733 1351.54 Q192.927 1347.97 189.293 1347.97 M189.293 1344.27 Q195.103 1344.27 198.158 1348.87 Q201.237 1353.46 201.237 1362.21 Q201.237 1370.93 198.158 1375.54 Q195.103 1380.12 189.293 1380.12 Q183.483 1380.12 180.404 1375.54 Q177.348 1370.93 177.348 1362.21 Q177.348 1353.46 180.404 1348.87 Q183.483 1344.27 189.293 1344.27 Z" fill="#000000" fill-rule="nonzero" fill-opacity="1" /><path clip-path="url(#clip860)" d="M131.816 1019.83 L120.011 1038.28 L131.816 1038.28 L131.816 1019.83 M130.589 1015.75 L136.469 1015.75 L136.469 1038.28 L141.399 1038.28 L141.399 1042.17 L136.469 1042.17 L136.469 1050.31 L131.816 1050.31 L131.816 1042.17 L116.214 1042.17 L116.214 1037.65 L130.589 1015.75 Z" fill="#000000" fill-rule="nonzero" fill-opacity="1" /><path clip-path="url(#clip860)" d="M159.131 1018.83 Q155.52 1018.83 153.691 1022.4 Q151.886 1025.94 151.886 1033.07 Q151.886 1040.17 153.691 1043.74 Q155.52 1047.28 159.131 1047.28 Q162.765 1047.28 164.571 1043.74 Q166.399 1040.17 166.399 1033.07 Q166.399 1025.94 164.571 1022.4 Q162.765 1018.83 159.131 1018.83 M159.131 1015.13 Q164.941 1015.13 167.997 1019.73 Q171.075 1024.32 171.075 1033.07 Q171.075 1041.79 167.997 1046.4 Q164.941 1050.98 159.131 1050.98 Q153.321 1050.98 150.242 1046.4 Q147.186 1041.79 147.186 1033.07 Q147.186 1024.32 150.242 1019.73 Q153.321 1015.13 159.131 1015.13 Z" fill="#000000" fill-rule="nonzero" fill-opacity="1" /><path clip-path="url(#clip860)" d="M189.293 1018.83 Q185.682 1018.83 183.853 1022.4 Q182.047 1025.94 182.047 1033.07 Q182.047 1040.17 183.853 1043.74 Q185.682 1047.28 189.293 1047.28 Q192.927 1047.28 194.733 1043.74 Q196.561 1040.17 196.561 1033.07 Q196.561 1025.94 194.733 1022.4 Q192.927 1018.83 189.293 1018.83 M189.293 1015.13 Q195.103 1015.13 198.158 1019.73 Q201.237 1024.32 201.237 1033.07 Q201.237 1041.79 198.158 1046.4 Q195.103 1050.98 189.293 1050.98 Q183.483 1050.98 180.404 1046.4 Q177.348 1041.79 177.348 1033.07 Q177.348 1024.32 180.404 1019.73 Q183.483 1015.13 189.293 1015.13 Z" fill="#000000" fill-rule="nonzero" fill-opacity="1" /><path clip-path="url(#clip860)" d="M129.548 702.03 Q126.4 702.03 124.548 704.183 Q122.719 706.336 122.719 710.086 Q122.719 713.813 124.548 715.989 Q126.4 718.141 129.548 718.141 Q132.696 718.141 134.525 715.989 Q136.376 713.813 136.376 710.086 Q136.376 706.336 134.525 704.183 Q132.696 702.03 129.548 702.03 M138.83 687.378 L138.83 691.637 Q137.071 690.804 135.265 690.364 Q133.483 689.924 131.724 689.924 Q127.094 689.924 124.64 693.049 Q122.21 696.174 121.863 702.493 Q123.228 700.48 125.288 699.415 Q127.349 698.327 129.825 698.327 Q135.034 698.327 138.043 701.498 Q141.075 704.646 141.075 710.086 Q141.075 715.41 137.927 718.628 Q134.779 721.845 129.548 721.845 Q123.552 721.845 120.381 717.262 Q117.21 712.655 117.21 703.929 Q117.21 695.734 121.099 690.873 Q124.988 685.989 131.538 685.989 Q133.298 685.989 135.08 686.336 Q136.886 686.683 138.83 687.378 Z" fill="#000000" fill-rule="nonzero" fill-opacity="1" /><path clip-path="url(#clip860)" d="M159.131 689.693 Q155.52 689.693 153.691 693.257 Q151.886 696.799 151.886 703.929 Q151.886 711.035 153.691 714.6 Q155.52 718.141 159.131 718.141 Q162.765 718.141 164.571 714.6 Q166.399 711.035 166.399 703.929 Q166.399 696.799 164.571 693.257 Q162.765 689.693 159.131 689.693 M159.131 685.989 Q164.941 685.989 167.997 690.595 Q171.075 695.179 171.075 703.929 Q171.075 712.655 167.997 717.262 Q164.941 721.845 159.131 721.845 Q153.321 721.845 150.242 717.262 Q147.186 712.655 147.186 703.929 Q147.186 695.179 150.242 690.595 Q153.321 685.989 159.131 685.989 Z" fill="#000000" fill-rule="nonzero" fill-opacity="1" /><path clip-path="url(#clip860)" d="M189.293 689.693 Q185.682 689.693 183.853 693.257 Q182.047 696.799 182.047 703.929 Q182.047 711.035 183.853 714.6 Q185.682 718.141 189.293 718.141 Q192.927 718.141 194.733 714.6 Q196.561 711.035 196.561 703.929 Q196.561 696.799 194.733 693.257 Q192.927 689.693 189.293 689.693 M189.293 685.989 Q195.103 685.989 198.158 690.595 Q201.237 695.179 201.237 703.929 Q201.237 712.655 198.158 717.262 Q195.103 721.845 189.293 721.845 Q183.483 721.845 180.404 717.262 Q177.348 712.655 177.348 703.929 Q177.348 695.179 180.404 690.595 Q183.483 685.989 189.293 685.989 Z" fill="#000000" fill-rule="nonzero" fill-opacity="1" /><path clip-path="url(#clip860)" d="M128.969 375.622 Q125.636 375.622 123.714 377.405 Q121.816 379.187 121.816 382.312 Q121.816 385.437 123.714 387.22 Q125.636 389.002 128.969 389.002 Q132.302 389.002 134.224 387.22 Q136.145 385.414 136.145 382.312 Q136.145 379.187 134.224 377.405 Q132.325 375.622 128.969 375.622 M124.293 373.632 Q121.284 372.891 119.594 370.831 Q117.927 368.771 117.927 365.808 Q117.927 361.664 120.867 359.257 Q123.83 356.849 128.969 356.849 Q134.131 356.849 137.071 359.257 Q140.011 361.664 140.011 365.808 Q140.011 368.771 138.321 370.831 Q136.654 372.891 133.668 373.632 Q137.048 374.419 138.923 376.71 Q140.821 379.002 140.821 382.312 Q140.821 387.335 137.742 390.02 Q134.687 392.706 128.969 392.706 Q123.251 392.706 120.173 390.02 Q117.117 387.335 117.117 382.312 Q117.117 379.002 119.015 376.71 Q120.913 374.419 124.293 373.632 M122.58 366.247 Q122.58 368.933 124.247 370.437 Q125.937 371.942 128.969 371.942 Q131.978 371.942 133.668 370.437 Q135.381 368.933 135.381 366.247 Q135.381 363.562 133.668 362.058 Q131.978 360.553 128.969 360.553 Q125.937 360.553 124.247 362.058 Q122.58 363.562 122.58 366.247 Z" fill="#000000" fill-rule="nonzero" fill-opacity="1" /><path clip-path="url(#clip860)" d="M159.131 360.553 Q155.52 360.553 153.691 364.118 Q151.886 367.659 151.886 374.789 Q151.886 381.896 153.691 385.46 Q155.52 389.002 159.131 389.002 Q162.765 389.002 164.571 385.46 Q166.399 381.896 166.399 374.789 Q166.399 367.659 164.571 364.118 Q162.765 360.553 159.131 360.553 M159.131 356.849 Q164.941 356.849 167.997 361.456 Q171.075 366.039 171.075 374.789 Q171.075 383.516 167.997 388.122 Q164.941 392.706 159.131 392.706 Q153.321 392.706 150.242 388.122 Q147.186 383.516 147.186 374.789 Q147.186 366.039 150.242 361.456 Q153.321 356.849 159.131 356.849 Z" fill="#000000" fill-rule="nonzero" fill-opacity="1" /><path clip-path="url(#clip860)" d="M189.293 360.553 Q185.682 360.553 183.853 364.118 Q182.047 367.659 182.047 374.789 Q182.047 381.896 183.853 385.46 Q185.682 389.002 189.293 389.002 Q192.927 389.002 194.733 385.46 Q196.561 381.896 196.561 374.789 Q196.561 367.659 194.733 364.118 Q192.927 360.553 189.293 360.553 M189.293 356.849 Q195.103 356.849 198.158 361.456 Q201.237 366.039 201.237 374.789 Q201.237 383.516 198.158 388.122 Q195.103 392.706 189.293 392.706 Q183.483 392.706 180.404 388.122 Q177.348 383.516 177.348 374.789 Q177.348 366.039 180.404 361.456 Q183.483 356.849 189.293 356.849 Z" fill="#000000" fill-rule="nonzero" fill-opacity="1" /><path clip-path="url(#clip860)" d="M39.3585 1114.4 Q40.0587 1112.33 42.3504 1110.39 Q44.642 1108.42 48.6524 1106.45 L61.6384 1099.92 L61.6384 1106.83 L49.4481 1112.91 Q44.6738 1115.26 43.1142 1117.49 Q41.5546 1119.69 41.5546 1123.51 L41.5546 1130.51 L61.6384 1130.51 L61.6384 1136.94 L14.1184 1136.94 L14.1184 1122.42 Q14.1184 1114.28 17.5241 1110.27 Q20.9297 1106.26 27.8047 1106.26 Q32.2925 1106.26 35.2526 1108.36 Q38.2126 1110.42 39.3585 1114.4 M19.402 1130.51 L36.2711 1130.51 L36.2711 1122.42 Q36.2711 1117.78 34.1386 1115.42 Q31.9743 1113.03 27.8047 1113.03 Q23.6352 1113.03 21.5345 1115.42 Q19.402 1117.78 19.402 1122.42 L19.402 1130.51 Z" fill="#000000" fill-rule="nonzero" fill-opacity="1" /><path clip-path="url(#clip860)" d="M42.3504 1064.34 L45.2149 1064.34 L45.2149 1091.26 Q51.2623 1090.88 54.4452 1087.64 Q57.5962 1084.36 57.5962 1078.53 Q57.5962 1075.16 56.7687 1072.01 Q55.9411 1068.82 54.2861 1065.71 L59.8242 1065.71 Q61.161 1068.86 61.8612 1072.17 Q62.5615 1075.48 62.5615 1078.88 Q62.5615 1087.41 57.5962 1092.41 Q52.631 1097.38 44.1646 1097.38 Q35.4117 1097.38 30.2873 1092.66 Q25.1311 1087.92 25.1311 1079.9 Q25.1311 1072.71 29.7781 1068.54 Q34.3932 1064.34 42.3504 1064.34 M40.6316 1070.19 Q35.8255 1070.26 32.9609 1072.9 Q30.0964 1075.51 30.0964 1079.84 Q30.0964 1084.74 32.8654 1087.7 Q35.6345 1090.63 40.6634 1091.07 L40.6316 1070.19 Z" fill="#000000" fill-rule="nonzero" fill-opacity="1" /><path clip-path="url(#clip860)" d="M56.2912 1049.06 L75.1974 1049.06 L75.1974 1054.95 L25.9905 1054.95 L25.9905 1049.06 L31.4013 1049.06 Q28.2185 1047.21 26.6907 1044.41 Q25.1311 1041.58 25.1311 1037.66 Q25.1311 1031.17 30.2873 1027.13 Q35.4436 1023.06 43.8463 1023.06 Q52.249 1023.06 57.4052 1027.13 Q62.5615 1031.17 62.5615 1037.66 Q62.5615 1041.58 61.0337 1044.41 Q59.4741 1047.21 56.2912 1049.06 M43.8463 1029.13 Q37.3851 1029.13 33.7248 1031.81 Q30.0327 1034.45 30.0327 1039.1 Q30.0327 1043.74 33.7248 1046.42 Q37.3851 1049.06 43.8463 1049.06 Q50.3075 1049.06 53.9996 1046.42 Q57.6599 1043.74 57.6599 1039.1 Q57.6599 1034.45 53.9996 1031.81 Q50.3075 1029.13 43.8463 1029.13 Z" fill="#000000" fill-rule="nonzero" fill-opacity="1" /><path clip-path="url(#clip860)" d="M30.0964 999.534 Q30.0964 1004.24 33.7885 1006.98 Q37.4488 1009.72 43.8463 1009.72 Q50.2438 1009.72 53.9359 1007.01 Q57.5962 1004.28 57.5962 999.534 Q57.5962 994.855 53.9041 992.118 Q50.212 989.381 43.8463 989.381 Q37.5124 989.381 33.8203 992.118 Q30.0964 994.855 30.0964 999.534 M25.1311 999.534 Q25.1311 991.895 30.0964 987.535 Q35.0616 983.174 43.8463 983.174 Q52.5991 983.174 57.5962 987.535 Q62.5615 991.895 62.5615 999.534 Q62.5615 1007.2 57.5962 1011.57 Q52.5991 1015.89 43.8463 1015.89 Q35.0616 1015.89 30.0964 1011.57 Q25.1311 1007.2 25.1311 999.534 Z" fill="#000000" fill-rule="nonzero" fill-opacity="1" /><path clip-path="url(#clip860)" d="M31.465 952.81 Q30.8921 953.797 30.6375 954.974 Q30.351 956.12 30.351 957.52 Q30.351 962.486 33.5975 965.159 Q36.8122 967.801 42.8596 967.801 L61.6384 967.801 L61.6384 973.689 L25.9905 973.689 L25.9905 967.801 L31.5287 967.801 Q28.2821 965.955 26.7225 962.995 Q25.1311 960.035 25.1311 955.802 Q25.1311 955.197 25.2266 954.465 Q25.2903 953.733 25.4494 952.842 L31.465 952.81 Z" fill="#000000" fill-rule="nonzero" fill-opacity="1" /><path clip-path="url(#clip860)" d="M15.869 940.874 L25.9905 940.874 L25.9905 928.811 L30.542 928.811 L30.542 940.874 L49.8937 940.874 Q54.2542 940.874 55.4955 939.696 Q56.7368 938.487 56.7368 934.827 L56.7368 928.811 L61.6384 928.811 L61.6384 934.827 Q61.6384 941.606 59.124 944.184 Q56.5777 946.762 49.8937 946.762 L30.542 946.762 L30.542 951.059 L25.9905 951.059 L25.9905 946.762 L15.869 946.762 L15.869 940.874 Z" fill="#000000" fill-rule="nonzero" fill-opacity="1" /><path clip-path="url(#clip860)" d="M42.3504 890.617 L45.2149 890.617 L45.2149 917.544 Q51.2623 917.162 54.4452 913.915 Q57.5962 910.637 57.5962 904.812 Q57.5962 901.439 56.7687 898.288 Q55.9411 895.105 54.2861 891.986 L59.8242 891.986 Q61.161 895.137 61.8612 898.447 Q62.5615 901.757 62.5615 905.163 Q62.5615 913.693 57.5962 918.69 Q52.631 923.655 44.1646 923.655 Q35.4117 923.655 30.2873 918.944 Q25.1311 914.202 25.1311 906.181 Q25.1311 898.988 29.7781 894.818 Q34.3932 890.617 42.3504 890.617 M40.6316 896.473 Q35.8255 896.537 32.9609 899.179 Q30.0964 901.789 30.0964 906.117 Q30.0964 911.019 32.8654 913.979 Q35.6345 916.907 40.6634 917.353 L40.6316 896.473 Z" fill="#000000" fill-rule="nonzero" fill-opacity="1" /><path clip-path="url(#clip860)" d="M31.4013 857.547 L12.1132 857.547 L12.1132 851.691 L61.6384 851.691 L61.6384 857.547 L56.2912 857.547 Q59.4741 859.393 61.0337 862.226 Q62.5615 865.027 62.5615 868.973 Q62.5615 875.435 57.4052 879.509 Q52.249 883.551 43.8463 883.551 Q35.4436 883.551 30.2873 879.509 Q25.1311 875.435 25.1311 868.973 Q25.1311 865.027 26.6907 862.226 Q28.2185 859.393 31.4013 857.547 M43.8463 877.504 Q50.3075 877.504 53.9996 874.862 Q57.6599 872.188 57.6599 867.541 Q57.6599 862.894 53.9996 860.221 Q50.3075 857.547 43.8463 857.547 Q37.3851 857.547 33.7248 860.221 Q30.0327 862.894 30.0327 867.541 Q30.0327 872.188 33.7248 874.862 Q37.3851 877.504 43.8463 877.504 Z" fill="#000000" fill-rule="nonzero" fill-opacity="1" /><path clip-path="url(#clip860)" d="M27.3591 793.253 L32.8336 793.253 Q31.465 795.736 30.7966 798.25 Q30.0964 800.733 30.0964 803.279 Q30.0964 808.977 33.7248 812.128 Q37.3214 815.279 43.8463 815.279 Q50.3711 815.279 53.9996 812.128 Q57.5962 808.977 57.5962 803.279 Q57.5962 800.733 56.9278 798.25 Q56.2276 795.736 54.859 793.253 L60.2698 793.253 Q61.4156 795.704 61.9886 798.346 Q62.5615 800.956 62.5615 803.916 Q62.5615 811.969 57.5007 816.711 Q52.44 821.453 43.8463 821.453 Q35.1253 821.453 30.1282 816.679 Q25.1311 811.873 25.1311 803.534 Q25.1311 800.829 25.704 798.25 Q26.2451 795.672 27.3591 793.253 Z" fill="#000000" fill-rule="nonzero" fill-opacity="1" /><path clip-path="url(#clip860)" d="M43.719 766.868 Q43.719 773.965 45.3422 776.703 Q46.9655 779.44 50.8804 779.44 Q53.9996 779.44 55.8457 777.403 Q57.6599 775.334 57.6599 771.801 Q57.6599 766.931 54.2224 764.003 Q50.7531 761.043 45.0239 761.043 L43.719 761.043 L43.719 766.868 M41.3 755.186 L61.6384 755.186 L61.6384 761.043 L56.2276 761.043 Q59.4741 763.048 61.0337 766.04 Q62.5615 769.032 62.5615 773.361 Q62.5615 778.835 59.5059 782.082 Q56.4186 785.296 51.2623 785.296 Q45.2467 785.296 42.1912 781.286 Q39.1357 777.244 39.1357 769.255 L39.1357 761.043 L38.5628 761.043 Q34.5205 761.043 32.3244 763.717 Q30.0964 766.358 30.0964 771.164 Q30.0964 774.22 30.8284 777.116 Q31.5605 780.013 33.0246 782.686 L27.6137 782.686 Q26.3724 779.472 25.7677 776.448 Q25.1311 773.424 25.1311 770.56 Q25.1311 762.825 29.1415 759.006 Q33.1519 755.186 41.3 755.186 Z" fill="#000000" fill-rule="nonzero" fill-opacity="1" /><path clip-path="url(#clip860)" d="M27.0408 720.398 L32.579 720.398 Q31.3059 722.881 30.6693 725.554 Q30.0327 728.228 30.0327 731.092 Q30.0327 735.453 31.3695 737.649 Q32.7063 739.813 35.3799 739.813 Q37.4169 739.813 38.5946 738.254 Q39.7404 736.694 40.7908 731.983 L41.2364 729.978 Q42.5732 723.74 45.0239 721.13 Q47.4429 718.488 51.8034 718.488 Q56.7687 718.488 59.6651 722.435 Q62.5615 726.35 62.5615 733.225 Q62.5615 736.089 61.9886 739.209 Q61.4475 742.296 60.3335 745.733 L54.2861 745.733 Q55.973 742.487 56.8323 739.336 Q57.6599 736.185 57.6599 733.097 Q57.6599 728.96 56.2594 726.732 Q54.8271 724.504 52.249 724.504 Q49.8619 724.504 48.5887 726.127 Q47.3156 727.718 46.1379 733.161 L45.6605 735.198 Q44.5147 740.641 42.1594 743.06 Q39.7722 745.479 35.6345 745.479 Q30.6056 745.479 27.8684 741.914 Q25.1311 738.349 25.1311 731.793 Q25.1311 728.546 25.6085 725.681 Q26.086 722.817 27.0408 720.398 Z" fill="#000000" fill-rule="nonzero" fill-opacity="1" /><path clip-path="url(#clip860)" d="M42.3504 678.671 L45.2149 678.671 L45.2149 705.598 Q51.2623 705.216 54.4452 701.969 Q57.5962 698.691 57.5962 692.866 Q57.5962 689.492 56.7687 686.341 Q55.9411 683.159 54.2861 680.039 L59.8242 680.039 Q61.161 683.19 61.8612 686.5 Q62.5615 689.811 62.5615 693.216 Q62.5615 701.746 57.5962 706.743 Q52.631 711.709 44.1646 711.709 Q35.4117 711.709 30.2873 706.998 Q25.1311 702.256 25.1311 694.235 Q25.1311 687.042 29.7781 682.872 Q34.3932 678.671 42.3504 678.671 M40.6316 684.527 Q35.8255 684.591 32.9609 687.233 Q30.0964 689.842 30.0964 694.171 Q30.0964 699.073 32.8654 702.033 Q35.6345 704.961 40.6634 705.407 L40.6316 684.527 Z" fill="#000000" fill-rule="nonzero" fill-opacity="1" /><path clip-path="url(#clip860)" d="M27.0408 646.333 L32.579 646.333 Q31.3059 648.816 30.6693 651.489 Q30.0327 654.163 30.0327 657.027 Q30.0327 661.388 31.3695 663.584 Q32.7063 665.748 35.3799 665.748 Q37.4169 665.748 38.5946 664.189 Q39.7404 662.629 40.7908 657.918 L41.2364 655.913 Q42.5732 649.675 45.0239 647.065 Q47.4429 644.423 51.8034 644.423 Q56.7687 644.423 59.6651 648.37 Q62.5615 652.285 62.5615 659.16 Q62.5615 662.024 61.9886 665.144 Q61.4475 668.231 60.3335 671.668 L54.2861 671.668 Q55.973 668.422 56.8323 665.271 Q57.6599 662.12 57.6599 659.032 Q57.6599 654.895 56.2594 652.667 Q54.8271 650.439 52.249 650.439 Q49.8619 650.439 48.5887 652.062 Q47.3156 653.653 46.1379 659.096 L45.6605 661.133 Q44.5147 666.576 42.1594 668.995 Q39.7722 671.414 35.6345 671.414 Q30.6056 671.414 27.8684 667.849 Q25.1311 664.284 25.1311 657.728 Q25.1311 654.481 25.6085 651.616 Q26.086 648.752 27.0408 646.333 Z" fill="#000000" fill-rule="nonzero" fill-opacity="1" /><path clip-path="url(#clip862)" d="M346.974 1679.79 L359.479 1673.21 L371.984 1664.98 L384.489 1651.82 L396.994 1637 L409.499 1618.9 L422.003 1600.8 L434.508 1585.99 L447.013 1581.05 L459.518 1584.34 L472.023 1594.22 L484.528 1607.38 L497.033 1625.48 L509.538 1638.65 L522.043 1651.82 L534.548 1663.34 L547.053 1669.92 L559.558 1674.86 L572.063 1678.15 L584.568 1681.44 L597.073 1681.44 L609.578 1683.08 L622.083 1681.44 L634.588 1679.79 L647.093 1679.79 L659.597 1679.79 L672.102 1679.79 L684.607 1681.44 L697.112 1681.44 L709.617 1679.79 L722.122 1679.79 L734.627 1676.5 L747.132 1676.5 L759.637 1676.5 L772.142 1679.79 L784.647 1679.79 L797.152 1679.79 L809.657 1681.44 L822.162 1679.79 L834.667 1676.5 L847.172 1674.86 L859.677 1671.56 L872.182 1666.63 L884.686 1666.63 L897.191 1664.98 L909.696 1663.34 L922.201 1660.04 L934.706 1656.75 L947.211 1653.46 L959.716 1648.52 L972.221 1645.23 L984.726 1643.59 L997.231 1641.94 L1009.74 1633.71 L1022.24 1627.13 L1034.75 1625.48 L1047.25 1622.19 L1059.76 1617.26 L1072.26 1615.61 L1084.77 1610.67 L1097.27 1599.15 L1109.78 1581.05 L1122.28 1569.53 L1134.79 1562.95 L1147.29 1558.01 L1159.8 1561.3 L1172.3 1571.18 L1184.81 1576.11 L1197.31 1567.89 L1209.82 1562.95 L1222.32 1544.85 L1234.82 1523.45 L1247.33 1513.58 L1259.83 1518.51 L1272.34 1510.29 L1284.84 1505.35 L1297.35 1503.7 L1309.85 1492.18 L1322.36 1482.31 L1334.86 1490.54 L1347.37 1500.41 L1359.87 1488.89 L1372.38 1475.73 L1384.88 1467.5 L1397.39 1459.27 L1409.89 1444.46 L1422.4 1449.39 L1434.9 1462.56 L1447.41 1460.91 L1459.91 1455.98 L1472.42 1465.85 L1484.92 1465.85 L1497.43 1457.62 L1509.93 1459.27 L1522.44 1459.27 L1534.94 1454.33 L1547.45 1455.98 L1559.95 1467.5 L1572.46 1480.66 L1584.96 1487.25 L1597.47 1502.06 L1609.97 1518.51 L1622.48 1530.03 L1634.98 1538.26 L1647.49 1551.43 L1659.99 1559.66 L1672.5 1569.53 L1685 1579.4 L1697.51 1582.7 L1710.01 1585.99 L1722.52 1587.63 L1735.02 1589.28 L1747.53 1587.63 L1760.03 1592.57 L1772.54 1604.09 L1785.04 1609.03 L1797.55 1609.03 L1810.05 1610.67 L1822.56 1613.96 L1835.06 1613.96 L1847.57 1618.9 L1860.07 1632.07 L1872.58 1640.3 L1885.08 1640.3 L1897.59 1643.59 L1910.09 1640.3 L1922.6 1635.36 L1935.1 1635.36 L1947.61 1645.23 L1960.11 1646.88 L1972.62 1651.82 L1985.12 1655.11 L1997.63 1651.82 L2010.13 1645.23 L2022.64 1648.52 L2035.14 1650.17 L2047.65 1655.11 L2060.15 1663.34 L2072.66 1666.63 L2085.16 1666.63 L2097.67 1666.63 L2110.17 1664.98 L2122.68 1663.34 L2135.18 1664.98 L2147.69 1666.63 L2160.19 1668.27 L2172.7 1671.56 L2185.2 1671.56 L2197.71 1673.21 L2210.21 1674.86 L2222.72 1674.86 L2235.22 1673.21 L2247.73 1673.21 L2260.23 1669.92 L2272.74 1664.98 L2285.24 1664.98 L2297.75 1663.34 L2310.25 1664.98 L2322.76 1661.69 L2335.26 1650.17 L2347.77 1630.42 L2360.27 1597.51 L2372.77 1559.66 L2385.28 1526.74 L2397.78 1508.64 L2410.29 1493.83 L2422.79 1472.43 L2435.3 1432.94 L2447.8 1404.96 L2460.31 1380.28 L2472.81 1360.53 L2485.32 1381.92 L2497.82 1353.94 L2510.33 1283.18 L2522.83 1148.23 L2535.34 972.143 L2547.84 769.722 L2560.35 628.192 L2572.85 547.553 L2572.85 106.506 L2560.35 226.642 L2547.84 415.897 L2535.34 672.626 L2522.83 898.086 L2510.33 1070.88 L2497.82 1163.04 L2485.32 1200.89 L2472.81 1179.5 L2460.31 1209.12 L2447.8 1243.68 L2435.3 1284.83 L2422.79 1337.49 L2410.29 1370.4 L2397.78 1391.8 L2385.28 1419.77 L2372.77 1467.5 L2360.27 1520.16 L2347.77 1569.53 L2335.26 1597.51 L2322.76 1615.61 L2310.25 1620.55 L2297.75 1618.9 L2285.24 1620.55 L2272.74 1622.19 L2260.23 1628.78 L2247.73 1635.36 L2235.22 1635.36 L2222.72 1637 L2210.21 1638.65 L2197.71 1633.71 L2185.2 1630.42 L2172.7 1628.78 L2160.19 1625.48 L2147.69 1622.19 L2135.18 1618.9 L2122.68 1617.26 L2110.17 1618.9 L2097.67 1620.55 L2085.16 1622.19 L2072.66 1620.55 L2060.15 1613.96 L2047.65 1600.8 L2035.14 1592.57 L2022.64 1589.28 L2010.13 1585.99 L1997.63 1594.22 L1985.12 1597.51 L1972.62 1594.22 L1960.11 1584.34 L1947.61 1581.05 L1935.1 1567.89 L1922.6 1564.59 L1910.09 1572.82 L1897.59 1577.76 L1885.08 1571.18 L1872.58 1569.53 L1860.07 1556.37 L1847.57 1534.97 L1835.06 1528.39 L1822.56 1528.39 L1810.05 1523.45 L1797.55 1518.51 L1785.04 1518.51 L1772.54 1508.64 L1760.03 1493.83 L1747.53 1485.6 L1735.02 1487.25 L1722.52 1482.31 L1710.01 1479.02 L1697.51 1472.43 L1685 1465.85 L1672.5 1449.39 L1659.99 1434.58 L1647.49 1421.42 L1634.98 1403.32 L1622.48 1390.15 L1609.97 1373.69 L1597.47 1349.01 L1584.96 1327.61 L1572.46 1319.38 L1559.95 1301.28 L1547.45 1286.47 L1534.94 1286.47 L1522.44 1291.41 L1509.93 1291.41 L1497.43 1289.76 L1484.92 1301.28 L1472.42 1301.28 L1459.91 1289.76 L1447.41 1297.99 L1434.9 1299.64 L1422.4 1283.18 L1409.89 1278.24 L1397.39 1299.64 L1384.88 1311.16 L1372.38 1324.32 L1359.87 1340.78 L1347.37 1357.24 L1334.86 1345.72 L1322.36 1337.49 L1309.85 1350.65 L1297.35 1367.11 L1284.84 1370.4 L1272.34 1378.63 L1259.83 1390.15 L1247.33 1386.86 L1234.82 1401.67 L1222.32 1431.29 L1209.82 1457.62 L1197.31 1462.56 L1184.81 1474.08 L1172.3 1469.14 L1159.8 1457.62 L1147.29 1452.69 L1134.79 1460.91 L1122.28 1472.43 L1109.78 1490.54 L1097.27 1516.87 L1084.77 1533.33 L1072.26 1541.55 L1059.76 1543.2 L1047.25 1551.43 L1034.75 1556.37 L1022.24 1561.3 L1009.74 1571.18 L997.231 1582.7 L984.726 1585.99 L972.221 1589.28 L959.716 1595.86 L947.211 1602.44 L934.706 1609.03 L922.201 1613.96 L909.696 1617.26 L897.191 1622.19 L884.686 1623.84 L872.182 1627.13 L859.677 1635.36 L847.172 1640.3 L834.667 1643.59 L822.162 1648.52 L809.657 1651.82 L797.152 1650.17 L784.647 1648.52 L772.142 1646.88 L759.637 1643.59 L747.132 1643.59 L734.627 1643.59 L722.122 1646.88 L709.617 1648.52 L697.112 1650.17 L684.607 1650.17 L672.102 1646.88 L659.597 1646.88 L647.093 1646.88 L634.588 1648.52 L622.083 1650.17 L609.578 1651.82 L597.073 1650.17 L584.568 1646.88 L572.063 1641.94 L559.558 1635.36 L547.053 1623.84 L534.548 1610.67 L522.043 1590.92 L509.538 1571.18 L497.033 1549.78 L484.528 1526.74 L472.023 1508.64 L459.518 1497.12 L447.013 1493.83 L434.508 1502.06 L422.003 1525.1 L409.499 1551.43 L396.994 1579.4 L384.489 1602.44 L371.984 1622.19 L359.479 1635.36 L346.974 1646.88  Z" fill="#009af9" fill-rule="evenodd" fill-opacity="0.5"/>
<polyline clip-path="url(#clip862)" style="stroke:#009af9; stroke-linecap:round; stroke-linejoin:round; stroke-width:4; stroke-opacity:1; fill:none" points="346.974,1665.48 359.479,1656.32 371.984,1644.93 384.489,1629.07 396.994,1609.92 409.499,1586.89 422.003,1565.14 434.508,1545.99 447.013,1539.93 459.518,1542.8 472.023,1553.06 484.528,1569.14 497.033,1589.86 509.538,1607.06 522.043,1623.52 534.548,1638.89 547.053,1649.52 559.558,1656.95 572.063,1662.06 584.568,1666.04 597.073,1667.39 609.578,1669.38 622.083,1667.36 634.588,1665.95 647.093,1664.77 659.597,1664.33 672.102,1664.43 684.607,1666.88 697.112,1667.21 709.617,1665.52 722.122,1664.75 734.627,1662.22 747.132,1661.44 759.637,1662.14 772.142,1664.67 784.647,1665.23 797.152,1666.85 809.657,1668.57 822.162,1665.53 834.667,1661.83 847.172,1659.38 859.677,1654.87 872.182,1648.6 884.686,1646.65 897.191,1645.79 909.696,1641.89 922.201,1638.53 934.706,1634.9 947.211,1630.29 959.716,1624.15 972.221,1619.44 984.726,1616.9 997.231,1614.24 1009.74,1604.29 1022.24,1596.28 1034.75,1592.83 1047.25,1588.91 1059.76,1582.67 1072.26,1580.79 1084.77,1574.74 1097.27,1560.03 1109.78,1538.65 1122.28,1522.6 1134.79,1514.16 1147.29,1507.37 1159.8,1511.86 1172.3,1523.12 1184.81,1527.75 1197.31,1517.71 1209.82,1512.55 1222.32,1490.67 1234.82,1465.65 1247.33,1453.06 1259.83,1457.24 1272.34,1447.47 1284.84,1439.97 1297.35,1438.33 1309.85,1424.38 1322.36,1412.51 1334.86,1420.37 1347.37,1431.1 1359.87,1417.82 1372.38,1402.57 1384.88,1392.42 1397.39,1383.02 1409.89,1363.82 1422.4,1369.3 1434.9,1384.13 1447.41,1382.66 1459.91,1375.61 1472.42,1386.87 1484.92,1386.17 1497.43,1376.39 1509.93,1378.55 1522.44,1378.27 1534.94,1373.38 1547.45,1374.58 1559.95,1386.8 1572.46,1402.57 1584.96,1410.46 1597.47,1428.4 1609.97,1449.15 1622.48,1463.08 1634.98,1473.59 1647.49,1488.8 1659.99,1499.36 1672.5,1511.86 1685,1524.86 1697.51,1530.08 1710.01,1534.87 1722.52,1537.21 1735.02,1540.75 1747.53,1539.36 1760.03,1545.68 1772.54,1558.38 1785.04,1566.13 1797.55,1565.86 1810.05,1569.49 1822.56,1573.67 1835.06,1573.05 1847.57,1579.42 1860.07,1596.12 1872.58,1606.9 1885.08,1607.64 1897.59,1612.47 1910.09,1608.13 1922.6,1602 1935.1,1603.72 1947.61,1615.41 1960.11,1617.23 1972.62,1625.19 1985.12,1628.11 1997.63,1624.38 2010.13,1617.88 2022.64,1621.44 2035.14,1624.05 2047.65,1630.55 2060.15,1640.88 2072.66,1645.34 2085.16,1646.08 2097.67,1645.6 2110.17,1643.6 2122.68,1642.11 2135.18,1643.96 2147.69,1646.48 2160.19,1649.43 2172.7,1651.85 2185.2,1652.49 2197.71,1654.92 2210.21,1658.46 2222.72,1657.77 2235.22,1656.51 2247.73,1655.47 2260.23,1651.18 2272.74,1645.81 2285.24,1643.93 2297.75,1643.48 2310.25,1644.14 2322.76,1640.96 2335.26,1625.77 2347.77,1601.71 2360.27,1560.87 2372.77,1515.39 2385.28,1475.7 2397.78,1453.02 2410.29,1434.92 2422.79,1407.3 2435.3,1360.75 2447.8,1326.75 2460.31,1297.16 2472.81,1273.25 2485.32,1294.86 2497.82,1261.62 2510.33,1180.01 2522.83,1026.24 2535.34,825.972 2547.84,596.359 2560.35,430.934 2572.85,330.733 "/>
<path clip-path="url(#clip862)" d="M346.974 1686.38 L359.479 1681.44 L371.984 1674.86 L384.489 1663.34 L396.994 1650.17 L409.499 1630.42 L422.003 1613.96 L434.508 1602.44 L447.013 1610.67 L459.518 1618.9 L472.023 1628.78 L484.528 1641.94 L497.033 1655.11 L509.538 1663.34 L522.043 1671.56 L534.548 1678.15 L547.053 1681.44 L559.558 1683.08 L572.063 1684.73 L584.568 1686.38 L597.073 1684.73 L609.578 1686.38 L622.083 1683.08 L634.588 1681.44 L647.093 1681.44 L659.597 1681.44 L672.102 1681.44 L684.607 1683.08 L697.112 1683.08 L709.617 1681.44 L722.122 1679.79 L734.627 1678.15 L747.132 1678.15 L759.637 1679.79 L772.142 1681.44 L784.647 1681.44 L797.152 1683.08 L809.657 1683.08 L822.162 1679.79 L834.667 1676.5 L847.172 1676.5 L859.677 1673.21 L872.182 1668.27 L884.686 1668.27 L897.191 1668.27 L909.696 1664.98 L922.201 1663.34 L934.706 1660.04 L947.211 1656.75 L959.716 1651.82 L972.221 1648.52 L984.726 1648.52 L997.231 1646.88 L1009.74 1637 L1022.24 1632.07 L1034.75 1630.42 L1047.25 1628.78 L1059.76 1622.19 L1072.26 1622.19 L1084.77 1617.26 L1097.27 1604.09 L1109.78 1585.99 L1122.28 1574.47 L1134.79 1571.18 L1147.29 1566.24 L1159.8 1572.82 L1172.3 1584.34 L1184.81 1585.99 L1197.31 1576.11 L1209.82 1571.18 L1222.32 1551.43 L1234.82 1530.03 L1247.33 1523.45 L1259.83 1530.03 L1272.34 1520.16 L1284.84 1515.22 L1297.35 1513.58 L1309.85 1502.06 L1322.36 1492.18 L1334.86 1502.06 L1347.37 1510.29 L1359.87 1497.12 L1372.38 1483.95 L1384.88 1475.73 L1397.39 1469.14 L1409.89 1451.04 L1422.4 1459.27 L1434.9 1472.43 L1447.41 1469.14 L1459.91 1462.56 L1472.42 1474.08 L1484.92 1472.43 L1497.43 1462.56 L1509.93 1464.21 L1522.44 1464.21 L1534.94 1459.27 L1547.45 1460.91 L1559.95 1470.79 L1572.46 1483.95 L1584.96 1490.54 L1597.47 1505.35 L1609.97 1521.81 L1622.48 1533.33 L1634.98 1539.91 L1647.49 1553.07 L1659.99 1559.66 L1672.5 1569.53 L1685 1579.4 L1697.51 1582.7 L1710.01 1585.99 L1722.52 1587.63 L1735.02 1589.28 L1747.53 1587.63 L1760.03 1592.57 L1772.54 1602.44 L1785.04 1609.03 L1797.55 1607.38 L1810.05 1610.67 L1822.56 1613.96 L1835.06 1612.32 L1847.57 1617.26 L1860.07 1630.42 L1872.58 1638.65 L1885.08 1638.65 L1897.59 1643.59 L1910.09 1638.65 L1922.6 1633.71 L1935.1 1635.36 L1947.61 1645.23 L1960.11 1645.23 L1972.62 1651.82 L1985.12 1653.46 L1997.63 1650.17 L2010.13 1645.23 L2022.64 1648.52 L2035.14 1650.17 L2047.65 1655.11 L2060.15 1663.34 L2072.66 1666.63 L2085.16 1666.63 L2097.67 1666.63 L2110.17 1664.98 L2122.68 1663.34 L2135.18 1664.98 L2147.69 1666.63 L2160.19 1668.27 L2172.7 1669.92 L2185.2 1669.92 L2197.71 1673.21 L2210.21 1674.86 L2222.72 1674.86 L2235.22 1673.21 L2247.73 1673.21 L2260.23 1669.92 L2272.74 1666.63 L2285.24 1664.98 L2297.75 1663.34 L2310.25 1664.98 L2322.76 1661.69 L2335.26 1650.17 L2347.77 1632.07 L2360.27 1597.51 L2372.77 1559.66 L2385.28 1526.74 L2397.78 1510.29 L2410.29 1495.47 L2422.79 1472.43 L2435.3 1432.94 L2447.8 1404.96 L2460.31 1381.92 L2472.81 1363.82 L2485.32 1385.21 L2497.82 1357.24 L2510.33 1286.47 L2522.83 1151.52 L2535.34 977.08 L2547.84 776.305 L2560.35 639.712 L2572.85 565.655 L2572.85 94.9858 L2560.35 215.122 L2547.84 401.086 L2535.34 659.46 L2522.83 886.566 L2510.33 1065.95 L2497.82 1161.4 L2485.32 1200.89 L2472.81 1177.85 L2460.31 1207.48 L2447.8 1243.68 L2435.3 1283.18 L2422.79 1337.49 L2410.29 1370.4 L2397.78 1391.8 L2385.28 1418.13 L2372.77 1464.21 L2360.27 1516.87 L2347.77 1567.89 L2335.26 1599.15 L2322.76 1617.26 L2310.25 1620.55 L2297.75 1620.55 L2285.24 1622.19 L2272.74 1623.84 L2260.23 1630.42 L2247.73 1635.36 L2235.22 1637 L2222.72 1638.65 L2210.21 1638.65 L2197.71 1633.71 L2185.2 1630.42 L2172.7 1630.42 L2160.19 1627.13 L2147.69 1623.84 L2135.18 1620.55 L2122.68 1617.26 L2110.17 1618.9 L2097.67 1622.19 L2085.16 1622.19 L2072.66 1620.55 L2060.15 1613.96 L2047.65 1602.44 L2035.14 1594.22 L2022.64 1590.92 L2010.13 1587.63 L1997.63 1594.22 L1985.12 1599.15 L1972.62 1594.22 L1960.11 1584.34 L1947.61 1582.7 L1935.1 1567.89 L1922.6 1566.24 L1910.09 1572.82 L1897.59 1577.76 L1885.08 1571.18 L1872.58 1569.53 L1860.07 1556.37 L1847.57 1536.62 L1835.06 1528.39 L1822.56 1528.39 L1810.05 1523.45 L1797.55 1518.51 L1785.04 1518.51 L1772.54 1508.64 L1760.03 1493.83 L1747.53 1485.6 L1735.02 1487.25 L1722.52 1482.31 L1710.01 1479.02 L1697.51 1472.43 L1685 1464.21 L1672.5 1447.75 L1659.99 1432.94 L1647.49 1419.77 L1634.98 1401.67 L1622.48 1388.5 L1609.97 1370.4 L1597.47 1345.72 L1584.96 1324.32 L1572.46 1316.09 L1559.95 1296.34 L1547.45 1283.18 L1534.94 1281.53 L1522.44 1286.47 L1509.93 1286.47 L1497.43 1283.18 L1484.92 1294.7 L1472.42 1296.34 L1459.91 1281.53 L1447.41 1289.76 L1434.9 1293.05 L1422.4 1274.95 L1409.89 1268.37 L1397.39 1291.41 L1384.88 1301.28 L1372.38 1312.8 L1359.87 1330.9 L1347.37 1349.01 L1334.86 1337.49 L1322.36 1325.97 L1309.85 1340.78 L1297.35 1358.88 L1284.84 1360.53 L1272.34 1368.76 L1259.83 1381.92 L1247.33 1375.34 L1234.82 1388.5 L1222.32 1418.13 L1209.82 1447.75 L1197.31 1454.33 L1184.81 1469.14 L1172.3 1465.85 L1159.8 1451.04 L1147.29 1444.46 L1134.79 1452.69 L1122.28 1460.91 L1109.78 1479.02 L1097.27 1506.99 L1084.77 1526.74 L1072.26 1536.62 L1059.76 1538.26 L1047.25 1546.49 L1034.75 1549.78 L1022.24 1553.07 L1009.74 1562.95 L997.231 1577.76 L984.726 1581.05 L972.221 1584.34 L959.716 1589.28 L947.211 1597.51 L934.706 1604.09 L922.201 1609.03 L909.696 1612.32 L897.191 1618.9 L884.686 1617.26 L872.182 1618.9 L859.677 1627.13 L847.172 1633.71 L834.667 1637 L822.162 1643.59 L809.657 1650.17 L797.152 1648.52 L784.647 1645.23 L772.142 1645.23 L759.637 1640.3 L747.132 1637 L734.627 1637 L722.122 1641.94 L709.617 1641.94 L697.112 1645.23 L684.607 1645.23 L672.102 1640.3 L659.597 1638.65 L647.093 1638.65 L634.588 1638.65 L622.083 1640.3 L609.578 1646.88 L597.073 1643.59 L584.568 1641.94 L572.063 1635.36 L559.558 1628.78 L547.053 1618.9 L534.548 1605.74 L522.043 1584.34 L509.538 1562.95 L497.033 1543.2 L484.528 1516.87 L472.023 1498.77 L459.518 1485.6 L447.013 1482.31 L434.508 1485.6 L422.003 1506.99 L409.499 1523.45 L396.994 1546.49 L384.489 1569.53 L371.984 1592.57 L359.479 1612.32 L346.974 1630.42  Z" fill="#e26f46" fill-rule="evenodd" fill-opacity="0.5"/>
<polyline clip-path="url(#clip862)" style="stroke:#e26f46; stroke-linecap:round; stroke-linejoin:round; stroke-width:4; stroke-opacity:1; fill:none" points="346.974,1664.04 359.479,1652.65 371.984,1640.1 384.489,1623 396.994,1604.28 409.499,1582.72 422.003,1564.24 434.508,1547.01 447.013,1546.4 459.518,1553.63 472.023,1565.64 484.528,1582.04 497.033,1602.22 509.538,1616.18 522.043,1630.93 534.548,1645.01 547.053,1653.36 559.558,1659.17 572.063,1663.13 584.568,1666.53 597.073,1666.72 609.578,1668.72 622.083,1664.79 634.588,1662.99 647.093,1661.9 659.597,1662.05 672.102,1662.81 684.607,1666.8 697.112,1666.66 709.617,1663.88 722.122,1663.17 734.627,1659.95 747.132,1659.87 759.637,1661.62 772.142,1665.36 784.647,1665.46 797.152,1667.3 809.657,1669.14 822.162,1664.23 834.667,1659.48 847.172,1657.22 859.677,1652.08 872.182,1645.17 884.686,1645.11 897.191,1645.5 909.696,1640.99 922.201,1637.72 934.706,1634.14 947.211,1629.36 959.716,1622.85 972.221,1618.66 984.726,1617.06 997.231,1614.68 1009.74,1602.91 1022.24,1595.05 1034.75,1593.03 1047.25,1589.45 1059.76,1582.76 1072.26,1581.71 1084.77,1574.95 1097.27,1558.29 1109.78,1535.36 1122.28,1520.58 1134.79,1514.37 1147.29,1508.51 1159.8,1515.02 1172.3,1527.3 1184.81,1530.47 1197.31,1517.59 1209.82,1512.4 1222.32,1488.1 1234.82,1462.43 1247.33,1451.97 1259.83,1459 1272.34,1447.92 1284.84,1440.33 1297.35,1439.24 1309.85,1424.05 1322.36,1412.17 1334.86,1421.91 1347.37,1432.97 1359.87,1417.52 1372.38,1401.69 1384.88,1391.93 1397.39,1382.74 1409.89,1362.99 1422.4,1370.04 1434.9,1385.55 1447.41,1383.1 1459.91,1375.5 1472.42,1387.53 1484.92,1386.33 1497.43,1376.05 1509.93,1378.61 1522.44,1378.3 1534.94,1373.25 1547.45,1374.61 1559.95,1387.12 1572.46,1402.94 1584.96,1410.61 1597.47,1428.67 1609.97,1449.42 1622.48,1463.2 1634.98,1473.62 1647.49,1488.84 1659.99,1499.36 1672.5,1511.86 1685,1524.84 1697.51,1530.06 1710.01,1534.88 1722.52,1537.26 1735.02,1540.82 1747.53,1539.5 1760.03,1545.75 1772.54,1558.29 1785.04,1566.04 1797.55,1565.95 1810.05,1569.58 1822.56,1573.74 1835.06,1573.25 1847.57,1579.45 1860.07,1595.73 1872.58,1606.5 1885.08,1607.59 1897.59,1612.44 1910.09,1608.44 1922.6,1602.57 1935.1,1604.09 1947.61,1615.2 1960.11,1617.18 1972.62,1624.93 1985.12,1627.98 1997.63,1624.64 2010.13,1618.49 2022.64,1621.7 2035.14,1624.16 2047.65,1630.36 2060.15,1640.34 2072.66,1644.93 2085.16,1645.95 2097.67,1645.7 2110.17,1643.92 2122.68,1642.51 2135.18,1644.2 2147.69,1646.56 2160.19,1649.38 2172.7,1651.77 2185.2,1652.51 2197.71,1654.87 2210.21,1658.28 2222.72,1657.83 2235.22,1656.75 2247.73,1655.78 2260.23,1651.73 2272.74,1646.56 2285.24,1644.54 2297.75,1643.88 2310.25,1644.32 2322.76,1641.22 2335.26,1626.33 2347.77,1601.52 2360.27,1559.53 2372.77,1513.93 2385.28,1474.96 2397.78,1453.07 2410.29,1435.31 2422.79,1407.58 2435.3,1360.75 2447.8,1326.89 2460.31,1297.4 2472.81,1273.77 2485.32,1295.89 2497.82,1261.85 2510.33,1179.2 2522.83,1023.08 2535.34,821.748 2547.84,593.184 2560.35,430.94 2572.85,333.425 "/>
<circle clip-path="url(#clip862)" cx="309.459" cy="1678.15" r="5.4" fill="#000000" fill-rule="evenodd" fill-opacity="1" stroke="none"/>
<circle clip-path="url(#clip862)" cx="321.964" cy="1673.21" r="5.4" fill="#000000" fill-rule="evenodd" fill-opacity="1" stroke="none"/>
<circle clip-path="url(#clip862)" cx="334.469" cy="1668.27" r="5.4" fill="#000000" fill-rule="evenodd" fill-opacity="1" stroke="none"/>
<circle clip-path="url(#clip862)" cx="346.974" cy="1656.75" r="5.4" fill="#000000" fill-rule="evenodd" fill-opacity="1" stroke="none"/>
<circle clip-path="url(#clip862)" cx="359.479" cy="1646.88" r="5.4" fill="#000000" fill-rule="evenodd" fill-opacity="1" stroke="none"/>
<circle clip-path="url(#clip862)" cx="371.984" cy="1632.07" r="5.4" fill="#000000" fill-rule="evenodd" fill-opacity="1" stroke="none"/>
<circle clip-path="url(#clip862)" cx="384.489" cy="1617.26" r="5.4" fill="#000000" fill-rule="evenodd" fill-opacity="1" stroke="none"/>
<circle clip-path="url(#clip862)" cx="396.994" cy="1599.15" r="5.4" fill="#000000" fill-rule="evenodd" fill-opacity="1" stroke="none"/>
<circle clip-path="url(#clip862)" cx="409.499" cy="1585.99" r="5.4" fill="#000000" fill-rule="evenodd" fill-opacity="1" stroke="none"/>
<circle clip-path="url(#clip862)" cx="422.003" cy="1572.82" r="5.4" fill="#000000" fill-rule="evenodd" fill-opacity="1" stroke="none"/>
<circle clip-path="url(#clip862)" cx="434.508" cy="1574.47" r="5.4" fill="#000000" fill-rule="evenodd" fill-opacity="1" stroke="none"/>
<circle clip-path="url(#clip862)" cx="447.013" cy="1576.11" r="5.4" fill="#000000" fill-rule="evenodd" fill-opacity="1" stroke="none"/>
<circle clip-path="url(#clip862)" cx="459.518" cy="1582.7" r="5.4" fill="#000000" fill-rule="evenodd" fill-opacity="1" stroke="none"/>
<circle clip-path="url(#clip862)" cx="472.023" cy="1594.22" r="5.4" fill="#000000" fill-rule="evenodd" fill-opacity="1" stroke="none"/>
<circle clip-path="url(#clip862)" cx="484.528" cy="1610.67" r="5.4" fill="#000000" fill-rule="evenodd" fill-opacity="1" stroke="none"/>
<circle clip-path="url(#clip862)" cx="497.033" cy="1620.55" r="5.4" fill="#000000" fill-rule="evenodd" fill-opacity="1" stroke="none"/>
<circle clip-path="url(#clip862)" cx="509.538" cy="1633.71" r="5.4" fill="#000000" fill-rule="evenodd" fill-opacity="1" stroke="none"/>
<circle clip-path="url(#clip862)" cx="522.043" cy="1646.88" r="5.4" fill="#000000" fill-rule="evenodd" fill-opacity="1" stroke="none"/>
<circle clip-path="url(#clip862)" cx="534.548" cy="1653.46" r="5.4" fill="#000000" fill-rule="evenodd" fill-opacity="1" stroke="none"/>
<circle clip-path="url(#clip862)" cx="547.053" cy="1658.4" r="5.4" fill="#000000" fill-rule="evenodd" fill-opacity="1" stroke="none"/>
<circle clip-path="url(#clip862)" cx="559.558" cy="1661.69" r="5.4" fill="#000000" fill-rule="evenodd" fill-opacity="1" stroke="none"/>
<circle clip-path="url(#clip862)" cx="572.063" cy="1664.98" r="5.4" fill="#000000" fill-rule="evenodd" fill-opacity="1" stroke="none"/>
<circle clip-path="url(#clip862)" cx="584.568" cy="1663.34" r="5.4" fill="#000000" fill-rule="evenodd" fill-opacity="1" stroke="none"/>
<circle clip-path="url(#clip862)" cx="597.073" cy="1666.63" r="5.4" fill="#000000" fill-rule="evenodd" fill-opacity="1" stroke="none"/>
<circle clip-path="url(#clip862)" cx="609.578" cy="1658.4" r="5.4" fill="#000000" fill-rule="evenodd" fill-opacity="1" stroke="none"/>
<circle clip-path="url(#clip862)" cx="622.083" cy="1658.4" r="5.4" fill="#000000" fill-rule="evenodd" fill-opacity="1" stroke="none"/>
<circle clip-path="url(#clip862)" cx="634.588" cy="1658.4" r="5.4" fill="#000000" fill-rule="evenodd" fill-opacity="1" stroke="none"/>
<circle clip-path="url(#clip862)" cx="647.093" cy="1660.04" r="5.4" fill="#000000" fill-rule="evenodd" fill-opacity="1" stroke="none"/>
<circle clip-path="url(#clip862)" cx="659.597" cy="1661.69" r="5.4" fill="#000000" fill-rule="evenodd" fill-opacity="1" stroke="none"/>
<circle clip-path="url(#clip862)" cx="672.102" cy="1668.27" r="5.4" fill="#000000" fill-rule="evenodd" fill-opacity="1" stroke="none"/>
<circle clip-path="url(#clip862)" cx="684.607" cy="1664.98" r="5.4" fill="#000000" fill-rule="evenodd" fill-opacity="1" stroke="none"/>
<circle clip-path="url(#clip862)" cx="697.112" cy="1660.04" r="5.4" fill="#000000" fill-rule="evenodd" fill-opacity="1" stroke="none"/>
<circle clip-path="url(#clip862)" cx="709.617" cy="1661.69" r="5.4" fill="#000000" fill-rule="evenodd" fill-opacity="1" stroke="none"/>
<circle clip-path="url(#clip862)" cx="722.122" cy="1656.75" r="5.4" fill="#000000" fill-rule="evenodd" fill-opacity="1" stroke="none"/>
<circle clip-path="url(#clip862)" cx="734.627" cy="1660.04" r="5.4" fill="#000000" fill-rule="evenodd" fill-opacity="1" stroke="none"/>
<circle clip-path="url(#clip862)" cx="747.132" cy="1663.34" r="5.4" fill="#000000" fill-rule="evenodd" fill-opacity="1" stroke="none"/>
<circle clip-path="url(#clip862)" cx="759.637" cy="1668.27" r="5.4" fill="#000000" fill-rule="evenodd" fill-opacity="1" stroke="none"/>
<circle clip-path="url(#clip862)" cx="772.142" cy="1664.98" r="5.4" fill="#000000" fill-rule="evenodd" fill-opacity="1" stroke="none"/>
<circle clip-path="url(#clip862)" cx="784.647" cy="1668.27" r="5.4" fill="#000000" fill-rule="evenodd" fill-opacity="1" stroke="none"/>
<circle clip-path="url(#clip862)" cx="797.152" cy="1669.92" r="5.4" fill="#000000" fill-rule="evenodd" fill-opacity="1" stroke="none"/>
<circle clip-path="url(#clip862)" cx="809.657" cy="1658.4" r="5.4" fill="#000000" fill-rule="evenodd" fill-opacity="1" stroke="none"/>
<circle clip-path="url(#clip862)" cx="822.162" cy="1655.11" r="5.4" fill="#000000" fill-rule="evenodd" fill-opacity="1" stroke="none"/>
<circle clip-path="url(#clip862)" cx="834.667" cy="1656.75" r="5.4" fill="#000000" fill-rule="evenodd" fill-opacity="1" stroke="none"/>
<circle clip-path="url(#clip862)" cx="847.172" cy="1650.17" r="5.4" fill="#000000" fill-rule="evenodd" fill-opacity="1" stroke="none"/>
<circle clip-path="url(#clip862)" cx="859.677" cy="1643.59" r="5.4" fill="#000000" fill-rule="evenodd" fill-opacity="1" stroke="none"/>
<circle clip-path="url(#clip862)" cx="872.182" cy="1650.17" r="5.4" fill="#000000" fill-rule="evenodd" fill-opacity="1" stroke="none"/>
<circle clip-path="url(#clip862)" cx="884.686" cy="1650.17" r="5.4" fill="#000000" fill-rule="evenodd" fill-opacity="1" stroke="none"/>
<circle clip-path="url(#clip862)" cx="897.191" cy="1641.94" r="5.4" fill="#000000" fill-rule="evenodd" fill-opacity="1" stroke="none"/>
<circle clip-path="url(#clip862)" cx="909.696" cy="1640.3" r="5.4" fill="#000000" fill-rule="evenodd" fill-opacity="1" stroke="none"/>
<circle clip-path="url(#clip862)" cx="922.201" cy="1637" r="5.4" fill="#000000" fill-rule="evenodd" fill-opacity="1" stroke="none"/>
<circle clip-path="url(#clip862)" cx="934.706" cy="1632.07" r="5.4" fill="#000000" fill-rule="evenodd" fill-opacity="1" stroke="none"/>
<circle clip-path="url(#clip862)" cx="947.211" cy="1625.48" r="5.4" fill="#000000" fill-rule="evenodd" fill-opacity="1" stroke="none"/>
<circle clip-path="url(#clip862)" cx="959.716" cy="1623.84" r="5.4" fill="#000000" fill-rule="evenodd" fill-opacity="1" stroke="none"/>
<circle clip-path="url(#clip862)" cx="972.221" cy="1623.84" r="5.4" fill="#000000" fill-rule="evenodd" fill-opacity="1" stroke="none"/>
<circle clip-path="url(#clip862)" cx="984.726" cy="1620.55" r="5.4" fill="#000000" fill-rule="evenodd" fill-opacity="1" stroke="none"/>
<circle clip-path="url(#clip862)" cx="997.231" cy="1604.09" r="5.4" fill="#000000" fill-rule="evenodd" fill-opacity="1" stroke="none"/>
<circle clip-path="url(#clip862)" cx="1009.74" cy="1600.8" r="5.4" fill="#000000" fill-rule="evenodd" fill-opacity="1" stroke="none"/>
<circle clip-path="url(#clip862)" cx="1022.24" cy="1602.44" r="5.4" fill="#000000" fill-rule="evenodd" fill-opacity="1" stroke="none"/>
<circle clip-path="url(#clip862)" cx="1034.75" cy="1597.51" r="5.4" fill="#000000" fill-rule="evenodd" fill-opacity="1" stroke="none"/>
<circle clip-path="url(#clip862)" cx="1047.25" cy="1589.28" r="5.4" fill="#000000" fill-rule="evenodd" fill-opacity="1" stroke="none"/>
<circle clip-path="url(#clip862)" cx="1059.76" cy="1590.92" r="5.4" fill="#000000" fill-rule="evenodd" fill-opacity="1" stroke="none"/>
<circle clip-path="url(#clip862)" cx="1072.26" cy="1581.05" r="5.4" fill="#000000" fill-rule="evenodd" fill-opacity="1" stroke="none"/>
<circle clip-path="url(#clip862)" cx="1084.77" cy="1561.3" r="5.4" fill="#000000" fill-rule="evenodd" fill-opacity="1" stroke="none"/>
<circle clip-path="url(#clip862)" cx="1097.27" cy="1539.91" r="5.4" fill="#000000" fill-rule="evenodd" fill-opacity="1" stroke="none"/>
<circle clip-path="url(#clip862)" cx="1109.78" cy="1533.33" r="5.4" fill="#000000" fill-rule="evenodd" fill-opacity="1" stroke="none"/>
<circle clip-path="url(#clip862)" cx="1122.28" cy="1531.68" r="5.4" fill="#000000" fill-rule="evenodd" fill-opacity="1" stroke="none"/>
<circle clip-path="url(#clip862)" cx="1134.79" cy="1525.1" r="5.4" fill="#000000" fill-rule="evenodd" fill-opacity="1" stroke="none"/>
<circle clip-path="url(#clip862)" cx="1147.29" cy="1533.33" r="5.4" fill="#000000" fill-rule="evenodd" fill-opacity="1" stroke="none"/>
<circle clip-path="url(#clip862)" cx="1159.8" cy="1543.2" r="5.4" fill="#000000" fill-rule="evenodd" fill-opacity="1" stroke="none"/>
<circle clip-path="url(#clip862)" cx="1172.3" cy="1539.91" r="5.4" fill="#000000" fill-rule="evenodd" fill-opacity="1" stroke="none"/>
<circle clip-path="url(#clip862)" cx="1184.81" cy="1520.16" r="5.4" fill="#000000" fill-rule="evenodd" fill-opacity="1" stroke="none"/>
<circle clip-path="url(#clip862)" cx="1197.31" cy="1518.51" r="5.4" fill="#000000" fill-rule="evenodd" fill-opacity="1" stroke="none"/>
<circle clip-path="url(#clip862)" cx="1209.82" cy="1488.89" r="5.4" fill="#000000" fill-rule="evenodd" fill-opacity="1" stroke="none"/>
<circle clip-path="url(#clip862)" cx="1222.32" cy="1467.5" r="5.4" fill="#000000" fill-rule="evenodd" fill-opacity="1" stroke="none"/>
<circle clip-path="url(#clip862)" cx="1234.82" cy="1465.85" r="5.4" fill="#000000" fill-rule="evenodd" fill-opacity="1" stroke="none"/>
<circle clip-path="url(#clip862)" cx="1247.33" cy="1477.37" r="5.4" fill="#000000" fill-rule="evenodd" fill-opacity="1" stroke="none"/>
<circle clip-path="url(#clip862)" cx="1259.83" cy="1459.27" r="5.4" fill="#000000" fill-rule="evenodd" fill-opacity="1" stroke="none"/>
<circle clip-path="url(#clip862)" cx="1272.34" cy="1452.69" r="5.4" fill="#000000" fill-rule="evenodd" fill-opacity="1" stroke="none"/>
<circle clip-path="url(#clip862)" cx="1284.84" cy="1452.69" r="5.4" fill="#000000" fill-rule="evenodd" fill-opacity="1" stroke="none"/>
<circle clip-path="url(#clip862)" cx="1297.35" cy="1432.94" r="5.4" fill="#000000" fill-rule="evenodd" fill-opacity="1" stroke="none"/>
<circle clip-path="url(#clip862)" cx="1309.85" cy="1423.06" r="5.4" fill="#000000" fill-rule="evenodd" fill-opacity="1" stroke="none"/>
<circle clip-path="url(#clip862)" cx="1322.36" cy="1437.87" r="5.4" fill="#000000" fill-rule="evenodd" fill-opacity="1" stroke="none"/>
<circle clip-path="url(#clip862)" cx="1334.86" cy="1446.1" r="5.4" fill="#000000" fill-rule="evenodd" fill-opacity="1" stroke="none"/>
<circle clip-path="url(#clip862)" cx="1347.37" cy="1421.42" r="5.4" fill="#000000" fill-rule="evenodd" fill-opacity="1" stroke="none"/>
<circle clip-path="url(#clip862)" cx="1359.87" cy="1406.61" r="5.4" fill="#000000" fill-rule="evenodd" fill-opacity="1" stroke="none"/>
<circle clip-path="url(#clip862)" cx="1372.38" cy="1400.02" r="5.4" fill="#000000" fill-rule="evenodd" fill-opacity="1" stroke="none"/>
<circle clip-path="url(#clip862)" cx="1384.88" cy="1391.8" r="5.4" fill="#000000" fill-rule="evenodd" fill-opacity="1" stroke="none"/>
<circle clip-path="url(#clip862)" cx="1397.39" cy="1370.4" r="5.4" fill="#000000" fill-rule="evenodd" fill-opacity="1" stroke="none"/>
<circle clip-path="url(#clip862)" cx="1409.89" cy="1385.21" r="5.4" fill="#000000" fill-rule="evenodd" fill-opacity="1" stroke="none"/>
<circle clip-path="url(#clip862)" cx="1422.4" cy="1400.02" r="5.4" fill="#000000" fill-rule="evenodd" fill-opacity="1" stroke="none"/>
<circle clip-path="url(#clip862)" cx="1434.9" cy="1390.15" r="5.4" fill="#000000" fill-rule="evenodd" fill-opacity="1" stroke="none"/>
<circle clip-path="url(#clip862)" cx="1447.41" cy="1380.28" r="5.4" fill="#000000" fill-rule="evenodd" fill-opacity="1" stroke="none"/>
<circle clip-path="url(#clip862)" cx="1459.91" cy="1396.73" r="5.4" fill="#000000" fill-rule="evenodd" fill-opacity="1" stroke="none"/>
<circle clip-path="url(#clip862)" cx="1472.42" cy="1390.15" r="5.4" fill="#000000" fill-rule="evenodd" fill-opacity="1" stroke="none"/>
<circle clip-path="url(#clip862)" cx="1484.92" cy="1376.98" r="5.4" fill="#000000" fill-rule="evenodd" fill-opacity="1" stroke="none"/>
<circle clip-path="url(#clip862)" cx="1497.43" cy="1383.57" r="5.4" fill="#000000" fill-rule="evenodd" fill-opacity="1" stroke="none"/>
<circle clip-path="url(#clip862)" cx="1509.93" cy="1381.92" r="5.4" fill="#000000" fill-rule="evenodd" fill-opacity="1" stroke="none"/>
<circle clip-path="url(#clip862)" cx="1522.44" cy="1375.34" r="5.4" fill="#000000" fill-rule="evenodd" fill-opacity="1" stroke="none"/>
<circle clip-path="url(#clip862)" cx="1534.94" cy="1378.63" r="5.4" fill="#000000" fill-rule="evenodd" fill-opacity="1" stroke="none"/>
<circle clip-path="url(#clip862)" cx="1547.45" cy="1393.44" r="5.4" fill="#000000" fill-rule="evenodd" fill-opacity="1" stroke="none"/>
<circle clip-path="url(#clip862)" cx="1559.95" cy="1408.25" r="5.4" fill="#000000" fill-rule="evenodd" fill-opacity="1" stroke="none"/>
<circle clip-path="url(#clip862)" cx="1572.46" cy="1411.54" r="5.4" fill="#000000" fill-rule="evenodd" fill-opacity="1" stroke="none"/>
<circle clip-path="url(#clip862)" cx="1584.96" cy="1431.29" r="5.4" fill="#000000" fill-rule="evenodd" fill-opacity="1" stroke="none"/>
<circle clip-path="url(#clip862)" cx="1597.47" cy="1451.04" r="5.4" fill="#000000" fill-rule="evenodd" fill-opacity="1" stroke="none"/>
<circle clip-path="url(#clip862)" cx="1609.97" cy="1460.91" r="5.4" fill="#000000" fill-rule="evenodd" fill-opacity="1" stroke="none"/>
<circle clip-path="url(#clip862)" cx="1622.48" cy="1469.14" r="5.4" fill="#000000" fill-rule="evenodd" fill-opacity="1" stroke="none"/>
<circle clip-path="url(#clip862)" cx="1634.98" cy="1485.6" r="5.4" fill="#000000" fill-rule="evenodd" fill-opacity="1" stroke="none"/>
<circle clip-path="url(#clip862)" cx="1647.49" cy="1493.83" r="5.4" fill="#000000" fill-rule="evenodd" fill-opacity="1" stroke="none"/>
<circle clip-path="url(#clip862)" cx="1659.99" cy="1506.99" r="5.4" fill="#000000" fill-rule="evenodd" fill-opacity="1" stroke="none"/>
<circle clip-path="url(#clip862)" cx="1672.5" cy="1520.16" r="5.4" fill="#000000" fill-rule="evenodd" fill-opacity="1" stroke="none"/>
<circle clip-path="url(#clip862)" cx="1685" cy="1521.81" r="5.4" fill="#000000" fill-rule="evenodd" fill-opacity="1" stroke="none"/>
<circle clip-path="url(#clip862)" cx="1697.51" cy="1526.74" r="5.4" fill="#000000" fill-rule="evenodd" fill-opacity="1" stroke="none"/>
<circle clip-path="url(#clip862)" cx="1710.01" cy="1528.39" r="5.4" fill="#000000" fill-rule="evenodd" fill-opacity="1" stroke="none"/>
<circle clip-path="url(#clip862)" cx="1722.52" cy="1533.33" r="5.4" fill="#000000" fill-rule="evenodd" fill-opacity="1" stroke="none"/>
<circle clip-path="url(#clip862)" cx="1735.02" cy="1530.03" r="5.4" fill="#000000" fill-rule="evenodd" fill-opacity="1" stroke="none"/>
<circle clip-path="url(#clip862)" cx="1747.53" cy="1541.55" r="5.4" fill="#000000" fill-rule="evenodd" fill-opacity="1" stroke="none"/>
<circle clip-path="url(#clip862)" cx="1760.03" cy="1558.01" r="5.4" fill="#000000" fill-rule="evenodd" fill-opacity="1" stroke="none"/>
<circle clip-path="url(#clip862)" cx="1772.54" cy="1562.95" r="5.4" fill="#000000" fill-rule="evenodd" fill-opacity="1" stroke="none"/>
<circle clip-path="url(#clip862)" cx="1785.04" cy="1558.01" r="5.4" fill="#000000" fill-rule="evenodd" fill-opacity="1" stroke="none"/>
<circle clip-path="url(#clip862)" cx="1797.55" cy="1564.59" r="5.4" fill="#000000" fill-rule="evenodd" fill-opacity="1" stroke="none"/>
<circle clip-path="url(#clip862)" cx="1810.05" cy="1569.53" r="5.4" fill="#000000" fill-rule="evenodd" fill-opacity="1" stroke="none"/>
<circle clip-path="url(#clip862)" cx="1822.56" cy="1566.24" r="5.4" fill="#000000" fill-rule="evenodd" fill-opacity="1" stroke="none"/>
<circle clip-path="url(#clip862)" cx="1835.06" cy="1577.76" r="5.4" fill="#000000" fill-rule="evenodd" fill-opacity="1" stroke="none"/>
<circle clip-path="url(#clip862)" cx="1847.57" cy="1600.8" r="5.4" fill="#000000" fill-rule="evenodd" fill-opacity="1" stroke="none"/>
<circle clip-path="url(#clip862)" cx="1860.07" cy="1607.38" r="5.4" fill="#000000" fill-rule="evenodd" fill-opacity="1" stroke="none"/>
<circle clip-path="url(#clip862)" cx="1872.58" cy="1600.8" r="5.4" fill="#000000" fill-rule="evenodd" fill-opacity="1" stroke="none"/>
<circle clip-path="url(#clip862)" cx="1885.08" cy="1609.03" r="5.4" fill="#000000" fill-rule="evenodd" fill-opacity="1" stroke="none"/>
<circle clip-path="url(#clip862)" cx="1897.59" cy="1597.51" r="5.4" fill="#000000" fill-rule="evenodd" fill-opacity="1" stroke="none"/>
<circle clip-path="url(#clip862)" cx="1910.09" cy="1590.92" r="5.4" fill="#000000" fill-rule="evenodd" fill-opacity="1" stroke="none"/>
<circle clip-path="url(#clip862)" cx="1922.6" cy="1600.8" r="5.4" fill="#000000" fill-rule="evenodd" fill-opacity="1" stroke="none"/>
<circle clip-path="url(#clip862)" cx="1935.1" cy="1620.55" r="5.4" fill="#000000" fill-rule="evenodd" fill-opacity="1" stroke="none"/>
<circle clip-path="url(#clip862)" cx="1947.61" cy="1613.96" r="5.4" fill="#000000" fill-rule="evenodd" fill-opacity="1" stroke="none"/>
<circle clip-path="url(#clip862)" cx="1960.11" cy="1627.13" r="5.4" fill="#000000" fill-rule="evenodd" fill-opacity="1" stroke="none"/>
<circle clip-path="url(#clip862)" cx="1972.62" cy="1625.48" r="5.4" fill="#000000" fill-rule="evenodd" fill-opacity="1" stroke="none"/>
<circle clip-path="url(#clip862)" cx="1985.12" cy="1615.61" r="5.4" fill="#000000" fill-rule="evenodd" fill-opacity="1" stroke="none"/>
<circle clip-path="url(#clip862)" cx="1997.63" cy="1607.38" r="5.4" fill="#000000" fill-rule="evenodd" fill-opacity="1" stroke="none"/>
<circle clip-path="url(#clip862)" cx="2010.13" cy="1622.19" r="5.4" fill="#000000" fill-rule="evenodd" fill-opacity="1" stroke="none"/>
<circle clip-path="url(#clip862)" cx="2022.64" cy="1623.84" r="5.4" fill="#000000" fill-rule="evenodd" fill-opacity="1" stroke="none"/>
<circle clip-path="url(#clip862)" cx="2035.14" cy="1633.71" r="5.4" fill="#000000" fill-rule="evenodd" fill-opacity="1" stroke="none"/>
<circle clip-path="url(#clip862)" cx="2047.65" cy="1646.88" r="5.4" fill="#000000" fill-rule="evenodd" fill-opacity="1" stroke="none"/>
<circle clip-path="url(#clip862)" cx="2060.15" cy="1645.23" r="5.4" fill="#000000" fill-rule="evenodd" fill-opacity="1" stroke="none"/>
<circle clip-path="url(#clip862)" cx="2072.66" cy="1641.94" r="5.4" fill="#000000" fill-rule="evenodd" fill-opacity="1" stroke="none"/>
<circle clip-path="url(#clip862)" cx="2085.16" cy="1640.3" r="5.4" fill="#000000" fill-rule="evenodd" fill-opacity="1" stroke="none"/>
<circle clip-path="url(#clip862)" cx="2097.67" cy="1637" r="5.4" fill="#000000" fill-rule="evenodd" fill-opacity="1" stroke="none"/>
<circle clip-path="url(#clip862)" cx="2110.17" cy="1637" r="5.4" fill="#000000" fill-rule="evenodd" fill-opacity="1" stroke="none"/>
<circle clip-path="url(#clip862)" cx="2122.68" cy="1643.59" r="5.4" fill="#000000" fill-rule="evenodd" fill-opacity="1" stroke="none"/>
<circle clip-path="url(#clip862)" cx="2135.18" cy="1646.88" r="5.4" fill="#000000" fill-rule="evenodd" fill-opacity="1" stroke="none"/>
<circle clip-path="url(#clip862)" cx="2147.69" cy="1650.17" r="5.4" fill="#000000" fill-rule="evenodd" fill-opacity="1" stroke="none"/>
<circle clip-path="url(#clip862)" cx="2160.19" cy="1651.82" r="5.4" fill="#000000" fill-rule="evenodd" fill-opacity="1" stroke="none"/>
<circle clip-path="url(#clip862)" cx="2172.7" cy="1650.17" r="5.4" fill="#000000" fill-rule="evenodd" fill-opacity="1" stroke="none"/>
<circle clip-path="url(#clip862)" cx="2185.2" cy="1655.11" r="5.4" fill="#000000" fill-rule="evenodd" fill-opacity="1" stroke="none"/>
<circle clip-path="url(#clip862)" cx="2197.71" cy="1660.04" r="5.4" fill="#000000" fill-rule="evenodd" fill-opacity="1" stroke="none"/>
<circle clip-path="url(#clip862)" cx="2210.21" cy="1653.46" r="5.4" fill="#000000" fill-rule="evenodd" fill-opacity="1" stroke="none"/>
<circle clip-path="url(#clip862)" cx="2222.72" cy="1651.82" r="5.4" fill="#000000" fill-rule="evenodd" fill-opacity="1" stroke="none"/>
<circle clip-path="url(#clip862)" cx="2235.22" cy="1651.82" r="5.4" fill="#000000" fill-rule="evenodd" fill-opacity="1" stroke="none"/>
<circle clip-path="url(#clip862)" cx="2247.73" cy="1643.59" r="5.4" fill="#000000" fill-rule="evenodd" fill-opacity="1" stroke="none"/>
<circle clip-path="url(#clip862)" cx="2260.23" cy="1638.65" r="5.4" fill="#000000" fill-rule="evenodd" fill-opacity="1" stroke="none"/>
<circle clip-path="url(#clip862)" cx="2272.74" cy="1643.59" r="5.4" fill="#000000" fill-rule="evenodd" fill-opacity="1" stroke="none"/>
<circle clip-path="url(#clip862)" cx="2285.24" cy="1645.23" r="5.4" fill="#000000" fill-rule="evenodd" fill-opacity="1" stroke="none"/>
<circle clip-path="url(#clip862)" cx="2297.75" cy="1646.88" r="5.4" fill="#000000" fill-rule="evenodd" fill-opacity="1" stroke="none"/>
<circle clip-path="url(#clip862)" cx="2310.25" cy="1638.65" r="5.4" fill="#000000" fill-rule="evenodd" fill-opacity="1" stroke="none"/>
<circle clip-path="url(#clip862)" cx="2322.76" cy="1610.67" r="5.4" fill="#000000" fill-rule="evenodd" fill-opacity="1" stroke="none"/>
<circle clip-path="url(#clip862)" cx="2335.26" cy="1585.99" r="5.4" fill="#000000" fill-rule="evenodd" fill-opacity="1" stroke="none"/>
<circle clip-path="url(#clip862)" cx="2347.77" cy="1546.49" r="5.4" fill="#000000" fill-rule="evenodd" fill-opacity="1" stroke="none"/>
<circle clip-path="url(#clip862)" cx="2360.27" cy="1523.45" r="5.4" fill="#000000" fill-rule="evenodd" fill-opacity="1" stroke="none"/>
<circle clip-path="url(#clip862)" cx="2372.77" cy="1506.99" r="5.4" fill="#000000" fill-rule="evenodd" fill-opacity="1" stroke="none"/>
<circle clip-path="url(#clip862)" cx="2385.28" cy="1500.41" r="5.4" fill="#000000" fill-rule="evenodd" fill-opacity="1" stroke="none"/>
<circle clip-path="url(#clip862)" cx="2397.78" cy="1482.31" r="5.4" fill="#000000" fill-rule="evenodd" fill-opacity="1" stroke="none"/>
<circle clip-path="url(#clip862)" cx="2410.29" cy="1449.39" r="5.4" fill="#000000" fill-rule="evenodd" fill-opacity="1" stroke="none"/>
<circle clip-path="url(#clip862)" cx="2422.79" cy="1400.02" r="5.4" fill="#000000" fill-rule="evenodd" fill-opacity="1" stroke="none"/>
<circle clip-path="url(#clip862)" cx="2435.3" cy="1378.63" r="5.4" fill="#000000" fill-rule="evenodd" fill-opacity="1" stroke="none"/>
<circle clip-path="url(#clip862)" cx="2447.8" cy="1352.3" r="5.4" fill="#000000" fill-rule="evenodd" fill-opacity="1" stroke="none"/>
<circle clip-path="url(#clip862)" cx="2460.31" cy="1329.26" r="5.4" fill="#000000" fill-rule="evenodd" fill-opacity="1" stroke="none"/>
<circle clip-path="url(#clip862)" cx="2472.81" cy="1355.59" r="5.4" fill="#000000" fill-rule="evenodd" fill-opacity="1" stroke="none"/>
<circle clip-path="url(#clip862)" cx="2485.32" cy="1297.99" r="5.4" fill="#000000" fill-rule="evenodd" fill-opacity="1" stroke="none"/>
<circle clip-path="url(#clip862)" cx="2497.82" cy="1209.12" r="5.4" fill="#000000" fill-rule="evenodd" fill-opacity="1" stroke="none"/>
<circle clip-path="url(#clip862)" cx="2510.33" cy="1062.66" r="5.4" fill="#000000" fill-rule="evenodd" fill-opacity="1" stroke="none"/>
<circle clip-path="url(#clip862)" cx="2522.83" cy="904.669" r="5.4" fill="#000000" fill-rule="evenodd" fill-opacity="1" stroke="none"/>
<circle clip-path="url(#clip862)" cx="2535.34" cy="735.162" r="5.4" fill="#000000" fill-rule="evenodd" fill-opacity="1" stroke="none"/>
<circle clip-path="url(#clip862)" cx="2547.84" cy="628.192" r="5.4" fill="#000000" fill-rule="evenodd" fill-opacity="1" stroke="none"/>
<circle clip-path="url(#clip862)" cx="2560.35" cy="547.553" r="5.4" fill="#000000" fill-rule="evenodd" fill-opacity="1" stroke="none"/>
<circle clip-path="url(#clip862)" cx="2572.85" cy="527.804" r="5.4" fill="#000000" fill-rule="evenodd" fill-opacity="1" stroke="none"/>
<path clip-path="url(#clip860)" d="M321.53 310.833 L853.764 310.833 L853.764 103.473 L321.53 103.473  Z" fill="#ffffff" fill-rule="evenodd" fill-opacity="1"/>
<polyline clip-path="url(#clip860)" style="stroke:#000000; stroke-linecap:round; stroke-linejoin:round; stroke-width:4; stroke-opacity:1; fill:none" points="321.53,310.833 853.764,310.833 853.764,103.473 321.53,103.473 321.53,310.833 "/>
<polyline clip-path="url(#clip860)" style="stroke:#009af9; stroke-linecap:round; stroke-linejoin:round; stroke-width:4; stroke-opacity:1; fill:none" points="348.188,155.313 508.135,155.313 "/>
<path clip-path="url(#clip860)" d="M539.468 141.876 L539.468 168.751 L545.117 168.751 Q552.269 168.751 555.579 165.51 Q558.913 162.269 558.913 155.278 Q558.913 148.334 555.579 145.116 Q552.269 141.876 545.117 141.876 L539.468 141.876 M534.793 138.033 L544.399 138.033 Q554.445 138.033 559.144 142.223 Q563.843 146.39 563.843 155.278 Q563.843 164.214 559.121 168.403 Q554.399 172.593 544.399 172.593 L534.793 172.593 L534.793 138.033 Z" fill="#000000" fill-rule="nonzero" fill-opacity="1" /><path clip-path="url(#clip860)" d="M593.288 158.565 L593.288 160.649 L573.704 160.649 Q573.982 165.047 576.343 167.362 Q578.727 169.653 582.964 169.653 Q585.417 169.653 587.709 169.052 Q590.024 168.45 592.292 167.246 L592.292 171.274 Q590.001 172.246 587.593 172.755 Q585.186 173.264 582.709 173.264 Q576.505 173.264 572.871 169.653 Q569.26 166.042 569.26 159.885 Q569.26 153.519 572.686 149.792 Q576.135 146.042 581.968 146.042 Q587.2 146.042 590.232 149.422 Q593.288 152.778 593.288 158.565 M589.028 157.315 Q588.982 153.82 587.061 151.737 Q585.163 149.653 582.015 149.653 Q578.45 149.653 576.297 151.667 Q574.167 153.681 573.843 157.339 L589.028 157.315 Z" fill="#000000" fill-rule="nonzero" fill-opacity="1" /><path clip-path="url(#clip860)" d="M613.403 136.575 L613.403 140.117 L609.329 140.117 Q607.038 140.117 606.135 141.042 Q605.255 141.968 605.255 144.376 L605.255 146.667 L612.269 146.667 L612.269 149.978 L605.255 149.978 L605.255 172.593 L600.973 172.593 L600.973 149.978 L596.899 149.978 L596.899 146.667 L600.973 146.667 L600.973 144.862 Q600.973 140.533 602.987 138.566 Q605 136.575 609.375 136.575 L613.403 136.575 Z" fill="#000000" fill-rule="nonzero" fill-opacity="1" /><path clip-path="url(#clip860)" d="M628.75 159.561 Q623.588 159.561 621.598 160.741 Q619.607 161.922 619.607 164.769 Q619.607 167.038 621.088 168.38 Q622.593 169.7 625.162 169.7 Q628.704 169.7 630.834 167.2 Q632.986 164.677 632.986 160.51 L632.986 159.561 L628.75 159.561 M637.246 157.802 L637.246 172.593 L632.986 172.593 L632.986 168.658 Q631.528 171.019 629.352 172.153 Q627.176 173.264 624.028 173.264 Q620.047 173.264 617.686 171.042 Q615.348 168.797 615.348 165.047 Q615.348 160.672 618.264 158.45 Q621.204 156.228 627.014 156.228 L632.986 156.228 L632.986 155.811 Q632.986 152.871 631.042 151.274 Q629.121 149.653 625.625 149.653 Q623.403 149.653 621.297 150.186 Q619.19 150.718 617.246 151.783 L617.246 147.848 Q619.584 146.945 621.783 146.505 Q623.982 146.042 626.065 146.042 Q631.69 146.042 634.468 148.959 Q637.246 151.876 637.246 157.802 Z" fill="#000000" fill-rule="nonzero" fill-opacity="1" /><path clip-path="url(#clip860)" d="M645.579 162.362 L645.579 146.667 L649.838 146.667 L649.838 162.2 Q649.838 165.88 651.273 167.732 Q652.709 169.561 655.579 169.561 Q659.028 169.561 661.019 167.362 Q663.033 165.163 663.033 161.366 L663.033 146.667 L667.292 146.667 L667.292 172.593 L663.033 172.593 L663.033 168.612 Q661.482 170.973 659.422 172.13 Q657.384 173.264 654.676 173.264 Q650.209 173.264 647.894 170.487 Q645.579 167.709 645.579 162.362 M656.297 146.042 L656.297 146.042 Z" fill="#000000" fill-rule="nonzero" fill-opacity="1" /><path clip-path="url(#clip860)" d="M676.065 136.575 L680.324 136.575 L680.324 172.593 L676.065 172.593 L676.065 136.575 Z" fill="#000000" fill-rule="nonzero" fill-opacity="1" /><path clip-path="url(#clip860)" d="M693.449 139.306 L693.449 146.667 L702.222 146.667 L702.222 149.978 L693.449 149.978 L693.449 164.052 Q693.449 167.223 694.306 168.126 Q695.185 169.028 697.847 169.028 L702.222 169.028 L702.222 172.593 L697.847 172.593 Q692.917 172.593 691.042 170.764 Q689.167 168.913 689.167 164.052 L689.167 149.978 L686.042 149.978 L686.042 146.667 L689.167 146.667 L689.167 139.306 L693.449 139.306 Z" fill="#000000" fill-rule="nonzero" fill-opacity="1" /><polyline clip-path="url(#clip860)" style="stroke:#e26f46; stroke-linecap:round; stroke-linejoin:round; stroke-width:4; stroke-opacity:1; fill:none" points="348.188,207.153 508.135,207.153 "/>
<path clip-path="url(#clip860)" d="M534.793 189.873 L541.76 189.873 L550.579 213.392 L559.445 189.873 L566.413 189.873 L566.413 224.433 L561.853 224.433 L561.853 194.086 L552.941 217.79 L548.242 217.79 L539.33 194.086 L539.33 224.433 L534.793 224.433 L534.793 189.873 Z" fill="#000000" fill-rule="nonzero" fill-opacity="1" /><path clip-path="url(#clip860)" d="M587.292 211.401 Q582.13 211.401 580.14 212.581 Q578.149 213.762 578.149 216.609 Q578.149 218.878 579.63 220.22 Q581.135 221.54 583.704 221.54 Q587.246 221.54 589.376 219.04 Q591.528 216.517 591.528 212.35 L591.528 211.401 L587.292 211.401 M595.788 209.642 L595.788 224.433 L591.528 224.433 L591.528 220.498 Q590.07 222.859 587.894 223.993 Q585.718 225.104 582.57 225.104 Q578.589 225.104 576.228 222.882 Q573.89 220.637 573.89 216.887 Q573.89 212.512 576.806 210.29 Q579.746 208.068 585.556 208.068 L591.528 208.068 L591.528 207.651 Q591.528 204.711 589.584 203.114 Q587.663 201.493 584.167 201.493 Q581.945 201.493 579.839 202.026 Q577.732 202.558 575.788 203.623 L575.788 199.688 Q578.126 198.785 580.325 198.345 Q582.524 197.882 584.607 197.882 Q590.232 197.882 593.01 200.799 Q595.788 203.716 595.788 209.642 Z" fill="#000000" fill-rule="nonzero" fill-opacity="1" /><path clip-path="url(#clip860)" d="M619.584 202.489 Q618.866 202.072 618.01 201.887 Q617.176 201.679 616.158 201.679 Q612.547 201.679 610.602 204.04 Q608.681 206.378 608.681 210.776 L608.681 224.433 L604.399 224.433 L604.399 198.507 L608.681 198.507 L608.681 202.535 Q610.024 200.174 612.176 199.04 Q614.329 197.882 617.408 197.882 Q617.848 197.882 618.38 197.952 Q618.912 197.998 619.561 198.114 L619.584 202.489 Z" fill="#000000" fill-rule="nonzero" fill-opacity="1" /><path clip-path="url(#clip860)" d="M640.278 211.169 Q640.278 206.54 638.357 203.993 Q636.459 201.447 633.01 201.447 Q629.584 201.447 627.662 203.993 Q625.764 206.54 625.764 211.169 Q625.764 215.776 627.662 218.322 Q629.584 220.868 633.01 220.868 Q636.459 220.868 638.357 218.322 Q640.278 215.776 640.278 211.169 M644.537 221.216 Q644.537 227.836 641.598 231.054 Q638.658 234.294 632.593 234.294 Q630.348 234.294 628.357 233.947 Q626.366 233.623 624.491 232.929 L624.491 228.785 Q626.366 229.804 628.195 230.29 Q630.024 230.776 631.922 230.776 Q636.111 230.776 638.195 228.577 Q640.278 226.401 640.278 221.98 L640.278 219.873 Q638.959 222.165 636.898 223.299 Q634.838 224.433 631.968 224.433 Q627.199 224.433 624.283 220.799 Q621.366 217.165 621.366 211.169 Q621.366 205.151 624.283 201.517 Q627.199 197.882 631.968 197.882 Q634.838 197.882 636.898 199.017 Q638.959 200.151 640.278 202.443 L640.278 198.507 L644.537 198.507 L644.537 221.216 Z" fill="#000000" fill-rule="nonzero" fill-opacity="1" /><path clip-path="url(#clip860)" d="M653.31 198.507 L657.57 198.507 L657.57 224.433 L653.31 224.433 L653.31 198.507 M653.31 188.415 L657.57 188.415 L657.57 193.808 L653.31 193.808 L653.31 188.415 Z" fill="#000000" fill-rule="nonzero" fill-opacity="1" /><path clip-path="url(#clip860)" d="M688.032 208.785 L688.032 224.433 L683.773 224.433 L683.773 208.924 Q683.773 205.243 682.338 203.415 Q680.903 201.586 678.033 201.586 Q674.583 201.586 672.593 203.785 Q670.602 205.984 670.602 209.78 L670.602 224.433 L666.32 224.433 L666.32 198.507 L670.602 198.507 L670.602 202.535 Q672.13 200.197 674.19 199.04 Q676.273 197.882 678.982 197.882 Q683.449 197.882 685.741 200.66 Q688.032 203.415 688.032 208.785 Z" fill="#000000" fill-rule="nonzero" fill-opacity="1" /><path clip-path="url(#clip860)" d="M708.31 211.401 Q703.148 211.401 701.157 212.581 Q699.167 213.762 699.167 216.609 Q699.167 218.878 700.648 220.22 Q702.153 221.54 704.722 221.54 Q708.264 221.54 710.393 219.04 Q712.546 216.517 712.546 212.35 L712.546 211.401 L708.31 211.401 M716.805 209.642 L716.805 224.433 L712.546 224.433 L712.546 220.498 Q711.088 222.859 708.912 223.993 Q706.736 225.104 703.588 225.104 Q699.606 225.104 697.245 222.882 Q694.907 220.637 694.907 216.887 Q694.907 212.512 697.824 210.29 Q700.764 208.068 706.574 208.068 L712.546 208.068 L712.546 207.651 Q712.546 204.711 710.602 203.114 Q708.68 201.493 705.185 201.493 Q702.963 201.493 700.856 202.026 Q698.75 202.558 696.806 203.623 L696.806 199.688 Q699.144 198.785 701.343 198.345 Q703.542 197.882 705.625 197.882 Q711.25 197.882 714.028 200.799 Q716.805 203.716 716.805 209.642 Z" fill="#000000" fill-rule="nonzero" fill-opacity="1" /><path clip-path="url(#clip860)" d="M725.579 188.415 L729.838 188.415 L729.838 224.433 L725.579 224.433 L725.579 188.415 Z" fill="#000000" fill-rule="nonzero" fill-opacity="1" /><path clip-path="url(#clip860)" d="M738.75 198.507 L743.009 198.507 L743.009 224.433 L738.75 224.433 L738.75 198.507 M738.75 188.415 L743.009 188.415 L743.009 193.808 L738.75 193.808 L738.75 188.415 Z" fill="#000000" fill-rule="nonzero" fill-opacity="1" /><path clip-path="url(#clip860)" d="M768.449 199.271 L768.449 203.299 Q766.643 202.373 764.699 201.91 Q762.754 201.447 760.671 201.447 Q757.5 201.447 755.902 202.419 Q754.328 203.392 754.328 205.336 Q754.328 206.818 755.463 207.674 Q756.597 208.507 760.023 209.271 L761.481 209.595 Q766.018 210.568 767.916 212.35 Q769.838 214.109 769.838 217.28 Q769.838 220.892 766.967 222.998 Q764.12 225.104 759.12 225.104 Q757.037 225.104 754.768 224.688 Q752.523 224.294 750.023 223.484 L750.023 219.086 Q752.384 220.313 754.676 220.938 Q756.967 221.54 759.213 221.54 Q762.222 221.54 763.842 220.521 Q765.463 219.48 765.463 217.605 Q765.463 215.868 764.282 214.943 Q763.125 214.017 759.166 213.16 L757.685 212.813 Q753.727 211.98 751.967 210.267 Q750.208 208.53 750.208 205.521 Q750.208 201.864 752.801 199.873 Q755.393 197.882 760.162 197.882 Q762.523 197.882 764.606 198.23 Q766.689 198.577 768.449 199.271 Z" fill="#000000" fill-rule="nonzero" fill-opacity="1" /><path clip-path="url(#clip860)" d="M798.796 210.405 L798.796 212.489 L779.213 212.489 Q779.49 216.887 781.851 219.202 Q784.236 221.493 788.472 221.493 Q790.925 221.493 793.217 220.892 Q795.532 220.29 797.8 219.086 L797.8 223.114 Q795.509 224.086 793.101 224.595 Q790.694 225.104 788.217 225.104 Q782.013 225.104 778.379 221.493 Q774.768 217.882 774.768 211.725 Q774.768 205.359 778.194 201.632 Q781.643 197.882 787.476 197.882 Q792.708 197.882 795.74 201.262 Q798.796 204.618 798.796 210.405 M794.537 209.155 Q794.49 205.66 792.569 203.577 Q790.671 201.493 787.523 201.493 Q783.958 201.493 781.805 203.507 Q779.675 205.521 779.351 209.179 L794.537 209.155 Z" fill="#000000" fill-rule="nonzero" fill-opacity="1" /><path clip-path="url(#clip860)" d="M822.847 202.443 L822.847 188.415 L827.106 188.415 L827.106 224.433 L822.847 224.433 L822.847 220.544 Q821.504 222.859 819.444 223.993 Q817.407 225.104 814.536 225.104 Q809.837 225.104 806.874 221.355 Q803.935 217.605 803.935 211.493 Q803.935 205.382 806.874 201.632 Q809.837 197.882 814.536 197.882 Q817.407 197.882 819.444 199.017 Q821.504 200.128 822.847 202.443 M808.333 211.493 Q808.333 216.192 810.254 218.878 Q812.198 221.54 815.578 221.54 Q818.958 221.54 820.902 218.878 Q822.847 216.192 822.847 211.493 Q822.847 206.794 820.902 204.132 Q818.958 201.447 815.578 201.447 Q812.198 201.447 810.254 204.132 Q808.333 206.794 808.333 211.493 Z" fill="#000000" fill-rule="nonzero" fill-opacity="1" /><circle clip-path="url(#clip860)" cx="428.161" cy="258.993" r="17.28" fill="#000000" fill-rule="evenodd" fill-opacity="1" stroke="none"/>
<path clip-path="url(#clip860)" d="M550.811 244.884 Q545.718 244.884 542.709 248.681 Q539.723 252.477 539.723 259.028 Q539.723 265.556 542.709 269.352 Q545.718 273.148 550.811 273.148 Q555.904 273.148 558.866 269.352 Q561.853 265.556 561.853 259.028 Q561.853 252.477 558.866 248.681 Q555.904 244.884 550.811 244.884 M550.811 241.088 Q558.079 241.088 562.431 245.972 Q566.783 250.834 566.783 259.028 Q566.783 267.199 562.431 272.083 Q558.079 276.944 550.811 276.944 Q543.519 276.944 539.144 272.083 Q534.793 267.222 534.793 259.028 Q534.793 250.834 539.144 245.972 Q543.519 241.088 550.811 241.088 Z" fill="#000000" fill-rule="nonzero" fill-opacity="1" /><path clip-path="url(#clip860)" d="M592.524 263.333 Q592.524 258.634 590.579 255.972 Q588.658 253.287 585.278 253.287 Q581.899 253.287 579.954 255.972 Q578.033 258.634 578.033 263.333 Q578.033 268.032 579.954 270.718 Q581.899 273.38 585.278 273.38 Q588.658 273.38 590.579 270.718 Q592.524 268.032 592.524 263.333 M578.033 254.283 Q579.376 251.968 581.413 250.857 Q583.473 249.722 586.32 249.722 Q591.042 249.722 593.982 253.472 Q596.945 257.222 596.945 263.333 Q596.945 269.445 593.982 273.195 Q591.042 276.944 586.32 276.944 Q583.473 276.944 581.413 275.833 Q579.376 274.699 578.033 272.384 L578.033 276.273 L573.751 276.273 L573.751 240.255 L578.033 240.255 L578.033 254.283 Z" fill="#000000" fill-rule="nonzero" fill-opacity="1" /><path clip-path="url(#clip860)" d="M620.533 251.111 L620.533 255.139 Q618.727 254.213 616.783 253.75 Q614.838 253.287 612.755 253.287 Q609.584 253.287 607.987 254.259 Q606.413 255.232 606.413 257.176 Q606.413 258.658 607.547 259.514 Q608.681 260.347 612.107 261.111 L613.565 261.435 Q618.102 262.408 620 264.19 Q621.922 265.949 621.922 269.12 Q621.922 272.732 619.051 274.838 Q616.204 276.944 611.204 276.944 Q609.121 276.944 606.852 276.528 Q604.607 276.134 602.107 275.324 L602.107 270.926 Q604.468 272.153 606.76 272.778 Q609.051 273.38 611.297 273.38 Q614.306 273.38 615.926 272.361 Q617.547 271.32 617.547 269.445 Q617.547 267.708 616.366 266.783 Q615.209 265.857 611.25 265 L609.769 264.653 Q605.811 263.82 604.051 262.107 Q602.292 260.37 602.292 257.361 Q602.292 253.704 604.885 251.713 Q607.477 249.722 612.246 249.722 Q614.607 249.722 616.69 250.07 Q618.774 250.417 620.533 251.111 Z" fill="#000000" fill-rule="nonzero" fill-opacity="1" /><path clip-path="url(#clip860)" d="M650.88 262.245 L650.88 264.329 L631.297 264.329 Q631.574 268.727 633.936 271.042 Q636.32 273.333 640.556 273.333 Q643.01 273.333 645.301 272.732 Q647.616 272.13 649.885 270.926 L649.885 274.954 Q647.593 275.926 645.185 276.435 Q642.778 276.944 640.301 276.944 Q634.098 276.944 630.463 273.333 Q626.852 269.722 626.852 263.565 Q626.852 257.199 630.278 253.472 Q633.727 249.722 639.56 249.722 Q644.792 249.722 647.824 253.102 Q650.88 256.458 650.88 262.245 M646.621 260.995 Q646.574 257.5 644.653 255.417 Q642.755 253.333 639.607 253.333 Q636.042 253.333 633.889 255.347 Q631.76 257.361 631.436 261.019 L646.621 260.995 Z" fill="#000000" fill-rule="nonzero" fill-opacity="1" /><path clip-path="url(#clip860)" d="M672.894 254.329 Q672.176 253.912 671.32 253.727 Q670.486 253.519 669.468 253.519 Q665.857 253.519 663.912 255.88 Q661.991 258.218 661.991 262.616 L661.991 276.273 L657.709 276.273 L657.709 250.347 L661.991 250.347 L661.991 254.375 Q663.334 252.014 665.486 250.88 Q667.639 249.722 670.718 249.722 Q671.158 249.722 671.69 249.792 Q672.222 249.838 672.871 249.954 L672.894 254.329 Z" fill="#000000" fill-rule="nonzero" fill-opacity="1" /><path clip-path="url(#clip860)" d="M674.306 250.347 L678.82 250.347 L686.921 272.107 L695.023 250.347 L699.537 250.347 L689.815 276.273 L684.028 276.273 L674.306 250.347 Z" fill="#000000" fill-rule="nonzero" fill-opacity="1" /><path clip-path="url(#clip860)" d="M727.592 262.245 L727.592 264.329 L708.009 264.329 Q708.287 268.727 710.648 271.042 Q713.032 273.333 717.268 273.333 Q719.722 273.333 722.014 272.732 Q724.329 272.13 726.597 270.926 L726.597 274.954 Q724.305 275.926 721.898 276.435 Q719.491 276.944 717.014 276.944 Q710.81 276.944 707.176 273.333 Q703.565 269.722 703.565 263.565 Q703.565 257.199 706.991 253.472 Q710.44 249.722 716.273 249.722 Q721.505 249.722 724.537 253.102 Q727.592 256.458 727.592 262.245 M723.333 260.995 Q723.287 257.5 721.366 255.417 Q719.467 253.333 716.319 253.333 Q712.755 253.333 710.602 255.347 Q708.472 257.361 708.148 261.019 L723.333 260.995 Z" fill="#000000" fill-rule="nonzero" fill-opacity="1" /><path clip-path="url(#clip860)" d="M751.643 254.283 L751.643 240.255 L755.902 240.255 L755.902 276.273 L751.643 276.273 L751.643 272.384 Q750.301 274.699 748.24 275.833 Q746.203 276.944 743.333 276.944 Q738.634 276.944 735.671 273.195 Q732.731 269.445 732.731 263.333 Q732.731 257.222 735.671 253.472 Q738.634 249.722 743.333 249.722 Q746.203 249.722 748.24 250.857 Q750.301 251.968 751.643 254.283 M737.129 263.333 Q737.129 268.032 739.051 270.718 Q740.995 273.38 744.375 273.38 Q747.754 273.38 749.699 270.718 Q751.643 268.032 751.643 263.333 Q751.643 258.634 749.699 255.972 Q747.754 253.287 744.375 253.287 Q740.995 253.287 739.051 255.972 Q737.129 258.634 737.129 263.333 Z" fill="#000000" fill-rule="nonzero" fill-opacity="1" /></svg>
