<?xml version="1.0" encoding="utf-8"?>
<svg xmlns="http://www.w3.org/2000/svg" xmlns:xlink="http://www.w3.org/1999/xlink" width="600" height="300" viewBox="0 0 2400 1200">
<defs>
  <clipPath id="clip780">
    <rect x="0" y="0" width="2400" height="1200"/>
  </clipPath>
</defs>
<path clip-path="url(#clip780)" d="M0 1200 L2400 1200 L2400 0 L0 0  Z" fill="#ffffff" fill-rule="evenodd" fill-opacity="1"/>
<defs>
  <clipPath id="clip781">
    <rect x="480" y="0" width="1681" height="1200"/>
  </clipPath>
</defs>
<path clip-path="url(#clip780)" d="M238.148 1047.7 L2352.76 1047.7 L2352.76 47.2441 L238.148 47.2441  Z" fill="#ffffff" fill-rule="evenodd" fill-opacity="1"/>
<defs>
  <clipPath id="clip782">
    <rect x="238" y="47" width="2116" height="1001"/>
  </clipPath>
</defs>
<polyline clip-path="url(#clip782)" style="stroke:#000000; stroke-linecap:round; stroke-linejoin:round; stroke-width:2; stroke-opacity:0.1; fill:none" points="295.999,1047.7 295.999,47.2441 "/>
<polyline clip-path="url(#clip782)" style="stroke:#000000; stroke-linecap:round; stroke-linejoin:round; stroke-width:2; stroke-opacity:0.1; fill:none" points="795.226,1047.7 795.226,47.2441 "/>
<polyline clip-path="url(#clip782)" style="stroke:#000000; stroke-linecap:round; stroke-linejoin:round; stroke-width:2; stroke-opacity:0.1; fill:none" points="1294.45,1047.7 1294.45,47.2441 "/>
<polyline clip-path="url(#clip782)" style="stroke:#000000; stroke-linecap:round; stroke-linejoin:round; stroke-width:2; stroke-opacity:0.1; fill:none" points="1793.68,1047.7 1793.68,47.2441 "/>
<polyline clip-path="url(#clip782)" style="stroke:#000000; stroke-linecap:round; stroke-linejoin:round; stroke-width:2; stroke-opacity:0.1; fill:none" points="2292.91,1047.7 2292.91,47.2441 "/>
<polyline clip-path="url(#clip780)" style="stroke:#000000; stroke-linecap:round; stroke-linejoin:round; stroke-width:4; stroke-opacity:1; fill:none" points="238.148,1047.7 2352.76,1047.7 "/>
<polyline clip-path="url(#clip780)" style="stroke:#000000; stroke-linecap:round; stroke-linejoin:round; stroke-width:4; stroke-opacity:1; fill:none" points="295.999,1047.7 295.999,1028.8 "/>
<polyline clip-path="url(#clip780)" style="stroke:#000000; stroke-linecap:round; stroke-linejoin:round; stroke-width:4; stroke-opacity:1; fill:none" points="795.226,1047.7 795.226,1028.8 "/>
<polyline clip-path="url(#clip780)" style="stroke:#000000; stroke-linecap:round; stroke-linejoin:round; stroke-width:4; stroke-opacity:1; fill:none" points="1294.45,1047.7 1294.45,1028.8 "/>
<polyline clip-path="url(#clip780)" style="stroke:#000000; stroke-linecap:round; stroke-linejoin:round; stroke-width:4; stroke-opacity:1; fill:none" points="1793.68,1047.7 1793.68,1028.8 "/>
<polyline clip-path="url(#clip780)" style="stroke:#000000; stroke-linecap:round; stroke-linejoin:round; stroke-width:4; stroke-opacity:1; fill:none" points="2292.91,1047.7 2292.91,1028.8 "/>
<path clip-path="url(#clip780)" d="M258.302 1078.62 Q254.691 1078.62 252.862 1082.18 Q251.057 1085.72 251.057 1092.85 Q251.057 1099.96 252.862 1103.53 Q254.691 1107.07 258.302 1107.07 Q261.936 1107.07 263.742 1103.53 Q265.571 1099.96 265.571 1092.85 Q265.571 1085.72 263.742 1082.18 Q261.936 1078.62 258.302 1078.62 M258.302 1074.91 Q264.112 1074.91 267.168 1079.52 Q270.246 1084.1 270.246 1092.85 Q270.246 1101.58 267.168 1106.19 Q264.112 1110.77 258.302 1110.77 Q252.492 1110.77 249.413 1106.19 Q246.358 1101.58 246.358 1092.85 Q246.358 1084.1 249.413 1079.52 Q252.492 1074.91 258.302 1074.91 Z" fill="#000000" fill-rule="nonzero" fill-opacity="1" /><path clip-path="url(#clip780)" d="M278.464 1104.22 L283.348 1104.22 L283.348 1110.1 L278.464 1110.1 L278.464 1104.22 Z" fill="#000000" fill-rule="nonzero" fill-opacity="1" /><path clip-path="url(#clip780)" d="M303.533 1078.62 Q299.922 1078.62 298.094 1082.18 Q296.288 1085.72 296.288 1092.85 Q296.288 1099.96 298.094 1103.53 Q299.922 1107.07 303.533 1107.07 Q307.168 1107.07 308.973 1103.53 Q310.802 1099.96 310.802 1092.85 Q310.802 1085.72 308.973 1082.18 Q307.168 1078.62 303.533 1078.62 M303.533 1074.91 Q309.343 1074.91 312.399 1079.52 Q315.478 1084.1 315.478 1092.85 Q315.478 1101.58 312.399 1106.19 Q309.343 1110.77 303.533 1110.77 Q297.723 1110.77 294.644 1106.19 Q291.589 1101.58 291.589 1092.85 Q291.589 1084.1 294.644 1079.52 Q297.723 1074.91 303.533 1074.91 Z" fill="#000000" fill-rule="nonzero" fill-opacity="1" /><path clip-path="url(#clip780)" d="M333.695 1078.62 Q330.084 1078.62 328.255 1082.18 Q326.45 1085.72 326.45 1092.85 Q326.45 1099.96 328.255 1103.53 Q330.084 1107.07 333.695 1107.07 Q337.329 1107.07 339.135 1103.53 Q340.964 1099.96 340.964 1092.85 Q340.964 1085.72 339.135 1082.18 Q337.329 1078.62 333.695 1078.62 M333.695 1074.91 Q339.505 1074.91 342.561 1079.52 Q345.64 1084.1 345.64 1092.85 Q345.64 1101.58 342.561 1106.19 Q339.505 1110.77 333.695 1110.77 Q327.885 1110.77 324.806 1106.19 Q321.751 1101.58 321.751 1092.85 Q321.751 1084.1 324.806 1079.52 Q327.885 1074.91 333.695 1074.91 Z" fill="#000000" fill-rule="nonzero" fill-opacity="1" /><path clip-path="url(#clip780)" d="M758.027 1078.62 Q754.416 1078.62 752.587 1082.18 Q750.782 1085.72 750.782 1092.85 Q750.782 1099.96 752.587 1103.53 Q754.416 1107.07 758.027 1107.07 Q761.661 1107.07 763.467 1103.53 Q765.296 1099.96 765.296 1092.85 Q765.296 1085.72 763.467 1082.18 Q761.661 1078.62 758.027 1078.62 M758.027 1074.91 Q763.837 1074.91 766.893 1079.52 Q769.972 1084.1 769.972 1092.85 Q769.972 1101.58 766.893 1106.19 Q763.837 1110.77 758.027 1110.77 Q752.217 1110.77 749.138 1106.19 Q746.083 1101.58 746.083 1092.85 Q746.083 1084.1 749.138 1079.52 Q752.217 1074.91 758.027 1074.91 Z" fill="#000000" fill-rule="nonzero" fill-opacity="1" /><path clip-path="url(#clip780)" d="M778.189 1104.22 L783.073 1104.22 L783.073 1110.1 L778.189 1110.1 L778.189 1104.22 Z" fill="#000000" fill-rule="nonzero" fill-opacity="1" /><path clip-path="url(#clip780)" d="M797.286 1106.16 L813.606 1106.16 L813.606 1110.1 L791.661 1110.1 L791.661 1106.16 Q794.323 1103.41 798.907 1098.78 Q803.513 1094.13 804.694 1092.79 Q806.939 1090.26 807.819 1088.53 Q808.721 1086.77 808.721 1085.08 Q808.721 1082.32 806.777 1080.59 Q804.856 1078.85 801.754 1078.85 Q799.555 1078.85 797.101 1079.61 Q794.671 1080.38 791.893 1081.93 L791.893 1077.21 Q794.717 1076.07 797.171 1075.49 Q799.624 1074.91 801.661 1074.91 Q807.032 1074.91 810.226 1077.6 Q813.42 1080.29 813.42 1084.78 Q813.42 1086.91 812.61 1088.83 Q811.823 1090.72 809.717 1093.32 Q809.138 1093.99 806.036 1097.21 Q802.934 1100.4 797.286 1106.16 Z" fill="#000000" fill-rule="nonzero" fill-opacity="1" /><path clip-path="url(#clip780)" d="M823.467 1075.54 L841.823 1075.54 L841.823 1079.48 L827.749 1079.48 L827.749 1087.95 Q828.768 1087.6 829.786 1087.44 Q830.805 1087.25 831.823 1087.25 Q837.61 1087.25 840.99 1090.42 Q844.369 1093.6 844.369 1099.01 Q844.369 1104.59 840.897 1107.69 Q837.425 1110.77 831.106 1110.77 Q828.93 1110.77 826.661 1110.4 Q824.416 1110.03 822.008 1109.29 L822.008 1104.59 Q824.092 1105.72 826.314 1106.28 Q828.536 1106.84 831.013 1106.84 Q835.018 1106.84 837.355 1104.73 Q839.693 1102.62 839.693 1099.01 Q839.693 1095.4 837.355 1093.29 Q835.018 1091.19 831.013 1091.19 Q829.138 1091.19 827.263 1091.6 Q825.411 1092.02 823.467 1092.9 L823.467 1075.54 Z" fill="#000000" fill-rule="nonzero" fill-opacity="1" /><path clip-path="url(#clip780)" d="M1256.76 1078.62 Q1253.15 1078.62 1251.32 1082.18 Q1249.51 1085.72 1249.51 1092.85 Q1249.51 1099.96 1251.32 1103.53 Q1253.15 1107.07 1256.76 1107.07 Q1260.39 1107.07 1262.2 1103.53 Q1264.03 1099.96 1264.03 1092.85 Q1264.03 1085.72 1262.2 1082.18 Q1260.39 1078.62 1256.76 1078.62 M1256.76 1074.91 Q1262.57 1074.91 1265.62 1079.52 Q1268.7 1084.1 1268.7 1092.85 Q1268.7 1101.58 1265.62 1106.19 Q1262.57 1110.77 1256.76 1110.77 Q1250.95 1110.77 1247.87 1106.19 Q1244.81 1101.58 1244.81 1092.85 Q1244.81 1084.1 1247.87 1079.52 Q1250.95 1074.91 1256.76 1074.91 Z" fill="#000000" fill-rule="nonzero" fill-opacity="1" /><path clip-path="url(#clip780)" d="M1276.92 1104.22 L1281.8 1104.22 L1281.8 1110.1 L1276.92 1110.1 L1276.92 1104.22 Z" fill="#000000" fill-rule="nonzero" fill-opacity="1" /><path clip-path="url(#clip780)" d="M1292.03 1075.54 L1310.39 1075.54 L1310.39 1079.48 L1296.32 1079.48 L1296.32 1087.95 Q1297.34 1087.6 1298.35 1087.44 Q1299.37 1087.25 1300.39 1087.25 Q1306.18 1087.25 1309.56 1090.42 Q1312.94 1093.6 1312.94 1099.01 Q1312.94 1104.59 1309.47 1107.69 Q1305.99 1110.77 1299.67 1110.77 Q1297.5 1110.77 1295.23 1110.4 Q1292.98 1110.03 1290.58 1109.29 L1290.58 1104.59 Q1292.66 1105.72 1294.88 1106.28 Q1297.1 1106.84 1299.58 1106.84 Q1303.59 1106.84 1305.92 1104.73 Q1308.26 1102.62 1308.26 1099.01 Q1308.26 1095.4 1305.92 1093.29 Q1303.59 1091.19 1299.58 1091.19 Q1297.71 1091.19 1295.83 1091.6 Q1293.98 1092.02 1292.03 1092.9 L1292.03 1075.54 Z" fill="#000000" fill-rule="nonzero" fill-opacity="1" /><path clip-path="url(#clip780)" d="M1332.15 1078.62 Q1328.54 1078.62 1326.71 1082.18 Q1324.9 1085.72 1324.9 1092.85 Q1324.9 1099.96 1326.71 1103.53 Q1328.54 1107.07 1332.15 1107.07 Q1335.78 1107.07 1337.59 1103.53 Q1339.42 1099.96 1339.42 1092.85 Q1339.42 1085.72 1337.59 1082.18 Q1335.78 1078.62 1332.15 1078.62 M1332.15 1074.91 Q1337.96 1074.91 1341.02 1079.52 Q1344.09 1084.1 1344.09 1092.85 Q1344.09 1101.58 1341.02 1106.19 Q1337.96 1110.77 1332.15 1110.77 Q1326.34 1110.77 1323.26 1106.19 Q1320.21 1101.58 1320.21 1092.85 Q1320.21 1084.1 1323.26 1079.52 Q1326.34 1074.91 1332.15 1074.91 Z" fill="#000000" fill-rule="nonzero" fill-opacity="1" /><path clip-path="url(#clip780)" d="M1756.48 1078.62 Q1752.87 1078.62 1751.04 1082.18 Q1749.24 1085.72 1749.24 1092.85 Q1749.24 1099.96 1751.04 1103.53 Q1752.87 1107.07 1756.48 1107.07 Q1760.12 1107.07 1761.92 1103.53 Q1763.75 1099.96 1763.75 1092.85 Q1763.75 1085.72 1761.92 1082.18 Q1760.12 1078.62 1756.48 1078.62 M1756.48 1074.91 Q1762.29 1074.91 1765.35 1079.52 Q1768.43 1084.1 1768.43 1092.85 Q1768.43 1101.58 1765.35 1106.19 Q1762.29 1110.77 1756.48 1110.77 Q1750.67 1110.77 1747.59 1106.19 Q1744.54 1101.58 1744.54 1092.85 Q1744.54 1084.1 1747.59 1079.52 Q1750.67 1074.91 1756.48 1074.91 Z" fill="#000000" fill-rule="nonzero" fill-opacity="1" /><path clip-path="url(#clip780)" d="M1776.64 1104.22 L1781.53 1104.22 L1781.53 1110.1 L1776.64 1110.1 L1776.64 1104.22 Z" fill="#000000" fill-rule="nonzero" fill-opacity="1" /><path clip-path="url(#clip780)" d="M1790.53 1075.54 L1812.76 1075.54 L1812.76 1077.53 L1800.21 1110.1 L1795.32 1110.1 L1807.13 1079.48 L1790.53 1079.48 L1790.53 1075.54 Z" fill="#000000" fill-rule="nonzero" fill-opacity="1" /><path clip-path="url(#clip780)" d="M1821.92 1075.54 L1840.28 1075.54 L1840.28 1079.48 L1826.2 1079.48 L1826.2 1087.95 Q1827.22 1087.6 1828.24 1087.44 Q1829.26 1087.25 1830.28 1087.25 Q1836.07 1087.25 1839.44 1090.42 Q1842.82 1093.6 1842.82 1099.01 Q1842.82 1104.59 1839.35 1107.69 Q1835.88 1110.77 1829.56 1110.77 Q1827.38 1110.77 1825.12 1110.4 Q1822.87 1110.03 1820.46 1109.29 L1820.46 1104.59 Q1822.55 1105.72 1824.77 1106.28 Q1826.99 1106.84 1829.47 1106.84 Q1833.47 1106.84 1835.81 1104.73 Q1838.15 1102.62 1838.15 1099.01 Q1838.15 1095.4 1835.81 1093.29 Q1833.47 1091.19 1829.47 1091.19 Q1827.59 1091.19 1825.72 1091.6 Q1823.87 1092.02 1821.92 1092.9 L1821.92 1075.54 Z" fill="#000000" fill-rule="nonzero" fill-opacity="1" /><path clip-path="url(#clip780)" d="M2244.98 1106.16 L2252.62 1106.16 L2252.62 1079.8 L2244.31 1081.47 L2244.31 1077.21 L2252.57 1075.54 L2257.25 1075.54 L2257.25 1106.16 L2264.89 1106.16 L2264.89 1110.1 L2244.98 1110.1 L2244.98 1106.16 Z" fill="#000000" fill-rule="nonzero" fill-opacity="1" /><path clip-path="url(#clip780)" d="M2274.33 1104.22 L2279.22 1104.22 L2279.22 1110.1 L2274.33 1110.1 L2274.33 1104.22 Z" fill="#000000" fill-rule="nonzero" fill-opacity="1" /><path clip-path="url(#clip780)" d="M2299.4 1078.62 Q2295.79 1078.62 2293.96 1082.18 Q2292.16 1085.72 2292.16 1092.85 Q2292.16 1099.96 2293.96 1103.53 Q2295.79 1107.07 2299.4 1107.07 Q2303.04 1107.07 2304.84 1103.53 Q2306.67 1099.96 2306.67 1092.85 Q2306.67 1085.72 2304.84 1082.18 Q2303.04 1078.62 2299.4 1078.62 M2299.4 1074.91 Q2305.21 1074.91 2308.27 1079.52 Q2311.35 1084.1 2311.35 1092.85 Q2311.35 1101.58 2308.27 1106.19 Q2305.21 1110.77 2299.4 1110.77 Q2293.59 1110.77 2290.51 1106.19 Q2287.46 1101.58 2287.46 1092.85 Q2287.46 1084.1 2290.51 1079.52 Q2293.59 1074.91 2299.4 1074.91 Z" fill="#000000" fill-rule="nonzero" fill-opacity="1" /><path clip-path="url(#clip780)" d="M2329.56 1078.62 Q2325.95 1078.62 2324.12 1082.18 Q2322.32 1085.72 2322.32 1092.85 Q2322.32 1099.96 2324.12 1103.53 Q2325.95 1107.07 2329.56 1107.07 Q2333.2 1107.07 2335 1103.53 Q2336.83 1099.96 2336.83 1092.85 Q2336.83 1085.72 2335 1082.18 Q2333.2 1078.62 2329.56 1078.62 M2329.56 1074.91 Q2335.37 1074.91 2338.43 1079.52 Q2341.51 1084.1 2341.51 1092.85 Q2341.51 1101.58 2338.43 1106.19 Q2335.37 1110.77 2329.56 1110.77 Q2323.75 1110.77 2320.67 1106.19 Q2317.62 1101.58 2317.62 1092.85 Q2317.62 1084.1 2320.67 1079.52 Q2323.75 1074.91 2329.56 1074.91 Z" fill="#000000" fill-rule="nonzero" fill-opacity="1" /><path clip-path="url(#clip780)" d="M1310.38 1171.05 L1310.38 1206.12 L1304.52 1206.12 L1304.52 1171.24 Q1304.52 1166.18 1302.55 1163.66 Q1300.58 1161.15 1296.63 1161.15 Q1291.89 1161.15 1289.15 1164.17 Q1286.41 1167.2 1286.41 1172.42 L1286.41 1192.56 L1280.52 1192.56 L1280.52 1156.92 L1286.41 1156.92 L1286.41 1162.45 Q1288.51 1159.24 1291.35 1157.65 Q1294.21 1156.06 1297.93 1156.06 Q1304.08 1156.06 1307.23 1159.84 Q1310.38 1163.66 1310.38 1171.05 Z" fill="#000000" fill-rule="nonzero" fill-opacity="1" /><polyline clip-path="url(#clip782)" style="stroke:#000000; stroke-linecap:round; stroke-linejoin:round; stroke-width:2; stroke-opacity:0.1; fill:none" points="238.148,1019.39 2352.76,1019.39 "/>
<polyline clip-path="url(#clip782)" style="stroke:#000000; stroke-linecap:round; stroke-linejoin:round; stroke-width:2; stroke-opacity:0.1; fill:none" points="238.148,796.224 2352.76,796.224 "/>
<polyline clip-path="url(#clip782)" style="stroke:#000000; stroke-linecap:round; stroke-linejoin:round; stroke-width:2; stroke-opacity:0.1; fill:none" points="238.148,573.063 2352.76,573.063 "/>
<polyline clip-path="url(#clip782)" style="stroke:#000000; stroke-linecap:round; stroke-linejoin:round; stroke-width:2; stroke-opacity:0.1; fill:none" points="238.148,349.902 2352.76,349.902 "/>
<polyline clip-path="url(#clip782)" style="stroke:#000000; stroke-linecap:round; stroke-linejoin:round; stroke-width:2; stroke-opacity:0.1; fill:none" points="238.148,126.741 2352.76,126.741 "/>
<polyline clip-path="url(#clip780)" style="stroke:#000000; stroke-linecap:round; stroke-linejoin:round; stroke-width:4; stroke-opacity:1; fill:none" points="238.148,1047.7 238.148,47.2441 "/>
<polyline clip-path="url(#clip780)" style="stroke:#000000; stroke-linecap:round; stroke-linejoin:round; stroke-width:4; stroke-opacity:1; fill:none" points="238.148,1019.39 257.046,1019.39 "/>
<polyline clip-path="url(#clip780)" style="stroke:#000000; stroke-linecap:round; stroke-linejoin:round; stroke-width:4; stroke-opacity:1; fill:none" points="238.148,796.224 257.046,796.224 "/>
<polyline clip-path="url(#clip780)" style="stroke:#000000; stroke-linecap:round; stroke-linejoin:round; stroke-width:4; stroke-opacity:1; fill:none" points="238.148,573.063 257.046,573.063 "/>
<polyline clip-path="url(#clip780)" style="stroke:#000000; stroke-linecap:round; stroke-linejoin:round; stroke-width:4; stroke-opacity:1; fill:none" points="238.148,349.902 257.046,349.902 "/>
<polyline clip-path="url(#clip780)" style="stroke:#000000; stroke-linecap:round; stroke-linejoin:round; stroke-width:4; stroke-opacity:1; fill:none" points="238.148,126.741 257.046,126.741 "/>
<path clip-path="url(#clip780)" d="M114.811 1005.18 Q111.2 1005.18 109.371 1008.75 Q107.565 1012.29 107.565 1019.42 Q107.565 1026.53 109.371 1030.09 Q111.2 1033.63 114.811 1033.63 Q118.445 1033.63 120.25 1030.09 Q122.079 1026.53 122.079 1019.42 Q122.079 1012.29 120.25 1008.75 Q118.445 1005.18 114.811 1005.18 M114.811 1001.48 Q120.621 1001.48 123.676 1006.09 Q126.755 1010.67 126.755 1019.42 Q126.755 1028.15 123.676 1032.75 Q120.621 1037.34 114.811 1037.34 Q109 1037.34 105.922 1032.75 Q102.866 1028.15 102.866 1019.42 Q102.866 1010.67 105.922 1006.09 Q109 1001.48 114.811 1001.48 Z" fill="#000000" fill-rule="nonzero" fill-opacity="1" /><path clip-path="url(#clip780)" d="M134.973 1030.79 L139.857 1030.79 L139.857 1036.67 L134.973 1036.67 L134.973 1030.79 Z" fill="#000000" fill-rule="nonzero" fill-opacity="1" /><path clip-path="url(#clip780)" d="M160.042 1005.18 Q156.431 1005.18 154.602 1008.75 Q152.797 1012.29 152.797 1019.42 Q152.797 1026.53 154.602 1030.09 Q156.431 1033.63 160.042 1033.63 Q163.676 1033.63 165.482 1030.09 Q167.31 1026.53 167.31 1019.42 Q167.31 1012.29 165.482 1008.75 Q163.676 1005.18 160.042 1005.18 M160.042 1001.48 Q165.852 1001.48 168.908 1006.09 Q171.986 1010.67 171.986 1019.42 Q171.986 1028.15 168.908 1032.75 Q165.852 1037.34 160.042 1037.34 Q154.232 1037.34 151.153 1032.75 Q148.098 1028.15 148.098 1019.42 Q148.098 1010.67 151.153 1006.09 Q154.232 1001.48 160.042 1001.48 Z" fill="#000000" fill-rule="nonzero" fill-opacity="1" /><path clip-path="url(#clip780)" d="M190.204 1005.18 Q186.593 1005.18 184.764 1008.75 Q182.958 1012.29 182.958 1019.42 Q182.958 1026.53 184.764 1030.09 Q186.593 1033.63 190.204 1033.63 Q193.838 1033.63 195.644 1030.09 Q197.472 1026.53 197.472 1019.42 Q197.472 1012.29 195.644 1008.75 Q193.838 1005.18 190.204 1005.18 M190.204 1001.48 Q196.014 1001.48 199.069 1006.09 Q202.148 1010.67 202.148 1019.42 Q202.148 1028.15 199.069 1032.75 Q196.014 1037.34 190.204 1037.34 Q184.394 1037.34 181.315 1032.75 Q178.259 1028.15 178.259 1019.42 Q178.259 1010.67 181.315 1006.09 Q184.394 1001.48 190.204 1001.48 Z" fill="#000000" fill-rule="nonzero" fill-opacity="1" /><path clip-path="url(#clip780)" d="M116.037 782.023 Q112.426 782.023 110.598 785.588 Q108.792 789.129 108.792 796.259 Q108.792 803.365 110.598 806.93 Q112.426 810.472 116.037 810.472 Q119.672 810.472 121.477 806.93 Q123.306 803.365 123.306 796.259 Q123.306 789.129 121.477 785.588 Q119.672 782.023 116.037 782.023 M116.037 778.319 Q121.848 778.319 124.903 782.926 Q127.982 787.509 127.982 796.259 Q127.982 804.986 124.903 809.592 Q121.848 814.175 116.037 814.175 Q110.227 814.175 107.149 809.592 Q104.093 804.986 104.093 796.259 Q104.093 787.509 107.149 782.926 Q110.227 778.319 116.037 778.319 Z" fill="#000000" fill-rule="nonzero" fill-opacity="1" /><path clip-path="url(#clip780)" d="M136.199 807.625 L141.084 807.625 L141.084 813.504 L136.199 813.504 L136.199 807.625 Z" fill="#000000" fill-rule="nonzero" fill-opacity="1" /><path clip-path="url(#clip780)" d="M161.269 782.023 Q157.658 782.023 155.829 785.588 Q154.023 789.129 154.023 796.259 Q154.023 803.365 155.829 806.93 Q157.658 810.472 161.269 810.472 Q164.903 810.472 166.709 806.93 Q168.537 803.365 168.537 796.259 Q168.537 789.129 166.709 785.588 Q164.903 782.023 161.269 782.023 M161.269 778.319 Q167.079 778.319 170.134 782.926 Q173.213 787.509 173.213 796.259 Q173.213 804.986 170.134 809.592 Q167.079 814.175 161.269 814.175 Q155.459 814.175 152.38 809.592 Q149.324 804.986 149.324 796.259 Q149.324 787.509 152.38 782.926 Q155.459 778.319 161.269 778.319 Z" fill="#000000" fill-rule="nonzero" fill-opacity="1" /><path clip-path="url(#clip780)" d="M182.241 809.569 L189.88 809.569 L189.88 783.203 L181.57 784.87 L181.57 780.611 L189.833 778.944 L194.509 778.944 L194.509 809.569 L202.148 809.569 L202.148 813.504 L182.241 813.504 L182.241 809.569 Z" fill="#000000" fill-rule="nonzero" fill-opacity="1" /><path clip-path="url(#clip780)" d="M116.408 558.862 Q112.797 558.862 110.968 562.427 Q109.163 565.968 109.163 573.098 Q109.163 580.204 110.968 583.769 Q112.797 587.311 116.408 587.311 Q120.042 587.311 121.848 583.769 Q123.676 580.204 123.676 573.098 Q123.676 565.968 121.848 562.427 Q120.042 558.862 116.408 558.862 M116.408 555.158 Q122.218 555.158 125.274 559.765 Q128.352 564.348 128.352 573.098 Q128.352 581.825 125.274 586.431 Q122.218 591.015 116.408 591.015 Q110.598 591.015 107.519 586.431 Q104.463 581.825 104.463 573.098 Q104.463 564.348 107.519 559.765 Q110.598 555.158 116.408 555.158 Z" fill="#000000" fill-rule="nonzero" fill-opacity="1" /><path clip-path="url(#clip780)" d="M136.57 584.464 L141.454 584.464 L141.454 590.343 L136.57 590.343 L136.57 584.464 Z" fill="#000000" fill-rule="nonzero" fill-opacity="1" /><path clip-path="url(#clip780)" d="M161.639 558.862 Q158.028 558.862 156.199 562.427 Q154.394 565.968 154.394 573.098 Q154.394 580.204 156.199 583.769 Q158.028 587.311 161.639 587.311 Q165.273 587.311 167.079 583.769 Q168.908 580.204 168.908 573.098 Q168.908 565.968 167.079 562.427 Q165.273 558.862 161.639 558.862 M161.639 555.158 Q167.449 555.158 170.505 559.765 Q173.583 564.348 173.583 573.098 Q173.583 581.825 170.505 586.431 Q167.449 591.015 161.639 591.015 Q155.829 591.015 152.75 586.431 Q149.695 581.825 149.695 573.098 Q149.695 564.348 152.75 559.765 Q155.829 555.158 161.639 555.158 Z" fill="#000000" fill-rule="nonzero" fill-opacity="1" /><path clip-path="url(#clip780)" d="M185.829 586.408 L202.148 586.408 L202.148 590.343 L180.204 590.343 L180.204 586.408 Q182.866 583.653 187.449 579.024 Q192.056 574.371 193.236 573.029 Q195.482 570.505 196.361 568.769 Q197.264 567.01 197.264 565.32 Q197.264 562.566 195.319 560.83 Q193.398 559.093 190.296 559.093 Q188.097 559.093 185.644 559.857 Q183.213 560.621 180.435 562.172 L180.435 557.45 Q183.259 556.316 185.713 555.737 Q188.167 555.158 190.204 555.158 Q195.574 555.158 198.769 557.843 Q201.963 560.529 201.963 565.019 Q201.963 567.149 201.153 569.07 Q200.366 570.968 198.259 573.561 Q197.681 574.232 194.579 577.45 Q191.477 580.644 185.829 586.408 Z" fill="#000000" fill-rule="nonzero" fill-opacity="1" /><path clip-path="url(#clip780)" d="M115.459 335.701 Q111.848 335.701 110.019 339.266 Q108.213 342.808 108.213 349.937 Q108.213 357.044 110.019 360.608 Q111.848 364.15 115.459 364.15 Q119.093 364.15 120.899 360.608 Q122.727 357.044 122.727 349.937 Q122.727 342.808 120.899 339.266 Q119.093 335.701 115.459 335.701 M115.459 331.997 Q121.269 331.997 124.324 336.604 Q127.403 341.187 127.403 349.937 Q127.403 358.664 124.324 363.27 Q121.269 367.854 115.459 367.854 Q109.649 367.854 106.57 363.27 Q103.514 358.664 103.514 349.937 Q103.514 341.187 106.57 336.604 Q109.649 331.997 115.459 331.997 Z" fill="#000000" fill-rule="nonzero" fill-opacity="1" /><path clip-path="url(#clip780)" d="M135.621 361.303 L140.505 361.303 L140.505 367.182 L135.621 367.182 L135.621 361.303 Z" fill="#000000" fill-rule="nonzero" fill-opacity="1" /><path clip-path="url(#clip780)" d="M160.69 335.701 Q157.079 335.701 155.25 339.266 Q153.445 342.808 153.445 349.937 Q153.445 357.044 155.25 360.608 Q157.079 364.15 160.69 364.15 Q164.324 364.15 166.13 360.608 Q167.959 357.044 167.959 349.937 Q167.959 342.808 166.13 339.266 Q164.324 335.701 160.69 335.701 M160.69 331.997 Q166.5 331.997 169.556 336.604 Q172.634 341.187 172.634 349.937 Q172.634 358.664 169.556 363.27 Q166.5 367.854 160.69 367.854 Q154.88 367.854 151.801 363.27 Q148.746 358.664 148.746 349.937 Q148.746 341.187 151.801 336.604 Q154.88 331.997 160.69 331.997 Z" fill="#000000" fill-rule="nonzero" fill-opacity="1" /><path clip-path="url(#clip780)" d="M195.019 348.548 Q198.375 349.266 200.25 351.534 Q202.148 353.803 202.148 357.136 Q202.148 362.252 198.63 365.053 Q195.111 367.854 188.63 367.854 Q186.454 367.854 184.139 367.414 Q181.847 366.997 179.394 366.141 L179.394 361.627 Q181.338 362.761 183.653 363.34 Q185.968 363.919 188.491 363.919 Q192.889 363.919 195.181 362.182 Q197.495 360.446 197.495 357.136 Q197.495 354.081 195.343 352.368 Q193.213 350.632 189.394 350.632 L185.366 350.632 L185.366 346.789 L189.579 346.789 Q193.028 346.789 194.857 345.423 Q196.685 344.034 196.685 341.442 Q196.685 338.78 194.787 337.368 Q192.912 335.933 189.394 335.933 Q187.472 335.933 185.273 336.349 Q183.074 336.766 180.435 337.645 L180.435 333.479 Q183.097 332.738 185.412 332.368 Q187.75 331.997 189.81 331.997 Q195.134 331.997 198.236 334.428 Q201.338 336.835 201.338 340.956 Q201.338 343.826 199.694 345.817 Q198.051 347.784 195.019 348.548 Z" fill="#000000" fill-rule="nonzero" fill-opacity="1" /><path clip-path="url(#clip780)" d="M114.325 112.54 Q110.713 112.54 108.885 116.105 Q107.079 119.647 107.079 126.776 Q107.079 133.883 108.885 137.447 Q110.713 140.989 114.325 140.989 Q117.959 140.989 119.764 137.447 Q121.593 133.883 121.593 126.776 Q121.593 119.647 119.764 116.105 Q117.959 112.54 114.325 112.54 M114.325 108.836 Q120.135 108.836 123.19 113.443 Q126.269 118.026 126.269 126.776 Q126.269 135.503 123.19 140.109 Q120.135 144.693 114.325 144.693 Q108.514 144.693 105.436 140.109 Q102.38 135.503 102.38 126.776 Q102.38 118.026 105.436 113.443 Q108.514 108.836 114.325 108.836 Z" fill="#000000" fill-rule="nonzero" fill-opacity="1" /><path clip-path="url(#clip780)" d="M134.486 138.142 L139.371 138.142 L139.371 144.021 L134.486 144.021 L134.486 138.142 Z" fill="#000000" fill-rule="nonzero" fill-opacity="1" /><path clip-path="url(#clip780)" d="M159.556 112.54 Q155.945 112.54 154.116 116.105 Q152.31 119.647 152.31 126.776 Q152.31 133.883 154.116 137.447 Q155.945 140.989 159.556 140.989 Q163.19 140.989 164.996 137.447 Q166.824 133.883 166.824 126.776 Q166.824 119.647 164.996 116.105 Q163.19 112.54 159.556 112.54 M159.556 108.836 Q165.366 108.836 168.421 113.443 Q171.5 118.026 171.5 126.776 Q171.5 135.503 168.421 140.109 Q165.366 144.693 159.556 144.693 Q153.746 144.693 150.667 140.109 Q147.611 135.503 147.611 126.776 Q147.611 118.026 150.667 113.443 Q153.746 108.836 159.556 108.836 Z" fill="#000000" fill-rule="nonzero" fill-opacity="1" /><path clip-path="url(#clip780)" d="M192.565 113.536 L180.759 131.985 L192.565 131.985 L192.565 113.536 M191.338 109.461 L197.218 109.461 L197.218 131.985 L202.148 131.985 L202.148 135.873 L197.218 135.873 L197.218 144.021 L192.565 144.021 L192.565 135.873 L176.963 135.873 L176.963 131.36 L191.338 109.461 Z" fill="#000000" fill-rule="nonzero" fill-opacity="1" /><path clip-path="url(#clip780)" d="M9.88769 865.168 L27.7435 865.168 L27.7435 857.084 Q27.7435 852.596 25.42 850.145 Q23.0965 847.695 18.7997 847.695 Q14.5347 847.695 12.2112 850.145 Q9.88769 852.596 9.88769 857.084 L9.88769 865.168 M4.60416 871.598 L4.60416 857.084 Q4.60416 849.095 8.23261 845.021 Q11.8292 840.915 18.7997 840.915 Q25.8338 840.915 29.4304 845.021 Q33.027 849.095 33.027 857.084 L33.027 865.168 L52.1242 865.168 L52.1242 871.598 L4.60416 871.598 Z" fill="#000000" fill-rule="nonzero" fill-opacity="1" /><path clip-path="url(#clip780)" d="M20.5821 821.054 Q20.5821 825.765 24.2742 828.502 Q27.9345 831.239 34.332 831.239 Q40.7295 831.239 44.4217 828.534 Q48.0819 825.797 48.0819 821.054 Q48.0819 816.375 44.3898 813.638 Q40.6977 810.901 34.332 810.901 Q27.9981 810.901 24.306 813.638 Q20.5821 816.375 20.5821 821.054 M15.6168 821.054 Q15.6168 813.415 20.5821 809.055 Q25.5473 804.694 34.332 804.694 Q43.0849 804.694 48.0819 809.055 Q53.0472 813.415 53.0472 821.054 Q53.0472 828.725 48.0819 833.085 Q43.0849 837.414 34.332 837.414 Q25.5473 837.414 20.5821 833.085 Q15.6168 828.725 15.6168 821.054 Z" fill="#000000" fill-rule="nonzero" fill-opacity="1" /><path clip-path="url(#clip780)" d="M17.5265 772.261 L23.0647 772.261 Q21.7916 774.744 21.155 777.417 Q20.5184 780.091 20.5184 782.955 Q20.5184 787.316 21.8552 789.512 Q23.192 791.676 25.8656 791.676 Q27.9026 791.676 29.0803 790.117 Q30.2261 788.557 31.2765 783.847 L31.7221 781.841 Q33.0589 775.603 35.5097 772.993 Q37.9286 770.351 42.2891 770.351 Q47.2544 770.351 50.1508 774.298 Q53.0472 778.213 53.0472 785.088 Q53.0472 787.952 52.4743 791.072 Q51.9332 794.159 50.8192 797.596 L44.7718 797.596 Q46.4587 794.35 47.318 791.199 Q48.1456 788.048 48.1456 784.961 Q48.1456 780.823 46.7451 778.595 Q45.3129 776.367 42.7347 776.367 Q40.3476 776.367 39.0745 777.99 Q37.8013 779.582 36.6237 785.024 L36.1462 787.061 Q35.0004 792.504 32.6451 794.923 Q30.258 797.342 26.1202 797.342 Q21.0913 797.342 18.3541 793.777 Q15.6168 790.212 15.6168 783.656 Q15.6168 780.409 16.0943 777.545 Q16.5717 774.68 17.5265 772.261 Z" fill="#000000" fill-rule="nonzero" fill-opacity="1" /><path clip-path="url(#clip780)" d="M6.35473 755.233 L16.4762 755.233 L16.4762 743.17 L21.0277 743.17 L21.0277 755.233 L40.3794 755.233 Q44.7399 755.233 45.9813 754.055 Q47.2226 752.846 47.2226 749.185 L47.2226 743.17 L52.1242 743.17 L52.1242 749.185 Q52.1242 755.965 49.6097 758.543 Q47.0634 761.121 40.3794 761.121 L21.0277 761.121 L21.0277 765.418 L16.4762 765.418 L16.4762 761.121 L6.35473 761.121 L6.35473 755.233 Z" fill="#000000" fill-rule="nonzero" fill-opacity="1" /><path clip-path="url(#clip780)" d="M32.8361 704.975 L35.7006 704.975 L35.7006 731.902 Q41.7481 731.52 44.9309 728.274 Q48.0819 724.996 48.0819 719.171 Q48.0819 715.797 47.2544 712.646 Q46.4269 709.463 44.7718 706.344 L50.3099 706.344 Q51.6467 709.495 52.347 712.805 Q53.0472 716.115 53.0472 719.521 Q53.0472 728.051 48.0819 733.048 Q43.1167 738.013 34.6503 738.013 Q25.8974 738.013 20.7731 733.303 Q15.6168 728.56 15.6168 720.54 Q15.6168 713.346 20.2638 709.177 Q24.8789 704.975 32.8361 704.975 M31.1173 710.832 Q26.3112 710.896 23.4466 713.537 Q20.5821 716.147 20.5821 720.476 Q20.5821 725.378 23.3512 728.338 Q26.1202 731.266 31.1492 731.711 L31.1173 710.832 Z" fill="#000000" fill-rule="nonzero" fill-opacity="1" /><path clip-path="url(#clip780)" d="M21.9507 674.707 Q21.3778 675.693 21.1232 676.871 Q20.8367 678.017 20.8367 679.417 Q20.8367 684.382 24.0832 687.056 Q27.2979 689.698 33.3453 689.698 L52.1242 689.698 L52.1242 695.586 L16.4762 695.586 L16.4762 689.698 L22.0144 689.698 Q18.7679 687.852 17.2083 684.892 Q15.6168 681.932 15.6168 677.698 Q15.6168 677.094 15.7123 676.362 Q15.776 675.63 15.9351 674.738 L21.9507 674.707 Z" fill="#000000" fill-rule="nonzero" fill-opacity="1" /><path clip-path="url(#clip780)" d="M16.4762 668.564 L16.4762 662.707 L52.1242 662.707 L52.1242 668.564 L16.4762 668.564 M2.59896 668.564 L2.59896 662.707 L10.015 662.707 L10.015 668.564 L2.59896 668.564 Z" fill="#000000" fill-rule="nonzero" fill-opacity="1" /><path clip-path="url(#clip780)" d="M20.5821 636.64 Q20.5821 641.35 24.2742 644.087 Q27.9345 646.825 34.332 646.825 Q40.7295 646.825 44.4217 644.119 Q48.0819 641.382 48.0819 636.64 Q48.0819 631.961 44.3898 629.224 Q40.6977 626.486 34.332 626.486 Q27.9981 626.486 24.306 629.224 Q20.5821 631.961 20.5821 636.64 M15.6168 636.64 Q15.6168 629.001 20.5821 624.64 Q25.5473 620.28 34.332 620.28 Q43.0849 620.28 48.0819 624.64 Q53.0472 629.001 53.0472 636.64 Q53.0472 644.31 48.0819 648.671 Q43.0849 652.999 34.332 652.999 Q25.5473 652.999 20.5821 648.671 Q15.6168 644.31 15.6168 636.64 Z" fill="#000000" fill-rule="nonzero" fill-opacity="1" /><path clip-path="url(#clip780)" d="M21.9507 589.915 Q21.3778 590.902 21.1232 592.08 Q20.8367 593.225 20.8367 594.626 Q20.8367 599.591 24.0832 602.265 Q27.2979 604.907 33.3453 604.907 L52.1242 604.907 L52.1242 610.795 L16.4762 610.795 L16.4762 604.907 L22.0144 604.907 Q18.7679 603.061 17.2083 600.1 Q15.6168 597.14 15.6168 592.907 Q15.6168 592.302 15.7123 591.57 Q15.776 590.838 15.9351 589.947 L21.9507 589.915 Z" fill="#000000" fill-rule="nonzero" fill-opacity="1" /><path clip-path="url(#clip780)" d="M46.777 557.387 L65.6831 557.387 L65.6831 563.275 L16.4762 563.275 L16.4762 557.387 L21.8871 557.387 Q18.7042 555.541 17.1764 552.74 Q15.6168 549.907 15.6168 545.992 Q15.6168 539.499 20.7731 535.457 Q25.9293 531.383 34.332 531.383 Q42.7347 531.383 47.891 535.457 Q53.0472 539.499 53.0472 545.992 Q53.0472 549.907 51.5194 552.74 Q49.9598 555.541 46.777 557.387 M34.332 537.462 Q27.8708 537.462 24.2105 540.135 Q20.5184 542.777 20.5184 547.424 Q20.5184 552.071 24.2105 554.745 Q27.8708 557.387 34.332 557.387 Q40.7932 557.387 44.4853 554.745 Q48.1456 552.071 48.1456 547.424 Q48.1456 542.777 44.4853 540.135 Q40.7932 537.462 34.332 537.462 Z" fill="#000000" fill-rule="nonzero" fill-opacity="1" /><path clip-path="url(#clip780)" d="M21.9507 501.018 Q21.3778 502.005 21.1232 503.183 Q20.8367 504.328 20.8367 505.729 Q20.8367 510.694 24.0832 513.368 Q27.2979 516.009 33.3453 516.009 L52.1242 516.009 L52.1242 521.898 L16.4762 521.898 L16.4762 516.009 L22.0144 516.009 Q18.7679 514.163 17.2083 511.203 Q15.6168 508.243 15.6168 504.01 Q15.6168 503.405 15.7123 502.673 Q15.776 501.941 15.9351 501.05 L21.9507 501.018 Z" fill="#000000" fill-rule="nonzero" fill-opacity="1" /><path clip-path="url(#clip780)" d="M20.5821 482.494 Q20.5821 487.205 24.2742 489.942 Q27.9345 492.679 34.332 492.679 Q40.7295 492.679 44.4217 489.974 Q48.0819 487.236 48.0819 482.494 Q48.0819 477.815 44.3898 475.078 Q40.6977 472.341 34.332 472.341 Q27.9981 472.341 24.306 475.078 Q20.5821 477.815 20.5821 482.494 M15.6168 482.494 Q15.6168 474.855 20.5821 470.495 Q25.5473 466.134 34.332 466.134 Q43.0849 466.134 48.0819 470.495 Q53.0472 474.855 53.0472 482.494 Q53.0472 490.165 48.0819 494.525 Q43.0849 498.854 34.332 498.854 Q25.5473 498.854 20.5821 494.525 Q15.6168 490.165 15.6168 482.494 Z" fill="#000000" fill-rule="nonzero" fill-opacity="1" /><path clip-path="url(#clip780)" d="M34.332 430.836 Q27.8708 430.836 24.2105 433.51 Q20.5184 436.152 20.5184 440.799 Q20.5184 445.446 24.2105 448.119 Q27.8708 450.761 34.332 450.761 Q40.7932 450.761 44.4853 448.119 Q48.1456 445.446 48.1456 440.799 Q48.1456 436.152 44.4853 433.51 Q40.7932 430.836 34.332 430.836 M21.8871 450.761 Q18.7042 448.915 17.1764 446.114 Q15.6168 443.281 15.6168 439.366 Q15.6168 432.873 20.7731 428.831 Q25.9293 424.757 34.332 424.757 Q42.7347 424.757 47.891 428.831 Q53.0472 432.873 53.0472 439.366 Q53.0472 443.281 51.5194 446.114 Q49.9598 448.915 46.777 450.761 L52.1242 450.761 L52.1242 456.649 L2.59896 456.649 L2.59896 450.761 L21.8871 450.761 Z" fill="#000000" fill-rule="nonzero" fill-opacity="1" /><path clip-path="url(#clip780)" d="M34.2047 398.849 Q34.2047 405.946 35.8279 408.684 Q37.4512 411.421 41.3661 411.421 Q44.4853 411.421 46.3314 409.384 Q48.1456 407.315 48.1456 403.782 Q48.1456 398.912 44.7081 395.984 Q41.2388 393.024 35.5097 393.024 L34.2047 393.024 L34.2047 398.849 M31.7857 387.168 L52.1242 387.168 L52.1242 393.024 L46.7133 393.024 Q49.9598 395.029 51.5194 398.021 Q53.0472 401.013 53.0472 405.342 Q53.0472 410.816 49.9916 414.063 Q46.9043 417.277 41.7481 417.277 Q35.7325 417.277 32.6769 413.267 Q29.6214 409.225 29.6214 401.236 L29.6214 393.024 L29.0485 393.024 Q25.0062 393.024 22.8101 395.698 Q20.5821 398.339 20.5821 403.145 Q20.5821 406.201 21.3141 409.097 Q22.0462 411.994 23.5103 414.667 L18.0995 414.667 Q16.8581 411.453 16.2534 408.429 Q15.6168 405.405 15.6168 402.541 Q15.6168 394.806 19.6272 390.987 Q23.6376 387.168 31.7857 387.168 Z" fill="#000000" fill-rule="nonzero" fill-opacity="1" /><path clip-path="url(#clip780)" d="M34.332 349.514 Q27.8708 349.514 24.2105 352.188 Q20.5184 354.83 20.5184 359.477 Q20.5184 364.124 24.2105 366.797 Q27.8708 369.439 34.332 369.439 Q40.7932 369.439 44.4853 366.797 Q48.1456 364.124 48.1456 359.477 Q48.1456 354.83 44.4853 352.188 Q40.7932 349.514 34.332 349.514 M21.8871 369.439 Q18.7042 367.593 17.1764 364.792 Q15.6168 361.959 15.6168 358.044 Q15.6168 351.551 20.7731 347.509 Q25.9293 343.435 34.332 343.435 Q42.7347 343.435 47.891 347.509 Q53.0472 351.551 53.0472 358.044 Q53.0472 361.959 51.5194 364.792 Q49.9598 367.593 46.777 369.439 L52.1242 369.439 L52.1242 375.327 L2.59896 375.327 L2.59896 369.439 L21.8871 369.439 Z" fill="#000000" fill-rule="nonzero" fill-opacity="1" /><path clip-path="url(#clip780)" d="M16.4762 333.727 L16.4762 327.871 L52.1242 327.871 L52.1242 333.727 L16.4762 333.727 M2.59896 333.727 L2.59896 327.871 L10.015 327.871 L10.015 333.727 L2.59896 333.727 Z" fill="#000000" fill-rule="nonzero" fill-opacity="1" /><path clip-path="url(#clip780)" d="M2.59896 315.617 L2.59896 309.761 L52.1242 309.761 L52.1242 315.617 L2.59896 315.617 Z" fill="#000000" fill-rule="nonzero" fill-opacity="1" /><path clip-path="url(#clip780)" d="M16.4762 297.507 L16.4762 291.65 L52.1242 291.65 L52.1242 297.507 L16.4762 297.507 M2.59896 297.507 L2.59896 291.65 L10.015 291.65 L10.015 297.507 L2.59896 297.507 Z" fill="#000000" fill-rule="nonzero" fill-opacity="1" /><path clip-path="url(#clip780)" d="M6.35473 273.603 L16.4762 273.603 L16.4762 261.54 L21.0277 261.54 L21.0277 273.603 L40.3794 273.603 Q44.7399 273.603 45.9813 272.426 Q47.2226 271.216 47.2226 267.556 L47.2226 261.54 L52.1242 261.54 L52.1242 267.556 Q52.1242 274.335 49.6097 276.914 Q47.0634 279.492 40.3794 279.492 L21.0277 279.492 L21.0277 283.788 L16.4762 283.788 L16.4762 279.492 L6.35473 279.492 L6.35473 273.603 Z" fill="#000000" fill-rule="nonzero" fill-opacity="1" /><path clip-path="url(#clip780)" d="M55.4343 239.006 Q61.8 241.488 63.7416 243.844 Q65.6831 246.199 65.6831 250.146 L65.6831 254.825 L60.7815 254.825 L60.7815 251.387 Q60.7815 248.968 59.6357 247.631 Q58.4899 246.294 54.2248 244.671 L51.5512 243.621 L16.4762 258.039 L16.4762 251.833 L44.358 240.693 L16.4762 229.553 L16.4762 223.346 L55.4343 239.006 Z" fill="#000000" fill-rule="nonzero" fill-opacity="1" /><polyline clip-path="url(#clip782)" style="stroke:#009af9; stroke-linecap:round; stroke-linejoin:round; stroke-width:4; stroke-opacity:1; fill:none" points="297.996,1019.39 299.992,1019.39 301.989,1019.39 303.986,1019.39 305.983,1019.39 307.98,1019.39 309.977,1019.39 311.974,1019.39 313.971,1019.39 315.968,1019.39 317.965,1019.39 319.962,1019.39 321.958,1019.39 323.955,1019.39 325.952,1019.39 327.949,1019.39 329.946,1019.39 331.943,1019.39 333.94,1019.39 335.937,1019.39 337.934,1019.39 339.931,1019.39 341.928,1019.39 343.924,1019.39 345.921,1019.39 347.918,1019.39 349.915,1019.39 351.912,1019.39 353.909,1019.39 355.906,1019.39 357.903,1019.39 359.9,1019.39 361.897,1019.39 363.894,1019.39 365.89,1019.39 367.887,1019.39 369.884,1019.39 371.881,1019.39 373.878,1019.39 375.875,1019.39 377.872,1019.39 379.869,1019.39 381.866,1019.39 383.863,1019.39 385.86,1019.39 387.856,1019.39 389.853,1019.39 391.85,1019.39 393.847,1019.39 395.844,1019.39 397.841,1019.39 399.838,1019.39 401.835,1019.39 403.832,1019.39 405.829,1019.39 407.826,1019.39 409.822,1019.39 411.819,1019.39 413.816,1019.39 415.813,1019.39 417.81,1019.39 419.807,1019.39 421.804,1019.39 423.801,1019.39 425.798,1019.39 427.795,1019.39 429.792,1019.38 431.788,1019.38 433.785,1019.38 435.782,1019.38 437.779,1019.38 439.776,1019.37 441.773,1019.36 443.77,1019.34 445.767,1019.28 447.764,1019.19 449.761,1019.02 451.758,1018.73 453.755,1018.23 455.751,1017.41 457.748,1016.11 459.745,1014.11 461.742,1011.1 463.739,1006.72 465.736,1000.49 467.733,991.88 469.73,980.266 471.727,964.987 473.724,945.366 475.721,920.762 477.717,890.621 479.714,854.534 481.711,812.301 483.708,763.978 485.705,709.922 487.702,650.811 489.699,587.644 491.696,521.722 493.693,454.6 495.69,388.02 497.687,323.826 499.683,263.871 501.68,209.921 503.677,163.563 505.674,126.126 507.671,98.6151 509.668,81.6729 511.665,75.5589 513.662,80.1545 515.659,94.9883 517.656,119.279 519.653,151.991 521.649,191.9 523.646,237.66 525.643,287.873 527.64,341.143 529.637,396.14 531.634,451.636 533.631,506.539 535.628,559.917 537.625,611.006 539.622,659.213 541.619,704.109 543.615,745.418 545.612,782.999 547.609,816.828 549.606,846.976 551.603,873.591 553.6,896.877 555.597,917.075 557.594,934.454 559.591,949.291 561.588,961.862 563.585,972.439 565.581,981.275 567.578,988.609 569.575,994.657 571.572,999.615 573.569,1003.65 575.566,1006.93 577.563,1009.56 579.56,1011.68 581.557,1013.36 583.554,1014.7 585.551,1015.75 587.547,1016.58 589.544,1017.23 591.541,1017.73 593.538,1018.12 595.535,1018.42 597.532,1018.66 599.529,1018.83 601.526,1018.97 603.523,1019.07 605.52,1019.15 607.517,1019.21 609.513,1019.26 611.51,1019.29 613.507,1019.31 615.504,1019.33 617.501,1019.35 619.498,1019.36 621.495,1019.36 623.492,1019.37 625.489,1019.37 627.486,1019.38 629.483,1019.38 631.479,1019.38 633.476,1019.38 635.473,1019.38 637.47,1019.38 639.467,1019.38 641.464,1019.38 643.461,1019.38 645.458,1019.38 647.455,1019.38 649.452,1019.38 651.449,1019.38 653.445,1019.38 655.442,1019.38 657.439,1019.39 659.436,1019.39 661.433,1019.39 663.43,1019.39 665.427,1019.39 667.424,1019.39 669.421,1019.39 671.418,1019.39 673.415,1019.39 675.412,1019.39 677.408,1019.39 679.405,1019.39 681.402,1019.39 683.399,1019.39 685.396,1019.39 687.393,1019.39 689.39,1019.39 691.387,1019.39 693.384,1019.39 695.381,1019.39 697.378,1019.39 699.374,1019.39 701.371,1019.39 703.368,1019.39 705.365,1019.39 707.362,1019.39 709.359,1019.39 711.356,1019.39 713.353,1019.39 715.35,1019.39 717.347,1019.39 719.344,1019.39 721.34,1019.39 723.337,1019.39 725.334,1019.39 727.331,1019.39 729.328,1019.39 731.325,1019.39 733.322,1019.39 735.319,1019.39 737.316,1019.39 739.313,1019.39 741.31,1019.39 743.306,1019.39 745.303,1019.39 747.3,1019.39 749.297,1019.39 751.294,1019.39 753.291,1019.39 755.288,1019.39 757.285,1019.39 759.282,1019.39 761.279,1019.39 763.276,1019.39 765.272,1019.39 767.269,1019.39 769.266,1019.39 771.263,1019.39 773.26,1019.39 775.257,1019.39 777.254,1019.39 779.251,1019.39 781.248,1019.39 783.245,1019.39 785.242,1019.39 787.238,1019.39 789.235,1019.39 791.232,1019.39 793.229,1019.39 795.226,1019.39 797.223,1019.39 799.22,1019.39 801.217,1019.39 803.214,1019.39 805.211,1019.39 807.208,1019.39 809.204,1019.39 811.201,1019.39 813.198,1019.39 815.195,1019.39 817.192,1019.39 819.189,1019.39 821.186,1019.39 823.183,1019.39 825.18,1019.39 827.177,1019.39 829.174,1019.39 831.17,1019.39 833.167,1019.39 835.164,1019.39 837.161,1019.39 839.158,1019.39 841.155,1019.39 843.152,1019.39 845.149,1019.39 847.146,1019.39 849.143,1019.39 851.14,1019.39 853.136,1019.39 855.133,1019.39 857.13,1019.39 859.127,1019.39 861.124,1019.39 863.121,1019.39 865.118,1019.39 867.115,1019.39 869.112,1019.39 871.109,1019.39 873.106,1019.39 875.102,1019.39 877.099,1019.39 879.096,1019.39 881.093,1019.39 883.09,1019.39 885.087,1019.39 887.084,1019.39 889.081,1019.39 891.078,1019.39 893.075,1019.39 895.072,1019.39 897.068,1019.39 899.065,1019.39 901.062,1019.39 903.059,1019.39 905.056,1019.39 907.053,1019.39 909.05,1019.39 911.047,1019.39 913.044,1019.39 915.041,1019.39 917.038,1019.39 919.035,1019.39 921.031,1019.39 923.028,1019.39 925.025,1019.39 927.022,1019.39 929.019,1019.39 931.016,1019.39 933.013,1019.39 935.01,1019.39 937.007,1019.39 939.004,1019.39 941.001,1019.39 942.997,1019.39 944.994,1019.39 946.991,1019.39 948.988,1019.39 950.985,1019.39 952.982,1019.39 954.979,1019.39 956.976,1019.39 958.973,1019.39 960.97,1019.39 962.967,1019.39 964.963,1019.39 966.96,1019.39 968.957,1019.39 970.954,1019.39 972.951,1019.39 974.948,1019.39 976.945,1019.39 978.942,1019.39 980.939,1019.39 982.936,1019.39 984.933,1019.39 986.929,1019.39 988.926,1019.39 990.923,1019.39 992.92,1019.39 994.917,1019.39 996.914,1019.39 998.911,1019.39 1000.91,1019.39 1002.9,1019.39 1004.9,1019.39 1006.9,1019.39 1008.9,1019.39 1010.89,1019.39 1012.89,1019.39 1014.89,1019.39 1016.88,1019.39 1018.88,1019.39 1020.88,1019.39 1022.87,1019.39 1024.87,1019.39 1026.87,1019.39 1028.86,1019.39 1030.86,1019.39 1032.86,1019.39 1034.86,1019.39 1036.85,1019.39 1038.85,1019.39 1040.85,1019.39 1042.84,1019.39 1044.84,1019.39 1046.84,1019.39 1048.83,1019.39 1050.83,1019.39 1052.83,1019.39 1054.82,1019.39 1056.82,1019.39 1058.82,1019.39 1060.82,1019.39 1062.81,1019.39 1064.81,1019.39 1066.81,1019.39 1068.8,1019.39 1070.8,1019.39 1072.8,1019.39 1074.79,1019.39 1076.79,1019.39 1078.79,1019.39 1080.78,1019.39 1082.78,1019.39 1084.78,1019.39 1086.77,1019.39 1088.77,1019.39 1090.77,1019.39 1092.77,1019.39 1094.76,1019.39 1096.76,1019.39 1098.76,1019.39 1100.75,1019.39 1102.75,1019.39 1104.75,1019.39 1106.74,1019.39 1108.74,1019.39 1110.74,1019.39 1112.73,1019.39 1114.73,1019.39 1116.73,1019.39 1118.73,1019.39 1120.72,1019.39 1122.72,1019.39 1124.72,1019.39 1126.71,1019.39 1128.71,1019.39 1130.71,1019.39 1132.7,1019.39 1134.7,1019.39 1136.7,1019.39 1138.69,1019.39 1140.69,1019.39 1142.69,1019.39 1144.69,1019.39 1146.68,1019.39 1148.68,1019.39 1150.68,1019.39 1152.67,1019.39 1154.67,1019.39 1156.67,1019.39 1158.66,1019.39 1160.66,1019.39 1162.66,1019.39 1164.65,1019.39 1166.65,1019.39 1168.65,1019.39 1170.65,1019.39 1172.64,1019.39 1174.64,1019.39 1176.64,1019.39 1178.63,1019.39 1180.63,1019.39 1182.63,1019.39 1184.62,1019.39 1186.62,1019.39 1188.62,1019.39 1190.61,1019.39 1192.61,1019.39 1194.61,1019.39 1196.6,1019.39 1198.6,1019.39 1200.6,1019.39 1202.6,1019.39 1204.59,1019.39 1206.59,1019.39 1208.59,1019.39 1210.58,1019.39 1212.58,1019.39 1214.58,1019.39 1216.57,1019.39 1218.57,1019.39 1220.57,1019.39 1222.56,1019.39 1224.56,1019.39 1226.56,1019.39 1228.56,1019.39 1230.55,1019.39 1232.55,1019.39 1234.55,1019.39 1236.54,1019.39 1238.54,1019.39 1240.54,1019.39 1242.53,1019.39 1244.53,1019.39 1246.53,1019.39 1248.52,1019.39 1250.52,1019.39 1252.52,1019.39 1254.52,1019.39 1256.51,1019.39 1258.51,1019.39 1260.51,1019.39 1262.5,1019.39 1264.5,1019.39 1266.5,1019.39 1268.49,1019.39 1270.49,1019.39 1272.49,1019.39 1274.48,1019.39 1276.48,1019.39 1278.48,1019.39 1280.48,1019.39 1282.47,1019.39 1284.47,1019.39 1286.47,1019.39 1288.46,1019.39 1290.46,1019.39 1292.46,1019.39 1294.45,1019.39 1296.45,1019.39 1298.45,1019.39 1300.44,1019.39 1302.44,1019.39 1304.44,1019.39 1306.44,1019.39 1308.43,1019.39 1310.43,1019.39 1312.43,1019.39 1314.42,1019.39 1316.42,1019.39 1318.42,1019.39 1320.41,1019.39 1322.41,1019.39 1324.41,1019.39 1326.4,1019.39 1328.4,1019.39 1330.4,1019.39 1332.39,1019.39 1334.39,1019.39 1336.39,1019.39 1338.39,1019.39 1340.38,1019.39 1342.38,1019.39 1344.38,1019.39 1346.37,1019.39 1348.37,1019.39 1350.37,1019.39 1352.36,1019.39 1354.36,1019.39 1356.36,1019.39 1358.35,1019.39 1360.35,1019.39 1362.35,1019.39 1364.35,1019.39 1366.34,1019.39 1368.34,1019.39 1370.34,1019.39 1372.33,1019.39 1374.33,1019.39 1376.33,1019.39 1378.32,1019.39 1380.32,1019.39 1382.32,1019.39 1384.31,1019.39 1386.31,1019.39 1388.31,1019.39 1390.31,1019.39 1392.3,1019.39 1394.3,1019.39 1396.3,1019.39 1398.29,1019.39 1400.29,1019.39 1402.29,1019.39 1404.28,1019.39 1406.28,1019.39 1408.28,1019.39 1410.27,1019.39 1412.27,1019.39 1414.27,1019.39 1416.27,1019.39 1418.26,1019.39 1420.26,1019.39 1422.26,1019.39 1424.25,1019.39 1426.25,1019.39 1428.25,1019.39 1430.24,1019.39 1432.24,1019.39 1434.24,1019.39 1436.23,1019.39 1438.23,1019.39 1440.23,1019.39 1442.22,1019.39 1444.22,1019.39 1446.22,1019.39 1448.22,1019.39 1450.21,1019.39 1452.21,1019.39 1454.21,1019.39 1456.2,1019.39 1458.2,1019.39 1460.2,1019.39 1462.19,1019.39 1464.19,1019.39 1466.19,1019.39 1468.18,1019.39 1470.18,1019.39 1472.18,1019.39 1474.18,1019.39 1476.17,1019.39 1478.17,1019.39 1480.17,1019.39 1482.16,1019.39 1484.16,1019.39 1486.16,1019.39 1488.15,1019.39 1490.15,1019.39 1492.15,1019.39 1494.14,1019.39 1496.14,1019.39 1498.14,1019.39 1500.14,1019.39 1502.13,1019.39 1504.13,1019.39 1506.13,1019.39 1508.12,1019.39 1510.12,1019.39 1512.12,1019.39 1514.11,1019.39 1516.11,1019.39 1518.11,1019.39 1520.1,1019.39 1522.1,1019.39 1524.1,1019.39 1526.1,1019.39 1528.09,1019.39 1530.09,1019.39 1532.09,1019.39 1534.08,1019.39 1536.08,1019.39 1538.08,1019.39 1540.07,1019.39 1542.07,1019.39 1544.07,1019.39 1546.06,1019.39 1548.06,1019.39 1550.06,1019.39 1552.05,1019.39 1554.05,1019.39 1556.05,1019.39 1558.05,1019.39 1560.04,1019.39 1562.04,1019.39 1564.04,1019.39 1566.03,1019.39 1568.03,1019.39 1570.03,1019.39 1572.02,1019.39 1574.02,1019.39 1576.02,1019.39 1578.01,1019.39 1580.01,1019.39 1582.01,1019.39 1584.01,1019.39 1586,1019.39 1588,1019.39 1590,1019.39 1591.99,1019.39 1593.99,1019.39 1595.99,1019.39 1597.98,1019.39 1599.98,1019.39 1601.98,1019.39 1603.97,1019.39 1605.97,1019.39 1607.97,1019.39 1609.97,1019.39 1611.96,1019.39 1613.96,1019.39 1615.96,1019.39 1617.95,1019.39 1619.95,1019.39 1621.95,1019.39 1623.94,1019.39 1625.94,1019.39 1627.94,1019.39 1629.93,1019.39 1631.93,1019.39 1633.93,1019.39 1635.93,1019.39 1637.92,1019.39 1639.92,1019.39 1641.92,1019.39 1643.91,1019.39 1645.91,1019.39 1647.91,1019.39 1649.9,1019.39 1651.9,1019.39 1653.9,1019.39 1655.89,1019.39 1657.89,1019.39 1659.89,1019.39 1661.88,1019.39 1663.88,1019.39 1665.88,1019.39 1667.88,1019.39 1669.87,1019.39 1671.87,1019.39 1673.87,1019.39 1675.86,1019.39 1677.86,1019.39 1679.86,1019.39 1681.85,1019.39 1683.85,1019.39 1685.85,1019.39 1687.84,1019.39 1689.84,1019.39 1691.84,1019.39 1693.84,1019.39 1695.83,1019.39 1697.83,1019.39 1699.83,1019.39 1701.82,1019.39 1703.82,1019.39 1705.82,1019.39 1707.81,1019.39 1709.81,1019.39 1711.81,1019.39 1713.8,1019.39 1715.8,1019.39 1717.8,1019.39 1719.8,1019.39 1721.79,1019.39 1723.79,1019.39 1725.79,1019.39 1727.78,1019.39 1729.78,1019.39 1731.78,1019.39 1733.77,1019.39 1735.77,1019.39 1737.77,1019.39 1739.76,1019.39 1741.76,1019.39 1743.76,1019.39 1745.76,1019.39 1747.75,1019.39 1749.75,1019.39 1751.75,1019.39 1753.74,1019.39 1755.74,1019.39 1757.74,1019.39 1759.73,1019.39 1761.73,1019.39 1763.73,1019.39 1765.72,1019.39 1767.72,1019.39 1769.72,1019.39 1771.72,1019.39 1773.71,1019.39 1775.71,1019.39 1777.71,1019.39 1779.7,1019.39 1781.7,1019.39 1783.7,1019.39 1785.69,1019.39 1787.69,1019.39 1789.69,1019.39 1791.68,1019.39 1793.68,1019.39 1795.68,1019.39 1797.67,1019.39 1799.67,1019.39 1801.67,1019.39 1803.67,1019.39 1805.66,1019.39 1807.66,1019.39 1809.66,1019.39 1811.65,1019.39 1813.65,1019.39 1815.65,1019.39 1817.64,1019.39 1819.64,1019.39 1821.64,1019.39 1823.63,1019.39 1825.63,1019.39 1827.63,1019.39 1829.63,1019.39 1831.62,1019.39 1833.62,1019.39 1835.62,1019.39 1837.61,1019.39 1839.61,1019.39 1841.61,1019.39 1843.6,1019.39 1845.6,1019.39 1847.6,1019.39 1849.59,1019.39 1851.59,1019.39 1853.59,1019.39 1855.59,1019.39 1857.58,1019.39 1859.58,1019.39 1861.58,1019.39 1863.57,1019.39 1865.57,1019.39 1867.57,1019.39 1869.56,1019.39 1871.56,1019.39 1873.56,1019.39 1875.55,1019.39 1877.55,1019.39 1879.55,1019.39 1881.55,1019.39 1883.54,1019.39 1885.54,1019.39 1887.54,1019.39 1889.53,1019.39 1891.53,1019.39 1893.53,1019.39 1895.52,1019.39 1897.52,1019.39 1899.52,1019.39 1901.51,1019.39 1903.51,1019.39 1905.51,1019.39 1907.5,1019.39 1909.5,1019.39 1911.5,1019.39 1913.5,1019.39 1915.49,1019.39 1917.49,1019.39 1919.49,1019.39 1921.48,1019.39 1923.48,1019.39 1925.48,1019.39 1927.47,1019.39 1929.47,1019.39 1931.47,1019.39 1933.46,1019.39 1935.46,1019.39 1937.46,1019.39 1939.46,1019.39 1941.45,1019.39 1943.45,1019.39 1945.45,1019.39 1947.44,1019.39 1949.44,1019.39 1951.44,1019.39 1953.43,1019.39 1955.43,1019.39 1957.43,1019.39 1959.42,1019.39 1961.42,1019.39 1963.42,1019.39 1965.42,1019.39 1967.41,1019.39 1969.41,1019.39 1971.41,1019.39 1973.4,1019.39 1975.4,1019.39 1977.4,1019.39 1979.39,1019.39 1981.39,1019.39 1983.39,1019.39 1985.38,1019.39 1987.38,1019.39 1989.38,1019.39 1991.38,1019.39 1993.37,1019.39 1995.37,1019.39 1997.37,1019.39 1999.36,1019.39 2001.36,1019.39 2003.36,1019.39 2005.35,1019.39 2007.35,1019.39 2009.35,1019.39 2011.34,1019.39 2013.34,1019.39 2015.34,1019.39 2017.33,1019.39 2019.33,1019.39 2021.33,1019.39 2023.33,1019.39 2025.32,1019.39 2027.32,1019.39 2029.32,1019.39 2031.31,1019.39 2033.31,1019.39 2035.31,1019.39 2037.3,1019.39 2039.3,1019.39 2041.3,1019.39 2043.29,1019.39 2045.29,1019.39 2047.29,1019.39 2049.29,1019.39 2051.28,1019.39 2053.28,1019.39 2055.28,1019.39 2057.27,1019.39 2059.27,1019.39 2061.27,1019.39 2063.26,1019.39 2065.26,1019.39 2067.26,1019.39 2069.25,1019.39 2071.25,1019.39 2073.25,1019.39 2075.25,1019.39 2077.24,1019.39 2079.24,1019.39 2081.24,1019.39 2083.23,1019.39 2085.23,1019.39 2087.23,1019.39 2089.22,1019.39 2091.22,1019.39 2093.22,1019.39 2095.21,1019.39 2097.21,1019.39 2099.21,1019.39 2101.21,1019.39 2103.2,1019.39 2105.2,1019.39 2107.2,1019.39 2109.19,1019.39 2111.19,1019.39 2113.19,1019.39 2115.18,1019.39 2117.18,1019.39 2119.18,1019.39 2121.17,1019.39 2123.17,1019.39 2125.17,1019.39 2127.16,1019.39 2129.16,1019.39 2131.16,1019.39 2133.16,1019.39 2135.15,1019.39 2137.15,1019.39 2139.15,1019.39 2141.14,1019.39 2143.14,1019.39 2145.14,1019.39 2147.13,1019.39 2149.13,1019.39 2151.13,1019.39 2153.12,1019.39 2155.12,1019.39 2157.12,1019.39 2159.12,1019.39 2161.11,1019.39 2163.11,1019.39 2165.11,1019.39 2167.1,1019.39 2169.1,1019.39 2171.1,1019.39 2173.09,1019.39 2175.09,1019.39 2177.09,1019.39 2179.08,1019.39 2181.08,1019.39 2183.08,1019.39 2185.08,1019.39 2187.07,1019.39 2189.07,1019.39 2191.07,1019.39 2193.06,1019.39 2195.06,1019.39 2197.06,1019.39 2199.05,1019.39 2201.05,1019.39 2203.05,1019.39 2205.04,1019.39 2207.04,1019.39 2209.04,1019.39 2211.04,1019.39 2213.03,1019.39 2215.03,1019.39 2217.03,1019.39 2219.02,1019.39 2221.02,1019.39 2223.02,1019.39 2225.01,1019.39 2227.01,1019.39 2229.01,1019.39 2231,1019.39 2233,1019.39 2235,1019.39 2237,1019.39 2238.99,1019.39 2240.99,1019.39 2242.99,1019.39 2244.98,1019.39 2246.98,1019.39 2248.98,1019.39 2250.97,1019.39 2252.97,1019.39 2254.97,1019.39 2256.96,1019.39 2258.96,1019.39 2260.96,1019.39 2262.95,1019.39 2264.95,1019.39 2266.95,1019.39 2268.95,1019.39 2270.94,1019.39 2272.94,1019.39 2274.94,1019.39 2276.93,1019.39 2278.93,1019.39 2280.93,1019.39 2282.92,1019.39 2284.92,1019.39 2286.92,1019.39 2288.91,1019.39 2290.91,1019.39 2292.91,1019.39 "/>
</svg>
