<?xml version="1.0" encoding="utf-8"?>
<svg xmlns="http://www.w3.org/2000/svg" xmlns:xlink="http://www.w3.org/1999/xlink" width="600" height="300" viewBox="0 0 2400 1200">
<defs>
  <clipPath id="clip720">
    <rect x="0" y="0" width="2400" height="1200"/>
  </clipPath>
</defs>
<path clip-path="url(#clip720)" d="M0 1200 L2400 1200 L2400 0 L0 0  Z" fill="#ffffff" fill-rule="evenodd" fill-opacity="1"/>
<defs>
  <clipPath id="clip721">
    <rect x="480" y="0" width="1681" height="1200"/>
  </clipPath>
</defs>
<path clip-path="url(#clip720)" d="M207.153 1047.7 L2352.76 1047.7 L2352.76 47.2441 L207.153 47.2441  Z" fill="#ffffff" fill-rule="evenodd" fill-opacity="1"/>
<defs>
  <clipPath id="clip722">
    <rect x="207" y="47" width="2147" height="1001"/>
  </clipPath>
</defs>
<polyline clip-path="url(#clip722)" style="stroke:#000000; stroke-linecap:round; stroke-linejoin:round; stroke-width:2; stroke-opacity:0.1; fill:none" points="207.781,1047.7 207.781,47.2441 "/>
<polyline clip-path="url(#clip722)" style="stroke:#000000; stroke-linecap:round; stroke-linejoin:round; stroke-width:2; stroke-opacity:0.1; fill:none" points="744.589,1047.7 744.589,47.2441 "/>
<polyline clip-path="url(#clip722)" style="stroke:#000000; stroke-linecap:round; stroke-linejoin:round; stroke-width:2; stroke-opacity:0.1; fill:none" points="1281.39,1047.7 1281.39,47.2441 "/>
<polyline clip-path="url(#clip722)" style="stroke:#000000; stroke-linecap:round; stroke-linejoin:round; stroke-width:2; stroke-opacity:0.1; fill:none" points="1818.2,1047.7 1818.2,47.2441 "/>
<polyline clip-path="url(#clip720)" style="stroke:#000000; stroke-linecap:round; stroke-linejoin:round; stroke-width:4; stroke-opacity:1; fill:none" points="207.153,1047.7 2352.76,1047.7 "/>
<polyline clip-path="url(#clip720)" style="stroke:#000000; stroke-linecap:round; stroke-linejoin:round; stroke-width:4; stroke-opacity:1; fill:none" points="207.781,1047.7 207.781,1028.8 "/>
<polyline clip-path="url(#clip720)" style="stroke:#000000; stroke-linecap:round; stroke-linejoin:round; stroke-width:4; stroke-opacity:1; fill:none" points="744.589,1047.7 744.589,1028.8 "/>
<polyline clip-path="url(#clip720)" style="stroke:#000000; stroke-linecap:round; stroke-linejoin:round; stroke-width:4; stroke-opacity:1; fill:none" points="1281.39,1047.7 1281.39,1028.8 "/>
<polyline clip-path="url(#clip720)" style="stroke:#000000; stroke-linecap:round; stroke-linejoin:round; stroke-width:4; stroke-opacity:1; fill:none" points="1818.2,1047.7 1818.2,1028.8 "/>
<path clip-path="url(#clip720)" d="M64.8184 1095.22 L77.2952 1095.22 L77.2952 1099.01 L64.8184 1099.01 L64.8184 1095.22 Z" fill="#000000" fill-rule="nonzero" fill-opacity="1" /><path clip-path="url(#clip720)" d="M94.6794 1078.62 Q91.0683 1078.62 89.2396 1082.18 Q87.434 1085.72 87.434 1092.85 Q87.434 1099.96 89.2396 1103.53 Q91.0683 1107.07 94.6794 1107.07 Q98.3136 1107.07 100.119 1103.53 Q101.948 1099.96 101.948 1092.85 Q101.948 1085.72 100.119 1082.18 Q98.3136 1078.62 94.6794 1078.62 M94.6794 1074.91 Q100.49 1074.91 103.545 1079.52 Q106.624 1084.1 106.624 1092.85 Q106.624 1101.58 103.545 1106.19 Q100.49 1110.77 94.6794 1110.77 Q88.8692 1110.77 85.7905 1106.19 Q82.735 1101.58 82.735 1092.85 Q82.735 1084.1 85.7905 1079.52 Q88.8692 1074.91 94.6794 1074.91 Z" fill="#000000" fill-rule="nonzero" fill-opacity="1" /><path clip-path="url(#clip720)" d="M124.841 1078.62 Q121.23 1078.62 119.401 1082.18 Q117.596 1085.72 117.596 1092.85 Q117.596 1099.96 119.401 1103.53 Q121.23 1107.07 124.841 1107.07 Q128.475 1107.07 130.281 1103.53 Q132.11 1099.96 132.11 1092.85 Q132.11 1085.72 130.281 1082.18 Q128.475 1078.62 124.841 1078.62 M124.841 1074.91 Q130.651 1074.91 133.707 1079.52 Q136.786 1084.1 136.786 1092.85 Q136.786 1101.58 133.707 1106.19 Q130.651 1110.77 124.841 1110.77 Q119.031 1110.77 115.952 1106.19 Q112.897 1101.58 112.897 1092.85 Q112.897 1084.1 115.952 1079.52 Q119.031 1074.91 124.841 1074.91 Z" fill="#000000" fill-rule="nonzero" fill-opacity="1" /><path clip-path="url(#clip720)" d="M145.049 1075.54 L163.406 1075.54 L163.406 1079.48 L149.332 1079.48 L149.332 1087.95 Q150.35 1087.6 151.369 1087.44 Q152.387 1087.25 153.406 1087.25 Q159.193 1087.25 162.573 1090.42 Q165.952 1093.6 165.952 1099.01 Q165.952 1104.59 162.48 1107.69 Q159.008 1110.77 152.688 1110.77 Q150.512 1110.77 148.244 1110.4 Q145.999 1110.03 143.591 1109.29 L143.591 1104.59 Q145.674 1105.72 147.897 1106.28 Q150.119 1106.84 152.596 1106.84 Q156.6 1106.84 158.938 1104.73 Q161.276 1102.62 161.276 1099.01 Q161.276 1095.4 158.938 1093.29 Q156.6 1091.19 152.596 1091.19 Q150.721 1091.19 148.846 1091.6 Q146.994 1092.02 145.049 1092.9 L145.049 1075.54 Z" fill="#000000" fill-rule="nonzero" fill-opacity="1" /><path clip-path="url(#clip720)" d="M175.304 1109.38 L175.304 1105.12 Q177.063 1105.96 178.869 1106.4 Q180.674 1106.84 182.41 1106.84 Q187.04 1106.84 189.471 1103.73 Q191.924 1100.61 192.271 1094.27 Q190.929 1096.26 188.869 1097.32 Q186.809 1098.39 184.309 1098.39 Q179.123 1098.39 176.091 1095.26 Q173.082 1092.11 173.082 1086.67 Q173.082 1081.35 176.23 1078.13 Q179.378 1074.91 184.609 1074.91 Q190.605 1074.91 193.753 1079.52 Q196.924 1084.1 196.924 1092.85 Q196.924 1101.03 193.035 1105.91 Q189.17 1110.77 182.619 1110.77 Q180.859 1110.77 179.054 1110.42 Q177.248 1110.08 175.304 1109.38 M184.609 1094.73 Q187.758 1094.73 189.586 1092.58 Q191.438 1090.42 191.438 1086.67 Q191.438 1082.95 189.586 1080.79 Q187.758 1078.62 184.609 1078.62 Q181.461 1078.62 179.609 1080.79 Q177.781 1082.95 177.781 1086.67 Q177.781 1090.42 179.609 1092.58 Q181.461 1094.73 184.609 1094.73 Z" fill="#000000" fill-rule="nonzero" fill-opacity="1" /><path clip-path="url(#clip720)" d="M202.572 1095.22 L215.049 1095.22 L215.049 1099.01 L202.572 1099.01 L202.572 1095.22 Z" fill="#000000" fill-rule="nonzero" fill-opacity="1" /><path clip-path="url(#clip720)" d="M232.433 1078.62 Q228.822 1078.62 226.993 1082.18 Q225.188 1085.72 225.188 1092.85 Q225.188 1099.96 226.993 1103.53 Q228.822 1107.07 232.433 1107.07 Q236.067 1107.07 237.873 1103.53 Q239.702 1099.96 239.702 1092.85 Q239.702 1085.72 237.873 1082.18 Q236.067 1078.62 232.433 1078.62 M232.433 1074.91 Q238.243 1074.91 241.299 1079.52 Q244.378 1084.1 244.378 1092.85 Q244.378 1101.58 241.299 1106.19 Q238.243 1110.77 232.433 1110.77 Q226.623 1110.77 223.544 1106.19 Q220.489 1101.58 220.489 1092.85 Q220.489 1084.1 223.544 1079.52 Q226.623 1074.91 232.433 1074.91 Z" fill="#000000" fill-rule="nonzero" fill-opacity="1" /><path clip-path="url(#clip720)" d="M253.405 1106.16 L261.044 1106.16 L261.044 1079.8 L252.734 1081.47 L252.734 1077.21 L260.998 1075.54 L265.674 1075.54 L265.674 1106.16 L273.313 1106.16 L273.313 1110.1 L253.405 1110.1 L253.405 1106.16 Z" fill="#000000" fill-rule="nonzero" fill-opacity="1" /><path clip-path="url(#clip720)" d="M280.002 1095.22 L292.479 1095.22 L292.479 1099.01 L280.002 1099.01 L280.002 1095.22 Z" fill="#000000" fill-rule="nonzero" fill-opacity="1" /><path clip-path="url(#clip720)" d="M309.863 1078.62 Q306.252 1078.62 304.424 1082.18 Q302.618 1085.72 302.618 1092.85 Q302.618 1099.96 304.424 1103.53 Q306.252 1107.07 309.863 1107.07 Q313.498 1107.07 315.303 1103.53 Q317.132 1099.96 317.132 1092.85 Q317.132 1085.72 315.303 1082.18 Q313.498 1078.62 309.863 1078.62 M309.863 1074.91 Q315.674 1074.91 318.729 1079.52 Q321.808 1084.1 321.808 1092.85 Q321.808 1101.58 318.729 1106.19 Q315.674 1110.77 309.863 1110.77 Q304.053 1110.77 300.975 1106.19 Q297.919 1101.58 297.919 1092.85 Q297.919 1084.1 300.975 1079.52 Q304.053 1074.91 309.863 1074.91 Z" fill="#000000" fill-rule="nonzero" fill-opacity="1" /><path clip-path="url(#clip720)" d="M330.836 1106.16 L338.474 1106.16 L338.474 1079.8 L330.164 1081.47 L330.164 1077.21 L338.428 1075.54 L343.104 1075.54 L343.104 1106.16 L350.743 1106.16 L350.743 1110.1 L330.836 1110.1 L330.836 1106.16 Z" fill="#000000" fill-rule="nonzero" fill-opacity="1" /><path clip-path="url(#clip720)" d="M622.53 1078.62 Q618.919 1078.62 617.09 1082.18 Q615.284 1085.72 615.284 1092.85 Q615.284 1099.96 617.09 1103.53 Q618.919 1107.07 622.53 1107.07 Q626.164 1107.07 627.97 1103.53 Q629.798 1099.96 629.798 1092.85 Q629.798 1085.72 627.97 1082.18 Q626.164 1078.62 622.53 1078.62 M622.53 1074.91 Q628.34 1074.91 631.396 1079.52 Q634.474 1084.1 634.474 1092.85 Q634.474 1101.58 631.396 1106.19 Q628.34 1110.77 622.53 1110.77 Q616.72 1110.77 613.641 1106.19 Q610.585 1101.58 610.585 1092.85 Q610.585 1084.1 613.641 1079.52 Q616.72 1074.91 622.53 1074.91 Z" fill="#000000" fill-rule="nonzero" fill-opacity="1" /><path clip-path="url(#clip720)" d="M655.539 1079.61 L643.733 1098.06 L655.539 1098.06 L655.539 1079.61 M654.312 1075.54 L660.192 1075.54 L660.192 1098.06 L665.122 1098.06 L665.122 1101.95 L660.192 1101.95 L660.192 1110.1 L655.539 1110.1 L655.539 1101.95 L639.937 1101.95 L639.937 1097.44 L654.312 1075.54 Z" fill="#000000" fill-rule="nonzero" fill-opacity="1" /><path clip-path="url(#clip720)" d="M671.673 1075.54 L693.895 1075.54 L693.895 1077.53 L681.349 1110.1 L676.465 1110.1 L688.27 1079.48 L671.673 1079.48 L671.673 1075.54 Z" fill="#000000" fill-rule="nonzero" fill-opacity="1" /><path clip-path="url(#clip720)" d="M701.835 1075.54 L724.057 1075.54 L724.057 1077.53 L711.511 1110.1 L706.627 1110.1 L718.432 1079.48 L701.835 1079.48 L701.835 1075.54 Z" fill="#000000" fill-rule="nonzero" fill-opacity="1" /><path clip-path="url(#clip720)" d="M730.423 1095.22 L742.9 1095.22 L742.9 1099.01 L730.423 1099.01 L730.423 1095.22 Z" fill="#000000" fill-rule="nonzero" fill-opacity="1" /><path clip-path="url(#clip720)" d="M760.284 1078.62 Q756.673 1078.62 754.844 1082.18 Q753.038 1085.72 753.038 1092.85 Q753.038 1099.96 754.844 1103.53 Q756.673 1107.07 760.284 1107.07 Q763.918 1107.07 765.724 1103.53 Q767.552 1099.96 767.552 1092.85 Q767.552 1085.72 765.724 1082.18 Q763.918 1078.62 760.284 1078.62 M760.284 1074.91 Q766.094 1074.91 769.149 1079.52 Q772.228 1084.1 772.228 1092.85 Q772.228 1101.58 769.149 1106.19 Q766.094 1110.77 760.284 1110.77 Q754.474 1110.77 751.395 1106.19 Q748.339 1101.58 748.339 1092.85 Q748.339 1084.1 751.395 1079.52 Q754.474 1074.91 760.284 1074.91 Z" fill="#000000" fill-rule="nonzero" fill-opacity="1" /><path clip-path="url(#clip720)" d="M781.256 1106.16 L788.895 1106.16 L788.895 1079.8 L780.585 1081.47 L780.585 1077.21 L788.848 1075.54 L793.524 1075.54 L793.524 1106.16 L801.163 1106.16 L801.163 1110.1 L781.256 1110.1 L781.256 1106.16 Z" fill="#000000" fill-rule="nonzero" fill-opacity="1" /><path clip-path="url(#clip720)" d="M807.853 1095.22 L820.33 1095.22 L820.33 1099.01 L807.853 1099.01 L807.853 1095.22 Z" fill="#000000" fill-rule="nonzero" fill-opacity="1" /><path clip-path="url(#clip720)" d="M837.714 1078.62 Q834.103 1078.62 832.274 1082.18 Q830.469 1085.72 830.469 1092.85 Q830.469 1099.96 832.274 1103.53 Q834.103 1107.07 837.714 1107.07 Q841.348 1107.07 843.154 1103.53 Q844.982 1099.96 844.982 1092.85 Q844.982 1085.72 843.154 1082.18 Q841.348 1078.62 837.714 1078.62 M837.714 1074.91 Q843.524 1074.91 846.58 1079.52 Q849.658 1084.1 849.658 1092.85 Q849.658 1101.58 846.58 1106.19 Q843.524 1110.77 837.714 1110.77 Q831.904 1110.77 828.825 1106.19 Q825.769 1101.58 825.769 1092.85 Q825.769 1084.1 828.825 1079.52 Q831.904 1074.91 837.714 1074.91 Z" fill="#000000" fill-rule="nonzero" fill-opacity="1" /><path clip-path="url(#clip720)" d="M858.686 1106.16 L866.325 1106.16 L866.325 1079.8 L858.015 1081.47 L858.015 1077.21 L866.279 1075.54 L870.954 1075.54 L870.954 1106.16 L878.593 1106.16 L878.593 1110.1 L858.686 1110.1 L858.686 1106.16 Z" fill="#000000" fill-rule="nonzero" fill-opacity="1" /><path clip-path="url(#clip720)" d="M1149.1 1106.16 L1156.74 1106.16 L1156.74 1079.8 L1148.43 1081.47 L1148.43 1077.21 L1156.69 1075.54 L1161.37 1075.54 L1161.37 1106.16 L1169.01 1106.16 L1169.01 1110.1 L1149.1 1110.1 L1149.1 1106.16 Z" fill="#000000" fill-rule="nonzero" fill-opacity="1" /><path clip-path="url(#clip720)" d="M1188.45 1078.62 Q1184.84 1078.62 1183.01 1082.18 Q1181.21 1085.72 1181.21 1092.85 Q1181.21 1099.96 1183.01 1103.53 Q1184.84 1107.07 1188.45 1107.07 Q1192.09 1107.07 1193.89 1103.53 Q1195.72 1099.96 1195.72 1092.85 Q1195.72 1085.72 1193.89 1082.18 Q1192.09 1078.62 1188.45 1078.62 M1188.45 1074.91 Q1194.26 1074.91 1197.32 1079.52 Q1200.4 1084.1 1200.4 1092.85 Q1200.4 1101.58 1197.32 1106.19 Q1194.26 1110.77 1188.45 1110.77 Q1182.64 1110.77 1179.56 1106.19 Q1176.51 1101.58 1176.51 1092.85 Q1176.51 1084.1 1179.56 1079.52 Q1182.64 1074.91 1188.45 1074.91 Z" fill="#000000" fill-rule="nonzero" fill-opacity="1" /><path clip-path="url(#clip720)" d="M1209.43 1106.16 L1217.06 1106.16 L1217.06 1079.8 L1208.75 1081.47 L1208.75 1077.21 L1217.02 1075.54 L1221.69 1075.54 L1221.69 1106.16 L1229.33 1106.16 L1229.33 1110.1 L1209.43 1110.1 L1209.43 1106.16 Z" fill="#000000" fill-rule="nonzero" fill-opacity="1" /><path clip-path="url(#clip720)" d="M1252.94 1091.47 Q1256.3 1092.18 1258.18 1094.45 Q1260.07 1096.72 1260.07 1100.05 Q1260.07 1105.17 1256.55 1107.97 Q1253.04 1110.77 1246.55 1110.77 Q1244.38 1110.77 1242.06 1110.33 Q1239.77 1109.91 1237.32 1109.06 L1237.32 1104.54 Q1239.26 1105.68 1241.58 1106.26 Q1243.89 1106.84 1246.42 1106.84 Q1250.81 1106.84 1253.11 1105.1 Q1255.42 1103.36 1255.42 1100.05 Q1255.42 1097 1253.27 1095.29 Q1251.14 1093.55 1247.32 1093.55 L1243.29 1093.55 L1243.29 1089.71 L1247.5 1089.71 Q1250.95 1089.71 1252.78 1088.34 Q1254.61 1086.95 1254.61 1084.36 Q1254.61 1081.7 1252.71 1080.29 Q1250.84 1078.85 1247.32 1078.85 Q1245.4 1078.85 1243.2 1079.27 Q1241 1079.68 1238.36 1080.56 L1238.36 1076.4 Q1241.02 1075.66 1243.34 1075.29 Q1245.68 1074.91 1247.74 1074.91 Q1253.06 1074.91 1256.16 1077.35 Q1259.26 1079.75 1259.26 1083.87 Q1259.26 1086.74 1257.62 1088.73 Q1255.98 1090.7 1252.94 1091.47 Z" fill="#000000" fill-rule="nonzero" fill-opacity="1" /><path clip-path="url(#clip720)" d="M1266.18 1095.22 L1278.66 1095.22 L1278.66 1099.01 L1266.18 1099.01 L1266.18 1095.22 Z" fill="#000000" fill-rule="nonzero" fill-opacity="1" /><path clip-path="url(#clip720)" d="M1296.05 1078.62 Q1292.43 1078.62 1290.61 1082.18 Q1288.8 1085.72 1288.8 1092.85 Q1288.8 1099.96 1290.61 1103.53 Q1292.43 1107.07 1296.05 1107.07 Q1299.68 1107.07 1301.49 1103.53 Q1303.31 1099.96 1303.31 1092.85 Q1303.31 1085.72 1301.49 1082.18 Q1299.68 1078.62 1296.05 1078.62 M1296.05 1074.91 Q1301.86 1074.91 1304.91 1079.52 Q1307.99 1084.1 1307.99 1092.85 Q1307.99 1101.58 1304.91 1106.19 Q1301.86 1110.77 1296.05 1110.77 Q1290.24 1110.77 1287.16 1106.19 Q1284.1 1101.58 1284.1 1092.85 Q1284.1 1084.1 1287.16 1079.52 Q1290.24 1074.91 1296.05 1074.91 Z" fill="#000000" fill-rule="nonzero" fill-opacity="1" /><path clip-path="url(#clip720)" d="M1317.02 1106.16 L1324.66 1106.16 L1324.66 1079.8 L1316.35 1081.47 L1316.35 1077.21 L1324.61 1075.54 L1329.29 1075.54 L1329.29 1106.16 L1336.92 1106.16 L1336.92 1110.1 L1317.02 1110.1 L1317.02 1106.16 Z" fill="#000000" fill-rule="nonzero" fill-opacity="1" /><path clip-path="url(#clip720)" d="M1343.61 1095.22 L1356.09 1095.22 L1356.09 1099.01 L1343.61 1099.01 L1343.61 1095.22 Z" fill="#000000" fill-rule="nonzero" fill-opacity="1" /><path clip-path="url(#clip720)" d="M1373.48 1078.62 Q1369.86 1078.62 1368.04 1082.18 Q1366.23 1085.72 1366.23 1092.85 Q1366.23 1099.96 1368.04 1103.53 Q1369.86 1107.07 1373.48 1107.07 Q1377.11 1107.07 1378.92 1103.53 Q1380.74 1099.96 1380.74 1092.85 Q1380.74 1085.72 1378.92 1082.18 Q1377.11 1078.62 1373.48 1078.62 M1373.48 1074.91 Q1379.29 1074.91 1382.34 1079.52 Q1385.42 1084.1 1385.42 1092.85 Q1385.42 1101.58 1382.34 1106.19 Q1379.29 1110.77 1373.48 1110.77 Q1367.67 1110.77 1364.59 1106.19 Q1361.53 1101.58 1361.53 1092.85 Q1361.53 1084.1 1364.59 1079.52 Q1367.67 1074.91 1373.48 1074.91 Z" fill="#000000" fill-rule="nonzero" fill-opacity="1" /><path clip-path="url(#clip720)" d="M1394.45 1106.16 L1402.09 1106.16 L1402.09 1079.8 L1393.78 1081.47 L1393.78 1077.21 L1402.04 1075.54 L1406.72 1075.54 L1406.72 1106.16 L1414.35 1106.16 L1414.35 1110.1 L1394.45 1110.1 L1394.45 1106.16 Z" fill="#000000" fill-rule="nonzero" fill-opacity="1" /><path clip-path="url(#clip720)" d="M1685.91 1106.16 L1693.55 1106.16 L1693.55 1079.8 L1685.24 1081.47 L1685.24 1077.21 L1693.5 1075.54 L1698.18 1075.54 L1698.18 1106.16 L1705.81 1106.16 L1705.81 1110.1 L1685.91 1110.1 L1685.91 1106.16 Z" fill="#000000" fill-rule="nonzero" fill-opacity="1" /><path clip-path="url(#clip720)" d="M1715.31 1075.54 L1733.66 1075.54 L1733.66 1079.48 L1719.59 1079.48 L1719.59 1087.95 Q1720.61 1087.6 1721.63 1087.44 Q1722.64 1087.25 1723.66 1087.25 Q1729.45 1087.25 1732.83 1090.42 Q1736.21 1093.6 1736.21 1099.01 Q1736.21 1104.59 1732.74 1107.69 Q1729.26 1110.77 1722.94 1110.77 Q1720.77 1110.77 1718.5 1110.4 Q1716.25 1110.03 1713.85 1109.29 L1713.85 1104.59 Q1715.93 1105.72 1718.15 1106.28 Q1720.38 1106.84 1722.85 1106.84 Q1726.86 1106.84 1729.19 1104.73 Q1731.53 1102.62 1731.53 1099.01 Q1731.53 1095.4 1729.19 1093.29 Q1726.86 1091.19 1722.85 1091.19 Q1720.98 1091.19 1719.1 1091.6 Q1717.25 1092.02 1715.31 1092.9 L1715.31 1075.54 Z" fill="#000000" fill-rule="nonzero" fill-opacity="1" /><path clip-path="url(#clip720)" d="M1758.27 1079.61 L1746.46 1098.06 L1758.27 1098.06 L1758.27 1079.61 M1757.04 1075.54 L1762.92 1075.54 L1762.92 1098.06 L1767.85 1098.06 L1767.85 1101.95 L1762.92 1101.95 L1762.92 1110.1 L1758.27 1110.1 L1758.27 1101.95 L1742.67 1101.95 L1742.67 1097.44 L1757.04 1075.54 Z" fill="#000000" fill-rule="nonzero" fill-opacity="1" /><path clip-path="url(#clip720)" d="M1775.72 1109.38 L1775.72 1105.12 Q1777.48 1105.96 1779.29 1106.4 Q1781.09 1106.84 1782.83 1106.84 Q1787.46 1106.84 1789.89 1103.73 Q1792.34 1100.61 1792.69 1094.27 Q1791.35 1096.26 1789.29 1097.32 Q1787.23 1098.39 1784.73 1098.39 Q1779.54 1098.39 1776.51 1095.26 Q1773.5 1092.11 1773.5 1086.67 Q1773.5 1081.35 1776.65 1078.13 Q1779.8 1074.91 1785.03 1074.91 Q1791.02 1074.91 1794.17 1079.52 Q1797.34 1084.1 1797.34 1092.85 Q1797.34 1101.03 1793.45 1105.91 Q1789.59 1110.77 1783.04 1110.77 Q1781.28 1110.77 1779.47 1110.42 Q1777.67 1110.08 1775.72 1109.38 M1785.03 1094.73 Q1788.18 1094.73 1790 1092.58 Q1791.86 1090.42 1791.86 1086.67 Q1791.86 1082.95 1790 1080.79 Q1788.18 1078.62 1785.03 1078.62 Q1781.88 1078.62 1780.03 1080.79 Q1778.2 1082.95 1778.2 1086.67 Q1778.2 1090.42 1780.03 1092.58 Q1781.88 1094.73 1785.03 1094.73 Z" fill="#000000" fill-rule="nonzero" fill-opacity="1" /><path clip-path="url(#clip720)" d="M1802.99 1095.22 L1815.47 1095.22 L1815.47 1099.01 L1802.99 1099.01 L1802.99 1095.22 Z" fill="#000000" fill-rule="nonzero" fill-opacity="1" /><path clip-path="url(#clip720)" d="M1832.85 1078.62 Q1829.24 1078.62 1827.41 1082.18 Q1825.61 1085.72 1825.61 1092.85 Q1825.61 1099.96 1827.41 1103.53 Q1829.24 1107.07 1832.85 1107.07 Q1836.49 1107.07 1838.29 1103.53 Q1840.12 1099.96 1840.12 1092.85 Q1840.12 1085.72 1838.29 1082.18 Q1836.49 1078.62 1832.85 1078.62 M1832.85 1074.91 Q1838.66 1074.91 1841.72 1079.52 Q1844.8 1084.1 1844.8 1092.85 Q1844.8 1101.58 1841.72 1106.19 Q1838.66 1110.77 1832.85 1110.77 Q1827.04 1110.77 1823.96 1106.19 Q1820.91 1101.58 1820.91 1092.85 Q1820.91 1084.1 1823.96 1079.52 Q1827.04 1074.91 1832.85 1074.91 Z" fill="#000000" fill-rule="nonzero" fill-opacity="1" /><path clip-path="url(#clip720)" d="M1853.82 1106.16 L1861.46 1106.16 L1861.46 1079.8 L1853.15 1081.47 L1853.15 1077.21 L1861.42 1075.54 L1866.09 1075.54 L1866.09 1106.16 L1873.73 1106.16 L1873.73 1110.1 L1853.82 1110.1 L1853.82 1106.16 Z" fill="#000000" fill-rule="nonzero" fill-opacity="1" /><path clip-path="url(#clip720)" d="M1880.42 1095.22 L1892.9 1095.22 L1892.9 1099.01 L1880.42 1099.01 L1880.42 1095.22 Z" fill="#000000" fill-rule="nonzero" fill-opacity="1" /><path clip-path="url(#clip720)" d="M1910.28 1078.62 Q1906.67 1078.62 1904.84 1082.18 Q1903.04 1085.72 1903.04 1092.85 Q1903.04 1099.96 1904.84 1103.53 Q1906.67 1107.07 1910.28 1107.07 Q1913.92 1107.07 1915.72 1103.53 Q1917.55 1099.96 1917.55 1092.85 Q1917.55 1085.72 1915.72 1082.18 Q1913.92 1078.62 1910.28 1078.62 M1910.28 1074.91 Q1916.09 1074.91 1919.15 1079.52 Q1922.23 1084.1 1922.23 1092.85 Q1922.23 1101.58 1919.15 1106.19 Q1916.09 1110.77 1910.28 1110.77 Q1904.47 1110.77 1901.39 1106.19 Q1898.34 1101.58 1898.34 1092.85 Q1898.34 1084.1 1901.39 1079.52 Q1904.47 1074.91 1910.28 1074.91 Z" fill="#000000" fill-rule="nonzero" fill-opacity="1" /><path clip-path="url(#clip720)" d="M1931.25 1106.16 L1938.89 1106.16 L1938.89 1079.8 L1930.58 1081.47 L1930.58 1077.21 L1938.85 1075.54 L1943.52 1075.54 L1943.52 1106.16 L1951.16 1106.16 L1951.16 1110.1 L1931.25 1110.1 L1931.25 1106.16 Z" fill="#000000" fill-rule="nonzero" fill-opacity="1" /><path clip-path="url(#clip720)" d="M846.673 1150.33 L846.673 1187.28 L854.439 1187.28 Q864.274 1187.28 868.825 1182.82 Q873.409 1178.37 873.409 1168.76 Q873.409 1159.21 868.825 1154.78 Q864.274 1150.33 854.439 1150.33 L846.673 1150.33 M840.243 1145.04 L853.452 1145.04 Q867.266 1145.04 873.727 1150.8 Q880.188 1156.53 880.188 1168.76 Q880.188 1181.04 873.695 1186.8 Q867.202 1192.56 853.452 1192.56 L840.243 1192.56 L840.243 1145.04 Z" fill="#000000" fill-rule="nonzero" fill-opacity="1" /><path clip-path="url(#clip720)" d="M906.383 1174.64 Q899.285 1174.64 896.548 1176.27 Q893.811 1177.89 893.811 1181.81 Q893.811 1184.92 895.848 1186.77 Q897.917 1188.59 901.45 1188.59 Q906.319 1188.59 909.247 1185.15 Q912.208 1181.68 912.208 1175.95 L912.208 1174.64 L906.383 1174.64 M918.064 1172.23 L918.064 1192.56 L912.208 1192.56 L912.208 1187.15 Q910.202 1190.4 907.21 1191.96 Q904.219 1193.49 899.89 1193.49 Q894.415 1193.49 891.169 1190.43 Q887.954 1187.34 887.954 1182.19 Q887.954 1176.17 891.965 1173.12 Q896.007 1170.06 903.996 1170.06 L912.208 1170.06 L912.208 1169.49 Q912.208 1165.45 909.534 1163.25 Q906.892 1161.02 902.086 1161.02 Q899.031 1161.02 896.134 1161.75 Q893.238 1162.49 890.564 1163.95 L890.564 1158.54 Q893.779 1157.3 896.803 1156.69 Q899.826 1156.06 902.691 1156.06 Q910.425 1156.06 914.245 1160.07 Q918.064 1164.08 918.064 1172.23 Z" fill="#000000" fill-rule="nonzero" fill-opacity="1" /><path clip-path="url(#clip720)" d="M944.959 1195.87 Q942.476 1202.24 940.121 1204.18 Q937.766 1206.12 933.819 1206.12 L929.14 1206.12 L929.14 1201.22 L932.578 1201.22 Q934.997 1201.22 936.334 1200.08 Q937.67 1198.93 939.294 1194.66 L940.344 1191.99 L925.926 1156.92 L932.132 1156.92 L943.272 1184.8 L954.412 1156.92 L960.619 1156.92 L944.959 1195.87 Z" fill="#000000" fill-rule="nonzero" fill-opacity="1" /><path clip-path="url(#clip720)" d="M991.429 1157.97 L991.429 1163.5 Q988.946 1162.23 986.273 1161.59 Q983.599 1160.96 980.734 1160.96 Q976.374 1160.96 974.178 1162.29 Q972.013 1163.63 972.013 1166.31 Q972.013 1168.34 973.573 1169.52 Q975.133 1170.67 979.843 1171.72 L981.848 1172.16 Q988.087 1173.5 990.697 1175.95 Q993.338 1178.37 993.338 1182.73 Q993.338 1187.69 989.392 1190.59 Q985.477 1193.49 978.602 1193.49 Q975.737 1193.49 972.618 1192.91 Q969.531 1192.37 966.093 1191.26 L966.093 1185.21 Q969.34 1186.9 972.491 1187.76 Q975.642 1188.59 978.729 1188.59 Q982.867 1188.59 985.095 1187.18 Q987.323 1185.75 987.323 1183.17 Q987.323 1180.79 985.7 1179.51 Q984.108 1178.24 978.666 1177.06 L976.629 1176.59 Q971.186 1175.44 968.767 1173.08 Q966.348 1170.7 966.348 1166.56 Q966.348 1161.53 969.913 1158.79 Q973.477 1156.06 980.034 1156.06 Q983.281 1156.06 986.145 1156.53 Q989.01 1157.01 991.429 1157.97 Z" fill="#000000" fill-rule="nonzero" fill-opacity="1" /><path clip-path="url(#clip720)" d="M1046.11 1157.97 L1046.11 1163.5 Q1043.63 1162.23 1040.95 1161.59 Q1038.28 1160.96 1035.42 1160.96 Q1031.06 1160.96 1028.86 1162.29 Q1026.69 1163.63 1026.69 1166.31 Q1026.69 1168.34 1028.25 1169.52 Q1029.81 1170.67 1034.52 1171.72 L1036.53 1172.16 Q1042.77 1173.5 1045.38 1175.95 Q1048.02 1178.37 1048.02 1182.73 Q1048.02 1187.69 1044.07 1190.59 Q1040.16 1193.49 1033.28 1193.49 Q1030.42 1193.49 1027.3 1192.91 Q1024.21 1192.37 1020.77 1191.26 L1020.77 1185.21 Q1024.02 1186.9 1027.17 1187.76 Q1030.32 1188.59 1033.41 1188.59 Q1037.55 1188.59 1039.78 1187.18 Q1042 1185.75 1042 1183.17 Q1042 1180.79 1040.38 1179.51 Q1038.79 1178.24 1033.35 1177.06 L1031.31 1176.59 Q1025.87 1175.44 1023.45 1173.08 Q1021.03 1170.7 1021.03 1166.56 Q1021.03 1161.53 1024.59 1158.79 Q1028.16 1156.06 1034.72 1156.06 Q1037.96 1156.06 1040.83 1156.53 Q1043.69 1157.01 1046.11 1157.97 Z" fill="#000000" fill-rule="nonzero" fill-opacity="1" /><path clip-path="url(#clip720)" d="M1057.35 1156.92 L1063.2 1156.92 L1063.2 1192.56 L1057.35 1192.56 L1057.35 1156.92 M1057.35 1143.04 L1063.2 1143.04 L1063.2 1150.45 L1057.35 1150.45 L1057.35 1143.04 Z" fill="#000000" fill-rule="nonzero" fill-opacity="1" /><path clip-path="url(#clip720)" d="M1105.09 1171.05 L1105.09 1192.56 L1099.23 1192.56 L1099.23 1171.24 Q1099.23 1166.18 1097.26 1163.66 Q1095.29 1161.15 1091.34 1161.15 Q1086.6 1161.15 1083.86 1164.17 Q1081.12 1167.2 1081.12 1172.42 L1081.12 1192.56 L1075.23 1192.56 L1075.23 1156.92 L1081.12 1156.92 L1081.12 1162.45 Q1083.22 1159.24 1086.05 1157.65 Q1088.92 1156.06 1092.64 1156.06 Q1098.79 1156.06 1101.94 1159.88 Q1105.09 1163.66 1105.09 1171.05 Z" fill="#000000" fill-rule="nonzero" fill-opacity="1" /><path clip-path="url(#clip720)" d="M1142.42 1158.28 L1142.42 1163.76 Q1139.94 1162.39 1137.43 1161.72 Q1134.94 1161.02 1132.4 1161.02 Q1126.7 1161.02 1123.55 1164.65 Q1120.4 1168.25 1120.4 1174.77 Q1120.4 1181.3 1123.55 1184.92 Q1126.7 1188.52 1132.4 1188.52 Q1134.94 1188.52 1137.43 1187.85 Q1139.94 1187.15 1142.42 1185.78 L1142.42 1191.2 Q1139.97 1192.34 1137.33 1192.91 Q1134.72 1193.49 1131.76 1193.49 Q1123.71 1193.49 1118.97 1188.43 Q1114.22 1183.37 1114.22 1174.77 Q1114.22 1166.05 1119 1161.05 Q1123.8 1156.06 1132.14 1156.06 Q1134.85 1156.06 1137.43 1156.63 Q1140 1157.17 1142.42 1158.28 Z" fill="#000000" fill-rule="nonzero" fill-opacity="1" /><path clip-path="url(#clip720)" d="M1183.1 1173.28 L1183.1 1176.14 L1156.17 1176.14 Q1156.56 1182.19 1159.8 1185.37 Q1163.08 1188.52 1168.9 1188.52 Q1172.28 1188.52 1175.43 1187.69 Q1178.61 1186.87 1181.73 1185.21 L1181.73 1190.75 Q1178.58 1192.09 1175.27 1192.79 Q1171.96 1193.49 1168.55 1193.49 Q1160.02 1193.49 1155.03 1188.52 Q1150.06 1183.56 1150.06 1175.09 Q1150.06 1166.34 1154.77 1161.21 Q1159.52 1156.06 1167.54 1156.06 Q1174.73 1156.06 1178.9 1160.7 Q1183.1 1165.32 1183.1 1173.28 M1177.24 1171.56 Q1177.18 1166.75 1174.54 1163.89 Q1171.93 1161.02 1167.6 1161.02 Q1162.7 1161.02 1159.74 1163.79 Q1156.81 1166.56 1156.36 1171.59 L1177.24 1171.56 Z" fill="#000000" fill-rule="nonzero" fill-opacity="1" /><path clip-path="url(#clip720)" d="M1215.37 1187.15 L1225.88 1187.15 L1225.88 1150.9 L1214.45 1153.19 L1214.45 1147.34 L1225.81 1145.04 L1232.24 1145.04 L1232.24 1187.15 L1242.75 1187.15 L1242.75 1192.56 L1215.37 1192.56 L1215.37 1187.15 Z" fill="#000000" fill-rule="nonzero" fill-opacity="1" /><path clip-path="url(#clip720)" d="M1254.11 1145.04 L1284.67 1145.04 L1284.67 1147.78 L1267.41 1192.56 L1260.7 1192.56 L1276.93 1150.45 L1254.11 1150.45 L1254.11 1145.04 Z" fill="#000000" fill-rule="nonzero" fill-opacity="1" /><path clip-path="url(#clip720)" d="M1333.24 1151.38 L1324.51 1175.03 L1341.99 1175.03 L1333.24 1151.38 M1329.61 1145.04 L1336.9 1145.04 L1355.01 1192.56 L1348.32 1192.56 L1343.99 1180.37 L1322.57 1180.37 L1318.24 1192.56 L1311.46 1192.56 L1329.61 1145.04 Z" fill="#000000" fill-rule="nonzero" fill-opacity="1" /><path clip-path="url(#clip720)" d="M1361.09 1178.5 L1361.09 1156.92 L1366.94 1156.92 L1366.94 1178.27 Q1366.94 1183.33 1368.92 1185.88 Q1370.89 1188.39 1374.84 1188.39 Q1379.58 1188.39 1382.31 1185.37 Q1385.08 1182.35 1385.08 1177.13 L1385.08 1156.92 L1390.94 1156.92 L1390.94 1192.56 L1385.08 1192.56 L1385.08 1187.09 Q1382.95 1190.34 1380.12 1191.93 Q1377.32 1193.49 1373.59 1193.49 Q1367.45 1193.49 1364.27 1189.67 Q1361.09 1185.85 1361.09 1178.5 M1375.82 1156.06 L1375.82 1156.06 Z" fill="#000000" fill-rule="nonzero" fill-opacity="1" /><path clip-path="url(#clip720)" d="M1426.46 1174.33 Q1426.46 1167.96 1423.82 1164.46 Q1421.21 1160.96 1416.47 1160.96 Q1411.76 1160.96 1409.11 1164.46 Q1406.5 1167.96 1406.5 1174.33 Q1406.5 1180.66 1409.11 1184.16 Q1411.76 1187.66 1416.47 1187.66 Q1421.21 1187.66 1423.82 1184.16 Q1426.46 1180.66 1426.46 1174.33 M1432.32 1188.14 Q1432.32 1197.24 1428.28 1201.67 Q1424.23 1206.12 1415.89 1206.12 Q1412.81 1206.12 1410.07 1205.65 Q1407.33 1205.2 1404.75 1204.24 L1404.75 1198.55 Q1407.33 1199.95 1409.85 1200.62 Q1412.36 1201.28 1414.97 1201.28 Q1420.73 1201.28 1423.6 1198.26 Q1426.46 1195.27 1426.46 1189.19 L1426.46 1186.29 Q1424.65 1189.44 1421.81 1191 Q1418.98 1192.56 1415.03 1192.56 Q1408.48 1192.56 1404.47 1187.57 Q1400.46 1182.57 1400.46 1174.33 Q1400.46 1166.05 1404.47 1161.05 Q1408.48 1156.06 1415.03 1156.06 Q1418.98 1156.06 1421.81 1157.62 Q1424.65 1159.18 1426.46 1162.33 L1426.46 1156.92 L1432.32 1156.92 L1432.32 1188.14 Z" fill="#000000" fill-rule="nonzero" fill-opacity="1" /><path clip-path="url(#clip720)" d="M1443.78 1178.5 L1443.78 1156.92 L1449.63 1156.92 L1449.63 1178.27 Q1449.63 1183.33 1451.61 1185.88 Q1453.58 1188.39 1457.53 1188.39 Q1462.27 1188.39 1465.01 1185.37 Q1467.77 1182.35 1467.77 1177.13 L1467.77 1156.92 L1473.63 1156.92 L1473.63 1192.56 L1467.77 1192.56 L1467.77 1187.09 Q1465.64 1190.34 1462.81 1191.93 Q1460.01 1193.49 1456.28 1193.49 Q1450.14 1193.49 1446.96 1189.67 Q1443.78 1185.85 1443.78 1178.5 M1458.51 1156.06 L1458.51 1156.06 Z" fill="#000000" fill-rule="nonzero" fill-opacity="1" /><path clip-path="url(#clip720)" d="M1508.42 1157.97 L1508.42 1163.5 Q1505.94 1162.23 1503.26 1161.59 Q1500.59 1160.96 1497.73 1160.96 Q1493.36 1160.96 1491.17 1162.29 Q1489 1163.63 1489 1166.31 Q1489 1168.34 1490.56 1169.52 Q1492.12 1170.67 1496.83 1171.72 L1498.84 1172.16 Q1505.08 1173.5 1507.69 1175.95 Q1510.33 1178.37 1510.33 1182.73 Q1510.33 1187.69 1506.38 1190.59 Q1502.47 1193.49 1495.59 1193.49 Q1492.73 1193.49 1489.61 1192.91 Q1486.52 1192.37 1483.08 1191.26 L1483.08 1185.21 Q1486.33 1186.9 1489.48 1187.76 Q1492.63 1188.59 1495.72 1188.59 Q1499.86 1188.59 1502.09 1187.18 Q1504.31 1185.75 1504.31 1183.17 Q1504.31 1180.79 1502.69 1179.51 Q1501.1 1178.24 1495.66 1177.06 L1493.62 1176.59 Q1488.18 1175.44 1485.76 1173.08 Q1483.34 1170.7 1483.34 1166.56 Q1483.34 1161.53 1486.9 1158.79 Q1490.47 1156.06 1497.03 1156.06 Q1500.27 1156.06 1503.14 1156.53 Q1506 1157.01 1508.42 1157.97 Z" fill="#000000" fill-rule="nonzero" fill-opacity="1" /><path clip-path="url(#clip720)" d="M1525.45 1146.79 L1525.45 1156.92 L1537.51 1156.92 L1537.51 1161.47 L1525.45 1161.47 L1525.45 1180.82 Q1525.45 1185.18 1526.63 1186.42 Q1527.84 1187.66 1531.5 1187.66 L1537.51 1187.66 L1537.51 1192.56 L1531.5 1192.56 Q1524.72 1192.56 1522.14 1190.05 Q1519.56 1187.5 1519.56 1180.82 L1519.56 1161.47 L1515.26 1161.47 L1515.26 1156.92 L1519.56 1156.92 L1519.56 1146.79 L1525.45 1146.79 Z" fill="#000000" fill-rule="nonzero" fill-opacity="1" /><path clip-path="url(#clip720)" d="M1572.3 1187.15 L1594.74 1187.15 L1594.74 1192.56 L1564.57 1192.56 L1564.57 1187.15 Q1568.23 1183.37 1574.53 1177 Q1580.86 1170.6 1582.48 1168.76 Q1585.57 1165.29 1586.78 1162.9 Q1588.02 1160.48 1588.02 1158.16 Q1588.02 1154.37 1585.35 1151.98 Q1582.71 1149.6 1578.44 1149.6 Q1575.42 1149.6 1572.04 1150.65 Q1568.7 1151.7 1564.88 1153.83 L1564.88 1147.34 Q1568.77 1145.78 1572.14 1144.98 Q1575.51 1144.18 1578.32 1144.18 Q1585.7 1144.18 1590.09 1147.88 Q1594.48 1151.57 1594.48 1157.74 Q1594.48 1160.67 1593.37 1163.31 Q1592.29 1165.92 1589.39 1169.49 Q1588.6 1170.41 1584.33 1174.84 Q1580.07 1179.23 1572.3 1187.15 Z" fill="#000000" fill-rule="nonzero" fill-opacity="1" /><path clip-path="url(#clip720)" d="M1621.98 1149.28 Q1617.02 1149.28 1614.5 1154.18 Q1612.02 1159.05 1612.02 1168.85 Q1612.02 1178.62 1614.5 1183.52 Q1617.02 1188.39 1621.98 1188.39 Q1626.98 1188.39 1629.46 1183.52 Q1631.98 1178.62 1631.98 1168.85 Q1631.98 1159.05 1629.46 1154.18 Q1626.98 1149.28 1621.98 1149.28 M1621.98 1144.18 Q1629.97 1144.18 1634.17 1150.52 Q1638.41 1156.82 1638.41 1168.85 Q1638.41 1180.85 1634.17 1187.18 Q1629.97 1193.49 1621.98 1193.49 Q1613.99 1193.49 1609.76 1187.18 Q1605.56 1180.85 1605.56 1168.85 Q1605.56 1156.82 1609.76 1150.52 Q1613.99 1144.18 1621.98 1144.18 Z" fill="#000000" fill-rule="nonzero" fill-opacity="1" /><path clip-path="url(#clip720)" d="M1655.24 1187.15 L1677.68 1187.15 L1677.68 1192.56 L1647.51 1192.56 L1647.51 1187.15 Q1651.17 1183.37 1657.47 1177 Q1663.81 1170.6 1665.43 1168.76 Q1668.52 1165.29 1669.73 1162.9 Q1670.97 1160.48 1670.97 1158.16 Q1670.97 1154.37 1668.29 1151.98 Q1665.65 1149.6 1661.39 1149.6 Q1658.36 1149.6 1654.99 1150.65 Q1651.65 1151.7 1647.83 1153.83 L1647.83 1147.34 Q1651.71 1145.78 1655.09 1144.98 Q1658.46 1144.18 1661.26 1144.18 Q1668.64 1144.18 1673.04 1147.88 Q1677.43 1151.57 1677.43 1157.74 Q1677.43 1160.67 1676.32 1163.31 Q1675.23 1165.92 1672.34 1169.49 Q1671.54 1170.41 1667.28 1174.84 Q1663.01 1179.23 1655.24 1187.15 Z" fill="#000000" fill-rule="nonzero" fill-opacity="1" /><path clip-path="url(#clip720)" d="M1692.29 1187.15 L1702.8 1187.15 L1702.8 1150.9 L1691.37 1153.19 L1691.37 1147.34 L1702.73 1145.04 L1709.16 1145.04 L1709.16 1187.15 L1719.67 1187.15 L1719.67 1192.56 L1692.29 1192.56 L1692.29 1187.15 Z" fill="#000000" fill-rule="nonzero" fill-opacity="1" /><polyline clip-path="url(#clip722)" style="stroke:#000000; stroke-linecap:round; stroke-linejoin:round; stroke-width:2; stroke-opacity:0.1; fill:none" points="207.153,940.733 2352.76,940.733 "/>
<polyline clip-path="url(#clip722)" style="stroke:#000000; stroke-linecap:round; stroke-linejoin:round; stroke-width:2; stroke-opacity:0.1; fill:none" points="207.153,776.874 2352.76,776.874 "/>
<polyline clip-path="url(#clip722)" style="stroke:#000000; stroke-linecap:round; stroke-linejoin:round; stroke-width:2; stroke-opacity:0.1; fill:none" points="207.153,613.015 2352.76,613.015 "/>
<polyline clip-path="url(#clip722)" style="stroke:#000000; stroke-linecap:round; stroke-linejoin:round; stroke-width:2; stroke-opacity:0.1; fill:none" points="207.153,449.157 2352.76,449.157 "/>
<polyline clip-path="url(#clip722)" style="stroke:#000000; stroke-linecap:round; stroke-linejoin:round; stroke-width:2; stroke-opacity:0.1; fill:none" points="207.153,285.298 2352.76,285.298 "/>
<polyline clip-path="url(#clip722)" style="stroke:#000000; stroke-linecap:round; stroke-linejoin:round; stroke-width:2; stroke-opacity:0.1; fill:none" points="207.153,121.439 2352.76,121.439 "/>
<polyline clip-path="url(#clip720)" style="stroke:#000000; stroke-linecap:round; stroke-linejoin:round; stroke-width:4; stroke-opacity:1; fill:none" points="207.153,1047.7 207.153,47.2441 "/>
<polyline clip-path="url(#clip720)" style="stroke:#000000; stroke-linecap:round; stroke-linejoin:round; stroke-width:4; stroke-opacity:1; fill:none" points="207.153,940.733 226.051,940.733 "/>
<polyline clip-path="url(#clip720)" style="stroke:#000000; stroke-linecap:round; stroke-linejoin:round; stroke-width:4; stroke-opacity:1; fill:none" points="207.153,776.874 226.051,776.874 "/>
<polyline clip-path="url(#clip720)" style="stroke:#000000; stroke-linecap:round; stroke-linejoin:round; stroke-width:4; stroke-opacity:1; fill:none" points="207.153,613.015 226.051,613.015 "/>
<polyline clip-path="url(#clip720)" style="stroke:#000000; stroke-linecap:round; stroke-linejoin:round; stroke-width:4; stroke-opacity:1; fill:none" points="207.153,449.157 226.051,449.157 "/>
<polyline clip-path="url(#clip720)" style="stroke:#000000; stroke-linecap:round; stroke-linejoin:round; stroke-width:4; stroke-opacity:1; fill:none" points="207.153,285.298 226.051,285.298 "/>
<polyline clip-path="url(#clip720)" style="stroke:#000000; stroke-linecap:round; stroke-linejoin:round; stroke-width:4; stroke-opacity:1; fill:none" points="207.153,121.439 226.051,121.439 "/>
<path clip-path="url(#clip720)" d="M114.973 926.532 Q111.362 926.532 109.533 930.096 Q107.727 933.638 107.727 940.768 Q107.727 947.874 109.533 951.439 Q111.362 954.98 114.973 954.98 Q118.607 954.98 120.412 951.439 Q122.241 947.874 122.241 940.768 Q122.241 933.638 120.412 930.096 Q118.607 926.532 114.973 926.532 M114.973 922.828 Q120.783 922.828 123.838 927.434 Q126.917 932.018 126.917 940.768 Q126.917 949.494 123.838 954.101 Q120.783 958.684 114.973 958.684 Q109.163 958.684 106.084 954.101 Q103.028 949.494 103.028 940.768 Q103.028 932.018 106.084 927.434 Q109.163 922.828 114.973 922.828 Z" fill="#000000" fill-rule="nonzero" fill-opacity="1" /><path clip-path="url(#clip720)" d="M135.135 952.133 L140.019 952.133 L140.019 958.013 L135.135 958.013 L135.135 952.133 Z" fill="#000000" fill-rule="nonzero" fill-opacity="1" /><path clip-path="url(#clip720)" d="M150.25 923.453 L168.607 923.453 L168.607 927.388 L154.533 927.388 L154.533 935.86 Q155.551 935.513 156.57 935.351 Q157.588 935.166 158.607 935.166 Q164.394 935.166 167.773 938.337 Q171.153 941.508 171.153 946.925 Q171.153 952.504 167.681 955.605 Q164.209 958.684 157.889 958.684 Q155.713 958.684 153.445 958.314 Q151.199 957.943 148.792 957.203 L148.792 952.504 Q150.875 953.638 153.097 954.193 Q155.32 954.749 157.797 954.749 Q161.801 954.749 164.139 952.643 Q166.477 950.536 166.477 946.925 Q166.477 943.314 164.139 941.207 Q161.801 939.101 157.797 939.101 Q155.922 939.101 154.047 939.518 Q152.195 939.934 150.25 940.814 L150.25 923.453 Z" fill="#000000" fill-rule="nonzero" fill-opacity="1" /><path clip-path="url(#clip720)" d="M104.788 790.219 L112.426 790.219 L112.426 763.853 L104.116 765.52 L104.116 761.261 L112.38 759.594 L117.056 759.594 L117.056 790.219 L124.695 790.219 L124.695 794.154 L104.788 794.154 L104.788 790.219 Z" fill="#000000" fill-rule="nonzero" fill-opacity="1" /><path clip-path="url(#clip720)" d="M134.139 788.275 L139.023 788.275 L139.023 794.154 L134.139 794.154 L134.139 788.275 Z" fill="#000000" fill-rule="nonzero" fill-opacity="1" /><path clip-path="url(#clip720)" d="M159.209 762.673 Q155.597 762.673 153.769 766.238 Q151.963 769.779 151.963 776.909 Q151.963 784.015 153.769 787.58 Q155.597 791.122 159.209 791.122 Q162.843 791.122 164.648 787.58 Q166.477 784.015 166.477 776.909 Q166.477 769.779 164.648 766.238 Q162.843 762.673 159.209 762.673 M159.209 758.969 Q165.019 758.969 168.074 763.576 Q171.153 768.159 171.153 776.909 Q171.153 785.636 168.074 790.242 Q165.019 794.825 159.209 794.825 Q153.398 794.825 150.32 790.242 Q147.264 785.636 147.264 776.909 Q147.264 768.159 150.32 763.576 Q153.398 758.969 159.209 758.969 Z" fill="#000000" fill-rule="nonzero" fill-opacity="1" /><path clip-path="url(#clip720)" d="M105.783 626.36 L113.422 626.36 L113.422 599.995 L105.112 601.661 L105.112 597.402 L113.375 595.735 L118.051 595.735 L118.051 626.36 L125.69 626.36 L125.69 630.295 L105.783 630.295 L105.783 626.36 Z" fill="#000000" fill-rule="nonzero" fill-opacity="1" /><path clip-path="url(#clip720)" d="M135.135 624.416 L140.019 624.416 L140.019 630.295 L135.135 630.295 L135.135 624.416 Z" fill="#000000" fill-rule="nonzero" fill-opacity="1" /><path clip-path="url(#clip720)" d="M150.25 595.735 L168.607 595.735 L168.607 599.671 L154.533 599.671 L154.533 608.143 Q155.551 607.796 156.57 607.634 Q157.588 607.448 158.607 607.448 Q164.394 607.448 167.773 610.62 Q171.153 613.791 171.153 619.208 Q171.153 624.786 167.681 627.888 Q164.209 630.967 157.889 630.967 Q155.713 630.967 153.445 630.596 Q151.199 630.226 148.792 629.485 L148.792 624.786 Q150.875 625.92 153.097 626.476 Q155.32 627.032 157.797 627.032 Q161.801 627.032 164.139 624.925 Q166.477 622.819 166.477 619.208 Q166.477 615.596 164.139 613.49 Q161.801 611.384 157.797 611.384 Q155.922 611.384 154.047 611.8 Q152.195 612.217 150.25 613.096 L150.25 595.735 Z" fill="#000000" fill-rule="nonzero" fill-opacity="1" /><path clip-path="url(#clip720)" d="M108.005 462.502 L124.324 462.502 L124.324 466.437 L102.38 466.437 L102.38 462.502 Q105.042 459.747 109.625 455.117 Q114.232 450.465 115.412 449.122 Q117.658 446.599 118.537 444.863 Q119.44 443.104 119.44 441.414 Q119.44 438.659 117.496 436.923 Q115.575 435.187 112.473 435.187 Q110.274 435.187 107.82 435.951 Q105.389 436.715 102.612 438.266 L102.612 433.543 Q105.436 432.409 107.889 431.83 Q110.343 431.252 112.38 431.252 Q117.75 431.252 120.945 433.937 Q124.139 436.622 124.139 441.113 Q124.139 443.242 123.329 445.164 Q122.542 447.062 120.436 449.654 Q119.857 450.326 116.755 453.543 Q113.653 456.738 108.005 462.502 Z" fill="#000000" fill-rule="nonzero" fill-opacity="1" /><path clip-path="url(#clip720)" d="M134.139 460.557 L139.023 460.557 L139.023 466.437 L134.139 466.437 L134.139 460.557 Z" fill="#000000" fill-rule="nonzero" fill-opacity="1" /><path clip-path="url(#clip720)" d="M159.209 434.955 Q155.597 434.955 153.769 438.52 Q151.963 442.062 151.963 449.191 Q151.963 456.298 153.769 459.863 Q155.597 463.404 159.209 463.404 Q162.843 463.404 164.648 459.863 Q166.477 456.298 166.477 449.191 Q166.477 442.062 164.648 438.52 Q162.843 434.955 159.209 434.955 M159.209 431.252 Q165.019 431.252 168.074 435.858 Q171.153 440.442 171.153 449.191 Q171.153 457.918 168.074 462.525 Q165.019 467.108 159.209 467.108 Q153.398 467.108 150.32 462.525 Q147.264 457.918 147.264 449.191 Q147.264 440.442 150.32 435.858 Q153.398 431.252 159.209 431.252 Z" fill="#000000" fill-rule="nonzero" fill-opacity="1" /><path clip-path="url(#clip720)" d="M109 298.643 L125.32 298.643 L125.32 302.578 L103.376 302.578 L103.376 298.643 Q106.038 295.888 110.621 291.259 Q115.227 286.606 116.408 285.263 Q118.653 282.74 119.533 281.004 Q120.436 279.245 120.436 277.555 Q120.436 274.8 118.491 273.064 Q116.57 271.328 113.468 271.328 Q111.269 271.328 108.815 272.092 Q106.385 272.856 103.607 274.407 L103.607 269.685 Q106.431 268.55 108.885 267.972 Q111.338 267.393 113.375 267.393 Q118.746 267.393 121.94 270.078 Q125.135 272.763 125.135 277.254 Q125.135 279.384 124.324 281.305 Q123.537 283.203 121.431 285.796 Q120.852 286.467 117.75 289.685 Q114.649 292.879 109 298.643 Z" fill="#000000" fill-rule="nonzero" fill-opacity="1" /><path clip-path="url(#clip720)" d="M135.135 296.698 L140.019 296.698 L140.019 302.578 L135.135 302.578 L135.135 296.698 Z" fill="#000000" fill-rule="nonzero" fill-opacity="1" /><path clip-path="url(#clip720)" d="M150.25 268.018 L168.607 268.018 L168.607 271.953 L154.533 271.953 L154.533 280.425 Q155.551 280.078 156.57 279.916 Q157.588 279.731 158.607 279.731 Q164.394 279.731 167.773 282.902 Q171.153 286.073 171.153 291.49 Q171.153 297.069 167.681 300.171 Q164.209 303.249 157.889 303.249 Q155.713 303.249 153.445 302.879 Q151.199 302.509 148.792 301.768 L148.792 297.069 Q150.875 298.203 153.097 298.759 Q155.32 299.314 157.797 299.314 Q161.801 299.314 164.139 297.208 Q166.477 295.101 166.477 291.49 Q166.477 287.879 164.139 285.773 Q161.801 283.666 157.797 283.666 Q155.922 283.666 154.047 284.083 Q152.195 284.499 150.25 285.379 L150.25 268.018 Z" fill="#000000" fill-rule="nonzero" fill-opacity="1" /><path clip-path="url(#clip720)" d="M118.144 120.085 Q121.5 120.803 123.375 123.071 Q125.274 125.34 125.274 128.673 Q125.274 133.789 121.755 136.59 Q118.237 139.391 111.755 139.391 Q109.579 139.391 107.264 138.951 Q104.973 138.534 102.519 137.678 L102.519 133.164 Q104.463 134.298 106.778 134.877 Q109.093 135.455 111.616 135.455 Q116.014 135.455 118.306 133.719 Q120.621 131.983 120.621 128.673 Q120.621 125.618 118.468 123.905 Q116.338 122.168 112.519 122.168 L108.491 122.168 L108.491 118.326 L112.704 118.326 Q116.153 118.326 117.982 116.96 Q119.811 115.571 119.811 112.979 Q119.811 110.317 117.912 108.905 Q116.037 107.469 112.519 107.469 Q110.598 107.469 108.399 107.886 Q106.2 108.303 103.561 109.182 L103.561 105.016 Q106.223 104.275 108.538 103.905 Q110.875 103.534 112.936 103.534 Q118.26 103.534 121.362 105.965 Q124.463 108.372 124.463 112.493 Q124.463 115.363 122.82 117.354 Q121.176 119.321 118.144 120.085 Z" fill="#000000" fill-rule="nonzero" fill-opacity="1" /><path clip-path="url(#clip720)" d="M134.139 132.84 L139.023 132.84 L139.023 138.719 L134.139 138.719 L134.139 132.84 Z" fill="#000000" fill-rule="nonzero" fill-opacity="1" /><path clip-path="url(#clip720)" d="M159.209 107.238 Q155.597 107.238 153.769 110.803 Q151.963 114.344 151.963 121.474 Q151.963 128.58 153.769 132.145 Q155.597 135.687 159.209 135.687 Q162.843 135.687 164.648 132.145 Q166.477 128.58 166.477 121.474 Q166.477 114.344 164.648 110.803 Q162.843 107.238 159.209 107.238 M159.209 103.534 Q165.019 103.534 168.074 108.141 Q171.153 112.724 171.153 121.474 Q171.153 130.201 168.074 134.807 Q165.019 139.391 159.209 139.391 Q153.398 139.391 150.32 134.807 Q147.264 130.201 147.264 121.474 Q147.264 112.724 150.32 108.141 Q153.398 103.534 159.209 103.534 Z" fill="#000000" fill-rule="nonzero" fill-opacity="1" /><path clip-path="url(#clip720)" d="M29.8442 875.545 Q30.5444 873.476 32.8361 871.534 Q35.1277 869.561 39.1381 867.587 L52.1242 861.063 L52.1242 867.969 L39.9338 874.049 Q35.1595 876.404 33.6 878.632 Q32.0404 880.828 32.0404 884.648 L32.0404 891.65 L52.1242 891.65 L52.1242 898.079 L4.60416 898.079 L4.60416 883.565 Q4.60416 875.417 8.00981 871.407 Q11.4155 867.396 18.2904 867.396 Q22.7782 867.396 25.7383 869.497 Q28.6984 871.566 29.8442 875.545 M9.88769 891.65 L26.7568 891.65 L26.7568 883.565 Q26.7568 878.918 24.6243 876.563 Q22.46 874.176 18.2904 874.176 Q14.1209 874.176 12.0202 876.563 Q9.88769 878.918 9.88769 883.565 L9.88769 891.65 Z" fill="#000000" fill-rule="nonzero" fill-opacity="1" /><path clip-path="url(#clip720)" d="M32.8361 825.478 L35.7006 825.478 L35.7006 852.405 Q41.7481 852.023 44.9309 848.777 Q48.0819 845.498 48.0819 839.674 Q48.0819 836.3 47.2544 833.149 Q46.4269 829.966 44.7718 826.847 L50.3099 826.847 Q51.6467 829.998 52.347 833.308 Q53.0472 836.618 53.0472 840.024 Q53.0472 848.554 48.0819 853.551 Q43.1167 858.516 34.6503 858.516 Q25.8974 858.516 20.7731 853.806 Q15.6168 849.063 15.6168 841.042 Q15.6168 833.849 20.2638 829.68 Q24.8789 825.478 32.8361 825.478 M31.1173 831.335 Q26.3112 831.398 23.4466 834.04 Q20.5821 836.65 20.5821 840.979 Q20.5821 845.88 23.3512 848.84 Q26.1202 851.769 31.1492 852.214 L31.1173 831.335 Z" fill="#000000" fill-rule="nonzero" fill-opacity="1" /><path clip-path="url(#clip720)" d="M46.777 810.201 L65.6831 810.201 L65.6831 816.089 L16.4762 816.089 L16.4762 810.201 L21.8871 810.201 Q18.7042 808.355 17.1764 805.554 Q15.6168 802.721 15.6168 798.806 Q15.6168 792.313 20.7731 788.271 Q25.9293 784.197 34.332 784.197 Q42.7347 784.197 47.891 788.271 Q53.0472 792.313 53.0472 798.806 Q53.0472 802.721 51.5194 805.554 Q49.9598 808.355 46.777 810.201 M34.332 790.276 Q27.8708 790.276 24.2105 792.95 Q20.5184 795.591 20.5184 800.238 Q20.5184 804.885 24.2105 807.559 Q27.8708 810.201 34.332 810.201 Q40.7932 810.201 44.4853 807.559 Q48.1456 804.885 48.1456 800.238 Q48.1456 795.591 44.4853 792.95 Q40.7932 790.276 34.332 790.276 Z" fill="#000000" fill-rule="nonzero" fill-opacity="1" /><path clip-path="url(#clip720)" d="M21.9507 753.832 Q21.3778 754.819 21.1232 755.997 Q20.8367 757.142 20.8367 758.543 Q20.8367 763.508 24.0832 766.182 Q27.2979 768.824 33.3453 768.824 L52.1242 768.824 L52.1242 774.712 L16.4762 774.712 L16.4762 768.824 L22.0144 768.824 Q18.7679 766.977 17.2083 764.017 Q15.6168 761.057 15.6168 756.824 Q15.6168 756.219 15.7123 755.487 Q15.776 754.755 15.9351 753.864 L21.9507 753.832 Z" fill="#000000" fill-rule="nonzero" fill-opacity="1" /><path clip-path="url(#clip720)" d="M20.5821 735.308 Q20.5821 740.019 24.2742 742.756 Q27.9345 745.493 34.332 745.493 Q40.7295 745.493 44.4217 742.788 Q48.0819 740.051 48.0819 735.308 Q48.0819 730.629 44.3898 727.892 Q40.6977 725.155 34.332 725.155 Q27.9981 725.155 24.306 727.892 Q20.5821 730.629 20.5821 735.308 M15.6168 735.308 Q15.6168 727.669 20.5821 723.309 Q25.5473 718.948 34.332 718.948 Q43.0849 718.948 48.0819 723.309 Q53.0472 727.669 53.0472 735.308 Q53.0472 742.979 48.0819 747.339 Q43.0849 751.668 34.332 751.668 Q25.5473 751.668 20.5821 747.339 Q15.6168 742.979 15.6168 735.308 Z" fill="#000000" fill-rule="nonzero" fill-opacity="1" /><path clip-path="url(#clip720)" d="M21.8871 685.783 L2.59896 685.783 L2.59896 679.926 L52.1242 679.926 L52.1242 685.783 L46.777 685.783 Q49.9598 687.629 51.5194 690.462 Q53.0472 693.263 53.0472 697.209 Q53.0472 703.67 47.891 707.745 Q42.7347 711.787 34.332 711.787 Q25.9293 711.787 20.7731 707.745 Q15.6168 703.67 15.6168 697.209 Q15.6168 693.263 17.1764 690.462 Q18.7042 687.629 21.8871 685.783 M34.332 705.739 Q40.7932 705.739 44.4853 703.098 Q48.1456 700.424 48.1456 695.777 Q48.1456 691.13 44.4853 688.456 Q40.7932 685.783 34.332 685.783 Q27.8708 685.783 24.2105 688.456 Q20.5184 691.13 20.5184 695.777 Q20.5184 700.424 24.2105 703.098 Q27.8708 705.739 34.332 705.739 Z" fill="#000000" fill-rule="nonzero" fill-opacity="1" /><path clip-path="url(#clip720)" d="M38.0559 668.468 L16.4762 668.468 L16.4762 662.612 L37.8331 662.612 Q42.8939 662.612 45.4402 660.638 Q47.9546 658.665 47.9546 654.718 Q47.9546 649.976 44.9309 647.239 Q41.9072 644.469 36.6873 644.469 L16.4762 644.469 L16.4762 638.613 L52.1242 638.613 L52.1242 644.469 L46.6496 644.469 Q49.8962 646.602 51.4876 649.435 Q53.0472 652.236 53.0472 655.96 Q53.0472 662.102 49.2278 665.285 Q45.4083 668.468 38.0559 668.468 M15.6168 653.732 L15.6168 653.732 Z" fill="#000000" fill-rule="nonzero" fill-opacity="1" /><path clip-path="url(#clip720)" d="M17.8448 600.896 L23.3193 600.896 Q21.9507 603.379 21.2823 605.893 Q20.5821 608.376 20.5821 610.922 Q20.5821 616.619 24.2105 619.77 Q27.8072 622.922 34.332 622.922 Q40.8569 622.922 44.4853 619.77 Q48.0819 616.619 48.0819 610.922 Q48.0819 608.376 47.4135 605.893 Q46.7133 603.379 45.3447 600.896 L50.7555 600.896 Q51.9014 603.347 52.4743 605.989 Q53.0472 608.599 53.0472 611.559 Q53.0472 619.611 47.9864 624.354 Q42.9257 629.096 34.332 629.096 Q25.611 629.096 20.6139 624.322 Q15.6168 619.516 15.6168 611.177 Q15.6168 608.471 16.1897 605.893 Q16.7308 603.315 17.8448 600.896 Z" fill="#000000" fill-rule="nonzero" fill-opacity="1" /><path clip-path="url(#clip720)" d="M6.35473 584.918 L16.4762 584.918 L16.4762 572.855 L21.0277 572.855 L21.0277 584.918 L40.3794 584.918 Q44.7399 584.918 45.9813 583.741 Q47.2226 582.531 47.2226 578.871 L47.2226 572.855 L52.1242 572.855 L52.1242 578.871 Q52.1242 585.65 49.6097 588.228 Q47.0634 590.807 40.3794 590.807 L21.0277 590.807 L21.0277 595.103 L16.4762 595.103 L16.4762 590.807 L6.35473 590.807 L6.35473 584.918 Z" fill="#000000" fill-rule="nonzero" fill-opacity="1" /><path clip-path="url(#clip720)" d="M16.4762 565.153 L16.4762 559.296 L52.1242 559.296 L52.1242 565.153 L16.4762 565.153 M2.59896 565.153 L2.59896 559.296 L10.015 559.296 L10.015 565.153 L2.59896 565.153 Z" fill="#000000" fill-rule="nonzero" fill-opacity="1" /><path clip-path="url(#clip720)" d="M20.5821 533.229 Q20.5821 537.939 24.2742 540.677 Q27.9345 543.414 34.332 543.414 Q40.7295 543.414 44.4217 540.708 Q48.0819 537.971 48.0819 533.229 Q48.0819 528.55 44.3898 525.813 Q40.6977 523.075 34.332 523.075 Q27.9981 523.075 24.306 525.813 Q20.5821 528.55 20.5821 533.229 M15.6168 533.229 Q15.6168 525.59 20.5821 521.229 Q25.5473 516.869 34.332 516.869 Q43.0849 516.869 48.0819 521.229 Q53.0472 525.59 53.0472 533.229 Q53.0472 540.899 48.0819 545.26 Q43.0849 549.589 34.332 549.589 Q25.5473 549.589 20.5821 545.26 Q15.6168 540.899 15.6168 533.229 Z" fill="#000000" fill-rule="nonzero" fill-opacity="1" /><path clip-path="url(#clip720)" d="M30.6081 477.529 L52.1242 477.529 L52.1242 483.385 L30.799 483.385 Q25.7383 483.385 23.2238 485.359 Q20.7094 487.332 20.7094 491.279 Q20.7094 496.021 23.7331 498.758 Q26.7568 501.496 31.9767 501.496 L52.1242 501.496 L52.1242 507.384 L16.4762 507.384 L16.4762 501.496 L22.0144 501.496 Q18.7997 499.395 17.2083 496.562 Q15.6168 493.698 15.6168 489.974 Q15.6168 483.831 19.4363 480.68 Q23.2238 477.529 30.6081 477.529 Z" fill="#000000" fill-rule="nonzero" fill-opacity="1" /><path clip-path="url(#clip720)" d="M30.6081 415.495 L52.1242 415.495 L52.1242 421.351 L30.799 421.351 Q25.7383 421.351 23.2238 423.325 Q20.7094 425.298 20.7094 429.245 Q20.7094 433.987 23.7331 436.725 Q26.7568 439.462 31.9767 439.462 L52.1242 439.462 L52.1242 445.35 L16.4762 445.35 L16.4762 439.462 L22.0144 439.462 Q18.7997 437.361 17.2083 434.528 Q15.6168 431.664 15.6168 427.94 Q15.6168 421.797 19.4363 418.646 Q23.2238 415.495 30.6081 415.495 Z" fill="#000000" fill-rule="nonzero" fill-opacity="1" /><path clip-path="url(#clip720)" d="M38.0559 404.419 L16.4762 404.419 L16.4762 398.562 L37.8331 398.562 Q42.8939 398.562 45.4402 396.589 Q47.9546 394.615 47.9546 390.669 Q47.9546 385.926 44.9309 383.189 Q41.9072 380.42 36.6873 380.42 L16.4762 380.42 L16.4762 374.563 L52.1242 374.563 L52.1242 380.42 L46.6496 380.42 Q49.8962 382.552 51.4876 385.385 Q53.0472 388.186 53.0472 391.91 Q53.0472 398.053 49.2278 401.236 Q45.4083 404.419 38.0559 404.419 M15.6168 389.682 L15.6168 389.682 Z" fill="#000000" fill-rule="nonzero" fill-opacity="1" /><path clip-path="url(#clip720)" d="M23.3193 334.746 Q19.3726 332.55 17.4947 329.494 Q15.6168 326.439 15.6168 322.301 Q15.6168 316.731 19.5317 313.707 Q23.4148 310.684 30.6081 310.684 L52.1242 310.684 L52.1242 316.572 L30.799 316.572 Q25.6746 316.572 23.192 318.386 Q20.7094 320.2 20.7094 323.924 Q20.7094 328.476 23.7331 331.118 Q26.7568 333.759 31.9767 333.759 L52.1242 333.759 L52.1242 339.648 L30.799 339.648 Q25.6428 339.648 23.192 341.462 Q20.7094 343.276 20.7094 347.064 Q20.7094 351.551 23.7649 354.193 Q26.7886 356.835 31.9767 356.835 L52.1242 356.835 L52.1242 362.723 L16.4762 362.723 L16.4762 356.835 L22.0144 356.835 Q18.736 354.83 17.1764 352.029 Q15.6168 349.228 15.6168 345.377 Q15.6168 341.494 17.5902 338.788 Q19.5636 336.051 23.3193 334.746 Z" fill="#000000" fill-rule="nonzero" fill-opacity="1" /><path clip-path="url(#clip720)" d="M34.332 273.412 Q27.8708 273.412 24.2105 276.086 Q20.5184 278.728 20.5184 283.375 Q20.5184 288.022 24.2105 290.695 Q27.8708 293.337 34.332 293.337 Q40.7932 293.337 44.4853 290.695 Q48.1456 288.022 48.1456 283.375 Q48.1456 278.728 44.4853 276.086 Q40.7932 273.412 34.332 273.412 M21.8871 293.337 Q18.7042 291.491 17.1764 288.69 Q15.6168 285.857 15.6168 281.942 Q15.6168 275.449 20.7731 271.407 Q25.9293 267.333 34.332 267.333 Q42.7347 267.333 47.891 271.407 Q53.0472 275.449 53.0472 281.942 Q53.0472 285.857 51.5194 288.69 Q49.9598 291.491 46.777 293.337 L52.1242 293.337 L52.1242 299.225 L2.59896 299.225 L2.59896 293.337 L21.8871 293.337 Z" fill="#000000" fill-rule="nonzero" fill-opacity="1" /><path clip-path="url(#clip720)" d="M32.8361 227.134 L35.7006 227.134 L35.7006 254.061 Q41.7481 253.679 44.9309 250.432 Q48.0819 247.154 48.0819 241.329 Q48.0819 237.955 47.2544 234.804 Q46.4269 231.622 44.7718 228.502 L50.3099 228.502 Q51.6467 231.653 52.347 234.964 Q53.0472 238.274 53.0472 241.679 Q53.0472 250.209 48.0819 255.206 Q43.1167 260.172 34.6503 260.172 Q25.8974 260.172 20.7731 255.461 Q15.6168 250.719 15.6168 242.698 Q15.6168 235.505 20.2638 231.335 Q24.8789 227.134 32.8361 227.134 M31.1173 232.99 Q26.3112 233.054 23.4466 235.696 Q20.5821 238.306 20.5821 242.634 Q20.5821 247.536 23.3512 250.496 Q26.1202 253.424 31.1492 253.87 L31.1173 232.99 Z" fill="#000000" fill-rule="nonzero" fill-opacity="1" /><path clip-path="url(#clip720)" d="M21.9507 196.865 Q21.3778 197.851 21.1232 199.029 Q20.8367 200.175 20.8367 201.575 Q20.8367 206.541 24.0832 209.214 Q27.2979 211.856 33.3453 211.856 L52.1242 211.856 L52.1242 217.744 L16.4762 217.744 L16.4762 211.856 L22.0144 211.856 Q18.7679 210.01 17.2083 207.05 Q15.6168 204.09 15.6168 199.857 Q15.6168 199.252 15.7123 198.52 Q15.776 197.788 15.9351 196.897 L21.9507 196.865 Z" fill="#000000" fill-rule="nonzero" fill-opacity="1" /><path clip-path="url(#clip722)" d="M2291.54 780.151 L2291.54 691.668 L2291.55 622.847 L2291.55 550.749 L2291.55 495.037 L2291.55 449.157 L2291.56 439.325 L2291.56 452.434 L2291.56 514.7 L2291.57 586.798 L2291.57 665.45 L2291.57 740.825 L2291.57 812.923 L2291.58 868.635 L2291.58 911.238 L2291.58 953.842 L2291.58 980.059 L2291.59 993.168 L2291.59 1003 L2291.59 1009.55 L2291.6 1003 L2291.6 1003 L2291.6 976.782 L2291.6 957.119 L2291.61 940.733 L2291.61 930.901 L2291.61 924.347 L2291.61 937.456 L2291.62 930.901 L2291.62 907.961 L2291.62 898.13 L2291.63 871.912 L2291.63 865.358 L2291.63 871.912 L2291.63 894.852 L2291.64 894.852 L2291.64 904.684 L2291.64 914.515 L2291.64 878.467 L2291.65 842.418 L2291.65 826.032 L2291.65 793.26 L2291.66 757.211 L2291.66 760.488 L2291.66 770.32 L2291.66 757.211 L2291.67 750.657 L2291.67 744.102 L2291.67 734.271 L2291.67 717.885 L2291.68 714.608 L2291.68 724.439 L2291.68 730.994 L2291.69 704.776 L2291.69 694.945 L2291.69 704.776 L2291.69 714.608 L2291.7 711.331 L2291.7 727.717 L2291.7 724.439 L2291.7 698.222 L2291.71 658.896 L2291.71 649.064 L2291.71 662.173 L2291.72 678.559 L2291.72 714.608 L2291.72 757.211 L2291.72 776.874 L2291.73 763.765 L2291.73 763.765 L2291.73 734.271 L2291.74 704.776 L2291.74 704.776 L2291.74 730.994 L2291.74 730.994 L2291.75 734.271 L2291.75 747.38 L2291.75 740.825 L2291.75 737.548 L2291.76 760.488 L2291.76 783.429 L2291.76 773.597 L2291.77 760.488 L2291.77 757.211 L2291.77 757.211 L2291.77 744.102 L2291.78 763.765 L2291.78 786.706 L2291.78 789.983 L2291.78 786.706 L2291.79 803.092 L2291.79 803.092 L2291.79 796.537 L2291.8 799.814 L2291.8 803.092 L2291.8 799.814 L2291.8 803.092 L2291.81 816.2 L2291.81 832.586 L2291.81 839.14 L2291.81 852.249 L2291.82 868.635 L2291.82 878.467 L2291.82 881.744 L2291.83 891.575 L2291.83 894.852 L2291.83 901.407 L2291.83 907.961 L2291.84 904.684 L2291.84 901.407 L2291.84 894.852 L2291.84 891.575 L2291.85 881.744 L2291.85 885.021 L2291.85 898.13 L2291.86 901.407 L2291.86 894.852 L2291.86 891.575 L2291.86 891.575 L2291.87 881.744 L2291.87 888.298 L2291.87 917.793 L2291.87 930.901 L2291.88 921.07 L2291.88 924.347 L2291.88 904.684 L2291.89 878.467 L2291.89 878.467 L2291.89 904.684 L2291.89 901.407 L2291.9 917.793 L2291.9 917.793 L2291.9 898.13 L2291.91 868.635 L2291.91 878.467 L2291.91 881.744 L2291.91 901.407 L2291.92 930.901 L2291.92 940.733 L2291.92 930.901 L2291.92 921.07 L2291.93 901.407 L2291.93 888.298 L2291.93 894.852 L2291.94 901.407 L2291.94 907.961 L2291.94 914.515 L2291.94 911.238 L2291.95 917.793 L2291.95 930.901 L2291.95 917.793 L2291.95 901.407 L2291.96 888.298 L2291.96 855.526 L2291.96 822.755 L2291.97 819.477 L2291.97 822.755 L2291.97 829.309 L2291.97 812.923 L2291.98 734.271 L2291.98 632.678 L2291.98 501.592 L2291.98 416.385 L2291.99 393.445 L2291.99 436.048 L2291.99 481.928 L2292 498.314 L2292 481.928 L2292 501.592 L2292 524.532 L2292.01 557.303 L2292.01 632.678 L2292.01 632.678 L2292.01 586.798 L2292.02 495.037 L2292.02 409.831 L2292.02 347.564 L2292.03 363.95 L2292.03 416.385 L2292.03 501.592 L2292.03 413.108 L2292.03 321.347 L2292.03 255.803 L2292.02 232.863 L2292.02 291.852 L2292.02 383.613 L2292.01 475.374 L2292.01 521.255 L2292.01 514.7 L2292.01 426.217 L2292 383.613 L2292 350.842 L2292 321.347 L2292 327.901 L2291.99 298.407 L2291.99 239.418 L2291.99 183.706 L2291.98 200.092 L2291.98 291.852 L2291.98 442.602 L2291.98 557.303 L2291.97 649.064 L2291.97 665.45 L2291.97 655.619 L2291.97 652.342 L2291.96 662.173 L2291.96 704.776 L2291.96 744.102 L2291.95 760.488 L2291.95 783.429 L2291.95 799.814 L2291.95 783.429 L2291.94 780.151 L2291.94 783.429 L2291.94 780.151 L2291.94 770.32 L2291.93 763.765 L2291.93 763.765 L2291.93 780.151 L2291.92 806.369 L2291.92 819.477 L2291.92 829.309 L2291.92 819.477 L2291.91 783.429 L2291.91 763.765 L2291.91 757.211 L2291.91 753.934 L2291.9 786.706 L2291.9 812.923 L2291.9 816.2 L2291.89 796.537 L2291.89 799.814 L2291.89 770.32 L2291.89 776.874 L2291.88 806.369 L2291.88 832.586 L2291.88 832.586 L2291.87 842.418 L2291.87 826.032 L2291.87 796.537 L2291.87 789.983 L2291.86 803.092 L2291.86 803.092 L2291.86 806.369 L2291.86 816.2 L2291.85 812.923 L2291.85 799.814 L2291.85 799.814 L2291.84 812.923 L2291.84 819.477 L2291.84 826.032 L2291.84 832.586 L2291.83 835.863 L2291.83 829.309 L2291.83 822.755 L2291.83 819.477 L2291.82 809.646 L2291.82 806.369 L2291.82 796.537 L2291.81 776.874 L2291.81 760.488 L2291.81 753.934 L2291.81 737.548 L2291.8 721.162 L2291.8 717.885 L2291.8 721.162 L2291.8 717.885 L2291.79 714.608 L2291.79 721.162 L2291.79 717.885 L2291.78 701.499 L2291.78 701.499 L2291.78 698.222 L2291.78 668.727 L2291.77 652.342 L2291.77 662.173 L2291.77 662.173 L2291.77 665.45 L2291.76 678.559 L2291.76 685.113 L2291.76 658.896 L2291.75 632.678 L2291.75 632.678 L2291.75 639.233 L2291.75 626.124 L2291.74 619.57 L2291.74 613.015 L2291.74 583.521 L2291.74 583.521 L2291.73 616.293 L2291.73 645.787 L2291.73 645.787 L2291.72 655.619 L2291.72 629.401 L2291.72 576.967 L2291.72 534.363 L2291.71 511.423 L2291.71 495.037 L2291.71 504.869 L2291.7 544.195 L2291.7 570.412 L2291.7 570.412 L2291.7 550.749 L2291.69 547.472 L2291.69 534.363 L2291.69 517.977 L2291.69 527.809 L2291.68 554.026 L2291.68 540.918 L2291.68 527.809 L2291.67 527.809 L2291.67 540.918 L2291.67 550.749 L2291.67 554.026 L2291.66 560.581 L2291.66 573.689 L2291.66 560.581 L2291.66 554.026 L2291.65 599.907 L2291.65 639.233 L2291.65 662.173 L2291.64 708.054 L2291.64 750.657 L2291.64 737.548 L2291.64 727.717 L2291.63 727.717 L2291.63 701.499 L2291.63 698.222 L2291.63 708.054 L2291.62 740.825 L2291.62 757.211 L2291.62 786.706 L2291.61 796.537 L2291.61 783.429 L2291.61 796.537 L2291.61 816.2 L2291.6 842.418 L2291.6 871.912 L2291.6 907.961 L2291.6 911.238 L2291.59 921.07 L2291.59 914.515 L2291.59 904.684 L2291.58 885.021 L2291.58 852.249 L2291.58 799.814 L2291.58 744.102 L2291.57 678.559 L2291.57 586.798 L2291.57 491.76 L2291.57 393.445 L2291.56 298.407 L2291.56 216.477 L2291.56 183.706 L2291.55 180.428 L2291.55 213.2 L2291.55 255.803 L2291.55 311.515 L2291.54 350.842 L2291.54 393.445  Z" fill="#13643f" fill-rule="evenodd" fill-opacity="0.3"/>
<polyline clip-path="url(#clip722)" style="stroke:#13643f; stroke-linecap:round; stroke-linejoin:round; stroke-width:4; stroke-opacity:1; fill:none" points="2291.54,604.848 2291.54,533.748 2291.55,475.051 2291.55,409.93 2291.55,359.182 2291.55,319.081 2291.56,315.499 2291.56,336.723 2291.56,409.439 2291.57,494.156 2291.57,580.93 2291.57,665.604 2291.57,748.236 2291.58,807.689 2291.58,859.065 2291.58,904.856 2291.58,933.78 2291.59,951.637 2291.59,961.199 2291.59,967.137 2291.6,960.008 2291.6,957.399 2291.6,928.351 2291.6,903.486 2291.61,881.289 2291.61,866.415 2291.61,857.442 2291.61,869.517 2291.62,862.315 2291.62,837.028 2291.62,822.991 2291.63,794.138 2291.63,785.672 2291.63,791.94 2291.63,814.362 2291.64,814.794 2291.64,825.756 2291.64,837.038 2291.64,797.329 2291.65,757.354 2291.65,737.456 2291.65,702.214 2291.66,660.089 2291.66,665.158 2291.66,677.139 2291.66,662.99 2291.67,656.911 2291.67,651.196 2291.67,641.529 2291.67,626.194 2291.68,624.577 2291.68,636.393 2291.68,645.706 2291.69,618.485 2291.69,609.043 2291.69,623.29 2291.69,633.499 2291.7,633.608 2291.7,650.683 2291.7,650.524 2291.7,623.448 2291.71,585.198 2291.71,574.954 2291.71,589.904 2291.72,607.173 2291.72,647.44 2291.72,694.472 2291.72,718.319 2291.73,707.056 2291.73,707.476 2291.73,675.698 2291.74,645.455 2291.74,645.047 2291.74,674.138 2291.74,675.868 2291.75,681.128 2291.75,694.48 2291.75,688.132 2291.75,686.141 2291.76,711.214 2291.76,736.093 2291.76,726.219 2291.77,715.121 2291.77,712.165 2291.77,710.99 2291.77,699.28 2291.78,717.306 2291.78,743.043 2291.78,747.481 2291.78,744.935 2291.79,761.592 2291.79,763.642 2291.79,755.759 2291.8,760.867 2291.8,762.94 2291.8,760.065 2291.8,763.573 2291.81,777.712 2291.81,793.87 2291.81,800.268 2291.81,816.043 2291.82,833.453 2291.82,842.314 2291.82,846.666 2291.83,856.126 2291.83,859.835 2291.83,865.968 2291.83,872.926 2291.84,869.439 2291.84,865.575 2291.84,858.46 2291.84,853.801 2291.85,841.769 2291.85,843.537 2291.85,857.007 2291.86,861.703 2291.86,851.365 2291.86,849.144 2291.86,848.523 2291.87,838.249 2291.87,843.875 2291.87,873.225 2291.87,888.777 2291.88,879.215 2291.88,880.62 2291.88,856.987 2291.89,829.321 2291.89,826.66 2291.89,855.088 2291.89,851.842 2291.9,869.042 2291.9,868.873 2291.9,845.055 2291.91,812.573 2291.91,820.325 2291.91,824.446 2291.91,843.768 2291.92,878.35 2291.92,887.162 2291.92,878.958 2291.92,865.294 2291.93,844.921 2291.93,828.715 2291.93,831.632 2291.94,838.262 2291.94,847.079 2291.94,852.672 2291.94,847.451 2291.95,853.934 2291.95,867.82 2291.95,852.762 2291.95,834.838 2291.96,820.322 2291.96,784.535 2291.96,746.84 2291.97,739.496 2291.97,742.747 2291.97,752.36 2291.97,735.287 2291.98,648.934 2291.98,541.131 2291.98,400.317 2291.98,310.664 2291.99,291.535 2291.99,340.39 2291.99,392.633 2292,415.375 2292,404.176 2292,427.086 2292,457.11 2292.01,491.65 2292.01,575.092 2292.01,577.399 2292.01,532.132 2292.02,439.85 2292.02,352.019 2292.02,292.522 2292.03,310.495 2292.03,369.655 2292.03,458.199 "/>
<path clip-path="url(#clip722)" d="M267.878 793.26 L267.88 685.113 L267.883 613.015 L267.886 537.64 L267.889 485.206 L267.891 445.88 L267.894 452.434 L267.897 472.097 L267.899 563.858 L267.902 649.064 L267.905 727.717 L267.908 796.537 L267.91 868.635 L267.913 907.961 L267.916 947.287 L267.919 983.336 L267.921 999.722 L267.924 1009.55 L267.927 1016.11 L267.93 1019.39 L267.932 1009.55 L267.935 1009.55 L267.938 973.505 L267.941 950.564 L267.943 934.179 L267.946 927.624 L267.949 927.624 L267.952 950.564 L267.954 940.733 L267.957 907.961 L267.96 898.13 L267.963 868.635 L267.965 868.635 L267.968 885.021 L267.971 917.793 L267.974 911.238 L267.976 924.347 L267.979 934.179 L267.982 878.467 L267.984 835.863 L267.987 822.755 L267.99 786.706 L267.993 744.102 L267.995 767.043 L267.998 786.706 L268.001 767.043 L268.004 760.488 L268.006 753.934 L268.009 740.825 L268.012 724.439 L268.015 724.439 L268.017 737.548 L268.02 747.38 L268.023 708.054 L268.026 698.222 L268.028 717.885 L268.031 727.717 L268.034 721.162 L268.037 740.825 L268.039 734.271 L268.042 698.222 L268.045 658.896 L268.048 652.342 L268.05 672.005 L268.053 685.113 L268.056 727.717 L268.059 770.32 L268.061 786.706 L268.064 767.043 L268.067 767.043 L268.069 730.994 L268.072 701.499 L268.075 704.776 L268.078 737.548 L268.08 734.271 L268.083 737.548 L268.086 750.657 L268.089 740.825 L268.091 737.548 L268.094 763.765 L268.097 786.706 L268.1 773.597 L268.102 763.765 L268.105 760.488 L268.108 757.211 L268.111 747.38 L268.113 763.765 L268.116 789.983 L268.119 789.983 L268.122 786.706 L268.124 803.092 L268.127 806.369 L268.13 796.537 L268.133 803.092 L268.135 803.092 L268.138 799.814 L268.141 803.092 L268.144 819.477 L268.146 832.586 L268.149 839.14 L268.152 852.249 L268.154 868.635 L268.157 878.467 L268.16 881.744 L268.163 891.575 L268.165 894.852 L268.168 901.407 L268.171 907.961 L268.174 904.684 L268.176 901.407 L268.179 894.852 L268.182 891.575 L268.185 881.744 L268.187 885.021 L268.19 898.13 L268.193 901.407 L268.196 891.575 L268.198 891.575 L268.201 891.575 L268.204 881.744 L268.207 888.298 L268.209 914.515 L268.212 930.901 L268.215 921.07 L268.218 924.347 L268.22 904.684 L268.223 878.467 L268.226 878.467 L268.229 904.684 L268.231 901.407 L268.234 917.793 L268.237 917.793 L268.239 898.13 L268.242 868.635 L268.245 875.189 L268.248 881.744 L268.25 898.13 L268.253 927.624 L268.256 937.456 L268.259 930.901 L268.261 917.793 L268.264 901.407 L268.267 888.298 L268.27 891.575 L268.272 898.13 L268.275 907.961 L268.278 911.238 L268.281 907.961 L268.283 914.515 L268.286 927.624 L268.289 914.515 L268.292 901.407 L268.294 888.298 L268.297 858.804 L268.3 826.032 L268.303 819.477 L268.305 822.755 L268.308 829.309 L268.311 812.923 L268.314 737.548 L268.316 639.233 L268.319 504.869 L268.322 413.108 L268.324 393.445 L268.327 439.325 L268.33 481.928 L268.333 498.314 L268.335 481.928 L268.338 501.592 L268.341 527.809 L268.344 557.303 L268.346 635.956 L268.349 632.678 L268.352 586.798 L268.355 495.037 L268.357 406.553 L268.36 347.564 L268.363 363.95 L268.366 419.662 L268.368 504.869 L268.368 416.385 L268.366 321.347 L268.363 255.803 L268.36 229.586 L268.357 288.575 L268.355 377.059 L268.352 475.374 L268.349 521.255 L268.346 514.7 L268.344 426.217 L268.341 383.613 L268.338 350.842 L268.335 321.347 L268.333 327.901 L268.33 298.407 L268.327 236.14 L268.324 173.874 L268.322 186.983 L268.319 282.021 L268.316 445.88 L268.314 563.858 L268.311 655.619 L268.308 672.005 L268.305 662.173 L268.303 662.173 L268.3 672.005 L268.297 711.331 L268.294 750.657 L268.292 767.043 L268.289 786.706 L268.286 799.814 L268.283 786.706 L268.281 780.151 L268.278 786.706 L268.275 780.151 L268.272 773.597 L268.27 767.043 L268.267 767.043 L268.264 786.706 L268.261 806.369 L268.259 822.755 L268.256 829.309 L268.253 819.477 L268.25 783.429 L268.248 763.765 L268.245 760.488 L268.242 757.211 L268.239 789.983 L268.237 816.2 L268.234 816.2 L268.231 799.814 L268.229 799.814 L268.226 773.597 L268.223 776.874 L268.22 809.646 L268.218 832.586 L268.215 832.586 L268.212 842.418 L268.209 826.032 L268.207 796.537 L268.204 789.983 L268.201 803.092 L268.198 803.092 L268.196 806.369 L268.193 819.477 L268.19 812.923 L268.187 799.814 L268.185 799.814 L268.182 812.923 L268.179 819.477 L268.176 826.032 L268.174 832.586 L268.171 835.863 L268.168 829.309 L268.165 822.755 L268.163 819.477 L268.16 809.646 L268.157 803.092 L268.154 796.537 L268.152 776.874 L268.149 760.488 L268.146 753.934 L268.144 737.548 L268.141 721.162 L268.138 717.885 L268.135 721.162 L268.133 717.885 L268.13 711.331 L268.127 721.162 L268.124 717.885 L268.122 698.222 L268.119 701.499 L268.116 698.222 L268.113 668.727 L268.111 649.064 L268.108 658.896 L268.105 658.896 L268.102 662.173 L268.1 675.282 L268.097 688.39 L268.094 658.896 L268.091 629.401 L268.089 629.401 L268.086 639.233 L268.083 622.847 L268.08 616.293 L268.078 613.015 L268.075 576.967 L268.072 570.412 L268.069 603.184 L268.067 642.51 L268.064 642.51 L268.061 658.896 L268.059 632.678 L268.056 580.244 L268.053 527.809 L268.05 504.869 L268.048 478.651 L268.045 481.928 L268.042 527.809 L268.039 563.858 L268.037 563.858 L268.034 537.64 L268.031 537.64 L268.028 521.255 L268.026 495.037 L268.023 504.869 L268.02 540.918 L268.017 527.809 L268.015 504.869 L268.012 498.314 L268.009 514.7 L268.006 524.532 L268.004 527.809 L268.001 531.086 L267.998 547.472 L267.995 517.977 L267.993 485.206 L267.99 540.918 L267.987 586.798 L267.984 606.461 L267.982 668.727 L267.979 740.825 L267.976 724.439 L267.974 711.331 L267.971 714.608 L267.968 672.005 L267.965 652.342 L267.963 655.619 L267.96 698.222 L267.957 714.608 L267.954 760.488 L267.952 773.597 L267.949 744.102 L267.946 750.657 L267.943 763.765 L267.941 796.537 L267.938 832.586 L267.935 888.298 L267.932 894.852 L267.93 911.238 L267.927 911.238 L267.924 904.684 L267.921 891.575 L267.919 868.635 L267.916 819.477 L267.913 767.043 L267.91 711.331 L267.908 616.293 L267.905 517.977 L267.902 406.553 L267.899 308.238 L267.897 200.092 L267.894 137.825 L267.891 75.5589 L267.889 75.5589 L267.886 85.3904 L267.883 150.934 L267.88 209.923 L267.878 337.733  Z" fill="#e26f46" fill-rule="evenodd" fill-opacity="0.3"/>
<polyline clip-path="url(#clip722)" style="stroke:#e26f46; stroke-linecap:round; stroke-linejoin:round; stroke-width:4; stroke-opacity:1; fill:none" points="267.878,591.921 267.88,478.308 267.883,412.931 267.886,339.411 267.889,303.541 267.891,279.986 267.894,306.23 267.897,342.518 267.899,429.969 267.902,530.873 267.905,626.113 267.908,710.87 267.91,792.234 267.913,840.449 267.916,886.606 267.919,929.277 267.921,950.463 267.924,962.355 267.927,967.143 267.93,970.369 267.932,956.137 267.935,953.352 267.938,909.58 267.941,879.829 267.943,856.77 267.946,846.001 267.949,842.295 267.952,868.929 267.954,856.729 267.957,819.785 267.96,806.236 267.963,769.424 267.965,768.565 267.968,786.275 267.971,822.062 267.974,817.307 267.976,830.994 267.979,843.685 267.982,782.037 267.984,729.317 267.987,712.685 267.99,671.673 267.993,623.625 267.995,649.852 267.998,674.502 268.001,654.887 268.004,649.899 268.006,644.978 268.009,634.339 268.012,616.734 268.015,619.269 268.017,637.447 268.02,648.351 268.023,610.607 268.026,602.482 268.028,624.34 268.031,636.044 268.034,633.982 268.037,654.568 268.039,651.331 268.042,617.037 268.045,573.689 268.048,568.445 268.05,590.554 268.053,610.268 268.056,655.405 268.059,704.795 268.061,724.916 268.064,706.727 268.067,707.145 268.069,670.14 268.072,638.674 268.075,642.912 268.078,677.5 268.08,676.681 268.083,681.76 268.086,696.019 268.089,687.578 268.091,685.603 268.094,713.496 268.097,738.85 268.1,725.783 268.102,713.871 268.105,711.491 268.108,710.615 268.111,698.195 268.113,718.23 268.116,744.815 268.119,748.017 268.122,744.804 268.124,762.389 268.127,763.824 268.13,755.346 268.133,760.941 268.135,762.974 268.138,759.911 268.141,763.607 268.144,778.084 268.146,794.318 268.149,800.452 268.152,816.37 268.154,833.807 268.157,842.482 268.16,846.717 268.163,856.214 268.165,859.849 268.168,865.981 268.171,872.925 268.174,869.406 268.176,865.575 268.179,858.513 268.182,853.892 268.185,841.959 268.187,843.65 268.19,856.863 268.193,861.545 268.196,851.52 268.198,849.315 268.201,848.662 268.204,838.666 268.207,843.945 268.209,872.288 268.212,887.822 268.215,879.075 268.218,880.535 268.22,857.966 268.223,830.997 268.226,827.785 268.229,854.429 268.231,851.663 268.234,868.141 268.237,868.414 268.239,846.095 268.242,814.872 268.245,821.35 268.248,824.877 268.25,842.914 268.253,875.949 268.256,885.324 268.259,878.353 268.261,865.822 268.264,846.617 268.267,830.912 268.27,832.924 268.272,838.693 268.275,846.783 268.278,852.137 268.281,847.569 268.283,853.578 268.286,866.541 268.289,853.2 268.292,836.695 268.294,822.891 268.297,789.196 268.3,752.728 268.303,744.117 268.305,745.717 268.308,753.676 268.311,737.58 268.314,655.788 268.316,547.745 268.319,398.768 268.322,304.327 268.324,288.075 268.327,340.519 268.33,393.78 268.333,416.133 268.335,404.176 268.338,427.366 268.341,457.5 268.344,492.082 268.346,576.646 268.349,577.702 268.352,531.532 268.355,437.571 268.357,348.676 268.36,289.971 268.363,310.5 268.366,370.889 268.368,460.313 "/>
<path clip-path="url(#clip720)" d="M1774.36 184.273 L2281.24 184.273 L2281.24 80.5926 L1774.36 80.5926  Z" fill="#ffffff" fill-rule="evenodd" fill-opacity="1"/>
<polyline clip-path="url(#clip720)" style="stroke:#000000; stroke-linecap:round; stroke-linejoin:round; stroke-width:4; stroke-opacity:1; fill:none" points="1774.36,184.273 2281.24,184.273 2281.24,80.5926 1774.36,80.5926 1774.36,184.273 "/>
<polyline clip-path="url(#clip720)" style="stroke:#e26f46; stroke-linecap:round; stroke-linejoin:round; stroke-width:4; stroke-opacity:1; fill:none" points="1798.2,132.433 1941.24,132.433 "/>
<path clip-path="url(#clip720)" d="M1965.08 115.153 L1972.05 115.153 L1980.87 138.671 L1989.74 115.153 L1996.7 115.153 L1996.7 149.713 L1992.14 149.713 L1992.14 119.366 L1983.23 143.069 L1978.53 143.069 L1969.62 119.366 L1969.62 149.713 L1965.08 149.713 L1965.08 115.153 Z" fill="#000000" fill-rule="nonzero" fill-opacity="1" /><path clip-path="url(#clip720)" d="M2017.58 136.68 Q2012.42 136.68 2010.43 137.861 Q2008.44 139.041 2008.44 141.889 Q2008.44 144.157 2009.92 145.5 Q2011.42 146.819 2013.99 146.819 Q2017.54 146.819 2019.67 144.319 Q2021.82 141.796 2021.82 137.629 L2021.82 136.68 L2017.58 136.68 M2026.08 134.921 L2026.08 149.713 L2021.82 149.713 L2021.82 145.777 Q2020.36 148.139 2018.18 149.273 Q2016.01 150.384 2012.86 150.384 Q2008.88 150.384 2006.52 148.162 Q2004.18 145.916 2004.18 142.166 Q2004.18 137.791 2007.1 135.569 Q2010.04 133.347 2015.85 133.347 L2021.82 133.347 L2021.82 132.93 Q2021.82 129.991 2019.87 128.393 Q2017.95 126.773 2014.46 126.773 Q2012.24 126.773 2010.13 127.305 Q2008.02 127.838 2006.08 128.903 L2006.08 124.967 Q2008.42 124.065 2010.61 123.625 Q2012.81 123.162 2014.9 123.162 Q2020.52 123.162 2023.3 126.078 Q2026.08 128.995 2026.08 134.921 Z" fill="#000000" fill-rule="nonzero" fill-opacity="1" /><path clip-path="url(#clip720)" d="M2049.87 127.768 Q2049.16 127.352 2048.3 127.166 Q2047.47 126.958 2046.45 126.958 Q2042.84 126.958 2040.89 129.319 Q2038.97 131.657 2038.97 136.055 L2038.97 149.713 L2034.69 149.713 L2034.69 123.787 L2038.97 123.787 L2038.97 127.815 Q2040.31 125.453 2042.47 124.319 Q2044.62 123.162 2047.7 123.162 Q2048.14 123.162 2048.67 123.231 Q2049.2 123.278 2049.85 123.393 L2049.87 127.768 Z" fill="#000000" fill-rule="nonzero" fill-opacity="1" /><path clip-path="url(#clip720)" d="M2070.57 136.449 Q2070.57 131.819 2068.65 129.273 Q2066.75 126.727 2063.3 126.727 Q2059.87 126.727 2057.95 129.273 Q2056.05 131.819 2056.05 136.449 Q2056.05 141.055 2057.95 143.602 Q2059.87 146.148 2063.3 146.148 Q2066.75 146.148 2068.65 143.602 Q2070.57 141.055 2070.57 136.449 M2074.83 146.495 Q2074.83 153.115 2071.89 156.333 Q2068.95 159.574 2062.88 159.574 Q2060.64 159.574 2058.65 159.226 Q2056.66 158.902 2054.78 158.208 L2054.78 154.064 Q2056.66 155.083 2058.48 155.569 Q2060.31 156.055 2062.21 156.055 Q2066.4 156.055 2068.48 153.856 Q2070.57 151.68 2070.57 147.259 L2070.57 145.152 Q2069.25 147.444 2067.19 148.578 Q2065.13 149.713 2062.26 149.713 Q2057.49 149.713 2054.57 146.078 Q2051.66 142.444 2051.66 136.449 Q2051.66 130.43 2054.57 126.796 Q2057.49 123.162 2062.26 123.162 Q2065.13 123.162 2067.19 124.296 Q2069.25 125.43 2070.57 127.722 L2070.57 123.787 L2074.83 123.787 L2074.83 146.495 Z" fill="#000000" fill-rule="nonzero" fill-opacity="1" /><path clip-path="url(#clip720)" d="M2083.6 123.787 L2087.86 123.787 L2087.86 149.713 L2083.6 149.713 L2083.6 123.787 M2083.6 113.694 L2087.86 113.694 L2087.86 119.088 L2083.6 119.088 L2083.6 113.694 Z" fill="#000000" fill-rule="nonzero" fill-opacity="1" /><path clip-path="url(#clip720)" d="M2118.32 134.065 L2118.32 149.713 L2114.06 149.713 L2114.06 134.203 Q2114.06 130.523 2112.63 128.694 Q2111.19 126.866 2108.32 126.866 Q2104.87 126.866 2102.88 129.065 Q2100.89 131.264 2100.89 135.06 L2100.89 149.713 L2096.61 149.713 L2096.61 123.787 L2100.89 123.787 L2100.89 127.815 Q2102.42 125.477 2104.48 124.319 Q2106.56 123.162 2109.27 123.162 Q2113.74 123.162 2116.03 125.94 Q2118.32 128.694 2118.32 134.065 Z" fill="#000000" fill-rule="nonzero" fill-opacity="1" /><path clip-path="url(#clip720)" d="M2138.6 136.68 Q2133.44 136.68 2131.45 137.861 Q2129.46 139.041 2129.46 141.889 Q2129.46 144.157 2130.94 145.5 Q2132.44 146.819 2135.01 146.819 Q2138.55 146.819 2140.68 144.319 Q2142.84 141.796 2142.84 137.629 L2142.84 136.68 L2138.6 136.68 M2147.1 134.921 L2147.1 149.713 L2142.84 149.713 L2142.84 145.777 Q2141.38 148.139 2139.2 149.273 Q2137.03 150.384 2133.88 150.384 Q2129.9 150.384 2127.54 148.162 Q2125.2 145.916 2125.2 142.166 Q2125.2 137.791 2128.11 135.569 Q2131.05 133.347 2136.86 133.347 L2142.84 133.347 L2142.84 132.93 Q2142.84 129.991 2140.89 128.393 Q2138.97 126.773 2135.48 126.773 Q2133.25 126.773 2131.15 127.305 Q2129.04 127.838 2127.1 128.903 L2127.1 124.967 Q2129.43 124.065 2131.63 123.625 Q2133.83 123.162 2135.91 123.162 Q2141.54 123.162 2144.32 126.078 Q2147.1 128.995 2147.1 134.921 Z" fill="#000000" fill-rule="nonzero" fill-opacity="1" /><path clip-path="url(#clip720)" d="M2155.87 113.694 L2160.13 113.694 L2160.13 149.713 L2155.87 149.713 L2155.87 113.694 Z" fill="#000000" fill-rule="nonzero" fill-opacity="1" /><path clip-path="url(#clip720)" d="M2169.04 123.787 L2173.3 123.787 L2173.3 149.713 L2169.04 149.713 L2169.04 123.787 M2169.04 113.694 L2173.3 113.694 L2173.3 119.088 L2169.04 119.088 L2169.04 113.694 Z" fill="#000000" fill-rule="nonzero" fill-opacity="1" /><path clip-path="url(#clip720)" d="M2198.74 124.551 L2198.74 128.578 Q2196.93 127.653 2194.99 127.19 Q2193.04 126.727 2190.96 126.727 Q2187.79 126.727 2186.19 127.699 Q2184.62 128.671 2184.62 130.615 Q2184.62 132.097 2185.75 132.953 Q2186.89 133.787 2190.31 134.551 L2191.77 134.875 Q2196.31 135.847 2198.21 137.629 Q2200.13 139.389 2200.13 142.56 Q2200.13 146.171 2197.26 148.277 Q2194.41 150.384 2189.41 150.384 Q2187.33 150.384 2185.06 149.967 Q2182.81 149.574 2180.31 148.764 L2180.31 144.365 Q2182.67 145.592 2184.97 146.217 Q2187.26 146.819 2189.5 146.819 Q2192.51 146.819 2194.13 145.801 Q2195.75 144.759 2195.75 142.884 Q2195.75 141.148 2194.57 140.222 Q2193.41 139.296 2189.46 138.44 L2187.97 138.092 Q2184.02 137.259 2182.26 135.546 Q2180.5 133.81 2180.5 130.801 Q2180.5 127.143 2183.09 125.153 Q2185.68 123.162 2190.45 123.162 Q2192.81 123.162 2194.9 123.509 Q2196.98 123.856 2198.74 124.551 Z" fill="#000000" fill-rule="nonzero" fill-opacity="1" /><path clip-path="url(#clip720)" d="M2229.09 135.685 L2229.09 137.768 L2209.5 137.768 Q2209.78 142.166 2212.14 144.481 Q2214.53 146.773 2218.76 146.773 Q2221.22 146.773 2223.51 146.171 Q2225.82 145.569 2228.09 144.365 L2228.09 148.393 Q2225.8 149.365 2223.39 149.875 Q2220.98 150.384 2218.51 150.384 Q2212.3 150.384 2208.67 146.773 Q2205.06 143.162 2205.06 137.004 Q2205.06 130.639 2208.48 126.912 Q2211.93 123.162 2217.77 123.162 Q2223 123.162 2226.03 126.541 Q2229.09 129.898 2229.09 135.685 M2224.83 134.435 Q2224.78 130.94 2222.86 128.856 Q2220.96 126.773 2217.81 126.773 Q2214.25 126.773 2212.1 128.787 Q2209.97 130.801 2209.64 134.458 L2224.83 134.435 Z" fill="#000000" fill-rule="nonzero" fill-opacity="1" /><path clip-path="url(#clip720)" d="M2253.14 127.722 L2253.14 113.694 L2257.4 113.694 L2257.4 149.713 L2253.14 149.713 L2253.14 145.824 Q2251.79 148.139 2249.73 149.273 Q2247.7 150.384 2244.83 150.384 Q2240.13 150.384 2237.16 146.634 Q2234.22 142.884 2234.22 136.773 Q2234.22 130.662 2237.16 126.912 Q2240.13 123.162 2244.83 123.162 Q2247.7 123.162 2249.73 124.296 Q2251.79 125.407 2253.14 127.722 M2238.62 136.773 Q2238.62 141.472 2240.54 144.157 Q2242.49 146.819 2245.87 146.819 Q2249.25 146.819 2251.19 144.157 Q2253.14 141.472 2253.14 136.773 Q2253.14 132.074 2251.19 129.412 Q2249.25 126.727 2245.87 126.727 Q2242.49 126.727 2240.54 129.412 Q2238.62 132.074 2238.62 136.773 Z" fill="#000000" fill-rule="nonzero" fill-opacity="1" /></svg>
