<?xml version="1.0" encoding="utf-8"?>
<svg xmlns="http://www.w3.org/2000/svg" xmlns:xlink="http://www.w3.org/1999/xlink" width="600" height="300" viewBox="0 0 2400 1200">
<defs>
  <clipPath id="clip820">
    <rect x="0" y="0" width="2400" height="1200"/>
  </clipPath>
</defs>
<path clip-path="url(#clip820)" d="M0 1200 L2400 1200 L2400 0 L0 0  Z" fill="#ffffff" fill-rule="evenodd" fill-opacity="1"/>
<defs>
  <clipPath id="clip821">
    <rect x="480" y="0" width="1681" height="1200"/>
  </clipPath>
</defs>
<path clip-path="url(#clip820)" d="M207.153 1047.7 L2352.76 1047.7 L2352.76 47.2441 L207.153 47.2441  Z" fill="#ffffff" fill-rule="evenodd" fill-opacity="1"/>
<defs>
  <clipPath id="clip822">
    <rect x="207" y="47" width="2147" height="1001"/>
  </clipPath>
</defs>
<polyline clip-path="url(#clip822)" style="stroke:#000000; stroke-linecap:round; stroke-linejoin:round; stroke-width:2; stroke-opacity:0.1; fill:none" points="414.883,1047.7 414.883,47.2441 "/>
<polyline clip-path="url(#clip822)" style="stroke:#000000; stroke-linecap:round; stroke-linejoin:round; stroke-width:2; stroke-opacity:0.1; fill:none" points="1104.68,1047.7 1104.68,47.2441 "/>
<polyline clip-path="url(#clip822)" style="stroke:#000000; stroke-linecap:round; stroke-linejoin:round; stroke-width:2; stroke-opacity:0.1; fill:none" points="1794.47,1047.7 1794.47,47.2441 "/>
<polyline clip-path="url(#clip820)" style="stroke:#000000; stroke-linecap:round; stroke-linejoin:round; stroke-width:4; stroke-opacity:1; fill:none" points="207.153,1047.7 2352.76,1047.7 "/>
<polyline clip-path="url(#clip820)" style="stroke:#000000; stroke-linecap:round; stroke-linejoin:round; stroke-width:4; stroke-opacity:1; fill:none" points="414.883,1047.7 414.883,1028.8 "/>
<polyline clip-path="url(#clip820)" style="stroke:#000000; stroke-linecap:round; stroke-linejoin:round; stroke-width:4; stroke-opacity:1; fill:none" points="1104.68,1047.7 1104.68,1028.8 "/>
<polyline clip-path="url(#clip820)" style="stroke:#000000; stroke-linecap:round; stroke-linejoin:round; stroke-width:4; stroke-opacity:1; fill:none" points="1794.47,1047.7 1794.47,1028.8 "/>
<path clip-path="url(#clip820)" d="M286.678 1106.16 L302.997 1106.16 L302.997 1110.1 L281.053 1110.1 L281.053 1106.16 Q283.715 1103.41 288.298 1098.78 Q292.905 1094.13 294.085 1092.79 Q296.331 1090.26 297.21 1088.53 Q298.113 1086.77 298.113 1085.08 Q298.113 1082.32 296.168 1080.59 Q294.247 1078.85 291.145 1078.85 Q288.946 1078.85 286.493 1079.61 Q284.062 1080.38 281.284 1081.93 L281.284 1077.21 Q284.108 1076.07 286.562 1075.49 Q289.016 1074.91 291.053 1074.91 Q296.423 1074.91 299.618 1077.6 Q302.812 1080.29 302.812 1084.78 Q302.812 1086.91 302.002 1088.83 Q301.215 1090.72 299.108 1093.32 Q298.53 1093.99 295.428 1097.21 Q292.326 1100.4 286.678 1106.16 Z" fill="#000000" fill-rule="nonzero" fill-opacity="1" /><path clip-path="url(#clip820)" d="M322.812 1078.62 Q319.201 1078.62 317.372 1082.18 Q315.567 1085.72 315.567 1092.85 Q315.567 1099.96 317.372 1103.53 Q319.201 1107.07 322.812 1107.07 Q326.446 1107.07 328.252 1103.53 Q330.08 1099.96 330.08 1092.85 Q330.08 1085.72 328.252 1082.18 Q326.446 1078.62 322.812 1078.62 M322.812 1074.91 Q328.622 1074.91 331.678 1079.52 Q334.756 1084.1 334.756 1092.85 Q334.756 1101.58 331.678 1106.19 Q328.622 1110.77 322.812 1110.77 Q317.002 1110.77 313.923 1106.19 Q310.867 1101.58 310.867 1092.85 Q310.867 1084.1 313.923 1079.52 Q317.002 1074.91 322.812 1074.91 Z" fill="#000000" fill-rule="nonzero" fill-opacity="1" /><path clip-path="url(#clip820)" d="M347.002 1106.16 L363.321 1106.16 L363.321 1110.1 L341.377 1110.1 L341.377 1106.16 Q344.039 1103.41 348.622 1098.78 Q353.228 1094.13 354.409 1092.79 Q356.654 1090.26 357.534 1088.53 Q358.437 1086.77 358.437 1085.08 Q358.437 1082.32 356.492 1080.59 Q354.571 1078.85 351.469 1078.85 Q349.27 1078.85 346.816 1079.61 Q344.386 1080.38 341.608 1081.93 L341.608 1077.21 Q344.432 1076.07 346.886 1075.49 Q349.339 1074.91 351.377 1074.91 Q356.747 1074.91 359.941 1077.6 Q363.136 1080.29 363.136 1084.78 Q363.136 1086.91 362.326 1088.83 Q361.539 1090.72 359.432 1093.32 Q358.853 1093.99 355.752 1097.21 Q352.65 1100.4 347.002 1106.16 Z" fill="#000000" fill-rule="nonzero" fill-opacity="1" /><path clip-path="url(#clip820)" d="M373.946 1106.16 L381.585 1106.16 L381.585 1079.8 L373.275 1081.47 L373.275 1077.21 L381.538 1075.54 L386.214 1075.54 L386.214 1106.16 L393.853 1106.16 L393.853 1110.1 L373.946 1110.1 L373.946 1106.16 Z" fill="#000000" fill-rule="nonzero" fill-opacity="1" /><path clip-path="url(#clip820)" d="M400.543 1095.22 L413.02 1095.22 L413.02 1099.01 L400.543 1099.01 L400.543 1095.22 Z" fill="#000000" fill-rule="nonzero" fill-opacity="1" /><path clip-path="url(#clip820)" d="M430.404 1078.62 Q426.793 1078.62 424.964 1082.18 Q423.159 1085.72 423.159 1092.85 Q423.159 1099.96 424.964 1103.53 Q426.793 1107.07 430.404 1107.07 Q434.038 1107.07 435.844 1103.53 Q437.672 1099.96 437.672 1092.85 Q437.672 1085.72 435.844 1082.18 Q434.038 1078.62 430.404 1078.62 M430.404 1074.91 Q436.214 1074.91 439.27 1079.52 Q442.348 1084.1 442.348 1092.85 Q442.348 1101.58 439.27 1106.19 Q436.214 1110.77 430.404 1110.77 Q424.594 1110.77 421.515 1106.19 Q418.459 1101.58 418.459 1092.85 Q418.459 1084.1 421.515 1079.52 Q424.594 1074.91 430.404 1074.91 Z" fill="#000000" fill-rule="nonzero" fill-opacity="1" /><path clip-path="url(#clip820)" d="M450.705 1109.38 L450.705 1105.12 Q452.464 1105.96 454.269 1106.4 Q456.075 1106.84 457.811 1106.84 Q462.441 1106.84 464.871 1103.73 Q467.325 1100.61 467.672 1094.27 Q466.33 1096.26 464.269 1097.32 Q462.209 1098.39 459.709 1098.39 Q454.524 1098.39 451.492 1095.26 Q448.482 1092.11 448.482 1086.67 Q448.482 1081.35 451.631 1078.13 Q454.779 1074.91 460.01 1074.91 Q466.006 1074.91 469.154 1079.52 Q472.325 1084.1 472.325 1092.85 Q472.325 1101.03 468.436 1105.91 Q464.57 1110.77 458.019 1110.77 Q456.26 1110.77 454.455 1110.42 Q452.649 1110.08 450.705 1109.38 M460.01 1094.73 Q463.158 1094.73 464.987 1092.58 Q466.839 1090.42 466.839 1086.67 Q466.839 1082.95 464.987 1080.79 Q463.158 1078.62 460.01 1078.62 Q456.862 1078.62 455.01 1080.79 Q453.182 1082.95 453.182 1086.67 Q453.182 1090.42 455.01 1092.58 Q456.862 1094.73 460.01 1094.73 Z" fill="#000000" fill-rule="nonzero" fill-opacity="1" /><path clip-path="url(#clip820)" d="M477.973 1095.22 L490.45 1095.22 L490.45 1099.01 L477.973 1099.01 L477.973 1095.22 Z" fill="#000000" fill-rule="nonzero" fill-opacity="1" /><path clip-path="url(#clip820)" d="M507.834 1078.62 Q504.223 1078.62 502.394 1082.18 Q500.589 1085.72 500.589 1092.85 Q500.589 1099.96 502.394 1103.53 Q504.223 1107.07 507.834 1107.07 Q511.468 1107.07 513.274 1103.53 Q515.102 1099.96 515.102 1092.85 Q515.102 1085.72 513.274 1082.18 Q511.468 1078.62 507.834 1078.62 M507.834 1074.91 Q513.644 1074.91 516.7 1079.52 Q519.778 1084.1 519.778 1092.85 Q519.778 1101.58 516.7 1106.19 Q513.644 1110.77 507.834 1110.77 Q502.024 1110.77 498.945 1106.19 Q495.89 1101.58 495.89 1092.85 Q495.89 1084.1 498.945 1079.52 Q502.024 1074.91 507.834 1074.91 Z" fill="#000000" fill-rule="nonzero" fill-opacity="1" /><path clip-path="url(#clip820)" d="M528.806 1106.16 L536.445 1106.16 L536.445 1079.8 L528.135 1081.47 L528.135 1077.21 L536.399 1075.54 L541.075 1075.54 L541.075 1106.16 L548.713 1106.16 L548.713 1110.1 L528.806 1110.1 L528.806 1106.16 Z" fill="#000000" fill-rule="nonzero" fill-opacity="1" /><path clip-path="url(#clip820)" d="M976.473 1106.16 L992.793 1106.16 L992.793 1110.1 L970.848 1110.1 L970.848 1106.16 Q973.51 1103.41 978.094 1098.78 Q982.7 1094.13 983.881 1092.79 Q986.126 1090.26 987.006 1088.53 Q987.908 1086.77 987.908 1085.08 Q987.908 1082.32 985.964 1080.59 Q984.043 1078.85 980.941 1078.85 Q978.742 1078.85 976.288 1079.61 Q973.857 1080.38 971.08 1081.93 L971.08 1077.21 Q973.904 1076.07 976.357 1075.49 Q978.811 1074.91 980.848 1074.91 Q986.219 1074.91 989.413 1077.6 Q992.607 1080.29 992.607 1084.78 Q992.607 1086.91 991.797 1088.83 Q991.01 1090.72 988.904 1093.32 Q988.325 1093.99 985.223 1097.21 Q982.121 1100.4 976.473 1106.16 Z" fill="#000000" fill-rule="nonzero" fill-opacity="1" /><path clip-path="url(#clip820)" d="M1012.61 1078.62 Q1009 1078.62 1007.17 1082.18 Q1005.36 1085.72 1005.36 1092.85 Q1005.36 1099.96 1007.17 1103.53 Q1009 1107.07 1012.61 1107.07 Q1016.24 1107.07 1018.05 1103.53 Q1019.88 1099.96 1019.88 1092.85 Q1019.88 1085.72 1018.05 1082.18 Q1016.24 1078.62 1012.61 1078.62 M1012.61 1074.91 Q1018.42 1074.91 1021.47 1079.52 Q1024.55 1084.1 1024.55 1092.85 Q1024.55 1101.58 1021.47 1106.19 Q1018.42 1110.77 1012.61 1110.77 Q1006.8 1110.77 1003.72 1106.19 Q1000.66 1101.58 1000.66 1092.85 Q1000.66 1084.1 1003.72 1079.52 Q1006.8 1074.91 1012.61 1074.91 Z" fill="#000000" fill-rule="nonzero" fill-opacity="1" /><path clip-path="url(#clip820)" d="M1036.8 1106.16 L1053.12 1106.16 L1053.12 1110.1 L1031.17 1110.1 L1031.17 1106.16 Q1033.83 1103.41 1038.42 1098.78 Q1043.02 1094.13 1044.2 1092.79 Q1046.45 1090.26 1047.33 1088.53 Q1048.23 1086.77 1048.23 1085.08 Q1048.23 1082.32 1046.29 1080.59 Q1044.37 1078.85 1041.26 1078.85 Q1039.07 1078.85 1036.61 1079.61 Q1034.18 1080.38 1031.4 1081.93 L1031.4 1077.21 Q1034.23 1076.07 1036.68 1075.49 Q1039.13 1074.91 1041.17 1074.91 Q1046.54 1074.91 1049.74 1077.6 Q1052.93 1080.29 1052.93 1084.78 Q1052.93 1086.91 1052.12 1088.83 Q1051.33 1090.72 1049.23 1093.32 Q1048.65 1093.99 1045.55 1097.21 Q1042.45 1100.4 1036.8 1106.16 Z" fill="#000000" fill-rule="nonzero" fill-opacity="1" /><path clip-path="url(#clip820)" d="M1063.74 1106.16 L1071.38 1106.16 L1071.38 1079.8 L1063.07 1081.47 L1063.07 1077.21 L1071.33 1075.54 L1076.01 1075.54 L1076.01 1106.16 L1083.65 1106.16 L1083.65 1110.1 L1063.74 1110.1 L1063.74 1106.16 Z" fill="#000000" fill-rule="nonzero" fill-opacity="1" /><path clip-path="url(#clip820)" d="M1090.34 1095.22 L1102.82 1095.22 L1102.82 1099.01 L1090.34 1099.01 L1090.34 1095.22 Z" fill="#000000" fill-rule="nonzero" fill-opacity="1" /><path clip-path="url(#clip820)" d="M1111.01 1106.16 L1118.65 1106.16 L1118.65 1079.8 L1110.34 1081.47 L1110.34 1077.21 L1118.6 1075.54 L1123.28 1075.54 L1123.28 1106.16 L1130.92 1106.16 L1130.92 1110.1 L1111.01 1110.1 L1111.01 1106.16 Z" fill="#000000" fill-rule="nonzero" fill-opacity="1" /><path clip-path="url(#clip820)" d="M1141.17 1106.16 L1148.81 1106.16 L1148.81 1079.8 L1140.5 1081.47 L1140.5 1077.21 L1148.76 1075.54 L1153.44 1075.54 L1153.44 1106.16 L1161.08 1106.16 L1161.08 1110.1 L1141.17 1110.1 L1141.17 1106.16 Z" fill="#000000" fill-rule="nonzero" fill-opacity="1" /><path clip-path="url(#clip820)" d="M1167.77 1095.22 L1180.25 1095.22 L1180.25 1099.01 L1167.77 1099.01 L1167.77 1095.22 Z" fill="#000000" fill-rule="nonzero" fill-opacity="1" /><path clip-path="url(#clip820)" d="M1197.63 1078.62 Q1194.02 1078.62 1192.19 1082.18 Q1190.38 1085.72 1190.38 1092.85 Q1190.38 1099.96 1192.19 1103.53 Q1194.02 1107.07 1197.63 1107.07 Q1201.26 1107.07 1203.07 1103.53 Q1204.9 1099.96 1204.9 1092.85 Q1204.9 1085.72 1203.07 1082.18 Q1201.26 1078.62 1197.63 1078.62 M1197.63 1074.91 Q1203.44 1074.91 1206.5 1079.52 Q1209.57 1084.1 1209.57 1092.85 Q1209.57 1101.58 1206.5 1106.19 Q1203.44 1110.77 1197.63 1110.77 Q1191.82 1110.77 1188.74 1106.19 Q1185.69 1101.58 1185.69 1092.85 Q1185.69 1084.1 1188.74 1079.52 Q1191.82 1074.91 1197.63 1074.91 Z" fill="#000000" fill-rule="nonzero" fill-opacity="1" /><path clip-path="url(#clip820)" d="M1218.6 1106.16 L1226.24 1106.16 L1226.24 1079.8 L1217.93 1081.47 L1217.93 1077.21 L1226.19 1075.54 L1230.87 1075.54 L1230.87 1106.16 L1238.51 1106.16 L1238.51 1110.1 L1218.6 1110.1 L1218.6 1106.16 Z" fill="#000000" fill-rule="nonzero" fill-opacity="1" /><path clip-path="url(#clip820)" d="M1666.27 1106.16 L1682.59 1106.16 L1682.59 1110.1 L1660.64 1110.1 L1660.64 1106.16 Q1663.31 1103.41 1667.89 1098.78 Q1672.5 1094.13 1673.68 1092.79 Q1675.92 1090.26 1676.8 1088.53 Q1677.7 1086.77 1677.7 1085.08 Q1677.7 1082.32 1675.76 1080.59 Q1673.84 1078.85 1670.74 1078.85 Q1668.54 1078.85 1666.08 1079.61 Q1663.65 1080.38 1660.88 1081.93 L1660.88 1077.21 Q1663.7 1076.07 1666.15 1075.49 Q1668.61 1074.91 1670.64 1074.91 Q1676.01 1074.91 1679.21 1077.6 Q1682.4 1080.29 1682.4 1084.78 Q1682.4 1086.91 1681.59 1088.83 Q1680.81 1090.72 1678.7 1093.32 Q1678.12 1093.99 1675.02 1097.21 Q1671.92 1100.4 1666.27 1106.16 Z" fill="#000000" fill-rule="nonzero" fill-opacity="1" /><path clip-path="url(#clip820)" d="M1702.4 1078.62 Q1698.79 1078.62 1696.96 1082.18 Q1695.16 1085.72 1695.16 1092.85 Q1695.16 1099.96 1696.96 1103.53 Q1698.79 1107.07 1702.4 1107.07 Q1706.04 1107.07 1707.84 1103.53 Q1709.67 1099.96 1709.67 1092.85 Q1709.67 1085.72 1707.84 1082.18 Q1706.04 1078.62 1702.4 1078.62 M1702.4 1074.91 Q1708.21 1074.91 1711.27 1079.52 Q1714.35 1084.1 1714.35 1092.85 Q1714.35 1101.58 1711.27 1106.19 Q1708.21 1110.77 1702.4 1110.77 Q1696.59 1110.77 1693.51 1106.19 Q1690.46 1101.58 1690.46 1092.85 Q1690.46 1084.1 1693.51 1079.52 Q1696.59 1074.91 1702.4 1074.91 Z" fill="#000000" fill-rule="nonzero" fill-opacity="1" /><path clip-path="url(#clip820)" d="M1726.59 1106.16 L1742.91 1106.16 L1742.91 1110.1 L1720.97 1110.1 L1720.97 1106.16 Q1723.63 1103.41 1728.21 1098.78 Q1732.82 1094.13 1734 1092.79 Q1736.25 1090.26 1737.12 1088.53 Q1738.03 1086.77 1738.03 1085.08 Q1738.03 1082.32 1736.08 1080.59 Q1734.16 1078.85 1731.06 1078.85 Q1728.86 1078.85 1726.41 1079.61 Q1723.98 1080.38 1721.2 1081.93 L1721.2 1077.21 Q1724.02 1076.07 1726.48 1075.49 Q1728.93 1074.91 1730.97 1074.91 Q1736.34 1074.91 1739.53 1077.6 Q1742.73 1080.29 1742.73 1084.78 Q1742.73 1086.91 1741.92 1088.83 Q1741.13 1090.72 1739.02 1093.32 Q1738.44 1093.99 1735.34 1097.21 Q1732.24 1100.4 1726.59 1106.16 Z" fill="#000000" fill-rule="nonzero" fill-opacity="1" /><path clip-path="url(#clip820)" d="M1756.75 1106.16 L1773.07 1106.16 L1773.07 1110.1 L1751.13 1110.1 L1751.13 1106.16 Q1753.79 1103.41 1758.37 1098.78 Q1762.98 1094.13 1764.16 1092.79 Q1766.41 1090.26 1767.29 1088.53 Q1768.19 1086.77 1768.19 1085.08 Q1768.19 1082.32 1766.24 1080.59 Q1764.32 1078.85 1761.22 1078.85 Q1759.02 1078.85 1756.57 1079.61 Q1754.14 1080.38 1751.36 1081.93 L1751.36 1077.21 Q1754.18 1076.07 1756.64 1075.49 Q1759.09 1074.91 1761.13 1074.91 Q1766.5 1074.91 1769.69 1077.6 Q1772.89 1080.29 1772.89 1084.78 Q1772.89 1086.91 1772.08 1088.83 Q1771.29 1090.72 1769.18 1093.32 Q1768.61 1093.99 1765.5 1097.21 Q1762.4 1100.4 1756.75 1106.16 Z" fill="#000000" fill-rule="nonzero" fill-opacity="1" /><path clip-path="url(#clip820)" d="M1780.13 1095.22 L1792.61 1095.22 L1792.61 1099.01 L1780.13 1099.01 L1780.13 1095.22 Z" fill="#000000" fill-rule="nonzero" fill-opacity="1" /><path clip-path="url(#clip820)" d="M1809.99 1078.62 Q1806.38 1078.62 1804.55 1082.18 Q1802.75 1085.72 1802.75 1092.85 Q1802.75 1099.96 1804.55 1103.53 Q1806.38 1107.07 1809.99 1107.07 Q1813.63 1107.07 1815.43 1103.53 Q1817.26 1099.96 1817.26 1092.85 Q1817.26 1085.72 1815.43 1082.18 Q1813.63 1078.62 1809.99 1078.62 M1809.99 1074.91 Q1815.8 1074.91 1818.86 1079.52 Q1821.94 1084.1 1821.94 1092.85 Q1821.94 1101.58 1818.86 1106.19 Q1815.8 1110.77 1809.99 1110.77 Q1804.18 1110.77 1801.11 1106.19 Q1798.05 1101.58 1798.05 1092.85 Q1798.05 1084.1 1801.11 1079.52 Q1804.18 1074.91 1809.99 1074.91 Z" fill="#000000" fill-rule="nonzero" fill-opacity="1" /><path clip-path="url(#clip820)" d="M1830.97 1106.16 L1838.61 1106.16 L1838.61 1079.8 L1830.3 1081.47 L1830.3 1077.21 L1838.56 1075.54 L1843.24 1075.54 L1843.24 1106.16 L1850.87 1106.16 L1850.87 1110.1 L1830.97 1110.1 L1830.97 1106.16 Z" fill="#000000" fill-rule="nonzero" fill-opacity="1" /><path clip-path="url(#clip820)" d="M1857.56 1095.22 L1870.04 1095.22 L1870.04 1099.01 L1857.56 1099.01 L1857.56 1095.22 Z" fill="#000000" fill-rule="nonzero" fill-opacity="1" /><path clip-path="url(#clip820)" d="M1887.42 1078.62 Q1883.81 1078.62 1881.99 1082.18 Q1880.18 1085.72 1880.18 1092.85 Q1880.18 1099.96 1881.99 1103.53 Q1883.81 1107.07 1887.42 1107.07 Q1891.06 1107.07 1892.86 1103.53 Q1894.69 1099.96 1894.69 1092.85 Q1894.69 1085.72 1892.86 1082.18 Q1891.06 1078.62 1887.42 1078.62 M1887.42 1074.91 Q1893.23 1074.91 1896.29 1079.52 Q1899.37 1084.1 1899.37 1092.85 Q1899.37 1101.58 1896.29 1106.19 Q1893.23 1110.77 1887.42 1110.77 Q1881.61 1110.77 1878.54 1106.19 Q1875.48 1101.58 1875.48 1092.85 Q1875.48 1084.1 1878.54 1079.52 Q1881.61 1074.91 1887.42 1074.91 Z" fill="#000000" fill-rule="nonzero" fill-opacity="1" /><path clip-path="url(#clip820)" d="M1908.4 1106.16 L1916.04 1106.16 L1916.04 1079.8 L1907.73 1081.47 L1907.73 1077.21 L1915.99 1075.54 L1920.67 1075.54 L1920.67 1106.16 L1928.3 1106.16 L1928.3 1110.1 L1908.4 1110.1 L1908.4 1106.16 Z" fill="#000000" fill-rule="nonzero" fill-opacity="1" /><path clip-path="url(#clip820)" d="M846.673 1150.33 L846.673 1187.28 L854.439 1187.28 Q864.274 1187.28 868.825 1182.82 Q873.409 1178.37 873.409 1168.76 Q873.409 1159.21 868.825 1154.78 Q864.274 1150.33 854.439 1150.33 L846.673 1150.33 M840.243 1145.04 L853.452 1145.04 Q867.266 1145.04 873.727 1150.8 Q880.188 1156.53 880.188 1168.76 Q880.188 1181.04 873.695 1186.8 Q867.202 1192.56 853.452 1192.56 L840.243 1192.56 L840.243 1145.04 Z" fill="#000000" fill-rule="nonzero" fill-opacity="1" /><path clip-path="url(#clip820)" d="M906.383 1174.64 Q899.285 1174.64 896.548 1176.27 Q893.811 1177.89 893.811 1181.81 Q893.811 1184.92 895.848 1186.77 Q897.917 1188.59 901.45 1188.59 Q906.319 1188.59 909.247 1185.15 Q912.208 1181.68 912.208 1175.95 L912.208 1174.64 L906.383 1174.64 M918.064 1172.23 L918.064 1192.56 L912.208 1192.56 L912.208 1187.15 Q910.202 1190.4 907.21 1191.96 Q904.219 1193.49 899.89 1193.49 Q894.415 1193.49 891.169 1190.43 Q887.954 1187.34 887.954 1182.19 Q887.954 1176.17 891.965 1173.12 Q896.007 1170.06 903.996 1170.06 L912.208 1170.06 L912.208 1169.49 Q912.208 1165.45 909.534 1163.25 Q906.892 1161.02 902.086 1161.02 Q899.031 1161.02 896.134 1161.75 Q893.238 1162.49 890.564 1163.95 L890.564 1158.54 Q893.779 1157.3 896.803 1156.69 Q899.826 1156.06 902.691 1156.06 Q910.425 1156.06 914.245 1160.07 Q918.064 1164.08 918.064 1172.23 Z" fill="#000000" fill-rule="nonzero" fill-opacity="1" /><path clip-path="url(#clip820)" d="M944.959 1195.87 Q942.476 1202.24 940.121 1204.18 Q937.766 1206.12 933.819 1206.12 L929.14 1206.12 L929.14 1201.22 L932.578 1201.22 Q934.997 1201.22 936.334 1200.08 Q937.67 1198.93 939.294 1194.66 L940.344 1191.99 L925.926 1156.92 L932.132 1156.92 L943.272 1184.8 L954.412 1156.92 L960.619 1156.92 L944.959 1195.87 Z" fill="#000000" fill-rule="nonzero" fill-opacity="1" /><path clip-path="url(#clip820)" d="M991.429 1157.97 L991.429 1163.5 Q988.946 1162.23 986.273 1161.59 Q983.599 1160.96 980.734 1160.96 Q976.374 1160.96 974.178 1162.29 Q972.013 1163.63 972.013 1166.31 Q972.013 1168.34 973.573 1169.52 Q975.133 1170.67 979.843 1171.72 L981.848 1172.16 Q988.087 1173.5 990.697 1175.95 Q993.338 1178.37 993.338 1182.73 Q993.338 1187.69 989.392 1190.59 Q985.477 1193.49 978.602 1193.49 Q975.737 1193.49 972.618 1192.91 Q969.531 1192.37 966.093 1191.26 L966.093 1185.21 Q969.34 1186.9 972.491 1187.76 Q975.642 1188.59 978.729 1188.59 Q982.867 1188.59 985.095 1187.18 Q987.323 1185.75 987.323 1183.17 Q987.323 1180.79 985.7 1179.51 Q984.108 1178.24 978.666 1177.06 L976.629 1176.59 Q971.186 1175.44 968.767 1173.08 Q966.348 1170.7 966.348 1166.56 Q966.348 1161.53 969.913 1158.79 Q973.477 1156.06 980.034 1156.06 Q983.281 1156.06 986.145 1156.53 Q989.01 1157.01 991.429 1157.97 Z" fill="#000000" fill-rule="nonzero" fill-opacity="1" /><path clip-path="url(#clip820)" d="M1046.11 1157.97 L1046.11 1163.5 Q1043.63 1162.23 1040.95 1161.59 Q1038.28 1160.96 1035.42 1160.96 Q1031.06 1160.96 1028.86 1162.29 Q1026.69 1163.63 1026.69 1166.31 Q1026.69 1168.34 1028.25 1169.52 Q1029.81 1170.67 1034.52 1171.72 L1036.53 1172.16 Q1042.77 1173.5 1045.38 1175.95 Q1048.02 1178.37 1048.02 1182.73 Q1048.02 1187.69 1044.07 1190.59 Q1040.16 1193.49 1033.28 1193.49 Q1030.42 1193.49 1027.3 1192.91 Q1024.21 1192.37 1020.77 1191.26 L1020.77 1185.21 Q1024.02 1186.9 1027.17 1187.76 Q1030.32 1188.59 1033.41 1188.59 Q1037.55 1188.59 1039.78 1187.18 Q1042 1185.75 1042 1183.17 Q1042 1180.79 1040.38 1179.51 Q1038.79 1178.24 1033.35 1177.06 L1031.31 1176.59 Q1025.87 1175.44 1023.45 1173.08 Q1021.03 1170.7 1021.03 1166.56 Q1021.03 1161.53 1024.59 1158.79 Q1028.16 1156.06 1034.72 1156.06 Q1037.96 1156.06 1040.83 1156.53 Q1043.69 1157.01 1046.11 1157.97 Z" fill="#000000" fill-rule="nonzero" fill-opacity="1" /><path clip-path="url(#clip820)" d="M1057.35 1156.92 L1063.2 1156.92 L1063.2 1192.56 L1057.35 1192.56 L1057.35 1156.92 M1057.35 1143.04 L1063.2 1143.04 L1063.2 1150.45 L1057.35 1150.45 L1057.35 1143.04 Z" fill="#000000" fill-rule="nonzero" fill-opacity="1" /><path clip-path="url(#clip820)" d="M1105.09 1171.05 L1105.09 1192.56 L1099.23 1192.56 L1099.23 1171.24 Q1099.23 1166.18 1097.26 1163.66 Q1095.29 1161.15 1091.34 1161.15 Q1086.6 1161.15 1083.86 1164.17 Q1081.12 1167.2 1081.12 1172.42 L1081.12 1192.56 L1075.23 1192.56 L1075.23 1156.92 L1081.12 1156.92 L1081.12 1162.45 Q1083.22 1159.24 1086.05 1157.65 Q1088.92 1156.06 1092.64 1156.06 Q1098.79 1156.06 1101.94 1159.88 Q1105.09 1163.66 1105.09 1171.05 Z" fill="#000000" fill-rule="nonzero" fill-opacity="1" /><path clip-path="url(#clip820)" d="M1142.42 1158.28 L1142.42 1163.76 Q1139.94 1162.39 1137.43 1161.72 Q1134.94 1161.02 1132.4 1161.02 Q1126.7 1161.02 1123.55 1164.65 Q1120.4 1168.25 1120.4 1174.77 Q1120.4 1181.3 1123.55 1184.92 Q1126.7 1188.52 1132.4 1188.52 Q1134.94 1188.52 1137.43 1187.85 Q1139.94 1187.15 1142.42 1185.78 L1142.42 1191.2 Q1139.97 1192.34 1137.33 1192.91 Q1134.72 1193.49 1131.76 1193.49 Q1123.71 1193.49 1118.97 1188.43 Q1114.22 1183.37 1114.22 1174.77 Q1114.22 1166.05 1119 1161.05 Q1123.8 1156.06 1132.14 1156.06 Q1134.85 1156.06 1137.43 1156.63 Q1140 1157.17 1142.42 1158.28 Z" fill="#000000" fill-rule="nonzero" fill-opacity="1" /><path clip-path="url(#clip820)" d="M1183.1 1173.28 L1183.1 1176.14 L1156.17 1176.14 Q1156.56 1182.19 1159.8 1185.37 Q1163.08 1188.52 1168.9 1188.52 Q1172.28 1188.52 1175.43 1187.69 Q1178.61 1186.87 1181.73 1185.21 L1181.73 1190.75 Q1178.58 1192.09 1175.27 1192.79 Q1171.96 1193.49 1168.55 1193.49 Q1160.02 1193.49 1155.03 1188.52 Q1150.06 1183.56 1150.06 1175.09 Q1150.06 1166.34 1154.77 1161.21 Q1159.52 1156.06 1167.54 1156.06 Q1174.73 1156.06 1178.9 1160.7 Q1183.1 1165.32 1183.1 1173.28 M1177.24 1171.56 Q1177.18 1166.75 1174.54 1163.89 Q1171.93 1161.02 1167.6 1161.02 Q1162.7 1161.02 1159.74 1163.79 Q1156.81 1166.56 1156.36 1171.59 L1177.24 1171.56 Z" fill="#000000" fill-rule="nonzero" fill-opacity="1" /><path clip-path="url(#clip820)" d="M1215.37 1187.15 L1225.88 1187.15 L1225.88 1150.9 L1214.45 1153.19 L1214.45 1147.34 L1225.81 1145.04 L1232.24 1145.04 L1232.24 1187.15 L1242.75 1187.15 L1242.75 1192.56 L1215.37 1192.56 L1215.37 1187.15 Z" fill="#000000" fill-rule="nonzero" fill-opacity="1" /><path clip-path="url(#clip820)" d="M1254.11 1145.04 L1284.67 1145.04 L1284.67 1147.78 L1267.41 1192.56 L1260.7 1192.56 L1276.93 1150.45 L1254.11 1150.45 L1254.11 1145.04 Z" fill="#000000" fill-rule="nonzero" fill-opacity="1" /><path clip-path="url(#clip820)" d="M1333.24 1151.38 L1324.51 1175.03 L1341.99 1175.03 L1333.24 1151.38 M1329.61 1145.04 L1336.9 1145.04 L1355.01 1192.56 L1348.32 1192.56 L1343.99 1180.37 L1322.57 1180.37 L1318.24 1192.56 L1311.46 1192.56 L1329.61 1145.04 Z" fill="#000000" fill-rule="nonzero" fill-opacity="1" /><path clip-path="url(#clip820)" d="M1361.09 1178.5 L1361.09 1156.92 L1366.94 1156.92 L1366.94 1178.27 Q1366.94 1183.33 1368.92 1185.88 Q1370.89 1188.39 1374.84 1188.39 Q1379.58 1188.39 1382.31 1185.37 Q1385.08 1182.35 1385.08 1177.13 L1385.08 1156.92 L1390.94 1156.92 L1390.94 1192.56 L1385.08 1192.56 L1385.08 1187.09 Q1382.95 1190.34 1380.12 1191.93 Q1377.32 1193.49 1373.59 1193.49 Q1367.45 1193.49 1364.27 1189.67 Q1361.09 1185.85 1361.09 1178.5 M1375.82 1156.06 L1375.82 1156.06 Z" fill="#000000" fill-rule="nonzero" fill-opacity="1" /><path clip-path="url(#clip820)" d="M1426.46 1174.33 Q1426.46 1167.96 1423.82 1164.46 Q1421.21 1160.96 1416.47 1160.96 Q1411.76 1160.96 1409.11 1164.46 Q1406.5 1167.96 1406.5 1174.33 Q1406.5 1180.66 1409.11 1184.16 Q1411.76 1187.66 1416.47 1187.66 Q1421.21 1187.66 1423.82 1184.16 Q1426.46 1180.66 1426.46 1174.33 M1432.32 1188.14 Q1432.32 1197.24 1428.28 1201.67 Q1424.23 1206.12 1415.89 1206.12 Q1412.81 1206.12 1410.07 1205.65 Q1407.33 1205.2 1404.75 1204.24 L1404.75 1198.55 Q1407.33 1199.95 1409.85 1200.62 Q1412.36 1201.28 1414.97 1201.28 Q1420.73 1201.28 1423.6 1198.26 Q1426.46 1195.27 1426.46 1189.19 L1426.46 1186.29 Q1424.65 1189.44 1421.81 1191 Q1418.98 1192.56 1415.03 1192.56 Q1408.48 1192.56 1404.47 1187.57 Q1400.46 1182.57 1400.46 1174.33 Q1400.46 1166.05 1404.47 1161.05 Q1408.48 1156.06 1415.03 1156.06 Q1418.98 1156.06 1421.81 1157.62 Q1424.65 1159.18 1426.46 1162.33 L1426.46 1156.92 L1432.32 1156.92 L1432.32 1188.14 Z" fill="#000000" fill-rule="nonzero" fill-opacity="1" /><path clip-path="url(#clip820)" d="M1443.78 1178.5 L1443.78 1156.92 L1449.63 1156.92 L1449.63 1178.27 Q1449.63 1183.33 1451.61 1185.88 Q1453.58 1188.39 1457.53 1188.39 Q1462.27 1188.39 1465.01 1185.37 Q1467.77 1182.35 1467.77 1177.13 L1467.77 1156.92 L1473.63 1156.92 L1473.63 1192.56 L1467.77 1192.56 L1467.77 1187.09 Q1465.64 1190.34 1462.81 1191.93 Q1460.01 1193.49 1456.28 1193.49 Q1450.14 1193.49 1446.96 1189.67 Q1443.78 1185.85 1443.78 1178.5 M1458.51 1156.06 L1458.51 1156.06 Z" fill="#000000" fill-rule="nonzero" fill-opacity="1" /><path clip-path="url(#clip820)" d="M1508.42 1157.97 L1508.42 1163.5 Q1505.94 1162.23 1503.26 1161.59 Q1500.59 1160.96 1497.73 1160.96 Q1493.36 1160.96 1491.17 1162.29 Q1489 1163.63 1489 1166.31 Q1489 1168.34 1490.56 1169.52 Q1492.12 1170.67 1496.83 1171.72 L1498.84 1172.16 Q1505.08 1173.5 1507.69 1175.95 Q1510.33 1178.37 1510.33 1182.73 Q1510.33 1187.69 1506.38 1190.59 Q1502.47 1193.49 1495.59 1193.49 Q1492.73 1193.49 1489.61 1192.91 Q1486.52 1192.37 1483.08 1191.26 L1483.08 1185.21 Q1486.33 1186.9 1489.48 1187.76 Q1492.63 1188.59 1495.72 1188.59 Q1499.86 1188.59 1502.09 1187.18 Q1504.31 1185.75 1504.31 1183.17 Q1504.31 1180.79 1502.69 1179.51 Q1501.1 1178.24 1495.66 1177.06 L1493.62 1176.59 Q1488.18 1175.44 1485.76 1173.08 Q1483.34 1170.7 1483.34 1166.56 Q1483.34 1161.53 1486.9 1158.79 Q1490.47 1156.06 1497.03 1156.06 Q1500.27 1156.06 1503.14 1156.53 Q1506 1157.01 1508.42 1157.97 Z" fill="#000000" fill-rule="nonzero" fill-opacity="1" /><path clip-path="url(#clip820)" d="M1525.45 1146.79 L1525.45 1156.92 L1537.51 1156.92 L1537.51 1161.47 L1525.45 1161.47 L1525.45 1180.82 Q1525.45 1185.18 1526.63 1186.42 Q1527.84 1187.66 1531.5 1187.66 L1537.51 1187.66 L1537.51 1192.56 L1531.5 1192.56 Q1524.72 1192.56 1522.14 1190.05 Q1519.56 1187.5 1519.56 1180.82 L1519.56 1161.47 L1515.26 1161.47 L1515.26 1156.92 L1519.56 1156.92 L1519.56 1146.79 L1525.45 1146.79 Z" fill="#000000" fill-rule="nonzero" fill-opacity="1" /><path clip-path="url(#clip820)" d="M1572.3 1187.15 L1594.74 1187.15 L1594.74 1192.56 L1564.57 1192.56 L1564.57 1187.15 Q1568.23 1183.37 1574.53 1177 Q1580.86 1170.6 1582.48 1168.76 Q1585.57 1165.29 1586.78 1162.9 Q1588.02 1160.48 1588.02 1158.16 Q1588.02 1154.37 1585.35 1151.98 Q1582.71 1149.6 1578.44 1149.6 Q1575.42 1149.6 1572.04 1150.65 Q1568.7 1151.7 1564.88 1153.83 L1564.88 1147.34 Q1568.77 1145.78 1572.14 1144.98 Q1575.51 1144.18 1578.32 1144.18 Q1585.7 1144.18 1590.09 1147.88 Q1594.48 1151.57 1594.48 1157.74 Q1594.48 1160.67 1593.37 1163.31 Q1592.29 1165.92 1589.39 1169.49 Q1588.6 1170.41 1584.33 1174.84 Q1580.07 1179.23 1572.3 1187.15 Z" fill="#000000" fill-rule="nonzero" fill-opacity="1" /><path clip-path="url(#clip820)" d="M1621.98 1149.28 Q1617.02 1149.28 1614.5 1154.18 Q1612.02 1159.05 1612.02 1168.85 Q1612.02 1178.62 1614.5 1183.52 Q1617.02 1188.39 1621.98 1188.39 Q1626.98 1188.39 1629.46 1183.52 Q1631.98 1178.62 1631.98 1168.85 Q1631.98 1159.05 1629.46 1154.18 Q1626.98 1149.28 1621.98 1149.28 M1621.98 1144.18 Q1629.97 1144.18 1634.17 1150.52 Q1638.41 1156.82 1638.41 1168.85 Q1638.41 1180.85 1634.17 1187.18 Q1629.97 1193.49 1621.98 1193.49 Q1613.99 1193.49 1609.76 1187.18 Q1605.56 1180.85 1605.56 1168.85 Q1605.56 1156.82 1609.76 1150.52 Q1613.99 1144.18 1621.98 1144.18 Z" fill="#000000" fill-rule="nonzero" fill-opacity="1" /><path clip-path="url(#clip820)" d="M1655.24 1187.15 L1677.68 1187.15 L1677.68 1192.56 L1647.51 1192.56 L1647.51 1187.15 Q1651.17 1183.37 1657.47 1177 Q1663.81 1170.6 1665.43 1168.76 Q1668.52 1165.29 1669.73 1162.9 Q1670.97 1160.48 1670.97 1158.16 Q1670.97 1154.37 1668.29 1151.98 Q1665.65 1149.6 1661.39 1149.6 Q1658.36 1149.6 1654.99 1150.65 Q1651.65 1151.7 1647.83 1153.83 L1647.83 1147.34 Q1651.71 1145.78 1655.09 1144.98 Q1658.46 1144.18 1661.26 1144.18 Q1668.64 1144.18 1673.04 1147.88 Q1677.43 1151.57 1677.43 1157.74 Q1677.43 1160.67 1676.32 1163.31 Q1675.23 1165.92 1672.34 1169.49 Q1671.54 1170.41 1667.28 1174.84 Q1663.01 1179.23 1655.24 1187.15 Z" fill="#000000" fill-rule="nonzero" fill-opacity="1" /><path clip-path="url(#clip820)" d="M1692.29 1187.15 L1702.8 1187.15 L1702.8 1150.9 L1691.37 1153.19 L1691.37 1147.34 L1702.73 1145.04 L1709.16 1145.04 L1709.16 1187.15 L1719.67 1187.15 L1719.67 1192.56 L1692.29 1192.56 L1692.29 1187.15 Z" fill="#000000" fill-rule="nonzero" fill-opacity="1" /><polyline clip-path="url(#clip822)" style="stroke:#000000; stroke-linecap:round; stroke-linejoin:round; stroke-width:2; stroke-opacity:0.1; fill:none" points="207.153,940.733 2352.76,940.733 "/>
<polyline clip-path="url(#clip822)" style="stroke:#000000; stroke-linecap:round; stroke-linejoin:round; stroke-width:2; stroke-opacity:0.1; fill:none" points="207.153,776.874 2352.76,776.874 "/>
<polyline clip-path="url(#clip822)" style="stroke:#000000; stroke-linecap:round; stroke-linejoin:round; stroke-width:2; stroke-opacity:0.1; fill:none" points="207.153,613.015 2352.76,613.015 "/>
<polyline clip-path="url(#clip822)" style="stroke:#000000; stroke-linecap:round; stroke-linejoin:round; stroke-width:2; stroke-opacity:0.1; fill:none" points="207.153,449.157 2352.76,449.157 "/>
<polyline clip-path="url(#clip822)" style="stroke:#000000; stroke-linecap:round; stroke-linejoin:round; stroke-width:2; stroke-opacity:0.1; fill:none" points="207.153,285.298 2352.76,285.298 "/>
<polyline clip-path="url(#clip822)" style="stroke:#000000; stroke-linecap:round; stroke-linejoin:round; stroke-width:2; stroke-opacity:0.1; fill:none" points="207.153,121.439 2352.76,121.439 "/>
<polyline clip-path="url(#clip820)" style="stroke:#000000; stroke-linecap:round; stroke-linejoin:round; stroke-width:4; stroke-opacity:1; fill:none" points="207.153,1047.7 207.153,47.2441 "/>
<polyline clip-path="url(#clip820)" style="stroke:#000000; stroke-linecap:round; stroke-linejoin:round; stroke-width:4; stroke-opacity:1; fill:none" points="207.153,940.733 226.051,940.733 "/>
<polyline clip-path="url(#clip820)" style="stroke:#000000; stroke-linecap:round; stroke-linejoin:round; stroke-width:4; stroke-opacity:1; fill:none" points="207.153,776.874 226.051,776.874 "/>
<polyline clip-path="url(#clip820)" style="stroke:#000000; stroke-linecap:round; stroke-linejoin:round; stroke-width:4; stroke-opacity:1; fill:none" points="207.153,613.015 226.051,613.015 "/>
<polyline clip-path="url(#clip820)" style="stroke:#000000; stroke-linecap:round; stroke-linejoin:round; stroke-width:4; stroke-opacity:1; fill:none" points="207.153,449.157 226.051,449.157 "/>
<polyline clip-path="url(#clip820)" style="stroke:#000000; stroke-linecap:round; stroke-linejoin:round; stroke-width:4; stroke-opacity:1; fill:none" points="207.153,285.298 226.051,285.298 "/>
<polyline clip-path="url(#clip820)" style="stroke:#000000; stroke-linecap:round; stroke-linejoin:round; stroke-width:4; stroke-opacity:1; fill:none" points="207.153,121.439 226.051,121.439 "/>
<path clip-path="url(#clip820)" d="M114.973 926.532 Q111.362 926.532 109.533 930.096 Q107.727 933.638 107.727 940.768 Q107.727 947.874 109.533 951.439 Q111.362 954.98 114.973 954.98 Q118.607 954.98 120.412 951.439 Q122.241 947.874 122.241 940.768 Q122.241 933.638 120.412 930.096 Q118.607 926.532 114.973 926.532 M114.973 922.828 Q120.783 922.828 123.838 927.434 Q126.917 932.018 126.917 940.768 Q126.917 949.494 123.838 954.101 Q120.783 958.684 114.973 958.684 Q109.163 958.684 106.084 954.101 Q103.028 949.494 103.028 940.768 Q103.028 932.018 106.084 927.434 Q109.163 922.828 114.973 922.828 Z" fill="#000000" fill-rule="nonzero" fill-opacity="1" /><path clip-path="url(#clip820)" d="M135.135 952.133 L140.019 952.133 L140.019 958.013 L135.135 958.013 L135.135 952.133 Z" fill="#000000" fill-rule="nonzero" fill-opacity="1" /><path clip-path="url(#clip820)" d="M150.25 923.453 L168.607 923.453 L168.607 927.388 L154.533 927.388 L154.533 935.86 Q155.551 935.513 156.57 935.351 Q157.588 935.166 158.607 935.166 Q164.394 935.166 167.773 938.337 Q171.153 941.508 171.153 946.925 Q171.153 952.504 167.681 955.605 Q164.209 958.684 157.889 958.684 Q155.713 958.684 153.445 958.314 Q151.199 957.943 148.792 957.203 L148.792 952.504 Q150.875 953.638 153.097 954.193 Q155.32 954.749 157.797 954.749 Q161.801 954.749 164.139 952.643 Q166.477 950.536 166.477 946.925 Q166.477 943.314 164.139 941.207 Q161.801 939.101 157.797 939.101 Q155.922 939.101 154.047 939.518 Q152.195 939.934 150.25 940.814 L150.25 923.453 Z" fill="#000000" fill-rule="nonzero" fill-opacity="1" /><path clip-path="url(#clip820)" d="M104.788 790.219 L112.426 790.219 L112.426 763.853 L104.116 765.52 L104.116 761.261 L112.38 759.594 L117.056 759.594 L117.056 790.219 L124.695 790.219 L124.695 794.154 L104.788 794.154 L104.788 790.219 Z" fill="#000000" fill-rule="nonzero" fill-opacity="1" /><path clip-path="url(#clip820)" d="M134.139 788.275 L139.023 788.275 L139.023 794.154 L134.139 794.154 L134.139 788.275 Z" fill="#000000" fill-rule="nonzero" fill-opacity="1" /><path clip-path="url(#clip820)" d="M159.209 762.673 Q155.597 762.673 153.769 766.238 Q151.963 769.779 151.963 776.909 Q151.963 784.015 153.769 787.58 Q155.597 791.122 159.209 791.122 Q162.843 791.122 164.648 787.58 Q166.477 784.015 166.477 776.909 Q166.477 769.779 164.648 766.238 Q162.843 762.673 159.209 762.673 M159.209 758.969 Q165.019 758.969 168.074 763.576 Q171.153 768.159 171.153 776.909 Q171.153 785.636 168.074 790.242 Q165.019 794.825 159.209 794.825 Q153.398 794.825 150.32 790.242 Q147.264 785.636 147.264 776.909 Q147.264 768.159 150.32 763.576 Q153.398 758.969 159.209 758.969 Z" fill="#000000" fill-rule="nonzero" fill-opacity="1" /><path clip-path="url(#clip820)" d="M105.783 626.36 L113.422 626.36 L113.422 599.995 L105.112 601.661 L105.112 597.402 L113.375 595.735 L118.051 595.735 L118.051 626.36 L125.69 626.36 L125.69 630.295 L105.783 630.295 L105.783 626.36 Z" fill="#000000" fill-rule="nonzero" fill-opacity="1" /><path clip-path="url(#clip820)" d="M135.135 624.416 L140.019 624.416 L140.019 630.295 L135.135 630.295 L135.135 624.416 Z" fill="#000000" fill-rule="nonzero" fill-opacity="1" /><path clip-path="url(#clip820)" d="M150.25 595.735 L168.607 595.735 L168.607 599.671 L154.533 599.671 L154.533 608.143 Q155.551 607.796 156.57 607.634 Q157.588 607.448 158.607 607.448 Q164.394 607.448 167.773 610.62 Q171.153 613.791 171.153 619.208 Q171.153 624.786 167.681 627.888 Q164.209 630.967 157.889 630.967 Q155.713 630.967 153.445 630.596 Q151.199 630.226 148.792 629.485 L148.792 624.786 Q150.875 625.92 153.097 626.476 Q155.32 627.032 157.797 627.032 Q161.801 627.032 164.139 624.925 Q166.477 622.819 166.477 619.208 Q166.477 615.596 164.139 613.49 Q161.801 611.384 157.797 611.384 Q155.922 611.384 154.047 611.8 Q152.195 612.217 150.25 613.096 L150.25 595.735 Z" fill="#000000" fill-rule="nonzero" fill-opacity="1" /><path clip-path="url(#clip820)" d="M108.005 462.502 L124.324 462.502 L124.324 466.437 L102.38 466.437 L102.38 462.502 Q105.042 459.747 109.625 455.117 Q114.232 450.465 115.412 449.122 Q117.658 446.599 118.537 444.863 Q119.44 443.104 119.44 441.414 Q119.44 438.659 117.496 436.923 Q115.575 435.187 112.473 435.187 Q110.274 435.187 107.82 435.951 Q105.389 436.715 102.612 438.266 L102.612 433.543 Q105.436 432.409 107.889 431.83 Q110.343 431.252 112.38 431.252 Q117.75 431.252 120.945 433.937 Q124.139 436.622 124.139 441.113 Q124.139 443.242 123.329 445.164 Q122.542 447.062 120.436 449.654 Q119.857 450.326 116.755 453.543 Q113.653 456.738 108.005 462.502 Z" fill="#000000" fill-rule="nonzero" fill-opacity="1" /><path clip-path="url(#clip820)" d="M134.139 460.557 L139.023 460.557 L139.023 466.437 L134.139 466.437 L134.139 460.557 Z" fill="#000000" fill-rule="nonzero" fill-opacity="1" /><path clip-path="url(#clip820)" d="M159.209 434.955 Q155.597 434.955 153.769 438.52 Q151.963 442.062 151.963 449.191 Q151.963 456.298 153.769 459.863 Q155.597 463.404 159.209 463.404 Q162.843 463.404 164.648 459.863 Q166.477 456.298 166.477 449.191 Q166.477 442.062 164.648 438.52 Q162.843 434.955 159.209 434.955 M159.209 431.252 Q165.019 431.252 168.074 435.858 Q171.153 440.442 171.153 449.191 Q171.153 457.918 168.074 462.525 Q165.019 467.108 159.209 467.108 Q153.398 467.108 150.32 462.525 Q147.264 457.918 147.264 449.191 Q147.264 440.442 150.32 435.858 Q153.398 431.252 159.209 431.252 Z" fill="#000000" fill-rule="nonzero" fill-opacity="1" /><path clip-path="url(#clip820)" d="M109 298.643 L125.32 298.643 L125.32 302.578 L103.376 302.578 L103.376 298.643 Q106.038 295.888 110.621 291.259 Q115.227 286.606 116.408 285.263 Q118.653 282.74 119.533 281.004 Q120.436 279.245 120.436 277.555 Q120.436 274.8 118.491 273.064 Q116.57 271.328 113.468 271.328 Q111.269 271.328 108.815 272.092 Q106.385 272.856 103.607 274.407 L103.607 269.685 Q106.431 268.55 108.885 267.972 Q111.338 267.393 113.375 267.393 Q118.746 267.393 121.94 270.078 Q125.135 272.763 125.135 277.254 Q125.135 279.384 124.324 281.305 Q123.537 283.203 121.431 285.796 Q120.852 286.467 117.75 289.685 Q114.649 292.879 109 298.643 Z" fill="#000000" fill-rule="nonzero" fill-opacity="1" /><path clip-path="url(#clip820)" d="M135.135 296.698 L140.019 296.698 L140.019 302.578 L135.135 302.578 L135.135 296.698 Z" fill="#000000" fill-rule="nonzero" fill-opacity="1" /><path clip-path="url(#clip820)" d="M150.25 268.018 L168.607 268.018 L168.607 271.953 L154.533 271.953 L154.533 280.425 Q155.551 280.078 156.57 279.916 Q157.588 279.731 158.607 279.731 Q164.394 279.731 167.773 282.902 Q171.153 286.073 171.153 291.49 Q171.153 297.069 167.681 300.171 Q164.209 303.249 157.889 303.249 Q155.713 303.249 153.445 302.879 Q151.199 302.509 148.792 301.768 L148.792 297.069 Q150.875 298.203 153.097 298.759 Q155.32 299.314 157.797 299.314 Q161.801 299.314 164.139 297.208 Q166.477 295.101 166.477 291.49 Q166.477 287.879 164.139 285.773 Q161.801 283.666 157.797 283.666 Q155.922 283.666 154.047 284.083 Q152.195 284.499 150.25 285.379 L150.25 268.018 Z" fill="#000000" fill-rule="nonzero" fill-opacity="1" /><path clip-path="url(#clip820)" d="M118.144 120.085 Q121.5 120.803 123.375 123.071 Q125.274 125.34 125.274 128.673 Q125.274 133.789 121.755 136.59 Q118.237 139.391 111.755 139.391 Q109.579 139.391 107.264 138.951 Q104.973 138.534 102.519 137.678 L102.519 133.164 Q104.463 134.298 106.778 134.877 Q109.093 135.455 111.616 135.455 Q116.014 135.455 118.306 133.719 Q120.621 131.983 120.621 128.673 Q120.621 125.618 118.468 123.905 Q116.338 122.168 112.519 122.168 L108.491 122.168 L108.491 118.326 L112.704 118.326 Q116.153 118.326 117.982 116.96 Q119.811 115.571 119.811 112.979 Q119.811 110.317 117.912 108.905 Q116.037 107.469 112.519 107.469 Q110.598 107.469 108.399 107.886 Q106.2 108.303 103.561 109.182 L103.561 105.016 Q106.223 104.275 108.538 103.905 Q110.875 103.534 112.936 103.534 Q118.26 103.534 121.362 105.965 Q124.463 108.372 124.463 112.493 Q124.463 115.363 122.82 117.354 Q121.176 119.321 118.144 120.085 Z" fill="#000000" fill-rule="nonzero" fill-opacity="1" /><path clip-path="url(#clip820)" d="M134.139 132.84 L139.023 132.84 L139.023 138.719 L134.139 138.719 L134.139 132.84 Z" fill="#000000" fill-rule="nonzero" fill-opacity="1" /><path clip-path="url(#clip820)" d="M159.209 107.238 Q155.597 107.238 153.769 110.803 Q151.963 114.344 151.963 121.474 Q151.963 128.58 153.769 132.145 Q155.597 135.687 159.209 135.687 Q162.843 135.687 164.648 132.145 Q166.477 128.58 166.477 121.474 Q166.477 114.344 164.648 110.803 Q162.843 107.238 159.209 107.238 M159.209 103.534 Q165.019 103.534 168.074 108.141 Q171.153 112.724 171.153 121.474 Q171.153 130.201 168.074 134.807 Q165.019 139.391 159.209 139.391 Q153.398 139.391 150.32 134.807 Q147.264 130.201 147.264 121.474 Q147.264 112.724 150.32 108.141 Q153.398 103.534 159.209 103.534 Z" fill="#000000" fill-rule="nonzero" fill-opacity="1" /><path clip-path="url(#clip820)" d="M29.8442 875.545 Q30.5444 873.476 32.8361 871.534 Q35.1277 869.561 39.1381 867.587 L52.1242 861.063 L52.1242 867.969 L39.9338 874.049 Q35.1595 876.404 33.6 878.632 Q32.0404 880.828 32.0404 884.648 L32.0404 891.65 L52.1242 891.65 L52.1242 898.079 L4.60416 898.079 L4.60416 883.565 Q4.60416 875.417 8.00981 871.407 Q11.4155 867.396 18.2904 867.396 Q22.7782 867.396 25.7383 869.497 Q28.6984 871.566 29.8442 875.545 M9.88769 891.65 L26.7568 891.65 L26.7568 883.565 Q26.7568 878.918 24.6243 876.563 Q22.46 874.176 18.2904 874.176 Q14.1209 874.176 12.0202 876.563 Q9.88769 878.918 9.88769 883.565 L9.88769 891.65 Z" fill="#000000" fill-rule="nonzero" fill-opacity="1" /><path clip-path="url(#clip820)" d="M32.8361 825.478 L35.7006 825.478 L35.7006 852.405 Q41.7481 852.023 44.9309 848.777 Q48.0819 845.498 48.0819 839.674 Q48.0819 836.3 47.2544 833.149 Q46.4269 829.966 44.7718 826.847 L50.3099 826.847 Q51.6467 829.998 52.347 833.308 Q53.0472 836.618 53.0472 840.024 Q53.0472 848.554 48.0819 853.551 Q43.1167 858.516 34.6503 858.516 Q25.8974 858.516 20.7731 853.806 Q15.6168 849.063 15.6168 841.042 Q15.6168 833.849 20.2638 829.68 Q24.8789 825.478 32.8361 825.478 M31.1173 831.335 Q26.3112 831.398 23.4466 834.04 Q20.5821 836.65 20.5821 840.979 Q20.5821 845.88 23.3512 848.84 Q26.1202 851.769 31.1492 852.214 L31.1173 831.335 Z" fill="#000000" fill-rule="nonzero" fill-opacity="1" /><path clip-path="url(#clip820)" d="M46.777 810.201 L65.6831 810.201 L65.6831 816.089 L16.4762 816.089 L16.4762 810.201 L21.8871 810.201 Q18.7042 808.355 17.1764 805.554 Q15.6168 802.721 15.6168 798.806 Q15.6168 792.313 20.7731 788.271 Q25.9293 784.197 34.332 784.197 Q42.7347 784.197 47.891 788.271 Q53.0472 792.313 53.0472 798.806 Q53.0472 802.721 51.5194 805.554 Q49.9598 808.355 46.777 810.201 M34.332 790.276 Q27.8708 790.276 24.2105 792.95 Q20.5184 795.591 20.5184 800.238 Q20.5184 804.885 24.2105 807.559 Q27.8708 810.201 34.332 810.201 Q40.7932 810.201 44.4853 807.559 Q48.1456 804.885 48.1456 800.238 Q48.1456 795.591 44.4853 792.95 Q40.7932 790.276 34.332 790.276 Z" fill="#000000" fill-rule="nonzero" fill-opacity="1" /><path clip-path="url(#clip820)" d="M21.9507 753.832 Q21.3778 754.819 21.1232 755.997 Q20.8367 757.142 20.8367 758.543 Q20.8367 763.508 24.0832 766.182 Q27.2979 768.824 33.3453 768.824 L52.1242 768.824 L52.1242 774.712 L16.4762 774.712 L16.4762 768.824 L22.0144 768.824 Q18.7679 766.977 17.2083 764.017 Q15.6168 761.057 15.6168 756.824 Q15.6168 756.219 15.7123 755.487 Q15.776 754.755 15.9351 753.864 L21.9507 753.832 Z" fill="#000000" fill-rule="nonzero" fill-opacity="1" /><path clip-path="url(#clip820)" d="M20.5821 735.308 Q20.5821 740.019 24.2742 742.756 Q27.9345 745.493 34.332 745.493 Q40.7295 745.493 44.4217 742.788 Q48.0819 740.051 48.0819 735.308 Q48.0819 730.629 44.3898 727.892 Q40.6977 725.155 34.332 725.155 Q27.9981 725.155 24.306 727.892 Q20.5821 730.629 20.5821 735.308 M15.6168 735.308 Q15.6168 727.669 20.5821 723.309 Q25.5473 718.948 34.332 718.948 Q43.0849 718.948 48.0819 723.309 Q53.0472 727.669 53.0472 735.308 Q53.0472 742.979 48.0819 747.339 Q43.0849 751.668 34.332 751.668 Q25.5473 751.668 20.5821 747.339 Q15.6168 742.979 15.6168 735.308 Z" fill="#000000" fill-rule="nonzero" fill-opacity="1" /><path clip-path="url(#clip820)" d="M21.8871 685.783 L2.59896 685.783 L2.59896 679.926 L52.1242 679.926 L52.1242 685.783 L46.777 685.783 Q49.9598 687.629 51.5194 690.462 Q53.0472 693.263 53.0472 697.209 Q53.0472 703.67 47.891 707.745 Q42.7347 711.787 34.332 711.787 Q25.9293 711.787 20.7731 707.745 Q15.6168 703.67 15.6168 697.209 Q15.6168 693.263 17.1764 690.462 Q18.7042 687.629 21.8871 685.783 M34.332 705.739 Q40.7932 705.739 44.4853 703.098 Q48.1456 700.424 48.1456 695.777 Q48.1456 691.13 44.4853 688.456 Q40.7932 685.783 34.332 685.783 Q27.8708 685.783 24.2105 688.456 Q20.5184 691.13 20.5184 695.777 Q20.5184 700.424 24.2105 703.098 Q27.8708 705.739 34.332 705.739 Z" fill="#000000" fill-rule="nonzero" fill-opacity="1" /><path clip-path="url(#clip820)" d="M38.0559 668.468 L16.4762 668.468 L16.4762 662.612 L37.8331 662.612 Q42.8939 662.612 45.4402 660.638 Q47.9546 658.665 47.9546 654.718 Q47.9546 649.976 44.9309 647.239 Q41.9072 644.469 36.6873 644.469 L16.4762 644.469 L16.4762 638.613 L52.1242 638.613 L52.1242 644.469 L46.6496 644.469 Q49.8962 646.602 51.4876 649.435 Q53.0472 652.236 53.0472 655.96 Q53.0472 662.102 49.2278 665.285 Q45.4083 668.468 38.0559 668.468 M15.6168 653.732 L15.6168 653.732 Z" fill="#000000" fill-rule="nonzero" fill-opacity="1" /><path clip-path="url(#clip820)" d="M17.8448 600.896 L23.3193 600.896 Q21.9507 603.379 21.2823 605.893 Q20.5821 608.376 20.5821 610.922 Q20.5821 616.619 24.2105 619.77 Q27.8072 622.922 34.332 622.922 Q40.8569 622.922 44.4853 619.77 Q48.0819 616.619 48.0819 610.922 Q48.0819 608.376 47.4135 605.893 Q46.7133 603.379 45.3447 600.896 L50.7555 600.896 Q51.9014 603.347 52.4743 605.989 Q53.0472 608.599 53.0472 611.559 Q53.0472 619.611 47.9864 624.354 Q42.9257 629.096 34.332 629.096 Q25.611 629.096 20.6139 624.322 Q15.6168 619.516 15.6168 611.177 Q15.6168 608.471 16.1897 605.893 Q16.7308 603.315 17.8448 600.896 Z" fill="#000000" fill-rule="nonzero" fill-opacity="1" /><path clip-path="url(#clip820)" d="M6.35473 584.918 L16.4762 584.918 L16.4762 572.855 L21.0277 572.855 L21.0277 584.918 L40.3794 584.918 Q44.7399 584.918 45.9813 583.741 Q47.2226 582.531 47.2226 578.871 L47.2226 572.855 L52.1242 572.855 L52.1242 578.871 Q52.1242 585.65 49.6097 588.228 Q47.0634 590.807 40.3794 590.807 L21.0277 590.807 L21.0277 595.103 L16.4762 595.103 L16.4762 590.807 L6.35473 590.807 L6.35473 584.918 Z" fill="#000000" fill-rule="nonzero" fill-opacity="1" /><path clip-path="url(#clip820)" d="M16.4762 565.153 L16.4762 559.296 L52.1242 559.296 L52.1242 565.153 L16.4762 565.153 M2.59896 565.153 L2.59896 559.296 L10.015 559.296 L10.015 565.153 L2.59896 565.153 Z" fill="#000000" fill-rule="nonzero" fill-opacity="1" /><path clip-path="url(#clip820)" d="M20.5821 533.229 Q20.5821 537.939 24.2742 540.677 Q27.9345 543.414 34.332 543.414 Q40.7295 543.414 44.4217 540.708 Q48.0819 537.971 48.0819 533.229 Q48.0819 528.55 44.3898 525.813 Q40.6977 523.075 34.332 523.075 Q27.9981 523.075 24.306 525.813 Q20.5821 528.55 20.5821 533.229 M15.6168 533.229 Q15.6168 525.59 20.5821 521.229 Q25.5473 516.869 34.332 516.869 Q43.0849 516.869 48.0819 521.229 Q53.0472 525.59 53.0472 533.229 Q53.0472 540.899 48.0819 545.26 Q43.0849 549.589 34.332 549.589 Q25.5473 549.589 20.5821 545.26 Q15.6168 540.899 15.6168 533.229 Z" fill="#000000" fill-rule="nonzero" fill-opacity="1" /><path clip-path="url(#clip820)" d="M30.6081 477.529 L52.1242 477.529 L52.1242 483.385 L30.799 483.385 Q25.7383 483.385 23.2238 485.359 Q20.7094 487.332 20.7094 491.279 Q20.7094 496.021 23.7331 498.758 Q26.7568 501.496 31.9767 501.496 L52.1242 501.496 L52.1242 507.384 L16.4762 507.384 L16.4762 501.496 L22.0144 501.496 Q18.7997 499.395 17.2083 496.562 Q15.6168 493.698 15.6168 489.974 Q15.6168 483.831 19.4363 480.68 Q23.2238 477.529 30.6081 477.529 Z" fill="#000000" fill-rule="nonzero" fill-opacity="1" /><path clip-path="url(#clip820)" d="M30.6081 415.495 L52.1242 415.495 L52.1242 421.351 L30.799 421.351 Q25.7383 421.351 23.2238 423.325 Q20.7094 425.298 20.7094 429.245 Q20.7094 433.987 23.7331 436.725 Q26.7568 439.462 31.9767 439.462 L52.1242 439.462 L52.1242 445.35 L16.4762 445.35 L16.4762 439.462 L22.0144 439.462 Q18.7997 437.361 17.2083 434.528 Q15.6168 431.664 15.6168 427.94 Q15.6168 421.797 19.4363 418.646 Q23.2238 415.495 30.6081 415.495 Z" fill="#000000" fill-rule="nonzero" fill-opacity="1" /><path clip-path="url(#clip820)" d="M38.0559 404.419 L16.4762 404.419 L16.4762 398.562 L37.8331 398.562 Q42.8939 398.562 45.4402 396.589 Q47.9546 394.615 47.9546 390.669 Q47.9546 385.926 44.9309 383.189 Q41.9072 380.42 36.6873 380.42 L16.4762 380.42 L16.4762 374.563 L52.1242 374.563 L52.1242 380.42 L46.6496 380.42 Q49.8962 382.552 51.4876 385.385 Q53.0472 388.186 53.0472 391.91 Q53.0472 398.053 49.2278 401.236 Q45.4083 404.419 38.0559 404.419 M15.6168 389.682 L15.6168 389.682 Z" fill="#000000" fill-rule="nonzero" fill-opacity="1" /><path clip-path="url(#clip820)" d="M23.3193 334.746 Q19.3726 332.55 17.4947 329.494 Q15.6168 326.439 15.6168 322.301 Q15.6168 316.731 19.5317 313.707 Q23.4148 310.684 30.6081 310.684 L52.1242 310.684 L52.1242 316.572 L30.799 316.572 Q25.6746 316.572 23.192 318.386 Q20.7094 320.2 20.7094 323.924 Q20.7094 328.476 23.7331 331.118 Q26.7568 333.759 31.9767 333.759 L52.1242 333.759 L52.1242 339.648 L30.799 339.648 Q25.6428 339.648 23.192 341.462 Q20.7094 343.276 20.7094 347.064 Q20.7094 351.551 23.7649 354.193 Q26.7886 356.835 31.9767 356.835 L52.1242 356.835 L52.1242 362.723 L16.4762 362.723 L16.4762 356.835 L22.0144 356.835 Q18.736 354.83 17.1764 352.029 Q15.6168 349.228 15.6168 345.377 Q15.6168 341.494 17.5902 338.788 Q19.5636 336.051 23.3193 334.746 Z" fill="#000000" fill-rule="nonzero" fill-opacity="1" /><path clip-path="url(#clip820)" d="M34.332 273.412 Q27.8708 273.412 24.2105 276.086 Q20.5184 278.728 20.5184 283.375 Q20.5184 288.022 24.2105 290.695 Q27.8708 293.337 34.332 293.337 Q40.7932 293.337 44.4853 290.695 Q48.1456 288.022 48.1456 283.375 Q48.1456 278.728 44.4853 276.086 Q40.7932 273.412 34.332 273.412 M21.8871 293.337 Q18.7042 291.491 17.1764 288.69 Q15.6168 285.857 15.6168 281.942 Q15.6168 275.449 20.7731 271.407 Q25.9293 267.333 34.332 267.333 Q42.7347 267.333 47.891 271.407 Q53.0472 275.449 53.0472 281.942 Q53.0472 285.857 51.5194 288.69 Q49.9598 291.491 46.777 293.337 L52.1242 293.337 L52.1242 299.225 L2.59896 299.225 L2.59896 293.337 L21.8871 293.337 Z" fill="#000000" fill-rule="nonzero" fill-opacity="1" /><path clip-path="url(#clip820)" d="M32.8361 227.134 L35.7006 227.134 L35.7006 254.061 Q41.7481 253.679 44.9309 250.432 Q48.0819 247.154 48.0819 241.329 Q48.0819 237.955 47.2544 234.804 Q46.4269 231.622 44.7718 228.502 L50.3099 228.502 Q51.6467 231.653 52.347 234.964 Q53.0472 238.274 53.0472 241.679 Q53.0472 250.209 48.0819 255.206 Q43.1167 260.172 34.6503 260.172 Q25.8974 260.172 20.7731 255.461 Q15.6168 250.719 15.6168 242.698 Q15.6168 235.505 20.2638 231.335 Q24.8789 227.134 32.8361 227.134 M31.1173 232.99 Q26.3112 233.054 23.4466 235.696 Q20.5821 238.306 20.5821 242.634 Q20.5821 247.536 23.3512 250.496 Q26.1202 253.424 31.1492 253.87 L31.1173 232.99 Z" fill="#000000" fill-rule="nonzero" fill-opacity="1" /><path clip-path="url(#clip820)" d="M21.9507 196.865 Q21.3778 197.851 21.1232 199.029 Q20.8367 200.175 20.8367 201.575 Q20.8367 206.541 24.0832 209.214 Q27.2979 211.856 33.3453 211.856 L52.1242 211.856 L52.1242 217.744 L16.4762 217.744 L16.4762 211.856 L22.0144 211.856 Q18.7679 210.01 17.2083 207.05 Q15.6168 204.09 15.6168 199.857 Q15.6168 199.252 15.7123 198.52 Q15.776 197.788 15.9351 196.897 L21.9507 196.865 Z" fill="#000000" fill-rule="nonzero" fill-opacity="1" /><path clip-path="url(#clip822)" d="M267.878 780.151 L279.186 691.668 L290.494 622.847 L301.802 550.749 L313.11 495.037 L324.418 449.157 L335.726 439.325 L347.034 452.434 L358.343 514.7 L369.651 586.798 L380.959 665.45 L392.267 740.825 L403.575 812.923 L414.883 868.635 L426.191 911.238 L437.499 953.842 L448.807 980.059 L460.116 993.168 L471.424 1003 L482.732 1009.55 L494.04 1003 L505.348 1003 L516.656 976.782 L527.964 957.119 L539.272 940.733 L550.581 930.901 L561.889 924.347 L573.197 937.456 L584.505 930.901 L595.813 907.961 L607.121 898.13 L618.429 871.912 L629.737 865.358 L641.046 871.912 L652.354 894.852 L663.662 894.852 L674.97 904.684 L686.278 914.515 L697.586 878.467 L708.894 842.418 L720.202 826.032 L731.511 793.26 L742.819 757.211 L754.127 760.488 L765.435 770.32 L776.743 757.211 L788.051 750.657 L799.359 744.102 L810.667 734.271 L821.976 717.885 L833.284 714.608 L844.592 724.439 L855.9 730.994 L867.208 704.776 L878.516 694.945 L889.824 704.776 L901.132 714.608 L912.44 711.331 L923.749 727.717 L935.057 724.439 L946.365 698.222 L957.673 658.896 L968.981 649.064 L980.289 662.173 L991.597 678.559 L1002.91 714.608 L1014.21 757.211 L1025.52 776.874 L1036.83 763.765 L1048.14 763.765 L1059.45 734.271 L1070.75 704.776 L1082.06 704.776 L1093.37 730.994 L1104.68 730.994 L1115.99 734.271 L1127.29 747.38 L1138.6 740.825 L1149.91 737.548 L1161.22 760.488 L1172.53 783.429 L1183.84 773.597 L1195.14 760.488 L1206.45 757.211 L1217.76 757.211 L1229.07 744.102 L1240.38 763.765 L1251.68 786.706 L1262.99 789.983 L1274.3 786.706 L1285.61 803.092 L1296.92 803.092 L1308.22 796.537 L1319.53 799.814 L1330.84 803.092 L1342.15 799.814 L1353.46 803.092 L1364.77 816.2 L1376.07 832.586 L1387.38 839.14 L1398.69 852.249 L1410 868.635 L1421.31 878.467 L1432.61 881.744 L1443.92 891.575 L1455.23 894.852 L1466.54 901.407 L1477.85 907.961 L1489.15 904.684 L1500.46 901.407 L1511.77 894.852 L1523.08 891.575 L1534.39 881.744 L1545.7 885.021 L1557 898.13 L1568.31 901.407 L1579.62 894.852 L1590.93 891.575 L1602.24 891.575 L1613.54 881.744 L1624.85 888.298 L1636.16 917.793 L1647.47 930.901 L1658.78 921.07 L1670.08 924.347 L1681.39 904.684 L1692.7 878.467 L1704.01 878.467 L1715.32 904.684 L1726.63 901.407 L1737.93 917.793 L1749.24 917.793 L1760.55 898.13 L1771.86 868.635 L1783.17 878.467 L1794.47 881.744 L1805.78 901.407 L1817.09 930.901 L1828.4 940.733 L1839.71 930.901 L1851.01 921.07 L1862.32 901.407 L1873.63 888.298 L1884.94 894.852 L1896.25 901.407 L1907.56 907.961 L1918.86 914.515 L1930.17 911.238 L1941.48 917.793 L1952.79 930.901 L1964.1 917.793 L1975.4 901.407 L1986.71 888.298 L1998.02 855.526 L2009.33 822.755 L2020.64 819.477 L2031.94 822.755 L2043.25 829.309 L2054.56 812.923 L2065.87 734.271 L2077.18 632.678 L2088.49 501.592 L2099.79 416.385 L2111.1 393.445 L2122.41 436.048 L2133.72 481.928 L2145.03 498.314 L2156.33 481.928 L2167.64 501.592 L2178.95 524.532 L2190.26 557.303 L2201.57 632.678 L2212.87 632.678 L2224.18 586.798 L2235.49 495.037 L2246.8 409.831 L2258.11 347.564 L2269.42 363.95 L2280.72 416.385 L2292.03 501.592 L2292.03 413.108 L2280.72 321.347 L2269.42 255.803 L2258.11 232.863 L2246.8 291.852 L2235.49 383.613 L2224.18 475.374 L2212.87 521.255 L2201.57 514.7 L2190.26 426.217 L2178.95 383.613 L2167.64 350.842 L2156.33 321.347 L2145.03 327.901 L2133.72 298.407 L2122.41 239.418 L2111.1 183.706 L2099.79 200.092 L2088.49 291.852 L2077.18 442.602 L2065.87 557.303 L2054.56 649.064 L2043.25 665.45 L2031.94 655.619 L2020.64 652.342 L2009.33 662.173 L1998.02 704.776 L1986.71 744.102 L1975.4 760.488 L1964.1 783.429 L1952.79 799.814 L1941.48 783.429 L1930.17 780.151 L1918.86 783.429 L1907.56 780.151 L1896.25 770.32 L1884.94 763.765 L1873.63 763.765 L1862.32 780.151 L1851.01 806.369 L1839.71 819.477 L1828.4 829.309 L1817.09 819.477 L1805.78 783.429 L1794.47 763.765 L1783.17 757.211 L1771.86 753.934 L1760.55 786.706 L1749.24 812.923 L1737.93 816.2 L1726.63 796.537 L1715.32 799.814 L1704.01 770.32 L1692.7 776.874 L1681.39 806.369 L1670.08 832.586 L1658.78 832.586 L1647.47 842.418 L1636.16 826.032 L1624.85 796.537 L1613.54 789.983 L1602.24 803.092 L1590.93 803.092 L1579.62 806.369 L1568.31 816.2 L1557 812.923 L1545.7 799.814 L1534.39 799.814 L1523.08 812.923 L1511.77 819.477 L1500.46 826.032 L1489.15 832.586 L1477.85 835.863 L1466.54 829.309 L1455.23 822.755 L1443.92 819.477 L1432.61 809.646 L1421.31 806.369 L1410 796.537 L1398.69 776.874 L1387.38 760.488 L1376.07 753.934 L1364.77 737.548 L1353.46 721.162 L1342.15 717.885 L1330.84 721.162 L1319.53 717.885 L1308.22 714.608 L1296.92 721.162 L1285.61 717.885 L1274.3 701.499 L1262.99 701.499 L1251.68 698.222 L1240.38 668.727 L1229.07 652.342 L1217.76 662.173 L1206.45 662.173 L1195.14 665.45 L1183.84 678.559 L1172.53 685.113 L1161.22 658.896 L1149.91 632.678 L1138.6 632.678 L1127.29 639.233 L1115.99 626.124 L1104.68 619.57 L1093.37 613.015 L1082.06 583.521 L1070.75 583.521 L1059.45 616.293 L1048.14 645.787 L1036.83 645.787 L1025.52 655.619 L1014.21 629.401 L1002.91 576.967 L991.597 534.363 L980.289 511.423 L968.981 495.037 L957.673 504.869 L946.365 544.195 L935.057 570.412 L923.749 570.412 L912.44 550.749 L901.132 547.472 L889.824 534.363 L878.516 517.977 L867.208 527.809 L855.9 554.026 L844.592 540.918 L833.284 527.809 L821.976 527.809 L810.667 540.918 L799.359 550.749 L788.051 554.026 L776.743 560.581 L765.435 573.689 L754.127 560.581 L742.819 554.026 L731.511 599.907 L720.202 639.233 L708.894 662.173 L697.586 708.054 L686.278 750.657 L674.97 737.548 L663.662 727.717 L652.354 727.717 L641.046 701.499 L629.737 698.222 L618.429 708.054 L607.121 740.825 L595.813 757.211 L584.505 786.706 L573.197 796.537 L561.889 783.429 L550.581 796.537 L539.272 816.2 L527.964 842.418 L516.656 871.912 L505.348 907.961 L494.04 911.238 L482.732 921.07 L471.424 914.515 L460.116 904.684 L448.807 885.021 L437.499 852.249 L426.191 799.814 L414.883 744.102 L403.575 678.559 L392.267 586.798 L380.959 491.76 L369.651 393.445 L358.343 298.407 L347.034 216.477 L335.726 183.706 L324.418 180.428 L313.11 213.2 L301.802 255.803 L290.494 311.515 L279.186 350.842 L267.878 393.445  Z" fill="#13643f" fill-rule="evenodd" fill-opacity="0.3"/>
<polyline clip-path="url(#clip822)" style="stroke:#13643f; stroke-linecap:round; stroke-linejoin:round; stroke-width:4; stroke-opacity:1; fill:none" points="267.878,604.848 279.186,533.748 290.494,475.051 301.802,409.93 313.11,359.182 324.418,319.081 335.726,315.499 347.034,336.723 358.343,409.439 369.651,494.156 380.959,580.93 392.267,665.604 403.575,748.236 414.883,807.689 426.191,859.065 437.499,904.856 448.807,933.78 460.116,951.637 471.424,961.199 482.732,967.137 494.04,960.008 505.348,957.399 516.656,928.351 527.964,903.486 539.272,881.289 550.581,866.415 561.889,857.442 573.197,869.517 584.505,862.315 595.813,837.028 607.121,822.991 618.429,794.138 629.737,785.672 641.046,791.94 652.354,814.362 663.662,814.794 674.97,825.756 686.278,837.038 697.586,797.329 708.894,757.354 720.202,737.456 731.511,702.214 742.819,660.089 754.127,665.158 765.435,677.139 776.743,662.99 788.051,656.911 799.359,651.196 810.667,641.529 821.976,626.194 833.284,624.577 844.592,636.393 855.9,645.706 867.208,618.485 878.516,609.043 889.824,623.29 901.132,633.499 912.44,633.608 923.749,650.683 935.057,650.524 946.365,623.448 957.673,585.198 968.981,574.954 980.289,589.904 991.597,607.173 1002.91,647.44 1014.21,694.472 1025.52,718.319 1036.83,707.056 1048.14,707.476 1059.45,675.698 1070.75,645.455 1082.06,645.047 1093.37,674.138 1104.68,675.868 1115.99,681.128 1127.29,694.48 1138.6,688.132 1149.91,686.141 1161.22,711.214 1172.53,736.093 1183.84,726.219 1195.14,715.121 1206.45,712.165 1217.76,710.99 1229.07,699.28 1240.38,717.306 1251.68,743.043 1262.99,747.481 1274.3,744.935 1285.61,761.592 1296.92,763.642 1308.22,755.759 1319.53,760.867 1330.84,762.94 1342.15,760.065 1353.46,763.573 1364.77,777.712 1376.07,793.87 1387.38,800.268 1398.69,816.043 1410,833.453 1421.31,842.314 1432.61,846.666 1443.92,856.126 1455.23,859.835 1466.54,865.968 1477.85,872.926 1489.15,869.439 1500.46,865.575 1511.77,858.46 1523.08,853.801 1534.39,841.769 1545.7,843.537 1557,857.007 1568.31,861.703 1579.62,851.365 1590.93,849.144 1602.24,848.523 1613.54,838.249 1624.85,843.875 1636.16,873.225 1647.47,888.777 1658.78,879.215 1670.08,880.62 1681.39,856.987 1692.7,829.321 1704.01,826.66 1715.32,855.088 1726.63,851.842 1737.93,869.042 1749.24,868.873 1760.55,845.055 1771.86,812.573 1783.17,820.325 1794.47,824.446 1805.78,843.768 1817.09,878.35 1828.4,887.162 1839.71,878.958 1851.01,865.294 1862.32,844.921 1873.63,828.715 1884.94,831.632 1896.25,838.262 1907.56,847.079 1918.86,852.672 1930.17,847.451 1941.48,853.934 1952.79,867.82 1964.1,852.762 1975.4,834.838 1986.71,820.322 1998.02,784.535 2009.33,746.84 2020.64,739.496 2031.94,742.747 2043.25,752.36 2054.56,735.287 2065.87,648.934 2077.18,541.131 2088.49,400.317 2099.79,310.664 2111.1,291.535 2122.41,340.39 2133.72,392.633 2145.03,415.375 2156.33,404.176 2167.64,427.086 2178.95,457.11 2190.26,491.65 2201.57,575.092 2212.87,577.399 2224.18,532.132 2235.49,439.85 2246.8,352.019 2258.11,292.522 2269.42,310.495 2280.72,369.655 2292.03,458.199 "/>
<path clip-path="url(#clip822)" d="M267.878 793.26 L279.186 685.113 L290.494 613.015 L301.802 537.64 L313.11 485.206 L324.418 445.88 L335.726 452.434 L347.034 472.097 L358.343 563.858 L369.651 649.064 L380.959 727.717 L392.267 796.537 L403.575 868.635 L414.883 907.961 L426.191 947.287 L437.499 983.336 L448.807 999.722 L460.116 1009.55 L471.424 1016.11 L482.732 1019.39 L494.04 1009.55 L505.348 1009.55 L516.656 973.505 L527.964 950.564 L539.272 934.179 L550.581 927.624 L561.889 927.624 L573.197 950.564 L584.505 940.733 L595.813 907.961 L607.121 898.13 L618.429 868.635 L629.737 868.635 L641.046 885.021 L652.354 917.793 L663.662 911.238 L674.97 924.347 L686.278 934.179 L697.586 878.467 L708.894 835.863 L720.202 822.755 L731.511 786.706 L742.819 744.102 L754.127 767.043 L765.435 786.706 L776.743 767.043 L788.051 760.488 L799.359 753.934 L810.667 740.825 L821.976 724.439 L833.284 724.439 L844.592 737.548 L855.9 747.38 L867.208 708.054 L878.516 698.222 L889.824 717.885 L901.132 727.717 L912.44 721.162 L923.749 740.825 L935.057 734.271 L946.365 698.222 L957.673 658.896 L968.981 652.342 L980.289 672.005 L991.597 685.113 L1002.91 727.717 L1014.21 770.32 L1025.52 786.706 L1036.83 767.043 L1048.14 767.043 L1059.45 730.994 L1070.75 701.499 L1082.06 704.776 L1093.37 737.548 L1104.68 734.271 L1115.99 737.548 L1127.29 750.657 L1138.6 740.825 L1149.91 737.548 L1161.22 763.765 L1172.53 786.706 L1183.84 773.597 L1195.14 763.765 L1206.45 760.488 L1217.76 757.211 L1229.07 747.38 L1240.38 763.765 L1251.68 789.983 L1262.99 789.983 L1274.3 786.706 L1285.61 803.092 L1296.92 806.369 L1308.22 796.537 L1319.53 803.092 L1330.84 803.092 L1342.15 799.814 L1353.46 803.092 L1364.77 819.477 L1376.07 832.586 L1387.38 839.14 L1398.69 852.249 L1410 868.635 L1421.31 878.467 L1432.61 881.744 L1443.92 891.575 L1455.23 894.852 L1466.54 901.407 L1477.85 907.961 L1489.15 904.684 L1500.46 901.407 L1511.77 894.852 L1523.08 891.575 L1534.39 881.744 L1545.7 885.021 L1557 898.13 L1568.31 901.407 L1579.62 891.575 L1590.93 891.575 L1602.24 891.575 L1613.54 881.744 L1624.85 888.298 L1636.16 914.515 L1647.47 930.901 L1658.78 921.07 L1670.08 924.347 L1681.39 904.684 L1692.7 878.467 L1704.01 878.467 L1715.32 904.684 L1726.63 901.407 L1737.93 917.793 L1749.24 917.793 L1760.55 898.13 L1771.86 868.635 L1783.17 875.189 L1794.47 881.744 L1805.78 898.13 L1817.09 927.624 L1828.4 937.456 L1839.71 930.901 L1851.01 917.793 L1862.32 901.407 L1873.63 888.298 L1884.94 891.575 L1896.25 898.13 L1907.56 907.961 L1918.86 911.238 L1930.17 907.961 L1941.48 914.515 L1952.79 927.624 L1964.1 914.515 L1975.4 901.407 L1986.71 888.298 L1998.02 858.804 L2009.33 826.032 L2020.64 819.477 L2031.94 822.755 L2043.25 829.309 L2054.56 812.923 L2065.87 737.548 L2077.18 639.233 L2088.49 504.869 L2099.79 413.108 L2111.1 393.445 L2122.41 439.325 L2133.72 481.928 L2145.03 498.314 L2156.33 481.928 L2167.64 501.592 L2178.95 527.809 L2190.26 557.303 L2201.57 635.956 L2212.87 632.678 L2224.18 586.798 L2235.49 495.037 L2246.8 406.553 L2258.11 347.564 L2269.42 363.95 L2280.72 419.662 L2292.03 504.869 L2292.03 416.385 L2280.72 321.347 L2269.42 255.803 L2258.11 229.586 L2246.8 288.575 L2235.49 377.059 L2224.18 475.374 L2212.87 521.255 L2201.57 514.7 L2190.26 426.217 L2178.95 383.613 L2167.64 350.842 L2156.33 321.347 L2145.03 327.901 L2133.72 298.407 L2122.41 236.14 L2111.1 173.874 L2099.79 186.983 L2088.49 282.021 L2077.18 445.88 L2065.87 563.858 L2054.56 655.619 L2043.25 672.005 L2031.94 662.173 L2020.64 662.173 L2009.33 672.005 L1998.02 711.331 L1986.71 750.657 L1975.4 767.043 L1964.1 786.706 L1952.79 799.814 L1941.48 786.706 L1930.17 780.151 L1918.86 786.706 L1907.56 780.151 L1896.25 773.597 L1884.94 767.043 L1873.63 767.043 L1862.32 786.706 L1851.01 806.369 L1839.71 822.755 L1828.4 829.309 L1817.09 819.477 L1805.78 783.429 L1794.47 763.765 L1783.17 760.488 L1771.86 757.211 L1760.55 789.983 L1749.24 816.2 L1737.93 816.2 L1726.63 799.814 L1715.32 799.814 L1704.01 773.597 L1692.7 776.874 L1681.39 809.646 L1670.08 832.586 L1658.78 832.586 L1647.47 842.418 L1636.16 826.032 L1624.85 796.537 L1613.54 789.983 L1602.24 803.092 L1590.93 803.092 L1579.62 806.369 L1568.31 819.477 L1557 812.923 L1545.7 799.814 L1534.39 799.814 L1523.08 812.923 L1511.77 819.477 L1500.46 826.032 L1489.15 832.586 L1477.85 835.863 L1466.54 829.309 L1455.23 822.755 L1443.92 819.477 L1432.61 809.646 L1421.31 803.092 L1410 796.537 L1398.69 776.874 L1387.38 760.488 L1376.07 753.934 L1364.77 737.548 L1353.46 721.162 L1342.15 717.885 L1330.84 721.162 L1319.53 717.885 L1308.22 711.331 L1296.92 721.162 L1285.61 717.885 L1274.3 698.222 L1262.99 701.499 L1251.68 698.222 L1240.38 668.727 L1229.07 649.064 L1217.76 658.896 L1206.45 658.896 L1195.14 662.173 L1183.84 675.282 L1172.53 688.39 L1161.22 658.896 L1149.91 629.401 L1138.6 629.401 L1127.29 639.233 L1115.99 622.847 L1104.68 616.293 L1093.37 613.015 L1082.06 576.967 L1070.75 570.412 L1059.45 603.184 L1048.14 642.51 L1036.83 642.51 L1025.52 658.896 L1014.21 632.678 L1002.91 580.244 L991.597 527.809 L980.289 504.869 L968.981 478.651 L957.673 481.928 L946.365 527.809 L935.057 563.858 L923.749 563.858 L912.44 537.64 L901.132 537.64 L889.824 521.255 L878.516 495.037 L867.208 504.869 L855.9 540.918 L844.592 527.809 L833.284 504.869 L821.976 498.314 L810.667 514.7 L799.359 524.532 L788.051 527.809 L776.743 531.086 L765.435 547.472 L754.127 517.977 L742.819 485.206 L731.511 540.918 L720.202 586.798 L708.894 606.461 L697.586 668.727 L686.278 740.825 L674.97 724.439 L663.662 711.331 L652.354 714.608 L641.046 672.005 L629.737 652.342 L618.429 655.619 L607.121 698.222 L595.813 714.608 L584.505 760.488 L573.197 773.597 L561.889 744.102 L550.581 750.657 L539.272 763.765 L527.964 796.537 L516.656 832.586 L505.348 888.298 L494.04 894.852 L482.732 911.238 L471.424 911.238 L460.116 904.684 L448.807 891.575 L437.499 868.635 L426.191 819.477 L414.883 767.043 L403.575 711.331 L392.267 616.293 L380.959 517.977 L369.651 406.553 L358.343 308.238 L347.034 200.092 L335.726 137.825 L324.418 75.5589 L313.11 75.5589 L301.802 85.3904 L290.494 150.934 L279.186 209.923 L267.878 337.733  Z" fill="#e26f46" fill-rule="evenodd" fill-opacity="0.3"/>
<polyline clip-path="url(#clip822)" style="stroke:#e26f46; stroke-linecap:round; stroke-linejoin:round; stroke-width:4; stroke-opacity:1; fill:none" points="267.878,591.921 279.186,478.308 290.494,412.931 301.802,339.411 313.11,303.541 324.418,279.986 335.726,306.23 347.034,342.518 358.343,429.969 369.651,530.873 380.959,626.113 392.267,710.87 403.575,792.234 414.883,840.449 426.191,886.606 437.499,929.277 448.807,950.463 460.116,962.355 471.424,967.143 482.732,970.369 494.04,956.137 505.348,953.352 516.656,909.58 527.964,879.829 539.272,856.77 550.581,846.001 561.889,842.295 573.197,868.929 584.505,856.729 595.813,819.785 607.121,806.236 618.429,769.424 629.737,768.565 641.046,786.275 652.354,822.062 663.662,817.307 674.97,830.994 686.278,843.685 697.586,782.037 708.894,729.317 720.202,712.685 731.511,671.673 742.819,623.625 754.127,649.852 765.435,674.502 776.743,654.887 788.051,649.899 799.359,644.978 810.667,634.339 821.976,616.734 833.284,619.269 844.592,637.447 855.9,648.351 867.208,610.607 878.516,602.482 889.824,624.34 901.132,636.044 912.44,633.982 923.749,654.568 935.057,651.331 946.365,617.037 957.673,573.689 968.981,568.445 980.289,590.554 991.597,610.268 1002.91,655.405 1014.21,704.795 1025.52,724.916 1036.83,706.727 1048.14,707.145 1059.45,670.14 1070.75,638.674 1082.06,642.912 1093.37,677.5 1104.68,676.681 1115.99,681.76 1127.29,696.019 1138.6,687.578 1149.91,685.603 1161.22,713.496 1172.53,738.85 1183.84,725.783 1195.14,713.871 1206.45,711.491 1217.76,710.615 1229.07,698.195 1240.38,718.23 1251.68,744.815 1262.99,748.017 1274.3,744.804 1285.61,762.389 1296.92,763.824 1308.22,755.346 1319.53,760.941 1330.84,762.974 1342.15,759.911 1353.46,763.607 1364.77,778.084 1376.07,794.318 1387.38,800.452 1398.69,816.37 1410,833.807 1421.31,842.482 1432.61,846.717 1443.92,856.214 1455.23,859.849 1466.54,865.981 1477.85,872.925 1489.15,869.406 1500.46,865.575 1511.77,858.513 1523.08,853.892 1534.39,841.959 1545.7,843.65 1557,856.863 1568.31,861.545 1579.62,851.52 1590.93,849.315 1602.24,848.662 1613.54,838.666 1624.85,843.945 1636.16,872.288 1647.47,887.822 1658.78,879.075 1670.08,880.535 1681.39,857.966 1692.7,830.997 1704.01,827.785 1715.32,854.429 1726.63,851.663 1737.93,868.141 1749.24,868.414 1760.55,846.095 1771.86,814.872 1783.17,821.35 1794.47,824.877 1805.78,842.914 1817.09,875.949 1828.4,885.324 1839.71,878.353 1851.01,865.822 1862.32,846.617 1873.63,830.912 1884.94,832.924 1896.25,838.693 1907.56,846.783 1918.86,852.137 1930.17,847.569 1941.48,853.578 1952.79,866.541 1964.1,853.2 1975.4,836.695 1986.71,822.891 1998.02,789.196 2009.33,752.728 2020.64,744.117 2031.94,745.717 2043.25,753.676 2054.56,737.58 2065.87,655.788 2077.18,547.745 2088.49,398.768 2099.79,304.327 2111.1,288.075 2122.41,340.519 2133.72,393.78 2145.03,416.133 2156.33,404.176 2167.64,427.366 2178.95,457.5 2190.26,492.082 2201.57,576.646 2212.87,577.702 2224.18,531.532 2235.49,437.571 2246.8,348.676 2258.11,289.971 2269.42,310.5 2280.72,370.889 2292.03,460.313 "/>
<path clip-path="url(#clip820)" d="M278.673 184.273 L785.547 184.273 L785.547 80.5926 L278.673 80.5926  Z" fill="#ffffff" fill-rule="evenodd" fill-opacity="1"/>
<polyline clip-path="url(#clip820)" style="stroke:#000000; stroke-linecap:round; stroke-linejoin:round; stroke-width:4; stroke-opacity:1; fill:none" points="278.673,184.273 785.547,184.273 785.547,80.5926 278.673,80.5926 278.673,184.273 "/>
<polyline clip-path="url(#clip820)" style="stroke:#e26f46; stroke-linecap:round; stroke-linejoin:round; stroke-width:4; stroke-opacity:1; fill:none" points="302.513,132.433 445.553,132.433 "/>
<path clip-path="url(#clip820)" d="M469.393 115.153 L476.361 115.153 L485.18 138.671 L494.046 115.153 L501.014 115.153 L501.014 149.713 L496.453 149.713 L496.453 119.366 L487.541 143.069 L482.842 143.069 L473.93 119.366 L473.93 149.713 L469.393 149.713 L469.393 115.153 Z" fill="#000000" fill-rule="nonzero" fill-opacity="1" /><path clip-path="url(#clip820)" d="M521.893 136.68 Q516.731 136.68 514.74 137.861 Q512.75 139.041 512.75 141.889 Q512.75 144.157 514.231 145.5 Q515.736 146.819 518.305 146.819 Q521.847 146.819 523.976 144.319 Q526.129 141.796 526.129 137.629 L526.129 136.68 L521.893 136.68 M530.388 134.921 L530.388 149.713 L526.129 149.713 L526.129 145.777 Q524.671 148.139 522.495 149.273 Q520.319 150.384 517.171 150.384 Q513.189 150.384 510.828 148.162 Q508.49 145.916 508.49 142.166 Q508.49 137.791 511.407 135.569 Q514.347 133.347 520.157 133.347 L526.129 133.347 L526.129 132.93 Q526.129 129.991 524.185 128.393 Q522.263 126.773 518.768 126.773 Q516.546 126.773 514.439 127.305 Q512.333 127.838 510.388 128.903 L510.388 124.967 Q512.726 124.065 514.925 123.625 Q517.125 123.162 519.208 123.162 Q524.833 123.162 527.611 126.078 Q530.388 128.995 530.388 134.921 Z" fill="#000000" fill-rule="nonzero" fill-opacity="1" /><path clip-path="url(#clip820)" d="M554.185 127.768 Q553.467 127.352 552.61 127.166 Q551.777 126.958 550.759 126.958 Q547.148 126.958 545.203 129.319 Q543.282 131.657 543.282 136.055 L543.282 149.713 L538.999 149.713 L538.999 123.787 L543.282 123.787 L543.282 127.815 Q544.624 125.453 546.777 124.319 Q548.93 123.162 552.009 123.162 Q552.448 123.162 552.981 123.231 Q553.513 123.278 554.161 123.393 L554.185 127.768 Z" fill="#000000" fill-rule="nonzero" fill-opacity="1" /><path clip-path="url(#clip820)" d="M574.879 136.449 Q574.879 131.819 572.958 129.273 Q571.059 126.727 567.61 126.727 Q564.184 126.727 562.263 129.273 Q560.365 131.819 560.365 136.449 Q560.365 141.055 562.263 143.602 Q564.184 146.148 567.61 146.148 Q571.059 146.148 572.958 143.602 Q574.879 141.055 574.879 136.449 M579.138 146.495 Q579.138 153.115 576.198 156.333 Q573.258 159.574 567.194 159.574 Q564.948 159.574 562.958 159.226 Q560.967 158.902 559.092 158.208 L559.092 154.064 Q560.967 155.083 562.796 155.569 Q564.624 156.055 566.522 156.055 Q570.712 156.055 572.796 153.856 Q574.879 151.68 574.879 147.259 L574.879 145.152 Q573.559 147.444 571.499 148.578 Q569.439 149.713 566.569 149.713 Q561.8 149.713 558.884 146.078 Q555.967 142.444 555.967 136.449 Q555.967 130.43 558.884 126.796 Q561.8 123.162 566.569 123.162 Q569.439 123.162 571.499 124.296 Q573.559 125.43 574.879 127.722 L574.879 123.787 L579.138 123.787 L579.138 146.495 Z" fill="#000000" fill-rule="nonzero" fill-opacity="1" /><path clip-path="url(#clip820)" d="M587.911 123.787 L592.17 123.787 L592.17 149.713 L587.911 149.713 L587.911 123.787 M587.911 113.694 L592.17 113.694 L592.17 119.088 L587.911 119.088 L587.911 113.694 Z" fill="#000000" fill-rule="nonzero" fill-opacity="1" /><path clip-path="url(#clip820)" d="M622.633 134.065 L622.633 149.713 L618.374 149.713 L618.374 134.203 Q618.374 130.523 616.939 128.694 Q615.504 126.866 612.633 126.866 Q609.184 126.866 607.193 129.065 Q605.203 131.264 605.203 135.06 L605.203 149.713 L600.92 149.713 L600.92 123.787 L605.203 123.787 L605.203 127.815 Q606.731 125.477 608.791 124.319 Q610.874 123.162 613.582 123.162 Q618.05 123.162 620.342 125.94 Q622.633 128.694 622.633 134.065 Z" fill="#000000" fill-rule="nonzero" fill-opacity="1" /><path clip-path="url(#clip820)" d="M642.911 136.68 Q637.749 136.68 635.758 137.861 Q633.767 139.041 633.767 141.889 Q633.767 144.157 635.249 145.5 Q636.754 146.819 639.323 146.819 Q642.865 146.819 644.994 144.319 Q647.147 141.796 647.147 137.629 L647.147 136.68 L642.911 136.68 M651.406 134.921 L651.406 149.713 L647.147 149.713 L647.147 145.777 Q645.689 148.139 643.513 149.273 Q641.337 150.384 638.189 150.384 Q634.207 150.384 631.846 148.162 Q629.508 145.916 629.508 142.166 Q629.508 137.791 632.425 135.569 Q635.365 133.347 641.175 133.347 L647.147 133.347 L647.147 132.93 Q647.147 129.991 645.203 128.393 Q643.281 126.773 639.786 126.773 Q637.564 126.773 635.457 127.305 Q633.351 127.838 631.406 128.903 L631.406 124.967 Q633.744 124.065 635.943 123.625 Q638.142 123.162 640.226 123.162 Q645.851 123.162 648.628 126.078 Q651.406 128.995 651.406 134.921 Z" fill="#000000" fill-rule="nonzero" fill-opacity="1" /><path clip-path="url(#clip820)" d="M660.179 113.694 L664.439 113.694 L664.439 149.713 L660.179 149.713 L660.179 113.694 Z" fill="#000000" fill-rule="nonzero" fill-opacity="1" /><path clip-path="url(#clip820)" d="M673.351 123.787 L677.61 123.787 L677.61 149.713 L673.351 149.713 L673.351 123.787 M673.351 113.694 L677.61 113.694 L677.61 119.088 L673.351 119.088 L673.351 113.694 Z" fill="#000000" fill-rule="nonzero" fill-opacity="1" /><path clip-path="url(#clip820)" d="M703.049 124.551 L703.049 128.578 Q701.244 127.653 699.299 127.19 Q697.355 126.727 695.272 126.727 Q692.1 126.727 690.503 127.699 Q688.929 128.671 688.929 130.615 Q688.929 132.097 690.063 132.953 Q691.198 133.787 694.624 134.551 L696.082 134.875 Q700.619 135.847 702.517 137.629 Q704.438 139.389 704.438 142.56 Q704.438 146.171 701.568 148.277 Q698.721 150.384 693.721 150.384 Q691.637 150.384 689.369 149.967 Q687.124 149.574 684.624 148.764 L684.624 144.365 Q686.985 145.592 689.276 146.217 Q691.568 146.819 693.813 146.819 Q696.823 146.819 698.443 145.801 Q700.063 144.759 700.063 142.884 Q700.063 141.148 698.883 140.222 Q697.725 139.296 693.767 138.44 L692.286 138.092 Q688.327 137.259 686.568 135.546 Q684.809 133.81 684.809 130.801 Q684.809 127.143 687.401 125.153 Q689.994 123.162 694.762 123.162 Q697.124 123.162 699.207 123.509 Q701.29 123.856 703.049 124.551 Z" fill="#000000" fill-rule="nonzero" fill-opacity="1" /><path clip-path="url(#clip820)" d="M733.397 135.685 L733.397 137.768 L713.813 137.768 Q714.091 142.166 716.452 144.481 Q718.836 146.773 723.072 146.773 Q725.526 146.773 727.818 146.171 Q730.133 145.569 732.401 144.365 L732.401 148.393 Q730.109 149.365 727.702 149.875 Q725.295 150.384 722.818 150.384 Q716.614 150.384 712.98 146.773 Q709.369 143.162 709.369 137.004 Q709.369 130.639 712.795 126.912 Q716.244 123.162 722.077 123.162 Q727.309 123.162 730.341 126.541 Q733.397 129.898 733.397 135.685 M729.137 134.435 Q729.091 130.94 727.17 128.856 Q725.272 126.773 722.123 126.773 Q718.559 126.773 716.406 128.787 Q714.276 130.801 713.952 134.458 L729.137 134.435 Z" fill="#000000" fill-rule="nonzero" fill-opacity="1" /><path clip-path="url(#clip820)" d="M757.447 127.722 L757.447 113.694 L761.707 113.694 L761.707 149.713 L757.447 149.713 L757.447 145.824 Q756.105 148.139 754.045 149.273 Q752.008 150.384 749.137 150.384 Q744.438 150.384 741.475 146.634 Q738.535 142.884 738.535 136.773 Q738.535 130.662 741.475 126.912 Q744.438 123.162 749.137 123.162 Q752.008 123.162 754.045 124.296 Q756.105 125.407 757.447 127.722 M742.934 136.773 Q742.934 141.472 744.855 144.157 Q746.799 146.819 750.179 146.819 Q753.558 146.819 755.503 144.157 Q757.447 141.472 757.447 136.773 Q757.447 132.074 755.503 129.412 Q753.558 126.727 750.179 126.727 Q746.799 126.727 744.855 129.412 Q742.934 132.074 742.934 136.773 Z" fill="#000000" fill-rule="nonzero" fill-opacity="1" /></svg>
