<?xml version="1.0" encoding="utf-8"?>
<svg xmlns="http://www.w3.org/2000/svg" xmlns:xlink="http://www.w3.org/1999/xlink" width="600" height="300" viewBox="0 0 2400 1200">
<defs>
  <clipPath id="clip310">
    <rect x="0" y="0" width="2400" height="1200"/>
  </clipPath>
</defs>
<path clip-path="url(#clip310)" d="M0 1200 L2400 1200 L2400 0 L0 0  Z" fill="#ffffff" fill-rule="evenodd" fill-opacity="1"/>
<defs>
  <clipPath id="clip311">
    <rect x="480" y="0" width="1681" height="1200"/>
  </clipPath>
</defs>
<path clip-path="url(#clip310)" d="M207.153 1047.7 L2352.76 1047.7 L2352.76 47.2441 L207.153 47.2441  Z" fill="#ffffff" fill-rule="evenodd" fill-opacity="1"/>
<defs>
  <clipPath id="clip312">
    <rect x="207" y="47" width="2147" height="1001"/>
  </clipPath>
</defs>
<polyline clip-path="url(#clip312)" style="stroke:#000000; stroke-linecap:round; stroke-linejoin:round; stroke-width:2; stroke-opacity:0.1; fill:none" points="414.883,1047.7 414.883,47.2441 "/>
<polyline clip-path="url(#clip312)" style="stroke:#000000; stroke-linecap:round; stroke-linejoin:round; stroke-width:2; stroke-opacity:0.1; fill:none" points="1104.68,1047.7 1104.68,47.2441 "/>
<polyline clip-path="url(#clip312)" style="stroke:#000000; stroke-linecap:round; stroke-linejoin:round; stroke-width:2; stroke-opacity:0.1; fill:none" points="1794.47,1047.7 1794.47,47.2441 "/>
<polyline clip-path="url(#clip310)" style="stroke:#000000; stroke-linecap:round; stroke-linejoin:round; stroke-width:4; stroke-opacity:1; fill:none" points="207.153,1047.7 2352.76,1047.7 "/>
<polyline clip-path="url(#clip310)" style="stroke:#000000; stroke-linecap:round; stroke-linejoin:round; stroke-width:4; stroke-opacity:1; fill:none" points="414.883,1047.7 414.883,1028.8 "/>
<polyline clip-path="url(#clip310)" style="stroke:#000000; stroke-linecap:round; stroke-linejoin:round; stroke-width:4; stroke-opacity:1; fill:none" points="1104.68,1047.7 1104.68,1028.8 "/>
<polyline clip-path="url(#clip310)" style="stroke:#000000; stroke-linecap:round; stroke-linejoin:round; stroke-width:4; stroke-opacity:1; fill:none" points="1794.47,1047.7 1794.47,1028.8 "/>
<path clip-path="url(#clip310)" d="M286.678 1106.16 L302.997 1106.16 L302.997 1110.1 L281.053 1110.1 L281.053 1106.16 Q283.715 1103.41 288.298 1098.78 Q292.905 1094.13 294.085 1092.79 Q296.331 1090.26 297.21 1088.53 Q298.113 1086.77 298.113 1085.08 Q298.113 1082.32 296.168 1080.59 Q294.247 1078.85 291.145 1078.85 Q288.946 1078.85 286.493 1079.61 Q284.062 1080.38 281.284 1081.93 L281.284 1077.21 Q284.108 1076.07 286.562 1075.49 Q289.016 1074.91 291.053 1074.91 Q296.423 1074.91 299.618 1077.6 Q302.812 1080.29 302.812 1084.78 Q302.812 1086.91 302.002 1088.83 Q301.215 1090.72 299.108 1093.32 Q298.53 1093.99 295.428 1097.21 Q292.326 1100.4 286.678 1106.16 Z" fill="#000000" fill-rule="nonzero" fill-opacity="1" /><path clip-path="url(#clip310)" d="M322.812 1078.62 Q319.201 1078.62 317.372 1082.18 Q315.567 1085.72 315.567 1092.85 Q315.567 1099.96 317.372 1103.53 Q319.201 1107.07 322.812 1107.07 Q326.446 1107.07 328.252 1103.53 Q330.08 1099.96 330.08 1092.85 Q330.08 1085.72 328.252 1082.18 Q326.446 1078.62 322.812 1078.62 M322.812 1074.91 Q328.622 1074.91 331.678 1079.52 Q334.756 1084.1 334.756 1092.85 Q334.756 1101.58 331.678 1106.19 Q328.622 1110.77 322.812 1110.77 Q317.002 1110.77 313.923 1106.19 Q310.867 1101.58 310.867 1092.85 Q310.867 1084.1 313.923 1079.52 Q317.002 1074.91 322.812 1074.91 Z" fill="#000000" fill-rule="nonzero" fill-opacity="1" /><path clip-path="url(#clip310)" d="M347.002 1106.16 L363.321 1106.16 L363.321 1110.1 L341.377 1110.1 L341.377 1106.16 Q344.039 1103.41 348.622 1098.78 Q353.228 1094.13 354.409 1092.79 Q356.654 1090.26 357.534 1088.53 Q358.437 1086.77 358.437 1085.08 Q358.437 1082.32 356.492 1080.59 Q354.571 1078.85 351.469 1078.85 Q349.27 1078.85 346.816 1079.61 Q344.386 1080.38 341.608 1081.93 L341.608 1077.21 Q344.432 1076.07 346.886 1075.49 Q349.339 1074.91 351.377 1074.91 Q356.747 1074.91 359.941 1077.6 Q363.136 1080.29 363.136 1084.78 Q363.136 1086.91 362.326 1088.83 Q361.539 1090.72 359.432 1093.32 Q358.853 1093.99 355.752 1097.21 Q352.65 1100.4 347.002 1106.16 Z" fill="#000000" fill-rule="nonzero" fill-opacity="1" /><path clip-path="url(#clip310)" d="M373.946 1106.16 L381.585 1106.16 L381.585 1079.8 L373.275 1081.47 L373.275 1077.21 L381.538 1075.54 L386.214 1075.54 L386.214 1106.16 L393.853 1106.16 L393.853 1110.1 L373.946 1110.1 L373.946 1106.16 Z" fill="#000000" fill-rule="nonzero" fill-opacity="1" /><path clip-path="url(#clip310)" d="M400.543 1095.22 L413.02 1095.22 L413.02 1099.01 L400.543 1099.01 L400.543 1095.22 Z" fill="#000000" fill-rule="nonzero" fill-opacity="1" /><path clip-path="url(#clip310)" d="M430.404 1078.62 Q426.793 1078.62 424.964 1082.18 Q423.159 1085.72 423.159 1092.85 Q423.159 1099.96 424.964 1103.53 Q426.793 1107.07 430.404 1107.07 Q434.038 1107.07 435.844 1103.53 Q437.672 1099.96 437.672 1092.85 Q437.672 1085.72 435.844 1082.18 Q434.038 1078.62 430.404 1078.62 M430.404 1074.91 Q436.214 1074.91 439.27 1079.52 Q442.348 1084.1 442.348 1092.85 Q442.348 1101.58 439.27 1106.19 Q436.214 1110.77 430.404 1110.77 Q424.594 1110.77 421.515 1106.19 Q418.459 1101.58 418.459 1092.85 Q418.459 1084.1 421.515 1079.52 Q424.594 1074.91 430.404 1074.91 Z" fill="#000000" fill-rule="nonzero" fill-opacity="1" /><path clip-path="url(#clip310)" d="M450.705 1109.38 L450.705 1105.12 Q452.464 1105.96 454.269 1106.4 Q456.075 1106.84 457.811 1106.84 Q462.441 1106.84 464.871 1103.73 Q467.325 1100.61 467.672 1094.27 Q466.33 1096.26 464.269 1097.32 Q462.209 1098.39 459.709 1098.39 Q454.524 1098.39 451.492 1095.26 Q448.482 1092.11 448.482 1086.67 Q448.482 1081.35 451.631 1078.13 Q454.779 1074.91 460.01 1074.91 Q466.006 1074.91 469.154 1079.52 Q472.325 1084.1 472.325 1092.85 Q472.325 1101.03 468.436 1105.91 Q464.57 1110.77 458.019 1110.77 Q456.26 1110.77 454.455 1110.42 Q452.649 1110.08 450.705 1109.38 M460.01 1094.73 Q463.158 1094.73 464.987 1092.58 Q466.839 1090.42 466.839 1086.67 Q466.839 1082.95 464.987 1080.79 Q463.158 1078.62 460.01 1078.62 Q456.862 1078.62 455.01 1080.79 Q453.182 1082.95 453.182 1086.67 Q453.182 1090.42 455.01 1092.58 Q456.862 1094.73 460.01 1094.73 Z" fill="#000000" fill-rule="nonzero" fill-opacity="1" /><path clip-path="url(#clip310)" d="M477.973 1095.22 L490.45 1095.22 L490.45 1099.01 L477.973 1099.01 L477.973 1095.22 Z" fill="#000000" fill-rule="nonzero" fill-opacity="1" /><path clip-path="url(#clip310)" d="M507.834 1078.62 Q504.223 1078.62 502.394 1082.18 Q500.589 1085.72 500.589 1092.85 Q500.589 1099.96 502.394 1103.53 Q504.223 1107.07 507.834 1107.07 Q511.468 1107.07 513.274 1103.53 Q515.102 1099.96 515.102 1092.85 Q515.102 1085.72 513.274 1082.18 Q511.468 1078.62 507.834 1078.62 M507.834 1074.91 Q513.644 1074.91 516.7 1079.52 Q519.778 1084.1 519.778 1092.85 Q519.778 1101.58 516.7 1106.19 Q513.644 1110.77 507.834 1110.77 Q502.024 1110.77 498.945 1106.19 Q495.89 1101.58 495.89 1092.85 Q495.89 1084.1 498.945 1079.52 Q502.024 1074.91 507.834 1074.91 Z" fill="#000000" fill-rule="nonzero" fill-opacity="1" /><path clip-path="url(#clip310)" d="M528.806 1106.16 L536.445 1106.16 L536.445 1079.8 L528.135 1081.47 L528.135 1077.21 L536.399 1075.54 L541.075 1075.54 L541.075 1106.16 L548.713 1106.16 L548.713 1110.1 L528.806 1110.1 L528.806 1106.16 Z" fill="#000000" fill-rule="nonzero" fill-opacity="1" /><path clip-path="url(#clip310)" d="M976.473 1106.16 L992.793 1106.16 L992.793 1110.1 L970.848 1110.1 L970.848 1106.16 Q973.51 1103.41 978.094 1098.78 Q982.7 1094.13 983.881 1092.79 Q986.126 1090.26 987.006 1088.53 Q987.908 1086.77 987.908 1085.08 Q987.908 1082.32 985.964 1080.59 Q984.043 1078.85 980.941 1078.85 Q978.742 1078.85 976.288 1079.61 Q973.857 1080.38 971.08 1081.93 L971.08 1077.21 Q973.904 1076.07 976.357 1075.49 Q978.811 1074.91 980.848 1074.91 Q986.219 1074.91 989.413 1077.6 Q992.607 1080.29 992.607 1084.78 Q992.607 1086.91 991.797 1088.83 Q991.01 1090.72 988.904 1093.32 Q988.325 1093.99 985.223 1097.21 Q982.121 1100.4 976.473 1106.16 Z" fill="#000000" fill-rule="nonzero" fill-opacity="1" /><path clip-path="url(#clip310)" d="M1012.61 1078.62 Q1009 1078.62 1007.17 1082.18 Q1005.36 1085.72 1005.36 1092.85 Q1005.36 1099.96 1007.17 1103.53 Q1009 1107.07 1012.61 1107.07 Q1016.24 1107.07 1018.05 1103.53 Q1019.88 1099.96 1019.88 1092.85 Q1019.88 1085.72 1018.05 1082.18 Q1016.24 1078.62 1012.61 1078.62 M1012.61 1074.91 Q1018.42 1074.91 1021.47 1079.52 Q1024.55 1084.1 1024.55 1092.85 Q1024.55 1101.58 1021.47 1106.19 Q1018.42 1110.77 1012.61 1110.77 Q1006.8 1110.77 1003.72 1106.19 Q1000.66 1101.58 1000.66 1092.85 Q1000.66 1084.1 1003.72 1079.52 Q1006.8 1074.91 1012.61 1074.91 Z" fill="#000000" fill-rule="nonzero" fill-opacity="1" /><path clip-path="url(#clip310)" d="M1036.8 1106.16 L1053.12 1106.16 L1053.12 1110.1 L1031.17 1110.1 L1031.17 1106.16 Q1033.83 1103.41 1038.42 1098.78 Q1043.02 1094.13 1044.2 1092.79 Q1046.45 1090.26 1047.33 1088.53 Q1048.23 1086.77 1048.23 1085.08 Q1048.23 1082.32 1046.29 1080.59 Q1044.37 1078.85 1041.26 1078.85 Q1039.07 1078.85 1036.61 1079.61 Q1034.18 1080.38 1031.4 1081.93 L1031.4 1077.21 Q1034.23 1076.07 1036.68 1075.49 Q1039.13 1074.91 1041.17 1074.91 Q1046.54 1074.91 1049.74 1077.6 Q1052.93 1080.29 1052.93 1084.78 Q1052.93 1086.91 1052.12 1088.83 Q1051.33 1090.72 1049.23 1093.32 Q1048.65 1093.99 1045.55 1097.21 Q1042.45 1100.4 1036.8 1106.16 Z" fill="#000000" fill-rule="nonzero" fill-opacity="1" /><path clip-path="url(#clip310)" d="M1063.74 1106.16 L1071.38 1106.16 L1071.38 1079.8 L1063.07 1081.47 L1063.07 1077.21 L1071.33 1075.54 L1076.01 1075.54 L1076.01 1106.16 L1083.65 1106.16 L1083.65 1110.1 L1063.74 1110.1 L1063.74 1106.16 Z" fill="#000000" fill-rule="nonzero" fill-opacity="1" /><path clip-path="url(#clip310)" d="M1090.34 1095.22 L1102.82 1095.22 L1102.82 1099.01 L1090.34 1099.01 L1090.34 1095.22 Z" fill="#000000" fill-rule="nonzero" fill-opacity="1" /><path clip-path="url(#clip310)" d="M1111.01 1106.16 L1118.65 1106.16 L1118.65 1079.8 L1110.34 1081.47 L1110.34 1077.21 L1118.6 1075.54 L1123.28 1075.54 L1123.28 1106.16 L1130.92 1106.16 L1130.92 1110.1 L1111.01 1110.1 L1111.01 1106.16 Z" fill="#000000" fill-rule="nonzero" fill-opacity="1" /><path clip-path="url(#clip310)" d="M1141.17 1106.16 L1148.81 1106.16 L1148.81 1079.8 L1140.5 1081.47 L1140.5 1077.21 L1148.76 1075.54 L1153.44 1075.54 L1153.44 1106.16 L1161.08 1106.16 L1161.08 1110.1 L1141.17 1110.1 L1141.17 1106.16 Z" fill="#000000" fill-rule="nonzero" fill-opacity="1" /><path clip-path="url(#clip310)" d="M1167.77 1095.22 L1180.25 1095.22 L1180.25 1099.01 L1167.77 1099.01 L1167.77 1095.22 Z" fill="#000000" fill-rule="nonzero" fill-opacity="1" /><path clip-path="url(#clip310)" d="M1197.63 1078.62 Q1194.02 1078.62 1192.19 1082.18 Q1190.38 1085.72 1190.38 1092.85 Q1190.38 1099.96 1192.19 1103.53 Q1194.02 1107.07 1197.63 1107.07 Q1201.26 1107.07 1203.07 1103.53 Q1204.9 1099.96 1204.9 1092.85 Q1204.9 1085.72 1203.07 1082.18 Q1201.26 1078.62 1197.63 1078.62 M1197.63 1074.91 Q1203.44 1074.91 1206.5 1079.52 Q1209.57 1084.1 1209.57 1092.85 Q1209.57 1101.58 1206.5 1106.19 Q1203.44 1110.77 1197.63 1110.77 Q1191.82 1110.77 1188.74 1106.19 Q1185.69 1101.58 1185.69 1092.85 Q1185.69 1084.1 1188.74 1079.52 Q1191.82 1074.91 1197.63 1074.91 Z" fill="#000000" fill-rule="nonzero" fill-opacity="1" /><path clip-path="url(#clip310)" d="M1218.6 1106.16 L1226.24 1106.16 L1226.24 1079.8 L1217.93 1081.47 L1217.93 1077.21 L1226.19 1075.54 L1230.87 1075.54 L1230.87 1106.16 L1238.51 1106.16 L1238.51 1110.1 L1218.6 1110.1 L1218.6 1106.16 Z" fill="#000000" fill-rule="nonzero" fill-opacity="1" /><path clip-path="url(#clip310)" d="M1666.27 1106.16 L1682.59 1106.16 L1682.59 1110.1 L1660.64 1110.1 L1660.64 1106.16 Q1663.31 1103.41 1667.89 1098.78 Q1672.5 1094.13 1673.68 1092.79 Q1675.92 1090.26 1676.8 1088.53 Q1677.7 1086.77 1677.7 1085.08 Q1677.7 1082.32 1675.76 1080.59 Q1673.84 1078.85 1670.74 1078.85 Q1668.54 1078.85 1666.08 1079.61 Q1663.65 1080.38 1660.88 1081.93 L1660.88 1077.21 Q1663.7 1076.07 1666.15 1075.49 Q1668.61 1074.91 1670.64 1074.91 Q1676.01 1074.91 1679.21 1077.6 Q1682.4 1080.29 1682.4 1084.78 Q1682.4 1086.91 1681.59 1088.83 Q1680.81 1090.72 1678.7 1093.32 Q1678.12 1093.99 1675.02 1097.21 Q1671.92 1100.4 1666.27 1106.16 Z" fill="#000000" fill-rule="nonzero" fill-opacity="1" /><path clip-path="url(#clip310)" d="M1702.4 1078.62 Q1698.79 1078.62 1696.96 1082.18 Q1695.16 1085.72 1695.16 1092.85 Q1695.16 1099.96 1696.96 1103.53 Q1698.79 1107.07 1702.4 1107.07 Q1706.04 1107.07 1707.84 1103.53 Q1709.67 1099.96 1709.67 1092.85 Q1709.67 1085.72 1707.84 1082.18 Q1706.04 1078.62 1702.4 1078.62 M1702.4 1074.91 Q1708.21 1074.91 1711.27 1079.52 Q1714.35 1084.1 1714.35 1092.85 Q1714.35 1101.58 1711.27 1106.19 Q1708.21 1110.77 1702.4 1110.77 Q1696.59 1110.77 1693.51 1106.19 Q1690.46 1101.58 1690.46 1092.85 Q1690.46 1084.1 1693.51 1079.52 Q1696.59 1074.91 1702.4 1074.91 Z" fill="#000000" fill-rule="nonzero" fill-opacity="1" /><path clip-path="url(#clip310)" d="M1726.59 1106.16 L1742.91 1106.16 L1742.91 1110.1 L1720.97 1110.1 L1720.97 1106.16 Q1723.63 1103.41 1728.21 1098.78 Q1732.82 1094.13 1734 1092.79 Q1736.25 1090.26 1737.12 1088.53 Q1738.03 1086.77 1738.03 1085.08 Q1738.03 1082.32 1736.08 1080.59 Q1734.16 1078.85 1731.06 1078.85 Q1728.86 1078.85 1726.41 1079.61 Q1723.98 1080.38 1721.2 1081.93 L1721.2 1077.21 Q1724.02 1076.07 1726.48 1075.49 Q1728.93 1074.91 1730.97 1074.91 Q1736.34 1074.91 1739.53 1077.6 Q1742.73 1080.29 1742.73 1084.78 Q1742.73 1086.91 1741.92 1088.83 Q1741.13 1090.72 1739.02 1093.32 Q1738.44 1093.99 1735.34 1097.21 Q1732.24 1100.4 1726.59 1106.16 Z" fill="#000000" fill-rule="nonzero" fill-opacity="1" /><path clip-path="url(#clip310)" d="M1756.75 1106.16 L1773.07 1106.16 L1773.07 1110.1 L1751.13 1110.1 L1751.13 1106.16 Q1753.79 1103.41 1758.37 1098.78 Q1762.98 1094.13 1764.16 1092.79 Q1766.41 1090.26 1767.29 1088.53 Q1768.19 1086.77 1768.19 1085.08 Q1768.19 1082.32 1766.24 1080.59 Q1764.32 1078.85 1761.22 1078.85 Q1759.02 1078.85 1756.57 1079.61 Q1754.14 1080.38 1751.36 1081.93 L1751.36 1077.21 Q1754.18 1076.07 1756.64 1075.49 Q1759.09 1074.91 1761.13 1074.91 Q1766.5 1074.91 1769.69 1077.6 Q1772.89 1080.29 1772.89 1084.78 Q1772.89 1086.91 1772.08 1088.83 Q1771.29 1090.72 1769.18 1093.32 Q1768.61 1093.99 1765.5 1097.21 Q1762.4 1100.4 1756.75 1106.16 Z" fill="#000000" fill-rule="nonzero" fill-opacity="1" /><path clip-path="url(#clip310)" d="M1780.13 1095.22 L1792.61 1095.22 L1792.61 1099.01 L1780.13 1099.01 L1780.13 1095.22 Z" fill="#000000" fill-rule="nonzero" fill-opacity="1" /><path clip-path="url(#clip310)" d="M1809.99 1078.62 Q1806.38 1078.62 1804.55 1082.18 Q1802.75 1085.72 1802.75 1092.85 Q1802.75 1099.96 1804.55 1103.53 Q1806.38 1107.07 1809.99 1107.07 Q1813.63 1107.07 1815.43 1103.53 Q1817.26 1099.96 1817.26 1092.85 Q1817.26 1085.72 1815.43 1082.18 Q1813.63 1078.62 1809.99 1078.62 M1809.99 1074.91 Q1815.8 1074.91 1818.86 1079.52 Q1821.94 1084.1 1821.94 1092.85 Q1821.94 1101.58 1818.86 1106.19 Q1815.8 1110.77 1809.99 1110.77 Q1804.18 1110.77 1801.11 1106.19 Q1798.05 1101.58 1798.05 1092.85 Q1798.05 1084.1 1801.11 1079.52 Q1804.18 1074.91 1809.99 1074.91 Z" fill="#000000" fill-rule="nonzero" fill-opacity="1" /><path clip-path="url(#clip310)" d="M1830.97 1106.16 L1838.61 1106.16 L1838.61 1079.8 L1830.3 1081.47 L1830.3 1077.21 L1838.56 1075.54 L1843.24 1075.54 L1843.24 1106.16 L1850.87 1106.16 L1850.87 1110.1 L1830.97 1110.1 L1830.97 1106.16 Z" fill="#000000" fill-rule="nonzero" fill-opacity="1" /><path clip-path="url(#clip310)" d="M1857.56 1095.22 L1870.04 1095.22 L1870.04 1099.01 L1857.56 1099.01 L1857.56 1095.22 Z" fill="#000000" fill-rule="nonzero" fill-opacity="1" /><path clip-path="url(#clip310)" d="M1887.42 1078.62 Q1883.81 1078.62 1881.99 1082.18 Q1880.18 1085.72 1880.18 1092.85 Q1880.18 1099.96 1881.99 1103.53 Q1883.81 1107.07 1887.42 1107.07 Q1891.06 1107.07 1892.86 1103.53 Q1894.69 1099.96 1894.69 1092.85 Q1894.69 1085.72 1892.86 1082.18 Q1891.06 1078.62 1887.42 1078.62 M1887.42 1074.91 Q1893.23 1074.91 1896.29 1079.52 Q1899.37 1084.1 1899.37 1092.85 Q1899.37 1101.58 1896.29 1106.19 Q1893.23 1110.77 1887.42 1110.77 Q1881.61 1110.77 1878.54 1106.19 Q1875.48 1101.58 1875.48 1092.85 Q1875.48 1084.1 1878.54 1079.52 Q1881.61 1074.91 1887.42 1074.91 Z" fill="#000000" fill-rule="nonzero" fill-opacity="1" /><path clip-path="url(#clip310)" d="M1908.4 1106.16 L1916.04 1106.16 L1916.04 1079.8 L1907.73 1081.47 L1907.73 1077.21 L1915.99 1075.54 L1920.67 1075.54 L1920.67 1106.16 L1928.3 1106.16 L1928.3 1110.1 L1908.4 1110.1 L1908.4 1106.16 Z" fill="#000000" fill-rule="nonzero" fill-opacity="1" /><path clip-path="url(#clip310)" d="M1213.42 1150.33 L1213.42 1187.28 L1221.18 1187.28 Q1231.02 1187.28 1235.57 1182.82 Q1240.15 1178.37 1240.15 1168.76 Q1240.15 1159.21 1235.57 1154.78 Q1231.02 1150.33 1221.18 1150.33 L1213.42 1150.33 M1206.99 1145.04 L1220.2 1145.04 Q1234.01 1145.04 1240.47 1150.8 Q1246.93 1156.53 1246.93 1168.76 Q1246.93 1181.04 1240.44 1186.8 Q1233.95 1192.56 1220.2 1192.56 L1206.99 1192.56 L1206.99 1145.04 Z" fill="#000000" fill-rule="nonzero" fill-opacity="1" /><path clip-path="url(#clip310)" d="M1273.13 1174.64 Q1266.03 1174.64 1263.29 1176.27 Q1260.55 1177.89 1260.55 1181.81 Q1260.55 1184.92 1262.59 1186.77 Q1264.66 1188.59 1268.19 1188.59 Q1273.06 1188.59 1275.99 1185.15 Q1278.95 1181.68 1278.95 1175.95 L1278.95 1174.64 L1273.13 1174.64 M1284.81 1172.23 L1284.81 1192.56 L1278.95 1192.56 L1278.95 1187.15 Q1276.95 1190.4 1273.95 1191.96 Q1270.96 1193.49 1266.63 1193.49 Q1261.16 1193.49 1257.91 1190.43 Q1254.7 1187.34 1254.7 1182.19 Q1254.7 1176.17 1258.71 1173.12 Q1262.75 1170.06 1270.74 1170.06 L1278.95 1170.06 L1278.95 1169.49 Q1278.95 1165.45 1276.28 1163.25 Q1273.64 1161.02 1268.83 1161.02 Q1265.77 1161.02 1262.88 1161.75 Q1259.98 1162.49 1257.31 1163.95 L1257.31 1158.54 Q1260.52 1157.3 1263.55 1156.69 Q1266.57 1156.06 1269.44 1156.06 Q1277.17 1156.06 1280.99 1160.07 Q1284.81 1164.08 1284.81 1172.23 Z" fill="#000000" fill-rule="nonzero" fill-opacity="1" /><path clip-path="url(#clip310)" d="M1302.66 1146.79 L1302.66 1156.92 L1314.73 1156.92 L1314.73 1161.47 L1302.66 1161.47 L1302.66 1180.82 Q1302.66 1185.18 1303.84 1186.42 Q1305.05 1187.66 1308.71 1187.66 L1314.73 1187.66 L1314.73 1192.56 L1308.71 1192.56 Q1301.93 1192.56 1299.35 1190.05 Q1296.78 1187.5 1296.78 1180.82 L1296.78 1161.47 L1292.48 1161.47 L1292.48 1156.92 L1296.78 1156.92 L1296.78 1146.79 L1302.66 1146.79 Z" fill="#000000" fill-rule="nonzero" fill-opacity="1" /><path clip-path="url(#clip310)" d="M1352.92 1173.28 L1352.92 1176.14 L1325.99 1176.14 Q1326.38 1182.19 1329.62 1185.37 Q1332.9 1188.52 1338.73 1188.52 Q1342.1 1188.52 1345.25 1187.69 Q1348.43 1186.87 1351.55 1185.21 L1351.55 1190.75 Q1348.4 1192.09 1345.09 1192.79 Q1341.78 1193.49 1338.38 1193.49 Q1329.85 1193.49 1324.85 1188.52 Q1319.88 1183.56 1319.88 1175.09 Q1319.88 1166.34 1324.59 1161.21 Q1329.34 1156.06 1337.36 1156.06 Q1344.55 1156.06 1348.72 1160.7 Q1352.92 1165.32 1352.92 1173.28 M1347.06 1171.56 Q1347 1166.75 1344.36 1163.89 Q1341.75 1161.02 1337.42 1161.02 Q1332.52 1161.02 1329.56 1163.79 Q1326.63 1166.56 1326.19 1171.59 L1347.06 1171.56 Z" fill="#000000" fill-rule="nonzero" fill-opacity="1" /><polyline clip-path="url(#clip312)" style="stroke:#000000; stroke-linecap:round; stroke-linejoin:round; stroke-width:2; stroke-opacity:0.1; fill:none" points="207.153,950.803 2352.76,950.803 "/>
<polyline clip-path="url(#clip312)" style="stroke:#000000; stroke-linecap:round; stroke-linejoin:round; stroke-width:2; stroke-opacity:0.1; fill:none" points="207.153,787.511 2352.76,787.511 "/>
<polyline clip-path="url(#clip312)" style="stroke:#000000; stroke-linecap:round; stroke-linejoin:round; stroke-width:2; stroke-opacity:0.1; fill:none" points="207.153,624.219 2352.76,624.219 "/>
<polyline clip-path="url(#clip312)" style="stroke:#000000; stroke-linecap:round; stroke-linejoin:round; stroke-width:2; stroke-opacity:0.1; fill:none" points="207.153,460.927 2352.76,460.927 "/>
<polyline clip-path="url(#clip312)" style="stroke:#000000; stroke-linecap:round; stroke-linejoin:round; stroke-width:2; stroke-opacity:0.1; fill:none" points="207.153,297.636 2352.76,297.636 "/>
<polyline clip-path="url(#clip312)" style="stroke:#000000; stroke-linecap:round; stroke-linejoin:round; stroke-width:2; stroke-opacity:0.1; fill:none" points="207.153,134.344 2352.76,134.344 "/>
<polyline clip-path="url(#clip310)" style="stroke:#000000; stroke-linecap:round; stroke-linejoin:round; stroke-width:4; stroke-opacity:1; fill:none" points="207.153,1047.7 207.153,47.2441 "/>
<polyline clip-path="url(#clip310)" style="stroke:#000000; stroke-linecap:round; stroke-linejoin:round; stroke-width:4; stroke-opacity:1; fill:none" points="207.153,950.803 226.051,950.803 "/>
<polyline clip-path="url(#clip310)" style="stroke:#000000; stroke-linecap:round; stroke-linejoin:round; stroke-width:4; stroke-opacity:1; fill:none" points="207.153,787.511 226.051,787.511 "/>
<polyline clip-path="url(#clip310)" style="stroke:#000000; stroke-linecap:round; stroke-linejoin:round; stroke-width:4; stroke-opacity:1; fill:none" points="207.153,624.219 226.051,624.219 "/>
<polyline clip-path="url(#clip310)" style="stroke:#000000; stroke-linecap:round; stroke-linejoin:round; stroke-width:4; stroke-opacity:1; fill:none" points="207.153,460.927 226.051,460.927 "/>
<polyline clip-path="url(#clip310)" style="stroke:#000000; stroke-linecap:round; stroke-linejoin:round; stroke-width:4; stroke-opacity:1; fill:none" points="207.153,297.636 226.051,297.636 "/>
<polyline clip-path="url(#clip310)" style="stroke:#000000; stroke-linecap:round; stroke-linejoin:round; stroke-width:4; stroke-opacity:1; fill:none" points="207.153,134.344 226.051,134.344 "/>
<path clip-path="url(#clip310)" d="M114.973 936.601 Q111.362 936.601 109.533 940.166 Q107.727 943.708 107.727 950.837 Q107.727 957.944 109.533 961.508 Q111.362 965.05 114.973 965.05 Q118.607 965.05 120.412 961.508 Q122.241 957.944 122.241 950.837 Q122.241 943.708 120.412 940.166 Q118.607 936.601 114.973 936.601 M114.973 932.898 Q120.783 932.898 123.838 937.504 Q126.917 942.087 126.917 950.837 Q126.917 959.564 123.838 964.171 Q120.783 968.754 114.973 968.754 Q109.163 968.754 106.084 964.171 Q103.028 959.564 103.028 950.837 Q103.028 942.087 106.084 937.504 Q109.163 932.898 114.973 932.898 Z" fill="#000000" fill-rule="nonzero" fill-opacity="1" /><path clip-path="url(#clip310)" d="M135.135 962.203 L140.019 962.203 L140.019 968.083 L135.135 968.083 L135.135 962.203 Z" fill="#000000" fill-rule="nonzero" fill-opacity="1" /><path clip-path="url(#clip310)" d="M150.25 933.523 L168.607 933.523 L168.607 937.458 L154.533 937.458 L154.533 945.93 Q155.551 945.583 156.57 945.421 Q157.588 945.235 158.607 945.235 Q164.394 945.235 167.773 948.407 Q171.153 951.578 171.153 956.995 Q171.153 962.573 167.681 965.675 Q164.209 968.754 157.889 968.754 Q155.713 968.754 153.445 968.383 Q151.199 968.013 148.792 967.272 L148.792 962.573 Q150.875 963.708 153.097 964.263 Q155.32 964.819 157.797 964.819 Q161.801 964.819 164.139 962.712 Q166.477 960.606 166.477 956.995 Q166.477 953.384 164.139 951.277 Q161.801 949.171 157.797 949.171 Q155.922 949.171 154.047 949.587 Q152.195 950.004 150.25 950.884 L150.25 933.523 Z" fill="#000000" fill-rule="nonzero" fill-opacity="1" /><path clip-path="url(#clip310)" d="M104.788 800.856 L112.426 800.856 L112.426 774.49 L104.116 776.157 L104.116 771.897 L112.38 770.231 L117.056 770.231 L117.056 800.856 L124.695 800.856 L124.695 804.791 L104.788 804.791 L104.788 800.856 Z" fill="#000000" fill-rule="nonzero" fill-opacity="1" /><path clip-path="url(#clip310)" d="M134.139 798.911 L139.023 798.911 L139.023 804.791 L134.139 804.791 L134.139 798.911 Z" fill="#000000" fill-rule="nonzero" fill-opacity="1" /><path clip-path="url(#clip310)" d="M159.209 773.309 Q155.597 773.309 153.769 776.874 Q151.963 780.416 151.963 787.546 Q151.963 794.652 153.769 798.217 Q155.597 801.758 159.209 801.758 Q162.843 801.758 164.648 798.217 Q166.477 794.652 166.477 787.546 Q166.477 780.416 164.648 776.874 Q162.843 773.309 159.209 773.309 M159.209 769.606 Q165.019 769.606 168.074 774.212 Q171.153 778.796 171.153 787.546 Q171.153 796.272 168.074 800.879 Q165.019 805.462 159.209 805.462 Q153.398 805.462 150.32 800.879 Q147.264 796.272 147.264 787.546 Q147.264 778.796 150.32 774.212 Q153.398 769.606 159.209 769.606 Z" fill="#000000" fill-rule="nonzero" fill-opacity="1" /><path clip-path="url(#clip310)" d="M105.783 637.564 L113.422 637.564 L113.422 611.198 L105.112 612.865 L105.112 608.606 L113.375 606.939 L118.051 606.939 L118.051 637.564 L125.69 637.564 L125.69 641.499 L105.783 641.499 L105.783 637.564 Z" fill="#000000" fill-rule="nonzero" fill-opacity="1" /><path clip-path="url(#clip310)" d="M135.135 635.619 L140.019 635.619 L140.019 641.499 L135.135 641.499 L135.135 635.619 Z" fill="#000000" fill-rule="nonzero" fill-opacity="1" /><path clip-path="url(#clip310)" d="M150.25 606.939 L168.607 606.939 L168.607 610.874 L154.533 610.874 L154.533 619.346 Q155.551 618.999 156.57 618.837 Q157.588 618.652 158.607 618.652 Q164.394 618.652 167.773 621.823 Q171.153 624.995 171.153 630.411 Q171.153 635.99 167.681 639.092 Q164.209 642.17 157.889 642.17 Q155.713 642.17 153.445 641.8 Q151.199 641.43 148.792 640.689 L148.792 635.99 Q150.875 637.124 153.097 637.68 Q155.32 638.235 157.797 638.235 Q161.801 638.235 164.139 636.129 Q166.477 634.022 166.477 630.411 Q166.477 626.8 164.139 624.694 Q161.801 622.587 157.797 622.587 Q155.922 622.587 154.047 623.004 Q152.195 623.42 150.25 624.3 L150.25 606.939 Z" fill="#000000" fill-rule="nonzero" fill-opacity="1" /><path clip-path="url(#clip310)" d="M108.005 474.272 L124.324 474.272 L124.324 478.207 L102.38 478.207 L102.38 474.272 Q105.042 471.518 109.625 466.888 Q114.232 462.235 115.412 460.893 Q117.658 458.369 118.537 456.633 Q119.44 454.874 119.44 453.184 Q119.44 450.43 117.496 448.694 Q115.575 446.958 112.473 446.958 Q110.274 446.958 107.82 447.721 Q105.389 448.485 102.612 450.036 L102.612 445.314 Q105.436 444.18 107.889 443.601 Q110.343 443.022 112.38 443.022 Q117.75 443.022 120.945 445.708 Q124.139 448.393 124.139 452.883 Q124.139 455.013 123.329 456.934 Q122.542 458.832 120.436 461.425 Q119.857 462.096 116.755 465.314 Q113.653 468.508 108.005 474.272 Z" fill="#000000" fill-rule="nonzero" fill-opacity="1" /><path clip-path="url(#clip310)" d="M134.139 472.328 L139.023 472.328 L139.023 478.207 L134.139 478.207 L134.139 472.328 Z" fill="#000000" fill-rule="nonzero" fill-opacity="1" /><path clip-path="url(#clip310)" d="M159.209 446.726 Q155.597 446.726 153.769 450.291 Q151.963 453.832 151.963 460.962 Q151.963 468.069 153.769 471.633 Q155.597 475.175 159.209 475.175 Q162.843 475.175 164.648 471.633 Q166.477 468.069 166.477 460.962 Q166.477 453.832 164.648 450.291 Q162.843 446.726 159.209 446.726 M159.209 443.022 Q165.019 443.022 168.074 447.629 Q171.153 452.212 171.153 460.962 Q171.153 469.689 168.074 474.295 Q165.019 478.879 159.209 478.879 Q153.398 478.879 150.32 474.295 Q147.264 469.689 147.264 460.962 Q147.264 452.212 150.32 447.629 Q153.398 443.022 159.209 443.022 Z" fill="#000000" fill-rule="nonzero" fill-opacity="1" /><path clip-path="url(#clip310)" d="M109 310.98 L125.32 310.98 L125.32 314.916 L103.376 314.916 L103.376 310.98 Q106.038 308.226 110.621 303.596 Q115.227 298.943 116.408 297.601 Q118.653 295.078 119.533 293.342 Q120.436 291.582 120.436 289.893 Q120.436 287.138 118.491 285.402 Q116.57 283.666 113.468 283.666 Q111.269 283.666 108.815 284.43 Q106.385 285.194 103.607 286.744 L103.607 282.022 Q106.431 280.888 108.885 280.309 Q111.338 279.731 113.375 279.731 Q118.746 279.731 121.94 282.416 Q125.135 285.101 125.135 289.592 Q125.135 291.721 124.324 293.643 Q123.537 295.541 121.431 298.133 Q120.852 298.805 117.75 302.022 Q114.649 305.217 109 310.98 Z" fill="#000000" fill-rule="nonzero" fill-opacity="1" /><path clip-path="url(#clip310)" d="M135.135 309.036 L140.019 309.036 L140.019 314.916 L135.135 314.916 L135.135 309.036 Z" fill="#000000" fill-rule="nonzero" fill-opacity="1" /><path clip-path="url(#clip310)" d="M150.25 280.356 L168.607 280.356 L168.607 284.291 L154.533 284.291 L154.533 292.763 Q155.551 292.416 156.57 292.254 Q157.588 292.069 158.607 292.069 Q164.394 292.069 167.773 295.24 Q171.153 298.411 171.153 303.828 Q171.153 309.406 167.681 312.508 Q164.209 315.587 157.889 315.587 Q155.713 315.587 153.445 315.217 Q151.199 314.846 148.792 314.105 L148.792 309.406 Q150.875 310.541 153.097 311.096 Q155.32 311.652 157.797 311.652 Q161.801 311.652 164.139 309.545 Q166.477 307.439 166.477 303.828 Q166.477 300.217 164.139 298.11 Q161.801 296.004 157.797 296.004 Q155.922 296.004 154.047 296.42 Q152.195 296.837 150.25 297.717 L150.25 280.356 Z" fill="#000000" fill-rule="nonzero" fill-opacity="1" /><path clip-path="url(#clip310)" d="M118.144 132.99 Q121.5 133.707 123.375 135.976 Q125.274 138.244 125.274 141.578 Q125.274 146.693 121.755 149.494 Q118.237 152.295 111.755 152.295 Q109.579 152.295 107.264 151.855 Q104.973 151.439 102.519 150.582 L102.519 146.068 Q104.463 147.203 106.778 147.781 Q109.093 148.36 111.616 148.36 Q116.014 148.36 118.306 146.624 Q120.621 144.888 120.621 141.578 Q120.621 138.522 118.468 136.809 Q116.338 135.073 112.519 135.073 L108.491 135.073 L108.491 131.23 L112.704 131.23 Q116.153 131.23 117.982 129.865 Q119.811 128.476 119.811 125.883 Q119.811 123.221 117.912 121.809 Q116.037 120.374 112.519 120.374 Q110.598 120.374 108.399 120.791 Q106.2 121.207 103.561 122.087 L103.561 117.92 Q106.223 117.18 108.538 116.809 Q110.875 116.439 112.936 116.439 Q118.26 116.439 121.362 118.869 Q124.463 121.277 124.463 125.397 Q124.463 128.268 122.82 130.258 Q121.176 132.226 118.144 132.99 Z" fill="#000000" fill-rule="nonzero" fill-opacity="1" /><path clip-path="url(#clip310)" d="M134.139 145.744 L139.023 145.744 L139.023 151.624 L134.139 151.624 L134.139 145.744 Z" fill="#000000" fill-rule="nonzero" fill-opacity="1" /><path clip-path="url(#clip310)" d="M159.209 120.143 Q155.597 120.143 153.769 123.707 Q151.963 127.249 151.963 134.379 Q151.963 141.485 153.769 145.05 Q155.597 148.592 159.209 148.592 Q162.843 148.592 164.648 145.05 Q166.477 141.485 166.477 134.379 Q166.477 127.249 164.648 123.707 Q162.843 120.143 159.209 120.143 M159.209 116.439 Q165.019 116.439 168.074 121.045 Q171.153 125.629 171.153 134.379 Q171.153 143.105 168.074 147.712 Q165.019 152.295 159.209 152.295 Q153.398 152.295 150.32 147.712 Q147.264 143.105 147.264 134.379 Q147.264 125.629 150.32 121.045 Q153.398 116.439 159.209 116.439 Z" fill="#000000" fill-rule="nonzero" fill-opacity="1" /><path clip-path="url(#clip310)" d="M29.8442 875.545 Q30.5444 873.476 32.8361 871.534 Q35.1277 869.561 39.1381 867.587 L52.1242 861.063 L52.1242 867.969 L39.9338 874.049 Q35.1595 876.404 33.6 878.632 Q32.0404 880.828 32.0404 884.648 L32.0404 891.65 L52.1242 891.65 L52.1242 898.079 L4.60416 898.079 L4.60416 883.565 Q4.60416 875.417 8.00981 871.407 Q11.4155 867.396 18.2904 867.396 Q22.7782 867.396 25.7383 869.497 Q28.6984 871.566 29.8442 875.545 M9.88769 891.65 L26.7568 891.65 L26.7568 883.565 Q26.7568 878.918 24.6243 876.563 Q22.46 874.176 18.2904 874.176 Q14.1209 874.176 12.0202 876.563 Q9.88769 878.918 9.88769 883.565 L9.88769 891.65 Z" fill="#000000" fill-rule="nonzero" fill-opacity="1" /><path clip-path="url(#clip310)" d="M32.8361 825.478 L35.7006 825.478 L35.7006 852.405 Q41.7481 852.023 44.9309 848.777 Q48.0819 845.498 48.0819 839.674 Q48.0819 836.3 47.2544 833.149 Q46.4269 829.966 44.7718 826.847 L50.3099 826.847 Q51.6467 829.998 52.347 833.308 Q53.0472 836.618 53.0472 840.024 Q53.0472 848.554 48.0819 853.551 Q43.1167 858.516 34.6503 858.516 Q25.8974 858.516 20.7731 853.806 Q15.6168 849.063 15.6168 841.042 Q15.6168 833.849 20.2638 829.68 Q24.8789 825.478 32.8361 825.478 M31.1173 831.335 Q26.3112 831.398 23.4466 834.04 Q20.5821 836.65 20.5821 840.979 Q20.5821 845.88 23.3512 848.84 Q26.1202 851.769 31.1492 852.214 L31.1173 831.335 Z" fill="#000000" fill-rule="nonzero" fill-opacity="1" /><path clip-path="url(#clip310)" d="M46.777 810.201 L65.6831 810.201 L65.6831 816.089 L16.4762 816.089 L16.4762 810.201 L21.8871 810.201 Q18.7042 808.355 17.1764 805.554 Q15.6168 802.721 15.6168 798.806 Q15.6168 792.313 20.7731 788.271 Q25.9293 784.197 34.332 784.197 Q42.7347 784.197 47.891 788.271 Q53.0472 792.313 53.0472 798.806 Q53.0472 802.721 51.5194 805.554 Q49.9598 808.355 46.777 810.201 M34.332 790.276 Q27.8708 790.276 24.2105 792.95 Q20.5184 795.591 20.5184 800.238 Q20.5184 804.885 24.2105 807.559 Q27.8708 810.201 34.332 810.201 Q40.7932 810.201 44.4853 807.559 Q48.1456 804.885 48.1456 800.238 Q48.1456 795.591 44.4853 792.95 Q40.7932 790.276 34.332 790.276 Z" fill="#000000" fill-rule="nonzero" fill-opacity="1" /><path clip-path="url(#clip310)" d="M21.9507 753.832 Q21.3778 754.819 21.1232 755.997 Q20.8367 757.142 20.8367 758.543 Q20.8367 763.508 24.0832 766.182 Q27.2979 768.824 33.3453 768.824 L52.1242 768.824 L52.1242 774.712 L16.4762 774.712 L16.4762 768.824 L22.0144 768.824 Q18.7679 766.977 17.2083 764.017 Q15.6168 761.057 15.6168 756.824 Q15.6168 756.219 15.7123 755.487 Q15.776 754.755 15.9351 753.864 L21.9507 753.832 Z" fill="#000000" fill-rule="nonzero" fill-opacity="1" /><path clip-path="url(#clip310)" d="M20.5821 735.308 Q20.5821 740.019 24.2742 742.756 Q27.9345 745.493 34.332 745.493 Q40.7295 745.493 44.4217 742.788 Q48.0819 740.051 48.0819 735.308 Q48.0819 730.629 44.3898 727.892 Q40.6977 725.155 34.332 725.155 Q27.9981 725.155 24.306 727.892 Q20.5821 730.629 20.5821 735.308 M15.6168 735.308 Q15.6168 727.669 20.5821 723.309 Q25.5473 718.948 34.332 718.948 Q43.0849 718.948 48.0819 723.309 Q53.0472 727.669 53.0472 735.308 Q53.0472 742.979 48.0819 747.339 Q43.0849 751.668 34.332 751.668 Q25.5473 751.668 20.5821 747.339 Q15.6168 742.979 15.6168 735.308 Z" fill="#000000" fill-rule="nonzero" fill-opacity="1" /><path clip-path="url(#clip310)" d="M21.8871 685.783 L2.59896 685.783 L2.59896 679.926 L52.1242 679.926 L52.1242 685.783 L46.777 685.783 Q49.9598 687.629 51.5194 690.462 Q53.0472 693.263 53.0472 697.209 Q53.0472 703.67 47.891 707.745 Q42.7347 711.787 34.332 711.787 Q25.9293 711.787 20.7731 707.745 Q15.6168 703.67 15.6168 697.209 Q15.6168 693.263 17.1764 690.462 Q18.7042 687.629 21.8871 685.783 M34.332 705.739 Q40.7932 705.739 44.4853 703.098 Q48.1456 700.424 48.1456 695.777 Q48.1456 691.13 44.4853 688.456 Q40.7932 685.783 34.332 685.783 Q27.8708 685.783 24.2105 688.456 Q20.5184 691.13 20.5184 695.777 Q20.5184 700.424 24.2105 703.098 Q27.8708 705.739 34.332 705.739 Z" fill="#000000" fill-rule="nonzero" fill-opacity="1" /><path clip-path="url(#clip310)" d="M38.0559 668.468 L16.4762 668.468 L16.4762 662.612 L37.8331 662.612 Q42.8939 662.612 45.4402 660.638 Q47.9546 658.665 47.9546 654.718 Q47.9546 649.976 44.9309 647.239 Q41.9072 644.469 36.6873 644.469 L16.4762 644.469 L16.4762 638.613 L52.1242 638.613 L52.1242 644.469 L46.6496 644.469 Q49.8962 646.602 51.4876 649.435 Q53.0472 652.236 53.0472 655.96 Q53.0472 662.102 49.2278 665.285 Q45.4083 668.468 38.0559 668.468 M15.6168 653.732 L15.6168 653.732 Z" fill="#000000" fill-rule="nonzero" fill-opacity="1" /><path clip-path="url(#clip310)" d="M17.8448 600.896 L23.3193 600.896 Q21.9507 603.379 21.2823 605.893 Q20.5821 608.376 20.5821 610.922 Q20.5821 616.619 24.2105 619.77 Q27.8072 622.922 34.332 622.922 Q40.8569 622.922 44.4853 619.77 Q48.0819 616.619 48.0819 610.922 Q48.0819 608.376 47.4135 605.893 Q46.7133 603.379 45.3447 600.896 L50.7555 600.896 Q51.9014 603.347 52.4743 605.989 Q53.0472 608.599 53.0472 611.559 Q53.0472 619.611 47.9864 624.354 Q42.9257 629.096 34.332 629.096 Q25.611 629.096 20.6139 624.322 Q15.6168 619.516 15.6168 611.177 Q15.6168 608.471 16.1897 605.893 Q16.7308 603.315 17.8448 600.896 Z" fill="#000000" fill-rule="nonzero" fill-opacity="1" /><path clip-path="url(#clip310)" d="M6.35473 584.918 L16.4762 584.918 L16.4762 572.855 L21.0277 572.855 L21.0277 584.918 L40.3794 584.918 Q44.7399 584.918 45.9813 583.741 Q47.2226 582.531 47.2226 578.871 L47.2226 572.855 L52.1242 572.855 L52.1242 578.871 Q52.1242 585.65 49.6097 588.228 Q47.0634 590.807 40.3794 590.807 L21.0277 590.807 L21.0277 595.103 L16.4762 595.103 L16.4762 590.807 L6.35473 590.807 L6.35473 584.918 Z" fill="#000000" fill-rule="nonzero" fill-opacity="1" /><path clip-path="url(#clip310)" d="M16.4762 565.153 L16.4762 559.296 L52.1242 559.296 L52.1242 565.153 L16.4762 565.153 M2.59896 565.153 L2.59896 559.296 L10.015 559.296 L10.015 565.153 L2.59896 565.153 Z" fill="#000000" fill-rule="nonzero" fill-opacity="1" /><path clip-path="url(#clip310)" d="M20.5821 533.229 Q20.5821 537.939 24.2742 540.677 Q27.9345 543.414 34.332 543.414 Q40.7295 543.414 44.4217 540.708 Q48.0819 537.971 48.0819 533.229 Q48.0819 528.55 44.3898 525.813 Q40.6977 523.075 34.332 523.075 Q27.9981 523.075 24.306 525.813 Q20.5821 528.55 20.5821 533.229 M15.6168 533.229 Q15.6168 525.59 20.5821 521.229 Q25.5473 516.869 34.332 516.869 Q43.0849 516.869 48.0819 521.229 Q53.0472 525.59 53.0472 533.229 Q53.0472 540.899 48.0819 545.26 Q43.0849 549.589 34.332 549.589 Q25.5473 549.589 20.5821 545.26 Q15.6168 540.899 15.6168 533.229 Z" fill="#000000" fill-rule="nonzero" fill-opacity="1" /><path clip-path="url(#clip310)" d="M30.6081 477.529 L52.1242 477.529 L52.1242 483.385 L30.799 483.385 Q25.7383 483.385 23.2238 485.359 Q20.7094 487.332 20.7094 491.279 Q20.7094 496.021 23.7331 498.758 Q26.7568 501.496 31.9767 501.496 L52.1242 501.496 L52.1242 507.384 L16.4762 507.384 L16.4762 501.496 L22.0144 501.496 Q18.7997 499.395 17.2083 496.562 Q15.6168 493.698 15.6168 489.974 Q15.6168 483.831 19.4363 480.68 Q23.2238 477.529 30.6081 477.529 Z" fill="#000000" fill-rule="nonzero" fill-opacity="1" /><path clip-path="url(#clip310)" d="M30.6081 415.495 L52.1242 415.495 L52.1242 421.351 L30.799 421.351 Q25.7383 421.351 23.2238 423.325 Q20.7094 425.298 20.7094 429.245 Q20.7094 433.987 23.7331 436.725 Q26.7568 439.462 31.9767 439.462 L52.1242 439.462 L52.1242 445.35 L16.4762 445.35 L16.4762 439.462 L22.0144 439.462 Q18.7997 437.361 17.2083 434.528 Q15.6168 431.664 15.6168 427.94 Q15.6168 421.797 19.4363 418.646 Q23.2238 415.495 30.6081 415.495 Z" fill="#000000" fill-rule="nonzero" fill-opacity="1" /><path clip-path="url(#clip310)" d="M38.0559 404.419 L16.4762 404.419 L16.4762 398.562 L37.8331 398.562 Q42.8939 398.562 45.4402 396.589 Q47.9546 394.615 47.9546 390.669 Q47.9546 385.926 44.9309 383.189 Q41.9072 380.42 36.6873 380.42 L16.4762 380.42 L16.4762 374.563 L52.1242 374.563 L52.1242 380.42 L46.6496 380.42 Q49.8962 382.552 51.4876 385.385 Q53.0472 388.186 53.0472 391.91 Q53.0472 398.053 49.2278 401.236 Q45.4083 404.419 38.0559 404.419 M15.6168 389.682 L15.6168 389.682 Z" fill="#000000" fill-rule="nonzero" fill-opacity="1" /><path clip-path="url(#clip310)" d="M23.3193 334.746 Q19.3726 332.55 17.4947 329.494 Q15.6168 326.439 15.6168 322.301 Q15.6168 316.731 19.5317 313.707 Q23.4148 310.684 30.6081 310.684 L52.1242 310.684 L52.1242 316.572 L30.799 316.572 Q25.6746 316.572 23.192 318.386 Q20.7094 320.2 20.7094 323.924 Q20.7094 328.476 23.7331 331.118 Q26.7568 333.759 31.9767 333.759 L52.1242 333.759 L52.1242 339.648 L30.799 339.648 Q25.6428 339.648 23.192 341.462 Q20.7094 343.276 20.7094 347.064 Q20.7094 351.551 23.7649 354.193 Q26.7886 356.835 31.9767 356.835 L52.1242 356.835 L52.1242 362.723 L16.4762 362.723 L16.4762 356.835 L22.0144 356.835 Q18.736 354.83 17.1764 352.029 Q15.6168 349.228 15.6168 345.377 Q15.6168 341.494 17.5902 338.788 Q19.5636 336.051 23.3193 334.746 Z" fill="#000000" fill-rule="nonzero" fill-opacity="1" /><path clip-path="url(#clip310)" d="M34.332 273.412 Q27.8708 273.412 24.2105 276.086 Q20.5184 278.728 20.5184 283.375 Q20.5184 288.022 24.2105 290.695 Q27.8708 293.337 34.332 293.337 Q40.7932 293.337 44.4853 290.695 Q48.1456 288.022 48.1456 283.375 Q48.1456 278.728 44.4853 276.086 Q40.7932 273.412 34.332 273.412 M21.8871 293.337 Q18.7042 291.491 17.1764 288.69 Q15.6168 285.857 15.6168 281.942 Q15.6168 275.449 20.7731 271.407 Q25.9293 267.333 34.332 267.333 Q42.7347 267.333 47.891 271.407 Q53.0472 275.449 53.0472 281.942 Q53.0472 285.857 51.5194 288.69 Q49.9598 291.491 46.777 293.337 L52.1242 293.337 L52.1242 299.225 L2.59896 299.225 L2.59896 293.337 L21.8871 293.337 Z" fill="#000000" fill-rule="nonzero" fill-opacity="1" /><path clip-path="url(#clip310)" d="M32.8361 227.134 L35.7006 227.134 L35.7006 254.061 Q41.7481 253.679 44.9309 250.432 Q48.0819 247.154 48.0819 241.329 Q48.0819 237.955 47.2544 234.804 Q46.4269 231.622 44.7718 228.502 L50.3099 228.502 Q51.6467 231.653 52.347 234.964 Q53.0472 238.274 53.0472 241.679 Q53.0472 250.209 48.0819 255.206 Q43.1167 260.172 34.6503 260.172 Q25.8974 260.172 20.7731 255.461 Q15.6168 250.719 15.6168 242.698 Q15.6168 235.505 20.2638 231.335 Q24.8789 227.134 32.8361 227.134 M31.1173 232.99 Q26.3112 233.054 23.4466 235.696 Q20.5821 238.306 20.5821 242.634 Q20.5821 247.536 23.3512 250.496 Q26.1202 253.424 31.1492 253.87 L31.1173 232.99 Z" fill="#000000" fill-rule="nonzero" fill-opacity="1" /><path clip-path="url(#clip310)" d="M21.9507 196.865 Q21.3778 197.851 21.1232 199.029 Q20.8367 200.175 20.8367 201.575 Q20.8367 206.541 24.0832 209.214 Q27.2979 211.856 33.3453 211.856 L52.1242 211.856 L52.1242 217.744 L16.4762 217.744 L16.4762 211.856 L22.0144 211.856 Q18.7679 210.01 17.2083 207.05 Q15.6168 204.09 15.6168 199.857 Q15.6168 199.252 15.7123 198.52 Q15.776 197.788 15.9351 196.897 L21.9507 196.865 Z" fill="#000000" fill-rule="nonzero" fill-opacity="1" /><path clip-path="url(#clip312)" d="M267.878 668.945 L279.186 623.261 L290.494 578.624 L301.802 528.234 L313.11 486.406 L324.418 476.821 L335.726 437.41 L347.034 419.3 L358.343 441.205 L369.651 480.506 L380.959 533.524 L392.267 593.766 L403.575 660.333 L414.883 722.409 L426.191 782.717 L437.499 835.328 L448.807 880.401 L460.116 918.045 L471.424 947.807 L482.732 969.142 L494.04 983.907 L505.348 993.347 L516.656 989.971 L527.964 981.404 L539.272 968.184 L550.581 952.565 L561.889 934.801 L573.197 925.038 L584.505 909.711 L595.813 899.031 L607.121 891.859 L618.429 880.236 L629.737 871.969 L641.046 867.254 L652.354 861.603 L663.662 856.977 L674.97 864.67 L686.278 872.873 L697.586 871.672 L708.894 860.736 L720.202 847.471 L731.511 817.782 L742.819 785.16 L754.127 761.485 L765.435 740.432 L776.743 729.48 L788.051 725.196 L799.359 717.538 L810.667 714.929 L821.976 714.44 L833.284 706.256 L844.592 700.618 L855.9 702.385 L867.208 691.413 L878.516 683.629 L889.824 684.604 L901.132 688.707 L912.44 688.782 L923.749 691.214 L935.057 690.057 L946.365 688.111 L957.673 677.041 L968.981 664.72 L980.289 658.381 L991.597 656.571 L1002.91 660.631 L1014.21 674.556 L1025.52 694.077 L1036.83 711.432 L1048.14 727.484 L1059.45 730.958 L1070.75 728.264 L1082.06 722.438 L1093.37 718.054 L1104.68 710.638 L1115.99 708.794 L1127.29 708.815 L1138.6 712.381 L1149.91 719.082 L1161.22 729.206 L1172.53 737.385 L1183.84 742.867 L1195.14 745.591 L1206.45 746.329 L1217.76 749.054 L1229.07 749.245 L1240.38 749.381 L1251.68 750.764 L1262.99 754.736 L1274.3 759.224 L1285.61 767.051 L1296.92 774.184 L1308.22 781.558 L1319.53 786.456 L1330.84 787.774 L1342.15 788.953 L1353.46 791.714 L1364.77 793.796 L1376.07 798.734 L1387.38 805.613 L1398.69 813.728 L1410 824.144 L1421.31 835.967 L1432.61 847.385 L1443.92 857.937 L1455.23 866.475 L1466.54 875.778 L1477.85 883.438 L1489.15 887.616 L1500.46 890.607 L1511.77 892.277 L1523.08 891.781 L1534.39 889.091 L1545.7 886.231 L1557 884.436 L1568.31 883.901 L1579.62 881.629 L1590.93 881.032 L1602.24 880.992 L1613.54 881.476 L1624.85 882.442 L1636.16 885.717 L1647.47 889.949 L1658.78 894.087 L1670.08 899.081 L1681.39 898.974 L1692.7 897.822 L1704.01 896.278 L1715.32 893.822 L1726.63 886.558 L1737.93 887.683 L1749.24 885.434 L1760.55 884.444 L1771.86 883.26 L1783.17 884.932 L1794.47 878.207 L1805.78 880.083 L1817.09 882.598 L1828.4 885.586 L1839.71 892.62 L1851.01 903.848 L1862.32 904.558 L1873.63 904.05 L1884.94 901.389 L1896.25 892.099 L1907.56 886.341 L1918.86 884.797 L1930.17 884.057 L1941.48 890.481 L1952.79 901.621 L1964.1 902.243 L1975.4 898.467 L1986.71 891.624 L1998.02 875.606 L2009.33 856.576 L2020.64 838.472 L2031.94 818.761 L2043.25 809.873 L2054.56 796.631 L2065.87 757.239 L2077.18 706.193 L2088.49 630.596 L2099.79 546.959 L2111.1 475.806 L2122.41 431.84 L2133.72 411.997 L2145.03 413.401 L2156.33 418.097 L2167.64 443.187 L2178.95 470.847 L2190.26 496.81 L2201.57 531.376 L2212.87 551.22 L2224.18 556.544 L2235.49 543.975 L2246.8 513.657 L2258.11 473.845 L2269.42 441.957 L2280.72 417.75 L2292.03 419.239 L2292.03 373.509 L2280.72 368.686 L2269.42 390.498 L2258.11 420.481 L2246.8 458.972 L2235.49 487.708 L2224.18 497.764 L2212.87 488.662 L2201.57 463.664 L2190.26 422.31 L2178.95 389.177 L2167.64 353.276 L2156.33 319.143 L2145.03 306.072 L2133.72 296.123 L2122.41 309.343 L2111.1 349.962 L2099.79 422.526 L2088.49 511.626 L2077.18 594.304 L2065.87 651.066 L2054.56 695.668 L2043.25 710.848 L2031.94 721.47 L2020.64 745.096 L2009.33 767.318 L1998.02 790.95 L1986.71 811.244 L1975.4 820.838 L1964.1 826.779 L1952.79 827.481 L1941.48 815.908 L1930.17 809.837 L1918.86 812.079 L1907.56 815.308 L1896.25 823.424 L1884.94 835.587 L1873.63 840.1 L1862.32 842.059 L1851.01 842.515 L1839.71 830.932 L1828.4 824.086 L1817.09 821.795 L1805.78 820.034 L1794.47 819.012 L1783.17 827.633 L1771.86 826.855 L1760.55 829.277 L1749.24 831.491 L1737.93 835.116 L1726.63 835.011 L1715.32 844.218 L1704.01 848.078 L1692.7 850.897 L1681.39 853.239 L1670.08 854.369 L1658.78 849.836 L1647.47 846.208 L1636.16 842.451 L1624.85 839.725 L1613.54 839.507 L1602.24 839.808 L1590.93 840.676 L1579.62 842.149 L1568.31 845.434 L1557 846.84 L1545.7 849.602 L1534.39 853.499 L1523.08 857.184 L1511.77 858.468 L1500.46 857.374 L1489.15 854.807 L1477.85 850.903 L1466.54 843.211 L1455.23 833.701 L1443.92 824.939 L1432.61 813.965 L1421.31 802.003 L1410 789.55 L1398.69 778.532 L1387.38 769.9 L1376.07 762.537 L1364.77 757.195 L1353.46 754.845 L1342.15 751.754 L1330.84 750.304 L1319.53 748.665 L1308.22 743.187 L1296.92 735.027 L1285.61 727.056 L1274.3 718.293 L1262.99 713.013 L1251.68 708.244 L1240.38 706.187 L1229.07 705.427 L1217.76 704.578 L1206.45 701.003 L1195.14 699.481 L1183.84 695.78 L1172.53 689.053 L1161.22 679.345 L1149.91 667.459 L1138.6 659.126 L1127.29 654.08 L1115.99 652.799 L1104.68 653.521 L1093.37 660.236 L1082.06 663.724 L1070.75 668.741 L1059.45 670.306 L1048.14 665.044 L1036.83 645.935 L1025.52 625.095 L1014.21 601.595 L1002.91 583.885 L991.597 576.701 L980.289 575.841 L968.981 579.948 L957.673 590.673 L946.365 600.088 L935.057 599.422 L923.749 597.77 L912.44 591.994 L901.132 588.677 L889.824 580.731 L878.516 576.19 L867.208 581.479 L855.9 590.412 L844.592 584.939 L833.284 587.852 L821.976 593.705 L810.667 590.775 L799.359 590.333 L788.051 595.902 L776.743 597.913 L765.435 608.253 L754.127 631.247 L742.819 658.345 L731.511 697.032 L720.202 733.048 L708.894 749.8 L697.586 763.858 L686.278 766.153 L674.97 757.098 L663.662 748.753 L652.354 755.326 L641.046 763.357 L629.737 770.537 L618.429 782.267 L607.121 798.318 L595.813 809.359 L584.505 824.889 L573.197 846.209 L561.889 861.073 L550.581 885.528 L539.272 907.345 L527.964 926.078 L516.656 938.93 L505.348 945.212 L494.04 936.001 L482.732 920.346 L471.424 896.912 L460.116 863.679 L448.807 821.325 L437.499 770.298 L426.191 710.317 L414.883 640.958 L403.575 568.405 L392.267 489.237 L380.959 414.895 L369.651 345.983 L358.343 289.448 L347.034 249.525 L335.726 252.586 L324.418 279.144 L313.11 260.429 L301.802 273.01 L290.494 287.489 L279.186 279.425 L267.878 237.931  Z" fill="#13643f" fill-rule="evenodd" fill-opacity="0.3"/>
<polyline clip-path="url(#clip312)" style="stroke:#13643f; stroke-linecap:round; stroke-linejoin:round; stroke-width:4; stroke-opacity:1; fill:none" points="267.878,471.306 279.186,462.548 290.494,440.826 301.802,406.3 313.11,377.695 324.418,381.271 335.726,347.747 347.034,336.699 358.343,367.228 369.651,414.84 380.959,475.568 392.267,542.68 403.575,615.413 414.883,682.631 426.191,747.398 437.499,803.653 448.807,851.683 460.116,891.681 471.424,923.196 482.732,945.616 494.04,960.878 505.348,970.273 516.656,965.532 527.964,954.927 539.272,939.069 550.581,920.478 561.889,899.5 573.197,887.314 584.505,869.112 595.813,856.117 607.121,847.111 618.429,833.361 629.737,823.437 641.046,817.551 652.354,810.762 663.662,805.204 674.97,813.257 686.278,821.918 697.586,820.205 708.894,807.747 720.202,792.773 731.511,759.947 742.819,724.298 754.127,698.886 765.435,676.807 776.743,666.079 788.051,662.834 799.359,656.115 810.667,654.922 821.976,656.035 833.284,648.912 844.592,644.536 855.9,648.057 867.208,638.011 878.516,631.384 889.824,634.053 901.132,639.993 912.44,641.61 923.749,645.641 935.057,645.821 946.365,645.118 957.673,634.817 968.981,623.237 980.289,617.957 991.597,617.428 1002.91,622.997 1014.21,638.766 1025.52,660.232 1036.83,679.292 1048.14,696.84 1059.45,701.181 1070.75,699.029 1082.06,693.586 1093.37,689.631 1104.68,682.545 1115.99,681.243 1127.29,681.875 1138.6,686.162 1149.91,693.661 1161.22,704.65 1172.53,713.579 1183.84,719.67 1195.14,722.871 1206.45,723.991 1217.76,727.131 1229.07,727.642 1240.38,728.082 1251.68,729.794 1262.99,734.157 1274.3,739.034 1285.61,747.322 1296.92,754.869 1308.22,762.631 1319.53,767.815 1330.84,769.29 1342.15,770.602 1353.46,773.526 1364.77,775.739 1376.07,780.878 1387.38,787.997 1398.69,796.37 1410,807.087 1421.31,819.226 1432.61,830.918 1443.92,841.684 1455.23,850.339 1466.54,859.752 1477.85,867.435 1489.15,871.485 1500.46,874.275 1511.77,875.668 1523.08,874.791 1534.39,871.617 1545.7,868.253 1557,865.989 1568.31,865.034 1579.62,862.27 1590.93,861.251 1602.24,860.813 1613.54,860.92 1624.85,861.529 1636.16,864.547 1647.47,868.559 1658.78,872.461 1670.08,877.245 1681.39,876.65 1692.7,874.927 1704.01,872.772 1715.32,869.641 1726.63,861.433 1737.93,862.075 1749.24,859.166 1760.55,857.592 1771.86,855.817 1783.17,857.07 1794.47,849.426 1805.78,850.903 1817.09,853.07 1828.4,855.739 1839.71,862.71 1851.01,874.148 1862.32,874.313 1873.63,873.122 1884.94,869.58 1896.25,858.901 1907.56,852.012 1918.86,849.671 1930.17,848.225 1941.48,854.516 1952.79,865.917 1964.1,865.927 1975.4,861.122 1986.71,852.961 1998.02,834.861 2009.33,813.582 2020.64,793.461 2031.94,771.821 2043.25,762.078 2054.56,747.866 2065.87,705.855 2077.18,651.919 2088.49,572.723 2099.79,486.263 2111.1,414.279 2122.41,371.838 2133.72,355.151 2145.03,360.679 2156.33,369.431 2167.64,398.928 2178.95,430.614 2190.26,460.083 2201.57,497.979 2212.87,520.348 2224.18,527.517 2235.49,516.168 2246.8,486.608 2258.11,447.426 2269.42,416.461 2280.72,393.424 2292.03,396.553 "/>
<path clip-path="url(#clip312)" d="M279.186 630.751 L290.494 581.763 L301.802 529.51 L313.11 487.054 L324.418 451.13 L335.726 434.801 L347.034 431.535 L358.343 460.927 L369.651 607.89 L380.959 702.599 L392.267 774.447 L403.575 843.03 L414.883 895.283 L426.191 934.473 L437.499 973.663 L448.807 999.79 L460.116 1009.59 L471.424 1016.12 L482.732 1019.39 L494.04 1016.12 L505.348 1006.32 L516.656 983.461 L527.964 944.271 L539.272 931.208 L550.581 924.676 L561.889 924.676 L573.197 947.537 L584.505 950.803 L595.813 911.613 L607.121 888.752 L618.429 869.157 L629.737 859.359 L641.046 888.752 L652.354 921.41 L663.662 927.942 L674.97 924.676 L686.278 944.271 L697.586 892.018 L708.894 813.637 L720.202 803.84 L731.511 787.511 L742.819 735.257 L754.127 751.587 L765.435 800.574 L776.743 780.979 L788.051 758.118 L799.359 758.118 L810.667 745.055 L821.976 725.46 L833.284 722.194 L844.592 741.789 L855.9 754.852 L867.208 718.928 L878.516 692.802 L889.824 715.662 L901.132 731.992 L912.44 728.726 L923.749 735.257 L935.057 741.789 L946.365 709.131 L957.673 660.143 L968.981 643.814 L980.289 666.675 L991.597 686.27 L1002.91 718.928 L1014.21 767.916 L1025.52 794.042 L1036.83 777.713 L1048.14 767.916 L1059.45 745.055 L1070.75 705.865 L1082.06 699.333 L1093.37 728.726 L1104.68 741.789 L1115.99 738.523 L1127.29 748.321 L1138.6 748.321 L1149.91 741.789 L1161.22 758.118 L1172.53 787.511 L1183.84 784.245 L1195.14 767.916 L1206.45 761.384 L1217.76 761.384 L1229.07 751.587 L1240.38 758.118 L1251.68 787.511 L1262.99 797.308 L1274.3 790.777 L1285.61 800.574 L1296.92 810.372 L1308.22 803.84 L1319.53 800.574 L1330.84 807.106 L1342.15 803.84 L1353.46 803.84 L1364.77 816.903 L1376.07 833.232 L1387.38 843.03 L1398.69 852.827 L1410 869.157 L1421.31 882.22 L1432.61 885.486 L1443.92 892.018 L1455.23 898.549 L1466.54 905.081 L1477.85 911.613 L1489.15 911.613 L1500.46 908.347 L1511.77 901.815 L1523.08 895.283 L1534.39 888.752 L1545.7 885.486 L1557 898.549 L1568.31 908.347 L1579.62 901.815 L1590.93 895.283 L1602.24 895.283 L1613.54 888.752 L1624.85 888.752 L1636.16 914.878 L1647.47 937.739 L1658.78 934.473 L1670.08 927.942 L1681.39 911.613 L1692.7 885.486 L1704.01 872.423 L1715.32 905.081 L1726.63 914.878 L1737.93 921.41 L1749.24 927.942 L1760.55 908.347 L1771.86 872.423 L1783.17 869.157 L1794.47 885.486 L1805.78 905.081 L1817.09 941.005 L1828.4 957.334 L1839.71 944.271 L1851.01 927.942 L1862.32 905.081 L1873.63 888.752 L1884.94 888.752 L1896.25 905.081 L1907.56 918.144 L1918.86 924.676 L1930.17 918.144 L1941.48 921.41 L1952.79 934.473 L1964.1 927.942 L1975.4 908.347 L1986.71 885.486 L1998.02 852.827 L2009.33 816.903 L2020.64 800.574 L2031.94 816.903 L2043.25 836.498 L2054.56 826.701 L2065.87 741.789 L2077.18 588.295 L2088.49 418.472 L2099.79 333.56 L2111.1 359.686 L2122.41 441.332 L2133.72 506.649 L2145.03 519.712 L2156.33 496.852 L2167.64 500.117 L2178.95 532.776 L2190.26 558.902 L2201.57 624.219 L2212.87 650.346 L2224.18 601.358 L2235.49 513.181 L2246.8 418.472 L2258.11 353.155 L2269.42 353.155 L2280.72 405.408 L2292.03 480.522 L2292.03 408.674 L2280.72 323.762 L2269.42 261.711 L2258.11 255.18 L2246.8 317.231 L2235.49 415.206 L2224.18 506.649 L2212.87 555.637 L2201.57 522.978 L2190.26 444.598 L2178.95 405.408 L2167.64 359.686 L2156.33 346.623 L2145.03 362.952 L2133.72 330.294 L2122.41 242.116 L2111.1 131.078 L2099.79 75.5589 L2088.49 153.939 L2077.18 327.028 L2065.87 522.978 L2054.56 663.409 L2043.25 673.207 L2031.94 643.814 L2020.64 627.485 L2009.33 630.751 L1998.02 692.802 L1986.71 735.257 L1975.4 761.384 L1964.1 800.574 L1952.79 810.372 L1941.48 794.042 L1930.17 794.042 L1918.86 800.574 L1907.56 794.042 L1896.25 777.713 L1884.94 761.384 L1873.63 758.118 L1862.32 780.979 L1851.01 810.372 L1839.71 839.764 L1828.4 856.093 L1817.09 833.232 L1805.78 797.308 L1794.47 771.182 L1783.17 754.852 L1771.86 754.852 L1760.55 807.106 L1749.24 833.232 L1737.93 829.967 L1726.63 820.169 L1715.32 803.84 L1704.01 774.447 L1692.7 784.245 L1681.39 826.701 L1670.08 846.296 L1658.78 856.093 L1647.47 859.359 L1636.16 833.232 L1624.85 810.372 L1613.54 810.372 L1602.24 820.169 L1590.93 820.169 L1579.62 829.967 L1568.31 836.498 L1557 826.701 L1545.7 813.637 L1534.39 816.903 L1523.08 829.967 L1511.77 836.498 L1500.46 843.03 L1489.15 849.562 L1477.85 852.827 L1466.54 843.03 L1455.23 839.764 L1443.92 833.232 L1432.61 826.701 L1421.31 823.435 L1410 810.372 L1398.69 790.777 L1387.38 777.713 L1376.07 767.916 L1364.77 751.587 L1353.46 738.523 L1342.15 738.523 L1330.84 738.523 L1319.53 731.992 L1308.22 735.257 L1296.92 741.789 L1285.61 731.992 L1274.3 722.194 L1262.99 725.46 L1251.68 712.397 L1240.38 679.738 L1229.07 673.207 L1217.76 679.738 L1206.45 679.738 L1195.14 683.004 L1183.84 702.599 L1172.53 702.599 L1161.22 669.941 L1149.91 650.346 L1138.6 656.877 L1127.29 656.877 L1115.99 640.548 L1104.68 643.814 L1093.37 624.219 L1082.06 588.295 L1070.75 591.561 L1059.45 634.017 L1048.14 660.143 L1036.83 669.941 L1025.52 683.004 L1014.21 650.346 L1002.91 594.827 L991.597 552.371 L980.289 519.712 L968.981 487.054 L957.673 500.117 L946.365 552.371 L935.057 588.295 L923.749 578.497 L912.44 562.168 L901.132 562.168 L889.824 532.776 L878.516 500.117 L867.208 529.51 L855.9 562.168 L844.592 539.307 L833.284 509.915 L821.976 506.649 L810.667 526.244 L799.359 532.776 L788.051 529.51 L776.743 552.371 L765.435 568.7 L754.127 500.117 L742.819 467.459 L731.511 532.776 L720.202 555.637 L708.894 565.434 L697.586 676.472 L686.278 754.852 L674.97 728.726 L663.662 735.257 L652.354 728.726 L641.046 679.738 L629.737 640.548 L618.429 656.877 L607.121 689.536 L595.813 722.194 L584.505 784.245 L573.197 780.979 L561.889 754.852 L550.581 758.118 L539.272 774.447 L527.964 800.574 L516.656 862.625 L505.348 901.815 L494.04 918.144 L482.732 931.208 L471.424 931.208 L460.116 927.942 L448.807 914.878 L437.499 882.22 L426.191 833.232 L414.883 784.245 L403.575 718.928 L392.267 630.751 L380.959 526.244 L369.651 366.218 L358.343 310.699 L347.034 264.977 L335.726 238.851 L324.418 225.787 L313.11 245.382 L301.802 264.977 L290.494 284.572 L279.186 278.041  Z" fill="#e26f46" fill-rule="evenodd" fill-opacity="0.3"/>
<polyline clip-path="url(#clip312)" style="stroke:#e26f46; stroke-linecap:round; stroke-linejoin:round; stroke-width:4; stroke-opacity:1; fill:none" points="279.186,465.365 290.494,441.942 301.802,405.414 313.11,374.57 324.418,348.201 335.726,342.916 347.034,351.118 358.343,384.115 369.651,463.408 380.959,620.733 392.267,705.306 403.575,784.382 414.883,843.405 426.191,886.477 437.499,929.829 448.807,959.051 460.116,972.066 471.424,978.088 482.732,980.497 494.04,970.715 505.348,959.648 516.656,926.999 527.964,879.015 539.272,858.492 550.581,847.392 561.889,846.81 573.197,871.456 584.505,876.163 595.813,825.396 607.121,797.677 618.429,772.015 629.737,758.515 641.046,791.883 652.354,834.771 663.662,840.811 674.97,836.037 686.278,857.059 697.586,793.339 708.894,699.371 720.202,689.212 731.511,668.288 742.819,609.213 754.127,633.506 765.435,692.908 776.743,674.997 788.051,650.953 799.359,652.261 810.667,642.382 821.976,623.312 833.284,621.925 844.592,646.294 855.9,663.68 867.208,629.245 878.516,601.072 889.824,628.545 901.132,651.422 912.44,648.886 923.749,661.158 935.057,668.47 946.365,633.923 957.673,583.52 968.981,568.811 980.289,594.923 991.597,621.697 1002.91,659.305 1014.21,711.697 1025.52,740.247 1036.83,727.06 1048.14,714.481 1059.45,691.31 1070.75,650.625 1082.06,646.345 1093.37,679.019 1104.68,694.217 1115.99,691.529 1127.29,703.685 1138.6,703.791 1149.91,696.157 1161.22,715.156 1172.53,745.892 1183.84,745.04 1195.14,726.89 1206.45,721.404 1217.76,721.549 1229.07,713.275 1240.38,720.681 1251.68,749.479 1262.99,761.675 1274.3,757.547 1285.61,766.777 1296.92,776.511 1308.22,769.567 1319.53,768.789 1330.84,773.735 1342.15,772.219 1353.46,772.855 1364.77,784.075 1376.07,801.051 1387.38,811.138 1398.69,822.355 1410,840.359 1421.31,852.521 1432.61,857.246 1443.92,864.161 1455.23,870.432 1466.54,875.055 1477.85,881.907 1489.15,882.091 1500.46,876.963 1511.77,870.411 1523.08,864.462 1534.39,854.881 1545.7,851.437 1557,862.397 1568.31,872.267 1579.62,866.454 1590.93,859.217 1602.24,857.724 1613.54,851.455 1624.85,851.253 1636.16,873.83 1647.47,899.064 1658.78,896.974 1670.08,890.498 1681.39,872.027 1692.7,839.49 1704.01,827.827 1715.32,854.941 1726.63,867.797 1737.93,878.246 1749.24,880.968 1760.55,862 1771.86,819.103 1783.17,815.506 1794.47,829.604 1805.78,852.195 1817.09,888.176 1828.4,907.089 1839.71,896.956 1851.01,874.25 1862.32,848.65 1873.63,827.976 1884.94,829.757 1896.25,843.834 1907.56,858.051 1918.86,865.43 1930.17,860.717 1941.48,861.988 1952.79,875.413 1964.1,868.693 1975.4,843.213 1986.71,816.946 1998.02,780.339 2009.33,733.196 2020.64,718.684 2031.94,733.721 2043.25,758.953 2054.56,749.362 2065.87,643.489 2077.18,459.488 2088.49,290.675 2099.79,208.261 2111.1,249.092 2122.41,343.516 2133.72,421.391 2145.03,443.755 2156.33,424.838 2167.64,432.236 2178.95,469.893 2190.26,503.836 2201.57,574.449 2212.87,605.415 2224.18,555.514 2235.49,465.472 2246.8,368.82 2258.11,306.04 2269.42,308.266 2280.72,364.612 2292.03,445.12 "/>
<path clip-path="url(#clip310)" d="M278.673 184.273 L1035.92 184.273 L1035.92 80.5926 L278.673 80.5926  Z" fill="#ffffff" fill-rule="evenodd" fill-opacity="1"/>
<polyline clip-path="url(#clip310)" style="stroke:#000000; stroke-linecap:round; stroke-linejoin:round; stroke-width:4; stroke-opacity:1; fill:none" points="278.673,184.273 1035.92,184.273 1035.92,80.5926 278.673,80.5926 278.673,184.273 "/>
<polyline clip-path="url(#clip310)" style="stroke:#e26f46; stroke-linecap:round; stroke-linejoin:round; stroke-width:4; stroke-opacity:1; fill:none" points="302.513,132.433 445.553,132.433 "/>
<path clip-path="url(#clip310)" d="M469.393 115.153 L476.361 115.153 L485.18 138.671 L494.046 115.153 L501.014 115.153 L501.014 149.713 L496.453 149.713 L496.453 119.366 L487.541 143.069 L482.842 143.069 L473.93 119.366 L473.93 149.713 L469.393 149.713 L469.393 115.153 Z" fill="#000000" fill-rule="nonzero" fill-opacity="1" /><path clip-path="url(#clip310)" d="M521.893 136.68 Q516.731 136.68 514.74 137.861 Q512.75 139.041 512.75 141.889 Q512.75 144.157 514.231 145.5 Q515.736 146.819 518.305 146.819 Q521.847 146.819 523.976 144.319 Q526.129 141.796 526.129 137.629 L526.129 136.68 L521.893 136.68 M530.388 134.921 L530.388 149.713 L526.129 149.713 L526.129 145.777 Q524.671 148.139 522.495 149.273 Q520.319 150.384 517.171 150.384 Q513.189 150.384 510.828 148.162 Q508.49 145.916 508.49 142.166 Q508.49 137.791 511.407 135.569 Q514.347 133.347 520.157 133.347 L526.129 133.347 L526.129 132.93 Q526.129 129.991 524.185 128.393 Q522.263 126.773 518.768 126.773 Q516.546 126.773 514.439 127.305 Q512.333 127.838 510.388 128.903 L510.388 124.967 Q512.726 124.065 514.925 123.625 Q517.125 123.162 519.208 123.162 Q524.833 123.162 527.611 126.078 Q530.388 128.995 530.388 134.921 Z" fill="#000000" fill-rule="nonzero" fill-opacity="1" /><path clip-path="url(#clip310)" d="M554.185 127.768 Q553.467 127.352 552.61 127.166 Q551.777 126.958 550.759 126.958 Q547.148 126.958 545.203 129.319 Q543.282 131.657 543.282 136.055 L543.282 149.713 L538.999 149.713 L538.999 123.787 L543.282 123.787 L543.282 127.815 Q544.624 125.453 546.777 124.319 Q548.93 123.162 552.009 123.162 Q552.448 123.162 552.981 123.231 Q553.513 123.278 554.161 123.393 L554.185 127.768 Z" fill="#000000" fill-rule="nonzero" fill-opacity="1" /><path clip-path="url(#clip310)" d="M574.879 136.449 Q574.879 131.819 572.958 129.273 Q571.059 126.727 567.61 126.727 Q564.184 126.727 562.263 129.273 Q560.365 131.819 560.365 136.449 Q560.365 141.055 562.263 143.602 Q564.184 146.148 567.61 146.148 Q571.059 146.148 572.958 143.602 Q574.879 141.055 574.879 136.449 M579.138 146.495 Q579.138 153.115 576.198 156.333 Q573.258 159.574 567.194 159.574 Q564.948 159.574 562.958 159.226 Q560.967 158.902 559.092 158.208 L559.092 154.064 Q560.967 155.083 562.796 155.569 Q564.624 156.055 566.522 156.055 Q570.712 156.055 572.796 153.856 Q574.879 151.68 574.879 147.259 L574.879 145.152 Q573.559 147.444 571.499 148.578 Q569.439 149.713 566.569 149.713 Q561.8 149.713 558.884 146.078 Q555.967 142.444 555.967 136.449 Q555.967 130.43 558.884 126.796 Q561.8 123.162 566.569 123.162 Q569.439 123.162 571.499 124.296 Q573.559 125.43 574.879 127.722 L574.879 123.787 L579.138 123.787 L579.138 146.495 Z" fill="#000000" fill-rule="nonzero" fill-opacity="1" /><path clip-path="url(#clip310)" d="M587.911 123.787 L592.17 123.787 L592.17 149.713 L587.911 149.713 L587.911 123.787 M587.911 113.694 L592.17 113.694 L592.17 119.088 L587.911 119.088 L587.911 113.694 Z" fill="#000000" fill-rule="nonzero" fill-opacity="1" /><path clip-path="url(#clip310)" d="M622.633 134.065 L622.633 149.713 L618.374 149.713 L618.374 134.203 Q618.374 130.523 616.939 128.694 Q615.504 126.866 612.633 126.866 Q609.184 126.866 607.193 129.065 Q605.203 131.264 605.203 135.06 L605.203 149.713 L600.92 149.713 L600.92 123.787 L605.203 123.787 L605.203 127.815 Q606.731 125.477 608.791 124.319 Q610.874 123.162 613.582 123.162 Q618.05 123.162 620.342 125.94 Q622.633 128.694 622.633 134.065 Z" fill="#000000" fill-rule="nonzero" fill-opacity="1" /><path clip-path="url(#clip310)" d="M642.911 136.68 Q637.749 136.68 635.758 137.861 Q633.767 139.041 633.767 141.889 Q633.767 144.157 635.249 145.5 Q636.754 146.819 639.323 146.819 Q642.865 146.819 644.994 144.319 Q647.147 141.796 647.147 137.629 L647.147 136.68 L642.911 136.68 M651.406 134.921 L651.406 149.713 L647.147 149.713 L647.147 145.777 Q645.689 148.139 643.513 149.273 Q641.337 150.384 638.189 150.384 Q634.207 150.384 631.846 148.162 Q629.508 145.916 629.508 142.166 Q629.508 137.791 632.425 135.569 Q635.365 133.347 641.175 133.347 L647.147 133.347 L647.147 132.93 Q647.147 129.991 645.203 128.393 Q643.281 126.773 639.786 126.773 Q637.564 126.773 635.457 127.305 Q633.351 127.838 631.406 128.903 L631.406 124.967 Q633.744 124.065 635.943 123.625 Q638.142 123.162 640.226 123.162 Q645.851 123.162 648.628 126.078 Q651.406 128.995 651.406 134.921 Z" fill="#000000" fill-rule="nonzero" fill-opacity="1" /><path clip-path="url(#clip310)" d="M660.179 113.694 L664.439 113.694 L664.439 149.713 L660.179 149.713 L660.179 113.694 Z" fill="#000000" fill-rule="nonzero" fill-opacity="1" /><path clip-path="url(#clip310)" d="M673.351 123.787 L677.61 123.787 L677.61 149.713 L673.351 149.713 L673.351 123.787 M673.351 113.694 L677.61 113.694 L677.61 119.088 L673.351 119.088 L673.351 113.694 Z" fill="#000000" fill-rule="nonzero" fill-opacity="1" /><path clip-path="url(#clip310)" d="M703.049 124.551 L703.049 128.578 Q701.244 127.653 699.299 127.19 Q697.355 126.727 695.272 126.727 Q692.1 126.727 690.503 127.699 Q688.929 128.671 688.929 130.615 Q688.929 132.097 690.063 132.953 Q691.198 133.787 694.624 134.551 L696.082 134.875 Q700.619 135.847 702.517 137.629 Q704.438 139.389 704.438 142.56 Q704.438 146.171 701.568 148.277 Q698.721 150.384 693.721 150.384 Q691.637 150.384 689.369 149.967 Q687.124 149.574 684.624 148.764 L684.624 144.365 Q686.985 145.592 689.276 146.217 Q691.568 146.819 693.813 146.819 Q696.823 146.819 698.443 145.801 Q700.063 144.759 700.063 142.884 Q700.063 141.148 698.883 140.222 Q697.725 139.296 693.767 138.44 L692.286 138.092 Q688.327 137.259 686.568 135.546 Q684.809 133.81 684.809 130.801 Q684.809 127.143 687.401 125.153 Q689.994 123.162 694.762 123.162 Q697.124 123.162 699.207 123.509 Q701.29 123.856 703.049 124.551 Z" fill="#000000" fill-rule="nonzero" fill-opacity="1" /><path clip-path="url(#clip310)" d="M733.397 135.685 L733.397 137.768 L713.813 137.768 Q714.091 142.166 716.452 144.481 Q718.836 146.773 723.072 146.773 Q725.526 146.773 727.818 146.171 Q730.133 145.569 732.401 144.365 L732.401 148.393 Q730.109 149.365 727.702 149.875 Q725.295 150.384 722.818 150.384 Q716.614 150.384 712.98 146.773 Q709.369 143.162 709.369 137.004 Q709.369 130.639 712.795 126.912 Q716.244 123.162 722.077 123.162 Q727.309 123.162 730.341 126.541 Q733.397 129.898 733.397 135.685 M729.137 134.435 Q729.091 130.94 727.17 128.856 Q725.272 126.773 722.123 126.773 Q718.559 126.773 716.406 128.787 Q714.276 130.801 713.952 134.458 L729.137 134.435 Z" fill="#000000" fill-rule="nonzero" fill-opacity="1" /><path clip-path="url(#clip310)" d="M757.447 127.722 L757.447 113.694 L761.707 113.694 L761.707 149.713 L757.447 149.713 L757.447 145.824 Q756.105 148.139 754.045 149.273 Q752.008 150.384 749.137 150.384 Q744.438 150.384 741.475 146.634 Q738.535 142.884 738.535 136.773 Q738.535 130.662 741.475 126.912 Q744.438 123.162 749.137 123.162 Q752.008 123.162 754.045 124.296 Q756.105 125.407 757.447 127.722 M742.934 136.773 Q742.934 141.472 744.855 144.157 Q746.799 146.819 750.179 146.819 Q753.558 146.819 755.503 144.157 Q757.447 141.472 757.447 136.773 Q757.447 132.074 755.503 129.412 Q753.558 126.727 750.179 126.727 Q746.799 126.727 744.855 129.412 Q742.934 132.074 742.934 136.773 Z" fill="#000000" fill-rule="nonzero" fill-opacity="1" /><path clip-path="url(#clip310)" d="M807.725 135.685 L807.725 137.768 L788.142 137.768 Q788.419 142.166 790.78 144.481 Q793.165 146.773 797.401 146.773 Q799.854 146.773 802.146 146.171 Q804.461 145.569 806.729 144.365 L806.729 148.393 Q804.438 149.365 802.03 149.875 Q799.623 150.384 797.146 150.384 Q790.943 150.384 787.308 146.773 Q783.697 143.162 783.697 137.004 Q783.697 130.639 787.123 126.912 Q790.572 123.162 796.405 123.162 Q801.637 123.162 804.669 126.541 Q807.725 129.898 807.725 135.685 M803.466 134.435 Q803.419 130.94 801.498 128.856 Q799.6 126.773 796.452 126.773 Q792.887 126.773 790.734 128.787 Q788.605 130.801 788.28 134.458 L803.466 134.435 Z" fill="#000000" fill-rule="nonzero" fill-opacity="1" /><path clip-path="url(#clip310)" d="M831.243 124.551 L831.243 128.578 Q829.438 127.653 827.493 127.19 Q825.549 126.727 823.465 126.727 Q820.294 126.727 818.697 127.699 Q817.123 128.671 817.123 130.615 Q817.123 132.097 818.257 132.953 Q819.391 133.787 822.817 134.551 L824.276 134.875 Q828.813 135.847 830.711 137.629 Q832.632 139.389 832.632 142.56 Q832.632 146.171 829.762 148.277 Q826.915 150.384 821.915 150.384 Q819.831 150.384 817.563 149.967 Q815.317 149.574 812.817 148.764 L812.817 144.365 Q815.178 145.592 817.47 146.217 Q819.762 146.819 822.007 146.819 Q825.016 146.819 826.637 145.801 Q828.257 144.759 828.257 142.884 Q828.257 141.148 827.077 140.222 Q825.919 139.296 821.961 138.44 L820.479 138.092 Q816.521 137.259 814.762 135.546 Q813.003 133.81 813.003 130.801 Q813.003 127.143 815.595 125.153 Q818.188 123.162 822.956 123.162 Q825.317 123.162 827.401 123.509 Q829.484 123.856 831.243 124.551 Z" fill="#000000" fill-rule="nonzero" fill-opacity="1" /><path clip-path="url(#clip310)" d="M843.627 116.426 L843.627 123.787 L852.401 123.787 L852.401 127.097 L843.627 127.097 L843.627 141.171 Q843.627 144.342 844.484 145.245 Q845.364 146.148 848.026 146.148 L852.401 146.148 L852.401 149.713 L848.026 149.713 Q843.095 149.713 841.22 147.884 Q839.345 146.032 839.345 141.171 L839.345 127.097 L836.22 127.097 L836.22 123.787 L839.345 123.787 L839.345 116.426 L843.627 116.426 Z" fill="#000000" fill-rule="nonzero" fill-opacity="1" /><path clip-path="url(#clip310)" d="M858.002 123.787 L862.262 123.787 L862.262 149.713 L858.002 149.713 L858.002 123.787 M858.002 113.694 L862.262 113.694 L862.262 119.088 L858.002 119.088 L858.002 113.694 Z" fill="#000000" fill-rule="nonzero" fill-opacity="1" /><path clip-path="url(#clip310)" d="M891.359 128.764 Q892.956 125.893 895.178 124.528 Q897.4 123.162 900.41 123.162 Q904.46 123.162 906.659 126.009 Q908.859 128.833 908.859 134.065 L908.859 149.713 L904.576 149.713 L904.576 134.203 Q904.576 130.477 903.257 128.671 Q901.937 126.866 899.229 126.866 Q895.919 126.866 893.998 129.065 Q892.076 131.264 892.076 135.06 L892.076 149.713 L887.794 149.713 L887.794 134.203 Q887.794 130.453 886.474 128.671 Q885.155 126.866 882.4 126.866 Q879.136 126.866 877.215 129.088 Q875.294 131.287 875.294 135.06 L875.294 149.713 L871.012 149.713 L871.012 123.787 L875.294 123.787 L875.294 127.815 Q876.752 125.43 878.789 124.296 Q880.826 123.162 883.627 123.162 Q886.451 123.162 888.419 124.597 Q890.41 126.032 891.359 128.764 Z" fill="#000000" fill-rule="nonzero" fill-opacity="1" /><path clip-path="url(#clip310)" d="M929.136 136.68 Q923.974 136.68 921.983 137.861 Q919.993 139.041 919.993 141.889 Q919.993 144.157 921.474 145.5 Q922.979 146.819 925.548 146.819 Q929.09 146.819 931.22 144.319 Q933.372 141.796 933.372 137.629 L933.372 136.68 L929.136 136.68 M937.632 134.921 L937.632 149.713 L933.372 149.713 L933.372 145.777 Q931.914 148.139 929.738 149.273 Q927.562 150.384 924.414 150.384 Q920.433 150.384 918.071 148.162 Q915.734 145.916 915.734 142.166 Q915.734 137.791 918.65 135.569 Q921.59 133.347 927.4 133.347 L933.372 133.347 L933.372 132.93 Q933.372 129.991 931.428 128.393 Q929.507 126.773 926.011 126.773 Q923.789 126.773 921.683 127.305 Q919.576 127.838 917.632 128.903 L917.632 124.967 Q919.97 124.065 922.169 123.625 Q924.368 123.162 926.451 123.162 Q932.076 123.162 934.854 126.078 Q937.632 128.995 937.632 134.921 Z" fill="#000000" fill-rule="nonzero" fill-opacity="1" /><path clip-path="url(#clip310)" d="M950.618 116.426 L950.618 123.787 L959.391 123.787 L959.391 127.097 L950.618 127.097 L950.618 141.171 Q950.618 144.342 951.474 145.245 Q952.354 146.148 955.016 146.148 L959.391 146.148 L959.391 149.713 L955.016 149.713 Q950.085 149.713 948.21 147.884 Q946.335 146.032 946.335 141.171 L946.335 127.097 L943.21 127.097 L943.21 123.787 L946.335 123.787 L946.335 116.426 L950.618 116.426 Z" fill="#000000" fill-rule="nonzero" fill-opacity="1" /><path clip-path="url(#clip310)" d="M987.168 135.685 L987.168 137.768 L967.585 137.768 Q967.863 142.166 970.224 144.481 Q972.608 146.773 976.844 146.773 Q979.298 146.773 981.59 146.171 Q983.904 145.569 986.173 144.365 L986.173 148.393 Q983.881 149.365 981.474 149.875 Q979.066 150.384 976.59 150.384 Q970.386 150.384 966.752 146.773 Q963.141 143.162 963.141 137.004 Q963.141 130.639 966.567 126.912 Q970.016 123.162 975.849 123.162 Q981.08 123.162 984.113 126.541 Q987.168 129.898 987.168 135.685 M982.909 134.435 Q982.863 130.94 980.941 128.856 Q979.043 126.773 975.895 126.773 Q972.33 126.773 970.178 128.787 Q968.048 130.801 967.724 134.458 L982.909 134.435 Z" fill="#000000" fill-rule="nonzero" fill-opacity="1" /><path clip-path="url(#clip310)" d="M1010.69 124.551 L1010.69 128.578 Q1008.88 127.653 1006.94 127.19 Q1004.99 126.727 1002.91 126.727 Q999.738 126.727 998.14 127.699 Q996.566 128.671 996.566 130.615 Q996.566 132.097 997.701 132.953 Q998.835 133.787 1002.26 134.551 L1003.72 134.875 Q1008.26 135.847 1010.15 137.629 Q1012.08 139.389 1012.08 142.56 Q1012.08 146.171 1009.21 148.277 Q1006.36 150.384 1001.36 150.384 Q999.275 150.384 997.006 149.967 Q994.761 149.574 992.261 148.764 L992.261 144.365 Q994.622 145.592 996.914 146.217 Q999.205 146.819 1001.45 146.819 Q1004.46 146.819 1006.08 145.801 Q1007.7 144.759 1007.7 142.884 Q1007.7 141.148 1006.52 140.222 Q1005.36 139.296 1001.4 138.44 L999.923 138.092 Q995.965 137.259 994.205 135.546 Q992.446 133.81 992.446 130.801 Q992.446 127.143 995.039 125.153 Q997.631 123.162 1002.4 123.162 Q1004.76 123.162 1006.84 123.509 Q1008.93 123.856 1010.69 124.551 Z" fill="#000000" fill-rule="nonzero" fill-opacity="1" /></svg>
