<?xml version="1.0" encoding="utf-8"?>
<svg xmlns="http://www.w3.org/2000/svg" xmlns:xlink="http://www.w3.org/1999/xlink" width="600" height="300" viewBox="0 0 2400 1200">
<defs>
  <clipPath id="clip820">
    <rect x="0" y="0" width="2400" height="1200"/>
  </clipPath>
</defs>
<path clip-path="url(#clip820)" d="M0 1200 L2400 1200 L2400 0 L0 0  Z" fill="#ffffff" fill-rule="evenodd" fill-opacity="1"/>
<defs>
  <clipPath id="clip821">
    <rect x="480" y="0" width="1681" height="1200"/>
  </clipPath>
</defs>
<path clip-path="url(#clip820)" d="M207.986 1047.7 L2352.76 1047.7 L2352.76 47.2441 L207.986 47.2441  Z" fill="#ffffff" fill-rule="evenodd" fill-opacity="1"/>
<defs>
  <clipPath id="clip822">
    <rect x="207" y="47" width="2146" height="1001"/>
  </clipPath>
</defs>
<polyline clip-path="url(#clip822)" style="stroke:#000000; stroke-linecap:round; stroke-linejoin:round; stroke-width:2; stroke-opacity:0.1; fill:none" points="287.519,1047.7 287.519,47.2441 "/>
<polyline clip-path="url(#clip822)" style="stroke:#000000; stroke-linecap:round; stroke-linejoin:round; stroke-width:2; stroke-opacity:0.1; fill:none" points="928.069,1047.7 928.069,47.2441 "/>
<polyline clip-path="url(#clip822)" style="stroke:#000000; stroke-linecap:round; stroke-linejoin:round; stroke-width:2; stroke-opacity:0.1; fill:none" points="1568.62,1047.7 1568.62,47.2441 "/>
<polyline clip-path="url(#clip822)" style="stroke:#000000; stroke-linecap:round; stroke-linejoin:round; stroke-width:2; stroke-opacity:0.1; fill:none" points="2209.17,1047.7 2209.17,47.2441 "/>
<polyline clip-path="url(#clip820)" style="stroke:#000000; stroke-linecap:round; stroke-linejoin:round; stroke-width:4; stroke-opacity:1; fill:none" points="207.986,1047.7 2352.76,1047.7 "/>
<polyline clip-path="url(#clip820)" style="stroke:#000000; stroke-linecap:round; stroke-linejoin:round; stroke-width:4; stroke-opacity:1; fill:none" points="287.519,1047.7 287.519,1028.8 "/>
<polyline clip-path="url(#clip820)" style="stroke:#000000; stroke-linecap:round; stroke-linejoin:round; stroke-width:4; stroke-opacity:1; fill:none" points="928.069,1047.7 928.069,1028.8 "/>
<polyline clip-path="url(#clip820)" style="stroke:#000000; stroke-linecap:round; stroke-linejoin:round; stroke-width:4; stroke-opacity:1; fill:none" points="1568.62,1047.7 1568.62,1028.8 "/>
<polyline clip-path="url(#clip820)" style="stroke:#000000; stroke-linecap:round; stroke-linejoin:round; stroke-width:4; stroke-opacity:1; fill:none" points="2209.17,1047.7 2209.17,1028.8 "/>
<path clip-path="url(#clip820)" d="M287.519 1078.62 Q283.908 1078.62 282.08 1082.18 Q280.274 1085.72 280.274 1092.85 Q280.274 1099.96 282.08 1103.53 Q283.908 1107.07 287.519 1107.07 Q291.154 1107.07 292.959 1103.53 Q294.788 1099.96 294.788 1092.85 Q294.788 1085.72 292.959 1082.18 Q291.154 1078.62 287.519 1078.62 M287.519 1074.91 Q293.33 1074.91 296.385 1079.52 Q299.464 1084.1 299.464 1092.85 Q299.464 1101.58 296.385 1106.19 Q293.33 1110.77 287.519 1110.77 Q281.709 1110.77 278.631 1106.19 Q275.575 1101.58 275.575 1092.85 Q275.575 1084.1 278.631 1079.52 Q281.709 1074.91 287.519 1074.91 Z" fill="#000000" fill-rule="nonzero" fill-opacity="1" /><path clip-path="url(#clip820)" d="M902.757 1106.16 L910.395 1106.16 L910.395 1079.8 L902.085 1081.47 L902.085 1077.21 L910.349 1075.54 L915.025 1075.54 L915.025 1106.16 L922.664 1106.16 L922.664 1110.1 L902.757 1110.1 L902.757 1106.16 Z" fill="#000000" fill-rule="nonzero" fill-opacity="1" /><path clip-path="url(#clip820)" d="M942.108 1078.62 Q938.497 1078.62 936.668 1082.18 Q934.863 1085.72 934.863 1092.85 Q934.863 1099.96 936.668 1103.53 Q938.497 1107.07 942.108 1107.07 Q945.742 1107.07 947.548 1103.53 Q949.377 1099.96 949.377 1092.85 Q949.377 1085.72 947.548 1082.18 Q945.742 1078.62 942.108 1078.62 M942.108 1074.91 Q947.918 1074.91 950.974 1079.52 Q954.053 1084.1 954.053 1092.85 Q954.053 1101.58 950.974 1106.19 Q947.918 1110.77 942.108 1110.77 Q936.298 1110.77 933.219 1106.19 Q930.164 1101.58 930.164 1092.85 Q930.164 1084.1 933.219 1079.52 Q936.298 1074.91 942.108 1074.91 Z" fill="#000000" fill-rule="nonzero" fill-opacity="1" /><path clip-path="url(#clip820)" d="M1547.39 1106.16 L1563.71 1106.16 L1563.71 1110.1 L1541.77 1110.1 L1541.77 1106.16 Q1544.43 1103.41 1549.01 1098.78 Q1553.62 1094.13 1554.8 1092.79 Q1557.04 1090.26 1557.92 1088.53 Q1558.83 1086.77 1558.83 1085.08 Q1558.83 1082.32 1556.88 1080.59 Q1554.96 1078.85 1551.86 1078.85 Q1549.66 1078.85 1547.21 1079.61 Q1544.78 1080.38 1542 1081.93 L1542 1077.21 Q1544.82 1076.07 1547.28 1075.49 Q1549.73 1074.91 1551.77 1074.91 Q1557.14 1074.91 1560.33 1077.6 Q1563.53 1080.29 1563.53 1084.78 Q1563.53 1086.91 1562.72 1088.83 Q1561.93 1090.72 1559.82 1093.32 Q1559.24 1093.99 1556.14 1097.21 Q1553.04 1100.4 1547.39 1106.16 Z" fill="#000000" fill-rule="nonzero" fill-opacity="1" /><path clip-path="url(#clip820)" d="M1583.53 1078.62 Q1579.91 1078.62 1578.09 1082.18 Q1576.28 1085.72 1576.28 1092.85 Q1576.28 1099.96 1578.09 1103.53 Q1579.91 1107.07 1583.53 1107.07 Q1587.16 1107.07 1588.97 1103.53 Q1590.79 1099.96 1590.79 1092.85 Q1590.79 1085.72 1588.97 1082.18 Q1587.16 1078.62 1583.53 1078.62 M1583.53 1074.91 Q1589.34 1074.91 1592.39 1079.52 Q1595.47 1084.1 1595.47 1092.85 Q1595.47 1101.58 1592.39 1106.19 Q1589.34 1110.77 1583.53 1110.77 Q1577.72 1110.77 1574.64 1106.19 Q1571.58 1101.58 1571.58 1092.85 Q1571.58 1084.1 1574.64 1079.52 Q1577.72 1074.91 1583.53 1074.91 Z" fill="#000000" fill-rule="nonzero" fill-opacity="1" /><path clip-path="url(#clip820)" d="M2198.01 1091.47 Q2201.37 1092.18 2203.24 1094.45 Q2205.14 1096.72 2205.14 1100.05 Q2205.14 1105.17 2201.62 1107.97 Q2198.1 1110.77 2191.62 1110.77 Q2189.45 1110.77 2187.13 1110.33 Q2184.84 1109.91 2182.39 1109.06 L2182.39 1104.54 Q2184.33 1105.68 2186.64 1106.26 Q2188.96 1106.84 2191.48 1106.84 Q2195.88 1106.84 2198.17 1105.1 Q2200.49 1103.36 2200.49 1100.05 Q2200.49 1097 2198.33 1095.29 Q2196.2 1093.55 2192.39 1093.55 L2188.36 1093.55 L2188.36 1089.71 L2192.57 1089.71 Q2196.02 1089.71 2197.85 1088.34 Q2199.68 1086.95 2199.68 1084.36 Q2199.68 1081.7 2197.78 1080.29 Q2195.9 1078.85 2192.39 1078.85 Q2190.46 1078.85 2188.27 1079.27 Q2186.07 1079.68 2183.43 1080.56 L2183.43 1076.4 Q2186.09 1075.66 2188.4 1075.29 Q2190.74 1074.91 2192.8 1074.91 Q2198.13 1074.91 2201.23 1077.35 Q2204.33 1079.75 2204.33 1083.87 Q2204.33 1086.74 2202.69 1088.73 Q2201.04 1090.7 2198.01 1091.47 Z" fill="#000000" fill-rule="nonzero" fill-opacity="1" /><path clip-path="url(#clip820)" d="M2224.01 1078.62 Q2220.39 1078.62 2218.57 1082.18 Q2216.76 1085.72 2216.76 1092.85 Q2216.76 1099.96 2218.57 1103.53 Q2220.39 1107.07 2224.01 1107.07 Q2227.64 1107.07 2229.45 1103.53 Q2231.27 1099.96 2231.27 1092.85 Q2231.27 1085.72 2229.45 1082.18 Q2227.64 1078.62 2224.01 1078.62 M2224.01 1074.91 Q2229.82 1074.91 2232.87 1079.52 Q2235.95 1084.1 2235.95 1092.85 Q2235.95 1101.58 2232.87 1106.19 Q2229.82 1110.77 2224.01 1110.77 Q2218.2 1110.77 2215.12 1106.19 Q2212.06 1101.58 2212.06 1092.85 Q2212.06 1084.1 2215.12 1079.52 Q2218.2 1074.91 2224.01 1074.91 Z" fill="#000000" fill-rule="nonzero" fill-opacity="1" /><path clip-path="url(#clip820)" d="M1264.55 1143.04 L1270.44 1143.04 L1270.44 1172.29 L1287.91 1156.92 L1295.39 1156.92 L1276.49 1173.59 L1296.19 1192.56 L1288.55 1192.56 L1270.44 1175.15 L1270.44 1192.56 L1264.55 1192.56 L1264.55 1143.04 Z" fill="#000000" fill-rule="nonzero" fill-opacity="1" /><polyline clip-path="url(#clip822)" style="stroke:#000000; stroke-linecap:round; stroke-linejoin:round; stroke-width:2; stroke-opacity:0.1; fill:none" points="207.986,1047.7 2352.76,1047.7 "/>
<polyline clip-path="url(#clip822)" style="stroke:#000000; stroke-linecap:round; stroke-linejoin:round; stroke-width:2; stroke-opacity:0.1; fill:none" points="207.986,847.609 2352.76,847.609 "/>
<polyline clip-path="url(#clip822)" style="stroke:#000000; stroke-linecap:round; stroke-linejoin:round; stroke-width:2; stroke-opacity:0.1; fill:none" points="207.986,647.518 2352.76,647.518 "/>
<polyline clip-path="url(#clip822)" style="stroke:#000000; stroke-linecap:round; stroke-linejoin:round; stroke-width:2; stroke-opacity:0.1; fill:none" points="207.986,447.426 2352.76,447.426 "/>
<polyline clip-path="url(#clip822)" style="stroke:#000000; stroke-linecap:round; stroke-linejoin:round; stroke-width:2; stroke-opacity:0.1; fill:none" points="207.986,247.335 2352.76,247.335 "/>
<polyline clip-path="url(#clip820)" style="stroke:#000000; stroke-linecap:round; stroke-linejoin:round; stroke-width:4; stroke-opacity:1; fill:none" points="207.986,1047.7 207.986,47.2441 "/>
<polyline clip-path="url(#clip820)" style="stroke:#000000; stroke-linecap:round; stroke-linejoin:round; stroke-width:4; stroke-opacity:1; fill:none" points="207.986,1047.7 226.884,1047.7 "/>
<polyline clip-path="url(#clip820)" style="stroke:#000000; stroke-linecap:round; stroke-linejoin:round; stroke-width:4; stroke-opacity:1; fill:none" points="207.986,847.609 226.884,847.609 "/>
<polyline clip-path="url(#clip820)" style="stroke:#000000; stroke-linecap:round; stroke-linejoin:round; stroke-width:4; stroke-opacity:1; fill:none" points="207.986,647.518 226.884,647.518 "/>
<polyline clip-path="url(#clip820)" style="stroke:#000000; stroke-linecap:round; stroke-linejoin:round; stroke-width:4; stroke-opacity:1; fill:none" points="207.986,447.426 226.884,447.426 "/>
<polyline clip-path="url(#clip820)" style="stroke:#000000; stroke-linecap:round; stroke-linejoin:round; stroke-width:4; stroke-opacity:1; fill:none" points="207.986,247.335 226.884,247.335 "/>
<path clip-path="url(#clip820)" d="M114.811 1033.5 Q111.2 1033.5 109.371 1037.06 Q107.565 1040.6 107.565 1047.73 Q107.565 1054.84 109.371 1058.41 Q111.2 1061.95 114.811 1061.95 Q118.445 1061.95 120.25 1058.41 Q122.079 1054.84 122.079 1047.73 Q122.079 1040.6 120.25 1037.06 Q118.445 1033.5 114.811 1033.5 M114.811 1029.79 Q120.621 1029.79 123.676 1034.4 Q126.755 1038.98 126.755 1047.73 Q126.755 1056.46 123.676 1061.07 Q120.621 1065.65 114.811 1065.65 Q109 1065.65 105.922 1061.07 Q102.866 1056.46 102.866 1047.73 Q102.866 1038.98 105.922 1034.4 Q109 1029.79 114.811 1029.79 Z" fill="#000000" fill-rule="nonzero" fill-opacity="1" /><path clip-path="url(#clip820)" d="M134.973 1059.1 L139.857 1059.1 L139.857 1064.98 L134.973 1064.98 L134.973 1059.1 Z" fill="#000000" fill-rule="nonzero" fill-opacity="1" /><path clip-path="url(#clip820)" d="M160.042 1033.5 Q156.431 1033.5 154.602 1037.06 Q152.797 1040.6 152.797 1047.73 Q152.797 1054.84 154.602 1058.41 Q156.431 1061.95 160.042 1061.95 Q163.676 1061.95 165.482 1058.41 Q167.31 1054.84 167.31 1047.73 Q167.31 1040.6 165.482 1037.06 Q163.676 1033.5 160.042 1033.5 M160.042 1029.79 Q165.852 1029.79 168.908 1034.4 Q171.986 1038.98 171.986 1047.73 Q171.986 1056.46 168.908 1061.07 Q165.852 1065.65 160.042 1065.65 Q154.232 1065.65 151.153 1061.07 Q148.098 1056.46 148.098 1047.73 Q148.098 1038.98 151.153 1034.4 Q154.232 1029.79 160.042 1029.79 Z" fill="#000000" fill-rule="nonzero" fill-opacity="1" /><path clip-path="url(#clip820)" d="M116.408 833.407 Q112.797 833.407 110.968 836.972 Q109.163 840.514 109.163 847.643 Q109.163 854.75 110.968 858.315 Q112.797 861.856 116.408 861.856 Q120.042 861.856 121.848 858.315 Q123.676 854.75 123.676 847.643 Q123.676 840.514 121.848 836.972 Q120.042 833.407 116.408 833.407 M116.408 829.704 Q122.218 829.704 125.274 834.31 Q128.352 838.893 128.352 847.643 Q128.352 856.37 125.274 860.977 Q122.218 865.56 116.408 865.56 Q110.598 865.56 107.519 860.977 Q104.463 856.37 104.463 847.643 Q104.463 838.893 107.519 834.31 Q110.598 829.704 116.408 829.704 Z" fill="#000000" fill-rule="nonzero" fill-opacity="1" /><path clip-path="url(#clip820)" d="M136.57 859.009 L141.454 859.009 L141.454 864.889 L136.57 864.889 L136.57 859.009 Z" fill="#000000" fill-rule="nonzero" fill-opacity="1" /><path clip-path="url(#clip820)" d="M155.667 860.954 L171.986 860.954 L171.986 864.889 L150.042 864.889 L150.042 860.954 Q152.704 858.199 157.287 853.569 Q161.894 848.917 163.074 847.574 Q165.32 845.051 166.199 843.315 Q167.102 841.555 167.102 839.866 Q167.102 837.111 165.158 835.375 Q163.236 833.639 160.134 833.639 Q157.935 833.639 155.482 834.403 Q153.051 835.167 150.273 836.718 L150.273 831.995 Q153.097 830.861 155.551 830.282 Q158.005 829.704 160.042 829.704 Q165.412 829.704 168.607 832.389 Q171.801 835.074 171.801 839.565 Q171.801 841.694 170.991 843.616 Q170.204 845.514 168.097 848.106 Q167.519 848.778 164.417 851.995 Q161.315 855.19 155.667 860.954 Z" fill="#000000" fill-rule="nonzero" fill-opacity="1" /><path clip-path="url(#clip820)" d="M114.325 633.316 Q110.713 633.316 108.885 636.881 Q107.079 640.423 107.079 647.552 Q107.079 654.659 108.885 658.224 Q110.713 661.765 114.325 661.765 Q117.959 661.765 119.764 658.224 Q121.593 654.659 121.593 647.552 Q121.593 640.423 119.764 636.881 Q117.959 633.316 114.325 633.316 M114.325 629.613 Q120.135 629.613 123.19 634.219 Q126.269 638.802 126.269 647.552 Q126.269 656.279 123.19 660.886 Q120.135 665.469 114.325 665.469 Q108.514 665.469 105.436 660.886 Q102.38 656.279 102.38 647.552 Q102.38 638.802 105.436 634.219 Q108.514 629.613 114.325 629.613 Z" fill="#000000" fill-rule="nonzero" fill-opacity="1" /><path clip-path="url(#clip820)" d="M134.486 658.918 L139.371 658.918 L139.371 664.798 L134.486 664.798 L134.486 658.918 Z" fill="#000000" fill-rule="nonzero" fill-opacity="1" /><path clip-path="url(#clip820)" d="M162.403 634.312 L150.597 652.761 L162.403 652.761 L162.403 634.312 M161.176 630.238 L167.056 630.238 L167.056 652.761 L171.986 652.761 L171.986 656.649 L167.056 656.649 L167.056 664.798 L162.403 664.798 L162.403 656.649 L146.801 656.649 L146.801 652.136 L161.176 630.238 Z" fill="#000000" fill-rule="nonzero" fill-opacity="1" /><path clip-path="url(#clip820)" d="M114.649 433.225 Q111.038 433.225 109.209 436.79 Q107.403 440.332 107.403 447.461 Q107.403 454.568 109.209 458.132 Q111.038 461.674 114.649 461.674 Q118.283 461.674 120.088 458.132 Q121.917 454.568 121.917 447.461 Q121.917 440.332 120.088 436.79 Q118.283 433.225 114.649 433.225 M114.649 429.521 Q120.459 429.521 123.514 434.128 Q126.593 438.711 126.593 447.461 Q126.593 456.188 123.514 460.794 Q120.459 465.378 114.649 465.378 Q108.838 465.378 105.76 460.794 Q102.704 456.188 102.704 447.461 Q102.704 438.711 105.76 434.128 Q108.838 429.521 114.649 429.521 Z" fill="#000000" fill-rule="nonzero" fill-opacity="1" /><path clip-path="url(#clip820)" d="M134.811 458.827 L139.695 458.827 L139.695 464.706 L134.811 464.706 L134.811 458.827 Z" fill="#000000" fill-rule="nonzero" fill-opacity="1" /><path clip-path="url(#clip820)" d="M160.459 445.563 Q157.31 445.563 155.459 447.716 Q153.63 449.869 153.63 453.618 Q153.63 457.345 155.459 459.521 Q157.31 461.674 160.459 461.674 Q163.607 461.674 165.435 459.521 Q167.287 457.345 167.287 453.618 Q167.287 449.869 165.435 447.716 Q163.607 445.563 160.459 445.563 M169.741 430.91 L169.741 435.17 Q167.982 434.336 166.176 433.896 Q164.394 433.457 162.634 433.457 Q158.005 433.457 155.551 436.582 Q153.121 439.707 152.773 446.026 Q154.139 444.012 156.199 442.947 Q158.259 441.859 160.736 441.859 Q165.945 441.859 168.954 445.031 Q171.986 448.179 171.986 453.618 Q171.986 458.943 168.838 462.16 Q165.69 465.378 160.459 465.378 Q154.463 465.378 151.292 460.794 Q148.121 456.188 148.121 447.461 Q148.121 439.267 152.01 434.406 Q155.898 429.521 162.449 429.521 Q164.209 429.521 165.991 429.869 Q167.796 430.216 169.741 430.91 Z" fill="#000000" fill-rule="nonzero" fill-opacity="1" /><path clip-path="url(#clip820)" d="M114.903 233.134 Q111.292 233.134 109.463 236.699 Q107.658 240.24 107.658 247.37 Q107.658 254.476 109.463 258.041 Q111.292 261.583 114.903 261.583 Q118.537 261.583 120.343 258.041 Q122.172 254.476 122.172 247.37 Q122.172 240.24 120.343 236.699 Q118.537 233.134 114.903 233.134 M114.903 229.43 Q120.713 229.43 123.769 234.037 Q126.848 238.62 126.848 247.37 Q126.848 256.097 123.769 260.703 Q120.713 265.287 114.903 265.287 Q109.093 265.287 106.014 260.703 Q102.959 256.097 102.959 247.37 Q102.959 238.62 106.014 234.037 Q109.093 229.43 114.903 229.43 Z" fill="#000000" fill-rule="nonzero" fill-opacity="1" /><path clip-path="url(#clip820)" d="M135.065 258.736 L139.949 258.736 L139.949 264.615 L135.065 264.615 L135.065 258.736 Z" fill="#000000" fill-rule="nonzero" fill-opacity="1" /><path clip-path="url(#clip820)" d="M160.134 248.203 Q156.801 248.203 154.88 249.986 Q152.982 251.768 152.982 254.893 Q152.982 258.018 154.88 259.8 Q156.801 261.583 160.134 261.583 Q163.468 261.583 165.389 259.8 Q167.31 257.995 167.31 254.893 Q167.31 251.768 165.389 249.986 Q163.491 248.203 160.134 248.203 M155.459 246.213 Q152.449 245.472 150.76 243.412 Q149.093 241.351 149.093 238.389 Q149.093 234.245 152.033 231.838 Q154.996 229.43 160.134 229.43 Q165.296 229.43 168.236 231.838 Q171.176 234.245 171.176 238.389 Q171.176 241.351 169.486 243.412 Q167.82 245.472 164.834 246.213 Q168.213 247 170.088 249.291 Q171.986 251.583 171.986 254.893 Q171.986 259.916 168.908 262.601 Q165.852 265.287 160.134 265.287 Q154.417 265.287 151.338 262.601 Q148.283 259.916 148.283 254.893 Q148.283 251.583 150.181 249.291 Q152.079 247 155.459 246.213 M153.746 238.828 Q153.746 241.514 155.412 243.018 Q157.102 244.523 160.134 244.523 Q163.144 244.523 164.834 243.018 Q166.546 241.514 166.546 238.828 Q166.546 236.143 164.834 234.639 Q163.144 233.134 160.134 233.134 Q157.102 233.134 155.412 234.639 Q153.746 236.143 153.746 238.828 Z" fill="#000000" fill-rule="nonzero" fill-opacity="1" /><path clip-path="url(#clip820)" d="M9.88769 865.168 L27.7435 865.168 L27.7435 857.084 Q27.7435 852.596 25.42 850.145 Q23.0965 847.695 18.7997 847.695 Q14.5347 847.695 12.2112 850.145 Q9.88769 852.596 9.88769 857.084 L9.88769 865.168 M4.60416 871.598 L4.60416 857.084 Q4.60416 849.095 8.23261 845.021 Q11.8292 840.915 18.7997 840.915 Q25.8338 840.915 29.4304 845.021 Q33.027 849.095 33.027 857.084 L33.027 865.168 L52.1242 865.168 L52.1242 871.598 L4.60416 871.598 Z" fill="#000000" fill-rule="nonzero" fill-opacity="1" /><path clip-path="url(#clip820)" d="M20.5821 821.054 Q20.5821 825.765 24.2742 828.502 Q27.9345 831.239 34.332 831.239 Q40.7295 831.239 44.4217 828.534 Q48.0819 825.797 48.0819 821.054 Q48.0819 816.375 44.3898 813.638 Q40.6977 810.901 34.332 810.901 Q27.9981 810.901 24.306 813.638 Q20.5821 816.375 20.5821 821.054 M15.6168 821.054 Q15.6168 813.415 20.5821 809.055 Q25.5473 804.694 34.332 804.694 Q43.0849 804.694 48.0819 809.055 Q53.0472 813.415 53.0472 821.054 Q53.0472 828.725 48.0819 833.085 Q43.0849 837.414 34.332 837.414 Q25.5473 837.414 20.5821 833.085 Q15.6168 828.725 15.6168 821.054 Z" fill="#000000" fill-rule="nonzero" fill-opacity="1" /><path clip-path="url(#clip820)" d="M17.5265 772.261 L23.0647 772.261 Q21.7916 774.744 21.155 777.417 Q20.5184 780.091 20.5184 782.955 Q20.5184 787.316 21.8552 789.512 Q23.192 791.676 25.8656 791.676 Q27.9026 791.676 29.0803 790.117 Q30.2261 788.557 31.2765 783.847 L31.7221 781.841 Q33.0589 775.603 35.5097 772.993 Q37.9286 770.351 42.2891 770.351 Q47.2544 770.351 50.1508 774.298 Q53.0472 778.213 53.0472 785.088 Q53.0472 787.952 52.4743 791.072 Q51.9332 794.159 50.8192 797.596 L44.7718 797.596 Q46.4587 794.35 47.318 791.199 Q48.1456 788.048 48.1456 784.961 Q48.1456 780.823 46.7451 778.595 Q45.3129 776.367 42.7347 776.367 Q40.3476 776.367 39.0745 777.99 Q37.8013 779.582 36.6237 785.024 L36.1462 787.061 Q35.0004 792.504 32.6451 794.923 Q30.258 797.342 26.1202 797.342 Q21.0913 797.342 18.3541 793.777 Q15.6168 790.212 15.6168 783.656 Q15.6168 780.409 16.0943 777.545 Q16.5717 774.68 17.5265 772.261 Z" fill="#000000" fill-rule="nonzero" fill-opacity="1" /><path clip-path="url(#clip820)" d="M6.35473 755.233 L16.4762 755.233 L16.4762 743.17 L21.0277 743.17 L21.0277 755.233 L40.3794 755.233 Q44.7399 755.233 45.9813 754.055 Q47.2226 752.846 47.2226 749.185 L47.2226 743.17 L52.1242 743.17 L52.1242 749.185 Q52.1242 755.965 49.6097 758.543 Q47.0634 761.121 40.3794 761.121 L21.0277 761.121 L21.0277 765.418 L16.4762 765.418 L16.4762 761.121 L6.35473 761.121 L6.35473 755.233 Z" fill="#000000" fill-rule="nonzero" fill-opacity="1" /><path clip-path="url(#clip820)" d="M32.8361 704.975 L35.7006 704.975 L35.7006 731.902 Q41.7481 731.52 44.9309 728.274 Q48.0819 724.996 48.0819 719.171 Q48.0819 715.797 47.2544 712.646 Q46.4269 709.463 44.7718 706.344 L50.3099 706.344 Q51.6467 709.495 52.347 712.805 Q53.0472 716.115 53.0472 719.521 Q53.0472 728.051 48.0819 733.048 Q43.1167 738.013 34.6503 738.013 Q25.8974 738.013 20.7731 733.303 Q15.6168 728.56 15.6168 720.54 Q15.6168 713.346 20.2638 709.177 Q24.8789 704.975 32.8361 704.975 M31.1173 710.832 Q26.3112 710.896 23.4466 713.537 Q20.5821 716.147 20.5821 720.476 Q20.5821 725.378 23.3512 728.338 Q26.1202 731.266 31.1492 731.711 L31.1173 710.832 Z" fill="#000000" fill-rule="nonzero" fill-opacity="1" /><path clip-path="url(#clip820)" d="M21.9507 674.707 Q21.3778 675.693 21.1232 676.871 Q20.8367 678.017 20.8367 679.417 Q20.8367 684.382 24.0832 687.056 Q27.2979 689.698 33.3453 689.698 L52.1242 689.698 L52.1242 695.586 L16.4762 695.586 L16.4762 689.698 L22.0144 689.698 Q18.7679 687.852 17.2083 684.892 Q15.6168 681.932 15.6168 677.698 Q15.6168 677.094 15.7123 676.362 Q15.776 675.63 15.9351 674.738 L21.9507 674.707 Z" fill="#000000" fill-rule="nonzero" fill-opacity="1" /><path clip-path="url(#clip820)" d="M16.4762 668.564 L16.4762 662.707 L52.1242 662.707 L52.1242 668.564 L16.4762 668.564 M2.59896 668.564 L2.59896 662.707 L10.015 662.707 L10.015 668.564 L2.59896 668.564 Z" fill="#000000" fill-rule="nonzero" fill-opacity="1" /><path clip-path="url(#clip820)" d="M20.5821 636.64 Q20.5821 641.35 24.2742 644.087 Q27.9345 646.825 34.332 646.825 Q40.7295 646.825 44.4217 644.119 Q48.0819 641.382 48.0819 636.64 Q48.0819 631.961 44.3898 629.224 Q40.6977 626.486 34.332 626.486 Q27.9981 626.486 24.306 629.224 Q20.5821 631.961 20.5821 636.64 M15.6168 636.64 Q15.6168 629.001 20.5821 624.64 Q25.5473 620.28 34.332 620.28 Q43.0849 620.28 48.0819 624.64 Q53.0472 629.001 53.0472 636.64 Q53.0472 644.31 48.0819 648.671 Q43.0849 652.999 34.332 652.999 Q25.5473 652.999 20.5821 648.671 Q15.6168 644.31 15.6168 636.64 Z" fill="#000000" fill-rule="nonzero" fill-opacity="1" /><path clip-path="url(#clip820)" d="M21.9507 589.915 Q21.3778 590.902 21.1232 592.08 Q20.8367 593.225 20.8367 594.626 Q20.8367 599.591 24.0832 602.265 Q27.2979 604.907 33.3453 604.907 L52.1242 604.907 L52.1242 610.795 L16.4762 610.795 L16.4762 604.907 L22.0144 604.907 Q18.7679 603.061 17.2083 600.1 Q15.6168 597.14 15.6168 592.907 Q15.6168 592.302 15.7123 591.57 Q15.776 590.838 15.9351 589.947 L21.9507 589.915 Z" fill="#000000" fill-rule="nonzero" fill-opacity="1" /><path clip-path="url(#clip820)" d="M46.777 557.387 L65.6831 557.387 L65.6831 563.275 L16.4762 563.275 L16.4762 557.387 L21.8871 557.387 Q18.7042 555.541 17.1764 552.74 Q15.6168 549.907 15.6168 545.992 Q15.6168 539.499 20.7731 535.457 Q25.9293 531.383 34.332 531.383 Q42.7347 531.383 47.891 535.457 Q53.0472 539.499 53.0472 545.992 Q53.0472 549.907 51.5194 552.74 Q49.9598 555.541 46.777 557.387 M34.332 537.462 Q27.8708 537.462 24.2105 540.135 Q20.5184 542.777 20.5184 547.424 Q20.5184 552.071 24.2105 554.745 Q27.8708 557.387 34.332 557.387 Q40.7932 557.387 44.4853 554.745 Q48.1456 552.071 48.1456 547.424 Q48.1456 542.777 44.4853 540.135 Q40.7932 537.462 34.332 537.462 Z" fill="#000000" fill-rule="nonzero" fill-opacity="1" /><path clip-path="url(#clip820)" d="M21.9507 501.018 Q21.3778 502.005 21.1232 503.183 Q20.8367 504.328 20.8367 505.729 Q20.8367 510.694 24.0832 513.368 Q27.2979 516.009 33.3453 516.009 L52.1242 516.009 L52.1242 521.898 L16.4762 521.898 L16.4762 516.009 L22.0144 516.009 Q18.7679 514.163 17.2083 511.203 Q15.6168 508.243 15.6168 504.01 Q15.6168 503.405 15.7123 502.673 Q15.776 501.941 15.9351 501.05 L21.9507 501.018 Z" fill="#000000" fill-rule="nonzero" fill-opacity="1" /><path clip-path="url(#clip820)" d="M20.5821 482.494 Q20.5821 487.205 24.2742 489.942 Q27.9345 492.679 34.332 492.679 Q40.7295 492.679 44.4217 489.974 Q48.0819 487.236 48.0819 482.494 Q48.0819 477.815 44.3898 475.078 Q40.6977 472.341 34.332 472.341 Q27.9981 472.341 24.306 475.078 Q20.5821 477.815 20.5821 482.494 M15.6168 482.494 Q15.6168 474.855 20.5821 470.495 Q25.5473 466.134 34.332 466.134 Q43.0849 466.134 48.0819 470.495 Q53.0472 474.855 53.0472 482.494 Q53.0472 490.165 48.0819 494.525 Q43.0849 498.854 34.332 498.854 Q25.5473 498.854 20.5821 494.525 Q15.6168 490.165 15.6168 482.494 Z" fill="#000000" fill-rule="nonzero" fill-opacity="1" /><path clip-path="url(#clip820)" d="M34.332 430.836 Q27.8708 430.836 24.2105 433.51 Q20.5184 436.152 20.5184 440.799 Q20.5184 445.446 24.2105 448.119 Q27.8708 450.761 34.332 450.761 Q40.7932 450.761 44.4853 448.119 Q48.1456 445.446 48.1456 440.799 Q48.1456 436.152 44.4853 433.51 Q40.7932 430.836 34.332 430.836 M21.8871 450.761 Q18.7042 448.915 17.1764 446.114 Q15.6168 443.281 15.6168 439.366 Q15.6168 432.873 20.7731 428.831 Q25.9293 424.757 34.332 424.757 Q42.7347 424.757 47.891 428.831 Q53.0472 432.873 53.0472 439.366 Q53.0472 443.281 51.5194 446.114 Q49.9598 448.915 46.777 450.761 L52.1242 450.761 L52.1242 456.649 L2.59896 456.649 L2.59896 450.761 L21.8871 450.761 Z" fill="#000000" fill-rule="nonzero" fill-opacity="1" /><path clip-path="url(#clip820)" d="M34.2047 398.849 Q34.2047 405.946 35.8279 408.684 Q37.4512 411.421 41.3661 411.421 Q44.4853 411.421 46.3314 409.384 Q48.1456 407.315 48.1456 403.782 Q48.1456 398.912 44.7081 395.984 Q41.2388 393.024 35.5097 393.024 L34.2047 393.024 L34.2047 398.849 M31.7857 387.168 L52.1242 387.168 L52.1242 393.024 L46.7133 393.024 Q49.9598 395.029 51.5194 398.021 Q53.0472 401.013 53.0472 405.342 Q53.0472 410.816 49.9916 414.063 Q46.9043 417.277 41.7481 417.277 Q35.7325 417.277 32.6769 413.267 Q29.6214 409.225 29.6214 401.236 L29.6214 393.024 L29.0485 393.024 Q25.0062 393.024 22.8101 395.698 Q20.5821 398.339 20.5821 403.145 Q20.5821 406.201 21.3141 409.097 Q22.0462 411.994 23.5103 414.667 L18.0995 414.667 Q16.8581 411.453 16.2534 408.429 Q15.6168 405.405 15.6168 402.541 Q15.6168 394.806 19.6272 390.987 Q23.6376 387.168 31.7857 387.168 Z" fill="#000000" fill-rule="nonzero" fill-opacity="1" /><path clip-path="url(#clip820)" d="M34.332 349.514 Q27.8708 349.514 24.2105 352.188 Q20.5184 354.83 20.5184 359.477 Q20.5184 364.124 24.2105 366.797 Q27.8708 369.439 34.332 369.439 Q40.7932 369.439 44.4853 366.797 Q48.1456 364.124 48.1456 359.477 Q48.1456 354.83 44.4853 352.188 Q40.7932 349.514 34.332 349.514 M21.8871 369.439 Q18.7042 367.593 17.1764 364.792 Q15.6168 361.959 15.6168 358.044 Q15.6168 351.551 20.7731 347.509 Q25.9293 343.435 34.332 343.435 Q42.7347 343.435 47.891 347.509 Q53.0472 351.551 53.0472 358.044 Q53.0472 361.959 51.5194 364.792 Q49.9598 367.593 46.777 369.439 L52.1242 369.439 L52.1242 375.327 L2.59896 375.327 L2.59896 369.439 L21.8871 369.439 Z" fill="#000000" fill-rule="nonzero" fill-opacity="1" /><path clip-path="url(#clip820)" d="M16.4762 333.727 L16.4762 327.871 L52.1242 327.871 L52.1242 333.727 L16.4762 333.727 M2.59896 333.727 L2.59896 327.871 L10.015 327.871 L10.015 333.727 L2.59896 333.727 Z" fill="#000000" fill-rule="nonzero" fill-opacity="1" /><path clip-path="url(#clip820)" d="M2.59896 315.617 L2.59896 309.761 L52.1242 309.761 L52.1242 315.617 L2.59896 315.617 Z" fill="#000000" fill-rule="nonzero" fill-opacity="1" /><path clip-path="url(#clip820)" d="M16.4762 297.507 L16.4762 291.65 L52.1242 291.65 L52.1242 297.507 L16.4762 297.507 M2.59896 297.507 L2.59896 291.65 L10.015 291.65 L10.015 297.507 L2.59896 297.507 Z" fill="#000000" fill-rule="nonzero" fill-opacity="1" /><path clip-path="url(#clip820)" d="M6.35473 273.603 L16.4762 273.603 L16.4762 261.54 L21.0277 261.54 L21.0277 273.603 L40.3794 273.603 Q44.7399 273.603 45.9813 272.426 Q47.2226 271.216 47.2226 267.556 L47.2226 261.54 L52.1242 261.54 L52.1242 267.556 Q52.1242 274.335 49.6097 276.914 Q47.0634 279.492 40.3794 279.492 L21.0277 279.492 L21.0277 283.788 L16.4762 283.788 L16.4762 279.492 L6.35473 279.492 L6.35473 273.603 Z" fill="#000000" fill-rule="nonzero" fill-opacity="1" /><path clip-path="url(#clip820)" d="M55.4343 239.006 Q61.8 241.488 63.7416 243.844 Q65.6831 246.199 65.6831 250.146 L65.6831 254.825 L60.7815 254.825 L60.7815 251.387 Q60.7815 248.968 59.6357 247.631 Q58.4899 246.294 54.2248 244.671 L51.5512 243.621 L16.4762 258.039 L16.4762 251.833 L44.358 240.693 L16.4762 229.553 L16.4762 223.346 L55.4343 239.006 Z" fill="#000000" fill-rule="nonzero" fill-opacity="1" /><path clip-path="url(#clip822)" d="M325.952 1047.7 L325.952 1047.7 L377.196 1047.7 L377.196 1047.7 L325.952 1047.7 L325.952 1047.7  Z" fill="#009af9" fill-rule="evenodd" fill-opacity="1"/>
<polyline clip-path="url(#clip822)" style="stroke:#000000; stroke-linecap:round; stroke-linejoin:round; stroke-width:4; stroke-opacity:1; fill:none" points="325.952,1047.7 325.952,1047.7 377.196,1047.7 325.952,1047.7 "/>
<path clip-path="url(#clip822)" d="M390.007 47.2441 L390.007 1047.7 L441.251 1047.7 L441.251 47.2441 L390.007 47.2441 L390.007 47.2441  Z" fill="#009af9" fill-rule="evenodd" fill-opacity="1"/>
<polyline clip-path="url(#clip822)" style="stroke:#000000; stroke-linecap:round; stroke-linejoin:round; stroke-width:4; stroke-opacity:1; fill:none" points="390.007,47.2441 390.007,1047.7 441.251,1047.7 441.251,47.2441 390.007,47.2441 "/>
<path clip-path="url(#clip822)" d="M454.062 1047.7 L454.062 1047.7 L505.306 1047.7 L505.306 1047.7 L454.062 1047.7 L454.062 1047.7  Z" fill="#009af9" fill-rule="evenodd" fill-opacity="1"/>
<polyline clip-path="url(#clip822)" style="stroke:#000000; stroke-linecap:round; stroke-linejoin:round; stroke-width:4; stroke-opacity:1; fill:none" points="454.062,1047.7 454.062,1047.7 505.306,1047.7 505.306,1047.7 454.062,1047.7 "/>
<path clip-path="url(#clip822)" d="M518.117 1047.7 L518.117 1047.7 L569.361 1047.7 L569.361 1047.7 L518.117 1047.7 L518.117 1047.7  Z" fill="#009af9" fill-rule="evenodd" fill-opacity="1"/>
<polyline clip-path="url(#clip822)" style="stroke:#000000; stroke-linecap:round; stroke-linejoin:round; stroke-width:4; stroke-opacity:1; fill:none" points="518.117,1047.7 518.117,1047.7 569.361,1047.7 518.117,1047.7 "/>
<path clip-path="url(#clip822)" d="M582.172 1047.7 L582.172 1047.7 L633.416 1047.7 L633.416 1047.7 L582.172 1047.7 L582.172 1047.7  Z" fill="#009af9" fill-rule="evenodd" fill-opacity="1"/>
<polyline clip-path="url(#clip822)" style="stroke:#000000; stroke-linecap:round; stroke-linejoin:round; stroke-width:4; stroke-opacity:1; fill:none" points="582.172,1047.7 582.172,1047.7 633.416,1047.7 582.172,1047.7 "/>
<path clip-path="url(#clip822)" d="M646.227 1047.7 L646.227 1047.7 L697.471 1047.7 L697.471 1047.7 L646.227 1047.7 L646.227 1047.7  Z" fill="#009af9" fill-rule="evenodd" fill-opacity="1"/>
<polyline clip-path="url(#clip822)" style="stroke:#000000; stroke-linecap:round; stroke-linejoin:round; stroke-width:4; stroke-opacity:1; fill:none" points="646.227,1047.7 646.227,1047.7 697.471,1047.7 646.227,1047.7 "/>
<path clip-path="url(#clip822)" d="M710.282 1047.7 L710.282 1047.7 L761.526 1047.7 L761.526 1047.7 L710.282 1047.7 L710.282 1047.7  Z" fill="#009af9" fill-rule="evenodd" fill-opacity="1"/>
<polyline clip-path="url(#clip822)" style="stroke:#000000; stroke-linecap:round; stroke-linejoin:round; stroke-width:4; stroke-opacity:1; fill:none" points="710.282,1047.7 710.282,1047.7 761.526,1047.7 710.282,1047.7 "/>
<path clip-path="url(#clip822)" d="M774.337 1047.7 L774.337 1047.7 L825.581 1047.7 L825.581 1047.7 L774.337 1047.7 L774.337 1047.7  Z" fill="#009af9" fill-rule="evenodd" fill-opacity="1"/>
<polyline clip-path="url(#clip822)" style="stroke:#000000; stroke-linecap:round; stroke-linejoin:round; stroke-width:4; stroke-opacity:1; fill:none" points="774.337,1047.7 774.337,1047.7 825.581,1047.7 774.337,1047.7 "/>
<path clip-path="url(#clip822)" d="M838.392 1047.7 L838.392 1047.7 L889.636 1047.7 L889.636 1047.7 L838.392 1047.7 L838.392 1047.7  Z" fill="#009af9" fill-rule="evenodd" fill-opacity="1"/>
<polyline clip-path="url(#clip822)" style="stroke:#000000; stroke-linecap:round; stroke-linejoin:round; stroke-width:4; stroke-opacity:1; fill:none" points="838.392,1047.7 838.392,1047.7 889.636,1047.7 838.392,1047.7 "/>
<path clip-path="url(#clip822)" d="M902.447 1047.7 L902.447 1047.7 L953.691 1047.7 L953.691 1047.7 L902.447 1047.7 L902.447 1047.7  Z" fill="#009af9" fill-rule="evenodd" fill-opacity="1"/>
<polyline clip-path="url(#clip822)" style="stroke:#000000; stroke-linecap:round; stroke-linejoin:round; stroke-width:4; stroke-opacity:1; fill:none" points="902.447,1047.7 902.447,1047.7 953.691,1047.7 902.447,1047.7 "/>
<path clip-path="url(#clip822)" d="M966.502 1047.7 L966.502 1047.7 L1017.75 1047.7 L1017.75 1047.7 L966.502 1047.7 L966.502 1047.7  Z" fill="#009af9" fill-rule="evenodd" fill-opacity="1"/>
<polyline clip-path="url(#clip822)" style="stroke:#000000; stroke-linecap:round; stroke-linejoin:round; stroke-width:4; stroke-opacity:1; fill:none" points="966.502,1047.7 966.502,1047.7 1017.75,1047.7 966.502,1047.7 "/>
<path clip-path="url(#clip822)" d="M1030.56 1047.7 L1030.56 1047.7 L1081.8 1047.7 L1081.8 1047.7 L1030.56 1047.7 L1030.56 1047.7  Z" fill="#009af9" fill-rule="evenodd" fill-opacity="1"/>
<polyline clip-path="url(#clip822)" style="stroke:#000000; stroke-linecap:round; stroke-linejoin:round; stroke-width:4; stroke-opacity:1; fill:none" points="1030.56,1047.7 1030.56,1047.7 1081.8,1047.7 1030.56,1047.7 "/>
<path clip-path="url(#clip822)" d="M1094.61 1047.7 L1094.61 1047.7 L1145.86 1047.7 L1145.86 1047.7 L1094.61 1047.7 L1094.61 1047.7  Z" fill="#009af9" fill-rule="evenodd" fill-opacity="1"/>
<polyline clip-path="url(#clip822)" style="stroke:#000000; stroke-linecap:round; stroke-linejoin:round; stroke-width:4; stroke-opacity:1; fill:none" points="1094.61,1047.7 1094.61,1047.7 1145.86,1047.7 1094.61,1047.7 "/>
<path clip-path="url(#clip822)" d="M1158.67 1047.7 L1158.67 1047.7 L1209.91 1047.7 L1209.91 1047.7 L1158.67 1047.7 L1158.67 1047.7  Z" fill="#009af9" fill-rule="evenodd" fill-opacity="1"/>
<polyline clip-path="url(#clip822)" style="stroke:#000000; stroke-linecap:round; stroke-linejoin:round; stroke-width:4; stroke-opacity:1; fill:none" points="1158.67,1047.7 1158.67,1047.7 1209.91,1047.7 1158.67,1047.7 "/>
<path clip-path="url(#clip822)" d="M1222.72 1047.7 L1222.72 1047.7 L1273.97 1047.7 L1273.97 1047.7 L1222.72 1047.7 L1222.72 1047.7  Z" fill="#009af9" fill-rule="evenodd" fill-opacity="1"/>
<polyline clip-path="url(#clip822)" style="stroke:#000000; stroke-linecap:round; stroke-linejoin:round; stroke-width:4; stroke-opacity:1; fill:none" points="1222.72,1047.7 1222.72,1047.7 1273.97,1047.7 1222.72,1047.7 "/>
<path clip-path="url(#clip822)" d="M1286.78 1047.7 L1286.78 1047.7 L1338.02 1047.7 L1338.02 1047.7 L1286.78 1047.7 L1286.78 1047.7  Z" fill="#009af9" fill-rule="evenodd" fill-opacity="1"/>
<polyline clip-path="url(#clip822)" style="stroke:#000000; stroke-linecap:round; stroke-linejoin:round; stroke-width:4; stroke-opacity:1; fill:none" points="1286.78,1047.7 1286.78,1047.7 1338.02,1047.7 1286.78,1047.7 "/>
<path clip-path="url(#clip822)" d="M1350.83 1047.7 L1350.83 1047.7 L1402.08 1047.7 L1402.08 1047.7 L1350.83 1047.7 L1350.83 1047.7  Z" fill="#009af9" fill-rule="evenodd" fill-opacity="1"/>
<polyline clip-path="url(#clip822)" style="stroke:#000000; stroke-linecap:round; stroke-linejoin:round; stroke-width:4; stroke-opacity:1; fill:none" points="1350.83,1047.7 1350.83,1047.7 1402.08,1047.7 1350.83,1047.7 "/>
<path clip-path="url(#clip822)" d="M1414.89 1047.7 L1414.89 1047.7 L1466.13 1047.7 L1466.13 1047.7 L1414.89 1047.7 L1414.89 1047.7  Z" fill="#009af9" fill-rule="evenodd" fill-opacity="1"/>
<polyline clip-path="url(#clip822)" style="stroke:#000000; stroke-linecap:round; stroke-linejoin:round; stroke-width:4; stroke-opacity:1; fill:none" points="1414.89,1047.7 1414.89,1047.7 1466.13,1047.7 1414.89,1047.7 "/>
<path clip-path="url(#clip822)" d="M1478.94 1047.7 L1478.94 1047.7 L1530.19 1047.7 L1530.19 1047.7 L1478.94 1047.7 L1478.94 1047.7  Z" fill="#009af9" fill-rule="evenodd" fill-opacity="1"/>
<polyline clip-path="url(#clip822)" style="stroke:#000000; stroke-linecap:round; stroke-linejoin:round; stroke-width:4; stroke-opacity:1; fill:none" points="1478.94,1047.7 1478.94,1047.7 1530.19,1047.7 1478.94,1047.7 "/>
<path clip-path="url(#clip822)" d="M1543 1047.7 L1543 1047.7 L1594.24 1047.7 L1594.24 1047.7 L1543 1047.7 L1543 1047.7  Z" fill="#009af9" fill-rule="evenodd" fill-opacity="1"/>
<polyline clip-path="url(#clip822)" style="stroke:#000000; stroke-linecap:round; stroke-linejoin:round; stroke-width:4; stroke-opacity:1; fill:none" points="1543,1047.7 1543,1047.7 1594.24,1047.7 1543,1047.7 "/>
<path clip-path="url(#clip822)" d="M1607.05 1047.7 L1607.05 1047.7 L1658.3 1047.7 L1658.3 1047.7 L1607.05 1047.7 L1607.05 1047.7  Z" fill="#009af9" fill-rule="evenodd" fill-opacity="1"/>
<polyline clip-path="url(#clip822)" style="stroke:#000000; stroke-linecap:round; stroke-linejoin:round; stroke-width:4; stroke-opacity:1; fill:none" points="1607.05,1047.7 1607.05,1047.7 1658.3,1047.7 1607.05,1047.7 "/>
<path clip-path="url(#clip822)" d="M1671.11 1047.7 L1671.11 1047.7 L1722.35 1047.7 L1722.35 1047.7 L1671.11 1047.7 L1671.11 1047.7  Z" fill="#009af9" fill-rule="evenodd" fill-opacity="1"/>
<polyline clip-path="url(#clip822)" style="stroke:#000000; stroke-linecap:round; stroke-linejoin:round; stroke-width:4; stroke-opacity:1; fill:none" points="1671.11,1047.7 1671.11,1047.7 1722.35,1047.7 1671.11,1047.7 "/>
<path clip-path="url(#clip822)" d="M1735.16 1047.7 L1735.16 1047.7 L1786.41 1047.7 L1786.41 1047.7 L1735.16 1047.7 L1735.16 1047.7  Z" fill="#009af9" fill-rule="evenodd" fill-opacity="1"/>
<polyline clip-path="url(#clip822)" style="stroke:#000000; stroke-linecap:round; stroke-linejoin:round; stroke-width:4; stroke-opacity:1; fill:none" points="1735.16,1047.7 1735.16,1047.7 1786.41,1047.7 1735.16,1047.7 "/>
<path clip-path="url(#clip822)" d="M1799.22 1047.7 L1799.22 1047.7 L1850.46 1047.7 L1850.46 1047.7 L1799.22 1047.7 L1799.22 1047.7  Z" fill="#009af9" fill-rule="evenodd" fill-opacity="1"/>
<polyline clip-path="url(#clip822)" style="stroke:#000000; stroke-linecap:round; stroke-linejoin:round; stroke-width:4; stroke-opacity:1; fill:none" points="1799.22,1047.7 1799.22,1047.7 1850.46,1047.7 1799.22,1047.7 "/>
<path clip-path="url(#clip822)" d="M1863.27 1047.7 L1863.27 1047.7 L1914.52 1047.7 L1914.52 1047.7 L1863.27 1047.7 L1863.27 1047.7  Z" fill="#009af9" fill-rule="evenodd" fill-opacity="1"/>
<polyline clip-path="url(#clip822)" style="stroke:#000000; stroke-linecap:round; stroke-linejoin:round; stroke-width:4; stroke-opacity:1; fill:none" points="1863.27,1047.7 1863.27,1047.7 1914.52,1047.7 1863.27,1047.7 "/>
<path clip-path="url(#clip822)" d="M1927.33 1047.7 L1927.33 1047.7 L1978.57 1047.7 L1978.57 1047.7 L1927.33 1047.7 L1927.33 1047.7  Z" fill="#009af9" fill-rule="evenodd" fill-opacity="1"/>
<polyline clip-path="url(#clip822)" style="stroke:#000000; stroke-linecap:round; stroke-linejoin:round; stroke-width:4; stroke-opacity:1; fill:none" points="1927.33,1047.7 1927.33,1047.7 1978.57,1047.7 1927.33,1047.7 "/>
<path clip-path="url(#clip822)" d="M1991.38 1047.7 L1991.38 1047.7 L2042.62 1047.7 L2042.62 1047.7 L1991.38 1047.7 L1991.38 1047.7  Z" fill="#009af9" fill-rule="evenodd" fill-opacity="1"/>
<polyline clip-path="url(#clip822)" style="stroke:#000000; stroke-linecap:round; stroke-linejoin:round; stroke-width:4; stroke-opacity:1; fill:none" points="1991.38,1047.7 1991.38,1047.7 2042.62,1047.7 1991.38,1047.7 "/>
<path clip-path="url(#clip822)" d="M2055.44 1047.7 L2055.44 1047.7 L2106.68 1047.7 L2106.68 1047.7 L2055.44 1047.7 L2055.44 1047.7  Z" fill="#009af9" fill-rule="evenodd" fill-opacity="1"/>
<polyline clip-path="url(#clip822)" style="stroke:#000000; stroke-linecap:round; stroke-linejoin:round; stroke-width:4; stroke-opacity:1; fill:none" points="2055.44,1047.7 2055.44,1047.7 2106.68,1047.7 2055.44,1047.7 "/>
<path clip-path="url(#clip822)" d="M2119.49 1047.7 L2119.49 1047.7 L2170.73 1047.7 L2170.73 1047.7 L2119.49 1047.7 L2119.49 1047.7  Z" fill="#009af9" fill-rule="evenodd" fill-opacity="1"/>
<polyline clip-path="url(#clip822)" style="stroke:#000000; stroke-linecap:round; stroke-linejoin:round; stroke-width:4; stroke-opacity:1; fill:none" points="2119.49,1047.7 2119.49,1047.7 2170.73,1047.7 2119.49,1047.7 "/>
<path clip-path="url(#clip822)" d="M2183.55 1047.7 L2183.55 1047.7 L2234.79 1047.7 L2234.79 1047.7 L2183.55 1047.7 L2183.55 1047.7  Z" fill="#009af9" fill-rule="evenodd" fill-opacity="1"/>
<polyline clip-path="url(#clip822)" style="stroke:#000000; stroke-linecap:round; stroke-linejoin:round; stroke-width:4; stroke-opacity:1; fill:none" points="2183.55,1047.7 2183.55,1047.7 2234.79,1047.7 2183.55,1047.7 "/>
<circle clip-path="url(#clip822)" style="fill:#009af9; stroke:none; fill-opacity:0" cx="351.574" cy="1047.7" r="2"/>
<circle clip-path="url(#clip822)" style="fill:#009af9; stroke:none; fill-opacity:0" cx="415.629" cy="47.2441" r="2"/>
<circle clip-path="url(#clip822)" style="fill:#009af9; stroke:none; fill-opacity:0" cx="479.684" cy="1047.7" r="2"/>
<circle clip-path="url(#clip822)" style="fill:#009af9; stroke:none; fill-opacity:0" cx="543.739" cy="1047.7" r="2"/>
<circle clip-path="url(#clip822)" style="fill:#009af9; stroke:none; fill-opacity:0" cx="607.794" cy="1047.7" r="2"/>
<circle clip-path="url(#clip822)" style="fill:#009af9; stroke:none; fill-opacity:0" cx="671.849" cy="1047.7" r="2"/>
<circle clip-path="url(#clip822)" style="fill:#009af9; stroke:none; fill-opacity:0" cx="735.904" cy="1047.7" r="2"/>
<circle clip-path="url(#clip822)" style="fill:#009af9; stroke:none; fill-opacity:0" cx="799.959" cy="1047.7" r="2"/>
<circle clip-path="url(#clip822)" style="fill:#009af9; stroke:none; fill-opacity:0" cx="864.014" cy="1047.7" r="2"/>
<circle clip-path="url(#clip822)" style="fill:#009af9; stroke:none; fill-opacity:0" cx="928.069" cy="1047.7" r="2"/>
<circle clip-path="url(#clip822)" style="fill:#009af9; stroke:none; fill-opacity:0" cx="992.124" cy="1047.7" r="2"/>
<circle clip-path="url(#clip822)" style="fill:#009af9; stroke:none; fill-opacity:0" cx="1056.18" cy="1047.7" r="2"/>
<circle clip-path="url(#clip822)" style="fill:#009af9; stroke:none; fill-opacity:0" cx="1120.23" cy="1047.7" r="2"/>
<circle clip-path="url(#clip822)" style="fill:#009af9; stroke:none; fill-opacity:0" cx="1184.29" cy="1047.7" r="2"/>
<circle clip-path="url(#clip822)" style="fill:#009af9; stroke:none; fill-opacity:0" cx="1248.34" cy="1047.7" r="2"/>
<circle clip-path="url(#clip822)" style="fill:#009af9; stroke:none; fill-opacity:0" cx="1312.4" cy="1047.7" r="2"/>
<circle clip-path="url(#clip822)" style="fill:#009af9; stroke:none; fill-opacity:0" cx="1376.45" cy="1047.7" r="2"/>
<circle clip-path="url(#clip822)" style="fill:#009af9; stroke:none; fill-opacity:0" cx="1440.51" cy="1047.7" r="2"/>
<circle clip-path="url(#clip822)" style="fill:#009af9; stroke:none; fill-opacity:0" cx="1504.56" cy="1047.7" r="2"/>
<circle clip-path="url(#clip822)" style="fill:#009af9; stroke:none; fill-opacity:0" cx="1568.62" cy="1047.7" r="2"/>
<circle clip-path="url(#clip822)" style="fill:#009af9; stroke:none; fill-opacity:0" cx="1632.67" cy="1047.7" r="2"/>
<circle clip-path="url(#clip822)" style="fill:#009af9; stroke:none; fill-opacity:0" cx="1696.73" cy="1047.7" r="2"/>
<circle clip-path="url(#clip822)" style="fill:#009af9; stroke:none; fill-opacity:0" cx="1760.78" cy="1047.7" r="2"/>
<circle clip-path="url(#clip822)" style="fill:#009af9; stroke:none; fill-opacity:0" cx="1824.84" cy="1047.7" r="2"/>
<circle clip-path="url(#clip822)" style="fill:#009af9; stroke:none; fill-opacity:0" cx="1888.89" cy="1047.7" r="2"/>
<circle clip-path="url(#clip822)" style="fill:#009af9; stroke:none; fill-opacity:0" cx="1952.95" cy="1047.7" r="2"/>
<circle clip-path="url(#clip822)" style="fill:#009af9; stroke:none; fill-opacity:0" cx="2017" cy="1047.7" r="2"/>
<circle clip-path="url(#clip822)" style="fill:#009af9; stroke:none; fill-opacity:0" cx="2081.06" cy="1047.7" r="2"/>
<circle clip-path="url(#clip822)" style="fill:#009af9; stroke:none; fill-opacity:0" cx="2145.11" cy="1047.7" r="2"/>
<circle clip-path="url(#clip822)" style="fill:#009af9; stroke:none; fill-opacity:0" cx="2209.17" cy="1047.7" r="2"/>
</svg>
